<?xml version="1.0" encoding="utf-8" standalone="no"?>
<!DOCTYPE svg PUBLIC "-//W3C//DTD SVG 1.1//EN"
  "http://www.w3.org/Graphics/SVG/1.1/DTD/svg11.dtd">
<svg xmlns:xlink="http://www.w3.org/1999/xlink" width="460.8pt" height="345.6pt" viewBox="0 0 460.8 345.6" xmlns="http://www.w3.org/2000/svg" version="1.1">
 <metadata>
  <rdf:RDF xmlns:dc="http://purl.org/dc/elements/1.1/" xmlns:cc="http://creativecommons.org/ns#" xmlns:rdf="http://www.w3.org/1999/02/22-rdf-syntax-ns#">
   <cc:Work>
    <dc:type rdf:resource="http://purl.org/dc/dcmitype/StillImage"/>
    <dc:date>2022-05-19T23:39:08.174894</dc:date>
    <dc:format>image/svg+xml</dc:format>
    <dc:creator>
     <cc:Agent>
      <dc:title>Matplotlib v3.5.1, https://matplotlib.org/</dc:title>
     </cc:Agent>
    </dc:creator>
   </cc:Work>
  </rdf:RDF>
 </metadata>
 <defs>
  <style type="text/css">*{stroke-linejoin: round; stroke-linecap: butt}</style>
 </defs>
 <g id="figure_1">
  <g id="patch_1">
   <path d="M 0 345.6 
L 460.8 345.6 
L 460.8 0 
L 0 0 
z
" style="fill: #ffffff"/>
  </g>
  <g id="axes_1">
   <g id="patch_2">
    <path d="M 57.6 307.584 
L 414.72 307.584 
L 414.72 41.472 
L 57.6 41.472 
z
" style="fill: #ffffff"/>
   </g>
   <g id="matplotlib.axis_1">
    <g id="xtick_1">
     <g id="line2d_1">
      <defs>
       <path id="m0941a176eb" d="M 0 0 
L 0 3.5 
" style="stroke: #000000; stroke-width: 0.8"/>
      </defs>
      <g>
       <use xlink:href="#m0941a176eb" x="67.655024" y="307.584" style="stroke: #000000; stroke-width: 0.8"/>
      </g>
     </g>
     <g id="text_1">
      <!-- $\mathdefault{0.1}$ -->
      <g transform="translate(61.289985 321.502498)scale(0.1 -0.1)">
       <defs>
        <path id="CMR17-30" d="M 2688 2025 
C 2688 2416 2682 3080 2413 3591 
C 2176 4039 1798 4198 1466 4198 
C 1158 4198 768 4058 525 3597 
C 269 3118 243 2524 243 2025 
C 243 1661 250 1106 448 619 
C 723 -39 1216 -128 1466 -128 
C 1760 -128 2208 -7 2470 600 
C 2662 1042 2688 1559 2688 2025 
z
M 1466 -26 
C 1056 -26 813 325 723 812 
C 653 1188 653 1738 653 2096 
C 653 2588 653 2997 736 3387 
C 858 3929 1216 4096 1466 4096 
C 1728 4096 2067 3923 2189 3400 
C 2272 3036 2278 2607 2278 2096 
C 2278 1680 2278 1169 2202 792 
C 2067 95 1690 -26 1466 -26 
z
" transform="scale(0.015625)"/>
        <path id="CMMI12-3a" d="M 1178 307 
C 1178 492 1024 619 870 619 
C 685 619 557 466 557 313 
C 557 128 710 0 864 0 
C 1050 0 1178 153 1178 307 
z
" transform="scale(0.015625)"/>
        <path id="CMR17-31" d="M 1702 4058 
C 1702 4192 1696 4192 1606 4192 
C 1357 3916 979 3827 621 3827 
C 602 3827 570 3827 563 3808 
C 557 3795 557 3782 557 3648 
C 755 3648 1088 3686 1344 3839 
L 1344 461 
C 1344 236 1331 160 781 160 
L 589 160 
L 589 0 
C 896 0 1216 0 1523 0 
C 1830 0 2150 0 2458 0 
L 2458 160 
L 2266 160 
C 1715 160 1702 230 1702 458 
L 1702 4058 
z
" transform="scale(0.015625)"/>
       </defs>
       <use xlink:href="#CMR17-30" transform="scale(0.996264)"/>
       <use xlink:href="#CMMI12-3a" transform="translate(45.690477 0)scale(0.996264)"/>
       <use xlink:href="#CMR17-31" transform="translate(72.787654 0)scale(0.996264)"/>
      </g>
     </g>
    </g>
    <g id="xtick_2">
     <g id="line2d_2">
      <g>
       <use xlink:href="#m0941a176eb" x="132.683476" y="307.584" style="stroke: #000000; stroke-width: 0.8"/>
      </g>
     </g>
     <g id="text_2">
      <!-- $\mathdefault{0.2}$ -->
      <g transform="translate(126.318437 321.502498)scale(0.1 -0.1)">
       <defs>
        <path id="CMR17-32" d="M 2669 989 
L 2554 989 
C 2490 536 2438 459 2413 420 
C 2381 369 1920 369 1830 369 
L 602 369 
C 832 619 1280 1072 1824 1597 
C 2214 1967 2669 2402 2669 3035 
C 2669 3790 2067 4224 1395 4224 
C 691 4224 262 3604 262 3030 
C 262 2780 448 2748 525 2748 
C 589 2748 781 2787 781 3010 
C 781 3207 614 3264 525 3264 
C 486 3264 448 3258 422 3245 
C 544 3790 915 4058 1306 4058 
C 1862 4058 2227 3617 2227 3035 
C 2227 2479 1901 2000 1536 1584 
L 262 146 
L 262 0 
L 2515 0 
L 2669 989 
z
" transform="scale(0.015625)"/>
       </defs>
       <use xlink:href="#CMR17-30" transform="scale(0.996264)"/>
       <use xlink:href="#CMMI12-3a" transform="translate(45.690477 0)scale(0.996264)"/>
       <use xlink:href="#CMR17-32" transform="translate(72.787654 0)scale(0.996264)"/>
      </g>
     </g>
    </g>
    <g id="xtick_3">
     <g id="line2d_3">
      <g>
       <use xlink:href="#m0941a176eb" x="197.711928" y="307.584" style="stroke: #000000; stroke-width: 0.8"/>
      </g>
     </g>
     <g id="text_3">
      <!-- $\mathdefault{0.3}$ -->
      <g transform="translate(191.346888 321.502498)scale(0.1 -0.1)">
       <defs>
        <path id="CMR17-33" d="M 1414 2157 
C 1984 2157 2234 1662 2234 1090 
C 2234 320 1824 25 1453 25 
C 1114 25 563 194 390 693 
C 422 680 454 680 486 680 
C 640 680 755 782 755 948 
C 755 1133 614 1216 486 1216 
C 378 1216 211 1165 211 926 
C 211 335 787 -128 1466 -128 
C 2176 -128 2720 430 2720 1085 
C 2720 1707 2208 2157 1600 2227 
C 2086 2328 2554 2756 2554 3329 
C 2554 3820 2048 4179 1472 4179 
C 890 4179 378 3829 378 3329 
C 378 3110 544 3072 627 3072 
C 762 3072 877 3155 877 3321 
C 877 3486 762 3569 627 3569 
C 602 3569 570 3569 544 3557 
C 730 3959 1235 4032 1459 4032 
C 1683 4032 2106 3925 2106 3320 
C 2106 3143 2080 2828 1862 2550 
C 1670 2304 1453 2304 1242 2284 
C 1210 2284 1062 2269 1037 2269 
C 992 2263 966 2257 966 2208 
C 966 2163 973 2157 1101 2157 
L 1414 2157 
z
" transform="scale(0.015625)"/>
       </defs>
       <use xlink:href="#CMR17-30" transform="scale(0.996264)"/>
       <use xlink:href="#CMMI12-3a" transform="translate(45.690477 0)scale(0.996264)"/>
       <use xlink:href="#CMR17-33" transform="translate(72.787654 0)scale(0.996264)"/>
      </g>
     </g>
    </g>
    <g id="xtick_4">
     <g id="line2d_4">
      <g>
       <use xlink:href="#m0941a176eb" x="262.74038" y="307.584" style="stroke: #000000; stroke-width: 0.8"/>
      </g>
     </g>
     <g id="text_4">
      <!-- $\mathdefault{0.4}$ -->
      <g transform="translate(256.37534 321.502498)scale(0.1 -0.1)">
       <defs>
        <path id="CMR17-34" d="M 2150 4122 
C 2150 4256 2144 4256 2029 4256 
L 128 1254 
L 128 1088 
L 1779 1088 
L 1779 457 
C 1779 224 1766 160 1318 160 
L 1197 160 
L 1197 0 
C 1402 0 1747 0 1965 0 
C 2182 0 2528 0 2733 0 
L 2733 160 
L 2611 160 
C 2163 160 2150 224 2150 457 
L 2150 1088 
L 2803 1088 
L 2803 1254 
L 2150 1254 
L 2150 4122 
z
M 1798 3703 
L 1798 1254 
L 256 1254 
L 1798 3703 
z
" transform="scale(0.015625)"/>
       </defs>
       <use xlink:href="#CMR17-30" transform="scale(0.996264)"/>
       <use xlink:href="#CMMI12-3a" transform="translate(45.690477 0)scale(0.996264)"/>
       <use xlink:href="#CMR17-34" transform="translate(72.787654 0)scale(0.996264)"/>
      </g>
     </g>
    </g>
    <g id="xtick_5">
     <g id="line2d_5">
      <g>
       <use xlink:href="#m0941a176eb" x="327.768831" y="307.584" style="stroke: #000000; stroke-width: 0.8"/>
      </g>
     </g>
     <g id="text_5">
      <!-- $\mathdefault{0.5}$ -->
      <g transform="translate(321.403792 321.502498)scale(0.1 -0.1)">
       <defs>
        <path id="CMR17-35" d="M 730 3692 
C 794 3666 1056 3584 1325 3584 
C 1920 3584 2246 3911 2432 4100 
C 2432 4157 2432 4192 2394 4192 
C 2387 4192 2374 4192 2323 4163 
C 2099 4058 1837 3973 1517 3973 
C 1325 3973 1037 3999 723 4139 
C 653 4171 640 4171 634 4171 
C 602 4171 595 4164 595 4037 
L 595 2203 
C 595 2089 595 2057 659 2057 
C 691 2057 704 2070 736 2114 
C 941 2401 1222 2522 1542 2522 
C 1766 2522 2246 2382 2246 1289 
C 2246 1085 2246 715 2054 421 
C 1894 159 1645 25 1370 25 
C 947 25 518 320 403 814 
C 429 807 480 795 506 795 
C 589 795 749 840 749 1038 
C 749 1210 627 1280 506 1280 
C 358 1280 262 1190 262 1011 
C 262 454 704 -128 1382 -128 
C 2042 -128 2669 440 2669 1264 
C 2669 2030 2170 2624 1549 2624 
C 1222 2624 947 2503 730 2274 
L 730 3692 
z
" transform="scale(0.015625)"/>
       </defs>
       <use xlink:href="#CMR17-30" transform="scale(0.996264)"/>
       <use xlink:href="#CMMI12-3a" transform="translate(45.690477 0)scale(0.996264)"/>
       <use xlink:href="#CMR17-35" transform="translate(72.787654 0)scale(0.996264)"/>
      </g>
     </g>
    </g>
    <g id="xtick_6">
     <g id="line2d_6">
      <g>
       <use xlink:href="#m0941a176eb" x="392.797283" y="307.584" style="stroke: #000000; stroke-width: 0.8"/>
      </g>
     </g>
     <g id="text_6">
      <!-- $\mathdefault{0.6}$ -->
      <g transform="translate(386.432244 321.502498)scale(0.1 -0.1)">
       <defs>
        <path id="CMR17-36" d="M 678 2176 
C 678 3690 1395 4032 1811 4032 
C 1946 4032 2272 4009 2400 3776 
C 2298 3776 2106 3776 2106 3553 
C 2106 3381 2246 3323 2336 3323 
C 2394 3323 2566 3348 2566 3560 
C 2566 3954 2246 4179 1805 4179 
C 1043 4179 243 3390 243 1984 
C 243 253 966 -128 1478 -128 
C 2099 -128 2688 427 2688 1283 
C 2688 2081 2170 2662 1517 2662 
C 1126 2662 838 2407 678 1960 
L 678 2176 
z
M 1478 25 
C 691 25 691 1200 691 1436 
C 691 1896 909 2560 1504 2560 
C 1613 2560 1926 2560 2138 2120 
C 2253 1870 2253 1609 2253 1289 
C 2253 944 2253 690 2118 434 
C 1978 171 1773 25 1478 25 
z
" transform="scale(0.015625)"/>
       </defs>
       <use xlink:href="#CMR17-30" transform="scale(0.996264)"/>
       <use xlink:href="#CMMI12-3a" transform="translate(45.690477 0)scale(0.996264)"/>
       <use xlink:href="#CMR17-36" transform="translate(72.787654 0)scale(0.996264)"/>
      </g>
     </g>
    </g>
   </g>
   <g id="matplotlib.axis_2">
    <g id="ytick_1">
     <g id="line2d_7">
      <defs>
       <path id="mb5c3aa2992" d="M 0 0 
L -3.5 0 
" style="stroke: #000000; stroke-width: 0.8"/>
      </defs>
      <g>
       <use xlink:href="#mb5c3aa2992" x="57.6" y="294.27843" style="stroke: #000000; stroke-width: 0.8"/>
      </g>
     </g>
     <g id="text_7">
      <!-- $\mathdefault{−0.30}$ -->
      <g transform="translate(25.139842 297.737679)scale(0.1 -0.1)">
       <defs>
        <path id="CMSY10-0" d="M 4218 1472 
C 4326 1472 4442 1472 4442 1600 
C 4442 1728 4326 1728 4218 1728 
L 755 1728 
C 646 1728 531 1728 531 1600 
C 531 1472 646 1472 755 1472 
L 4218 1472 
z
" transform="scale(0.015625)"/>
       </defs>
       <use xlink:href="#CMSY10-0" transform="scale(0.996264)"/>
       <use xlink:href="#CMR17-30" transform="translate(77.487468 0)scale(0.996264)"/>
       <use xlink:href="#CMMI12-3a" transform="translate(123.177945 0)scale(0.996264)"/>
       <use xlink:href="#CMR17-33" transform="translate(150.275122 0)scale(0.996264)"/>
       <use xlink:href="#CMR17-30" transform="translate(195.965599 0)scale(0.996264)"/>
      </g>
     </g>
    </g>
    <g id="ytick_2">
     <g id="line2d_8">
      <g>
       <use xlink:href="#mb5c3aa2992" x="57.6" y="254.160025" style="stroke: #000000; stroke-width: 0.8"/>
      </g>
     </g>
     <g id="text_8">
      <!-- $\mathdefault{−0.25}$ -->
      <g transform="translate(25.139842 257.619274)scale(0.1 -0.1)">
       <use xlink:href="#CMSY10-0" transform="scale(0.996264)"/>
       <use xlink:href="#CMR17-30" transform="translate(77.487468 0)scale(0.996264)"/>
       <use xlink:href="#CMMI12-3a" transform="translate(123.177945 0)scale(0.996264)"/>
       <use xlink:href="#CMR17-32" transform="translate(150.275122 0)scale(0.996264)"/>
       <use xlink:href="#CMR17-35" transform="translate(195.965599 0)scale(0.996264)"/>
      </g>
     </g>
    </g>
    <g id="ytick_3">
     <g id="line2d_9">
      <g>
       <use xlink:href="#mb5c3aa2992" x="57.6" y="214.04162" style="stroke: #000000; stroke-width: 0.8"/>
      </g>
     </g>
     <g id="text_9">
      <!-- $\mathdefault{−0.20}$ -->
      <g transform="translate(25.139842 217.500869)scale(0.1 -0.1)">
       <use xlink:href="#CMSY10-0" transform="scale(0.996264)"/>
       <use xlink:href="#CMR17-30" transform="translate(77.487468 0)scale(0.996264)"/>
       <use xlink:href="#CMMI12-3a" transform="translate(123.177945 0)scale(0.996264)"/>
       <use xlink:href="#CMR17-32" transform="translate(150.275122 0)scale(0.996264)"/>
       <use xlink:href="#CMR17-30" transform="translate(195.965599 0)scale(0.996264)"/>
      </g>
     </g>
    </g>
    <g id="ytick_4">
     <g id="line2d_10">
      <g>
       <use xlink:href="#mb5c3aa2992" x="57.6" y="173.923215" style="stroke: #000000; stroke-width: 0.8"/>
      </g>
     </g>
     <g id="text_10">
      <!-- $\mathdefault{−0.15}$ -->
      <g transform="translate(25.139842 177.382464)scale(0.1 -0.1)">
       <use xlink:href="#CMSY10-0" transform="scale(0.996264)"/>
       <use xlink:href="#CMR17-30" transform="translate(77.487468 0)scale(0.996264)"/>
       <use xlink:href="#CMMI12-3a" transform="translate(123.177945 0)scale(0.996264)"/>
       <use xlink:href="#CMR17-31" transform="translate(150.275122 0)scale(0.996264)"/>
       <use xlink:href="#CMR17-35" transform="translate(195.965599 0)scale(0.996264)"/>
      </g>
     </g>
    </g>
    <g id="ytick_5">
     <g id="line2d_11">
      <g>
       <use xlink:href="#mb5c3aa2992" x="57.6" y="133.80481" style="stroke: #000000; stroke-width: 0.8"/>
      </g>
     </g>
     <g id="text_11">
      <!-- $\mathdefault{−0.10}$ -->
      <g transform="translate(25.139842 137.264059)scale(0.1 -0.1)">
       <use xlink:href="#CMSY10-0" transform="scale(0.996264)"/>
       <use xlink:href="#CMR17-30" transform="translate(77.487468 0)scale(0.996264)"/>
       <use xlink:href="#CMMI12-3a" transform="translate(123.177945 0)scale(0.996264)"/>
       <use xlink:href="#CMR17-31" transform="translate(150.275122 0)scale(0.996264)"/>
       <use xlink:href="#CMR17-30" transform="translate(195.965599 0)scale(0.996264)"/>
      </g>
     </g>
    </g>
    <g id="ytick_6">
     <g id="line2d_12">
      <g>
       <use xlink:href="#mb5c3aa2992" x="57.6" y="93.686405" style="stroke: #000000; stroke-width: 0.8"/>
      </g>
     </g>
     <g id="text_12">
      <!-- $\mathdefault{−0.05}$ -->
      <g transform="translate(25.139842 97.145654)scale(0.1 -0.1)">
       <use xlink:href="#CMSY10-0" transform="scale(0.996264)"/>
       <use xlink:href="#CMR17-30" transform="translate(77.487468 0)scale(0.996264)"/>
       <use xlink:href="#CMMI12-3a" transform="translate(123.177945 0)scale(0.996264)"/>
       <use xlink:href="#CMR17-30" transform="translate(150.275122 0)scale(0.996264)"/>
       <use xlink:href="#CMR17-35" transform="translate(195.965599 0)scale(0.996264)"/>
      </g>
     </g>
    </g>
    <g id="ytick_7">
     <g id="line2d_13">
      <g>
       <use xlink:href="#mb5c3aa2992" x="57.6" y="53.568" style="stroke: #000000; stroke-width: 0.8"/>
      </g>
     </g>
     <g id="text_13">
      <!-- $\mathdefault{0.00}$ -->
      <g transform="translate(32.888586 57.027249)scale(0.1 -0.1)">
       <use xlink:href="#CMR17-30" transform="scale(0.996264)"/>
       <use xlink:href="#CMMI12-3a" transform="translate(45.690477 0)scale(0.996264)"/>
       <use xlink:href="#CMR17-30" transform="translate(72.787654 0)scale(0.996264)"/>
       <use xlink:href="#CMR17-30" transform="translate(118.478131 0)scale(0.996264)"/>
      </g>
     </g>
    </g>
   </g>
   <g id="line2d_14">
    <path d="M 73.832727 214.848 
L 76.433865 214.848 
L 76.596436 134.208 
L 76.759008 214.848 
L 76.921579 214.848 
L 77.08415 134.208 
L 77.246721 214.848 
L 81.961284 214.848 
L 82.123855 134.208 
L 82.286426 214.848 
L 82.448997 53.568 
L 82.611568 214.848 
L 82.774139 214.848 
L 82.936711 134.208 
L 83.099282 214.848 
L 86.513275 214.848 
L 86.675846 134.208 
L 86.838418 214.848 
L 88.951842 214.848 
L 89.114413 134.208 
L 89.276985 214.848 
L 90.902696 214.848 
L 91.065267 134.208 
L 91.227838 214.848 
L 98.543539 214.848 
L 98.70611 134.208 
L 98.868681 214.848 
L 103.583244 214.848 
L 103.745815 134.208 
L 103.908386 214.848 
L 104.070957 134.208 
L 104.233528 214.848 
L 104.3961 214.848 
L 104.558671 134.208 
L 104.721242 214.848 
L 107.32238 214.848 
L 107.484951 134.208 
L 107.647522 214.848 
L 107.972664 214.848 
L 108.135236 134.208 
L 108.297807 214.848 
L 110.411231 214.848 
L 110.573803 134.208 
L 110.736374 214.848 
L 117.564361 214.848 
L 117.726932 134.208 
L 117.889503 214.848 
L 118.539788 214.848 
L 118.702359 134.208 
L 118.86493 214.848 
L 127.318629 214.848 
L 127.4812 53.568 
L 127.643771 214.848 
L 142.437744 214.848 
L 142.600315 134.208 
L 142.762886 214.848 
L 142.925457 134.208 
L 143.088028 214.848 
L 144.388597 214.848 
L 144.551169 134.208 
L 144.71374 214.848 
L 149.753445 214.848 
L 149.916016 134.208 
L 150.078587 214.848 
L 156.906574 214.848 
L 157.069146 134.208 
L 157.231717 214.848 
L 157.394288 134.208 
L 157.556859 214.848 
L 160.808282 214.848 
L 160.970853 134.208 
L 161.133424 214.848 
L 162.271422 214.848 
L 162.433993 134.208 
L 162.596564 214.848 
L 164.547417 214.848 
L 164.709989 134.208 
L 164.87256 214.848 
L 166.010558 214.848 
L 166.173129 134.208 
L 166.3357 214.848 
L 170.72512 214.848 
L 170.887692 134.208 
L 171.050263 214.848 
L 175.114541 214.848 
L 175.277112 134.208 
L 175.439683 214.848 
L 175.602254 134.208 
L 175.764825 214.848 
L 179.666533 214.848 
L 179.829104 134.208 
L 179.991675 214.848 
L 184.706238 214.848 
L 184.868809 134.208 
L 185.03138 214.848 
L 185.356522 214.848 
L 185.519093 134.208 
L 185.681664 214.848 
L 191.534225 214.848 
L 191.696796 134.208 
L 191.859367 214.848 
L 199.662781 214.848 
L 199.825353 134.208 
L 199.987924 214.848 
L 201.288493 214.848 
L 201.451064 134.208 
L 201.613635 214.848 
L 206.490769 214.848 
L 206.65334 134.208 
L 206.815911 214.848 
L 231.039009 214.848 
L 231.201581 134.208 
L 231.364152 214.848 
L 232.014436 214.848 
L 232.177007 295.488 
L 232.339578 214.848 
L 239.004995 214.848 
L 239.167566 134.208 
L 239.330137 214.848 
L 241.606133 214.848 
L 241.768704 134.208 
L 241.931275 214.848 
L 244.857555 214.848 
L 245.020127 134.208 
L 245.182698 214.848 
L 253.798968 214.848 
L 253.961539 134.208 
L 254.12411 214.848 
L 254.286681 134.208 
L 254.449252 214.848 
L 254.936965 214.848 
L 255.099537 134.208 
L 255.262108 134.208 
L 255.424679 214.848 
L 258.51353 214.848 
L 258.676101 134.208 
L 258.838673 214.848 
L 259.001244 134.208 
L 259.163815 214.848 
L 261.764953 214.848 
L 261.927524 134.208 
L 262.090095 214.848 
L 262.252666 134.208 
L 262.415237 214.848 
L 263.553235 214.848 
L 263.715806 134.208 
L 263.878378 214.848 
L 266.804658 214.848 
L 266.967229 53.568 
L 267.1298 214.848 
L 271.194078 214.848 
L 271.35665 134.208 
L 271.519221 214.848 
L 278.184637 214.848 
L 278.347208 134.208 
L 278.509779 134.208 
L 278.67235 214.848 
L 279.647777 214.848 
L 279.810348 134.208 
L 279.972919 214.848 
L 280.460633 214.848 
L 280.623204 134.208 
L 280.785775 214.848 
L 282.574057 214.848 
L 282.736629 134.208 
L 282.8992 214.848 
L 285.988051 214.848 
L 286.150622 134.208 
L 286.313193 214.848 
L 286.475765 214.848 
L 286.638336 134.208 
L 286.800907 214.848 
L 286.963478 134.208 
L 287.126049 214.848 
L 288.264047 214.848 
L 288.426618 134.208 
L 288.589189 214.848 
L 289.076903 214.848 
L 289.239474 134.208 
L 289.402045 214.848 
L 289.564616 214.848 
L 289.727187 134.208 
L 289.889758 214.848 
L 295.254606 214.848 
L 295.417177 134.208 
L 295.579748 214.848 
L 297.530601 214.848 
L 297.693172 134.208 
L 297.855744 214.848 
L 299.318884 214.848 
L 299.481455 134.208 
L 299.644026 214.848 
L 300.944595 214.848 
L 301.107166 134.208 
L 301.269737 214.848 
L 310.211149 214.848 
L 310.373721 295.488 
L 310.536292 214.848 
L 312.649716 214.848 
L 312.812288 134.208 
L 312.974859 214.848 
L 315.901139 214.848 
L 316.06371 134.208 
L 316.226281 214.848 
L 320.127988 214.848 
L 320.290559 134.208 
L 320.453131 214.848 
L 323.21684 214.848 
L 323.379411 134.208 
L 323.541982 214.848 
L 334.109105 214.848 
L 334.271677 134.208 
L 334.434248 214.848 
L 342.400233 214.848 
L 342.562804 134.208 
L 342.725375 214.848 
L 350.853932 214.848 
L 351.016503 134.208 
L 351.179074 214.848 
L 356.869064 214.848 
L 357.031635 134.208 
L 357.194206 214.848 
L 357.84449 214.848 
L 358.007062 134.208 
L 358.169633 214.848 
L 358.657346 214.848 
L 358.819917 134.208 
L 358.982488 214.848 
L 360.770771 214.848 
L 360.933342 134.208 
L 361.095913 214.848 
L 361.908769 214.848 
L 362.07134 134.208 
L 362.233911 214.848 
L 363.697051 214.848 
L 363.859622 134.208 
L 364.022193 214.848 
L 368.086472 214.848 
L 368.249043 134.208 
L 368.411614 214.848 
L 368.899327 214.848 
L 369.061898 134.208 
L 369.224469 214.848 
L 370.037325 214.848 
L 370.199896 134.208 
L 370.362467 214.848 
L 372.475892 214.848 
L 372.638463 134.208 
L 372.801034 214.848 
L 375.07703 214.848 
L 375.239601 134.208 
L 375.402172 214.848 
L 380.604448 214.848 
L 380.76702 134.208 
L 380.929591 214.848 
L 384.181013 214.848 
L 384.343584 134.208 
L 384.506156 214.848 
L 385.319011 214.848 
L 385.481582 134.208 
L 385.644154 134.208 
L 385.806725 214.848 
L 391.984428 214.848 
L 392.146999 134.208 
L 392.30957 214.848 
L 393.447568 214.848 
L 393.610139 134.208 
L 393.77271 214.848 
L 395.560992 214.848 
L 395.723564 134.208 
L 395.886135 214.848 
L 398.487273 214.848 
L 398.487273 214.848 
" clip-path="url(#p3ff61035cd)" style="fill: none; stroke: #1f77b4; stroke-width: 1.5; stroke-linecap: square"/>
   </g>
   <g id="patch_3">
    <path d="M 57.6 307.584 
L 57.6 41.472 
" style="fill: none; stroke: #000000; stroke-width: 0.8; stroke-linejoin: miter; stroke-linecap: square"/>
   </g>
   <g id="patch_4">
    <path d="M 414.72 307.584 
L 414.72 41.472 
" style="fill: none; stroke: #000000; stroke-width: 0.8; stroke-linejoin: miter; stroke-linecap: square"/>
   </g>
   <g id="patch_5">
    <path d="M 57.6 307.584 
L 414.72 307.584 
" style="fill: none; stroke: #000000; stroke-width: 0.8; stroke-linejoin: miter; stroke-linecap: square"/>
   </g>
   <g id="patch_6">
    <path d="M 57.6 41.472 
L 414.72 41.472 
" style="fill: none; stroke: #000000; stroke-width: 0.8; stroke-linejoin: miter; stroke-linecap: square"/>
   </g>
  </g>
 </g>
 <defs>
  <clipPath id="p3ff61035cd">
   <rect x="57.6" y="41.472" width="357.12" height="266.112"/>
  </clipPath>
 </defs>
</svg>
