<?xml version="1.0" encoding="utf-8" standalone="no"?>
<!DOCTYPE svg PUBLIC "-//W3C//DTD SVG 1.1//EN"
  "http://www.w3.org/Graphics/SVG/1.1/DTD/svg11.dtd">
<svg xmlns:xlink="http://www.w3.org/1999/xlink" width="460.8pt" height="345.6pt" viewBox="0 0 460.8 345.6" xmlns="http://www.w3.org/2000/svg" version="1.1">
 <metadata>
  <rdf:RDF xmlns:dc="http://purl.org/dc/elements/1.1/" xmlns:cc="http://creativecommons.org/ns#" xmlns:rdf="http://www.w3.org/1999/02/22-rdf-syntax-ns#">
   <cc:Work>
    <dc:type rdf:resource="http://purl.org/dc/dcmitype/StillImage"/>
    <dc:date>2022-05-21T12:48:38.692575</dc:date>
    <dc:format>image/svg+xml</dc:format>
    <dc:creator>
     <cc:Agent>
      <dc:title>Matplotlib v3.5.1, https://matplotlib.org/</dc:title>
     </cc:Agent>
    </dc:creator>
   </cc:Work>
  </rdf:RDF>
 </metadata>
 <defs>
  <style type="text/css">*{stroke-linejoin: round; stroke-linecap: butt}</style>
 </defs>
 <g id="figure_1">
  <g id="patch_1">
   <path d="M 0 345.6 
L 460.8 345.6 
L 460.8 0 
L 0 0 
z
" style="fill: #ffffff"/>
  </g>
  <g id="axes_1">
   <g id="patch_2">
    <path d="M 50.5618 298.92005 
L 220.660305 298.92005 
L 220.660305 21.33337 
L 50.5618 21.33337 
z
" style="fill: #ffffff"/>
   </g>
   <g id="matplotlib.axis_1">
    <g id="xtick_1">
     <g id="line2d_1">
      <defs>
       <path id="m8e1315665d" d="M 0 0 
L 0 3.5 
" style="stroke: #000000; stroke-width: 0.8"/>
      </defs>
      <g>
       <use xlink:href="#m8e1315665d" x="50.5618" y="298.92005" style="stroke: #000000; stroke-width: 0.8"/>
      </g>
     </g>
     <g id="text_1">
      <!-- $\mathdefault{0.00}$ -->
      <g transform="translate(41.706093 312.838548)scale(0.1 -0.1)">
       <defs>
        <path id="CMR17-30" d="M 2688 2025 
C 2688 2416 2682 3080 2413 3591 
C 2176 4039 1798 4198 1466 4198 
C 1158 4198 768 4058 525 3597 
C 269 3118 243 2524 243 2025 
C 243 1661 250 1106 448 619 
C 723 -39 1216 -128 1466 -128 
C 1760 -128 2208 -7 2470 600 
C 2662 1042 2688 1559 2688 2025 
z
M 1466 -26 
C 1056 -26 813 325 723 812 
C 653 1188 653 1738 653 2096 
C 653 2588 653 2997 736 3387 
C 858 3929 1216 4096 1466 4096 
C 1728 4096 2067 3923 2189 3400 
C 2272 3036 2278 2607 2278 2096 
C 2278 1680 2278 1169 2202 792 
C 2067 95 1690 -26 1466 -26 
z
" transform="scale(0.015625)"/>
        <path id="CMMI12-3a" d="M 1178 307 
C 1178 492 1024 619 870 619 
C 685 619 557 466 557 313 
C 557 128 710 0 864 0 
C 1050 0 1178 153 1178 307 
z
" transform="scale(0.015625)"/>
       </defs>
       <use xlink:href="#CMR17-30" transform="scale(0.996264)"/>
       <use xlink:href="#CMMI12-3a" transform="translate(45.690477 0)scale(0.996264)"/>
       <use xlink:href="#CMR17-30" transform="translate(72.787654 0)scale(0.996264)"/>
       <use xlink:href="#CMR17-30" transform="translate(118.478131 0)scale(0.996264)"/>
      </g>
     </g>
    </g>
    <g id="xtick_2">
     <g id="line2d_2">
      <g>
       <use xlink:href="#m8e1315665d" x="89.220551" y="298.92005" style="stroke: #000000; stroke-width: 0.8"/>
      </g>
     </g>
     <g id="text_2">
      <!-- $\mathdefault{0.05}$ -->
      <g transform="translate(80.364844 312.838548)scale(0.1 -0.1)">
       <defs>
        <path id="CMR17-35" d="M 730 3692 
C 794 3666 1056 3584 1325 3584 
C 1920 3584 2246 3911 2432 4100 
C 2432 4157 2432 4192 2394 4192 
C 2387 4192 2374 4192 2323 4163 
C 2099 4058 1837 3973 1517 3973 
C 1325 3973 1037 3999 723 4139 
C 653 4171 640 4171 634 4171 
C 602 4171 595 4164 595 4037 
L 595 2203 
C 595 2089 595 2057 659 2057 
C 691 2057 704 2070 736 2114 
C 941 2401 1222 2522 1542 2522 
C 1766 2522 2246 2382 2246 1289 
C 2246 1085 2246 715 2054 421 
C 1894 159 1645 25 1370 25 
C 947 25 518 320 403 814 
C 429 807 480 795 506 795 
C 589 795 749 840 749 1038 
C 749 1210 627 1280 506 1280 
C 358 1280 262 1190 262 1011 
C 262 454 704 -128 1382 -128 
C 2042 -128 2669 440 2669 1264 
C 2669 2030 2170 2624 1549 2624 
C 1222 2624 947 2503 730 2274 
L 730 3692 
z
" transform="scale(0.015625)"/>
       </defs>
       <use xlink:href="#CMR17-30" transform="scale(0.996264)"/>
       <use xlink:href="#CMMI12-3a" transform="translate(45.690477 0)scale(0.996264)"/>
       <use xlink:href="#CMR17-30" transform="translate(72.787654 0)scale(0.996264)"/>
       <use xlink:href="#CMR17-35" transform="translate(118.478131 0)scale(0.996264)"/>
      </g>
     </g>
    </g>
    <g id="xtick_3">
     <g id="line2d_3">
      <g>
       <use xlink:href="#m8e1315665d" x="127.879302" y="298.92005" style="stroke: #000000; stroke-width: 0.8"/>
      </g>
     </g>
     <g id="text_3">
      <!-- $\mathdefault{0.10}$ -->
      <g transform="translate(119.023595 312.838548)scale(0.1 -0.1)">
       <defs>
        <path id="CMR17-31" d="M 1702 4058 
C 1702 4192 1696 4192 1606 4192 
C 1357 3916 979 3827 621 3827 
C 602 3827 570 3827 563 3808 
C 557 3795 557 3782 557 3648 
C 755 3648 1088 3686 1344 3839 
L 1344 461 
C 1344 236 1331 160 781 160 
L 589 160 
L 589 0 
C 896 0 1216 0 1523 0 
C 1830 0 2150 0 2458 0 
L 2458 160 
L 2266 160 
C 1715 160 1702 230 1702 458 
L 1702 4058 
z
" transform="scale(0.015625)"/>
       </defs>
       <use xlink:href="#CMR17-30" transform="scale(0.996264)"/>
       <use xlink:href="#CMMI12-3a" transform="translate(45.690477 0)scale(0.996264)"/>
       <use xlink:href="#CMR17-31" transform="translate(72.787654 0)scale(0.996264)"/>
       <use xlink:href="#CMR17-30" transform="translate(118.478131 0)scale(0.996264)"/>
      </g>
     </g>
    </g>
    <g id="xtick_4">
     <g id="line2d_4">
      <g>
       <use xlink:href="#m8e1315665d" x="166.538053" y="298.92005" style="stroke: #000000; stroke-width: 0.8"/>
      </g>
     </g>
     <g id="text_4">
      <!-- $\mathdefault{0.15}$ -->
      <g transform="translate(157.682346 312.838548)scale(0.1 -0.1)">
       <use xlink:href="#CMR17-30" transform="scale(0.996264)"/>
       <use xlink:href="#CMMI12-3a" transform="translate(45.690477 0)scale(0.996264)"/>
       <use xlink:href="#CMR17-31" transform="translate(72.787654 0)scale(0.996264)"/>
       <use xlink:href="#CMR17-35" transform="translate(118.478131 0)scale(0.996264)"/>
      </g>
     </g>
    </g>
    <g id="xtick_5">
     <g id="line2d_5">
      <g>
       <use xlink:href="#m8e1315665d" x="205.196805" y="298.92005" style="stroke: #000000; stroke-width: 0.8"/>
      </g>
     </g>
     <g id="text_5">
      <!-- $\mathdefault{0.20}$ -->
      <g transform="translate(196.341097 312.838548)scale(0.1 -0.1)">
       <defs>
        <path id="CMR17-32" d="M 2669 989 
L 2554 989 
C 2490 536 2438 459 2413 420 
C 2381 369 1920 369 1830 369 
L 602 369 
C 832 619 1280 1072 1824 1597 
C 2214 1967 2669 2402 2669 3035 
C 2669 3790 2067 4224 1395 4224 
C 691 4224 262 3604 262 3030 
C 262 2780 448 2748 525 2748 
C 589 2748 781 2787 781 3010 
C 781 3207 614 3264 525 3264 
C 486 3264 448 3258 422 3245 
C 544 3790 915 4058 1306 4058 
C 1862 4058 2227 3617 2227 3035 
C 2227 2479 1901 2000 1536 1584 
L 262 146 
L 262 0 
L 2515 0 
L 2669 989 
z
" transform="scale(0.015625)"/>
       </defs>
       <use xlink:href="#CMR17-30" transform="scale(0.996264)"/>
       <use xlink:href="#CMMI12-3a" transform="translate(45.690477 0)scale(0.996264)"/>
       <use xlink:href="#CMR17-32" transform="translate(72.787654 0)scale(0.996264)"/>
       <use xlink:href="#CMR17-30" transform="translate(118.478131 0)scale(0.996264)"/>
      </g>
     </g>
    </g>
    <g id="text_6">
     <!-- $h$ (m) -->
     <g transform="translate(115.944263 330.730895)scale(0.16 -0.16)">
      <defs>
       <path id="CMMI12-68" d="M 1798 4257 
C 1805 4283 1818 4321 1818 4352 
C 1818 4416 1754 4416 1741 4416 
C 1734 4416 1421 4388 1389 4380 
C 1280 4373 1184 4358 1069 4358 
C 909 4345 864 4339 864 4224 
C 864 4160 915 4160 1005 4160 
C 1318 4160 1325 4103 1325 4040 
C 1325 4002 1312 3951 1306 3932 
L 378 248 
C 352 152 352 140 352 101 
C 352 -38 461 -64 525 -64 
C 634 -64 717 19 749 89 
L 1037 1245 
C 1069 1386 1107 1520 1139 1660 
C 1210 1929 1210 1935 1331 2120 
C 1453 2305 1741 2689 2234 2689 
C 2490 2689 2579 2497 2579 2242 
C 2579 1884 2330 1188 2189 805 
C 2131 651 2099 568 2099 453 
C 2099 166 2298 -64 2605 -64 
C 3200 -64 3424 875 3424 913 
C 3424 945 3398 971 3360 971 
C 3302 971 3296 952 3264 843 
C 3117 332 2880 64 2624 64 
C 2560 64 2458 64 2458 269 
C 2458 436 2534 640 2560 710 
C 2675 1018 2963 1773 2963 2145 
C 2963 2528 2739 2816 2253 2816 
C 1888 2816 1568 2644 1306 2312 
L 1798 4257 
z
" transform="scale(0.015625)"/>
       <path id="CMR17-28" d="M 1958 -1561 
C 1958 -1555 1958 -1542 1939 -1523 
C 1645 -1224 858 -407 858 1581 
C 858 3569 1632 4379 1946 4697 
C 1946 4704 1958 4717 1958 4736 
C 1958 4755 1939 4768 1914 4768 
C 1843 4768 1299 4296 986 3594 
C 666 2887 576 2199 576 1588 
C 576 1128 621 351 1005 -471 
C 1312 -1135 1837 -1600 1914 -1600 
C 1946 -1600 1958 -1587 1958 -1561 
z
" transform="scale(0.015625)"/>
       <path id="CMR17-6d" d="M 4326 1933 
C 4326 2252 4269 2790 3507 2790 
C 3072 2790 2771 2496 2656 2151 
L 2650 2151 
C 2573 2676 2195 2790 1837 2790 
C 1331 2790 1069 2400 973 2144 
L 966 2144 
L 966 2790 
L 211 2720 
L 211 2554 
C 589 2554 646 2515 646 2208 
L 646 428 
C 646 184 621 153 211 153 
L 211 -13 
C 365 0 646 0 813 0 
C 979 0 1267 0 1421 -13 
L 1421 153 
C 1011 153 986 178 986 428 
L 986 1658 
C 986 2247 1344 2688 1792 2688 
C 2266 2688 2317 2266 2317 1958 
L 2317 428 
C 2317 184 2291 153 1882 153 
L 1882 -13 
C 2035 0 2317 0 2483 0 
C 2650 0 2938 0 3091 -13 
L 3091 153 
C 2682 153 2656 178 2656 428 
L 2656 1658 
C 2656 2247 3014 2688 3462 2688 
C 3936 2688 3987 2266 3987 1958 
L 3987 428 
C 3987 184 3962 153 3552 153 
L 3552 -13 
C 3706 0 3987 0 4154 0 
C 4320 0 4608 0 4762 -13 
L 4762 153 
C 4352 153 4326 178 4326 428 
L 4326 1933 
z
" transform="scale(0.015625)"/>
       <path id="CMR17-29" d="M 1683 1581 
C 1683 2040 1638 2817 1254 3639 
C 947 4303 422 4768 346 4768 
C 326 4768 301 4761 301 4729 
C 301 4717 307 4710 314 4697 
C 621 4378 1402 3568 1402 1584 
C 1402 -407 627 -1217 314 -1537 
C 307 -1549 301 -1556 301 -1568 
C 301 -1600 326 -1600 346 -1600 
C 416 -1600 960 -1128 1274 -426 
C 1594 281 1683 969 1683 1581 
z
" transform="scale(0.015625)"/>
      </defs>
      <use xlink:href="#CMMI12-68" transform="scale(0.996264)"/>
      <use xlink:href="#CMR17-28" transform="translate(86.23059 0)scale(0.996264)"/>
      <use xlink:href="#CMR17-6d" transform="translate(121.511358 0)scale(0.996264)"/>
      <use xlink:href="#CMR17-29" transform="translate(198.430948 0)scale(0.996264)"/>
     </g>
    </g>
   </g>
   <g id="matplotlib.axis_2">
    <g id="ytick_1">
     <g id="line2d_6">
      <defs>
       <path id="mbd7262521d" d="M 0 0 
L -3.5 0 
" style="stroke: #000000; stroke-width: 0.8"/>
      </defs>
      <g>
       <use xlink:href="#mbd7262521d" x="50.5618" y="295.266959" style="stroke: #000000; stroke-width: 0.8"/>
      </g>
     </g>
     <g id="text_7">
      <!-- $\mathdefault{0.0}$ -->
      <g transform="translate(30.831721 298.726208)scale(0.1 -0.1)">
       <use xlink:href="#CMR17-30" transform="scale(0.996264)"/>
       <use xlink:href="#CMMI12-3a" transform="translate(45.690477 0)scale(0.996264)"/>
       <use xlink:href="#CMR17-30" transform="translate(72.787654 0)scale(0.996264)"/>
      </g>
     </g>
    </g>
    <g id="ytick_2">
     <g id="line2d_7">
      <g>
       <use xlink:href="#mbd7262521d" x="50.5618" y="260.749913" style="stroke: #000000; stroke-width: 0.8"/>
      </g>
     </g>
     <g id="text_8">
      <!-- $\mathdefault{0.5}$ -->
      <g transform="translate(30.831721 264.209162)scale(0.1 -0.1)">
       <use xlink:href="#CMR17-30" transform="scale(0.996264)"/>
       <use xlink:href="#CMMI12-3a" transform="translate(45.690477 0)scale(0.996264)"/>
       <use xlink:href="#CMR17-35" transform="translate(72.787654 0)scale(0.996264)"/>
      </g>
     </g>
    </g>
    <g id="ytick_3">
     <g id="line2d_8">
      <g>
       <use xlink:href="#mbd7262521d" x="50.5618" y="226.232867" style="stroke: #000000; stroke-width: 0.8"/>
      </g>
     </g>
     <g id="text_9">
      <!-- $\mathdefault{1.0}$ -->
      <g transform="translate(30.831721 229.692116)scale(0.1 -0.1)">
       <use xlink:href="#CMR17-31" transform="scale(0.996264)"/>
       <use xlink:href="#CMMI12-3a" transform="translate(45.690477 0)scale(0.996264)"/>
       <use xlink:href="#CMR17-30" transform="translate(72.787654 0)scale(0.996264)"/>
      </g>
     </g>
    </g>
    <g id="ytick_4">
     <g id="line2d_9">
      <g>
       <use xlink:href="#mbd7262521d" x="50.5618" y="191.715821" style="stroke: #000000; stroke-width: 0.8"/>
      </g>
     </g>
     <g id="text_10">
      <!-- $\mathdefault{1.5}$ -->
      <g transform="translate(30.831721 195.175071)scale(0.1 -0.1)">
       <use xlink:href="#CMR17-31" transform="scale(0.996264)"/>
       <use xlink:href="#CMMI12-3a" transform="translate(45.690477 0)scale(0.996264)"/>
       <use xlink:href="#CMR17-35" transform="translate(72.787654 0)scale(0.996264)"/>
      </g>
     </g>
    </g>
    <g id="ytick_5">
     <g id="line2d_10">
      <g>
       <use xlink:href="#mbd7262521d" x="50.5618" y="157.198776" style="stroke: #000000; stroke-width: 0.8"/>
      </g>
     </g>
     <g id="text_11">
      <!-- $\mathdefault{2.0}$ -->
      <g transform="translate(30.831721 160.658025)scale(0.1 -0.1)">
       <use xlink:href="#CMR17-32" transform="scale(0.996264)"/>
       <use xlink:href="#CMMI12-3a" transform="translate(45.690477 0)scale(0.996264)"/>
       <use xlink:href="#CMR17-30" transform="translate(72.787654 0)scale(0.996264)"/>
      </g>
     </g>
    </g>
    <g id="ytick_6">
     <g id="line2d_11">
      <g>
       <use xlink:href="#mbd7262521d" x="50.5618" y="122.68173" style="stroke: #000000; stroke-width: 0.8"/>
      </g>
     </g>
     <g id="text_12">
      <!-- $\mathdefault{2.5}$ -->
      <g transform="translate(30.831721 126.140979)scale(0.1 -0.1)">
       <use xlink:href="#CMR17-32" transform="scale(0.996264)"/>
       <use xlink:href="#CMMI12-3a" transform="translate(45.690477 0)scale(0.996264)"/>
       <use xlink:href="#CMR17-35" transform="translate(72.787654 0)scale(0.996264)"/>
      </g>
     </g>
    </g>
    <g id="ytick_7">
     <g id="line2d_12">
      <g>
       <use xlink:href="#mbd7262521d" x="50.5618" y="88.164684" style="stroke: #000000; stroke-width: 0.8"/>
      </g>
     </g>
     <g id="text_13">
      <!-- $\mathdefault{3.0}$ -->
      <g transform="translate(30.831721 91.623933)scale(0.1 -0.1)">
       <defs>
        <path id="CMR17-33" d="M 1414 2157 
C 1984 2157 2234 1662 2234 1090 
C 2234 320 1824 25 1453 25 
C 1114 25 563 194 390 693 
C 422 680 454 680 486 680 
C 640 680 755 782 755 948 
C 755 1133 614 1216 486 1216 
C 378 1216 211 1165 211 926 
C 211 335 787 -128 1466 -128 
C 2176 -128 2720 430 2720 1085 
C 2720 1707 2208 2157 1600 2227 
C 2086 2328 2554 2756 2554 3329 
C 2554 3820 2048 4179 1472 4179 
C 890 4179 378 3829 378 3329 
C 378 3110 544 3072 627 3072 
C 762 3072 877 3155 877 3321 
C 877 3486 762 3569 627 3569 
C 602 3569 570 3569 544 3557 
C 730 3959 1235 4032 1459 4032 
C 1683 4032 2106 3925 2106 3320 
C 2106 3143 2080 2828 1862 2550 
C 1670 2304 1453 2304 1242 2284 
C 1210 2284 1062 2269 1037 2269 
C 992 2263 966 2257 966 2208 
C 966 2163 973 2157 1101 2157 
L 1414 2157 
z
" transform="scale(0.015625)"/>
       </defs>
       <use xlink:href="#CMR17-33" transform="scale(0.996264)"/>
       <use xlink:href="#CMMI12-3a" transform="translate(45.690477 0)scale(0.996264)"/>
       <use xlink:href="#CMR17-30" transform="translate(72.787654 0)scale(0.996264)"/>
      </g>
     </g>
    </g>
    <g id="ytick_8">
     <g id="line2d_13">
      <g>
       <use xlink:href="#mbd7262521d" x="50.5618" y="53.647638" style="stroke: #000000; stroke-width: 0.8"/>
      </g>
     </g>
     <g id="text_14">
      <!-- $\mathdefault{3.5}$ -->
      <g transform="translate(30.831721 57.106887)scale(0.1 -0.1)">
       <use xlink:href="#CMR17-33" transform="scale(0.996264)"/>
       <use xlink:href="#CMMI12-3a" transform="translate(45.690477 0)scale(0.996264)"/>
       <use xlink:href="#CMR17-35" transform="translate(72.787654 0)scale(0.996264)"/>
      </g>
     </g>
    </g>
    <g id="text_15">
     <!-- $E_e$ (J) -->
     <g transform="translate(22.846665 181.430533)rotate(-90)scale(0.16 -0.16)">
      <defs>
       <path id="CMMI12-45" d="M 4448 1489 
C 4454 1508 4474 1554 4474 1579 
C 4474 1611 4448 1643 4410 1643 
C 4384 1643 4371 1637 4352 1617 
C 4339 1611 4339 1598 4282 1469 
C 3904 570 3629 185 2605 185 
L 1670 185 
C 1581 185 1568 185 1530 192 
C 1459 198 1453 211 1453 262 
C 1453 307 1466 345 1478 403 
L 1920 2176 
L 2554 2176 
C 3053 2176 3091 2066 3091 1874 
C 3091 1810 3091 1752 3046 1560 
C 3034 1534 3027 1508 3027 1489 
C 3027 1444 3059 1425 3098 1425 
C 3155 1425 3162 1469 3187 1559 
L 3552 3042 
C 3552 3073 3526 3105 3488 3105 
C 3430 3105 3424 3080 3398 2990 
C 3270 2501 3142 2361 2573 2361 
L 1965 2361 
L 2362 3930 
C 2419 4154 2432 4154 2694 4154 
L 3610 4154 
C 4397 4154 4557 3943 4557 3458 
C 4557 3451 4557 3273 4531 3062 
C 4525 3036 4518 2998 4518 2985 
C 4518 2934 4550 2915 4589 2915 
C 4634 2915 4659 2941 4672 3055 
L 4806 4174 
C 4806 4195 4819 4263 4819 4277 
C 4819 4352 4762 4352 4646 4352 
L 1523 4352 
C 1402 4352 1338 4352 1338 4229 
C 1338 4154 1382 4154 1491 4154 
C 1888 4154 1888 4114 1888 4052 
C 1888 4020 1882 3994 1862 3924 
L 998 473 
C 941 249 928 185 480 185 
C 358 185 294 185 294 70 
C 294 0 333 0 461 0 
L 3674 0 
C 3814 0 3821 6 3866 110 
L 4448 1489 
z
" transform="scale(0.015625)"/>
       <path id="CMMI12-65" d="M 1146 1479 
C 1318 1479 1754 1479 2061 1595 
C 2547 1783 2592 2158 2592 2274 
C 2592 2558 2349 2816 1926 2816 
C 1254 2816 288 2210 288 1073 
C 288 402 672 -64 1254 -64 
C 2125 -64 2675 609 2675 692 
C 2675 730 2637 762 2611 762 
C 2592 762 2586 756 2528 699 
C 2118 159 1510 64 1267 64 
C 902 64 710 350 710 822 
C 710 911 710 1071 806 1479 
L 1146 1479 
z
M 838 1600 
C 1114 2592 1722 2689 1926 2689 
C 2208 2689 2400 2522 2400 2277 
C 2400 1600 1376 1600 1107 1600 
L 838 1600 
z
" transform="scale(0.015625)"/>
       <path id="CMR17-4a" d="M 1888 910 
C 1888 324 1568 -26 1242 -26 
C 1075 -26 691 49 525 431 
C 550 425 582 418 608 418 
C 730 418 883 501 883 692 
C 883 845 774 960 614 960 
C 461 960 339 865 339 682 
C 339 258 730 -128 1254 -128 
C 1754 -128 2214 229 2291 764 
C 2298 809 2298 821 2298 1038 
L 2298 3715 
C 2298 3823 2298 4001 2310 4039 
C 2336 4160 2483 4160 2682 4160 
L 2682 4320 
C 2669 4320 2214 4320 2054 4320 
C 1786 4320 1491 4320 1222 4320 
L 1222 4160 
L 1376 4160 
C 1875 4160 1888 4090 1888 3861 
L 1888 910 
z
" transform="scale(0.015625)"/>
      </defs>
      <use xlink:href="#CMMI12-45" transform="scale(0.996264)"/>
      <use xlink:href="#CMMI12-65" transform="translate(72.211218 -14.943915)scale(0.697382)"/>
      <use xlink:href="#CMR17-28" transform="translate(134.433572 0)scale(0.996264)"/>
      <use xlink:href="#CMR17-4a" transform="translate(169.71434 0)scale(0.996264)"/>
      <use xlink:href="#CMR17-29" transform="translate(216.68613 0)scale(0.996264)"/>
     </g>
    </g>
    <g id="text_16">
     <!-- $\times\mathdefault{10^{−5}}\mathdefault{}$ -->
     <g transform="translate(50.5618 18.33337)scale(0.1 -0.1)">
      <defs>
       <path id="CMSY10-2" d="M 2490 1785 
L 1210 3059 
C 1133 3136 1120 3148 1069 3148 
C 1005 3148 941 3091 941 3020 
C 941 2976 954 2963 1024 2892 
L 2304 1606 
L 1024 320 
C 954 249 941 236 941 192 
C 941 121 1005 64 1069 64 
C 1120 64 1133 76 1210 153 
L 2483 1427 
L 3808 102 
C 3821 96 3866 64 3904 64 
C 3981 64 4032 121 4032 192 
C 4032 204 4032 230 4013 262 
C 4006 275 2989 1280 2669 1606 
L 3840 2777 
C 3872 2816 3968 2899 4000 2937 
C 4006 2950 4032 2976 4032 3020 
C 4032 3091 3981 3148 3904 3148 
C 3853 3148 3827 3123 3757 3052 
L 2490 1785 
z
" transform="scale(0.015625)"/>
       <path id="CMSY10-0" d="M 4218 1472 
C 4326 1472 4442 1472 4442 1600 
C 4442 1728 4326 1728 4218 1728 
L 755 1728 
C 646 1728 531 1728 531 1600 
C 531 1472 646 1472 755 1472 
L 4218 1472 
z
" transform="scale(0.015625)"/>
      </defs>
      <use xlink:href="#CMSY10-2" transform="scale(0.996264)"/>
      <use xlink:href="#CMR17-31" transform="translate(77.487468 0)scale(0.996264)"/>
      <use xlink:href="#CMR17-30" transform="translate(123.177945 0)scale(0.996264)"/>
      <use xlink:href="#CMSY10-0" transform="translate(168.868422 36.153639)scale(0.697382)"/>
      <use xlink:href="#CMR17-35" transform="translate(223.109415 36.153639)scale(0.697382)"/>
     </g>
    </g>
   </g>
   <g id="LineCollection_1">
    <path d="M 205.196805 50.269618 
L 205.196805 50.269618 
" clip-path="url(#pff743ecba1)" style="fill: none; stroke: #b22222; stroke-width: 1.5"/>
    <path d="M 197.465054 33.950946 
L 197.465054 33.950946 
" clip-path="url(#pff743ecba1)" style="fill: none; stroke: #b22222; stroke-width: 1.5"/>
    <path d="M 189.733304 130.073249 
L 189.733304 130.073249 
" clip-path="url(#pff743ecba1)" style="fill: none; stroke: #b22222; stroke-width: 1.5"/>
    <path d="M 182.001554 81.787615 
L 182.001554 81.787615 
" clip-path="url(#pff743ecba1)" style="fill: none; stroke: #b22222; stroke-width: 1.5"/>
    <path d="M 174.269804 126.439376 
L 174.269804 126.439376 
" clip-path="url(#pff743ecba1)" style="fill: none; stroke: #b22222; stroke-width: 1.5"/>
    <path d="M 166.538053 93.009148 
L 166.538053 93.009148 
" clip-path="url(#pff743ecba1)" style="fill: none; stroke: #b22222; stroke-width: 1.5"/>
    <path d="M 158.806303 142.617657 
L 158.806303 142.617657 
" clip-path="url(#pff743ecba1)" style="fill: none; stroke: #b22222; stroke-width: 1.5"/>
    <path d="M 151.074553 138.170154 
L 151.074553 138.170154 
" clip-path="url(#pff743ecba1)" style="fill: none; stroke: #b22222; stroke-width: 1.5"/>
    <path d="M 143.342803 169.072007 
L 143.342803 169.072007 
" clip-path="url(#pff743ecba1)" style="fill: none; stroke: #b22222; stroke-width: 1.5"/>
    <path d="M 135.611052 139.743514 
L 135.611052 139.743514 
" clip-path="url(#pff743ecba1)" style="fill: none; stroke: #b22222; stroke-width: 1.5"/>
    <path d="M 127.879302 167.689675 
L 127.879302 167.689675 
" clip-path="url(#pff743ecba1)" style="fill: none; stroke: #b22222; stroke-width: 1.5"/>
    <path d="M 120.147552 130.227244 
L 120.147552 130.227244 
" clip-path="url(#pff743ecba1)" style="fill: none; stroke: #b22222; stroke-width: 1.5"/>
    <path d="M 112.415802 196.219082 
L 112.415802 196.219082 
" clip-path="url(#pff743ecba1)" style="fill: none; stroke: #b22222; stroke-width: 1.5"/>
    <path d="M 104.684052 187.82064 
L 104.684052 187.82064 
" clip-path="url(#pff743ecba1)" style="fill: none; stroke: #b22222; stroke-width: 1.5"/>
    <path d="M 96.952301 192.654949 
L 96.952301 192.654949 
" clip-path="url(#pff743ecba1)" style="fill: none; stroke: #b22222; stroke-width: 1.5"/>
    <path d="M 89.220551 188.047774 
L 89.220551 188.047774 
" clip-path="url(#pff743ecba1)" style="fill: none; stroke: #b22222; stroke-width: 1.5"/>
    <path d="M 81.488801 183.400664 
L 81.488801 183.400664 
" clip-path="url(#pff743ecba1)" style="fill: none; stroke: #b22222; stroke-width: 1.5"/>
    <path d="M 73.757051 204.704764 
L 73.757051 204.704764 
" clip-path="url(#pff743ecba1)" style="fill: none; stroke: #b22222; stroke-width: 1.5"/>
    <path d="M 66.0253 135.835785 
L 66.0253 135.835785 
" clip-path="url(#pff743ecba1)" style="fill: none; stroke: #b22222; stroke-width: 1.5"/>
    <path d="M 58.29355 246.695365 
L 58.29355 246.695365 
" clip-path="url(#pff743ecba1)" style="fill: none; stroke: #b22222; stroke-width: 1.5"/>
    <path d="M 212.928555 59.375619 
L 212.928555 59.375619 
" clip-path="url(#pff743ecba1)" style="fill: none; stroke: #b22222; stroke-width: 1.5"/>
    <path d="M 165.764878 242.312465 
L 165.764878 242.312465 
" clip-path="url(#pff743ecba1)" style="fill: none; stroke: #b22222; stroke-width: 1.5"/>
    <path d="M 119.374377 235.426355 
L 119.374377 235.426355 
" clip-path="url(#pff743ecba1)" style="fill: none; stroke: #b22222; stroke-width: 1.5"/>
    <path d="M 72.983876 286.302474 
L 72.983876 286.302474 
" clip-path="url(#pff743ecba1)" style="fill: none; stroke: #b22222; stroke-width: 1.5"/>
   </g>
   <g id="LineCollection_2">
    <path d="M 205.196805 50.269618 
L 205.196805 50.269618 
" clip-path="url(#pff743ecba1)" style="fill: none; stroke: #b22222; stroke-width: 1.5"/>
    <path d="M 197.465054 33.950946 
L 197.465054 33.950946 
" clip-path="url(#pff743ecba1)" style="fill: none; stroke: #b22222; stroke-width: 1.5"/>
    <path d="M 189.733304 130.073249 
L 189.733304 130.073249 
" clip-path="url(#pff743ecba1)" style="fill: none; stroke: #b22222; stroke-width: 1.5"/>
    <path d="M 182.001554 81.787615 
L 182.001554 81.787615 
" clip-path="url(#pff743ecba1)" style="fill: none; stroke: #b22222; stroke-width: 1.5"/>
    <path d="M 174.269804 126.439376 
L 174.269804 126.439376 
" clip-path="url(#pff743ecba1)" style="fill: none; stroke: #b22222; stroke-width: 1.5"/>
    <path d="M 166.538053 93.009148 
L 166.538053 93.009148 
" clip-path="url(#pff743ecba1)" style="fill: none; stroke: #b22222; stroke-width: 1.5"/>
    <path d="M 158.806303 142.617657 
L 158.806303 142.617657 
" clip-path="url(#pff743ecba1)" style="fill: none; stroke: #b22222; stroke-width: 1.5"/>
    <path d="M 151.074553 138.170154 
L 151.074553 138.170154 
" clip-path="url(#pff743ecba1)" style="fill: none; stroke: #b22222; stroke-width: 1.5"/>
    <path d="M 143.342803 169.072007 
L 143.342803 169.072007 
" clip-path="url(#pff743ecba1)" style="fill: none; stroke: #b22222; stroke-width: 1.5"/>
    <path d="M 135.611052 139.743514 
L 135.611052 139.743514 
" clip-path="url(#pff743ecba1)" style="fill: none; stroke: #b22222; stroke-width: 1.5"/>
    <path d="M 127.879302 167.689675 
L 127.879302 167.689675 
" clip-path="url(#pff743ecba1)" style="fill: none; stroke: #b22222; stroke-width: 1.5"/>
    <path d="M 120.147552 130.227244 
L 120.147552 130.227244 
" clip-path="url(#pff743ecba1)" style="fill: none; stroke: #b22222; stroke-width: 1.5"/>
    <path d="M 112.415802 196.219082 
L 112.415802 196.219082 
" clip-path="url(#pff743ecba1)" style="fill: none; stroke: #b22222; stroke-width: 1.5"/>
    <path d="M 104.684052 187.82064 
L 104.684052 187.82064 
" clip-path="url(#pff743ecba1)" style="fill: none; stroke: #b22222; stroke-width: 1.5"/>
    <path d="M 96.952301 192.654949 
L 96.952301 192.654949 
" clip-path="url(#pff743ecba1)" style="fill: none; stroke: #b22222; stroke-width: 1.5"/>
    <path d="M 89.220551 188.047774 
L 89.220551 188.047774 
" clip-path="url(#pff743ecba1)" style="fill: none; stroke: #b22222; stroke-width: 1.5"/>
    <path d="M 81.488801 183.400664 
L 81.488801 183.400664 
" clip-path="url(#pff743ecba1)" style="fill: none; stroke: #b22222; stroke-width: 1.5"/>
    <path d="M 73.757051 204.704764 
L 73.757051 204.704764 
" clip-path="url(#pff743ecba1)" style="fill: none; stroke: #b22222; stroke-width: 1.5"/>
    <path d="M 66.0253 135.835785 
L 66.0253 135.835785 
" clip-path="url(#pff743ecba1)" style="fill: none; stroke: #b22222; stroke-width: 1.5"/>
    <path d="M 58.29355 246.695365 
L 58.29355 246.695365 
" clip-path="url(#pff743ecba1)" style="fill: none; stroke: #b22222; stroke-width: 1.5"/>
    <path d="M 212.928555 59.375619 
L 212.928555 59.375619 
" clip-path="url(#pff743ecba1)" style="fill: none; stroke: #b22222; stroke-width: 1.5"/>
    <path d="M 165.764878 242.312465 
L 165.764878 242.312465 
" clip-path="url(#pff743ecba1)" style="fill: none; stroke: #b22222; stroke-width: 1.5"/>
    <path d="M 119.374377 235.426355 
L 119.374377 235.426355 
" clip-path="url(#pff743ecba1)" style="fill: none; stroke: #b22222; stroke-width: 1.5"/>
    <path d="M 72.983876 286.302474 
L 72.983876 286.302474 
" clip-path="url(#pff743ecba1)" style="fill: none; stroke: #b22222; stroke-width: 1.5"/>
   </g>
   <g id="line2d_14">
    <defs>
     <path id="m0aefd85abc" d="M -3 0 
L 3 0 
M 0 3 
L 0 -3 
" style="stroke: #4169e1"/>
    </defs>
    <g clip-path="url(#pff743ecba1)">
     <use xlink:href="#m0aefd85abc" x="205.196805" y="50.269618" style="fill: #4169e1; stroke: #4169e1"/>
     <use xlink:href="#m0aefd85abc" x="197.465054" y="33.950946" style="fill: #4169e1; stroke: #4169e1"/>
     <use xlink:href="#m0aefd85abc" x="189.733304" y="130.073249" style="fill: #4169e1; stroke: #4169e1"/>
     <use xlink:href="#m0aefd85abc" x="182.001554" y="81.787615" style="fill: #4169e1; stroke: #4169e1"/>
     <use xlink:href="#m0aefd85abc" x="174.269804" y="126.439376" style="fill: #4169e1; stroke: #4169e1"/>
     <use xlink:href="#m0aefd85abc" x="166.538053" y="93.009148" style="fill: #4169e1; stroke: #4169e1"/>
     <use xlink:href="#m0aefd85abc" x="158.806303" y="142.617657" style="fill: #4169e1; stroke: #4169e1"/>
     <use xlink:href="#m0aefd85abc" x="151.074553" y="138.170154" style="fill: #4169e1; stroke: #4169e1"/>
     <use xlink:href="#m0aefd85abc" x="143.342803" y="169.072007" style="fill: #4169e1; stroke: #4169e1"/>
     <use xlink:href="#m0aefd85abc" x="135.611052" y="139.743514" style="fill: #4169e1; stroke: #4169e1"/>
     <use xlink:href="#m0aefd85abc" x="127.879302" y="167.689675" style="fill: #4169e1; stroke: #4169e1"/>
     <use xlink:href="#m0aefd85abc" x="120.147552" y="130.227244" style="fill: #4169e1; stroke: #4169e1"/>
     <use xlink:href="#m0aefd85abc" x="112.415802" y="196.219082" style="fill: #4169e1; stroke: #4169e1"/>
     <use xlink:href="#m0aefd85abc" x="104.684052" y="187.82064" style="fill: #4169e1; stroke: #4169e1"/>
     <use xlink:href="#m0aefd85abc" x="96.952301" y="192.654949" style="fill: #4169e1; stroke: #4169e1"/>
     <use xlink:href="#m0aefd85abc" x="89.220551" y="188.047774" style="fill: #4169e1; stroke: #4169e1"/>
     <use xlink:href="#m0aefd85abc" x="81.488801" y="183.400664" style="fill: #4169e1; stroke: #4169e1"/>
     <use xlink:href="#m0aefd85abc" x="73.757051" y="204.704764" style="fill: #4169e1; stroke: #4169e1"/>
     <use xlink:href="#m0aefd85abc" x="66.0253" y="135.835785" style="fill: #4169e1; stroke: #4169e1"/>
     <use xlink:href="#m0aefd85abc" x="58.29355" y="246.695365" style="fill: #4169e1; stroke: #4169e1"/>
     <use xlink:href="#m0aefd85abc" x="212.928555" y="59.375619" style="fill: #4169e1; stroke: #4169e1"/>
     <use xlink:href="#m0aefd85abc" x="165.764878" y="242.312465" style="fill: #4169e1; stroke: #4169e1"/>
     <use xlink:href="#m0aefd85abc" x="119.374377" y="235.426355" style="fill: #4169e1; stroke: #4169e1"/>
     <use xlink:href="#m0aefd85abc" x="72.983876" y="286.302474" style="fill: #4169e1; stroke: #4169e1"/>
    </g>
   </g>
   <g id="patch_3">
    <path d="M 50.5618 298.92005 
L 50.5618 21.33337 
" style="fill: none; stroke: #000000; stroke-width: 0.8; stroke-linejoin: miter; stroke-linecap: square"/>
   </g>
   <g id="patch_4">
    <path d="M 220.660305 298.92005 
L 220.660305 21.33337 
" style="fill: none; stroke: #000000; stroke-width: 0.8; stroke-linejoin: miter; stroke-linecap: square"/>
   </g>
   <g id="patch_5">
    <path d="M 50.5618 298.92005 
L 220.660305 298.92005 
" style="fill: none; stroke: #000000; stroke-width: 0.8; stroke-linejoin: miter; stroke-linecap: square"/>
   </g>
   <g id="patch_6">
    <path d="M 50.5618 21.33337 
L 220.660305 21.33337 
" style="fill: none; stroke: #000000; stroke-width: 0.8; stroke-linejoin: miter; stroke-linecap: square"/>
   </g>
  </g>
  <g id="axes_2">
   <g id="patch_7">
    <path d="M 279.901495 298.92005 
L 450 298.92005 
L 450 21.33337 
L 279.901495 21.33337 
z
" style="fill: #ffffff"/>
   </g>
   <g id="matplotlib.axis_3">
    <g id="xtick_6">
     <g id="line2d_15">
      <g>
       <use xlink:href="#m8e1315665d" x="279.901495" y="298.92005" style="stroke: #000000; stroke-width: 0.8"/>
      </g>
     </g>
     <g id="text_17">
      <!-- $\mathdefault{0.00}$ -->
      <g transform="translate(271.045788 312.838548)scale(0.1 -0.1)">
       <use xlink:href="#CMR17-30" transform="scale(0.996264)"/>
       <use xlink:href="#CMMI12-3a" transform="translate(45.690477 0)scale(0.996264)"/>
       <use xlink:href="#CMR17-30" transform="translate(72.787654 0)scale(0.996264)"/>
       <use xlink:href="#CMR17-30" transform="translate(118.478131 0)scale(0.996264)"/>
      </g>
     </g>
    </g>
    <g id="xtick_7">
     <g id="line2d_16">
      <g>
       <use xlink:href="#m8e1315665d" x="318.560246" y="298.92005" style="stroke: #000000; stroke-width: 0.8"/>
      </g>
     </g>
     <g id="text_18">
      <!-- $\mathdefault{0.05}$ -->
      <g transform="translate(309.704539 312.838548)scale(0.1 -0.1)">
       <use xlink:href="#CMR17-30" transform="scale(0.996264)"/>
       <use xlink:href="#CMMI12-3a" transform="translate(45.690477 0)scale(0.996264)"/>
       <use xlink:href="#CMR17-30" transform="translate(72.787654 0)scale(0.996264)"/>
       <use xlink:href="#CMR17-35" transform="translate(118.478131 0)scale(0.996264)"/>
      </g>
     </g>
    </g>
    <g id="xtick_8">
     <g id="line2d_17">
      <g>
       <use xlink:href="#m8e1315665d" x="357.218997" y="298.92005" style="stroke: #000000; stroke-width: 0.8"/>
      </g>
     </g>
     <g id="text_19">
      <!-- $\mathdefault{0.10}$ -->
      <g transform="translate(348.36329 312.838548)scale(0.1 -0.1)">
       <use xlink:href="#CMR17-30" transform="scale(0.996264)"/>
       <use xlink:href="#CMMI12-3a" transform="translate(45.690477 0)scale(0.996264)"/>
       <use xlink:href="#CMR17-31" transform="translate(72.787654 0)scale(0.996264)"/>
       <use xlink:href="#CMR17-30" transform="translate(118.478131 0)scale(0.996264)"/>
      </g>
     </g>
    </g>
    <g id="xtick_9">
     <g id="line2d_18">
      <g>
       <use xlink:href="#m8e1315665d" x="395.877748" y="298.92005" style="stroke: #000000; stroke-width: 0.8"/>
      </g>
     </g>
     <g id="text_20">
      <!-- $\mathdefault{0.15}$ -->
      <g transform="translate(387.022041 312.838548)scale(0.1 -0.1)">
       <use xlink:href="#CMR17-30" transform="scale(0.996264)"/>
       <use xlink:href="#CMMI12-3a" transform="translate(45.690477 0)scale(0.996264)"/>
       <use xlink:href="#CMR17-31" transform="translate(72.787654 0)scale(0.996264)"/>
       <use xlink:href="#CMR17-35" transform="translate(118.478131 0)scale(0.996264)"/>
      </g>
     </g>
    </g>
    <g id="xtick_10">
     <g id="line2d_19">
      <g>
       <use xlink:href="#m8e1315665d" x="434.5365" y="298.92005" style="stroke: #000000; stroke-width: 0.8"/>
      </g>
     </g>
     <g id="text_21">
      <!-- $\mathdefault{0.20}$ -->
      <g transform="translate(425.680792 312.838548)scale(0.1 -0.1)">
       <use xlink:href="#CMR17-30" transform="scale(0.996264)"/>
       <use xlink:href="#CMMI12-3a" transform="translate(45.690477 0)scale(0.996264)"/>
       <use xlink:href="#CMR17-32" transform="translate(72.787654 0)scale(0.996264)"/>
       <use xlink:href="#CMR17-30" transform="translate(118.478131 0)scale(0.996264)"/>
      </g>
     </g>
    </g>
    <g id="text_22">
     <!-- $h$ (m) -->
     <g transform="translate(345.283958 330.730895)scale(0.16 -0.16)">
      <use xlink:href="#CMMI12-68" transform="scale(0.996264)"/>
      <use xlink:href="#CMR17-28" transform="translate(86.23059 0)scale(0.996264)"/>
      <use xlink:href="#CMR17-6d" transform="translate(121.511358 0)scale(0.996264)"/>
      <use xlink:href="#CMR17-29" transform="translate(198.430948 0)scale(0.996264)"/>
     </g>
    </g>
   </g>
   <g id="matplotlib.axis_4">
    <g id="ytick_9">
     <g id="line2d_20">
      <g>
       <use xlink:href="#mbd7262521d" x="279.901495" y="296.482908" style="stroke: #000000; stroke-width: 0.8"/>
      </g>
     </g>
     <g id="text_23">
      <!-- $\mathdefault{0.0000}$ -->
      <g transform="translate(245.22741 299.942157)scale(0.1 -0.1)">
       <use xlink:href="#CMR17-30" transform="scale(0.996264)"/>
       <use xlink:href="#CMMI12-3a" transform="translate(45.690477 0)scale(0.996264)"/>
       <use xlink:href="#CMR17-30" transform="translate(72.787654 0)scale(0.996264)"/>
       <use xlink:href="#CMR17-30" transform="translate(118.478131 0)scale(0.996264)"/>
       <use xlink:href="#CMR17-30" transform="translate(164.168608 0)scale(0.996264)"/>
       <use xlink:href="#CMR17-30" transform="translate(209.859086 0)scale(0.996264)"/>
      </g>
     </g>
    </g>
    <g id="ytick_10">
     <g id="line2d_21">
      <g>
       <use xlink:href="#mbd7262521d" x="279.901495" y="258.022638" style="stroke: #000000; stroke-width: 0.8"/>
      </g>
     </g>
     <g id="text_24">
      <!-- $\mathdefault{0.0025}$ -->
      <g transform="translate(245.22741 261.481887)scale(0.1 -0.1)">
       <use xlink:href="#CMR17-30" transform="scale(0.996264)"/>
       <use xlink:href="#CMMI12-3a" transform="translate(45.690477 0)scale(0.996264)"/>
       <use xlink:href="#CMR17-30" transform="translate(72.787654 0)scale(0.996264)"/>
       <use xlink:href="#CMR17-30" transform="translate(118.478131 0)scale(0.996264)"/>
       <use xlink:href="#CMR17-32" transform="translate(164.168608 0)scale(0.996264)"/>
       <use xlink:href="#CMR17-35" transform="translate(209.859086 0)scale(0.996264)"/>
      </g>
     </g>
    </g>
    <g id="ytick_11">
     <g id="line2d_22">
      <g>
       <use xlink:href="#mbd7262521d" x="279.901495" y="219.562368" style="stroke: #000000; stroke-width: 0.8"/>
      </g>
     </g>
     <g id="text_25">
      <!-- $\mathdefault{0.0050}$ -->
      <g transform="translate(245.22741 223.021618)scale(0.1 -0.1)">
       <use xlink:href="#CMR17-30" transform="scale(0.996264)"/>
       <use xlink:href="#CMMI12-3a" transform="translate(45.690477 0)scale(0.996264)"/>
       <use xlink:href="#CMR17-30" transform="translate(72.787654 0)scale(0.996264)"/>
       <use xlink:href="#CMR17-30" transform="translate(118.478131 0)scale(0.996264)"/>
       <use xlink:href="#CMR17-35" transform="translate(164.168608 0)scale(0.996264)"/>
       <use xlink:href="#CMR17-30" transform="translate(209.859086 0)scale(0.996264)"/>
      </g>
     </g>
    </g>
    <g id="ytick_12">
     <g id="line2d_23">
      <g>
       <use xlink:href="#mbd7262521d" x="279.901495" y="181.102099" style="stroke: #000000; stroke-width: 0.8"/>
      </g>
     </g>
     <g id="text_26">
      <!-- $\mathdefault{0.0075}$ -->
      <g transform="translate(245.22741 184.561348)scale(0.1 -0.1)">
       <defs>
        <path id="CMR17-37" d="M 2886 3941 
L 2886 4081 
L 1382 4081 
C 634 4081 621 4165 595 4288 
L 480 4288 
L 294 3094 
L 410 3094 
C 429 3215 474 3540 550 3661 
C 589 3712 1062 3712 1171 3712 
L 2579 3712 
L 1869 2661 
C 1395 1954 1069 999 1069 165 
C 1069 89 1069 -128 1299 -128 
C 1530 -128 1530 89 1530 171 
L 1530 465 
C 1530 1508 1709 2196 2003 2636 
L 2886 3941 
z
" transform="scale(0.015625)"/>
       </defs>
       <use xlink:href="#CMR17-30" transform="scale(0.996264)"/>
       <use xlink:href="#CMMI12-3a" transform="translate(45.690477 0)scale(0.996264)"/>
       <use xlink:href="#CMR17-30" transform="translate(72.787654 0)scale(0.996264)"/>
       <use xlink:href="#CMR17-30" transform="translate(118.478131 0)scale(0.996264)"/>
       <use xlink:href="#CMR17-37" transform="translate(164.168608 0)scale(0.996264)"/>
       <use xlink:href="#CMR17-35" transform="translate(209.859086 0)scale(0.996264)"/>
      </g>
     </g>
    </g>
    <g id="ytick_13">
     <g id="line2d_24">
      <g>
       <use xlink:href="#mbd7262521d" x="279.901495" y="142.641829" style="stroke: #000000; stroke-width: 0.8"/>
      </g>
     </g>
     <g id="text_27">
      <!-- $\mathdefault{0.0100}$ -->
      <g transform="translate(245.22741 146.101078)scale(0.1 -0.1)">
       <use xlink:href="#CMR17-30" transform="scale(0.996264)"/>
       <use xlink:href="#CMMI12-3a" transform="translate(45.690477 0)scale(0.996264)"/>
       <use xlink:href="#CMR17-30" transform="translate(72.787654 0)scale(0.996264)"/>
       <use xlink:href="#CMR17-31" transform="translate(118.478131 0)scale(0.996264)"/>
       <use xlink:href="#CMR17-30" transform="translate(164.168608 0)scale(0.996264)"/>
       <use xlink:href="#CMR17-30" transform="translate(209.859086 0)scale(0.996264)"/>
      </g>
     </g>
    </g>
    <g id="ytick_14">
     <g id="line2d_25">
      <g>
       <use xlink:href="#mbd7262521d" x="279.901495" y="104.181559" style="stroke: #000000; stroke-width: 0.8"/>
      </g>
     </g>
     <g id="text_28">
      <!-- $\mathdefault{0.0125}$ -->
      <g transform="translate(245.22741 107.640808)scale(0.1 -0.1)">
       <use xlink:href="#CMR17-30" transform="scale(0.996264)"/>
       <use xlink:href="#CMMI12-3a" transform="translate(45.690477 0)scale(0.996264)"/>
       <use xlink:href="#CMR17-30" transform="translate(72.787654 0)scale(0.996264)"/>
       <use xlink:href="#CMR17-31" transform="translate(118.478131 0)scale(0.996264)"/>
       <use xlink:href="#CMR17-32" transform="translate(164.168608 0)scale(0.996264)"/>
       <use xlink:href="#CMR17-35" transform="translate(209.859086 0)scale(0.996264)"/>
      </g>
     </g>
    </g>
    <g id="ytick_15">
     <g id="line2d_26">
      <g>
       <use xlink:href="#mbd7262521d" x="279.901495" y="65.721289" style="stroke: #000000; stroke-width: 0.8"/>
      </g>
     </g>
     <g id="text_29">
      <!-- $\mathdefault{0.0150}$ -->
      <g transform="translate(245.22741 69.180539)scale(0.1 -0.1)">
       <use xlink:href="#CMR17-30" transform="scale(0.996264)"/>
       <use xlink:href="#CMMI12-3a" transform="translate(45.690477 0)scale(0.996264)"/>
       <use xlink:href="#CMR17-30" transform="translate(72.787654 0)scale(0.996264)"/>
       <use xlink:href="#CMR17-31" transform="translate(118.478131 0)scale(0.996264)"/>
       <use xlink:href="#CMR17-35" transform="translate(164.168608 0)scale(0.996264)"/>
       <use xlink:href="#CMR17-30" transform="translate(209.859086 0)scale(0.996264)"/>
      </g>
     </g>
    </g>
    <g id="ytick_16">
     <g id="line2d_27">
      <g>
       <use xlink:href="#mbd7262521d" x="279.901495" y="27.26102" style="stroke: #000000; stroke-width: 0.8"/>
      </g>
     </g>
     <g id="text_30">
      <!-- $\mathdefault{0.0175}$ -->
      <g transform="translate(245.22741 30.720269)scale(0.1 -0.1)">
       <use xlink:href="#CMR17-30" transform="scale(0.996264)"/>
       <use xlink:href="#CMMI12-3a" transform="translate(45.690477 0)scale(0.996264)"/>
       <use xlink:href="#CMR17-30" transform="translate(72.787654 0)scale(0.996264)"/>
       <use xlink:href="#CMR17-31" transform="translate(118.478131 0)scale(0.996264)"/>
       <use xlink:href="#CMR17-37" transform="translate(164.168608 0)scale(0.996264)"/>
       <use xlink:href="#CMR17-35" transform="translate(209.859086 0)scale(0.996264)"/>
      </g>
     </g>
    </g>
    <g id="text_31">
     <!-- $k^{2}_{33}$ -->
     <g transform="translate(237.270842 169.764594)rotate(-90)scale(0.16 -0.16)">
      <defs>
       <path id="CMMI12-6b" d="M 1798 4257 
C 1805 4283 1818 4321 1818 4352 
C 1818 4416 1754 4416 1741 4416 
C 1734 4416 1504 4393 1389 4377 
C 1280 4377 1184 4358 1069 4358 
C 915 4345 870 4339 870 4224 
C 870 4160 934 4160 998 4160 
C 1325 4160 1325 4103 1325 4040 
C 1325 4015 1325 4002 1293 3888 
L 378 248 
C 352 152 352 140 352 101 
C 352 -38 461 -64 525 -64 
C 704 -64 742 77 794 275 
L 1094 1469 
C 1555 1418 1830 1226 1830 920 
C 1830 881 1830 856 1811 760 
C 1786 664 1786 588 1786 556 
C 1786 185 2029 -64 2355 -64 
C 2650 -64 2803 204 2854 294 
C 2989 530 3072 888 3072 913 
C 3072 945 3046 971 3008 971 
C 2950 971 2944 945 2918 843 
C 2829 511 2694 64 2368 64 
C 2240 64 2157 128 2157 370 
C 2157 492 2182 632 2208 728 
C 2234 843 2234 849 2234 926 
C 2234 1303 1894 1514 1306 1590 
C 1536 1731 1766 1980 1856 2076 
C 2221 2484 2470 2689 2765 2689 
C 2912 2689 2950 2650 2995 2612 
C 2758 2586 2669 2420 2669 2293 
C 2669 2139 2790 2088 2880 2088 
C 3053 2088 3206 2235 3206 2440 
C 3206 2625 3059 2816 2771 2816 
C 2419 2816 2131 2567 1677 2056 
C 1613 1980 1376 1737 1139 1648 
L 1798 4257 
z
" transform="scale(0.015625)"/>
      </defs>
      <use xlink:href="#CMMI12-6b" transform="scale(0.996264)"/>
      <use xlink:href="#CMR17-32" transform="translate(54.079201 36.153639)scale(0.697382)"/>
      <use xlink:href="#CMR17-33" transform="translate(50.735189 -24.740171)scale(0.697382)"/>
      <use xlink:href="#CMR17-33" transform="translate(82.718371 -24.740171)scale(0.697382)"/>
     </g>
    </g>
   </g>
   <g id="LineCollection_3">
    <path d="M 434.5365 256.139711 
L 434.5365 256.139711 
" clip-path="url(#p500e6db44d)" style="fill: none; stroke: #b22222; stroke-width: 1.5"/>
    <path d="M 426.804749 251.187794 
L 426.804749 251.187794 
" clip-path="url(#p500e6db44d)" style="fill: none; stroke: #b22222; stroke-width: 1.5"/>
    <path d="M 419.072999 266.258351 
L 419.072999 266.258351 
" clip-path="url(#p500e6db44d)" style="fill: none; stroke: #b22222; stroke-width: 1.5"/>
    <path d="M 411.341249 255.126208 
L 411.341249 255.126208 
" clip-path="url(#p500e6db44d)" style="fill: none; stroke: #b22222; stroke-width: 1.5"/>
    <path d="M 403.609499 261.732304 
L 403.609499 261.732304 
" clip-path="url(#p500e6db44d)" style="fill: none; stroke: #b22222; stroke-width: 1.5"/>
    <path d="M 395.877748 252.07575 
L 395.877748 252.07575 
" clip-path="url(#p500e6db44d)" style="fill: none; stroke: #b22222; stroke-width: 1.5"/>
    <path d="M 388.145998 260.573708 
L 388.145998 260.573708 
" clip-path="url(#p500e6db44d)" style="fill: none; stroke: #b22222; stroke-width: 1.5"/>
    <path d="M 380.414248 256.684753 
L 380.414248 256.684753 
" clip-path="url(#p500e6db44d)" style="fill: none; stroke: #b22222; stroke-width: 1.5"/>
    <path d="M 372.682498 261.849146 
L 372.682498 261.849146 
" clip-path="url(#p500e6db44d)" style="fill: none; stroke: #b22222; stroke-width: 1.5"/>
    <path d="M 364.950747 249.919783 
L 364.950747 249.919783 
" clip-path="url(#p500e6db44d)" style="fill: none; stroke: #b22222; stroke-width: 1.5"/>
    <path d="M 357.218997 254.467142 
L 357.218997 254.467142 
" clip-path="url(#p500e6db44d)" style="fill: none; stroke: #b22222; stroke-width: 1.5"/>
    <path d="M 349.487247 236.090146 
L 349.487247 236.090146 
" clip-path="url(#p500e6db44d)" style="fill: none; stroke: #b22222; stroke-width: 1.5"/>
    <path d="M 341.755497 255.707894 
L 341.755497 255.707894 
" clip-path="url(#p500e6db44d)" style="fill: none; stroke: #b22222; stroke-width: 1.5"/>
    <path d="M 334.023747 245.931595 
L 334.023747 245.931595 
" clip-path="url(#p500e6db44d)" style="fill: none; stroke: #b22222; stroke-width: 1.5"/>
    <path d="M 326.291996 240.159895 
L 326.291996 240.159895 
" clip-path="url(#p500e6db44d)" style="fill: none; stroke: #b22222; stroke-width: 1.5"/>
    <path d="M 318.560246 225.860677 
L 318.560246 225.860677 
" clip-path="url(#p500e6db44d)" style="fill: none; stroke: #b22222; stroke-width: 1.5"/>
    <path d="M 310.828496 204.37897 
L 310.828496 204.37897 
" clip-path="url(#p500e6db44d)" style="fill: none; stroke: #b22222; stroke-width: 1.5"/>
    <path d="M 303.096746 197.065 
L 303.096746 197.065 
" clip-path="url(#p500e6db44d)" style="fill: none; stroke: #b22222; stroke-width: 1.5"/>
    <path d="M 295.364995 33.950946 
L 295.364995 33.950946 
" clip-path="url(#p500e6db44d)" style="fill: none; stroke: #b22222; stroke-width: 1.5"/>
    <path d="M 287.633245 136.519263 
L 287.633245 136.519263 
" clip-path="url(#p500e6db44d)" style="fill: none; stroke: #b22222; stroke-width: 1.5"/>
    <path d="M 442.26825 259.488878 
L 442.26825 259.488878 
" clip-path="url(#p500e6db44d)" style="fill: none; stroke: #b22222; stroke-width: 1.5"/>
    <path d="M 395.104573 284.778337 
L 395.104573 284.778337 
" clip-path="url(#p500e6db44d)" style="fill: none; stroke: #b22222; stroke-width: 1.5"/>
    <path d="M 348.714072 274.339478 
L 348.714072 274.339478 
" clip-path="url(#p500e6db44d)" style="fill: none; stroke: #b22222; stroke-width: 1.5"/>
    <path d="M 302.323571 286.302474 
L 302.323571 286.302474 
" clip-path="url(#p500e6db44d)" style="fill: none; stroke: #b22222; stroke-width: 1.5"/>
   </g>
   <g id="LineCollection_4">
    <path d="M 434.5365 256.139711 
L 434.5365 256.139711 
" clip-path="url(#p500e6db44d)" style="fill: none; stroke: #b22222; stroke-width: 1.5"/>
    <path d="M 426.804749 251.187794 
L 426.804749 251.187794 
" clip-path="url(#p500e6db44d)" style="fill: none; stroke: #b22222; stroke-width: 1.5"/>
    <path d="M 419.072999 266.258351 
L 419.072999 266.258351 
" clip-path="url(#p500e6db44d)" style="fill: none; stroke: #b22222; stroke-width: 1.5"/>
    <path d="M 411.341249 255.126208 
L 411.341249 255.126208 
" clip-path="url(#p500e6db44d)" style="fill: none; stroke: #b22222; stroke-width: 1.5"/>
    <path d="M 403.609499 261.732304 
L 403.609499 261.732304 
" clip-path="url(#p500e6db44d)" style="fill: none; stroke: #b22222; stroke-width: 1.5"/>
    <path d="M 395.877748 252.07575 
L 395.877748 252.07575 
" clip-path="url(#p500e6db44d)" style="fill: none; stroke: #b22222; stroke-width: 1.5"/>
    <path d="M 388.145998 260.573708 
L 388.145998 260.573708 
" clip-path="url(#p500e6db44d)" style="fill: none; stroke: #b22222; stroke-width: 1.5"/>
    <path d="M 380.414248 256.684753 
L 380.414248 256.684753 
" clip-path="url(#p500e6db44d)" style="fill: none; stroke: #b22222; stroke-width: 1.5"/>
    <path d="M 372.682498 261.849146 
L 372.682498 261.849146 
" clip-path="url(#p500e6db44d)" style="fill: none; stroke: #b22222; stroke-width: 1.5"/>
    <path d="M 364.950747 249.919783 
L 364.950747 249.919783 
" clip-path="url(#p500e6db44d)" style="fill: none; stroke: #b22222; stroke-width: 1.5"/>
    <path d="M 357.218997 254.467142 
L 357.218997 254.467142 
" clip-path="url(#p500e6db44d)" style="fill: none; stroke: #b22222; stroke-width: 1.5"/>
    <path d="M 349.487247 236.090146 
L 349.487247 236.090146 
" clip-path="url(#p500e6db44d)" style="fill: none; stroke: #b22222; stroke-width: 1.5"/>
    <path d="M 341.755497 255.707894 
L 341.755497 255.707894 
" clip-path="url(#p500e6db44d)" style="fill: none; stroke: #b22222; stroke-width: 1.5"/>
    <path d="M 334.023747 245.931595 
L 334.023747 245.931595 
" clip-path="url(#p500e6db44d)" style="fill: none; stroke: #b22222; stroke-width: 1.5"/>
    <path d="M 326.291996 240.159895 
L 326.291996 240.159895 
" clip-path="url(#p500e6db44d)" style="fill: none; stroke: #b22222; stroke-width: 1.5"/>
    <path d="M 318.560246 225.860677 
L 318.560246 225.860677 
" clip-path="url(#p500e6db44d)" style="fill: none; stroke: #b22222; stroke-width: 1.5"/>
    <path d="M 310.828496 204.37897 
L 310.828496 204.37897 
" clip-path="url(#p500e6db44d)" style="fill: none; stroke: #b22222; stroke-width: 1.5"/>
    <path d="M 303.096746 197.065 
L 303.096746 197.065 
" clip-path="url(#p500e6db44d)" style="fill: none; stroke: #b22222; stroke-width: 1.5"/>
    <path d="M 295.364995 33.950946 
L 295.364995 33.950946 
" clip-path="url(#p500e6db44d)" style="fill: none; stroke: #b22222; stroke-width: 1.5"/>
    <path d="M 287.633245 136.519263 
L 287.633245 136.519263 
" clip-path="url(#p500e6db44d)" style="fill: none; stroke: #b22222; stroke-width: 1.5"/>
    <path d="M 442.26825 259.488878 
L 442.26825 259.488878 
" clip-path="url(#p500e6db44d)" style="fill: none; stroke: #b22222; stroke-width: 1.5"/>
    <path d="M 395.104573 284.778337 
L 395.104573 284.778337 
" clip-path="url(#p500e6db44d)" style="fill: none; stroke: #b22222; stroke-width: 1.5"/>
    <path d="M 348.714072 274.339478 
L 348.714072 274.339478 
" clip-path="url(#p500e6db44d)" style="fill: none; stroke: #b22222; stroke-width: 1.5"/>
    <path d="M 302.323571 286.302474 
L 302.323571 286.302474 
" clip-path="url(#p500e6db44d)" style="fill: none; stroke: #b22222; stroke-width: 1.5"/>
   </g>
   <g id="line2d_28">
    <g clip-path="url(#p500e6db44d)">
     <use xlink:href="#m0aefd85abc" x="434.5365" y="256.139711" style="fill: #4169e1; stroke: #4169e1"/>
     <use xlink:href="#m0aefd85abc" x="426.804749" y="251.187794" style="fill: #4169e1; stroke: #4169e1"/>
     <use xlink:href="#m0aefd85abc" x="419.072999" y="266.258351" style="fill: #4169e1; stroke: #4169e1"/>
     <use xlink:href="#m0aefd85abc" x="411.341249" y="255.126208" style="fill: #4169e1; stroke: #4169e1"/>
     <use xlink:href="#m0aefd85abc" x="403.609499" y="261.732304" style="fill: #4169e1; stroke: #4169e1"/>
     <use xlink:href="#m0aefd85abc" x="395.877748" y="252.07575" style="fill: #4169e1; stroke: #4169e1"/>
     <use xlink:href="#m0aefd85abc" x="388.145998" y="260.573708" style="fill: #4169e1; stroke: #4169e1"/>
     <use xlink:href="#m0aefd85abc" x="380.414248" y="256.684753" style="fill: #4169e1; stroke: #4169e1"/>
     <use xlink:href="#m0aefd85abc" x="372.682498" y="261.849146" style="fill: #4169e1; stroke: #4169e1"/>
     <use xlink:href="#m0aefd85abc" x="364.950747" y="249.919783" style="fill: #4169e1; stroke: #4169e1"/>
     <use xlink:href="#m0aefd85abc" x="357.218997" y="254.467142" style="fill: #4169e1; stroke: #4169e1"/>
     <use xlink:href="#m0aefd85abc" x="349.487247" y="236.090146" style="fill: #4169e1; stroke: #4169e1"/>
     <use xlink:href="#m0aefd85abc" x="341.755497" y="255.707894" style="fill: #4169e1; stroke: #4169e1"/>
     <use xlink:href="#m0aefd85abc" x="334.023747" y="245.931595" style="fill: #4169e1; stroke: #4169e1"/>
     <use xlink:href="#m0aefd85abc" x="326.291996" y="240.159895" style="fill: #4169e1; stroke: #4169e1"/>
     <use xlink:href="#m0aefd85abc" x="318.560246" y="225.860677" style="fill: #4169e1; stroke: #4169e1"/>
     <use xlink:href="#m0aefd85abc" x="310.828496" y="204.37897" style="fill: #4169e1; stroke: #4169e1"/>
     <use xlink:href="#m0aefd85abc" x="303.096746" y="197.065" style="fill: #4169e1; stroke: #4169e1"/>
     <use xlink:href="#m0aefd85abc" x="295.364995" y="33.950946" style="fill: #4169e1; stroke: #4169e1"/>
     <use xlink:href="#m0aefd85abc" x="287.633245" y="136.519263" style="fill: #4169e1; stroke: #4169e1"/>
     <use xlink:href="#m0aefd85abc" x="442.26825" y="259.488878" style="fill: #4169e1; stroke: #4169e1"/>
     <use xlink:href="#m0aefd85abc" x="395.104573" y="284.778337" style="fill: #4169e1; stroke: #4169e1"/>
     <use xlink:href="#m0aefd85abc" x="348.714072" y="274.339478" style="fill: #4169e1; stroke: #4169e1"/>
     <use xlink:href="#m0aefd85abc" x="302.323571" y="286.302474" style="fill: #4169e1; stroke: #4169e1"/>
    </g>
   </g>
   <g id="patch_8">
    <path d="M 279.901495 298.92005 
L 279.901495 21.33337 
" style="fill: none; stroke: #000000; stroke-width: 0.8; stroke-linejoin: miter; stroke-linecap: square"/>
   </g>
   <g id="patch_9">
    <path d="M 450 298.92005 
L 450 21.33337 
" style="fill: none; stroke: #000000; stroke-width: 0.8; stroke-linejoin: miter; stroke-linecap: square"/>
   </g>
   <g id="patch_10">
    <path d="M 279.901495 298.92005 
L 450 298.92005 
" style="fill: none; stroke: #000000; stroke-width: 0.8; stroke-linejoin: miter; stroke-linecap: square"/>
   </g>
   <g id="patch_11">
    <path d="M 279.901495 21.33337 
L 450 21.33337 
" style="fill: none; stroke: #000000; stroke-width: 0.8; stroke-linejoin: miter; stroke-linecap: square"/>
   </g>
  </g>
 </g>
 <defs>
  <clipPath id="pff743ecba1">
   <rect x="50.5618" y="21.33337" width="170.098505" height="277.58668"/>
  </clipPath>
  <clipPath id="p500e6db44d">
   <rect x="279.901495" y="21.33337" width="170.098505" height="277.58668"/>
  </clipPath>
 </defs>
</svg>
