<?xml version="1.0" encoding="utf-8" standalone="no"?>
<!DOCTYPE svg PUBLIC "-//W3C//DTD SVG 1.1//EN"
  "http://www.w3.org/Graphics/SVG/1.1/DTD/svg11.dtd">
<svg xmlns:xlink="http://www.w3.org/1999/xlink" width="460.8pt" height="345.6pt" viewBox="0 0 460.8 345.6" xmlns="http://www.w3.org/2000/svg" version="1.1">
 <metadata>
  <rdf:RDF xmlns:dc="http://purl.org/dc/elements/1.1/" xmlns:cc="http://creativecommons.org/ns#" xmlns:rdf="http://www.w3.org/1999/02/22-rdf-syntax-ns#">
   <cc:Work>
    <dc:type rdf:resource="http://purl.org/dc/dcmitype/StillImage"/>
    <dc:date>2022-05-21T14:29:55.279295</dc:date>
    <dc:format>image/svg+xml</dc:format>
    <dc:creator>
     <cc:Agent>
      <dc:title>Matplotlib v3.5.1, https://matplotlib.org/</dc:title>
     </cc:Agent>
    </dc:creator>
   </cc:Work>
  </rdf:RDF>
 </metadata>
 <defs>
  <style type="text/css">*{stroke-linejoin: round; stroke-linecap: butt}</style>
 </defs>
 <g id="figure_1">
  <g id="patch_1">
   <path d="M 0 345.6 
L 460.8 345.6 
L 460.8 0 
L 0 0 
z
" style="fill: #ffffff"/>
  </g>
  <g id="axes_1">
   <g id="patch_2">
    <path d="M 50.5618 298.93603 
L 220.660305 298.93603 
L 220.660305 21.33337 
L 50.5618 21.33337 
z
" style="fill: #ffffff"/>
   </g>
   <g id="matplotlib.axis_1">
    <g id="xtick_1">
     <g id="line2d_1">
      <defs>
       <path id="mfcc5ad738c" d="M 0 0 
L 0 3.5 
" style="stroke: #000000; stroke-width: 0.8"/>
      </defs>
      <g>
       <use xlink:href="#mfcc5ad738c" x="78.869709" y="298.93603" style="stroke: #000000; stroke-width: 0.8"/>
      </g>
     </g>
     <g id="text_1">
      <!-- $\mathdefault{2500}$ -->
      <g transform="translate(68.907038 312.854528)scale(0.1 -0.1)">
       <defs>
        <path id="CMR17-32" d="M 2669 989 
L 2554 989 
C 2490 536 2438 459 2413 420 
C 2381 369 1920 369 1830 369 
L 602 369 
C 832 619 1280 1072 1824 1597 
C 2214 1967 2669 2402 2669 3035 
C 2669 3790 2067 4224 1395 4224 
C 691 4224 262 3604 262 3030 
C 262 2780 448 2748 525 2748 
C 589 2748 781 2787 781 3010 
C 781 3207 614 3264 525 3264 
C 486 3264 448 3258 422 3245 
C 544 3790 915 4058 1306 4058 
C 1862 4058 2227 3617 2227 3035 
C 2227 2479 1901 2000 1536 1584 
L 262 146 
L 262 0 
L 2515 0 
L 2669 989 
z
" transform="scale(0.015625)"/>
        <path id="CMR17-35" d="M 730 3692 
C 794 3666 1056 3584 1325 3584 
C 1920 3584 2246 3911 2432 4100 
C 2432 4157 2432 4192 2394 4192 
C 2387 4192 2374 4192 2323 4163 
C 2099 4058 1837 3973 1517 3973 
C 1325 3973 1037 3999 723 4139 
C 653 4171 640 4171 634 4171 
C 602 4171 595 4164 595 4037 
L 595 2203 
C 595 2089 595 2057 659 2057 
C 691 2057 704 2070 736 2114 
C 941 2401 1222 2522 1542 2522 
C 1766 2522 2246 2382 2246 1289 
C 2246 1085 2246 715 2054 421 
C 1894 159 1645 25 1370 25 
C 947 25 518 320 403 814 
C 429 807 480 795 506 795 
C 589 795 749 840 749 1038 
C 749 1210 627 1280 506 1280 
C 358 1280 262 1190 262 1011 
C 262 454 704 -128 1382 -128 
C 2042 -128 2669 440 2669 1264 
C 2669 2030 2170 2624 1549 2624 
C 1222 2624 947 2503 730 2274 
L 730 3692 
z
" transform="scale(0.015625)"/>
        <path id="CMR17-30" d="M 2688 2025 
C 2688 2416 2682 3080 2413 3591 
C 2176 4039 1798 4198 1466 4198 
C 1158 4198 768 4058 525 3597 
C 269 3118 243 2524 243 2025 
C 243 1661 250 1106 448 619 
C 723 -39 1216 -128 1466 -128 
C 1760 -128 2208 -7 2470 600 
C 2662 1042 2688 1559 2688 2025 
z
M 1466 -26 
C 1056 -26 813 325 723 812 
C 653 1188 653 1738 653 2096 
C 653 2588 653 2997 736 3387 
C 858 3929 1216 4096 1466 4096 
C 1728 4096 2067 3923 2189 3400 
C 2272 3036 2278 2607 2278 2096 
C 2278 1680 2278 1169 2202 792 
C 2067 95 1690 -26 1466 -26 
z
" transform="scale(0.015625)"/>
       </defs>
       <use xlink:href="#CMR17-32" transform="scale(0.996264)"/>
       <use xlink:href="#CMR17-35" transform="translate(45.690477 0)scale(0.996264)"/>
       <use xlink:href="#CMR17-30" transform="translate(91.380954 0)scale(0.996264)"/>
       <use xlink:href="#CMR17-30" transform="translate(137.071431 0)scale(0.996264)"/>
      </g>
     </g>
    </g>
    <g id="xtick_2">
     <g id="line2d_2">
      <g>
       <use xlink:href="#mfcc5ad738c" x="121.27729" y="298.93603" style="stroke: #000000; stroke-width: 0.8"/>
      </g>
     </g>
     <g id="text_2">
      <!-- $\mathdefault{5000}$ -->
      <g transform="translate(111.31462 312.854528)scale(0.1 -0.1)">
       <use xlink:href="#CMR17-35" transform="scale(0.996264)"/>
       <use xlink:href="#CMR17-30" transform="translate(45.690477 0)scale(0.996264)"/>
       <use xlink:href="#CMR17-30" transform="translate(91.380954 0)scale(0.996264)"/>
       <use xlink:href="#CMR17-30" transform="translate(137.071431 0)scale(0.996264)"/>
      </g>
     </g>
    </g>
    <g id="xtick_3">
     <g id="line2d_3">
      <g>
       <use xlink:href="#mfcc5ad738c" x="163.684871" y="298.93603" style="stroke: #000000; stroke-width: 0.8"/>
      </g>
     </g>
     <g id="text_3">
      <!-- $\mathdefault{7500}$ -->
      <g transform="translate(153.722201 312.854528)scale(0.1 -0.1)">
       <defs>
        <path id="CMR17-37" d="M 2886 3941 
L 2886 4081 
L 1382 4081 
C 634 4081 621 4165 595 4288 
L 480 4288 
L 294 3094 
L 410 3094 
C 429 3215 474 3540 550 3661 
C 589 3712 1062 3712 1171 3712 
L 2579 3712 
L 1869 2661 
C 1395 1954 1069 999 1069 165 
C 1069 89 1069 -128 1299 -128 
C 1530 -128 1530 89 1530 171 
L 1530 465 
C 1530 1508 1709 2196 2003 2636 
L 2886 3941 
z
" transform="scale(0.015625)"/>
       </defs>
       <use xlink:href="#CMR17-37" transform="scale(0.996264)"/>
       <use xlink:href="#CMR17-35" transform="translate(45.690477 0)scale(0.996264)"/>
       <use xlink:href="#CMR17-30" transform="translate(91.380954 0)scale(0.996264)"/>
       <use xlink:href="#CMR17-30" transform="translate(137.071431 0)scale(0.996264)"/>
      </g>
     </g>
    </g>
    <g id="xtick_4">
     <g id="line2d_4">
      <g>
       <use xlink:href="#mfcc5ad738c" x="206.092453" y="298.93603" style="stroke: #000000; stroke-width: 0.8"/>
      </g>
     </g>
     <g id="text_4">
      <!-- $\mathdefault{10000}$ -->
      <g transform="translate(193.639115 312.854528)scale(0.1 -0.1)">
       <defs>
        <path id="CMR17-31" d="M 1702 4058 
C 1702 4192 1696 4192 1606 4192 
C 1357 3916 979 3827 621 3827 
C 602 3827 570 3827 563 3808 
C 557 3795 557 3782 557 3648 
C 755 3648 1088 3686 1344 3839 
L 1344 461 
C 1344 236 1331 160 781 160 
L 589 160 
L 589 0 
C 896 0 1216 0 1523 0 
C 1830 0 2150 0 2458 0 
L 2458 160 
L 2266 160 
C 1715 160 1702 230 1702 458 
L 1702 4058 
z
" transform="scale(0.015625)"/>
       </defs>
       <use xlink:href="#CMR17-31" transform="scale(0.996264)"/>
       <use xlink:href="#CMR17-30" transform="translate(45.690477 0)scale(0.996264)"/>
       <use xlink:href="#CMR17-30" transform="translate(91.380954 0)scale(0.996264)"/>
       <use xlink:href="#CMR17-30" transform="translate(137.071431 0)scale(0.996264)"/>
       <use xlink:href="#CMR17-30" transform="translate(182.761908 0)scale(0.996264)"/>
      </g>
     </g>
    </g>
    <g id="text_5">
     <!-- $R$ ($\Omega$) -->
     <g transform="translate(115.298066 330.746875)scale(0.16 -0.16)">
      <defs>
       <path id="CMMI12-52" d="M 2355 3924 
C 2413 4160 2438 4160 2688 4160 
L 3149 4160 
C 3699 4160 4109 3995 4109 3499 
C 4109 3175 3942 2240 2656 2240 
L 1933 2240 
L 2355 3924 
z
M 3245 2169 
C 4038 2341 4659 2851 4659 3398 
C 4659 3894 4154 4352 3264 4352 
L 1530 4352 
C 1402 4352 1344 4352 1344 4226 
C 1344 4160 1389 4160 1510 4160 
C 1894 4160 1894 4112 1894 4045 
C 1894 4033 1894 3994 1869 3899 
L 1005 479 
C 947 256 934 192 493 192 
C 346 192 301 192 301 71 
C 301 7 371 7 390 7 
C 506 7 640 7 762 7 
L 1517 7 
C 1632 7 1766 7 1882 7 
C 1933 7 2003 7 2003 128 
C 2003 192 1946 192 1850 192 
C 1459 192 1459 243 1459 306 
C 1459 313 1459 357 1472 407 
L 1901 2112 
L 2669 2112 
C 3277 2112 3392 1731 3392 1522 
C 3392 1427 3328 1179 3283 1014 
C 3213 723 3194 652 3194 532 
C 3194 82 3565 -128 3994 -128 
C 4512 -128 4736 501 4736 591 
C 4736 635 4704 654 4666 654 
C 4614 654 4602 616 4589 565 
C 4435 114 4173 0 4013 0 
C 3853 0 3750 70 3750 356 
C 3750 509 3827 1088 3834 1120 
C 3866 1355 3866 1380 3866 1432 
C 3866 1896 3488 2093 3245 2169 
z
" transform="scale(0.015625)"/>
       <path id="CMR17-28" d="M 1958 -1561 
C 1958 -1555 1958 -1542 1939 -1523 
C 1645 -1224 858 -407 858 1581 
C 858 3569 1632 4379 1946 4697 
C 1946 4704 1958 4717 1958 4736 
C 1958 4755 1939 4768 1914 4768 
C 1843 4768 1299 4296 986 3594 
C 666 2887 576 2199 576 1588 
C 576 1128 621 351 1005 -471 
C 1312 -1135 1837 -1600 1914 -1600 
C 1946 -1600 1958 -1587 1958 -1561 
z
" transform="scale(0.015625)"/>
       <path id="CMR17-a" d="M 4038 935 
L 3923 935 
C 3866 641 3846 563 3814 461 
C 3782 365 3763 314 3392 314 
L 2874 314 
C 2944 686 3098 961 3366 1391 
C 3699 1935 3974 2377 3974 2910 
C 3974 3775 3155 4480 2138 4480 
C 1094 4480 294 3768 294 2910 
C 294 2377 576 1922 890 1416 
C 1171 961 1325 686 1395 314 
L 877 314 
C 512 314 493 365 461 454 
C 422 557 410 641 346 935 
L 230 935 
L 416 0 
L 1382 0 
C 1517 0 1523 6 1523 102 
C 1523 558 1286 1154 1178 1429 
C 973 1929 781 2416 781 2916 
C 781 3871 1466 4377 2131 4377 
C 2829 4377 3488 3851 3488 2916 
C 3488 2422 3315 1981 3078 1397 
C 2976 1135 2746 551 2746 102 
C 2746 0 2752 0 2886 0 
L 3853 0 
L 4038 935 
z
" transform="scale(0.015625)"/>
       <path id="CMR17-29" d="M 1683 1581 
C 1683 2040 1638 2817 1254 3639 
C 947 4303 422 4768 346 4768 
C 326 4768 301 4761 301 4729 
C 301 4717 307 4710 314 4697 
C 621 4378 1402 3568 1402 1584 
C 1402 -407 627 -1217 314 -1537 
C 307 -1549 301 -1556 301 -1568 
C 301 -1600 326 -1600 346 -1600 
C 416 -1600 960 -1128 1274 -426 
C 1594 281 1683 969 1683 1581 
z
" transform="scale(0.015625)"/>
      </defs>
      <use xlink:href="#CMMI12-52" transform="scale(0.996264)"/>
      <use xlink:href="#CMR17-28" transform="translate(105.146928 0)scale(0.996264)"/>
      <use xlink:href="#CMR17-a" transform="translate(140.427696 0)scale(0.996264)"/>
      <use xlink:href="#CMR17-29" transform="translate(206.937577 0)scale(0.996264)"/>
     </g>
    </g>
   </g>
   <g id="matplotlib.axis_2">
    <g id="ytick_1">
     <g id="line2d_5">
      <defs>
       <path id="mb578970996" d="M 0 0 
L -3.5 0 
" style="stroke: #000000; stroke-width: 0.8"/>
      </defs>
      <g>
       <use xlink:href="#mb578970996" x="50.5618" y="277.880006" style="stroke: #000000; stroke-width: 0.8"/>
      </g>
     </g>
     <g id="text_6">
      <!-- $\mathdefault{0.5}$ -->
      <g transform="translate(30.831721 281.339255)scale(0.1 -0.1)">
       <defs>
        <path id="CMMI12-3a" d="M 1178 307 
C 1178 492 1024 619 870 619 
C 685 619 557 466 557 313 
C 557 128 710 0 864 0 
C 1050 0 1178 153 1178 307 
z
" transform="scale(0.015625)"/>
       </defs>
       <use xlink:href="#CMR17-30" transform="scale(0.996264)"/>
       <use xlink:href="#CMMI12-3a" transform="translate(45.690477 0)scale(0.996264)"/>
       <use xlink:href="#CMR17-35" transform="translate(72.787654 0)scale(0.996264)"/>
      </g>
     </g>
    </g>
    <g id="ytick_2">
     <g id="line2d_6">
      <g>
       <use xlink:href="#mb578970996" x="50.5618" y="238.741506" style="stroke: #000000; stroke-width: 0.8"/>
      </g>
     </g>
     <g id="text_7">
      <!-- $\mathdefault{0.6}$ -->
      <g transform="translate(30.831721 242.200755)scale(0.1 -0.1)">
       <defs>
        <path id="CMR17-36" d="M 678 2176 
C 678 3690 1395 4032 1811 4032 
C 1946 4032 2272 4009 2400 3776 
C 2298 3776 2106 3776 2106 3553 
C 2106 3381 2246 3323 2336 3323 
C 2394 3323 2566 3348 2566 3560 
C 2566 3954 2246 4179 1805 4179 
C 1043 4179 243 3390 243 1984 
C 243 253 966 -128 1478 -128 
C 2099 -128 2688 427 2688 1283 
C 2688 2081 2170 2662 1517 2662 
C 1126 2662 838 2407 678 1960 
L 678 2176 
z
M 1478 25 
C 691 25 691 1200 691 1436 
C 691 1896 909 2560 1504 2560 
C 1613 2560 1926 2560 2138 2120 
C 2253 1870 2253 1609 2253 1289 
C 2253 944 2253 690 2118 434 
C 1978 171 1773 25 1478 25 
z
" transform="scale(0.015625)"/>
       </defs>
       <use xlink:href="#CMR17-30" transform="scale(0.996264)"/>
       <use xlink:href="#CMMI12-3a" transform="translate(45.690477 0)scale(0.996264)"/>
       <use xlink:href="#CMR17-36" transform="translate(72.787654 0)scale(0.996264)"/>
      </g>
     </g>
    </g>
    <g id="ytick_3">
     <g id="line2d_7">
      <g>
       <use xlink:href="#mb578970996" x="50.5618" y="199.603006" style="stroke: #000000; stroke-width: 0.8"/>
      </g>
     </g>
     <g id="text_8">
      <!-- $\mathdefault{0.7}$ -->
      <g transform="translate(30.831721 203.062255)scale(0.1 -0.1)">
       <use xlink:href="#CMR17-30" transform="scale(0.996264)"/>
       <use xlink:href="#CMMI12-3a" transform="translate(45.690477 0)scale(0.996264)"/>
       <use xlink:href="#CMR17-37" transform="translate(72.787654 0)scale(0.996264)"/>
      </g>
     </g>
    </g>
    <g id="ytick_4">
     <g id="line2d_8">
      <g>
       <use xlink:href="#mb578970996" x="50.5618" y="160.464505" style="stroke: #000000; stroke-width: 0.8"/>
      </g>
     </g>
     <g id="text_9">
      <!-- $\mathdefault{0.8}$ -->
      <g transform="translate(30.831721 163.923755)scale(0.1 -0.1)">
       <defs>
        <path id="CMR17-38" d="M 1741 2264 
C 2144 2467 2554 2773 2554 3263 
C 2554 3841 1990 4179 1472 4179 
C 890 4179 378 3759 378 3180 
C 378 3021 416 2747 666 2505 
C 730 2442 998 2251 1171 2130 
C 883 1983 211 1634 211 934 
C 211 279 838 -128 1459 -128 
C 2144 -128 2720 362 2720 1010 
C 2720 1590 2330 1857 2074 2029 
L 1741 2264 
z
M 902 2822 
C 851 2854 595 3051 595 3351 
C 595 3739 998 4032 1459 4032 
C 1965 4032 2336 3676 2336 3262 
C 2336 2669 1670 2331 1638 2331 
C 1632 2331 1626 2331 1574 2370 
L 902 2822 
z
M 2080 1519 
C 2176 1449 2483 1240 2483 851 
C 2483 381 2010 25 1472 25 
C 890 25 448 438 448 940 
C 448 1443 838 1862 1280 2060 
L 2080 1519 
z
" transform="scale(0.015625)"/>
       </defs>
       <use xlink:href="#CMR17-30" transform="scale(0.996264)"/>
       <use xlink:href="#CMMI12-3a" transform="translate(45.690477 0)scale(0.996264)"/>
       <use xlink:href="#CMR17-38" transform="translate(72.787654 0)scale(0.996264)"/>
      </g>
     </g>
    </g>
    <g id="ytick_5">
     <g id="line2d_9">
      <g>
       <use xlink:href="#mb578970996" x="50.5618" y="121.326005" style="stroke: #000000; stroke-width: 0.8"/>
      </g>
     </g>
     <g id="text_10">
      <!-- $\mathdefault{0.9}$ -->
      <g transform="translate(30.831721 124.785255)scale(0.1 -0.1)">
       <defs>
        <path id="CMR17-39" d="M 2253 1864 
C 2253 464 1670 31 1190 31 
C 1043 31 685 31 538 294 
C 704 268 826 357 826 518 
C 826 692 685 749 595 749 
C 538 749 365 723 365 506 
C 365 71 742 -128 1203 -128 
C 1939 -128 2688 674 2688 2073 
C 2688 3817 1971 4179 1485 4179 
C 851 4179 243 3628 243 2778 
C 243 1991 762 1408 1414 1408 
C 1952 1408 2189 1903 2253 2112 
L 2253 1864 
z
M 1427 1510 
C 1254 1510 1011 1542 813 1922 
C 678 2169 678 2461 678 2771 
C 678 3146 678 3405 858 3684 
C 947 3817 1114 4032 1485 4032 
C 2240 4032 2240 2885 2240 2632 
C 2240 2182 2035 1510 1427 1510 
z
" transform="scale(0.015625)"/>
       </defs>
       <use xlink:href="#CMR17-30" transform="scale(0.996264)"/>
       <use xlink:href="#CMMI12-3a" transform="translate(45.690477 0)scale(0.996264)"/>
       <use xlink:href="#CMR17-39" transform="translate(72.787654 0)scale(0.996264)"/>
      </g>
     </g>
    </g>
    <g id="ytick_6">
     <g id="line2d_10">
      <g>
       <use xlink:href="#mb578970996" x="50.5618" y="82.187505" style="stroke: #000000; stroke-width: 0.8"/>
      </g>
     </g>
     <g id="text_11">
      <!-- $\mathdefault{1.0}$ -->
      <g transform="translate(30.831721 85.646754)scale(0.1 -0.1)">
       <use xlink:href="#CMR17-31" transform="scale(0.996264)"/>
       <use xlink:href="#CMMI12-3a" transform="translate(45.690477 0)scale(0.996264)"/>
       <use xlink:href="#CMR17-30" transform="translate(72.787654 0)scale(0.996264)"/>
      </g>
     </g>
    </g>
    <g id="ytick_7">
     <g id="line2d_11">
      <g>
       <use xlink:href="#mb578970996" x="50.5618" y="43.049005" style="stroke: #000000; stroke-width: 0.8"/>
      </g>
     </g>
     <g id="text_12">
      <!-- $\mathdefault{1.1}$ -->
      <g transform="translate(30.831721 46.508254)scale(0.1 -0.1)">
       <use xlink:href="#CMR17-31" transform="scale(0.996264)"/>
       <use xlink:href="#CMMI12-3a" transform="translate(45.690477 0)scale(0.996264)"/>
       <use xlink:href="#CMR17-31" transform="translate(72.787654 0)scale(0.996264)"/>
      </g>
     </g>
    </g>
    <g id="text_13">
     <!-- $E_e$ (J) -->
     <g transform="translate(22.846665 181.438523)rotate(-90)scale(0.16 -0.16)">
      <defs>
       <path id="CMMI12-45" d="M 4448 1489 
C 4454 1508 4474 1554 4474 1579 
C 4474 1611 4448 1643 4410 1643 
C 4384 1643 4371 1637 4352 1617 
C 4339 1611 4339 1598 4282 1469 
C 3904 570 3629 185 2605 185 
L 1670 185 
C 1581 185 1568 185 1530 192 
C 1459 198 1453 211 1453 262 
C 1453 307 1466 345 1478 403 
L 1920 2176 
L 2554 2176 
C 3053 2176 3091 2066 3091 1874 
C 3091 1810 3091 1752 3046 1560 
C 3034 1534 3027 1508 3027 1489 
C 3027 1444 3059 1425 3098 1425 
C 3155 1425 3162 1469 3187 1559 
L 3552 3042 
C 3552 3073 3526 3105 3488 3105 
C 3430 3105 3424 3080 3398 2990 
C 3270 2501 3142 2361 2573 2361 
L 1965 2361 
L 2362 3930 
C 2419 4154 2432 4154 2694 4154 
L 3610 4154 
C 4397 4154 4557 3943 4557 3458 
C 4557 3451 4557 3273 4531 3062 
C 4525 3036 4518 2998 4518 2985 
C 4518 2934 4550 2915 4589 2915 
C 4634 2915 4659 2941 4672 3055 
L 4806 4174 
C 4806 4195 4819 4263 4819 4277 
C 4819 4352 4762 4352 4646 4352 
L 1523 4352 
C 1402 4352 1338 4352 1338 4229 
C 1338 4154 1382 4154 1491 4154 
C 1888 4154 1888 4114 1888 4052 
C 1888 4020 1882 3994 1862 3924 
L 998 473 
C 941 249 928 185 480 185 
C 358 185 294 185 294 70 
C 294 0 333 0 461 0 
L 3674 0 
C 3814 0 3821 6 3866 110 
L 4448 1489 
z
" transform="scale(0.015625)"/>
       <path id="CMMI12-65" d="M 1146 1479 
C 1318 1479 1754 1479 2061 1595 
C 2547 1783 2592 2158 2592 2274 
C 2592 2558 2349 2816 1926 2816 
C 1254 2816 288 2210 288 1073 
C 288 402 672 -64 1254 -64 
C 2125 -64 2675 609 2675 692 
C 2675 730 2637 762 2611 762 
C 2592 762 2586 756 2528 699 
C 2118 159 1510 64 1267 64 
C 902 64 710 350 710 822 
C 710 911 710 1071 806 1479 
L 1146 1479 
z
M 838 1600 
C 1114 2592 1722 2689 1926 2689 
C 2208 2689 2400 2522 2400 2277 
C 2400 1600 1376 1600 1107 1600 
L 838 1600 
z
" transform="scale(0.015625)"/>
       <path id="CMR17-4a" d="M 1888 910 
C 1888 324 1568 -26 1242 -26 
C 1075 -26 691 49 525 431 
C 550 425 582 418 608 418 
C 730 418 883 501 883 692 
C 883 845 774 960 614 960 
C 461 960 339 865 339 682 
C 339 258 730 -128 1254 -128 
C 1754 -128 2214 229 2291 764 
C 2298 809 2298 821 2298 1038 
L 2298 3715 
C 2298 3823 2298 4001 2310 4039 
C 2336 4160 2483 4160 2682 4160 
L 2682 4320 
C 2669 4320 2214 4320 2054 4320 
C 1786 4320 1491 4320 1222 4320 
L 1222 4160 
L 1376 4160 
C 1875 4160 1888 4090 1888 3861 
L 1888 910 
z
" transform="scale(0.015625)"/>
      </defs>
      <use xlink:href="#CMMI12-45" transform="scale(0.996264)"/>
      <use xlink:href="#CMMI12-65" transform="translate(72.211218 -14.943915)scale(0.697382)"/>
      <use xlink:href="#CMR17-28" transform="translate(134.433572 0)scale(0.996264)"/>
      <use xlink:href="#CMR17-4a" transform="translate(169.71434 0)scale(0.996264)"/>
      <use xlink:href="#CMR17-29" transform="translate(216.68613 0)scale(0.996264)"/>
     </g>
    </g>
    <g id="text_14">
     <!-- $\times\mathdefault{10^{−5}}\mathdefault{}$ -->
     <g transform="translate(50.5618 18.33337)scale(0.1 -0.1)">
      <defs>
       <path id="CMSY10-2" d="M 2490 1785 
L 1210 3059 
C 1133 3136 1120 3148 1069 3148 
C 1005 3148 941 3091 941 3020 
C 941 2976 954 2963 1024 2892 
L 2304 1606 
L 1024 320 
C 954 249 941 236 941 192 
C 941 121 1005 64 1069 64 
C 1120 64 1133 76 1210 153 
L 2483 1427 
L 3808 102 
C 3821 96 3866 64 3904 64 
C 3981 64 4032 121 4032 192 
C 4032 204 4032 230 4013 262 
C 4006 275 2989 1280 2669 1606 
L 3840 2777 
C 3872 2816 3968 2899 4000 2937 
C 4006 2950 4032 2976 4032 3020 
C 4032 3091 3981 3148 3904 3148 
C 3853 3148 3827 3123 3757 3052 
L 2490 1785 
z
" transform="scale(0.015625)"/>
       <path id="CMSY10-0" d="M 4218 1472 
C 4326 1472 4442 1472 4442 1600 
C 4442 1728 4326 1728 4218 1728 
L 755 1728 
C 646 1728 531 1728 531 1600 
C 531 1472 646 1472 755 1472 
L 4218 1472 
z
" transform="scale(0.015625)"/>
      </defs>
      <use xlink:href="#CMSY10-2" transform="scale(0.996264)"/>
      <use xlink:href="#CMR17-31" transform="translate(77.487468 0)scale(0.996264)"/>
      <use xlink:href="#CMR17-30" transform="translate(123.177945 0)scale(0.996264)"/>
      <use xlink:href="#CMSY10-0" transform="translate(168.868422 36.153639)scale(0.697382)"/>
      <use xlink:href="#CMR17-35" transform="translate(223.109415 36.153639)scale(0.697382)"/>
     </g>
    </g>
   </g>
   <g id="LineCollection_1">
    <path d="M 58.29355 83.185782 
L 58.734589 83.185782 
" clip-path="url(#pb291ab2588)" style="fill: none; stroke: #b22222; stroke-width: 1.5"/>
    <path d="M 75.086952 110.114487 
L 75.867252 110.114487 
" clip-path="url(#pb291ab2588)" style="fill: none; stroke: #b22222; stroke-width: 1.5"/>
    <path d="M 91.880355 139.411018 
L 92.999915 139.411018 
" clip-path="url(#pb291ab2588)" style="fill: none; stroke: #b22222; stroke-width: 1.5"/>
    <path d="M 108.673757 201.131499 
L 110.132578 201.131499 
" clip-path="url(#pb291ab2588)" style="fill: none; stroke: #b22222; stroke-width: 1.5"/>
    <path d="M 125.467159 139.803649 
L 127.26524 139.803649 
" clip-path="url(#pb291ab2588)" style="fill: none; stroke: #b22222; stroke-width: 1.5"/>
    <path d="M 142.260561 251.376621 
L 144.397903 251.376621 
" clip-path="url(#pb291ab2588)" style="fill: none; stroke: #b22222; stroke-width: 1.5"/>
    <path d="M 159.053963 153.21476 
L 161.530566 153.21476 
" clip-path="url(#pb291ab2588)" style="fill: none; stroke: #b22222; stroke-width: 1.5"/>
    <path d="M 175.847366 125.371543 
L 178.663229 125.371543 
" clip-path="url(#pb291ab2588)" style="fill: none; stroke: #b22222; stroke-width: 1.5"/>
    <path d="M 192.640768 217.002786 
L 195.795892 217.002786 
" clip-path="url(#pb291ab2588)" style="fill: none; stroke: #b22222; stroke-width: 1.5"/>
    <path d="M 192.640768 254.501492 
L 195.795892 254.501492 
" clip-path="url(#pb291ab2588)" style="fill: none; stroke: #b22222; stroke-width: 1.5"/>
    <path d="M 192.640768 261.458846 
L 195.795892 261.458846 
" clip-path="url(#pb291ab2588)" style="fill: none; stroke: #b22222; stroke-width: 1.5"/>
    <path d="M 58.29355 59.110282 
L 58.734589 59.110282 
" clip-path="url(#pb291ab2588)" style="fill: none; stroke: #b22222; stroke-width: 1.5"/>
    <path d="M 75.086952 43.622397 
L 75.867252 43.622397 
" clip-path="url(#pb291ab2588)" style="fill: none; stroke: #b22222; stroke-width: 1.5"/>
    <path d="M 91.880355 247.417434 
L 92.999915 247.417434 
" clip-path="url(#pb291ab2588)" style="fill: none; stroke: #b22222; stroke-width: 1.5"/>
    <path d="M 108.673757 58.474943 
L 110.132578 58.474943 
" clip-path="url(#pb291ab2588)" style="fill: none; stroke: #b22222; stroke-width: 1.5"/>
    <path d="M 125.467159 33.951673 
L 127.26524 33.951673 
" clip-path="url(#pb291ab2588)" style="fill: none; stroke: #b22222; stroke-width: 1.5"/>
    <path d="M 142.260561 275.490399 
L 144.397903 275.490399 
" clip-path="url(#pb291ab2588)" style="fill: none; stroke: #b22222; stroke-width: 1.5"/>
    <path d="M 159.053963 286.317727 
L 161.530566 286.317727 
" clip-path="url(#pb291ab2588)" style="fill: none; stroke: #b22222; stroke-width: 1.5"/>
    <path d="M 175.847366 252.633472 
L 178.663229 252.633472 
" clip-path="url(#pb291ab2588)" style="fill: none; stroke: #b22222; stroke-width: 1.5"/>
    <path d="M 192.640768 149.34541 
L 195.795892 149.34541 
" clip-path="url(#pb291ab2588)" style="fill: none; stroke: #b22222; stroke-width: 1.5"/>
    <path d="M 209.43417 261.919444 
L 212.928555 261.919444 
" clip-path="url(#pb291ab2588)" style="fill: none; stroke: #b22222; stroke-width: 1.5"/>
   </g>
   <g id="LineCollection_2">
    <path d="M 58.51407 83.185782 
L 58.51407 83.185782 
" clip-path="url(#pb291ab2588)" style="fill: none; stroke: #b22222; stroke-width: 1.5"/>
    <path d="M 75.477102 110.114487 
L 75.477102 110.114487 
" clip-path="url(#pb291ab2588)" style="fill: none; stroke: #b22222; stroke-width: 1.5"/>
    <path d="M 92.440135 139.411018 
L 92.440135 139.411018 
" clip-path="url(#pb291ab2588)" style="fill: none; stroke: #b22222; stroke-width: 1.5"/>
    <path d="M 109.403167 201.131499 
L 109.403167 201.131499 
" clip-path="url(#pb291ab2588)" style="fill: none; stroke: #b22222; stroke-width: 1.5"/>
    <path d="M 126.3662 139.803649 
L 126.3662 139.803649 
" clip-path="url(#pb291ab2588)" style="fill: none; stroke: #b22222; stroke-width: 1.5"/>
    <path d="M 143.329232 251.376621 
L 143.329232 251.376621 
" clip-path="url(#pb291ab2588)" style="fill: none; stroke: #b22222; stroke-width: 1.5"/>
    <path d="M 160.292265 153.21476 
L 160.292265 153.21476 
" clip-path="url(#pb291ab2588)" style="fill: none; stroke: #b22222; stroke-width: 1.5"/>
    <path d="M 177.255297 125.371543 
L 177.255297 125.371543 
" clip-path="url(#pb291ab2588)" style="fill: none; stroke: #b22222; stroke-width: 1.5"/>
    <path d="M 194.21833 217.002786 
L 194.21833 217.002786 
" clip-path="url(#pb291ab2588)" style="fill: none; stroke: #b22222; stroke-width: 1.5"/>
    <path d="M 194.21833 254.501492 
L 194.21833 254.501492 
" clip-path="url(#pb291ab2588)" style="fill: none; stroke: #b22222; stroke-width: 1.5"/>
    <path d="M 194.21833 261.458846 
L 194.21833 261.458846 
" clip-path="url(#pb291ab2588)" style="fill: none; stroke: #b22222; stroke-width: 1.5"/>
    <path d="M 58.51407 59.110282 
L 58.51407 59.110282 
" clip-path="url(#pb291ab2588)" style="fill: none; stroke: #b22222; stroke-width: 1.5"/>
    <path d="M 75.477102 43.622397 
L 75.477102 43.622397 
" clip-path="url(#pb291ab2588)" style="fill: none; stroke: #b22222; stroke-width: 1.5"/>
    <path d="M 92.440135 247.417434 
L 92.440135 247.417434 
" clip-path="url(#pb291ab2588)" style="fill: none; stroke: #b22222; stroke-width: 1.5"/>
    <path d="M 109.403167 58.474943 
L 109.403167 58.474943 
" clip-path="url(#pb291ab2588)" style="fill: none; stroke: #b22222; stroke-width: 1.5"/>
    <path d="M 126.3662 33.951673 
L 126.3662 33.951673 
" clip-path="url(#pb291ab2588)" style="fill: none; stroke: #b22222; stroke-width: 1.5"/>
    <path d="M 143.329232 275.490399 
L 143.329232 275.490399 
" clip-path="url(#pb291ab2588)" style="fill: none; stroke: #b22222; stroke-width: 1.5"/>
    <path d="M 160.292265 286.317727 
L 160.292265 286.317727 
" clip-path="url(#pb291ab2588)" style="fill: none; stroke: #b22222; stroke-width: 1.5"/>
    <path d="M 177.255297 252.633472 
L 177.255297 252.633472 
" clip-path="url(#pb291ab2588)" style="fill: none; stroke: #b22222; stroke-width: 1.5"/>
    <path d="M 194.21833 149.34541 
L 194.21833 149.34541 
" clip-path="url(#pb291ab2588)" style="fill: none; stroke: #b22222; stroke-width: 1.5"/>
    <path d="M 211.181362 261.919444 
L 211.181362 261.919444 
" clip-path="url(#pb291ab2588)" style="fill: none; stroke: #b22222; stroke-width: 1.5"/>
   </g>
   <g id="line2d_12">
    <defs>
     <path id="m52b6a5a53e" d="M -3 0 
L 3 0 
M 0 3 
L 0 -3 
" style="stroke: #4169e1"/>
    </defs>
    <g clip-path="url(#pb291ab2588)">
     <use xlink:href="#m52b6a5a53e" x="58.51407" y="83.185782" style="fill: #4169e1; stroke: #4169e1"/>
     <use xlink:href="#m52b6a5a53e" x="75.477102" y="110.114487" style="fill: #4169e1; stroke: #4169e1"/>
     <use xlink:href="#m52b6a5a53e" x="92.440135" y="139.411018" style="fill: #4169e1; stroke: #4169e1"/>
     <use xlink:href="#m52b6a5a53e" x="109.403167" y="201.131499" style="fill: #4169e1; stroke: #4169e1"/>
     <use xlink:href="#m52b6a5a53e" x="126.3662" y="139.803649" style="fill: #4169e1; stroke: #4169e1"/>
     <use xlink:href="#m52b6a5a53e" x="143.329232" y="251.376621" style="fill: #4169e1; stroke: #4169e1"/>
     <use xlink:href="#m52b6a5a53e" x="160.292265" y="153.21476" style="fill: #4169e1; stroke: #4169e1"/>
     <use xlink:href="#m52b6a5a53e" x="177.255297" y="125.371543" style="fill: #4169e1; stroke: #4169e1"/>
     <use xlink:href="#m52b6a5a53e" x="194.21833" y="217.002786" style="fill: #4169e1; stroke: #4169e1"/>
     <use xlink:href="#m52b6a5a53e" x="194.21833" y="254.501492" style="fill: #4169e1; stroke: #4169e1"/>
     <use xlink:href="#m52b6a5a53e" x="194.21833" y="261.458846" style="fill: #4169e1; stroke: #4169e1"/>
     <use xlink:href="#m52b6a5a53e" x="58.51407" y="59.110282" style="fill: #4169e1; stroke: #4169e1"/>
     <use xlink:href="#m52b6a5a53e" x="75.477102" y="43.622397" style="fill: #4169e1; stroke: #4169e1"/>
     <use xlink:href="#m52b6a5a53e" x="92.440135" y="247.417434" style="fill: #4169e1; stroke: #4169e1"/>
     <use xlink:href="#m52b6a5a53e" x="109.403167" y="58.474943" style="fill: #4169e1; stroke: #4169e1"/>
     <use xlink:href="#m52b6a5a53e" x="126.3662" y="33.951673" style="fill: #4169e1; stroke: #4169e1"/>
     <use xlink:href="#m52b6a5a53e" x="143.329232" y="275.490399" style="fill: #4169e1; stroke: #4169e1"/>
     <use xlink:href="#m52b6a5a53e" x="160.292265" y="286.317727" style="fill: #4169e1; stroke: #4169e1"/>
     <use xlink:href="#m52b6a5a53e" x="177.255297" y="252.633472" style="fill: #4169e1; stroke: #4169e1"/>
     <use xlink:href="#m52b6a5a53e" x="194.21833" y="149.34541" style="fill: #4169e1; stroke: #4169e1"/>
     <use xlink:href="#m52b6a5a53e" x="211.181362" y="261.919444" style="fill: #4169e1; stroke: #4169e1"/>
    </g>
   </g>
   <g id="patch_3">
    <path d="M 50.5618 298.93603 
L 50.5618 21.33337 
" style="fill: none; stroke: #000000; stroke-width: 0.8; stroke-linejoin: miter; stroke-linecap: square"/>
   </g>
   <g id="patch_4">
    <path d="M 220.660305 298.93603 
L 220.660305 21.33337 
" style="fill: none; stroke: #000000; stroke-width: 0.8; stroke-linejoin: miter; stroke-linecap: square"/>
   </g>
   <g id="patch_5">
    <path d="M 50.5618 298.93603 
L 220.660305 298.93603 
" style="fill: none; stroke: #000000; stroke-width: 0.8; stroke-linejoin: miter; stroke-linecap: square"/>
   </g>
   <g id="patch_6">
    <path d="M 50.5618 21.33337 
L 220.660305 21.33337 
" style="fill: none; stroke: #000000; stroke-width: 0.8; stroke-linejoin: miter; stroke-linecap: square"/>
   </g>
  </g>
  <g id="axes_2">
   <g id="patch_7">
    <path d="M 279.901495 298.93603 
L 450 298.93603 
L 450 21.33337 
L 279.901495 21.33337 
z
" style="fill: #ffffff"/>
   </g>
   <g id="matplotlib.axis_3">
    <g id="xtick_5">
     <g id="line2d_13">
      <g>
       <use xlink:href="#mfcc5ad738c" x="308.209404" y="298.93603" style="stroke: #000000; stroke-width: 0.8"/>
      </g>
     </g>
     <g id="text_15">
      <!-- $\mathdefault{2500}$ -->
      <g transform="translate(298.246733 312.854528)scale(0.1 -0.1)">
       <use xlink:href="#CMR17-32" transform="scale(0.996264)"/>
       <use xlink:href="#CMR17-35" transform="translate(45.690477 0)scale(0.996264)"/>
       <use xlink:href="#CMR17-30" transform="translate(91.380954 0)scale(0.996264)"/>
       <use xlink:href="#CMR17-30" transform="translate(137.071431 0)scale(0.996264)"/>
      </g>
     </g>
    </g>
    <g id="xtick_6">
     <g id="line2d_14">
      <g>
       <use xlink:href="#mfcc5ad738c" x="350.616985" y="298.93603" style="stroke: #000000; stroke-width: 0.8"/>
      </g>
     </g>
     <g id="text_16">
      <!-- $\mathdefault{5000}$ -->
      <g transform="translate(340.654315 312.854528)scale(0.1 -0.1)">
       <use xlink:href="#CMR17-35" transform="scale(0.996264)"/>
       <use xlink:href="#CMR17-30" transform="translate(45.690477 0)scale(0.996264)"/>
       <use xlink:href="#CMR17-30" transform="translate(91.380954 0)scale(0.996264)"/>
       <use xlink:href="#CMR17-30" transform="translate(137.071431 0)scale(0.996264)"/>
      </g>
     </g>
    </g>
    <g id="xtick_7">
     <g id="line2d_15">
      <g>
       <use xlink:href="#mfcc5ad738c" x="393.024566" y="298.93603" style="stroke: #000000; stroke-width: 0.8"/>
      </g>
     </g>
     <g id="text_17">
      <!-- $\mathdefault{7500}$ -->
      <g transform="translate(383.061896 312.854528)scale(0.1 -0.1)">
       <use xlink:href="#CMR17-37" transform="scale(0.996264)"/>
       <use xlink:href="#CMR17-35" transform="translate(45.690477 0)scale(0.996264)"/>
       <use xlink:href="#CMR17-30" transform="translate(91.380954 0)scale(0.996264)"/>
       <use xlink:href="#CMR17-30" transform="translate(137.071431 0)scale(0.996264)"/>
      </g>
     </g>
    </g>
    <g id="xtick_8">
     <g id="line2d_16">
      <g>
       <use xlink:href="#mfcc5ad738c" x="435.432148" y="298.93603" style="stroke: #000000; stroke-width: 0.8"/>
      </g>
     </g>
     <g id="text_18">
      <!-- $\mathdefault{10000}$ -->
      <g transform="translate(422.97881 312.854528)scale(0.1 -0.1)">
       <use xlink:href="#CMR17-31" transform="scale(0.996264)"/>
       <use xlink:href="#CMR17-30" transform="translate(45.690477 0)scale(0.996264)"/>
       <use xlink:href="#CMR17-30" transform="translate(91.380954 0)scale(0.996264)"/>
       <use xlink:href="#CMR17-30" transform="translate(137.071431 0)scale(0.996264)"/>
       <use xlink:href="#CMR17-30" transform="translate(182.761908 0)scale(0.996264)"/>
      </g>
     </g>
    </g>
    <g id="text_19">
     <!-- $R$ ($\Omega$) -->
     <g transform="translate(344.637761 330.746875)scale(0.16 -0.16)">
      <use xlink:href="#CMMI12-52" transform="scale(0.996264)"/>
      <use xlink:href="#CMR17-28" transform="translate(105.146928 0)scale(0.996264)"/>
      <use xlink:href="#CMR17-a" transform="translate(140.427696 0)scale(0.996264)"/>
      <use xlink:href="#CMR17-29" transform="translate(206.937577 0)scale(0.996264)"/>
     </g>
    </g>
   </g>
   <g id="matplotlib.axis_4">
    <g id="ytick_8">
     <g id="line2d_17">
      <g>
       <use xlink:href="#mb578970996" x="279.901495" y="283.951273" style="stroke: #000000; stroke-width: 0.8"/>
      </g>
     </g>
     <g id="text_20">
      <!-- $\mathdefault{0.0004}$ -->
      <g transform="translate(245.22741 287.410522)scale(0.1 -0.1)">
       <defs>
        <path id="CMR17-34" d="M 2150 4122 
C 2150 4256 2144 4256 2029 4256 
L 128 1254 
L 128 1088 
L 1779 1088 
L 1779 457 
C 1779 224 1766 160 1318 160 
L 1197 160 
L 1197 0 
C 1402 0 1747 0 1965 0 
C 2182 0 2528 0 2733 0 
L 2733 160 
L 2611 160 
C 2163 160 2150 224 2150 457 
L 2150 1088 
L 2803 1088 
L 2803 1254 
L 2150 1254 
L 2150 4122 
z
M 1798 3703 
L 1798 1254 
L 256 1254 
L 1798 3703 
z
" transform="scale(0.015625)"/>
       </defs>
       <use xlink:href="#CMR17-30" transform="scale(0.996264)"/>
       <use xlink:href="#CMMI12-3a" transform="translate(45.690477 0)scale(0.996264)"/>
       <use xlink:href="#CMR17-30" transform="translate(72.787654 0)scale(0.996264)"/>
       <use xlink:href="#CMR17-30" transform="translate(118.478131 0)scale(0.996264)"/>
       <use xlink:href="#CMR17-30" transform="translate(164.168608 0)scale(0.996264)"/>
       <use xlink:href="#CMR17-34" transform="translate(209.859086 0)scale(0.996264)"/>
      </g>
     </g>
    </g>
    <g id="ytick_9">
     <g id="line2d_18">
      <g>
       <use xlink:href="#mb578970996" x="279.901495" y="236.545965" style="stroke: #000000; stroke-width: 0.8"/>
      </g>
     </g>
     <g id="text_21">
      <!-- $\mathdefault{0.0005}$ -->
      <g transform="translate(245.22741 240.005214)scale(0.1 -0.1)">
       <use xlink:href="#CMR17-30" transform="scale(0.996264)"/>
       <use xlink:href="#CMMI12-3a" transform="translate(45.690477 0)scale(0.996264)"/>
       <use xlink:href="#CMR17-30" transform="translate(72.787654 0)scale(0.996264)"/>
       <use xlink:href="#CMR17-30" transform="translate(118.478131 0)scale(0.996264)"/>
       <use xlink:href="#CMR17-30" transform="translate(164.168608 0)scale(0.996264)"/>
       <use xlink:href="#CMR17-35" transform="translate(209.859086 0)scale(0.996264)"/>
      </g>
     </g>
    </g>
    <g id="ytick_10">
     <g id="line2d_19">
      <g>
       <use xlink:href="#mb578970996" x="279.901495" y="189.140656" style="stroke: #000000; stroke-width: 0.8"/>
      </g>
     </g>
     <g id="text_22">
      <!-- $\mathdefault{0.0006}$ -->
      <g transform="translate(245.22741 192.599906)scale(0.1 -0.1)">
       <use xlink:href="#CMR17-30" transform="scale(0.996264)"/>
       <use xlink:href="#CMMI12-3a" transform="translate(45.690477 0)scale(0.996264)"/>
       <use xlink:href="#CMR17-30" transform="translate(72.787654 0)scale(0.996264)"/>
       <use xlink:href="#CMR17-30" transform="translate(118.478131 0)scale(0.996264)"/>
       <use xlink:href="#CMR17-30" transform="translate(164.168608 0)scale(0.996264)"/>
       <use xlink:href="#CMR17-36" transform="translate(209.859086 0)scale(0.996264)"/>
      </g>
     </g>
    </g>
    <g id="ytick_11">
     <g id="line2d_20">
      <g>
       <use xlink:href="#mb578970996" x="279.901495" y="141.735348" style="stroke: #000000; stroke-width: 0.8"/>
      </g>
     </g>
     <g id="text_23">
      <!-- $\mathdefault{0.0007}$ -->
      <g transform="translate(245.22741 145.194597)scale(0.1 -0.1)">
       <use xlink:href="#CMR17-30" transform="scale(0.996264)"/>
       <use xlink:href="#CMMI12-3a" transform="translate(45.690477 0)scale(0.996264)"/>
       <use xlink:href="#CMR17-30" transform="translate(72.787654 0)scale(0.996264)"/>
       <use xlink:href="#CMR17-30" transform="translate(118.478131 0)scale(0.996264)"/>
       <use xlink:href="#CMR17-30" transform="translate(164.168608 0)scale(0.996264)"/>
       <use xlink:href="#CMR17-37" transform="translate(209.859086 0)scale(0.996264)"/>
      </g>
     </g>
    </g>
    <g id="ytick_12">
     <g id="line2d_21">
      <g>
       <use xlink:href="#mb578970996" x="279.901495" y="94.33004" style="stroke: #000000; stroke-width: 0.8"/>
      </g>
     </g>
     <g id="text_24">
      <!-- $\mathdefault{0.0008}$ -->
      <g transform="translate(245.22741 97.789289)scale(0.1 -0.1)">
       <use xlink:href="#CMR17-30" transform="scale(0.996264)"/>
       <use xlink:href="#CMMI12-3a" transform="translate(45.690477 0)scale(0.996264)"/>
       <use xlink:href="#CMR17-30" transform="translate(72.787654 0)scale(0.996264)"/>
       <use xlink:href="#CMR17-30" transform="translate(118.478131 0)scale(0.996264)"/>
       <use xlink:href="#CMR17-30" transform="translate(164.168608 0)scale(0.996264)"/>
       <use xlink:href="#CMR17-38" transform="translate(209.859086 0)scale(0.996264)"/>
      </g>
     </g>
    </g>
    <g id="ytick_13">
     <g id="line2d_22">
      <g>
       <use xlink:href="#mb578970996" x="279.901495" y="46.924731" style="stroke: #000000; stroke-width: 0.8"/>
      </g>
     </g>
     <g id="text_25">
      <!-- $\mathdefault{0.0009}$ -->
      <g transform="translate(245.22741 50.383981)scale(0.1 -0.1)">
       <use xlink:href="#CMR17-30" transform="scale(0.996264)"/>
       <use xlink:href="#CMMI12-3a" transform="translate(45.690477 0)scale(0.996264)"/>
       <use xlink:href="#CMR17-30" transform="translate(72.787654 0)scale(0.996264)"/>
       <use xlink:href="#CMR17-30" transform="translate(118.478131 0)scale(0.996264)"/>
       <use xlink:href="#CMR17-30" transform="translate(164.168608 0)scale(0.996264)"/>
       <use xlink:href="#CMR17-39" transform="translate(209.859086 0)scale(0.996264)"/>
      </g>
     </g>
    </g>
    <g id="text_26">
     <!-- $k^{2}_{33}$ -->
     <g transform="translate(237.270842 169.772584)rotate(-90)scale(0.16 -0.16)">
      <defs>
       <path id="CMMI12-6b" d="M 1798 4257 
C 1805 4283 1818 4321 1818 4352 
C 1818 4416 1754 4416 1741 4416 
C 1734 4416 1504 4393 1389 4377 
C 1280 4377 1184 4358 1069 4358 
C 915 4345 870 4339 870 4224 
C 870 4160 934 4160 998 4160 
C 1325 4160 1325 4103 1325 4040 
C 1325 4015 1325 4002 1293 3888 
L 378 248 
C 352 152 352 140 352 101 
C 352 -38 461 -64 525 -64 
C 704 -64 742 77 794 275 
L 1094 1469 
C 1555 1418 1830 1226 1830 920 
C 1830 881 1830 856 1811 760 
C 1786 664 1786 588 1786 556 
C 1786 185 2029 -64 2355 -64 
C 2650 -64 2803 204 2854 294 
C 2989 530 3072 888 3072 913 
C 3072 945 3046 971 3008 971 
C 2950 971 2944 945 2918 843 
C 2829 511 2694 64 2368 64 
C 2240 64 2157 128 2157 370 
C 2157 492 2182 632 2208 728 
C 2234 843 2234 849 2234 926 
C 2234 1303 1894 1514 1306 1590 
C 1536 1731 1766 1980 1856 2076 
C 2221 2484 2470 2689 2765 2689 
C 2912 2689 2950 2650 2995 2612 
C 2758 2586 2669 2420 2669 2293 
C 2669 2139 2790 2088 2880 2088 
C 3053 2088 3206 2235 3206 2440 
C 3206 2625 3059 2816 2771 2816 
C 2419 2816 2131 2567 1677 2056 
C 1613 1980 1376 1737 1139 1648 
L 1798 4257 
z
" transform="scale(0.015625)"/>
       <path id="CMR17-33" d="M 1414 2157 
C 1984 2157 2234 1662 2234 1090 
C 2234 320 1824 25 1453 25 
C 1114 25 563 194 390 693 
C 422 680 454 680 486 680 
C 640 680 755 782 755 948 
C 755 1133 614 1216 486 1216 
C 378 1216 211 1165 211 926 
C 211 335 787 -128 1466 -128 
C 2176 -128 2720 430 2720 1085 
C 2720 1707 2208 2157 1600 2227 
C 2086 2328 2554 2756 2554 3329 
C 2554 3820 2048 4179 1472 4179 
C 890 4179 378 3829 378 3329 
C 378 3110 544 3072 627 3072 
C 762 3072 877 3155 877 3321 
C 877 3486 762 3569 627 3569 
C 602 3569 570 3569 544 3557 
C 730 3959 1235 4032 1459 4032 
C 1683 4032 2106 3925 2106 3320 
C 2106 3143 2080 2828 1862 2550 
C 1670 2304 1453 2304 1242 2284 
C 1210 2284 1062 2269 1037 2269 
C 992 2263 966 2257 966 2208 
C 966 2163 973 2157 1101 2157 
L 1414 2157 
z
" transform="scale(0.015625)"/>
      </defs>
      <use xlink:href="#CMMI12-6b" transform="scale(0.996264)"/>
      <use xlink:href="#CMR17-32" transform="translate(54.079201 36.153639)scale(0.697382)"/>
      <use xlink:href="#CMR17-33" transform="translate(50.735189 -24.740171)scale(0.697382)"/>
      <use xlink:href="#CMR17-33" transform="translate(82.718371 -24.740171)scale(0.697382)"/>
     </g>
    </g>
   </g>
   <g id="LineCollection_3">
    <path d="M 287.633245 83.185782 
L 288.074284 83.185782 
" clip-path="url(#p6ae6342515)" style="fill: none; stroke: #b22222; stroke-width: 1.5"/>
    <path d="M 304.426647 110.114487 
L 305.206947 110.114487 
" clip-path="url(#p6ae6342515)" style="fill: none; stroke: #b22222; stroke-width: 1.5"/>
    <path d="M 321.22005 139.411018 
L 322.33961 139.411018 
" clip-path="url(#p6ae6342515)" style="fill: none; stroke: #b22222; stroke-width: 1.5"/>
    <path d="M 338.013452 201.131499 
L 339.472273 201.131499 
" clip-path="url(#p6ae6342515)" style="fill: none; stroke: #b22222; stroke-width: 1.5"/>
    <path d="M 354.806854 139.803649 
L 356.604935 139.803649 
" clip-path="url(#p6ae6342515)" style="fill: none; stroke: #b22222; stroke-width: 1.5"/>
    <path d="M 371.600256 251.376621 
L 373.737598 251.376621 
" clip-path="url(#p6ae6342515)" style="fill: none; stroke: #b22222; stroke-width: 1.5"/>
    <path d="M 388.393658 153.21476 
L 390.870261 153.21476 
" clip-path="url(#p6ae6342515)" style="fill: none; stroke: #b22222; stroke-width: 1.5"/>
    <path d="M 405.187061 125.371543 
L 408.002924 125.371543 
" clip-path="url(#p6ae6342515)" style="fill: none; stroke: #b22222; stroke-width: 1.5"/>
    <path d="M 421.980463 217.002786 
L 425.135587 217.002786 
" clip-path="url(#p6ae6342515)" style="fill: none; stroke: #b22222; stroke-width: 1.5"/>
    <path d="M 421.980463 254.501492 
L 425.135587 254.501492 
" clip-path="url(#p6ae6342515)" style="fill: none; stroke: #b22222; stroke-width: 1.5"/>
    <path d="M 421.980463 261.458846 
L 425.135587 261.458846 
" clip-path="url(#p6ae6342515)" style="fill: none; stroke: #b22222; stroke-width: 1.5"/>
    <path d="M 287.633245 59.110282 
L 288.074284 59.110282 
" clip-path="url(#p6ae6342515)" style="fill: none; stroke: #b22222; stroke-width: 1.5"/>
    <path d="M 304.426647 43.622397 
L 305.206947 43.622397 
" clip-path="url(#p6ae6342515)" style="fill: none; stroke: #b22222; stroke-width: 1.5"/>
    <path d="M 321.22005 247.417434 
L 322.33961 247.417434 
" clip-path="url(#p6ae6342515)" style="fill: none; stroke: #b22222; stroke-width: 1.5"/>
    <path d="M 338.013452 58.474943 
L 339.472273 58.474943 
" clip-path="url(#p6ae6342515)" style="fill: none; stroke: #b22222; stroke-width: 1.5"/>
    <path d="M 354.806854 33.951673 
L 356.604935 33.951673 
" clip-path="url(#p6ae6342515)" style="fill: none; stroke: #b22222; stroke-width: 1.5"/>
    <path d="M 371.600256 275.490399 
L 373.737598 275.490399 
" clip-path="url(#p6ae6342515)" style="fill: none; stroke: #b22222; stroke-width: 1.5"/>
    <path d="M 388.393658 286.317727 
L 390.870261 286.317727 
" clip-path="url(#p6ae6342515)" style="fill: none; stroke: #b22222; stroke-width: 1.5"/>
    <path d="M 405.187061 252.633472 
L 408.002924 252.633472 
" clip-path="url(#p6ae6342515)" style="fill: none; stroke: #b22222; stroke-width: 1.5"/>
    <path d="M 421.980463 149.34541 
L 425.135587 149.34541 
" clip-path="url(#p6ae6342515)" style="fill: none; stroke: #b22222; stroke-width: 1.5"/>
    <path d="M 438.773865 261.919444 
L 442.26825 261.919444 
" clip-path="url(#p6ae6342515)" style="fill: none; stroke: #b22222; stroke-width: 1.5"/>
   </g>
   <g id="LineCollection_4">
    <path d="M 287.853765 83.185782 
L 287.853765 83.185782 
" clip-path="url(#p6ae6342515)" style="fill: none; stroke: #b22222; stroke-width: 1.5"/>
    <path d="M 304.816797 110.114487 
L 304.816797 110.114487 
" clip-path="url(#p6ae6342515)" style="fill: none; stroke: #b22222; stroke-width: 1.5"/>
    <path d="M 321.77983 139.411018 
L 321.77983 139.411018 
" clip-path="url(#p6ae6342515)" style="fill: none; stroke: #b22222; stroke-width: 1.5"/>
    <path d="M 338.742862 201.131499 
L 338.742862 201.131499 
" clip-path="url(#p6ae6342515)" style="fill: none; stroke: #b22222; stroke-width: 1.5"/>
    <path d="M 355.705895 139.803649 
L 355.705895 139.803649 
" clip-path="url(#p6ae6342515)" style="fill: none; stroke: #b22222; stroke-width: 1.5"/>
    <path d="M 372.668927 251.376621 
L 372.668927 251.376621 
" clip-path="url(#p6ae6342515)" style="fill: none; stroke: #b22222; stroke-width: 1.5"/>
    <path d="M 389.63196 153.21476 
L 389.63196 153.21476 
" clip-path="url(#p6ae6342515)" style="fill: none; stroke: #b22222; stroke-width: 1.5"/>
    <path d="M 406.594992 125.371543 
L 406.594992 125.371543 
" clip-path="url(#p6ae6342515)" style="fill: none; stroke: #b22222; stroke-width: 1.5"/>
    <path d="M 423.558025 217.002786 
L 423.558025 217.002786 
" clip-path="url(#p6ae6342515)" style="fill: none; stroke: #b22222; stroke-width: 1.5"/>
    <path d="M 423.558025 254.501492 
L 423.558025 254.501492 
" clip-path="url(#p6ae6342515)" style="fill: none; stroke: #b22222; stroke-width: 1.5"/>
    <path d="M 423.558025 261.458846 
L 423.558025 261.458846 
" clip-path="url(#p6ae6342515)" style="fill: none; stroke: #b22222; stroke-width: 1.5"/>
    <path d="M 287.853765 59.110282 
L 287.853765 59.110282 
" clip-path="url(#p6ae6342515)" style="fill: none; stroke: #b22222; stroke-width: 1.5"/>
    <path d="M 304.816797 43.622397 
L 304.816797 43.622397 
" clip-path="url(#p6ae6342515)" style="fill: none; stroke: #b22222; stroke-width: 1.5"/>
    <path d="M 321.77983 247.417434 
L 321.77983 247.417434 
" clip-path="url(#p6ae6342515)" style="fill: none; stroke: #b22222; stroke-width: 1.5"/>
    <path d="M 338.742862 58.474943 
L 338.742862 58.474943 
" clip-path="url(#p6ae6342515)" style="fill: none; stroke: #b22222; stroke-width: 1.5"/>
    <path d="M 355.705895 33.951673 
L 355.705895 33.951673 
" clip-path="url(#p6ae6342515)" style="fill: none; stroke: #b22222; stroke-width: 1.5"/>
    <path d="M 372.668927 275.490399 
L 372.668927 275.490399 
" clip-path="url(#p6ae6342515)" style="fill: none; stroke: #b22222; stroke-width: 1.5"/>
    <path d="M 389.63196 286.317727 
L 389.63196 286.317727 
" clip-path="url(#p6ae6342515)" style="fill: none; stroke: #b22222; stroke-width: 1.5"/>
    <path d="M 406.594992 252.633472 
L 406.594992 252.633472 
" clip-path="url(#p6ae6342515)" style="fill: none; stroke: #b22222; stroke-width: 1.5"/>
    <path d="M 423.558025 149.34541 
L 423.558025 149.34541 
" clip-path="url(#p6ae6342515)" style="fill: none; stroke: #b22222; stroke-width: 1.5"/>
    <path d="M 440.521057 261.919444 
L 440.521057 261.919444 
" clip-path="url(#p6ae6342515)" style="fill: none; stroke: #b22222; stroke-width: 1.5"/>
   </g>
   <g id="line2d_23">
    <g clip-path="url(#p6ae6342515)">
     <use xlink:href="#m52b6a5a53e" x="287.853765" y="83.185782" style="fill: #4169e1; stroke: #4169e1"/>
     <use xlink:href="#m52b6a5a53e" x="304.816797" y="110.114487" style="fill: #4169e1; stroke: #4169e1"/>
     <use xlink:href="#m52b6a5a53e" x="321.77983" y="139.411018" style="fill: #4169e1; stroke: #4169e1"/>
     <use xlink:href="#m52b6a5a53e" x="338.742862" y="201.131499" style="fill: #4169e1; stroke: #4169e1"/>
     <use xlink:href="#m52b6a5a53e" x="355.705895" y="139.803649" style="fill: #4169e1; stroke: #4169e1"/>
     <use xlink:href="#m52b6a5a53e" x="372.668927" y="251.376621" style="fill: #4169e1; stroke: #4169e1"/>
     <use xlink:href="#m52b6a5a53e" x="389.63196" y="153.21476" style="fill: #4169e1; stroke: #4169e1"/>
     <use xlink:href="#m52b6a5a53e" x="406.594992" y="125.371543" style="fill: #4169e1; stroke: #4169e1"/>
     <use xlink:href="#m52b6a5a53e" x="423.558025" y="217.002786" style="fill: #4169e1; stroke: #4169e1"/>
     <use xlink:href="#m52b6a5a53e" x="423.558025" y="254.501492" style="fill: #4169e1; stroke: #4169e1"/>
     <use xlink:href="#m52b6a5a53e" x="423.558025" y="261.458846" style="fill: #4169e1; stroke: #4169e1"/>
     <use xlink:href="#m52b6a5a53e" x="287.853765" y="59.110282" style="fill: #4169e1; stroke: #4169e1"/>
     <use xlink:href="#m52b6a5a53e" x="304.816797" y="43.622397" style="fill: #4169e1; stroke: #4169e1"/>
     <use xlink:href="#m52b6a5a53e" x="321.77983" y="247.417434" style="fill: #4169e1; stroke: #4169e1"/>
     <use xlink:href="#m52b6a5a53e" x="338.742862" y="58.474943" style="fill: #4169e1; stroke: #4169e1"/>
     <use xlink:href="#m52b6a5a53e" x="355.705895" y="33.951673" style="fill: #4169e1; stroke: #4169e1"/>
     <use xlink:href="#m52b6a5a53e" x="372.668927" y="275.490399" style="fill: #4169e1; stroke: #4169e1"/>
     <use xlink:href="#m52b6a5a53e" x="389.63196" y="286.317727" style="fill: #4169e1; stroke: #4169e1"/>
     <use xlink:href="#m52b6a5a53e" x="406.594992" y="252.633472" style="fill: #4169e1; stroke: #4169e1"/>
     <use xlink:href="#m52b6a5a53e" x="423.558025" y="149.34541" style="fill: #4169e1; stroke: #4169e1"/>
     <use xlink:href="#m52b6a5a53e" x="440.521057" y="261.919444" style="fill: #4169e1; stroke: #4169e1"/>
    </g>
   </g>
   <g id="patch_8">
    <path d="M 279.901495 298.93603 
L 279.901495 21.33337 
" style="fill: none; stroke: #000000; stroke-width: 0.8; stroke-linejoin: miter; stroke-linecap: square"/>
   </g>
   <g id="patch_9">
    <path d="M 450 298.93603 
L 450 21.33337 
" style="fill: none; stroke: #000000; stroke-width: 0.8; stroke-linejoin: miter; stroke-linecap: square"/>
   </g>
   <g id="patch_10">
    <path d="M 279.901495 298.93603 
L 450 298.93603 
" style="fill: none; stroke: #000000; stroke-width: 0.8; stroke-linejoin: miter; stroke-linecap: square"/>
   </g>
   <g id="patch_11">
    <path d="M 279.901495 21.33337 
L 450 21.33337 
" style="fill: none; stroke: #000000; stroke-width: 0.8; stroke-linejoin: miter; stroke-linecap: square"/>
   </g>
  </g>
 </g>
 <defs>
  <clipPath id="pb291ab2588">
   <rect x="50.5618" y="21.33337" width="170.098505" height="277.60266"/>
  </clipPath>
  <clipPath id="p6ae6342515">
   <rect x="279.901495" y="21.33337" width="170.098505" height="277.60266"/>
  </clipPath>
 </defs>
</svg>
