<?xml version="1.0" encoding="utf-8" standalone="no"?>
<!DOCTYPE svg PUBLIC "-//W3C//DTD SVG 1.1//EN"
  "http://www.w3.org/Graphics/SVG/1.1/DTD/svg11.dtd">
<svg xmlns:xlink="http://www.w3.org/1999/xlink" width="460.8pt" height="345.6pt" viewBox="0 0 460.8 345.6" xmlns="http://www.w3.org/2000/svg" version="1.1">
 <metadata>
  <rdf:RDF xmlns:dc="http://purl.org/dc/elements/1.1/" xmlns:cc="http://creativecommons.org/ns#" xmlns:rdf="http://www.w3.org/1999/02/22-rdf-syntax-ns#">
   <cc:Work>
    <dc:type rdf:resource="http://purl.org/dc/dcmitype/StillImage"/>
    <dc:date>2022-05-21T14:32:44.590819</dc:date>
    <dc:format>image/svg+xml</dc:format>
    <dc:creator>
     <cc:Agent>
      <dc:title>Matplotlib v3.5.1, https://matplotlib.org/</dc:title>
     </cc:Agent>
    </dc:creator>
   </cc:Work>
  </rdf:RDF>
 </metadata>
 <defs>
  <style type="text/css">*{stroke-linejoin: round; stroke-linecap: butt}</style>
 </defs>
 <g id="figure_1">
  <g id="patch_1">
   <path d="M 0 345.6 
L 460.8 345.6 
L 460.8 0 
L 0 0 
z
" style="fill: #ffffff"/>
  </g>
  <g id="axes_1">
   <g id="patch_2">
    <path d="M 68.04119 298.92005 
L 450 298.92005 
L 450 10.8 
L 68.04119 10.8 
z
" style="fill: #ffffff"/>
   </g>
   <g id="matplotlib.axis_1">
    <g id="xtick_1">
     <g id="line2d_1">
      <defs>
       <path id="mb03e4ad3b0" d="M 0 0 
L 0 3.5 
" style="stroke: #000000; stroke-width: 0.8"/>
      </defs>
      <g>
       <use xlink:href="#mb03e4ad3b0" x="109.548454" y="298.92005" style="stroke: #000000; stroke-width: 0.8"/>
      </g>
     </g>
     <g id="text_1">
      <!-- $\mathdefault{0.06}$ -->
      <g transform="translate(100.692747 312.838548)scale(0.1 -0.1)">
       <defs>
        <path id="CMR17-30" d="M 2688 2025 
C 2688 2416 2682 3080 2413 3591 
C 2176 4039 1798 4198 1466 4198 
C 1158 4198 768 4058 525 3597 
C 269 3118 243 2524 243 2025 
C 243 1661 250 1106 448 619 
C 723 -39 1216 -128 1466 -128 
C 1760 -128 2208 -7 2470 600 
C 2662 1042 2688 1559 2688 2025 
z
M 1466 -26 
C 1056 -26 813 325 723 812 
C 653 1188 653 1738 653 2096 
C 653 2588 653 2997 736 3387 
C 858 3929 1216 4096 1466 4096 
C 1728 4096 2067 3923 2189 3400 
C 2272 3036 2278 2607 2278 2096 
C 2278 1680 2278 1169 2202 792 
C 2067 95 1690 -26 1466 -26 
z
" transform="scale(0.015625)"/>
        <path id="CMMI12-3a" d="M 1178 307 
C 1178 492 1024 619 870 619 
C 685 619 557 466 557 313 
C 557 128 710 0 864 0 
C 1050 0 1178 153 1178 307 
z
" transform="scale(0.015625)"/>
        <path id="CMR17-36" d="M 678 2176 
C 678 3690 1395 4032 1811 4032 
C 1946 4032 2272 4009 2400 3776 
C 2298 3776 2106 3776 2106 3553 
C 2106 3381 2246 3323 2336 3323 
C 2394 3323 2566 3348 2566 3560 
C 2566 3954 2246 4179 1805 4179 
C 1043 4179 243 3390 243 1984 
C 243 253 966 -128 1478 -128 
C 2099 -128 2688 427 2688 1283 
C 2688 2081 2170 2662 1517 2662 
C 1126 2662 838 2407 678 1960 
L 678 2176 
z
M 1478 25 
C 691 25 691 1200 691 1436 
C 691 1896 909 2560 1504 2560 
C 1613 2560 1926 2560 2138 2120 
C 2253 1870 2253 1609 2253 1289 
C 2253 944 2253 690 2118 434 
C 1978 171 1773 25 1478 25 
z
" transform="scale(0.015625)"/>
       </defs>
       <use xlink:href="#CMR17-30" transform="scale(0.996264)"/>
       <use xlink:href="#CMMI12-3a" transform="translate(45.690477 0)scale(0.996264)"/>
       <use xlink:href="#CMR17-30" transform="translate(72.787654 0)scale(0.996264)"/>
       <use xlink:href="#CMR17-36" transform="translate(118.478131 0)scale(0.996264)"/>
      </g>
     </g>
    </g>
    <g id="xtick_2">
     <g id="line2d_2">
      <g>
       <use xlink:href="#mb03e4ad3b0" x="155.539882" y="298.92005" style="stroke: #000000; stroke-width: 0.8"/>
      </g>
     </g>
     <g id="text_2">
      <!-- $\mathdefault{0.08}$ -->
      <g transform="translate(146.684175 312.838548)scale(0.1 -0.1)">
       <defs>
        <path id="CMR17-38" d="M 1741 2264 
C 2144 2467 2554 2773 2554 3263 
C 2554 3841 1990 4179 1472 4179 
C 890 4179 378 3759 378 3180 
C 378 3021 416 2747 666 2505 
C 730 2442 998 2251 1171 2130 
C 883 1983 211 1634 211 934 
C 211 279 838 -128 1459 -128 
C 2144 -128 2720 362 2720 1010 
C 2720 1590 2330 1857 2074 2029 
L 1741 2264 
z
M 902 2822 
C 851 2854 595 3051 595 3351 
C 595 3739 998 4032 1459 4032 
C 1965 4032 2336 3676 2336 3262 
C 2336 2669 1670 2331 1638 2331 
C 1632 2331 1626 2331 1574 2370 
L 902 2822 
z
M 2080 1519 
C 2176 1449 2483 1240 2483 851 
C 2483 381 2010 25 1472 25 
C 890 25 448 438 448 940 
C 448 1443 838 1862 1280 2060 
L 2080 1519 
z
" transform="scale(0.015625)"/>
       </defs>
       <use xlink:href="#CMR17-30" transform="scale(0.996264)"/>
       <use xlink:href="#CMMI12-3a" transform="translate(45.690477 0)scale(0.996264)"/>
       <use xlink:href="#CMR17-30" transform="translate(72.787654 0)scale(0.996264)"/>
       <use xlink:href="#CMR17-38" transform="translate(118.478131 0)scale(0.996264)"/>
      </g>
     </g>
    </g>
    <g id="xtick_3">
     <g id="line2d_3">
      <g>
       <use xlink:href="#mb03e4ad3b0" x="201.53131" y="298.92005" style="stroke: #000000; stroke-width: 0.8"/>
      </g>
     </g>
     <g id="text_3">
      <!-- $\mathdefault{0.10}$ -->
      <g transform="translate(192.675603 312.838548)scale(0.1 -0.1)">
       <defs>
        <path id="CMR17-31" d="M 1702 4058 
C 1702 4192 1696 4192 1606 4192 
C 1357 3916 979 3827 621 3827 
C 602 3827 570 3827 563 3808 
C 557 3795 557 3782 557 3648 
C 755 3648 1088 3686 1344 3839 
L 1344 461 
C 1344 236 1331 160 781 160 
L 589 160 
L 589 0 
C 896 0 1216 0 1523 0 
C 1830 0 2150 0 2458 0 
L 2458 160 
L 2266 160 
C 1715 160 1702 230 1702 458 
L 1702 4058 
z
" transform="scale(0.015625)"/>
       </defs>
       <use xlink:href="#CMR17-30" transform="scale(0.996264)"/>
       <use xlink:href="#CMMI12-3a" transform="translate(45.690477 0)scale(0.996264)"/>
       <use xlink:href="#CMR17-31" transform="translate(72.787654 0)scale(0.996264)"/>
       <use xlink:href="#CMR17-30" transform="translate(118.478131 0)scale(0.996264)"/>
      </g>
     </g>
    </g>
    <g id="xtick_4">
     <g id="line2d_4">
      <g>
       <use xlink:href="#mb03e4ad3b0" x="247.522738" y="298.92005" style="stroke: #000000; stroke-width: 0.8"/>
      </g>
     </g>
     <g id="text_4">
      <!-- $\mathdefault{0.12}$ -->
      <g transform="translate(238.667031 312.838548)scale(0.1 -0.1)">
       <defs>
        <path id="CMR17-32" d="M 2669 989 
L 2554 989 
C 2490 536 2438 459 2413 420 
C 2381 369 1920 369 1830 369 
L 602 369 
C 832 619 1280 1072 1824 1597 
C 2214 1967 2669 2402 2669 3035 
C 2669 3790 2067 4224 1395 4224 
C 691 4224 262 3604 262 3030 
C 262 2780 448 2748 525 2748 
C 589 2748 781 2787 781 3010 
C 781 3207 614 3264 525 3264 
C 486 3264 448 3258 422 3245 
C 544 3790 915 4058 1306 4058 
C 1862 4058 2227 3617 2227 3035 
C 2227 2479 1901 2000 1536 1584 
L 262 146 
L 262 0 
L 2515 0 
L 2669 989 
z
" transform="scale(0.015625)"/>
       </defs>
       <use xlink:href="#CMR17-30" transform="scale(0.996264)"/>
       <use xlink:href="#CMMI12-3a" transform="translate(45.690477 0)scale(0.996264)"/>
       <use xlink:href="#CMR17-31" transform="translate(72.787654 0)scale(0.996264)"/>
       <use xlink:href="#CMR17-32" transform="translate(118.478131 0)scale(0.996264)"/>
      </g>
     </g>
    </g>
    <g id="xtick_5">
     <g id="line2d_5">
      <g>
       <use xlink:href="#mb03e4ad3b0" x="293.514166" y="298.92005" style="stroke: #000000; stroke-width: 0.8"/>
      </g>
     </g>
     <g id="text_5">
      <!-- $\mathdefault{0.14}$ -->
      <g transform="translate(284.658459 312.838548)scale(0.1 -0.1)">
       <defs>
        <path id="CMR17-34" d="M 2150 4122 
C 2150 4256 2144 4256 2029 4256 
L 128 1254 
L 128 1088 
L 1779 1088 
L 1779 457 
C 1779 224 1766 160 1318 160 
L 1197 160 
L 1197 0 
C 1402 0 1747 0 1965 0 
C 2182 0 2528 0 2733 0 
L 2733 160 
L 2611 160 
C 2163 160 2150 224 2150 457 
L 2150 1088 
L 2803 1088 
L 2803 1254 
L 2150 1254 
L 2150 4122 
z
M 1798 3703 
L 1798 1254 
L 256 1254 
L 1798 3703 
z
" transform="scale(0.015625)"/>
       </defs>
       <use xlink:href="#CMR17-30" transform="scale(0.996264)"/>
       <use xlink:href="#CMMI12-3a" transform="translate(45.690477 0)scale(0.996264)"/>
       <use xlink:href="#CMR17-31" transform="translate(72.787654 0)scale(0.996264)"/>
       <use xlink:href="#CMR17-34" transform="translate(118.478131 0)scale(0.996264)"/>
      </g>
     </g>
    </g>
    <g id="xtick_6">
     <g id="line2d_6">
      <g>
       <use xlink:href="#mb03e4ad3b0" x="339.505594" y="298.92005" style="stroke: #000000; stroke-width: 0.8"/>
      </g>
     </g>
     <g id="text_6">
      <!-- $\mathdefault{0.16}$ -->
      <g transform="translate(330.649887 312.838548)scale(0.1 -0.1)">
       <use xlink:href="#CMR17-30" transform="scale(0.996264)"/>
       <use xlink:href="#CMMI12-3a" transform="translate(45.690477 0)scale(0.996264)"/>
       <use xlink:href="#CMR17-31" transform="translate(72.787654 0)scale(0.996264)"/>
       <use xlink:href="#CMR17-36" transform="translate(118.478131 0)scale(0.996264)"/>
      </g>
     </g>
    </g>
    <g id="xtick_7">
     <g id="line2d_7">
      <g>
       <use xlink:href="#mb03e4ad3b0" x="385.497022" y="298.92005" style="stroke: #000000; stroke-width: 0.8"/>
      </g>
     </g>
     <g id="text_7">
      <!-- $\mathdefault{0.18}$ -->
      <g transform="translate(376.641315 312.838548)scale(0.1 -0.1)">
       <use xlink:href="#CMR17-30" transform="scale(0.996264)"/>
       <use xlink:href="#CMMI12-3a" transform="translate(45.690477 0)scale(0.996264)"/>
       <use xlink:href="#CMR17-31" transform="translate(72.787654 0)scale(0.996264)"/>
       <use xlink:href="#CMR17-38" transform="translate(118.478131 0)scale(0.996264)"/>
      </g>
     </g>
    </g>
    <g id="xtick_8">
     <g id="line2d_8">
      <g>
       <use xlink:href="#mb03e4ad3b0" x="431.48845" y="298.92005" style="stroke: #000000; stroke-width: 0.8"/>
      </g>
     </g>
     <g id="text_8">
      <!-- $\mathdefault{0.20}$ -->
      <g transform="translate(422.632743 312.838548)scale(0.1 -0.1)">
       <use xlink:href="#CMR17-30" transform="scale(0.996264)"/>
       <use xlink:href="#CMMI12-3a" transform="translate(45.690477 0)scale(0.996264)"/>
       <use xlink:href="#CMR17-32" transform="translate(72.787654 0)scale(0.996264)"/>
       <use xlink:href="#CMR17-30" transform="translate(118.478131 0)scale(0.996264)"/>
      </g>
     </g>
    </g>
    <g id="text_9">
     <!-- $h$ (m) -->
     <g transform="translate(239.353806 330.730895)scale(0.16 -0.16)">
      <defs>
       <path id="CMMI12-68" d="M 1798 4257 
C 1805 4283 1818 4321 1818 4352 
C 1818 4416 1754 4416 1741 4416 
C 1734 4416 1421 4388 1389 4380 
C 1280 4373 1184 4358 1069 4358 
C 909 4345 864 4339 864 4224 
C 864 4160 915 4160 1005 4160 
C 1318 4160 1325 4103 1325 4040 
C 1325 4002 1312 3951 1306 3932 
L 378 248 
C 352 152 352 140 352 101 
C 352 -38 461 -64 525 -64 
C 634 -64 717 19 749 89 
L 1037 1245 
C 1069 1386 1107 1520 1139 1660 
C 1210 1929 1210 1935 1331 2120 
C 1453 2305 1741 2689 2234 2689 
C 2490 2689 2579 2497 2579 2242 
C 2579 1884 2330 1188 2189 805 
C 2131 651 2099 568 2099 453 
C 2099 166 2298 -64 2605 -64 
C 3200 -64 3424 875 3424 913 
C 3424 945 3398 971 3360 971 
C 3302 971 3296 952 3264 843 
C 3117 332 2880 64 2624 64 
C 2560 64 2458 64 2458 269 
C 2458 436 2534 640 2560 710 
C 2675 1018 2963 1773 2963 2145 
C 2963 2528 2739 2816 2253 2816 
C 1888 2816 1568 2644 1306 2312 
L 1798 4257 
z
" transform="scale(0.015625)"/>
       <path id="CMR17-28" d="M 1958 -1561 
C 1958 -1555 1958 -1542 1939 -1523 
C 1645 -1224 858 -407 858 1581 
C 858 3569 1632 4379 1946 4697 
C 1946 4704 1958 4717 1958 4736 
C 1958 4755 1939 4768 1914 4768 
C 1843 4768 1299 4296 986 3594 
C 666 2887 576 2199 576 1588 
C 576 1128 621 351 1005 -471 
C 1312 -1135 1837 -1600 1914 -1600 
C 1946 -1600 1958 -1587 1958 -1561 
z
" transform="scale(0.015625)"/>
       <path id="CMR17-6d" d="M 4326 1933 
C 4326 2252 4269 2790 3507 2790 
C 3072 2790 2771 2496 2656 2151 
L 2650 2151 
C 2573 2676 2195 2790 1837 2790 
C 1331 2790 1069 2400 973 2144 
L 966 2144 
L 966 2790 
L 211 2720 
L 211 2554 
C 589 2554 646 2515 646 2208 
L 646 428 
C 646 184 621 153 211 153 
L 211 -13 
C 365 0 646 0 813 0 
C 979 0 1267 0 1421 -13 
L 1421 153 
C 1011 153 986 178 986 428 
L 986 1658 
C 986 2247 1344 2688 1792 2688 
C 2266 2688 2317 2266 2317 1958 
L 2317 428 
C 2317 184 2291 153 1882 153 
L 1882 -13 
C 2035 0 2317 0 2483 0 
C 2650 0 2938 0 3091 -13 
L 3091 153 
C 2682 153 2656 178 2656 428 
L 2656 1658 
C 2656 2247 3014 2688 3462 2688 
C 3936 2688 3987 2266 3987 1958 
L 3987 428 
C 3987 184 3962 153 3552 153 
L 3552 -13 
C 3706 0 3987 0 4154 0 
C 4320 0 4608 0 4762 -13 
L 4762 153 
C 4352 153 4326 178 4326 428 
L 4326 1933 
z
" transform="scale(0.015625)"/>
       <path id="CMR17-29" d="M 1683 1581 
C 1683 2040 1638 2817 1254 3639 
C 947 4303 422 4768 346 4768 
C 326 4768 301 4761 301 4729 
C 301 4717 307 4710 314 4697 
C 621 4378 1402 3568 1402 1584 
C 1402 -407 627 -1217 314 -1537 
C 307 -1549 301 -1556 301 -1568 
C 301 -1600 326 -1600 346 -1600 
C 416 -1600 960 -1128 1274 -426 
C 1594 281 1683 969 1683 1581 
z
" transform="scale(0.015625)"/>
      </defs>
      <use xlink:href="#CMMI12-68" transform="scale(0.996264)"/>
      <use xlink:href="#CMR17-28" transform="translate(86.23059 0)scale(0.996264)"/>
      <use xlink:href="#CMR17-6d" transform="translate(121.511358 0)scale(0.996264)"/>
      <use xlink:href="#CMR17-29" transform="translate(198.430948 0)scale(0.996264)"/>
     </g>
    </g>
   </g>
   <g id="matplotlib.axis_2">
    <g id="ytick_1">
     <g id="line2d_9">
      <defs>
       <path id="m0b04d51a8b" d="M 0 0 
L -3.5 0 
" style="stroke: #000000; stroke-width: 0.8"/>
      </defs>
      <g>
       <use xlink:href="#m0b04d51a8b" x="68.04119" y="269.282693" style="stroke: #000000; stroke-width: 0.8"/>
      </g>
     </g>
     <g id="text_10">
      <!-- $\mathdefault{0.0010}$ -->
      <g transform="translate(33.367105 272.741942)scale(0.1 -0.1)">
       <use xlink:href="#CMR17-30" transform="scale(0.996264)"/>
       <use xlink:href="#CMMI12-3a" transform="translate(45.690477 0)scale(0.996264)"/>
       <use xlink:href="#CMR17-30" transform="translate(72.787654 0)scale(0.996264)"/>
       <use xlink:href="#CMR17-30" transform="translate(118.478131 0)scale(0.996264)"/>
       <use xlink:href="#CMR17-31" transform="translate(164.168608 0)scale(0.996264)"/>
       <use xlink:href="#CMR17-30" transform="translate(209.859086 0)scale(0.996264)"/>
      </g>
     </g>
    </g>
    <g id="ytick_2">
     <g id="line2d_10">
      <g>
       <use xlink:href="#m0b04d51a8b" x="68.04119" y="211.550163" style="stroke: #000000; stroke-width: 0.8"/>
      </g>
     </g>
     <g id="text_11">
      <!-- $\mathdefault{0.0012}$ -->
      <g transform="translate(33.367105 215.009412)scale(0.1 -0.1)">
       <use xlink:href="#CMR17-30" transform="scale(0.996264)"/>
       <use xlink:href="#CMMI12-3a" transform="translate(45.690477 0)scale(0.996264)"/>
       <use xlink:href="#CMR17-30" transform="translate(72.787654 0)scale(0.996264)"/>
       <use xlink:href="#CMR17-30" transform="translate(118.478131 0)scale(0.996264)"/>
       <use xlink:href="#CMR17-31" transform="translate(164.168608 0)scale(0.996264)"/>
       <use xlink:href="#CMR17-32" transform="translate(209.859086 0)scale(0.996264)"/>
      </g>
     </g>
    </g>
    <g id="ytick_3">
     <g id="line2d_11">
      <g>
       <use xlink:href="#m0b04d51a8b" x="68.04119" y="153.817633" style="stroke: #000000; stroke-width: 0.8"/>
      </g>
     </g>
     <g id="text_12">
      <!-- $\mathdefault{0.0014}$ -->
      <g transform="translate(33.367105 157.276882)scale(0.1 -0.1)">
       <use xlink:href="#CMR17-30" transform="scale(0.996264)"/>
       <use xlink:href="#CMMI12-3a" transform="translate(45.690477 0)scale(0.996264)"/>
       <use xlink:href="#CMR17-30" transform="translate(72.787654 0)scale(0.996264)"/>
       <use xlink:href="#CMR17-30" transform="translate(118.478131 0)scale(0.996264)"/>
       <use xlink:href="#CMR17-31" transform="translate(164.168608 0)scale(0.996264)"/>
       <use xlink:href="#CMR17-34" transform="translate(209.859086 0)scale(0.996264)"/>
      </g>
     </g>
    </g>
    <g id="ytick_4">
     <g id="line2d_12">
      <g>
       <use xlink:href="#m0b04d51a8b" x="68.04119" y="96.085103" style="stroke: #000000; stroke-width: 0.8"/>
      </g>
     </g>
     <g id="text_13">
      <!-- $\mathdefault{0.0016}$ -->
      <g transform="translate(33.367105 99.544353)scale(0.1 -0.1)">
       <use xlink:href="#CMR17-30" transform="scale(0.996264)"/>
       <use xlink:href="#CMMI12-3a" transform="translate(45.690477 0)scale(0.996264)"/>
       <use xlink:href="#CMR17-30" transform="translate(72.787654 0)scale(0.996264)"/>
       <use xlink:href="#CMR17-30" transform="translate(118.478131 0)scale(0.996264)"/>
       <use xlink:href="#CMR17-31" transform="translate(164.168608 0)scale(0.996264)"/>
       <use xlink:href="#CMR17-36" transform="translate(209.859086 0)scale(0.996264)"/>
      </g>
     </g>
    </g>
    <g id="ytick_5">
     <g id="line2d_13">
      <g>
       <use xlink:href="#m0b04d51a8b" x="68.04119" y="38.352574" style="stroke: #000000; stroke-width: 0.8"/>
      </g>
     </g>
     <g id="text_14">
      <!-- $\mathdefault{0.0018}$ -->
      <g transform="translate(33.367105 41.811823)scale(0.1 -0.1)">
       <use xlink:href="#CMR17-30" transform="scale(0.996264)"/>
       <use xlink:href="#CMMI12-3a" transform="translate(45.690477 0)scale(0.996264)"/>
       <use xlink:href="#CMR17-30" transform="translate(72.787654 0)scale(0.996264)"/>
       <use xlink:href="#CMR17-30" transform="translate(118.478131 0)scale(0.996264)"/>
       <use xlink:href="#CMR17-31" transform="translate(164.168608 0)scale(0.996264)"/>
       <use xlink:href="#CMR17-38" transform="translate(209.859086 0)scale(0.996264)"/>
      </g>
     </g>
    </g>
    <g id="text_15">
     <!-- $k^{2}_{33}$ -->
     <g transform="translate(25.410537 164.497909)rotate(-90)scale(0.16 -0.16)">
      <defs>
       <path id="CMMI12-6b" d="M 1798 4257 
C 1805 4283 1818 4321 1818 4352 
C 1818 4416 1754 4416 1741 4416 
C 1734 4416 1504 4393 1389 4377 
C 1280 4377 1184 4358 1069 4358 
C 915 4345 870 4339 870 4224 
C 870 4160 934 4160 998 4160 
C 1325 4160 1325 4103 1325 4040 
C 1325 4015 1325 4002 1293 3888 
L 378 248 
C 352 152 352 140 352 101 
C 352 -38 461 -64 525 -64 
C 704 -64 742 77 794 275 
L 1094 1469 
C 1555 1418 1830 1226 1830 920 
C 1830 881 1830 856 1811 760 
C 1786 664 1786 588 1786 556 
C 1786 185 2029 -64 2355 -64 
C 2650 -64 2803 204 2854 294 
C 2989 530 3072 888 3072 913 
C 3072 945 3046 971 3008 971 
C 2950 971 2944 945 2918 843 
C 2829 511 2694 64 2368 64 
C 2240 64 2157 128 2157 370 
C 2157 492 2182 632 2208 728 
C 2234 843 2234 849 2234 926 
C 2234 1303 1894 1514 1306 1590 
C 1536 1731 1766 1980 1856 2076 
C 2221 2484 2470 2689 2765 2689 
C 2912 2689 2950 2650 2995 2612 
C 2758 2586 2669 2420 2669 2293 
C 2669 2139 2790 2088 2880 2088 
C 3053 2088 3206 2235 3206 2440 
C 3206 2625 3059 2816 2771 2816 
C 2419 2816 2131 2567 1677 2056 
C 1613 1980 1376 1737 1139 1648 
L 1798 4257 
z
" transform="scale(0.015625)"/>
       <path id="CMR17-33" d="M 1414 2157 
C 1984 2157 2234 1662 2234 1090 
C 2234 320 1824 25 1453 25 
C 1114 25 563 194 390 693 
C 422 680 454 680 486 680 
C 640 680 755 782 755 948 
C 755 1133 614 1216 486 1216 
C 378 1216 211 1165 211 926 
C 211 335 787 -128 1466 -128 
C 2176 -128 2720 430 2720 1085 
C 2720 1707 2208 2157 1600 2227 
C 2086 2328 2554 2756 2554 3329 
C 2554 3820 2048 4179 1472 4179 
C 890 4179 378 3829 378 3329 
C 378 3110 544 3072 627 3072 
C 762 3072 877 3155 877 3321 
C 877 3486 762 3569 627 3569 
C 602 3569 570 3569 544 3557 
C 730 3959 1235 4032 1459 4032 
C 1683 4032 2106 3925 2106 3320 
C 2106 3143 2080 2828 1862 2550 
C 1670 2304 1453 2304 1242 2284 
C 1210 2284 1062 2269 1037 2269 
C 992 2263 966 2257 966 2208 
C 966 2163 973 2157 1101 2157 
L 1414 2157 
z
" transform="scale(0.015625)"/>
      </defs>
      <use xlink:href="#CMMI12-6b" transform="scale(0.996264)"/>
      <use xlink:href="#CMR17-32" transform="translate(54.079201 36.153639)scale(0.697382)"/>
      <use xlink:href="#CMR17-33" transform="translate(50.735189 -24.740171)scale(0.697382)"/>
      <use xlink:href="#CMR17-33" transform="translate(82.718371 -24.740171)scale(0.697382)"/>
     </g>
    </g>
   </g>
   <g id="LineCollection_1">
    <path d="M 85.402954 23.896366 
L 87.702525 23.896366 
" clip-path="url(#p958fb0294a)" style="fill: none; stroke: #b22222; stroke-width: 1.5"/>
    <path d="M 85.402954 88.760409 
L 87.702525 88.760409 
" clip-path="url(#p958fb0294a)" style="fill: none; stroke: #b22222; stroke-width: 1.5"/>
    <path d="M 85.402954 171.862094 
L 87.702525 171.862094 
" clip-path="url(#p958fb0294a)" style="fill: none; stroke: #b22222; stroke-width: 1.5"/>
    <path d="M 85.402954 129.734423 
L 87.702525 129.734423 
" clip-path="url(#p958fb0294a)" style="fill: none; stroke: #b22222; stroke-width: 1.5"/>
    <path d="M 85.402954 141.575888 
L 87.702525 141.575888 
" clip-path="url(#p958fb0294a)" style="fill: none; stroke: #b22222; stroke-width: 1.5"/>
    <path d="M 85.402954 140.973779 
L 87.702525 140.973779 
" clip-path="url(#p958fb0294a)" style="fill: none; stroke: #b22222; stroke-width: 1.5"/>
    <path d="M 85.402954 147.508111 
L 87.702525 147.508111 
" clip-path="url(#p958fb0294a)" style="fill: none; stroke: #b22222; stroke-width: 1.5"/>
    <path d="M 85.402954 110.829291 
L 87.702525 110.829291 
" clip-path="url(#p958fb0294a)" style="fill: none; stroke: #b22222; stroke-width: 1.5"/>
    <path d="M 85.402954 162.554693 
L 87.702525 162.554693 
" clip-path="url(#p958fb0294a)" style="fill: none; stroke: #b22222; stroke-width: 1.5"/>
    <path d="M 85.402954 146.855444 
L 87.702525 146.855444 
" clip-path="url(#p958fb0294a)" style="fill: none; stroke: #b22222; stroke-width: 1.5"/>
    <path d="M 200.381524 162.912907 
L 202.681096 162.912907 
" clip-path="url(#p958fb0294a)" style="fill: none; stroke: #b22222; stroke-width: 1.5"/>
    <path d="M 200.381524 213.729874 
L 202.681096 213.729874 
" clip-path="url(#p958fb0294a)" style="fill: none; stroke: #b22222; stroke-width: 1.5"/>
    <path d="M 200.381524 138.653158 
L 202.681096 138.653158 
" clip-path="url(#p958fb0294a)" style="fill: none; stroke: #b22222; stroke-width: 1.5"/>
    <path d="M 200.381524 170.988304 
L 202.681096 170.988304 
" clip-path="url(#p958fb0294a)" style="fill: none; stroke: #b22222; stroke-width: 1.5"/>
    <path d="M 200.381524 154.20604 
L 202.681096 154.20604 
" clip-path="url(#p958fb0294a)" style="fill: none; stroke: #b22222; stroke-width: 1.5"/>
    <path d="M 200.381524 171.121093 
L 202.681096 171.121093 
" clip-path="url(#p958fb0294a)" style="fill: none; stroke: #b22222; stroke-width: 1.5"/>
    <path d="M 200.381524 68.164768 
L 202.681096 68.164768 
" clip-path="url(#p958fb0294a)" style="fill: none; stroke: #b22222; stroke-width: 1.5"/>
    <path d="M 200.381524 121.192392 
L 202.681096 121.192392 
" clip-path="url(#p958fb0294a)" style="fill: none; stroke: #b22222; stroke-width: 1.5"/>
    <path d="M 200.381524 210.442556 
L 202.681096 210.442556 
" clip-path="url(#p958fb0294a)" style="fill: none; stroke: #b22222; stroke-width: 1.5"/>
    <path d="M 200.381524 109.189364 
L 202.681096 109.189364 
" clip-path="url(#p958fb0294a)" style="fill: none; stroke: #b22222; stroke-width: 1.5"/>
    <path d="M 315.360094 209.309636 
L 317.659666 209.309636 
" clip-path="url(#p958fb0294a)" style="fill: none; stroke: #b22222; stroke-width: 1.5"/>
    <path d="M 315.360094 221.572576 
L 317.659666 221.572576 
" clip-path="url(#p958fb0294a)" style="fill: none; stroke: #b22222; stroke-width: 1.5"/>
    <path d="M 315.360094 157.949445 
L 317.659666 157.949445 
" clip-path="url(#p958fb0294a)" style="fill: none; stroke: #b22222; stroke-width: 1.5"/>
    <path d="M 315.360094 196.581478 
L 317.659666 196.581478 
" clip-path="url(#p958fb0294a)" style="fill: none; stroke: #b22222; stroke-width: 1.5"/>
    <path d="M 315.360094 198.140245 
L 317.659666 198.140245 
" clip-path="url(#p958fb0294a)" style="fill: none; stroke: #b22222; stroke-width: 1.5"/>
    <path d="M 315.360094 242.761835 
L 317.659666 242.761835 
" clip-path="url(#p958fb0294a)" style="fill: none; stroke: #b22222; stroke-width: 1.5"/>
    <path d="M 315.360094 234.357991 
L 317.659666 234.357991 
" clip-path="url(#p958fb0294a)" style="fill: none; stroke: #b22222; stroke-width: 1.5"/>
    <path d="M 315.360094 180.964675 
L 317.659666 180.964675 
" clip-path="url(#p958fb0294a)" style="fill: none; stroke: #b22222; stroke-width: 1.5"/>
    <path d="M 315.360094 285.823684 
L 317.659666 285.823684 
" clip-path="url(#p958fb0294a)" style="fill: none; stroke: #b22222; stroke-width: 1.5"/>
    <path d="M 430.338665 133.781622 
L 432.638236 133.781622 
" clip-path="url(#p958fb0294a)" style="fill: none; stroke: #b22222; stroke-width: 1.5"/>
    <path d="M 430.338665 189.481109 
L 432.638236 189.481109 
" clip-path="url(#p958fb0294a)" style="fill: none; stroke: #b22222; stroke-width: 1.5"/>
    <path d="M 430.338665 139.074741 
L 432.638236 139.074741 
" clip-path="url(#p958fb0294a)" style="fill: none; stroke: #b22222; stroke-width: 1.5"/>
    <path d="M 430.338665 208.568135 
L 432.638236 208.568135 
" clip-path="url(#p958fb0294a)" style="fill: none; stroke: #b22222; stroke-width: 1.5"/>
    <path d="M 430.338665 255.979792 
L 432.638236 255.979792 
" clip-path="url(#p958fb0294a)" style="fill: none; stroke: #b22222; stroke-width: 1.5"/>
    <path d="M 430.338665 143.356042 
L 432.638236 143.356042 
" clip-path="url(#p958fb0294a)" style="fill: none; stroke: #b22222; stroke-width: 1.5"/>
    <path d="M 430.338665 122.011329 
L 432.638236 122.011329 
" clip-path="url(#p958fb0294a)" style="fill: none; stroke: #b22222; stroke-width: 1.5"/>
    <path d="M 430.338665 141.160822 
L 432.638236 141.160822 
" clip-path="url(#p958fb0294a)" style="fill: none; stroke: #b22222; stroke-width: 1.5"/>
    <path d="M 430.338665 156.406347 
L 432.638236 156.406347 
" clip-path="url(#p958fb0294a)" style="fill: none; stroke: #b22222; stroke-width: 1.5"/>
   </g>
   <g id="LineCollection_2">
    <path d="M 86.55274 23.896366 
L 86.55274 23.896366 
" clip-path="url(#p958fb0294a)" style="fill: none; stroke: #b22222; stroke-width: 1.5"/>
    <path d="M 86.55274 88.760409 
L 86.55274 88.760409 
" clip-path="url(#p958fb0294a)" style="fill: none; stroke: #b22222; stroke-width: 1.5"/>
    <path d="M 86.55274 171.862094 
L 86.55274 171.862094 
" clip-path="url(#p958fb0294a)" style="fill: none; stroke: #b22222; stroke-width: 1.5"/>
    <path d="M 86.55274 129.734423 
L 86.55274 129.734423 
" clip-path="url(#p958fb0294a)" style="fill: none; stroke: #b22222; stroke-width: 1.5"/>
    <path d="M 86.55274 141.575888 
L 86.55274 141.575888 
" clip-path="url(#p958fb0294a)" style="fill: none; stroke: #b22222; stroke-width: 1.5"/>
    <path d="M 86.55274 140.973779 
L 86.55274 140.973779 
" clip-path="url(#p958fb0294a)" style="fill: none; stroke: #b22222; stroke-width: 1.5"/>
    <path d="M 86.55274 147.508111 
L 86.55274 147.508111 
" clip-path="url(#p958fb0294a)" style="fill: none; stroke: #b22222; stroke-width: 1.5"/>
    <path d="M 86.55274 110.829291 
L 86.55274 110.829291 
" clip-path="url(#p958fb0294a)" style="fill: none; stroke: #b22222; stroke-width: 1.5"/>
    <path d="M 86.55274 162.554693 
L 86.55274 162.554693 
" clip-path="url(#p958fb0294a)" style="fill: none; stroke: #b22222; stroke-width: 1.5"/>
    <path d="M 86.55274 146.855444 
L 86.55274 146.855444 
" clip-path="url(#p958fb0294a)" style="fill: none; stroke: #b22222; stroke-width: 1.5"/>
    <path d="M 201.53131 162.912907 
L 201.53131 162.912907 
" clip-path="url(#p958fb0294a)" style="fill: none; stroke: #b22222; stroke-width: 1.5"/>
    <path d="M 201.53131 213.729874 
L 201.53131 213.729874 
" clip-path="url(#p958fb0294a)" style="fill: none; stroke: #b22222; stroke-width: 1.5"/>
    <path d="M 201.53131 138.653158 
L 201.53131 138.653158 
" clip-path="url(#p958fb0294a)" style="fill: none; stroke: #b22222; stroke-width: 1.5"/>
    <path d="M 201.53131 170.988304 
L 201.53131 170.988304 
" clip-path="url(#p958fb0294a)" style="fill: none; stroke: #b22222; stroke-width: 1.5"/>
    <path d="M 201.53131 154.20604 
L 201.53131 154.20604 
" clip-path="url(#p958fb0294a)" style="fill: none; stroke: #b22222; stroke-width: 1.5"/>
    <path d="M 201.53131 171.121093 
L 201.53131 171.121093 
" clip-path="url(#p958fb0294a)" style="fill: none; stroke: #b22222; stroke-width: 1.5"/>
    <path d="M 201.53131 68.164768 
L 201.53131 68.164768 
" clip-path="url(#p958fb0294a)" style="fill: none; stroke: #b22222; stroke-width: 1.5"/>
    <path d="M 201.53131 121.192392 
L 201.53131 121.192392 
" clip-path="url(#p958fb0294a)" style="fill: none; stroke: #b22222; stroke-width: 1.5"/>
    <path d="M 201.53131 210.442556 
L 201.53131 210.442556 
" clip-path="url(#p958fb0294a)" style="fill: none; stroke: #b22222; stroke-width: 1.5"/>
    <path d="M 201.53131 109.189364 
L 201.53131 109.189364 
" clip-path="url(#p958fb0294a)" style="fill: none; stroke: #b22222; stroke-width: 1.5"/>
    <path d="M 316.50988 209.309636 
L 316.50988 209.309636 
" clip-path="url(#p958fb0294a)" style="fill: none; stroke: #b22222; stroke-width: 1.5"/>
    <path d="M 316.50988 221.572576 
L 316.50988 221.572576 
" clip-path="url(#p958fb0294a)" style="fill: none; stroke: #b22222; stroke-width: 1.5"/>
    <path d="M 316.50988 157.949445 
L 316.50988 157.949445 
" clip-path="url(#p958fb0294a)" style="fill: none; stroke: #b22222; stroke-width: 1.5"/>
    <path d="M 316.50988 196.581478 
L 316.50988 196.581478 
" clip-path="url(#p958fb0294a)" style="fill: none; stroke: #b22222; stroke-width: 1.5"/>
    <path d="M 316.50988 198.140245 
L 316.50988 198.140245 
" clip-path="url(#p958fb0294a)" style="fill: none; stroke: #b22222; stroke-width: 1.5"/>
    <path d="M 316.50988 242.761835 
L 316.50988 242.761835 
" clip-path="url(#p958fb0294a)" style="fill: none; stroke: #b22222; stroke-width: 1.5"/>
    <path d="M 316.50988 234.357991 
L 316.50988 234.357991 
" clip-path="url(#p958fb0294a)" style="fill: none; stroke: #b22222; stroke-width: 1.5"/>
    <path d="M 316.50988 180.964675 
L 316.50988 180.964675 
" clip-path="url(#p958fb0294a)" style="fill: none; stroke: #b22222; stroke-width: 1.5"/>
    <path d="M 316.50988 285.823684 
L 316.50988 285.823684 
" clip-path="url(#p958fb0294a)" style="fill: none; stroke: #b22222; stroke-width: 1.5"/>
    <path d="M 431.48845 133.781622 
L 431.48845 133.781622 
" clip-path="url(#p958fb0294a)" style="fill: none; stroke: #b22222; stroke-width: 1.5"/>
    <path d="M 431.48845 189.481109 
L 431.48845 189.481109 
" clip-path="url(#p958fb0294a)" style="fill: none; stroke: #b22222; stroke-width: 1.5"/>
    <path d="M 431.48845 139.074741 
L 431.48845 139.074741 
" clip-path="url(#p958fb0294a)" style="fill: none; stroke: #b22222; stroke-width: 1.5"/>
    <path d="M 431.48845 208.568135 
L 431.48845 208.568135 
" clip-path="url(#p958fb0294a)" style="fill: none; stroke: #b22222; stroke-width: 1.5"/>
    <path d="M 431.48845 255.979792 
L 431.48845 255.979792 
" clip-path="url(#p958fb0294a)" style="fill: none; stroke: #b22222; stroke-width: 1.5"/>
    <path d="M 431.48845 143.356042 
L 431.48845 143.356042 
" clip-path="url(#p958fb0294a)" style="fill: none; stroke: #b22222; stroke-width: 1.5"/>
    <path d="M 431.48845 122.011329 
L 431.48845 122.011329 
" clip-path="url(#p958fb0294a)" style="fill: none; stroke: #b22222; stroke-width: 1.5"/>
    <path d="M 431.48845 141.160822 
L 431.48845 141.160822 
" clip-path="url(#p958fb0294a)" style="fill: none; stroke: #b22222; stroke-width: 1.5"/>
    <path d="M 431.48845 156.406347 
L 431.48845 156.406347 
" clip-path="url(#p958fb0294a)" style="fill: none; stroke: #b22222; stroke-width: 1.5"/>
   </g>
   <g id="line2d_14">
    <defs>
     <path id="m5cc3ad4683" d="M -3 0 
L 3 0 
M 0 3 
L 0 -3 
" style="stroke: #4169e1"/>
    </defs>
    <g clip-path="url(#p958fb0294a)">
     <use xlink:href="#m5cc3ad4683" x="86.55274" y="23.896366" style="fill: #4169e1; stroke: #4169e1"/>
     <use xlink:href="#m5cc3ad4683" x="86.55274" y="88.760409" style="fill: #4169e1; stroke: #4169e1"/>
     <use xlink:href="#m5cc3ad4683" x="86.55274" y="171.862094" style="fill: #4169e1; stroke: #4169e1"/>
     <use xlink:href="#m5cc3ad4683" x="86.55274" y="129.734423" style="fill: #4169e1; stroke: #4169e1"/>
     <use xlink:href="#m5cc3ad4683" x="86.55274" y="141.575888" style="fill: #4169e1; stroke: #4169e1"/>
     <use xlink:href="#m5cc3ad4683" x="86.55274" y="140.973779" style="fill: #4169e1; stroke: #4169e1"/>
     <use xlink:href="#m5cc3ad4683" x="86.55274" y="147.508111" style="fill: #4169e1; stroke: #4169e1"/>
     <use xlink:href="#m5cc3ad4683" x="86.55274" y="110.829291" style="fill: #4169e1; stroke: #4169e1"/>
     <use xlink:href="#m5cc3ad4683" x="86.55274" y="162.554693" style="fill: #4169e1; stroke: #4169e1"/>
     <use xlink:href="#m5cc3ad4683" x="86.55274" y="146.855444" style="fill: #4169e1; stroke: #4169e1"/>
     <use xlink:href="#m5cc3ad4683" x="201.53131" y="162.912907" style="fill: #4169e1; stroke: #4169e1"/>
     <use xlink:href="#m5cc3ad4683" x="201.53131" y="213.729874" style="fill: #4169e1; stroke: #4169e1"/>
     <use xlink:href="#m5cc3ad4683" x="201.53131" y="138.653158" style="fill: #4169e1; stroke: #4169e1"/>
     <use xlink:href="#m5cc3ad4683" x="201.53131" y="170.988304" style="fill: #4169e1; stroke: #4169e1"/>
     <use xlink:href="#m5cc3ad4683" x="201.53131" y="154.20604" style="fill: #4169e1; stroke: #4169e1"/>
     <use xlink:href="#m5cc3ad4683" x="201.53131" y="171.121093" style="fill: #4169e1; stroke: #4169e1"/>
     <use xlink:href="#m5cc3ad4683" x="201.53131" y="68.164768" style="fill: #4169e1; stroke: #4169e1"/>
     <use xlink:href="#m5cc3ad4683" x="201.53131" y="121.192392" style="fill: #4169e1; stroke: #4169e1"/>
     <use xlink:href="#m5cc3ad4683" x="201.53131" y="210.442556" style="fill: #4169e1; stroke: #4169e1"/>
     <use xlink:href="#m5cc3ad4683" x="201.53131" y="109.189364" style="fill: #4169e1; stroke: #4169e1"/>
     <use xlink:href="#m5cc3ad4683" x="316.50988" y="209.309636" style="fill: #4169e1; stroke: #4169e1"/>
     <use xlink:href="#m5cc3ad4683" x="316.50988" y="221.572576" style="fill: #4169e1; stroke: #4169e1"/>
     <use xlink:href="#m5cc3ad4683" x="316.50988" y="157.949445" style="fill: #4169e1; stroke: #4169e1"/>
     <use xlink:href="#m5cc3ad4683" x="316.50988" y="196.581478" style="fill: #4169e1; stroke: #4169e1"/>
     <use xlink:href="#m5cc3ad4683" x="316.50988" y="198.140245" style="fill: #4169e1; stroke: #4169e1"/>
     <use xlink:href="#m5cc3ad4683" x="316.50988" y="242.761835" style="fill: #4169e1; stroke: #4169e1"/>
     <use xlink:href="#m5cc3ad4683" x="316.50988" y="234.357991" style="fill: #4169e1; stroke: #4169e1"/>
     <use xlink:href="#m5cc3ad4683" x="316.50988" y="180.964675" style="fill: #4169e1; stroke: #4169e1"/>
     <use xlink:href="#m5cc3ad4683" x="316.50988" y="285.823684" style="fill: #4169e1; stroke: #4169e1"/>
     <use xlink:href="#m5cc3ad4683" x="431.48845" y="133.781622" style="fill: #4169e1; stroke: #4169e1"/>
     <use xlink:href="#m5cc3ad4683" x="431.48845" y="189.481109" style="fill: #4169e1; stroke: #4169e1"/>
     <use xlink:href="#m5cc3ad4683" x="431.48845" y="139.074741" style="fill: #4169e1; stroke: #4169e1"/>
     <use xlink:href="#m5cc3ad4683" x="431.48845" y="208.568135" style="fill: #4169e1; stroke: #4169e1"/>
     <use xlink:href="#m5cc3ad4683" x="431.48845" y="255.979792" style="fill: #4169e1; stroke: #4169e1"/>
     <use xlink:href="#m5cc3ad4683" x="431.48845" y="143.356042" style="fill: #4169e1; stroke: #4169e1"/>
     <use xlink:href="#m5cc3ad4683" x="431.48845" y="122.011329" style="fill: #4169e1; stroke: #4169e1"/>
     <use xlink:href="#m5cc3ad4683" x="431.48845" y="141.160822" style="fill: #4169e1; stroke: #4169e1"/>
     <use xlink:href="#m5cc3ad4683" x="431.48845" y="156.406347" style="fill: #4169e1; stroke: #4169e1"/>
    </g>
   </g>
   <g id="patch_3">
    <path d="M 68.04119 298.92005 
L 68.04119 10.8 
" style="fill: none; stroke: #000000; stroke-width: 0.8; stroke-linejoin: miter; stroke-linecap: square"/>
   </g>
   <g id="patch_4">
    <path d="M 450 298.92005 
L 450 10.8 
" style="fill: none; stroke: #000000; stroke-width: 0.8; stroke-linejoin: miter; stroke-linecap: square"/>
   </g>
   <g id="patch_5">
    <path d="M 68.04119 298.92005 
L 450 298.92005 
" style="fill: none; stroke: #000000; stroke-width: 0.8; stroke-linejoin: miter; stroke-linecap: square"/>
   </g>
   <g id="patch_6">
    <path d="M 68.04119 10.8 
L 450 10.8 
" style="fill: none; stroke: #000000; stroke-width: 0.8; stroke-linejoin: miter; stroke-linecap: square"/>
   </g>
  </g>
 </g>
 <defs>
  <clipPath id="p958fb0294a">
   <rect x="68.04119" y="10.8" width="381.95881" height="288.12005"/>
  </clipPath>
 </defs>
</svg>
