<?xml version="1.0" encoding="utf-8" standalone="no"?>
<!DOCTYPE svg PUBLIC "-//W3C//DTD SVG 1.1//EN"
  "http://www.w3.org/Graphics/SVG/1.1/DTD/svg11.dtd">
<svg xmlns:xlink="http://www.w3.org/1999/xlink" width="460.8pt" height="345.6pt" viewBox="0 0 460.8 345.6" xmlns="http://www.w3.org/2000/svg" version="1.1">
 <metadata>
  <rdf:RDF xmlns:dc="http://purl.org/dc/elements/1.1/" xmlns:cc="http://creativecommons.org/ns#" xmlns:rdf="http://www.w3.org/1999/02/22-rdf-syntax-ns#">
   <cc:Work>
    <dc:type rdf:resource="http://purl.org/dc/dcmitype/StillImage"/>
    <dc:date>2022-05-21T13:31:26.392660</dc:date>
    <dc:format>image/svg+xml</dc:format>
    <dc:creator>
     <cc:Agent>
      <dc:title>Matplotlib v3.5.1, https://matplotlib.org/</dc:title>
     </cc:Agent>
    </dc:creator>
   </cc:Work>
  </rdf:RDF>
 </metadata>
 <defs>
  <style type="text/css">*{stroke-linejoin: round; stroke-linecap: butt}</style>
 </defs>
 <g id="figure_1">
  <g id="patch_1">
   <path d="M 0 345.6 
L 460.8 345.6 
L 460.8 0 
L 0 0 
z
" style="fill: #ffffff"/>
  </g>
  <g id="axes_1">
   <g id="patch_2">
    <path d="M 68.04119 298.93603 
L 450 298.93603 
L 450 10.8 
L 68.04119 10.8 
z
" style="fill: #ffffff"/>
   </g>
   <g id="matplotlib.axis_1">
    <g id="xtick_1">
     <g id="line2d_1">
      <defs>
       <path id="m2530da36f8" d="M 0 0 
L 0 3.5 
" style="stroke: #000000; stroke-width: 0.8"/>
      </defs>
      <g>
       <use xlink:href="#m2530da36f8" x="85.402954" y="298.93603" style="stroke: #000000; stroke-width: 0.8"/>
      </g>
     </g>
     <g id="text_1">
      <!-- $\mathdefault{2970}$ -->
      <g transform="translate(75.440284 312.854528)scale(0.1 -0.1)">
       <defs>
        <path id="CMR17-32" d="M 2669 989 
L 2554 989 
C 2490 536 2438 459 2413 420 
C 2381 369 1920 369 1830 369 
L 602 369 
C 832 619 1280 1072 1824 1597 
C 2214 1967 2669 2402 2669 3035 
C 2669 3790 2067 4224 1395 4224 
C 691 4224 262 3604 262 3030 
C 262 2780 448 2748 525 2748 
C 589 2748 781 2787 781 3010 
C 781 3207 614 3264 525 3264 
C 486 3264 448 3258 422 3245 
C 544 3790 915 4058 1306 4058 
C 1862 4058 2227 3617 2227 3035 
C 2227 2479 1901 2000 1536 1584 
L 262 146 
L 262 0 
L 2515 0 
L 2669 989 
z
" transform="scale(0.015625)"/>
        <path id="CMR17-39" d="M 2253 1864 
C 2253 464 1670 31 1190 31 
C 1043 31 685 31 538 294 
C 704 268 826 357 826 518 
C 826 692 685 749 595 749 
C 538 749 365 723 365 506 
C 365 71 742 -128 1203 -128 
C 1939 -128 2688 674 2688 2073 
C 2688 3817 1971 4179 1485 4179 
C 851 4179 243 3628 243 2778 
C 243 1991 762 1408 1414 1408 
C 1952 1408 2189 1903 2253 2112 
L 2253 1864 
z
M 1427 1510 
C 1254 1510 1011 1542 813 1922 
C 678 2169 678 2461 678 2771 
C 678 3146 678 3405 858 3684 
C 947 3817 1114 4032 1485 4032 
C 2240 4032 2240 2885 2240 2632 
C 2240 2182 2035 1510 1427 1510 
z
" transform="scale(0.015625)"/>
        <path id="CMR17-37" d="M 2886 3941 
L 2886 4081 
L 1382 4081 
C 634 4081 621 4165 595 4288 
L 480 4288 
L 294 3094 
L 410 3094 
C 429 3215 474 3540 550 3661 
C 589 3712 1062 3712 1171 3712 
L 2579 3712 
L 1869 2661 
C 1395 1954 1069 999 1069 165 
C 1069 89 1069 -128 1299 -128 
C 1530 -128 1530 89 1530 171 
L 1530 465 
C 1530 1508 1709 2196 2003 2636 
L 2886 3941 
z
" transform="scale(0.015625)"/>
        <path id="CMR17-30" d="M 2688 2025 
C 2688 2416 2682 3080 2413 3591 
C 2176 4039 1798 4198 1466 4198 
C 1158 4198 768 4058 525 3597 
C 269 3118 243 2524 243 2025 
C 243 1661 250 1106 448 619 
C 723 -39 1216 -128 1466 -128 
C 1760 -128 2208 -7 2470 600 
C 2662 1042 2688 1559 2688 2025 
z
M 1466 -26 
C 1056 -26 813 325 723 812 
C 653 1188 653 1738 653 2096 
C 653 2588 653 2997 736 3387 
C 858 3929 1216 4096 1466 4096 
C 1728 4096 2067 3923 2189 3400 
C 2272 3036 2278 2607 2278 2096 
C 2278 1680 2278 1169 2202 792 
C 2067 95 1690 -26 1466 -26 
z
" transform="scale(0.015625)"/>
       </defs>
       <use xlink:href="#CMR17-32" transform="scale(0.996264)"/>
       <use xlink:href="#CMR17-39" transform="translate(45.690477 0)scale(0.996264)"/>
       <use xlink:href="#CMR17-37" transform="translate(91.380954 0)scale(0.996264)"/>
       <use xlink:href="#CMR17-30" transform="translate(137.071431 0)scale(0.996264)"/>
      </g>
     </g>
    </g>
    <g id="xtick_2">
     <g id="line2d_2">
      <g>
       <use xlink:href="#m2530da36f8" x="143.275501" y="298.93603" style="stroke: #000000; stroke-width: 0.8"/>
      </g>
     </g>
     <g id="text_2">
      <!-- $\mathdefault{2980}$ -->
      <g transform="translate(133.312831 312.854528)scale(0.1 -0.1)">
       <defs>
        <path id="CMR17-38" d="M 1741 2264 
C 2144 2467 2554 2773 2554 3263 
C 2554 3841 1990 4179 1472 4179 
C 890 4179 378 3759 378 3180 
C 378 3021 416 2747 666 2505 
C 730 2442 998 2251 1171 2130 
C 883 1983 211 1634 211 934 
C 211 279 838 -128 1459 -128 
C 2144 -128 2720 362 2720 1010 
C 2720 1590 2330 1857 2074 2029 
L 1741 2264 
z
M 902 2822 
C 851 2854 595 3051 595 3351 
C 595 3739 998 4032 1459 4032 
C 1965 4032 2336 3676 2336 3262 
C 2336 2669 1670 2331 1638 2331 
C 1632 2331 1626 2331 1574 2370 
L 902 2822 
z
M 2080 1519 
C 2176 1449 2483 1240 2483 851 
C 2483 381 2010 25 1472 25 
C 890 25 448 438 448 940 
C 448 1443 838 1862 1280 2060 
L 2080 1519 
z
" transform="scale(0.015625)"/>
       </defs>
       <use xlink:href="#CMR17-32" transform="scale(0.996264)"/>
       <use xlink:href="#CMR17-39" transform="translate(45.690477 0)scale(0.996264)"/>
       <use xlink:href="#CMR17-38" transform="translate(91.380954 0)scale(0.996264)"/>
       <use xlink:href="#CMR17-30" transform="translate(137.071431 0)scale(0.996264)"/>
      </g>
     </g>
    </g>
    <g id="xtick_3">
     <g id="line2d_3">
      <g>
       <use xlink:href="#m2530da36f8" x="201.148048" y="298.93603" style="stroke: #000000; stroke-width: 0.8"/>
      </g>
     </g>
     <g id="text_3">
      <!-- $\mathdefault{2990}$ -->
      <g transform="translate(191.185378 312.854528)scale(0.1 -0.1)">
       <use xlink:href="#CMR17-32" transform="scale(0.996264)"/>
       <use xlink:href="#CMR17-39" transform="translate(45.690477 0)scale(0.996264)"/>
       <use xlink:href="#CMR17-39" transform="translate(91.380954 0)scale(0.996264)"/>
       <use xlink:href="#CMR17-30" transform="translate(137.071431 0)scale(0.996264)"/>
      </g>
     </g>
    </g>
    <g id="xtick_4">
     <g id="line2d_4">
      <g>
       <use xlink:href="#m2530da36f8" x="259.020595" y="298.93603" style="stroke: #000000; stroke-width: 0.8"/>
      </g>
     </g>
     <g id="text_4">
      <!-- $\mathdefault{3000}$ -->
      <g transform="translate(249.057924 312.854528)scale(0.1 -0.1)">
       <defs>
        <path id="CMR17-33" d="M 1414 2157 
C 1984 2157 2234 1662 2234 1090 
C 2234 320 1824 25 1453 25 
C 1114 25 563 194 390 693 
C 422 680 454 680 486 680 
C 640 680 755 782 755 948 
C 755 1133 614 1216 486 1216 
C 378 1216 211 1165 211 926 
C 211 335 787 -128 1466 -128 
C 2176 -128 2720 430 2720 1085 
C 2720 1707 2208 2157 1600 2227 
C 2086 2328 2554 2756 2554 3329 
C 2554 3820 2048 4179 1472 4179 
C 890 4179 378 3829 378 3329 
C 378 3110 544 3072 627 3072 
C 762 3072 877 3155 877 3321 
C 877 3486 762 3569 627 3569 
C 602 3569 570 3569 544 3557 
C 730 3959 1235 4032 1459 4032 
C 1683 4032 2106 3925 2106 3320 
C 2106 3143 2080 2828 1862 2550 
C 1670 2304 1453 2304 1242 2284 
C 1210 2284 1062 2269 1037 2269 
C 992 2263 966 2257 966 2208 
C 966 2163 973 2157 1101 2157 
L 1414 2157 
z
" transform="scale(0.015625)"/>
       </defs>
       <use xlink:href="#CMR17-33" transform="scale(0.996264)"/>
       <use xlink:href="#CMR17-30" transform="translate(45.690477 0)scale(0.996264)"/>
       <use xlink:href="#CMR17-30" transform="translate(91.380954 0)scale(0.996264)"/>
       <use xlink:href="#CMR17-30" transform="translate(137.071431 0)scale(0.996264)"/>
      </g>
     </g>
    </g>
    <g id="xtick_5">
     <g id="line2d_5">
      <g>
       <use xlink:href="#m2530da36f8" x="316.893142" y="298.93603" style="stroke: #000000; stroke-width: 0.8"/>
      </g>
     </g>
     <g id="text_5">
      <!-- $\mathdefault{3010}$ -->
      <g transform="translate(306.930471 312.854528)scale(0.1 -0.1)">
       <defs>
        <path id="CMR17-31" d="M 1702 4058 
C 1702 4192 1696 4192 1606 4192 
C 1357 3916 979 3827 621 3827 
C 602 3827 570 3827 563 3808 
C 557 3795 557 3782 557 3648 
C 755 3648 1088 3686 1344 3839 
L 1344 461 
C 1344 236 1331 160 781 160 
L 589 160 
L 589 0 
C 896 0 1216 0 1523 0 
C 1830 0 2150 0 2458 0 
L 2458 160 
L 2266 160 
C 1715 160 1702 230 1702 458 
L 1702 4058 
z
" transform="scale(0.015625)"/>
       </defs>
       <use xlink:href="#CMR17-33" transform="scale(0.996264)"/>
       <use xlink:href="#CMR17-30" transform="translate(45.690477 0)scale(0.996264)"/>
       <use xlink:href="#CMR17-31" transform="translate(91.380954 0)scale(0.996264)"/>
       <use xlink:href="#CMR17-30" transform="translate(137.071431 0)scale(0.996264)"/>
      </g>
     </g>
    </g>
    <g id="xtick_6">
     <g id="line2d_6">
      <g>
       <use xlink:href="#m2530da36f8" x="374.765689" y="298.93603" style="stroke: #000000; stroke-width: 0.8"/>
      </g>
     </g>
     <g id="text_6">
      <!-- $\mathdefault{3020}$ -->
      <g transform="translate(364.803018 312.854528)scale(0.1 -0.1)">
       <use xlink:href="#CMR17-33" transform="scale(0.996264)"/>
       <use xlink:href="#CMR17-30" transform="translate(45.690477 0)scale(0.996264)"/>
       <use xlink:href="#CMR17-32" transform="translate(91.380954 0)scale(0.996264)"/>
       <use xlink:href="#CMR17-30" transform="translate(137.071431 0)scale(0.996264)"/>
      </g>
     </g>
    </g>
    <g id="xtick_7">
     <g id="line2d_7">
      <g>
       <use xlink:href="#m2530da36f8" x="432.638236" y="298.93603" style="stroke: #000000; stroke-width: 0.8"/>
      </g>
     </g>
     <g id="text_7">
      <!-- $\mathdefault{3030}$ -->
      <g transform="translate(422.675565 312.854528)scale(0.1 -0.1)">
       <use xlink:href="#CMR17-33" transform="scale(0.996264)"/>
       <use xlink:href="#CMR17-30" transform="translate(45.690477 0)scale(0.996264)"/>
       <use xlink:href="#CMR17-33" transform="translate(91.380954 0)scale(0.996264)"/>
       <use xlink:href="#CMR17-30" transform="translate(137.071431 0)scale(0.996264)"/>
      </g>
     </g>
    </g>
    <g id="text_8">
     <!-- $R$ ($\Omega$) -->
     <g transform="translate(238.707609 330.746875)scale(0.16 -0.16)">
      <defs>
       <path id="CMMI12-52" d="M 2355 3924 
C 2413 4160 2438 4160 2688 4160 
L 3149 4160 
C 3699 4160 4109 3995 4109 3499 
C 4109 3175 3942 2240 2656 2240 
L 1933 2240 
L 2355 3924 
z
M 3245 2169 
C 4038 2341 4659 2851 4659 3398 
C 4659 3894 4154 4352 3264 4352 
L 1530 4352 
C 1402 4352 1344 4352 1344 4226 
C 1344 4160 1389 4160 1510 4160 
C 1894 4160 1894 4112 1894 4045 
C 1894 4033 1894 3994 1869 3899 
L 1005 479 
C 947 256 934 192 493 192 
C 346 192 301 192 301 71 
C 301 7 371 7 390 7 
C 506 7 640 7 762 7 
L 1517 7 
C 1632 7 1766 7 1882 7 
C 1933 7 2003 7 2003 128 
C 2003 192 1946 192 1850 192 
C 1459 192 1459 243 1459 306 
C 1459 313 1459 357 1472 407 
L 1901 2112 
L 2669 2112 
C 3277 2112 3392 1731 3392 1522 
C 3392 1427 3328 1179 3283 1014 
C 3213 723 3194 652 3194 532 
C 3194 82 3565 -128 3994 -128 
C 4512 -128 4736 501 4736 591 
C 4736 635 4704 654 4666 654 
C 4614 654 4602 616 4589 565 
C 4435 114 4173 0 4013 0 
C 3853 0 3750 70 3750 356 
C 3750 509 3827 1088 3834 1120 
C 3866 1355 3866 1380 3866 1432 
C 3866 1896 3488 2093 3245 2169 
z
" transform="scale(0.015625)"/>
       <path id="CMR17-28" d="M 1958 -1561 
C 1958 -1555 1958 -1542 1939 -1523 
C 1645 -1224 858 -407 858 1581 
C 858 3569 1632 4379 1946 4697 
C 1946 4704 1958 4717 1958 4736 
C 1958 4755 1939 4768 1914 4768 
C 1843 4768 1299 4296 986 3594 
C 666 2887 576 2199 576 1588 
C 576 1128 621 351 1005 -471 
C 1312 -1135 1837 -1600 1914 -1600 
C 1946 -1600 1958 -1587 1958 -1561 
z
" transform="scale(0.015625)"/>
       <path id="CMR17-a" d="M 4038 935 
L 3923 935 
C 3866 641 3846 563 3814 461 
C 3782 365 3763 314 3392 314 
L 2874 314 
C 2944 686 3098 961 3366 1391 
C 3699 1935 3974 2377 3974 2910 
C 3974 3775 3155 4480 2138 4480 
C 1094 4480 294 3768 294 2910 
C 294 2377 576 1922 890 1416 
C 1171 961 1325 686 1395 314 
L 877 314 
C 512 314 493 365 461 454 
C 422 557 410 641 346 935 
L 230 935 
L 416 0 
L 1382 0 
C 1517 0 1523 6 1523 102 
C 1523 558 1286 1154 1178 1429 
C 973 1929 781 2416 781 2916 
C 781 3871 1466 4377 2131 4377 
C 2829 4377 3488 3851 3488 2916 
C 3488 2422 3315 1981 3078 1397 
C 2976 1135 2746 551 2746 102 
C 2746 0 2752 0 2886 0 
L 3853 0 
L 4038 935 
z
" transform="scale(0.015625)"/>
       <path id="CMR17-29" d="M 1683 1581 
C 1683 2040 1638 2817 1254 3639 
C 947 4303 422 4768 346 4768 
C 326 4768 301 4761 301 4729 
C 301 4717 307 4710 314 4697 
C 621 4378 1402 3568 1402 1584 
C 1402 -407 627 -1217 314 -1537 
C 307 -1549 301 -1556 301 -1568 
C 301 -1600 326 -1600 346 -1600 
C 416 -1600 960 -1128 1274 -426 
C 1594 281 1683 969 1683 1581 
z
" transform="scale(0.015625)"/>
      </defs>
      <use xlink:href="#CMMI12-52" transform="scale(0.996264)"/>
      <use xlink:href="#CMR17-28" transform="translate(105.146928 0)scale(0.996264)"/>
      <use xlink:href="#CMR17-a" transform="translate(140.427696 0)scale(0.996264)"/>
      <use xlink:href="#CMR17-29" transform="translate(206.937577 0)scale(0.996264)"/>
     </g>
    </g>
   </g>
   <g id="matplotlib.axis_2">
    <g id="ytick_1">
     <g id="line2d_8">
      <defs>
       <path id="m55e5045fef" d="M 0 0 
L -3.5 0 
" style="stroke: #000000; stroke-width: 0.8"/>
      </defs>
      <g>
       <use xlink:href="#m55e5045fef" x="68.04119" y="269.297029" style="stroke: #000000; stroke-width: 0.8"/>
      </g>
     </g>
     <g id="text_9">
      <!-- $\mathdefault{0.0010}$ -->
      <g transform="translate(33.367105 272.756278)scale(0.1 -0.1)">
       <defs>
        <path id="CMMI12-3a" d="M 1178 307 
C 1178 492 1024 619 870 619 
C 685 619 557 466 557 313 
C 557 128 710 0 864 0 
C 1050 0 1178 153 1178 307 
z
" transform="scale(0.015625)"/>
       </defs>
       <use xlink:href="#CMR17-30" transform="scale(0.996264)"/>
       <use xlink:href="#CMMI12-3a" transform="translate(45.690477 0)scale(0.996264)"/>
       <use xlink:href="#CMR17-30" transform="translate(72.787654 0)scale(0.996264)"/>
       <use xlink:href="#CMR17-30" transform="translate(118.478131 0)scale(0.996264)"/>
       <use xlink:href="#CMR17-31" transform="translate(164.168608 0)scale(0.996264)"/>
       <use xlink:href="#CMR17-30" transform="translate(209.859086 0)scale(0.996264)"/>
      </g>
     </g>
    </g>
    <g id="ytick_2">
     <g id="line2d_9">
      <g>
       <use xlink:href="#m55e5045fef" x="68.04119" y="211.561297" style="stroke: #000000; stroke-width: 0.8"/>
      </g>
     </g>
     <g id="text_10">
      <!-- $\mathdefault{0.0012}$ -->
      <g transform="translate(33.367105 215.020546)scale(0.1 -0.1)">
       <use xlink:href="#CMR17-30" transform="scale(0.996264)"/>
       <use xlink:href="#CMMI12-3a" transform="translate(45.690477 0)scale(0.996264)"/>
       <use xlink:href="#CMR17-30" transform="translate(72.787654 0)scale(0.996264)"/>
       <use xlink:href="#CMR17-30" transform="translate(118.478131 0)scale(0.996264)"/>
       <use xlink:href="#CMR17-31" transform="translate(164.168608 0)scale(0.996264)"/>
       <use xlink:href="#CMR17-32" transform="translate(209.859086 0)scale(0.996264)"/>
      </g>
     </g>
    </g>
    <g id="ytick_3">
     <g id="line2d_10">
      <g>
       <use xlink:href="#m55e5045fef" x="68.04119" y="153.825565" style="stroke: #000000; stroke-width: 0.8"/>
      </g>
     </g>
     <g id="text_11">
      <!-- $\mathdefault{0.0014}$ -->
      <g transform="translate(33.367105 157.284815)scale(0.1 -0.1)">
       <defs>
        <path id="CMR17-34" d="M 2150 4122 
C 2150 4256 2144 4256 2029 4256 
L 128 1254 
L 128 1088 
L 1779 1088 
L 1779 457 
C 1779 224 1766 160 1318 160 
L 1197 160 
L 1197 0 
C 1402 0 1747 0 1965 0 
C 2182 0 2528 0 2733 0 
L 2733 160 
L 2611 160 
C 2163 160 2150 224 2150 457 
L 2150 1088 
L 2803 1088 
L 2803 1254 
L 2150 1254 
L 2150 4122 
z
M 1798 3703 
L 1798 1254 
L 256 1254 
L 1798 3703 
z
" transform="scale(0.015625)"/>
       </defs>
       <use xlink:href="#CMR17-30" transform="scale(0.996264)"/>
       <use xlink:href="#CMMI12-3a" transform="translate(45.690477 0)scale(0.996264)"/>
       <use xlink:href="#CMR17-30" transform="translate(72.787654 0)scale(0.996264)"/>
       <use xlink:href="#CMR17-30" transform="translate(118.478131 0)scale(0.996264)"/>
       <use xlink:href="#CMR17-31" transform="translate(164.168608 0)scale(0.996264)"/>
       <use xlink:href="#CMR17-34" transform="translate(209.859086 0)scale(0.996264)"/>
      </g>
     </g>
    </g>
    <g id="ytick_4">
     <g id="line2d_11">
      <g>
       <use xlink:href="#m55e5045fef" x="68.04119" y="96.089834" style="stroke: #000000; stroke-width: 0.8"/>
      </g>
     </g>
     <g id="text_12">
      <!-- $\mathdefault{0.0016}$ -->
      <g transform="translate(33.367105 99.549083)scale(0.1 -0.1)">
       <defs>
        <path id="CMR17-36" d="M 678 2176 
C 678 3690 1395 4032 1811 4032 
C 1946 4032 2272 4009 2400 3776 
C 2298 3776 2106 3776 2106 3553 
C 2106 3381 2246 3323 2336 3323 
C 2394 3323 2566 3348 2566 3560 
C 2566 3954 2246 4179 1805 4179 
C 1043 4179 243 3390 243 1984 
C 243 253 966 -128 1478 -128 
C 2099 -128 2688 427 2688 1283 
C 2688 2081 2170 2662 1517 2662 
C 1126 2662 838 2407 678 1960 
L 678 2176 
z
M 1478 25 
C 691 25 691 1200 691 1436 
C 691 1896 909 2560 1504 2560 
C 1613 2560 1926 2560 2138 2120 
C 2253 1870 2253 1609 2253 1289 
C 2253 944 2253 690 2118 434 
C 1978 171 1773 25 1478 25 
z
" transform="scale(0.015625)"/>
       </defs>
       <use xlink:href="#CMR17-30" transform="scale(0.996264)"/>
       <use xlink:href="#CMMI12-3a" transform="translate(45.690477 0)scale(0.996264)"/>
       <use xlink:href="#CMR17-30" transform="translate(72.787654 0)scale(0.996264)"/>
       <use xlink:href="#CMR17-30" transform="translate(118.478131 0)scale(0.996264)"/>
       <use xlink:href="#CMR17-31" transform="translate(164.168608 0)scale(0.996264)"/>
       <use xlink:href="#CMR17-36" transform="translate(209.859086 0)scale(0.996264)"/>
      </g>
     </g>
    </g>
    <g id="ytick_5">
     <g id="line2d_12">
      <g>
       <use xlink:href="#m55e5045fef" x="68.04119" y="38.354102" style="stroke: #000000; stroke-width: 0.8"/>
      </g>
     </g>
     <g id="text_13">
      <!-- $\mathdefault{0.0018}$ -->
      <g transform="translate(33.367105 41.813351)scale(0.1 -0.1)">
       <use xlink:href="#CMR17-30" transform="scale(0.996264)"/>
       <use xlink:href="#CMMI12-3a" transform="translate(45.690477 0)scale(0.996264)"/>
       <use xlink:href="#CMR17-30" transform="translate(72.787654 0)scale(0.996264)"/>
       <use xlink:href="#CMR17-30" transform="translate(118.478131 0)scale(0.996264)"/>
       <use xlink:href="#CMR17-31" transform="translate(164.168608 0)scale(0.996264)"/>
       <use xlink:href="#CMR17-38" transform="translate(209.859086 0)scale(0.996264)"/>
      </g>
     </g>
    </g>
    <g id="text_14">
     <!-- $k^{2}_{33}$ -->
     <g transform="translate(25.410537 164.505899)rotate(-90)scale(0.16 -0.16)">
      <defs>
       <path id="CMMI12-6b" d="M 1798 4257 
C 1805 4283 1818 4321 1818 4352 
C 1818 4416 1754 4416 1741 4416 
C 1734 4416 1504 4393 1389 4377 
C 1280 4377 1184 4358 1069 4358 
C 915 4345 870 4339 870 4224 
C 870 4160 934 4160 998 4160 
C 1325 4160 1325 4103 1325 4040 
C 1325 4015 1325 4002 1293 3888 
L 378 248 
C 352 152 352 140 352 101 
C 352 -38 461 -64 525 -64 
C 704 -64 742 77 794 275 
L 1094 1469 
C 1555 1418 1830 1226 1830 920 
C 1830 881 1830 856 1811 760 
C 1786 664 1786 588 1786 556 
C 1786 185 2029 -64 2355 -64 
C 2650 -64 2803 204 2854 294 
C 2989 530 3072 888 3072 913 
C 3072 945 3046 971 3008 971 
C 2950 971 2944 945 2918 843 
C 2829 511 2694 64 2368 64 
C 2240 64 2157 128 2157 370 
C 2157 492 2182 632 2208 728 
C 2234 843 2234 849 2234 926 
C 2234 1303 1894 1514 1306 1590 
C 1536 1731 1766 1980 1856 2076 
C 2221 2484 2470 2689 2765 2689 
C 2912 2689 2950 2650 2995 2612 
C 2758 2586 2669 2420 2669 2293 
C 2669 2139 2790 2088 2880 2088 
C 3053 2088 3206 2235 3206 2440 
C 3206 2625 3059 2816 2771 2816 
C 2419 2816 2131 2567 1677 2056 
C 1613 1980 1376 1737 1139 1648 
L 1798 4257 
z
" transform="scale(0.015625)"/>
      </defs>
      <use xlink:href="#CMMI12-6b" transform="scale(0.996264)"/>
      <use xlink:href="#CMR17-32" transform="translate(54.079201 36.153639)scale(0.697382)"/>
      <use xlink:href="#CMR17-33" transform="translate(50.735189 -24.740171)scale(0.697382)"/>
      <use xlink:href="#CMR17-33" transform="translate(82.718371 -24.740171)scale(0.697382)"/>
     </g>
    </g>
   </g>
   <g id="LineCollection_1">
    <path d="M 85.402954 23.897092 
L 432.638236 23.897092 
" clip-path="url(#p591520490e)" style="fill: none; stroke: #b22222; stroke-width: 1.5"/>
    <path d="M 85.402954 88.764733 
L 432.638236 88.764733 
" clip-path="url(#p591520490e)" style="fill: none; stroke: #b22222; stroke-width: 1.5"/>
    <path d="M 85.402954 171.871027 
L 432.638236 171.871027 
" clip-path="url(#p591520490e)" style="fill: none; stroke: #b22222; stroke-width: 1.5"/>
    <path d="M 85.402954 129.741019 
L 432.638236 129.741019 
" clip-path="url(#p591520490e)" style="fill: none; stroke: #b22222; stroke-width: 1.5"/>
    <path d="M 85.402954 141.583141 
L 432.638236 141.583141 
" clip-path="url(#p591520490e)" style="fill: none; stroke: #b22222; stroke-width: 1.5"/>
    <path d="M 85.402954 140.980999 
L 432.638236 140.980999 
" clip-path="url(#p591520490e)" style="fill: none; stroke: #b22222; stroke-width: 1.5"/>
    <path d="M 85.402954 147.515693 
L 432.638236 147.515693 
" clip-path="url(#p591520490e)" style="fill: none; stroke: #b22222; stroke-width: 1.5"/>
    <path d="M 85.402954 110.834839 
L 432.638236 110.834839 
" clip-path="url(#p591520490e)" style="fill: none; stroke: #b22222; stroke-width: 1.5"/>
    <path d="M 85.402954 162.56311 
L 432.638236 162.56311 
" clip-path="url(#p591520490e)" style="fill: none; stroke: #b22222; stroke-width: 1.5"/>
    <path d="M 85.402954 146.86299 
L 432.638236 146.86299 
" clip-path="url(#p591520490e)" style="fill: none; stroke: #b22222; stroke-width: 1.5"/>
    <path d="M 85.402954 162.921344 
L 432.638236 162.921344 
" clip-path="url(#p591520490e)" style="fill: none; stroke: #b22222; stroke-width: 1.5"/>
    <path d="M 85.402954 213.741129 
L 432.638236 213.741129 
" clip-path="url(#p591520490e)" style="fill: none; stroke: #b22222; stroke-width: 1.5"/>
    <path d="M 85.402954 138.660249 
L 432.638236 138.660249 
" clip-path="url(#p591520490e)" style="fill: none; stroke: #b22222; stroke-width: 1.5"/>
    <path d="M 85.402954 170.997189 
L 432.638236 170.997189 
" clip-path="url(#p591520490e)" style="fill: none; stroke: #b22222; stroke-width: 1.5"/>
    <path d="M 85.402954 154.213994 
L 432.638236 154.213994 
" clip-path="url(#p591520490e)" style="fill: none; stroke: #b22222; stroke-width: 1.5"/>
    <path d="M 85.402954 171.129984 
L 432.638236 171.129984 
" clip-path="url(#p591520490e)" style="fill: none; stroke: #b22222; stroke-width: 1.5"/>
    <path d="M 85.402954 68.16795 
L 432.638236 68.16795 
" clip-path="url(#p591520490e)" style="fill: none; stroke: #b22222; stroke-width: 1.5"/>
    <path d="M 85.402954 121.198515 
L 432.638236 121.198515 
" clip-path="url(#p591520490e)" style="fill: none; stroke: #b22222; stroke-width: 1.5"/>
    <path d="M 85.402954 210.453629 
L 432.638236 210.453629 
" clip-path="url(#p591520490e)" style="fill: none; stroke: #b22222; stroke-width: 1.5"/>
    <path d="M 85.402954 109.194821 
L 432.638236 109.194821 
" clip-path="url(#p591520490e)" style="fill: none; stroke: #b22222; stroke-width: 1.5"/>
    <path d="M 85.402954 209.320646 
L 432.638236 209.320646 
" clip-path="url(#p591520490e)" style="fill: none; stroke: #b22222; stroke-width: 1.5"/>
    <path d="M 85.402954 221.584266 
L 432.638236 221.584266 
" clip-path="url(#p591520490e)" style="fill: none; stroke: #b22222; stroke-width: 1.5"/>
    <path d="M 85.402954 157.957606 
L 432.638236 157.957606 
" clip-path="url(#p591520490e)" style="fill: none; stroke: #b22222; stroke-width: 1.5"/>
    <path d="M 85.402954 196.591782 
L 432.638236 196.591782 
" clip-path="url(#p591520490e)" style="fill: none; stroke: #b22222; stroke-width: 1.5"/>
    <path d="M 85.402954 198.150635 
L 432.638236 198.150635 
" clip-path="url(#p591520490e)" style="fill: none; stroke: #b22222; stroke-width: 1.5"/>
    <path d="M 85.402954 242.7747 
L 432.638236 242.7747 
" clip-path="url(#p591520490e)" style="fill: none; stroke: #b22222; stroke-width: 1.5"/>
    <path d="M 85.402954 234.370391 
L 432.638236 234.370391 
" clip-path="url(#p591520490e)" style="fill: none; stroke: #b22222; stroke-width: 1.5"/>
    <path d="M 85.402954 180.974113 
L 432.638236 180.974113 
" clip-path="url(#p591520490e)" style="fill: none; stroke: #b22222; stroke-width: 1.5"/>
    <path d="M 85.402954 285.838938 
L 432.638236 285.838938 
" clip-path="url(#p591520490e)" style="fill: none; stroke: #b22222; stroke-width: 1.5"/>
    <path d="M 85.402954 133.788443 
L 432.638236 133.788443 
" clip-path="url(#p591520490e)" style="fill: none; stroke: #b22222; stroke-width: 1.5"/>
    <path d="M 85.402954 189.491019 
L 432.638236 189.491019 
" clip-path="url(#p591520490e)" style="fill: none; stroke: #b22222; stroke-width: 1.5"/>
    <path d="M 85.402954 139.081856 
L 432.638236 139.081856 
" clip-path="url(#p591520490e)" style="fill: none; stroke: #b22222; stroke-width: 1.5"/>
    <path d="M 85.402954 208.579104 
L 432.638236 208.579104 
" clip-path="url(#p591520490e)" style="fill: none; stroke: #b22222; stroke-width: 1.5"/>
    <path d="M 85.402954 255.993391 
L 432.638236 255.993391 
" clip-path="url(#p591520490e)" style="fill: none; stroke: #b22222; stroke-width: 1.5"/>
    <path d="M 85.402954 143.363394 
L 432.638236 143.363394 
" clip-path="url(#p591520490e)" style="fill: none; stroke: #b22222; stroke-width: 1.5"/>
    <path d="M 85.402954 122.017497 
L 432.638236 122.017497 
" clip-path="url(#p591520490e)" style="fill: none; stroke: #b22222; stroke-width: 1.5"/>
    <path d="M 85.402954 141.168052 
L 432.638236 141.168052 
" clip-path="url(#p591520490e)" style="fill: none; stroke: #b22222; stroke-width: 1.5"/>
    <path d="M 85.402954 156.414423 
L 432.638236 156.414423 
" clip-path="url(#p591520490e)" style="fill: none; stroke: #b22222; stroke-width: 1.5"/>
   </g>
   <g id="LineCollection_2">
    <path d="M 259.020595 23.897092 
L 259.020595 23.897092 
" clip-path="url(#p591520490e)" style="fill: none; stroke: #b22222; stroke-width: 1.5"/>
    <path d="M 259.020595 88.764733 
L 259.020595 88.764733 
" clip-path="url(#p591520490e)" style="fill: none; stroke: #b22222; stroke-width: 1.5"/>
    <path d="M 259.020595 171.871027 
L 259.020595 171.871027 
" clip-path="url(#p591520490e)" style="fill: none; stroke: #b22222; stroke-width: 1.5"/>
    <path d="M 259.020595 129.741019 
L 259.020595 129.741019 
" clip-path="url(#p591520490e)" style="fill: none; stroke: #b22222; stroke-width: 1.5"/>
    <path d="M 259.020595 141.583141 
L 259.020595 141.583141 
" clip-path="url(#p591520490e)" style="fill: none; stroke: #b22222; stroke-width: 1.5"/>
    <path d="M 259.020595 140.980999 
L 259.020595 140.980999 
" clip-path="url(#p591520490e)" style="fill: none; stroke: #b22222; stroke-width: 1.5"/>
    <path d="M 259.020595 147.515693 
L 259.020595 147.515693 
" clip-path="url(#p591520490e)" style="fill: none; stroke: #b22222; stroke-width: 1.5"/>
    <path d="M 259.020595 110.834839 
L 259.020595 110.834839 
" clip-path="url(#p591520490e)" style="fill: none; stroke: #b22222; stroke-width: 1.5"/>
    <path d="M 259.020595 162.56311 
L 259.020595 162.56311 
" clip-path="url(#p591520490e)" style="fill: none; stroke: #b22222; stroke-width: 1.5"/>
    <path d="M 259.020595 146.86299 
L 259.020595 146.86299 
" clip-path="url(#p591520490e)" style="fill: none; stroke: #b22222; stroke-width: 1.5"/>
    <path d="M 259.020595 162.921344 
L 259.020595 162.921344 
" clip-path="url(#p591520490e)" style="fill: none; stroke: #b22222; stroke-width: 1.5"/>
    <path d="M 259.020595 213.741129 
L 259.020595 213.741129 
" clip-path="url(#p591520490e)" style="fill: none; stroke: #b22222; stroke-width: 1.5"/>
    <path d="M 259.020595 138.660249 
L 259.020595 138.660249 
" clip-path="url(#p591520490e)" style="fill: none; stroke: #b22222; stroke-width: 1.5"/>
    <path d="M 259.020595 170.997189 
L 259.020595 170.997189 
" clip-path="url(#p591520490e)" style="fill: none; stroke: #b22222; stroke-width: 1.5"/>
    <path d="M 259.020595 154.213994 
L 259.020595 154.213994 
" clip-path="url(#p591520490e)" style="fill: none; stroke: #b22222; stroke-width: 1.5"/>
    <path d="M 259.020595 171.129984 
L 259.020595 171.129984 
" clip-path="url(#p591520490e)" style="fill: none; stroke: #b22222; stroke-width: 1.5"/>
    <path d="M 259.020595 68.16795 
L 259.020595 68.16795 
" clip-path="url(#p591520490e)" style="fill: none; stroke: #b22222; stroke-width: 1.5"/>
    <path d="M 259.020595 121.198515 
L 259.020595 121.198515 
" clip-path="url(#p591520490e)" style="fill: none; stroke: #b22222; stroke-width: 1.5"/>
    <path d="M 259.020595 210.453629 
L 259.020595 210.453629 
" clip-path="url(#p591520490e)" style="fill: none; stroke: #b22222; stroke-width: 1.5"/>
    <path d="M 259.020595 109.194821 
L 259.020595 109.194821 
" clip-path="url(#p591520490e)" style="fill: none; stroke: #b22222; stroke-width: 1.5"/>
    <path d="M 259.020595 209.320646 
L 259.020595 209.320646 
" clip-path="url(#p591520490e)" style="fill: none; stroke: #b22222; stroke-width: 1.5"/>
    <path d="M 259.020595 221.584266 
L 259.020595 221.584266 
" clip-path="url(#p591520490e)" style="fill: none; stroke: #b22222; stroke-width: 1.5"/>
    <path d="M 259.020595 157.957606 
L 259.020595 157.957606 
" clip-path="url(#p591520490e)" style="fill: none; stroke: #b22222; stroke-width: 1.5"/>
    <path d="M 259.020595 196.591782 
L 259.020595 196.591782 
" clip-path="url(#p591520490e)" style="fill: none; stroke: #b22222; stroke-width: 1.5"/>
    <path d="M 259.020595 198.150635 
L 259.020595 198.150635 
" clip-path="url(#p591520490e)" style="fill: none; stroke: #b22222; stroke-width: 1.5"/>
    <path d="M 259.020595 242.7747 
L 259.020595 242.7747 
" clip-path="url(#p591520490e)" style="fill: none; stroke: #b22222; stroke-width: 1.5"/>
    <path d="M 259.020595 234.370391 
L 259.020595 234.370391 
" clip-path="url(#p591520490e)" style="fill: none; stroke: #b22222; stroke-width: 1.5"/>
    <path d="M 259.020595 180.974113 
L 259.020595 180.974113 
" clip-path="url(#p591520490e)" style="fill: none; stroke: #b22222; stroke-width: 1.5"/>
    <path d="M 259.020595 285.838938 
L 259.020595 285.838938 
" clip-path="url(#p591520490e)" style="fill: none; stroke: #b22222; stroke-width: 1.5"/>
    <path d="M 259.020595 133.788443 
L 259.020595 133.788443 
" clip-path="url(#p591520490e)" style="fill: none; stroke: #b22222; stroke-width: 1.5"/>
    <path d="M 259.020595 189.491019 
L 259.020595 189.491019 
" clip-path="url(#p591520490e)" style="fill: none; stroke: #b22222; stroke-width: 1.5"/>
    <path d="M 259.020595 139.081856 
L 259.020595 139.081856 
" clip-path="url(#p591520490e)" style="fill: none; stroke: #b22222; stroke-width: 1.5"/>
    <path d="M 259.020595 208.579104 
L 259.020595 208.579104 
" clip-path="url(#p591520490e)" style="fill: none; stroke: #b22222; stroke-width: 1.5"/>
    <path d="M 259.020595 255.993391 
L 259.020595 255.993391 
" clip-path="url(#p591520490e)" style="fill: none; stroke: #b22222; stroke-width: 1.5"/>
    <path d="M 259.020595 143.363394 
L 259.020595 143.363394 
" clip-path="url(#p591520490e)" style="fill: none; stroke: #b22222; stroke-width: 1.5"/>
    <path d="M 259.020595 122.017497 
L 259.020595 122.017497 
" clip-path="url(#p591520490e)" style="fill: none; stroke: #b22222; stroke-width: 1.5"/>
    <path d="M 259.020595 141.168052 
L 259.020595 141.168052 
" clip-path="url(#p591520490e)" style="fill: none; stroke: #b22222; stroke-width: 1.5"/>
    <path d="M 259.020595 156.414423 
L 259.020595 156.414423 
" clip-path="url(#p591520490e)" style="fill: none; stroke: #b22222; stroke-width: 1.5"/>
   </g>
   <g id="line2d_13">
    <defs>
     <path id="m2a94e0ec41" d="M -3 0 
L 3 0 
M 0 3 
L 0 -3 
" style="stroke: #4169e1"/>
    </defs>
    <g clip-path="url(#p591520490e)">
     <use xlink:href="#m2a94e0ec41" x="259.020595" y="23.897092" style="fill: #4169e1; stroke: #4169e1"/>
     <use xlink:href="#m2a94e0ec41" x="259.020595" y="88.764733" style="fill: #4169e1; stroke: #4169e1"/>
     <use xlink:href="#m2a94e0ec41" x="259.020595" y="171.871027" style="fill: #4169e1; stroke: #4169e1"/>
     <use xlink:href="#m2a94e0ec41" x="259.020595" y="129.741019" style="fill: #4169e1; stroke: #4169e1"/>
     <use xlink:href="#m2a94e0ec41" x="259.020595" y="141.583141" style="fill: #4169e1; stroke: #4169e1"/>
     <use xlink:href="#m2a94e0ec41" x="259.020595" y="140.980999" style="fill: #4169e1; stroke: #4169e1"/>
     <use xlink:href="#m2a94e0ec41" x="259.020595" y="147.515693" style="fill: #4169e1; stroke: #4169e1"/>
     <use xlink:href="#m2a94e0ec41" x="259.020595" y="110.834839" style="fill: #4169e1; stroke: #4169e1"/>
     <use xlink:href="#m2a94e0ec41" x="259.020595" y="162.56311" style="fill: #4169e1; stroke: #4169e1"/>
     <use xlink:href="#m2a94e0ec41" x="259.020595" y="146.86299" style="fill: #4169e1; stroke: #4169e1"/>
     <use xlink:href="#m2a94e0ec41" x="259.020595" y="162.921344" style="fill: #4169e1; stroke: #4169e1"/>
     <use xlink:href="#m2a94e0ec41" x="259.020595" y="213.741129" style="fill: #4169e1; stroke: #4169e1"/>
     <use xlink:href="#m2a94e0ec41" x="259.020595" y="138.660249" style="fill: #4169e1; stroke: #4169e1"/>
     <use xlink:href="#m2a94e0ec41" x="259.020595" y="170.997189" style="fill: #4169e1; stroke: #4169e1"/>
     <use xlink:href="#m2a94e0ec41" x="259.020595" y="154.213994" style="fill: #4169e1; stroke: #4169e1"/>
     <use xlink:href="#m2a94e0ec41" x="259.020595" y="171.129984" style="fill: #4169e1; stroke: #4169e1"/>
     <use xlink:href="#m2a94e0ec41" x="259.020595" y="68.16795" style="fill: #4169e1; stroke: #4169e1"/>
     <use xlink:href="#m2a94e0ec41" x="259.020595" y="121.198515" style="fill: #4169e1; stroke: #4169e1"/>
     <use xlink:href="#m2a94e0ec41" x="259.020595" y="210.453629" style="fill: #4169e1; stroke: #4169e1"/>
     <use xlink:href="#m2a94e0ec41" x="259.020595" y="109.194821" style="fill: #4169e1; stroke: #4169e1"/>
     <use xlink:href="#m2a94e0ec41" x="259.020595" y="209.320646" style="fill: #4169e1; stroke: #4169e1"/>
     <use xlink:href="#m2a94e0ec41" x="259.020595" y="221.584266" style="fill: #4169e1; stroke: #4169e1"/>
     <use xlink:href="#m2a94e0ec41" x="259.020595" y="157.957606" style="fill: #4169e1; stroke: #4169e1"/>
     <use xlink:href="#m2a94e0ec41" x="259.020595" y="196.591782" style="fill: #4169e1; stroke: #4169e1"/>
     <use xlink:href="#m2a94e0ec41" x="259.020595" y="198.150635" style="fill: #4169e1; stroke: #4169e1"/>
     <use xlink:href="#m2a94e0ec41" x="259.020595" y="242.7747" style="fill: #4169e1; stroke: #4169e1"/>
     <use xlink:href="#m2a94e0ec41" x="259.020595" y="234.370391" style="fill: #4169e1; stroke: #4169e1"/>
     <use xlink:href="#m2a94e0ec41" x="259.020595" y="180.974113" style="fill: #4169e1; stroke: #4169e1"/>
     <use xlink:href="#m2a94e0ec41" x="259.020595" y="285.838938" style="fill: #4169e1; stroke: #4169e1"/>
     <use xlink:href="#m2a94e0ec41" x="259.020595" y="133.788443" style="fill: #4169e1; stroke: #4169e1"/>
     <use xlink:href="#m2a94e0ec41" x="259.020595" y="189.491019" style="fill: #4169e1; stroke: #4169e1"/>
     <use xlink:href="#m2a94e0ec41" x="259.020595" y="139.081856" style="fill: #4169e1; stroke: #4169e1"/>
     <use xlink:href="#m2a94e0ec41" x="259.020595" y="208.579104" style="fill: #4169e1; stroke: #4169e1"/>
     <use xlink:href="#m2a94e0ec41" x="259.020595" y="255.993391" style="fill: #4169e1; stroke: #4169e1"/>
     <use xlink:href="#m2a94e0ec41" x="259.020595" y="143.363394" style="fill: #4169e1; stroke: #4169e1"/>
     <use xlink:href="#m2a94e0ec41" x="259.020595" y="122.017497" style="fill: #4169e1; stroke: #4169e1"/>
     <use xlink:href="#m2a94e0ec41" x="259.020595" y="141.168052" style="fill: #4169e1; stroke: #4169e1"/>
     <use xlink:href="#m2a94e0ec41" x="259.020595" y="156.414423" style="fill: #4169e1; stroke: #4169e1"/>
    </g>
   </g>
   <g id="patch_3">
    <path d="M 68.04119 298.93603 
L 68.04119 10.8 
" style="fill: none; stroke: #000000; stroke-width: 0.8; stroke-linejoin: miter; stroke-linecap: square"/>
   </g>
   <g id="patch_4">
    <path d="M 450 298.93603 
L 450 10.8 
" style="fill: none; stroke: #000000; stroke-width: 0.8; stroke-linejoin: miter; stroke-linecap: square"/>
   </g>
   <g id="patch_5">
    <path d="M 68.04119 298.93603 
L 450 298.93603 
" style="fill: none; stroke: #000000; stroke-width: 0.8; stroke-linejoin: miter; stroke-linecap: square"/>
   </g>
   <g id="patch_6">
    <path d="M 68.04119 10.8 
L 450 10.8 
" style="fill: none; stroke: #000000; stroke-width: 0.8; stroke-linejoin: miter; stroke-linecap: square"/>
   </g>
  </g>
 </g>
 <defs>
  <clipPath id="p591520490e">
   <rect x="68.04119" y="10.8" width="381.95881" height="288.13603"/>
  </clipPath>
 </defs>
</svg>
