<?xml version="1.0" encoding="utf-8" standalone="no"?>
<!DOCTYPE svg PUBLIC "-//W3C//DTD SVG 1.1//EN"
  "http://www.w3.org/Graphics/SVG/1.1/DTD/svg11.dtd">
<svg xmlns:xlink="http://www.w3.org/1999/xlink" width="460.8pt" height="345.6pt" viewBox="0 0 460.8 345.6" xmlns="http://www.w3.org/2000/svg" version="1.1">
 <metadata>
  <rdf:RDF xmlns:dc="http://purl.org/dc/elements/1.1/" xmlns:cc="http://creativecommons.org/ns#" xmlns:rdf="http://www.w3.org/1999/02/22-rdf-syntax-ns#">
   <cc:Work>
    <dc:type rdf:resource="http://purl.org/dc/dcmitype/StillImage"/>
    <dc:date>2022-05-20T18:39:31.339341</dc:date>
    <dc:format>image/svg+xml</dc:format>
    <dc:creator>
     <cc:Agent>
      <dc:title>Matplotlib v3.5.1, https://matplotlib.org/</dc:title>
     </cc:Agent>
    </dc:creator>
   </cc:Work>
  </rdf:RDF>
 </metadata>
 <defs>
  <style type="text/css">*{stroke-linejoin: round; stroke-linecap: butt}</style>
 </defs>
 <g id="figure_1">
  <g id="patch_1">
   <path d="M 0 345.6 
L 460.8 345.6 
L 460.8 0 
L 0 0 
z
" style="fill: #ffffff"/>
  </g>
  <g id="axes_1">
   <g id="patch_2">
    <path d="M 57.6 307.584 
L 414.72 307.584 
L 414.72 41.472 
L 57.6 41.472 
z
" style="fill: #ffffff"/>
   </g>
   <g id="matplotlib.axis_1">
    <g id="xtick_1">
     <g id="line2d_1">
      <defs>
       <path id="mf2315e3c5e" d="M 0 0 
L 0 3.5 
" style="stroke: #000000; stroke-width: 0.8"/>
      </defs>
      <g>
       <use xlink:href="#mf2315e3c5e" x="64.088219" y="307.584" style="stroke: #000000; stroke-width: 0.8"/>
      </g>
     </g>
     <g id="text_1">
      <!-- $\mathdefault{−0.06}$ -->
      <g transform="translate(51.35814 321.502498)scale(0.1 -0.1)">
       <defs>
        <path id="CMSY10-0" d="M 4218 1472 
C 4326 1472 4442 1472 4442 1600 
C 4442 1728 4326 1728 4218 1728 
L 755 1728 
C 646 1728 531 1728 531 1600 
C 531 1472 646 1472 755 1472 
L 4218 1472 
z
" transform="scale(0.015625)"/>
        <path id="CMR17-30" d="M 2688 2025 
C 2688 2416 2682 3080 2413 3591 
C 2176 4039 1798 4198 1466 4198 
C 1158 4198 768 4058 525 3597 
C 269 3118 243 2524 243 2025 
C 243 1661 250 1106 448 619 
C 723 -39 1216 -128 1466 -128 
C 1760 -128 2208 -7 2470 600 
C 2662 1042 2688 1559 2688 2025 
z
M 1466 -26 
C 1056 -26 813 325 723 812 
C 653 1188 653 1738 653 2096 
C 653 2588 653 2997 736 3387 
C 858 3929 1216 4096 1466 4096 
C 1728 4096 2067 3923 2189 3400 
C 2272 3036 2278 2607 2278 2096 
C 2278 1680 2278 1169 2202 792 
C 2067 95 1690 -26 1466 -26 
z
" transform="scale(0.015625)"/>
        <path id="CMMI12-3a" d="M 1178 307 
C 1178 492 1024 619 870 619 
C 685 619 557 466 557 313 
C 557 128 710 0 864 0 
C 1050 0 1178 153 1178 307 
z
" transform="scale(0.015625)"/>
        <path id="CMR17-36" d="M 678 2176 
C 678 3690 1395 4032 1811 4032 
C 1946 4032 2272 4009 2400 3776 
C 2298 3776 2106 3776 2106 3553 
C 2106 3381 2246 3323 2336 3323 
C 2394 3323 2566 3348 2566 3560 
C 2566 3954 2246 4179 1805 4179 
C 1043 4179 243 3390 243 1984 
C 243 253 966 -128 1478 -128 
C 2099 -128 2688 427 2688 1283 
C 2688 2081 2170 2662 1517 2662 
C 1126 2662 838 2407 678 1960 
L 678 2176 
z
M 1478 25 
C 691 25 691 1200 691 1436 
C 691 1896 909 2560 1504 2560 
C 1613 2560 1926 2560 2138 2120 
C 2253 1870 2253 1609 2253 1289 
C 2253 944 2253 690 2118 434 
C 1978 171 1773 25 1478 25 
z
" transform="scale(0.015625)"/>
       </defs>
       <use xlink:href="#CMSY10-0" transform="scale(0.996264)"/>
       <use xlink:href="#CMR17-30" transform="translate(77.487468 0)scale(0.996264)"/>
       <use xlink:href="#CMMI12-3a" transform="translate(123.177945 0)scale(0.996264)"/>
       <use xlink:href="#CMR17-30" transform="translate(150.275122 0)scale(0.996264)"/>
       <use xlink:href="#CMR17-36" transform="translate(195.965599 0)scale(0.996264)"/>
      </g>
     </g>
    </g>
    <g id="xtick_2">
     <g id="line2d_2">
      <g>
       <use xlink:href="#mf2315e3c5e" x="129.051609" y="307.584" style="stroke: #000000; stroke-width: 0.8"/>
      </g>
     </g>
     <g id="text_2">
      <!-- $\mathdefault{−0.04}$ -->
      <g transform="translate(116.32153 321.502498)scale(0.1 -0.1)">
       <defs>
        <path id="CMR17-34" d="M 2150 4122 
C 2150 4256 2144 4256 2029 4256 
L 128 1254 
L 128 1088 
L 1779 1088 
L 1779 457 
C 1779 224 1766 160 1318 160 
L 1197 160 
L 1197 0 
C 1402 0 1747 0 1965 0 
C 2182 0 2528 0 2733 0 
L 2733 160 
L 2611 160 
C 2163 160 2150 224 2150 457 
L 2150 1088 
L 2803 1088 
L 2803 1254 
L 2150 1254 
L 2150 4122 
z
M 1798 3703 
L 1798 1254 
L 256 1254 
L 1798 3703 
z
" transform="scale(0.015625)"/>
       </defs>
       <use xlink:href="#CMSY10-0" transform="scale(0.996264)"/>
       <use xlink:href="#CMR17-30" transform="translate(77.487468 0)scale(0.996264)"/>
       <use xlink:href="#CMMI12-3a" transform="translate(123.177945 0)scale(0.996264)"/>
       <use xlink:href="#CMR17-30" transform="translate(150.275122 0)scale(0.996264)"/>
       <use xlink:href="#CMR17-34" transform="translate(195.965599 0)scale(0.996264)"/>
      </g>
     </g>
    </g>
    <g id="xtick_3">
     <g id="line2d_3">
      <g>
       <use xlink:href="#mf2315e3c5e" x="194.015" y="307.584" style="stroke: #000000; stroke-width: 0.8"/>
      </g>
     </g>
     <g id="text_3">
      <!-- $\mathdefault{−0.02}$ -->
      <g transform="translate(181.284921 321.502498)scale(0.1 -0.1)">
       <defs>
        <path id="CMR17-32" d="M 2669 989 
L 2554 989 
C 2490 536 2438 459 2413 420 
C 2381 369 1920 369 1830 369 
L 602 369 
C 832 619 1280 1072 1824 1597 
C 2214 1967 2669 2402 2669 3035 
C 2669 3790 2067 4224 1395 4224 
C 691 4224 262 3604 262 3030 
C 262 2780 448 2748 525 2748 
C 589 2748 781 2787 781 3010 
C 781 3207 614 3264 525 3264 
C 486 3264 448 3258 422 3245 
C 544 3790 915 4058 1306 4058 
C 1862 4058 2227 3617 2227 3035 
C 2227 2479 1901 2000 1536 1584 
L 262 146 
L 262 0 
L 2515 0 
L 2669 989 
z
" transform="scale(0.015625)"/>
       </defs>
       <use xlink:href="#CMSY10-0" transform="scale(0.996264)"/>
       <use xlink:href="#CMR17-30" transform="translate(77.487468 0)scale(0.996264)"/>
       <use xlink:href="#CMMI12-3a" transform="translate(123.177945 0)scale(0.996264)"/>
       <use xlink:href="#CMR17-30" transform="translate(150.275122 0)scale(0.996264)"/>
       <use xlink:href="#CMR17-32" transform="translate(195.965599 0)scale(0.996264)"/>
      </g>
     </g>
    </g>
    <g id="xtick_4">
     <g id="line2d_4">
      <g>
       <use xlink:href="#mf2315e3c5e" x="258.978391" y="307.584" style="stroke: #000000; stroke-width: 0.8"/>
      </g>
     </g>
     <g id="text_4">
      <!-- $\mathdefault{0.00}$ -->
      <g transform="translate(250.122684 321.502498)scale(0.1 -0.1)">
       <use xlink:href="#CMR17-30" transform="scale(0.996264)"/>
       <use xlink:href="#CMMI12-3a" transform="translate(45.690477 0)scale(0.996264)"/>
       <use xlink:href="#CMR17-30" transform="translate(72.787654 0)scale(0.996264)"/>
       <use xlink:href="#CMR17-30" transform="translate(118.478131 0)scale(0.996264)"/>
      </g>
     </g>
    </g>
    <g id="xtick_5">
     <g id="line2d_5">
      <g>
       <use xlink:href="#mf2315e3c5e" x="323.941782" y="307.584" style="stroke: #000000; stroke-width: 0.8"/>
      </g>
     </g>
     <g id="text_5">
      <!-- $\mathdefault{0.02}$ -->
      <g transform="translate(315.086075 321.502498)scale(0.1 -0.1)">
       <use xlink:href="#CMR17-30" transform="scale(0.996264)"/>
       <use xlink:href="#CMMI12-3a" transform="translate(45.690477 0)scale(0.996264)"/>
       <use xlink:href="#CMR17-30" transform="translate(72.787654 0)scale(0.996264)"/>
       <use xlink:href="#CMR17-32" transform="translate(118.478131 0)scale(0.996264)"/>
      </g>
     </g>
    </g>
    <g id="xtick_6">
     <g id="line2d_6">
      <g>
       <use xlink:href="#mf2315e3c5e" x="388.905173" y="307.584" style="stroke: #000000; stroke-width: 0.8"/>
      </g>
     </g>
     <g id="text_6">
      <!-- $\mathdefault{0.04}$ -->
      <g transform="translate(380.049465 321.502498)scale(0.1 -0.1)">
       <use xlink:href="#CMR17-30" transform="scale(0.996264)"/>
       <use xlink:href="#CMMI12-3a" transform="translate(45.690477 0)scale(0.996264)"/>
       <use xlink:href="#CMR17-30" transform="translate(72.787654 0)scale(0.996264)"/>
       <use xlink:href="#CMR17-34" transform="translate(118.478131 0)scale(0.996264)"/>
      </g>
     </g>
    </g>
    <g id="text_7">
     <!-- $T$ (s) -->
     <g transform="translate(225.057523 334.911657)scale(0.1 -0.1)">
      <defs>
       <path id="CMMI12-54" d="M 2669 3910 
C 2707 4064 2720 4121 2816 4147 
C 2867 4160 3078 4160 3213 4160 
C 3853 4160 4154 4134 4154 3634 
C 4154 3537 4128 3295 4090 3057 
L 4083 2980 
C 4083 2954 4109 2916 4147 2916 
C 4211 2916 4211 2948 4230 3050 
L 4416 4184 
C 4429 4243 4429 4256 4429 4275 
C 4429 4345 4390 4345 4262 4345 
L 762 4345 
C 614 4345 608 4339 570 4224 
L 179 3070 
C 173 3056 154 2986 154 2980 
C 154 2948 179 2916 218 2916 
C 269 2916 282 2941 307 3024 
C 576 3801 710 4160 1562 4160 
L 1990 4160 
C 2144 4160 2208 4160 2208 4089 
C 2208 4069 2208 4057 2176 3941 
L 1318 499 
C 1254 249 1242 185 563 185 
C 403 185 358 185 358 64 
C 358 0 429 0 461 0 
C 621 0 787 0 947 0 
L 1946 0 
C 2106 0 2278 0 2438 0 
C 2509 0 2573 0 2573 121 
C 2573 185 2528 185 2362 185 
C 1786 185 1786 243 1786 339 
C 1786 346 1786 391 1811 494 
L 2669 3910 
z
" transform="scale(0.015625)"/>
       <path id="CMR17-28" d="M 1958 -1561 
C 1958 -1555 1958 -1542 1939 -1523 
C 1645 -1224 858 -407 858 1581 
C 858 3569 1632 4379 1946 4697 
C 1946 4704 1958 4717 1958 4736 
C 1958 4755 1939 4768 1914 4768 
C 1843 4768 1299 4296 986 3594 
C 666 2887 576 2199 576 1588 
C 576 1128 621 351 1005 -471 
C 1312 -1135 1837 -1600 1914 -1600 
C 1946 -1600 1958 -1587 1958 -1561 
z
" transform="scale(0.015625)"/>
       <path id="CMR17-73" d="M 1978 2697 
C 1978 2813 1971 2819 1933 2819 
C 1907 2819 1901 2813 1824 2717 
C 1805 2691 1747 2626 1728 2601 
C 1523 2819 1235 2819 1126 2819 
C 416 2819 160 2447 160 2076 
C 160 1498 813 1365 998 1325 
C 1402 1243 1542 1217 1677 1101 
C 1760 1025 1901 884 1901 654 
C 1901 384 1747 38 1158 38 
C 602 38 403 460 288 1021 
C 269 1110 269 1117 218 1117 
C 166 1117 160 1110 160 983 
L 160 63 
C 160 -51 166 -58 205 -58 
C 237 -58 243 -51 275 0 
C 314 57 410 211 448 276 
C 576 103 800 -64 1158 -64 
C 1792 -64 2131 283 2131 784 
C 2131 1112 1958 1285 1875 1362 
C 1683 1561 1459 1606 1190 1657 
C 838 1735 390 1825 390 2217 
C 390 2383 480 2737 1126 2737 
C 1811 2737 1850 2094 1862 1888 
C 1869 1856 1901 1849 1920 1849 
C 1978 1849 1978 1869 1978 1978 
L 1978 2697 
z
" transform="scale(0.015625)"/>
       <path id="CMR17-29" d="M 1683 1581 
C 1683 2040 1638 2817 1254 3639 
C 947 4303 422 4768 346 4768 
C 326 4768 301 4761 301 4729 
C 301 4717 307 4710 314 4697 
C 621 4378 1402 3568 1402 1584 
C 1402 -407 627 -1217 314 -1537 
C 307 -1549 301 -1556 301 -1568 
C 301 -1600 326 -1600 346 -1600 
C 416 -1600 960 -1128 1274 -426 
C 1594 281 1683 969 1683 1581 
z
" transform="scale(0.015625)"/>
      </defs>
      <use xlink:href="#CMMI12-54" transform="scale(0.996264)"/>
      <use xlink:href="#CMR17-28" transform="translate(100.799599 0)scale(0.996264)"/>
      <use xlink:href="#CMR17-73" transform="translate(136.080366 0)scale(0.996264)"/>
      <use xlink:href="#CMR17-29" transform="translate(171.881704 0)scale(0.996264)"/>
     </g>
    </g>
   </g>
   <g id="matplotlib.axis_2">
    <g id="ytick_1">
     <g id="line2d_7">
      <defs>
       <path id="mf54e31f2f9" d="M 0 0 
L -3.5 0 
" style="stroke: #000000; stroke-width: 0.8"/>
      </defs>
      <g>
       <use xlink:href="#mf54e31f2f9" x="57.6" y="264.183551" style="stroke: #000000; stroke-width: 0.8"/>
      </g>
     </g>
     <g id="text_8">
      <!-- $\mathdefault{−15}$ -->
      <g transform="translate(32.888586 267.642801)scale(0.1 -0.1)">
       <defs>
        <path id="CMR17-31" d="M 1702 4058 
C 1702 4192 1696 4192 1606 4192 
C 1357 3916 979 3827 621 3827 
C 602 3827 570 3827 563 3808 
C 557 3795 557 3782 557 3648 
C 755 3648 1088 3686 1344 3839 
L 1344 461 
C 1344 236 1331 160 781 160 
L 589 160 
L 589 0 
C 896 0 1216 0 1523 0 
C 1830 0 2150 0 2458 0 
L 2458 160 
L 2266 160 
C 1715 160 1702 230 1702 458 
L 1702 4058 
z
" transform="scale(0.015625)"/>
        <path id="CMR17-35" d="M 730 3692 
C 794 3666 1056 3584 1325 3584 
C 1920 3584 2246 3911 2432 4100 
C 2432 4157 2432 4192 2394 4192 
C 2387 4192 2374 4192 2323 4163 
C 2099 4058 1837 3973 1517 3973 
C 1325 3973 1037 3999 723 4139 
C 653 4171 640 4171 634 4171 
C 602 4171 595 4164 595 4037 
L 595 2203 
C 595 2089 595 2057 659 2057 
C 691 2057 704 2070 736 2114 
C 941 2401 1222 2522 1542 2522 
C 1766 2522 2246 2382 2246 1289 
C 2246 1085 2246 715 2054 421 
C 1894 159 1645 25 1370 25 
C 947 25 518 320 403 814 
C 429 807 480 795 506 795 
C 589 795 749 840 749 1038 
C 749 1210 627 1280 506 1280 
C 358 1280 262 1190 262 1011 
C 262 454 704 -128 1382 -128 
C 2042 -128 2669 440 2669 1264 
C 2669 2030 2170 2624 1549 2624 
C 1222 2624 947 2503 730 2274 
L 730 3692 
z
" transform="scale(0.015625)"/>
       </defs>
       <use xlink:href="#CMSY10-0" transform="scale(0.996264)"/>
       <use xlink:href="#CMR17-31" transform="translate(77.487468 0)scale(0.996264)"/>
       <use xlink:href="#CMR17-35" transform="translate(123.177945 0)scale(0.996264)"/>
      </g>
     </g>
    </g>
    <g id="ytick_2">
     <g id="line2d_8">
      <g>
       <use xlink:href="#mf54e31f2f9" x="57.6" y="216.041472" style="stroke: #000000; stroke-width: 0.8"/>
      </g>
     </g>
     <g id="text_9">
      <!-- $\mathdefault{−10}$ -->
      <g transform="translate(32.888586 219.500721)scale(0.1 -0.1)">
       <use xlink:href="#CMSY10-0" transform="scale(0.996264)"/>
       <use xlink:href="#CMR17-31" transform="translate(77.487468 0)scale(0.996264)"/>
       <use xlink:href="#CMR17-30" transform="translate(123.177945 0)scale(0.996264)"/>
      </g>
     </g>
    </g>
    <g id="ytick_3">
     <g id="line2d_9">
      <g>
       <use xlink:href="#mf54e31f2f9" x="57.6" y="167.899392" style="stroke: #000000; stroke-width: 0.8"/>
      </g>
     </g>
     <g id="text_10">
      <!-- $\mathdefault{−5}$ -->
      <g transform="translate(37.869921 171.358641)scale(0.1 -0.1)">
       <use xlink:href="#CMSY10-0" transform="scale(0.996264)"/>
       <use xlink:href="#CMR17-35" transform="translate(77.487468 0)scale(0.996264)"/>
      </g>
     </g>
    </g>
    <g id="ytick_4">
     <g id="line2d_10">
      <g>
       <use xlink:href="#mf54e31f2f9" x="57.6" y="119.757313" style="stroke: #000000; stroke-width: 0.8"/>
      </g>
     </g>
     <g id="text_11">
      <!-- $\mathdefault{0}$ -->
      <g transform="translate(45.618665 123.216562)scale(0.1 -0.1)">
       <use xlink:href="#CMR17-30" transform="scale(0.996264)"/>
      </g>
     </g>
    </g>
    <g id="ytick_5">
     <g id="line2d_11">
      <g>
       <use xlink:href="#mf54e31f2f9" x="57.6" y="71.615233" style="stroke: #000000; stroke-width: 0.8"/>
      </g>
     </g>
     <g id="text_12">
      <!-- $\mathdefault{5}$ -->
      <g transform="translate(45.618665 75.074482)scale(0.1 -0.1)">
       <use xlink:href="#CMR17-35" transform="scale(0.996264)"/>
      </g>
     </g>
    </g>
    <g id="text_13">
     <!-- $U$ (V) -->
     <g transform="translate(26.397926 187.743031)rotate(-90)scale(0.1 -0.1)">
      <defs>
       <path id="CMMI12-55" d="M 3238 1474 
C 3014 581 2272 57 1670 57 
C 1210 57 896 363 896 891 
C 896 916 896 1107 966 1387 
L 1594 3887 
C 1651 4103 1664 4167 2118 4167 
C 2234 4167 2298 4167 2298 4282 
C 2298 4352 2240 4352 2202 4352 
C 2086 4352 1952 4352 1830 4352 
L 1075 4352 
C 954 4352 819 4352 698 4352 
C 653 4352 576 4352 576 4231 
C 576 4167 621 4167 742 4167 
C 1126 4167 1126 4116 1126 4046 
C 1126 4008 1082 3824 1050 3715 
L 493 1488 
C 474 1418 435 1246 435 1075 
C 435 374 941 -128 1638 -128 
C 2285 -128 3002 384 3328 1197 
C 3373 1305 3430 1530 3469 1702 
C 3533 1933 3667 2496 3712 2662 
L 3955 3623 
C 4038 3956 4090 4167 4653 4167 
C 4704 4173 4730 4224 4730 4282 
C 4730 4352 4672 4352 4646 4352 
C 4557 4352 4442 4352 4352 4352 
L 4051 4352 
C 3654 4352 3450 4352 3443 4352 
C 3405 4352 3328 4352 3328 4231 
C 3328 4167 3379 4167 3424 4167 
C 3808 4167 3834 4020 3834 3905 
C 3834 3848 3834 3828 3808 3739 
L 3238 1474 
z
" transform="scale(0.015625)"/>
       <path id="CMR17-56" d="M 3776 3745 
C 3834 3886 3936 4160 4365 4160 
L 4365 4332 
C 4218 4319 4051 4319 3891 4319 
C 3738 4319 3475 4319 3328 4332 
L 3328 4160 
C 3648 4160 3661 3936 3661 3898 
C 3661 3827 3642 3783 3622 3732 
L 2362 446 
L 1043 3886 
C 1024 3931 1011 3963 1011 3994 
C 1011 4160 1267 4160 1402 4160 
L 1402 4319 
C 1197 4319 896 4319 685 4319 
C 518 4319 218 4319 64 4332 
L 64 4160 
C 435 4160 506 4135 582 3931 
L 2106 -26 
C 2138 -115 2144 -128 2214 -128 
C 2285 -128 2291 -115 2323 -26 
L 3776 3745 
z
" transform="scale(0.015625)"/>
      </defs>
      <use xlink:href="#CMMI12-55" transform="scale(0.996264)"/>
      <use xlink:href="#CMR17-28" transform="translate(106.734739 0)scale(0.996264)"/>
      <use xlink:href="#CMR17-56" transform="translate(142.015507 0)scale(0.996264)"/>
      <use xlink:href="#CMR17-29" transform="translate(211.087937 0)scale(0.996264)"/>
     </g>
    </g>
   </g>
   <g id="line2d_12">
    <path d="M 73.832727 123.24096 
L 76.431263 123.24096 
L 76.593671 123.96672 
L 76.75608 123.24096 
L 76.918488 123.24096 
L 77.080897 123.96672 
L 77.243305 123.24096 
L 88.287082 123.24096 
L 88.44949 124.45056 
L 88.611899 123.24096 
L 90.073575 123.24096 
L 90.235983 124.45056 
L 90.398392 123.24096 
L 94.133787 123.24096 
L 94.296195 124.45056 
L 94.458604 123.24096 
L 100.630126 123.24096 
L 100.792534 123.96672 
L 100.954943 123.24096 
L 101.27976 123.24096 
L 101.442168 124.45056 
L 101.604577 123.24096 
L 102.903845 123.24096 
L 103.066253 124.45056 
L 103.228662 123.24096 
L 104.203112 123.24096 
L 104.365521 123.96672 
L 104.527929 123.24096 
L 106.476831 123.24096 
L 106.63924 124.45056 
L 106.801648 123.24096 
L 110.049818 123.24096 
L 110.212226 123.96672 
L 110.374635 123.24096 
L 124.341764 123.24096 
L 124.504172 122.03136 
L 124.666581 123.24096 
L 127.589933 123.24096 
L 127.752342 124.45056 
L 127.91475 123.24096 
L 128.077159 124.45056 
L 128.239567 123.24096 
L 130.188469 123.24096 
L 130.350877 123.96672 
L 130.513286 123.24096 
L 134.411089 123.24096 
L 134.573498 123.96672 
L 134.735906 123.24096 
L 137.172033 123.24096 
L 137.334442 123.96672 
L 137.49685 123.24096 
L 142.369105 123.24096 
L 142.531513 123.96672 
L 142.693922 123.24096 
L 148.378218 123.24096 
L 148.540627 124.45056 
L 148.703035 123.24096 
L 154.54974 123.24096 
L 154.874557 124.45056 
L 155.036966 123.24096 
L 160.558854 123.24096 
L 160.721262 124.45056 
L 160.883671 123.24096 
L 164.456657 123.24096 
L 164.619066 124.45056 
L 164.781474 123.24096 
L 165.593517 123.24096 
L 165.755925 124.45056 
L 165.918334 123.24096 
L 171.765039 123.24096 
L 171.927447 123.96672 
L 172.089856 123.24096 
L 176.637293 123.24096 
L 176.799702 122.03136 
L 176.96211 123.24096 
L 182.483998 123.24096 
L 182.646407 123.96672 
L 182.808815 123.24096 
L 186.056985 123.24096 
L 186.219393 124.45056 
L 186.381802 123.24096 
L 190.442014 123.24096 
L 190.604422 123.96672 
L 190.766831 123.24096 
L 197.100761 123.24096 
L 197.26317 123.96672 
L 197.425578 123.24096 
L 199.37448 123.24096 
L 199.536888 122.03136 
L 199.699297 123.24096 
L 201.48579 123.24096 
L 201.648199 123.96672 
L 201.810607 123.24096 
L 211.230299 123.24096 
L 211.392707 124.45056 
L 211.555116 123.24096 
L 213.828834 123.24096 
L 213.991243 123.96672 
L 214.153651 123.24096 
L 214.965694 123.24096 
L 215.128102 123.96672 
L 215.290511 123.24096 
L 216.914595 123.24096 
L 217.077004 124.45056 
L 217.239412 123.24096 
L 217.401821 123.96672 
L 217.564229 123.24096 
L 220.000357 123.24096 
L 220.162765 124.45056 
L 220.325173 123.24096 
L 227.471146 123.24096 
L 227.633555 123.96672 
L 227.795963 123.24096 
L 228.12078 123.24096 
L 228.283189 124.45056 
L 228.445597 123.24096 
L 240.626233 123.24096 
L 240.788642 124.45056 
L 240.95105 123.24096 
L 242.087909 123.24096 
L 242.250318 124.45056 
L 242.412726 123.24096 
L 242.899952 123.24096 
L 243.06236 124.45056 
L 243.224769 123.24096 
L 243.711994 123.24096 
L 243.874403 123.96672 
L 244.036811 123.24096 
L 245.985713 123.24096 
L 246.472938 127.11168 
L 246.635347 129.04704 
L 247.447389 146.46528 
L 247.609798 148.40064 
L 249.396291 192.91392 
L 249.883516 213.47712 
L 251.182784 291.61728 
L 251.345193 295.488 
L 251.507601 295.488 
L 252.319643 276.1344 
L 252.806869 256.7808 
L 254.106137 241.29792 
L 254.755771 223.87968 
L 255.405405 203.80032 
L 255.730221 197.99424 
L 256.055038 194.84928 
L 256.867081 183.96288 
L 258.653574 156.14208 
L 259.465616 145.25568 
L 260.11525 132.91776 
L 260.602476 123.24096 
L 260.764884 120.096 
L 261.089701 111.6288 
L 262.551378 78.72768 
L 262.876194 74.1312 
L 263.201011 69.05088 
L 263.688237 63.2448 
L 263.850645 63.2448 
L 264.175462 61.30944 
L 264.337871 59.37408 
L 264.500279 59.37408 
L 265.799547 53.568 
L 266.286772 53.568 
L 266.449181 55.50336 
L 266.611589 54.29376 
L 266.773998 55.50336 
L 266.936406 55.50336 
L 267.261223 57.43872 
L 267.423632 57.43872 
L 267.58604 59.37408 
L 267.748449 59.37408 
L 268.235674 62.0352 
L 268.885308 66.38976 
L 269.047717 67.11552 
L 269.372534 69.77664 
L 270.022167 74.85696 
L 270.184576 76.79232 
L 270.346984 76.79232 
L 270.671801 78.72768 
L 271.159027 83.32416 
L 271.483844 86.46912 
L 271.646252 88.40448 
L 271.808661 88.40448 
L 272.458295 94.93632 
L 273.107929 100.01664 
L 273.757562 106.54848 
L 274.407196 111.6288 
L 274.894422 117.43488 
L 275.05683 117.43488 
L 275.544056 123.24096 
L 275.706464 123.24096 
L 276.19369 127.83744 
L 276.518507 130.9824 
L 276.843323 133.64352 
L 277.492957 138.72384 
L 277.817774 141.8688 
L 277.980183 142.59456 
L 278.142591 144.52992 
L 278.305 144.52992 
L 278.629817 147.67488 
L 278.792225 148.40064 
L 278.954634 150.336 
L 279.117042 150.336 
L 279.279451 152.27136 
L 279.441859 152.27136 
L 279.604268 154.20672 
L 279.766676 154.20672 
L 280.741127 158.07744 
L 280.903535 160.0128 
L 281.228352 160.0128 
L 281.390761 161.94816 
L 281.553169 161.2224 
L 281.715578 161.94816 
L 282.040395 161.94816 
L 282.202803 163.15776 
L 282.365212 162.67392 
L 282.52762 163.88352 
L 284.314113 163.88352 
L 284.476522 161.94816 
L 284.63893 161.94816 
L 284.801339 163.15776 
L 284.963747 161.94816 
L 285.288564 161.94816 
L 285.613381 160.0128 
L 285.77579 161.2224 
L 285.938198 160.0128 
L 286.263015 160.0128 
L 286.587832 158.07744 
L 287.075058 158.07744 
L 287.237466 156.14208 
L 287.562283 156.14208 
L 288.049508 153.48096 
L 288.211917 152.27136 
L 288.374325 152.27136 
L 288.699142 150.336 
L 288.861551 150.336 
L 289.348776 148.40064 
L 289.511185 146.46528 
L 289.673593 146.46528 
L 290.160819 143.32032 
L 290.323227 142.59456 
L 290.648044 142.59456 
L 290.972861 140.6592 
L 291.135269 139.4496 
L 291.297678 139.4496 
L 291.460086 138.72384 
L 291.622495 138.72384 
L 291.784903 137.51424 
L 291.947312 137.99808 
L 292.10972 136.78848 
L 292.921763 136.78848 
L 293.084171 134.85312 
L 293.733805 134.85312 
L 293.896214 132.91776 
L 295.520298 132.91776 
L 295.682707 130.9824 
L 296.819566 130.9824 
L 296.981975 131.70816 
L 297.144383 130.9824 
L 299.093285 130.9824 
L 299.255693 132.192 
L 299.418102 132.192 
L 299.58051 130.9824 
L 299.905327 130.9824 
L 300.067736 131.70816 
L 300.230144 131.70816 
L 300.392553 130.9824 
L 300.554961 130.9824 
L 300.71737 132.192 
L 300.879778 130.9824 
L 302.666271 130.9824 
L 302.82868 132.192 
L 302.991088 130.9824 
L 304.777582 130.9824 
L 304.93999 130.25664 
L 305.102398 130.9824 
L 305.427215 130.9824 
L 305.589624 129.7728 
L 305.752032 130.25664 
L 305.914441 129.7728 
L 306.076849 130.25664 
L 306.239258 129.7728 
L 306.401666 129.7728 
L 306.564075 129.04704 
L 306.726483 130.9824 
L 307.0513 129.04704 
L 309.812244 129.04704 
L 310.137061 127.11168 
L 310.29947 127.83744 
L 310.461878 127.83744 
L 310.624287 127.11168 
L 310.786695 127.83744 
L 310.949104 127.11168 
L 311.273921 127.11168 
L 311.436329 127.83744 
L 311.598738 127.11168 
L 312.248371 127.11168 
L 312.41078 127.83744 
L 312.573188 127.11168 
L 315.009316 127.11168 
L 315.171724 125.90208 
L 315.334133 127.11168 
L 318.095077 127.11168 
L 318.257485 125.90208 
L 318.419894 127.11168 
L 318.744711 127.11168 
L 318.907119 125.90208 
L 319.069527 127.11168 
L 319.231936 127.11168 
L 319.394344 126.38592 
L 319.556753 127.11168 
L 319.719161 125.17632 
L 319.88157 127.11168 
L 320.043978 127.11168 
L 320.206387 125.90208 
L 320.368795 125.90208 
L 320.531204 127.11168 
L 320.693612 126.38592 
L 320.856021 127.11168 
L 321.343246 127.11168 
L 321.505655 126.38592 
L 321.668063 127.11168 
L 321.830472 126.38592 
L 321.99288 127.11168 
L 322.155289 127.11168 
L 322.317697 126.38592 
L 322.480106 127.11168 
L 322.804922 125.17632 
L 322.967331 127.11168 
L 323.129739 125.17632 
L 323.292148 125.17632 
L 323.454556 125.90208 
L 323.616965 125.17632 
L 323.779373 126.38592 
L 323.941782 125.17632 
L 324.10419 126.38592 
L 324.266599 126.38592 
L 324.429007 125.17632 
L 324.591416 126.38592 
L 324.753824 126.38592 
L 324.916233 125.17632 
L 325.403458 125.17632 
L 325.565867 125.90208 
L 325.728275 125.17632 
L 329.788487 125.17632 
L 329.950895 123.96672 
L 330.113304 125.17632 
L 330.275712 124.45056 
L 330.438121 125.17632 
L 330.925346 125.17632 
L 331.250163 123.24096 
L 331.412572 123.96672 
L 331.899797 123.96672 
L 332.062206 123.24096 
L 332.224614 123.24096 
L 332.387023 124.45056 
L 332.71184 123.24096 
L 332.874248 125.17632 
L 333.036657 123.96672 
L 333.199065 124.45056 
L 333.361473 123.24096 
L 337.746502 123.24096 
L 337.908911 122.03136 
L 338.071319 123.24096 
L 338.720953 123.24096 
L 338.883362 122.03136 
L 339.04577 122.03136 
L 339.208179 123.24096 
L 339.370587 123.24096 
L 339.532996 122.5152 
L 339.695404 123.24096 
L 340.020221 122.03136 
L 340.182629 122.03136 
L 340.345038 121.3056 
L 340.669855 122.5152 
L 340.832263 122.5152 
L 341.15708 121.3056 
L 341.319489 122.5152 
L 341.644306 122.5152 
L 341.806714 121.3056 
L 348.303053 121.3056 
L 348.465462 120.096 
L 348.62787 121.3056 
L 349.115096 121.3056 
L 349.277504 120.57984 
L 349.439913 121.3056 
L 350.251955 121.3056 
L 350.414364 120.096 
L 350.576772 121.3056 
L 350.901589 121.3056 
L 351.063997 120.096 
L 351.226406 120.096 
L 351.388814 121.3056 
L 352.525674 121.3056 
L 352.850491 119.37024 
L 353.012899 120.57984 
L 353.175308 119.37024 
L 353.500125 121.3056 
L 353.662533 121.3056 
L 353.824942 119.37024 
L 354.312167 119.37024 
L 354.474575 120.096 
L 354.636984 119.37024 
L 354.799392 121.3056 
L 354.961801 120.096 
L 355.124209 121.3056 
L 355.286618 119.37024 
L 355.449026 120.57984 
L 355.611435 119.37024 
L 355.773843 119.37024 
L 355.936252 121.3056 
L 356.261069 119.37024 
L 356.423477 120.096 
L 356.585886 119.37024 
L 356.748294 119.37024 
L 356.910703 120.57984 
L 357.23552 119.37024 
L 357.397928 120.57984 
L 357.560337 120.57984 
L 357.722745 119.37024 
L 357.885153 120.57984 
L 358.047562 119.37024 
L 366.005577 119.37024 
L 366.167986 118.64448 
L 366.330394 119.37024 
L 366.655211 119.37024 
L 366.81762 117.43488 
L 367.304845 119.37024 
L 367.467254 118.16064 
L 367.629662 118.16064 
L 367.792071 118.64448 
L 367.954479 118.16064 
L 368.116888 119.37024 
L 368.441704 118.16064 
L 368.604113 118.64448 
L 368.766521 117.43488 
L 369.903381 117.43488 
L 370.065789 118.16064 
L 370.228198 117.43488 
L 372.664325 117.43488 
L 372.826733 115.49952 
L 373.15155 117.43488 
L 373.963593 117.43488 
L 374.126001 115.49952 
L 374.28841 117.43488 
L 374.450818 116.70912 
L 374.613227 117.43488 
L 374.775635 116.70912 
L 374.938044 116.70912 
L 375.100452 117.43488 
L 375.425269 115.49952 
L 375.587677 116.70912 
L 375.750086 116.70912 
L 375.912494 115.49952 
L 376.074903 116.22528 
L 376.237311 115.49952 
L 377.049354 115.49952 
L 377.211762 116.22528 
L 377.374171 115.49952 
L 381.596791 115.49952 
L 381.7592 114.77376 
L 381.921608 115.49952 
L 382.084017 115.49952 
L 382.246425 114.28992 
L 382.408834 115.49952 
L 382.571242 115.49952 
L 382.73365 114.77376 
L 383.058467 114.77376 
L 383.220876 115.49952 
L 383.383284 114.77376 
L 383.545693 115.49952 
L 383.87051 113.56416 
L 384.032918 115.49952 
L 384.195327 115.49952 
L 384.520144 113.56416 
L 384.682552 114.77376 
L 384.844961 114.77376 
L 385.007369 113.56416 
L 385.332186 115.49952 
L 385.494595 115.49952 
L 385.657003 113.56416 
L 385.819412 115.49952 
L 385.98182 113.56416 
L 386.306637 114.77376 
L 386.469045 113.56416 
L 386.956271 113.56416 
L 387.281088 115.49952 
L 387.768313 113.56416 
L 387.930722 115.49952 
L 388.09313 115.49952 
L 388.255539 113.56416 
L 389.717215 113.56416 
L 389.879623 114.77376 
L 390.042032 113.56416 
L 390.691666 113.56416 
L 390.854074 112.35456 
L 391.016483 113.56416 
L 391.178891 113.56416 
L 391.3413 112.35456 
L 391.503708 113.56416 
L 391.828525 113.56416 
L 392.153342 112.35456 
L 392.315751 112.35456 
L 392.478159 113.56416 
L 392.640568 112.8384 
L 392.802976 113.56416 
L 392.965385 113.56416 
L 393.127793 111.6288 
L 393.290201 112.8384 
L 393.45261 111.6288 
L 393.615018 113.56416 
L 393.939835 111.6288 
L 394.102244 113.56416 
L 394.264652 112.8384 
L 394.427061 113.56416 
L 394.589469 112.35456 
L 394.751878 112.8384 
L 395.076695 111.6288 
L 395.239103 112.8384 
L 395.401512 112.8384 
L 395.56392 111.6288 
L 396.213554 111.6288 
L 396.375963 112.8384 
L 396.538371 111.6288 
L 397.837639 111.6288 
L 398.000047 112.35456 
L 398.162456 111.6288 
L 398.487273 111.6288 
L 398.487273 111.6288 
" clip-path="url(#p05f9e238ac)" style="fill: none; stroke: #1f77b4; stroke-width: 1.5; stroke-linecap: square"/>
   </g>
   <g id="patch_3">
    <path d="M 57.6 307.584 
L 57.6 41.472 
" style="fill: none; stroke: #000000; stroke-width: 0.8; stroke-linejoin: miter; stroke-linecap: square"/>
   </g>
   <g id="patch_4">
    <path d="M 414.72 307.584 
L 414.72 41.472 
" style="fill: none; stroke: #000000; stroke-width: 0.8; stroke-linejoin: miter; stroke-linecap: square"/>
   </g>
   <g id="patch_5">
    <path d="M 57.6 307.584 
L 414.72 307.584 
" style="fill: none; stroke: #000000; stroke-width: 0.8; stroke-linejoin: miter; stroke-linecap: square"/>
   </g>
   <g id="patch_6">
    <path d="M 57.6 41.472 
L 414.72 41.472 
" style="fill: none; stroke: #000000; stroke-width: 0.8; stroke-linejoin: miter; stroke-linecap: square"/>
   </g>
  </g>
 </g>
 <defs>
  <clipPath id="p05f9e238ac">
   <rect x="57.6" y="41.472" width="357.12" height="266.112"/>
  </clipPath>
 </defs>
</svg>
