<?xml version="1.0" encoding="utf-8" standalone="no"?>
<!DOCTYPE svg PUBLIC "-//W3C//DTD SVG 1.1//EN"
  "http://www.w3.org/Graphics/SVG/1.1/DTD/svg11.dtd">
<svg xmlns:xlink="http://www.w3.org/1999/xlink" width="460.8pt" height="345.6pt" viewBox="0 0 460.8 345.6" xmlns="http://www.w3.org/2000/svg" version="1.1">
 <metadata>
  <rdf:RDF xmlns:dc="http://purl.org/dc/elements/1.1/" xmlns:cc="http://creativecommons.org/ns#" xmlns:rdf="http://www.w3.org/1999/02/22-rdf-syntax-ns#">
   <cc:Work>
    <dc:type rdf:resource="http://purl.org/dc/dcmitype/StillImage"/>
    <dc:date>2022-05-20T09:34:29.439409</dc:date>
    <dc:format>image/svg+xml</dc:format>
    <dc:creator>
     <cc:Agent>
      <dc:title>Matplotlib v3.5.1, https://matplotlib.org/</dc:title>
     </cc:Agent>
    </dc:creator>
   </cc:Work>
  </rdf:RDF>
 </metadata>
 <defs>
  <style type="text/css">*{stroke-linejoin: round; stroke-linecap: butt}</style>
 </defs>
 <g id="figure_1">
  <g id="patch_1">
   <path d="M 0 345.6 
L 460.8 345.6 
L 460.8 0 
L 0 0 
z
" style="fill: #ffffff"/>
  </g>
  <g id="axes_1">
   <g id="patch_2">
    <path d="M 57.6 307.584 
L 414.72 307.584 
L 414.72 41.472 
L 57.6 41.472 
z
" style="fill: #ffffff"/>
   </g>
   <g id="matplotlib.axis_1">
    <g id="xtick_1">
     <g id="line2d_1">
      <defs>
       <path id="mec74ede264" d="M 0 0 
L 0 3.5 
" style="stroke: #000000; stroke-width: 0.8"/>
      </defs>
      <g>
       <use xlink:href="#mec74ede264" x="73.830563" y="307.584" style="stroke: #000000; stroke-width: 0.8"/>
      </g>
     </g>
     <g id="text_1">
      <!-- $\mathdefault{0}$ -->
      <g transform="translate(71.339895 321.502498)scale(0.1 -0.1)">
       <defs>
        <path id="CMR17-30" d="M 2688 2025 
C 2688 2416 2682 3080 2413 3591 
C 2176 4039 1798 4198 1466 4198 
C 1158 4198 768 4058 525 3597 
C 269 3118 243 2524 243 2025 
C 243 1661 250 1106 448 619 
C 723 -39 1216 -128 1466 -128 
C 1760 -128 2208 -7 2470 600 
C 2662 1042 2688 1559 2688 2025 
z
M 1466 -26 
C 1056 -26 813 325 723 812 
C 653 1188 653 1738 653 2096 
C 653 2588 653 2997 736 3387 
C 858 3929 1216 4096 1466 4096 
C 1728 4096 2067 3923 2189 3400 
C 2272 3036 2278 2607 2278 2096 
C 2278 1680 2278 1169 2202 792 
C 2067 95 1690 -26 1466 -26 
z
" transform="scale(0.015625)"/>
       </defs>
       <use xlink:href="#CMR17-30" transform="scale(0.996264)"/>
      </g>
     </g>
    </g>
    <g id="xtick_2">
     <g id="line2d_2">
      <g>
       <use xlink:href="#mec74ede264" x="117.118124" y="307.584" style="stroke: #000000; stroke-width: 0.8"/>
      </g>
     </g>
     <g id="text_2">
      <!-- $\mathdefault{100000}$ -->
      <g transform="translate(102.174118 321.502498)scale(0.1 -0.1)">
       <defs>
        <path id="CMR17-31" d="M 1702 4058 
C 1702 4192 1696 4192 1606 4192 
C 1357 3916 979 3827 621 3827 
C 602 3827 570 3827 563 3808 
C 557 3795 557 3782 557 3648 
C 755 3648 1088 3686 1344 3839 
L 1344 461 
C 1344 236 1331 160 781 160 
L 589 160 
L 589 0 
C 896 0 1216 0 1523 0 
C 1830 0 2150 0 2458 0 
L 2458 160 
L 2266 160 
C 1715 160 1702 230 1702 458 
L 1702 4058 
z
" transform="scale(0.015625)"/>
       </defs>
       <use xlink:href="#CMR17-31" transform="scale(0.996264)"/>
       <use xlink:href="#CMR17-30" transform="translate(45.690477 0)scale(0.996264)"/>
       <use xlink:href="#CMR17-30" transform="translate(91.380954 0)scale(0.996264)"/>
       <use xlink:href="#CMR17-30" transform="translate(137.071431 0)scale(0.996264)"/>
       <use xlink:href="#CMR17-30" transform="translate(182.761908 0)scale(0.996264)"/>
       <use xlink:href="#CMR17-30" transform="translate(228.452386 0)scale(0.996264)"/>
      </g>
     </g>
    </g>
    <g id="xtick_3">
     <g id="line2d_3">
      <g>
       <use xlink:href="#mec74ede264" x="160.405686" y="307.584" style="stroke: #000000; stroke-width: 0.8"/>
      </g>
     </g>
     <g id="text_3">
      <!-- $\mathdefault{200000}$ -->
      <g transform="translate(145.46168 321.502498)scale(0.1 -0.1)">
       <defs>
        <path id="CMR17-32" d="M 2669 989 
L 2554 989 
C 2490 536 2438 459 2413 420 
C 2381 369 1920 369 1830 369 
L 602 369 
C 832 619 1280 1072 1824 1597 
C 2214 1967 2669 2402 2669 3035 
C 2669 3790 2067 4224 1395 4224 
C 691 4224 262 3604 262 3030 
C 262 2780 448 2748 525 2748 
C 589 2748 781 2787 781 3010 
C 781 3207 614 3264 525 3264 
C 486 3264 448 3258 422 3245 
C 544 3790 915 4058 1306 4058 
C 1862 4058 2227 3617 2227 3035 
C 2227 2479 1901 2000 1536 1584 
L 262 146 
L 262 0 
L 2515 0 
L 2669 989 
z
" transform="scale(0.015625)"/>
       </defs>
       <use xlink:href="#CMR17-32" transform="scale(0.996264)"/>
       <use xlink:href="#CMR17-30" transform="translate(45.690477 0)scale(0.996264)"/>
       <use xlink:href="#CMR17-30" transform="translate(91.380954 0)scale(0.996264)"/>
       <use xlink:href="#CMR17-30" transform="translate(137.071431 0)scale(0.996264)"/>
       <use xlink:href="#CMR17-30" transform="translate(182.761908 0)scale(0.996264)"/>
       <use xlink:href="#CMR17-30" transform="translate(228.452386 0)scale(0.996264)"/>
      </g>
     </g>
    </g>
    <g id="xtick_4">
     <g id="line2d_4">
      <g>
       <use xlink:href="#mec74ede264" x="203.693247" y="307.584" style="stroke: #000000; stroke-width: 0.8"/>
      </g>
     </g>
     <g id="text_4">
      <!-- $\mathdefault{300000}$ -->
      <g transform="translate(188.749241 321.502498)scale(0.1 -0.1)">
       <defs>
        <path id="CMR17-33" d="M 1414 2157 
C 1984 2157 2234 1662 2234 1090 
C 2234 320 1824 25 1453 25 
C 1114 25 563 194 390 693 
C 422 680 454 680 486 680 
C 640 680 755 782 755 948 
C 755 1133 614 1216 486 1216 
C 378 1216 211 1165 211 926 
C 211 335 787 -128 1466 -128 
C 2176 -128 2720 430 2720 1085 
C 2720 1707 2208 2157 1600 2227 
C 2086 2328 2554 2756 2554 3329 
C 2554 3820 2048 4179 1472 4179 
C 890 4179 378 3829 378 3329 
C 378 3110 544 3072 627 3072 
C 762 3072 877 3155 877 3321 
C 877 3486 762 3569 627 3569 
C 602 3569 570 3569 544 3557 
C 730 3959 1235 4032 1459 4032 
C 1683 4032 2106 3925 2106 3320 
C 2106 3143 2080 2828 1862 2550 
C 1670 2304 1453 2304 1242 2284 
C 1210 2284 1062 2269 1037 2269 
C 992 2263 966 2257 966 2208 
C 966 2163 973 2157 1101 2157 
L 1414 2157 
z
" transform="scale(0.015625)"/>
       </defs>
       <use xlink:href="#CMR17-33" transform="scale(0.996264)"/>
       <use xlink:href="#CMR17-30" transform="translate(45.690477 0)scale(0.996264)"/>
       <use xlink:href="#CMR17-30" transform="translate(91.380954 0)scale(0.996264)"/>
       <use xlink:href="#CMR17-30" transform="translate(137.071431 0)scale(0.996264)"/>
       <use xlink:href="#CMR17-30" transform="translate(182.761908 0)scale(0.996264)"/>
       <use xlink:href="#CMR17-30" transform="translate(228.452386 0)scale(0.996264)"/>
      </g>
     </g>
    </g>
    <g id="xtick_5">
     <g id="line2d_5">
      <g>
       <use xlink:href="#mec74ede264" x="246.980808" y="307.584" style="stroke: #000000; stroke-width: 0.8"/>
      </g>
     </g>
     <g id="text_5">
      <!-- $\mathdefault{400000}$ -->
      <g transform="translate(232.036802 321.502498)scale(0.1 -0.1)">
       <defs>
        <path id="CMR17-34" d="M 2150 4122 
C 2150 4256 2144 4256 2029 4256 
L 128 1254 
L 128 1088 
L 1779 1088 
L 1779 457 
C 1779 224 1766 160 1318 160 
L 1197 160 
L 1197 0 
C 1402 0 1747 0 1965 0 
C 2182 0 2528 0 2733 0 
L 2733 160 
L 2611 160 
C 2163 160 2150 224 2150 457 
L 2150 1088 
L 2803 1088 
L 2803 1254 
L 2150 1254 
L 2150 4122 
z
M 1798 3703 
L 1798 1254 
L 256 1254 
L 1798 3703 
z
" transform="scale(0.015625)"/>
       </defs>
       <use xlink:href="#CMR17-34" transform="scale(0.996264)"/>
       <use xlink:href="#CMR17-30" transform="translate(45.690477 0)scale(0.996264)"/>
       <use xlink:href="#CMR17-30" transform="translate(91.380954 0)scale(0.996264)"/>
       <use xlink:href="#CMR17-30" transform="translate(137.071431 0)scale(0.996264)"/>
       <use xlink:href="#CMR17-30" transform="translate(182.761908 0)scale(0.996264)"/>
       <use xlink:href="#CMR17-30" transform="translate(228.452386 0)scale(0.996264)"/>
      </g>
     </g>
    </g>
    <g id="xtick_6">
     <g id="line2d_6">
      <g>
       <use xlink:href="#mec74ede264" x="290.268369" y="307.584" style="stroke: #000000; stroke-width: 0.8"/>
      </g>
     </g>
     <g id="text_6">
      <!-- $\mathdefault{500000}$ -->
      <g transform="translate(275.324364 321.502498)scale(0.1 -0.1)">
       <defs>
        <path id="CMR17-35" d="M 730 3692 
C 794 3666 1056 3584 1325 3584 
C 1920 3584 2246 3911 2432 4100 
C 2432 4157 2432 4192 2394 4192 
C 2387 4192 2374 4192 2323 4163 
C 2099 4058 1837 3973 1517 3973 
C 1325 3973 1037 3999 723 4139 
C 653 4171 640 4171 634 4171 
C 602 4171 595 4164 595 4037 
L 595 2203 
C 595 2089 595 2057 659 2057 
C 691 2057 704 2070 736 2114 
C 941 2401 1222 2522 1542 2522 
C 1766 2522 2246 2382 2246 1289 
C 2246 1085 2246 715 2054 421 
C 1894 159 1645 25 1370 25 
C 947 25 518 320 403 814 
C 429 807 480 795 506 795 
C 589 795 749 840 749 1038 
C 749 1210 627 1280 506 1280 
C 358 1280 262 1190 262 1011 
C 262 454 704 -128 1382 -128 
C 2042 -128 2669 440 2669 1264 
C 2669 2030 2170 2624 1549 2624 
C 1222 2624 947 2503 730 2274 
L 730 3692 
z
" transform="scale(0.015625)"/>
       </defs>
       <use xlink:href="#CMR17-35" transform="scale(0.996264)"/>
       <use xlink:href="#CMR17-30" transform="translate(45.690477 0)scale(0.996264)"/>
       <use xlink:href="#CMR17-30" transform="translate(91.380954 0)scale(0.996264)"/>
       <use xlink:href="#CMR17-30" transform="translate(137.071431 0)scale(0.996264)"/>
       <use xlink:href="#CMR17-30" transform="translate(182.761908 0)scale(0.996264)"/>
       <use xlink:href="#CMR17-30" transform="translate(228.452386 0)scale(0.996264)"/>
      </g>
     </g>
    </g>
    <g id="xtick_7">
     <g id="line2d_7">
      <g>
       <use xlink:href="#mec74ede264" x="333.555931" y="307.584" style="stroke: #000000; stroke-width: 0.8"/>
      </g>
     </g>
     <g id="text_7">
      <!-- $\mathdefault{600000}$ -->
      <g transform="translate(318.611925 321.502498)scale(0.1 -0.1)">
       <defs>
        <path id="CMR17-36" d="M 678 2176 
C 678 3690 1395 4032 1811 4032 
C 1946 4032 2272 4009 2400 3776 
C 2298 3776 2106 3776 2106 3553 
C 2106 3381 2246 3323 2336 3323 
C 2394 3323 2566 3348 2566 3560 
C 2566 3954 2246 4179 1805 4179 
C 1043 4179 243 3390 243 1984 
C 243 253 966 -128 1478 -128 
C 2099 -128 2688 427 2688 1283 
C 2688 2081 2170 2662 1517 2662 
C 1126 2662 838 2407 678 1960 
L 678 2176 
z
M 1478 25 
C 691 25 691 1200 691 1436 
C 691 1896 909 2560 1504 2560 
C 1613 2560 1926 2560 2138 2120 
C 2253 1870 2253 1609 2253 1289 
C 2253 944 2253 690 2118 434 
C 1978 171 1773 25 1478 25 
z
" transform="scale(0.015625)"/>
       </defs>
       <use xlink:href="#CMR17-36" transform="scale(0.996264)"/>
       <use xlink:href="#CMR17-30" transform="translate(45.690477 0)scale(0.996264)"/>
       <use xlink:href="#CMR17-30" transform="translate(91.380954 0)scale(0.996264)"/>
       <use xlink:href="#CMR17-30" transform="translate(137.071431 0)scale(0.996264)"/>
       <use xlink:href="#CMR17-30" transform="translate(182.761908 0)scale(0.996264)"/>
       <use xlink:href="#CMR17-30" transform="translate(228.452386 0)scale(0.996264)"/>
      </g>
     </g>
    </g>
    <g id="xtick_8">
     <g id="line2d_8">
      <g>
       <use xlink:href="#mec74ede264" x="376.843492" y="307.584" style="stroke: #000000; stroke-width: 0.8"/>
      </g>
     </g>
     <g id="text_8">
      <!-- $\mathdefault{700000}$ -->
      <g transform="translate(361.899486 321.502498)scale(0.1 -0.1)">
       <defs>
        <path id="CMR17-37" d="M 2886 3941 
L 2886 4081 
L 1382 4081 
C 634 4081 621 4165 595 4288 
L 480 4288 
L 294 3094 
L 410 3094 
C 429 3215 474 3540 550 3661 
C 589 3712 1062 3712 1171 3712 
L 2579 3712 
L 1869 2661 
C 1395 1954 1069 999 1069 165 
C 1069 89 1069 -128 1299 -128 
C 1530 -128 1530 89 1530 171 
L 1530 465 
C 1530 1508 1709 2196 2003 2636 
L 2886 3941 
z
" transform="scale(0.015625)"/>
       </defs>
       <use xlink:href="#CMR17-37" transform="scale(0.996264)"/>
       <use xlink:href="#CMR17-30" transform="translate(45.690477 0)scale(0.996264)"/>
       <use xlink:href="#CMR17-30" transform="translate(91.380954 0)scale(0.996264)"/>
       <use xlink:href="#CMR17-30" transform="translate(137.071431 0)scale(0.996264)"/>
       <use xlink:href="#CMR17-30" transform="translate(182.761908 0)scale(0.996264)"/>
       <use xlink:href="#CMR17-30" transform="translate(228.452386 0)scale(0.996264)"/>
      </g>
     </g>
    </g>
   </g>
   <g id="matplotlib.axis_2">
    <g id="ytick_1">
     <g id="line2d_9">
      <defs>
       <path id="me806cf7f07" d="M 0 0 
L -3.5 0 
" style="stroke: #000000; stroke-width: 0.8"/>
      </defs>
      <g>
       <use xlink:href="#me806cf7f07" x="57.6" y="295.774581" style="stroke: #000000; stroke-width: 0.8"/>
      </g>
     </g>
     <g id="text_9">
      <!-- $\mathdefault{0}$ -->
      <g transform="translate(45.618665 299.23383)scale(0.1 -0.1)">
       <use xlink:href="#CMR17-30" transform="scale(0.996264)"/>
      </g>
     </g>
    </g>
    <g id="ytick_2">
     <g id="line2d_10">
      <g>
       <use xlink:href="#me806cf7f07" x="57.6" y="249.364345" style="stroke: #000000; stroke-width: 0.8"/>
      </g>
     </g>
     <g id="text_10">
      <!-- $\mathdefault{10}$ -->
      <g transform="translate(40.637329 252.823594)scale(0.1 -0.1)">
       <use xlink:href="#CMR17-31" transform="scale(0.996264)"/>
       <use xlink:href="#CMR17-30" transform="translate(45.690477 0)scale(0.996264)"/>
      </g>
     </g>
    </g>
    <g id="ytick_3">
     <g id="line2d_11">
      <g>
       <use xlink:href="#me806cf7f07" x="57.6" y="202.954109" style="stroke: #000000; stroke-width: 0.8"/>
      </g>
     </g>
     <g id="text_11">
      <!-- $\mathdefault{20}$ -->
      <g transform="translate(40.637329 206.413358)scale(0.1 -0.1)">
       <use xlink:href="#CMR17-32" transform="scale(0.996264)"/>
       <use xlink:href="#CMR17-30" transform="translate(45.690477 0)scale(0.996264)"/>
      </g>
     </g>
    </g>
    <g id="ytick_4">
     <g id="line2d_12">
      <g>
       <use xlink:href="#me806cf7f07" x="57.6" y="156.543873" style="stroke: #000000; stroke-width: 0.8"/>
      </g>
     </g>
     <g id="text_12">
      <!-- $\mathdefault{30}$ -->
      <g transform="translate(40.637329 160.003122)scale(0.1 -0.1)">
       <use xlink:href="#CMR17-33" transform="scale(0.996264)"/>
       <use xlink:href="#CMR17-30" transform="translate(45.690477 0)scale(0.996264)"/>
      </g>
     </g>
    </g>
    <g id="ytick_5">
     <g id="line2d_13">
      <g>
       <use xlink:href="#me806cf7f07" x="57.6" y="110.133637" style="stroke: #000000; stroke-width: 0.8"/>
      </g>
     </g>
     <g id="text_13">
      <!-- $\mathdefault{40}$ -->
      <g transform="translate(40.637329 113.592886)scale(0.1 -0.1)">
       <use xlink:href="#CMR17-34" transform="scale(0.996264)"/>
       <use xlink:href="#CMR17-30" transform="translate(45.690477 0)scale(0.996264)"/>
      </g>
     </g>
    </g>
    <g id="ytick_6">
     <g id="line2d_14">
      <g>
       <use xlink:href="#me806cf7f07" x="57.6" y="63.7234" style="stroke: #000000; stroke-width: 0.8"/>
      </g>
     </g>
     <g id="text_14">
      <!-- $\mathdefault{50}$ -->
      <g transform="translate(40.637329 67.18265)scale(0.1 -0.1)">
       <use xlink:href="#CMR17-35" transform="scale(0.996264)"/>
       <use xlink:href="#CMR17-30" transform="translate(45.690477 0)scale(0.996264)"/>
      </g>
     </g>
    </g>
   </g>
   <g id="line2d_15">
    <path d="M 73.832727 281.228729 
L 73.995217 281.902785 
L 74.157707 291.993789 
L 74.320197 286.622244 
L 74.482686 286.615592 
L 74.645176 291.319048 
L 74.807666 281.902785 
L 75.132645 291.319048 
L 75.295135 281.892704 
L 75.457625 285.948188 
L 75.620115 286.622244 
L 75.782604 281.228729 
L 75.945094 281.902785 
L 76.107584 276.606729 
L 76.270074 286.622244 
L 76.432563 286.622244 
L 76.595053 291.319048 
L 76.757543 290.641549 
L 77.082523 292.013026 
L 77.245012 286.622244 
L 77.407502 291.319048 
L 77.732482 281.902785 
L 77.894971 281.902785 
L 78.057461 282.567249 
L 78.219951 291.319048 
L 78.382441 291.315794 
L 78.54493 281.902785 
L 78.70742 291.993789 
L 78.86991 287.290137 
L 79.194889 285.955054 
L 79.357379 286.575471 
L 79.519869 286.622244 
L 79.682359 287.290137 
L 79.844848 281.972959 
L 80.007338 283.305507 
L 80.169828 286.622244 
L 80.332318 287.290137 
L 80.494808 291.993789 
L 80.657297 281.902785 
L 80.819787 291.319048 
L 80.982277 287.246746 
L 81.144767 290.641549 
L 81.307256 286.622244 
L 81.469746 291.315794 
L 81.632236 291.315794 
L 81.794726 281.902785 
L 81.957215 287.246746 
L 82.119705 286.622244 
L 82.282195 291.993789 
L 82.444685 282.63411 
L 82.607174 286.622244 
L 82.769664 281.972959 
L 82.932154 290.645024 
L 83.094644 291.341703 
L 83.419623 281.972959 
L 83.582113 287.964951 
L 83.744603 286.622244 
L 83.907093 287.246746 
L 84.069582 285.948188 
L 84.232072 285.948188 
L 84.394562 287.290137 
L 84.557052 287.246746 
L 84.719541 286.568751 
L 84.882031 294.803363 
L 85.044521 292.013026 
L 85.207011 285.904908 
L 85.3695 292.013026 
L 85.53199 285.948188 
L 85.69448 285.948188 
L 85.85697 287.290137 
L 86.019459 285.948188 
L 86.181949 292.672053 
L 86.344439 286.622244 
L 86.506929 287.246746 
L 86.669419 292.013026 
L 86.831908 281.96298 
L 86.994398 286.622244 
L 87.156888 286.615592 
L 87.319378 287.290137 
L 87.644357 287.290137 
L 87.806847 291.993789 
L 87.969337 287.959269 
L 88.131826 287.284233 
L 88.294316 290.641549 
L 88.456806 286.615592 
L 88.619296 291.315794 
L 88.781785 291.319048 
L 88.944275 281.228729 
L 89.106765 286.622244 
L 89.431744 286.622244 
L 89.594234 281.972959 
L 89.756724 286.575471 
L 89.919214 277.264 
L 90.081704 285.948188 
L 90.244193 286.615592 
L 90.406683 285.897971 
L 90.569173 286.568751 
L 90.731663 285.948188 
L 90.894152 286.575471 
L 91.056642 291.292873 
L 91.219132 282.567249 
L 91.381622 286.568751 
L 91.544111 285.897971 
L 91.706601 286.615592 
L 91.869091 290.641549 
L 92.031581 287.290137 
L 92.19407 286.622244 
L 92.35656 281.892704 
L 92.51905 290.645024 
L 92.68154 286.622244 
L 92.844029 291.993789 
L 93.006519 286.568751 
L 93.169009 291.319048 
L 93.331499 282.567249 
L 93.493989 291.319048 
L 93.656478 282.567249 
L 93.818968 290.641549 
L 94.143948 282.567249 
L 94.306437 291.993789 
L 94.468927 287.246746 
L 94.631417 291.993789 
L 94.956396 281.902785 
L 95.281376 291.993789 
L 95.443866 285.948188 
L 95.606355 287.246746 
L 95.768845 287.246746 
L 95.931335 286.622244 
L 96.093825 287.290137 
L 96.256314 291.319048 
L 96.418804 286.622244 
L 96.581294 286.622244 
L 96.743784 287.290137 
L 96.906274 291.993789 
L 97.068763 291.993789 
L 97.231253 287.246746 
L 97.393743 286.622244 
L 97.556233 286.575471 
L 97.718722 287.24078 
L 97.881212 281.902785 
L 98.043702 287.290137 
L 98.206192 281.892704 
L 98.368681 291.315794 
L 98.531171 290.667647 
L 98.693661 287.246746 
L 98.856151 291.319048 
L 99.01864 286.622244 
L 99.18113 295.385126 
L 99.50611 286.622244 
L 99.6686 286.622244 
L 99.831089 292.013026 
L 99.993579 286.622244 
L 100.156069 291.315794 
L 100.318559 287.290137 
L 100.481048 291.315794 
L 100.643538 282.567249 
L 100.806028 295.488 
L 101.131007 282.567249 
L 101.293497 286.568751 
L 101.455987 287.290137 
L 101.618477 281.972959 
L 101.780966 286.622244 
L 101.943456 286.622244 
L 102.105946 291.319048 
L 102.268436 286.622244 
L 102.430925 287.290137 
L 102.593415 291.319048 
L 102.755905 281.972959 
L 103.243374 295.485056 
L 103.405864 287.246746 
L 103.568354 291.319048 
L 103.730844 291.319048 
L 103.893333 286.622244 
L 104.055823 286.575471 
L 104.218313 285.897971 
L 104.380803 286.575471 
L 104.543292 285.948188 
L 104.705782 291.315794 
L 104.868272 282.567249 
L 105.030762 291.319048 
L 105.193251 282.567249 
L 105.355741 287.290137 
L 105.518231 282.567249 
L 105.680721 286.575471 
L 105.84321 287.246746 
L 106.0057 286.622244 
L 106.16819 291.319048 
L 106.33068 286.575471 
L 106.49317 286.622244 
L 106.655659 287.290137 
L 106.818149 194.169903 
L 106.980639 194.71355 
L 107.305618 130.723079 
L 107.630598 103.63275 
L 107.955577 86.707758 
L 108.605536 66.419937 
L 108.768026 74.940648 
L 108.930516 64.575704 
L 109.093006 64.046038 
L 109.255495 64.575704 
L 109.417985 64.046038 
L 109.580475 59.809549 
L 109.742965 62.585278 
L 109.905455 62.983697 
L 110.067944 58.727571 
L 110.230434 61.376864 
L 110.392924 61.376864 
L 110.555414 57.63568 
L 110.717903 60.829146 
L 110.880393 57.469636 
L 111.042883 60.139211 
L 111.205373 55.960686 
L 111.367862 55.421384 
L 111.530352 58.231019 
L 111.692842 58.092303 
L 111.855332 57.116739 
L 112.017821 56.976934 
L 112.180311 57.521298 
L 112.342801 53.568 
L 112.505291 56.39814 
L 112.667781 56.80426 
L 112.83027 58.678429 
L 112.99276 58.126401 
L 113.15525 61.426986 
L 113.31774 57.40276 
L 113.480229 60.301684 
L 113.642719 57.229068 
L 113.805209 56.671068 
L 113.967699 60.00067 
L 114.130188 60.00067 
L 114.292678 58.436794 
L 114.455168 58.436794 
L 114.617658 61.805278 
L 114.780147 60.658859 
L 114.942637 60.658859 
L 115.105127 63.072314 
L 115.267617 59.501208 
L 115.430106 59.501208 
L 115.592596 56.955437 
L 115.917576 61.767009 
L 116.080066 60.759367 
L 116.242555 58.157503 
L 116.405045 57.580296 
L 116.730025 64.078564 
L 116.892514 59.850988 
L 117.055004 62.908898 
L 117.217494 58.659287 
L 117.379984 63.201206 
L 117.542473 62.168026 
L 117.704963 65.414099 
L 118.029943 65.267464 
L 118.192432 65.712399 
L 118.354922 69.438209 
L 118.517412 76.782147 
L 118.679902 77.238976 
L 118.842391 77.238976 
L 119.004881 78.294487 
L 119.167371 88.386761 
L 119.329861 85.721344 
L 119.492351 92.763358 
L 119.65484 89.92997 
L 119.81733 93.237626 
L 119.97982 101.455301 
L 120.14231 101.93797 
L 120.304799 101.93797 
L 120.467289 103.031955 
L 120.629779 110.730388 
L 120.792269 107.307335 
L 120.954758 115.298247 
L 121.117248 116.133934 
L 121.279738 124.551209 
L 121.442228 124.551209 
L 121.604717 125.167926 
L 121.767207 133.558234 
L 121.929697 129.992494 
L 122.417166 142.662513 
L 122.579656 147.02692 
L 122.742146 147.650265 
L 122.904636 152.394825 
L 123.067125 151.86471 
L 123.229615 152.394825 
L 123.392105 161.167343 
L 123.554595 160.628757 
L 123.717084 161.167343 
L 123.879574 165.590509 
L 124.042064 166.751812 
L 124.204554 171.204937 
L 124.367043 171.204937 
L 124.529533 175.089671 
L 124.692023 176.193011 
L 125.017002 180.710331 
L 125.179492 181.265951 
L 125.341982 189.636264 
L 125.504472 189.636264 
L 125.829451 190.838575 
L 125.991941 194.245962 
L 126.154431 194.245962 
L 126.316921 195.457008 
L 126.6419 203.983307 
L 126.80439 199.941917 
L 126.96688 199.941917 
L 127.129369 204.563954 
L 127.291859 205.004971 
L 127.454349 209.718135 
L 127.616839 209.718135 
L 127.779328 209.133913 
L 128.104308 219.008896 
L 128.266798 219.008896 
L 128.429287 215.46044 
L 128.591777 219.008896 
L 128.754267 219.603037 
L 128.916757 219.603037 
L 129.079247 219.008896 
L 129.241736 220.251004 
L 129.404226 224.785997 
L 129.566716 220.846665 
L 129.729206 228.99472 
L 129.891695 228.99472 
L 130.054185 230.250791 
L 130.216675 229.599445 
L 130.379165 234.159904 
L 130.541654 234.510246 
L 130.704144 234.159904 
L 130.866634 239.093221 
L 131.029124 234.76844 
L 131.191613 234.76844 
L 131.354103 235.420243 
L 131.516593 239.093221 
L 131.841572 231.1742 
L 132.004062 239.708246 
L 132.166552 234.81125 
L 132.329042 235.122036 
L 132.491532 235.122036 
L 132.654021 238.771573 
L 132.816511 235.079448 
L 132.979001 234.467012 
L 133.141491 229.272708 
L 133.30398 229.225518 
L 133.46647 219.826923 
L 133.62896 223.135424 
L 133.953939 206.225381 
L 134.116429 209.073766 
L 134.603898 185.78006 
L 134.928878 172.589768 
L 135.253857 159.094961 
L 135.578837 154.160245 
L 135.741327 154.295481 
L 135.903817 157.836558 
L 136.066306 149.744975 
L 136.228796 153.403094 
L 136.391286 153.403094 
L 136.553776 152.111188 
L 136.716265 152.638264 
L 136.878755 148.174487 
L 137.041245 147.126537 
L 137.203735 151.86471 
L 137.366224 147.02692 
L 137.528714 146.324206 
L 137.691204 147.476724 
L 137.853694 146.850011 
L 138.016183 151.86471 
L 138.178673 152.394825 
L 138.341163 156.125153 
L 138.503653 156.125153 
L 138.666143 164.957382 
L 138.991122 166.046878 
L 139.478591 174.981097 
L 139.641081 175.535613 
L 139.803571 187.88808 
L 139.966061 184.001848 
L 140.12855 193.611735 
L 140.29104 189.746035 
L 140.45353 194.255847 
L 140.61602 194.255847 
L 140.778509 199.410029 
L 140.940999 199.234712 
L 141.103489 199.987671 
L 141.265979 199.987671 
L 141.428468 208.064134 
L 141.590958 205.145175 
L 141.753448 204.563954 
L 141.915938 200.632231 
L 142.240917 217.927016 
L 142.403407 210.473761 
L 142.565897 219.175577 
L 142.728387 215.011922 
L 142.890876 219.826923 
L 143.053366 219.550084 
L 143.215856 224.387382 
L 143.378346 224.387382 
L 143.703325 233.244974 
L 143.865815 228.617886 
L 144.190794 230.204779 
L 144.353284 229.599445 
L 144.840753 239.708246 
L 145.003243 230.856582 
L 145.165733 239.708246 
L 145.328223 235.122036 
L 145.490713 244.038832 
L 145.815692 244.038832 
L 145.978182 244.913834 
L 146.140672 244.661106 
L 146.303161 244.038832 
L 146.465651 249.273361 
L 146.95312 249.273361 
L 147.11561 249.932367 
L 147.2781 245.569581 
L 147.44059 250.559021 
L 147.603079 244.94974 
L 147.765569 244.294455 
L 147.928059 249.306352 
L 148.090549 240.36353 
L 148.415528 250.591111 
L 148.578018 249.932367 
L 148.740508 249.932367 
L 148.902998 250.559021 
L 149.065487 249.932367 
L 149.227977 249.932367 
L 149.390467 250.559021 
L 149.552957 249.273361 
L 149.715446 249.041142 
L 149.877936 249.932367 
L 150.202916 249.932367 
L 150.365405 245.569581 
L 150.527895 250.559021 
L 150.690385 249.932367 
L 150.852875 245.320112 
L 151.015364 249.306352 
L 151.177854 245.320112 
L 151.502834 254.544622 
L 151.665324 249.932367 
L 151.827813 250.591111 
L 151.990303 250.559021 
L 152.315283 255.634163 
L 152.477772 254.338727 
L 152.640262 254.338727 
L 152.802752 250.559021 
L 152.965242 254.971658 
L 153.127731 254.971658 
L 153.290221 250.559021 
L 153.452711 255.634163 
L 153.615201 249.932367 
L 153.77769 254.544622 
L 153.94018 254.544622 
L 154.10267 255.833763 
L 154.26516 260.272759 
L 154.427649 255.00076 
L 154.590139 260.272759 
L 154.752629 259.636047 
L 154.915119 255.833763 
L 155.077609 260.298344 
L 155.240098 255.203365 
L 155.402588 260.272759 
L 155.565078 255.833763 
L 155.727568 260.272759 
L 155.890057 260.935529 
L 156.052547 264.756345 
L 156.215037 260.910635 
L 156.377527 264.911355 
L 156.540016 260.272759 
L 157.027486 260.272759 
L 157.189975 266.215788 
L 157.352465 265.574125 
L 157.514955 260.935529 
L 157.677445 265.574125 
L 157.839934 264.911355 
L 158.164914 260.272759 
L 158.327404 269.418238 
L 158.489894 265.574125 
L 158.652383 264.756345 
L 158.814873 269.418238 
L 159.139853 260.910635 
L 159.302342 264.756345 
L 159.464832 260.935529 
L 159.627322 266.215788 
L 159.789812 260.910635 
L 159.952301 264.911355 
L 160.114791 256.465308 
L 160.277281 265.552545 
L 160.439771 260.935529 
L 160.60226 260.935529 
L 160.76475 260.272759 
L 160.92724 260.910635 
L 161.08973 260.272759 
L 161.252219 255.634163 
L 161.414709 264.756345 
L 161.739689 250.333062 
L 161.902179 254.971658 
L 162.064668 254.308888 
L 162.227158 254.308888 
L 162.389648 245.031696 
L 162.552138 249.670292 
L 162.714627 249.007786 
L 162.877117 253.434794 
L 163.039607 249.637612 
L 163.202097 249.007786 
L 163.364586 240.009275 
L 163.689566 248.379109 
L 163.852056 239.390108 
L 164.014545 239.390108 
L 164.177035 243.743821 
L 164.339525 239.390108 
L 164.502015 229.880802 
L 164.664505 229.225518 
L 164.826994 233.504052 
L 165.314464 219.999864 
L 165.476953 219.999864 
L 165.639443 218.74279 
L 166.451892 218.74279 
L 166.614382 223.984284 
L 166.776871 224.589314 
L 166.939361 227.578255 
L 167.101851 224.589314 
L 167.264341 224.589314 
L 167.42683 229.178764 
L 167.58932 238.731102 
L 167.75181 239.390108 
L 168.07679 239.390108 
L 168.239279 244.002363 
L 168.401769 244.002363 
L 168.564259 245.031696 
L 168.726749 240.668487 
L 168.889238 249.007786 
L 169.051728 244.661106 
L 169.214218 254.308888 
L 169.376708 249.899547 
L 169.539197 254.338727 
L 169.701687 250.559021 
L 169.864177 254.971658 
L 170.026667 254.971658 
L 170.189156 255.605745 
L 170.351646 254.971658 
L 170.514136 255.174552 
L 170.676626 260.094452 
L 170.839115 260.272759 
L 171.001605 259.610254 
L 171.164095 260.272759 
L 171.489075 269.418238 
L 171.651564 264.911355 
L 171.814054 264.911355 
L 171.976544 266.067223 
L 172.139034 264.756345 
L 172.301523 265.552545 
L 172.464013 265.400647 
L 172.626503 274.624828 
L 172.788993 261.573878 
L 172.951482 266.067223 
L 173.276462 266.215788 
L 173.438952 266.215788 
L 173.601441 270.084337 
L 173.763931 260.935529 
L 174.088911 269.437396 
L 174.2514 266.236631 
L 174.41389 265.574125 
L 174.73887 265.574125 
L 174.90136 270.75017 
L 175.063849 270.732464 
L 175.226339 271.398776 
L 175.388829 270.732464 
L 175.551319 275.397705 
L 176.038788 266.878768 
L 176.201278 275.294772 
L 176.363767 270.732464 
L 176.526257 275.397705 
L 176.688747 275.397705 
L 176.851237 270.732464 
L 177.013726 270.857699 
L 177.176216 266.236631 
L 177.338706 275.397705 
L 177.501196 276.064017 
L 177.663686 271.398776 
L 177.826175 275.397705 
L 177.988665 275.412063 
L 178.151155 266.878768 
L 178.313645 276.064017 
L 178.476134 275.397705 
L 178.638624 276.716648 
L 178.801114 276.716648 
L 178.963604 275.397705 
L 179.126093 276.064017 
L 179.288583 279.983579 
L 179.451073 276.049857 
L 179.613563 266.878768 
L 179.776052 280.653257 
L 179.938542 275.397705 
L 180.101032 275.397705 
L 180.263522 271.520678 
L 180.426011 276.064017 
L 180.750991 276.064017 
L 180.913481 280.653257 
L 181.23846 272.048055 
L 181.40095 276.716648 
L 181.56344 276.716648 
L 181.72593 276.064017 
L 181.888419 271.398776 
L 182.213399 271.398776 
L 182.375889 276.049857 
L 182.538378 275.397705 
L 182.700868 275.397705 
L 182.863358 276.064017 
L 183.025848 271.381265 
L 183.188337 276.049857 
L 183.350827 275.412063 
L 183.513317 275.412063 
L 183.838296 276.620307 
L 184.000786 271.520678 
L 184.163276 276.064017 
L 184.325766 270.732464 
L 184.650745 279.983579 
L 184.813235 275.397705 
L 184.975725 275.950146 
L 185.138215 281.3125 
L 185.300704 271.398776 
L 185.625684 280.653257 
L 185.788174 271.398776 
L 185.950663 276.049857 
L 186.113153 276.064017 
L 186.275643 276.716648 
L 186.438133 276.716648 
L 186.600622 276.064017 
L 186.763112 280.653257 
L 186.925602 276.716648 
L 187.088092 276.716648 
L 187.250581 276.064017 
L 187.413071 276.716648 
L 187.575561 280.729258 
L 187.738051 276.064017 
L 187.900541 276.716648 
L 188.06303 280.653257 
L 188.22552 276.064017 
L 188.38801 276.064017 
L 188.5505 276.620307 
L 188.712989 276.716648 
L 188.875479 281.3125 
L 189.037969 276.716648 
L 189.200459 276.064017 
L 189.362948 276.716648 
L 189.525438 280.653257 
L 189.687928 281.395835 
L 189.850418 280.664163 
L 190.012907 276.064017 
L 190.175397 276.064017 
L 190.337887 285.342064 
L 190.662867 276.064017 
L 190.825356 276.716648 
L 190.987846 276.064017 
L 191.150336 276.064017 
L 191.312826 276.716648 
L 191.475315 281.3125 
L 191.637805 276.064017 
L 191.800295 281.3125 
L 191.962785 281.3125 
L 192.125274 276.064017 
L 192.287764 281.3125 
L 192.450254 280.642339 
L 192.612744 276.730594 
L 192.937723 276.716648 
L 193.100213 286.668543 
L 193.425192 276.064017 
L 193.587682 281.3125 
L 193.750172 276.716648 
L 193.912662 276.064017 
L 194.075152 280.729258 
L 194.237641 281.38524 
L 194.400131 276.716648 
L 194.562621 281.3125 
L 194.8876 276.064017 
L 195.21258 286.668543 
L 195.37507 281.3125 
L 195.537559 280.653257 
L 195.700049 281.3125 
L 195.862539 279.983579 
L 196.025029 276.064017 
L 196.187518 281.3125 
L 196.350008 276.064017 
L 196.512498 281.395835 
L 196.674988 276.064017 
L 196.837477 281.3125 
L 196.999967 280.653257 
L 197.162457 276.064017 
L 197.487437 286.004693 
L 197.649926 286.004693 
L 197.974906 276.716648 
L 198.137396 280.653257 
L 198.299885 281.3125 
L 198.462375 285.955054 
L 198.624865 284.680128 
L 198.787355 281.3125 
L 199.924783 281.38524 
L 200.087273 280.653257 
L 200.249762 276.064017 
L 200.412252 280.653257 
L 200.574742 281.3125 
L 200.737232 276.064017 
L 200.899722 281.3125 
L 201.062211 276.064017 
L 201.224701 281.972959 
L 201.387191 280.653257 
L 201.549681 281.3125 
L 201.71217 280.653257 
L 201.87466 276.620307 
L 202.03715 281.3125 
L 202.19964 281.3125 
L 202.362129 276.716648 
L 202.524619 281.38524 
L 202.687109 281.3125 
L 202.849599 280.642339 
L 203.012088 280.653257 
L 203.174578 276.716648 
L 203.337068 276.716648 
L 203.499558 281.3125 
L 203.824537 281.3125 
L 203.987027 279.983579 
L 204.149517 272.048055 
L 204.312007 275.294772 
L 204.474496 271.381265 
L 204.636986 271.381265 
L 204.799476 275.950146 
L 204.961966 275.950146 
L 205.286945 265.400647 
L 205.449435 265.400647 
L 205.611925 260.094452 
L 205.774414 265.378827 
L 205.936904 264.756345 
L 206.099394 264.734335 
L 206.261884 259.428619 
L 206.424373 264.090512 
L 206.586863 255.605745 
L 206.749353 254.971658 
L 206.911843 258.789316 
L 207.074333 254.971658 
L 207.236822 254.737276 
L 207.399312 254.766726 
L 207.561802 260.069094 
L 207.886781 250.300592 
L 208.211761 260.069094 
L 208.86172 260.069094 
L 209.02421 265.378827 
L 209.186699 265.400647 
L 209.349189 260.885715 
L 209.511679 265.400647 
L 209.674169 265.400647 
L 209.836658 266.067223 
L 209.999148 260.910635 
L 210.161638 271.257954 
L 210.324128 270.605965 
L 210.486618 271.257954 
L 210.649107 271.381265 
L 210.811597 271.257954 
L 210.974087 275.294772 
L 211.136577 275.950146 
L 211.299066 271.381265 
L 211.461556 272.031257 
L 211.624046 271.257954 
L 211.786536 275.294772 
L 211.949025 271.381265 
L 212.111515 275.294772 
L 212.274005 275.950146 
L 212.436495 275.950146 
L 212.598984 275.294772 
L 212.761474 276.620307 
L 212.923964 276.049857 
L 213.086454 272.048055 
L 213.248943 275.950146 
L 213.411433 271.398776 
L 213.573923 276.703207 
L 213.736413 275.294772 
L 213.898903 275.950146 
L 214.061392 280.642339 
L 214.223882 281.3125 
L 214.386372 281.3125 
L 214.548862 280.653257 
L 214.711351 276.620307 
L 214.873841 280.653257 
L 215.036331 281.3125 
L 215.198821 280.653257 
L 215.36131 277.383703 
L 215.5238 281.3125 
L 215.68629 280.653257 
L 215.84878 276.049857 
L 216.011269 280.653257 
L 216.173759 281.38524 
L 216.336249 280.653257 
L 216.498739 281.3125 
L 216.661229 281.3125 
L 216.823718 276.064017 
L 216.986208 281.3125 
L 217.311188 281.3125 
L 217.473677 281.972959 
L 217.636167 281.3125 
L 217.798657 281.3125 
L 217.961147 280.653257 
L 218.123636 280.653257 
L 218.286126 281.972959 
L 218.448616 285.955054 
L 218.611106 281.3125 
L 218.773595 285.281488 
L 218.936085 281.3125 
L 219.261065 281.3125 
L 219.423554 276.716648 
L 219.586044 281.3125 
L 220.560983 281.3125 
L 220.723473 276.716648 
L 220.885962 281.3125 
L 221.048452 276.716648 
L 221.210942 286.622244 
L 221.373432 281.3125 
L 221.535921 281.302314 
L 221.698411 281.982928 
L 221.860901 281.982928 
L 222.18588 280.653257 
L 222.34837 276.716648 
L 222.67335 276.716648 
L 222.835839 281.3125 
L 222.998329 277.383703 
L 223.160819 285.342064 
L 223.323309 286.004693 
L 223.485799 281.3125 
L 223.810778 281.3125 
L 223.973268 277.277375 
L 224.135758 281.3125 
L 224.298247 276.716648 
L 224.460737 281.972959 
L 224.623227 281.3125 
L 224.785717 285.342064 
L 224.948206 281.972959 
L 225.110696 281.3125 
L 225.435676 281.3125 
L 225.598165 276.064017 
L 225.760655 286.004693 
L 225.923145 281.3125 
L 226.085635 281.982928 
L 226.248124 280.653257 
L 226.410614 281.3125 
L 226.735594 281.3125 
L 226.898084 290.671087 
L 227.223063 281.972959 
L 227.385553 281.3125 
L 227.710532 281.3125 
L 227.873022 281.972959 
L 228.035512 281.3125 
L 228.522981 281.3125 
L 228.685471 282.643871 
L 228.847961 281.3125 
L 229.01045 286.67512 
L 229.17294 281.982928 
L 229.33543 286.628888 
L 229.49792 280.653257 
L 229.66041 281.323201 
L 229.822899 281.3125 
L 229.985389 286.004693 
L 230.310369 280.653257 
L 230.472858 281.3125 
L 230.797838 281.3125 
L 230.960328 290.671087 
L 231.285307 281.972959 
L 231.447797 281.3125 
L 231.610287 281.982928 
L 231.772776 285.955054 
L 232.097756 280.653257 
L 232.260246 280.729258 
L 232.422735 281.982928 
L 232.585225 281.3125 
L 233.072695 281.3125 
L 233.235184 272.048055 
L 233.397674 285.955054 
L 233.560164 281.902785 
L 233.722654 286.622244 
L 233.885143 285.955054 
L 234.047633 281.3125 
L 234.210123 281.972959 
L 234.372613 281.972959 
L 234.535102 280.642339 
L 234.697592 281.972959 
L 234.860082 281.3125 
L 235.185061 281.3125 
L 235.347551 280.642339 
L 235.510041 275.964449 
L 235.672531 281.3125 
L 235.83502 281.323201 
L 235.99751 280.653257 
L 236.16 280.653257 
L 236.32249 281.3125 
L 236.48498 281.38524 
L 236.647469 280.642339 
L 236.809959 281.3125 
L 236.972449 281.3125 
L 237.134939 277.277375 
L 237.297428 280.642339 
L 237.459918 281.3125 
L 237.622408 285.281488 
L 237.947387 277.277375 
L 238.109877 285.955054 
L 238.272367 285.281488 
L 238.434857 280.653257 
L 238.597346 281.3125 
L 238.922326 272.048055 
L 239.084816 281.972959 
L 239.247305 281.972959 
L 239.409795 285.955054 
L 239.572285 276.716648 
L 239.734775 276.716648 
L 240.059754 285.955054 
L 240.222244 281.3125 
L 240.384734 281.3125 
L 240.547224 281.972959 
L 240.709713 281.3125 
L 241.034693 281.3125 
L 241.197183 280.653257 
L 241.359672 285.955054 
L 241.522162 281.3125 
L 241.684652 280.653257 
L 241.847142 285.955054 
L 242.334611 286.012008 
L 242.497101 285.281488 
L 242.65959 281.982928 
L 242.82208 281.3125 
L 242.98457 276.716648 
L 243.14706 276.716648 
L 243.30955 286.622244 
L 243.472039 285.955054 
L 243.634529 290.671087 
L 243.797019 285.955054 
L 243.959509 276.716648 
L 244.121998 286.622244 
L 244.284488 286.622244 
L 244.446978 281.3125 
L 244.771957 281.3125 
L 244.934447 285.342064 
L 245.096937 281.3125 
L 245.259427 286.004693 
L 245.421916 276.716648 
L 245.584406 285.955054 
L 245.746896 281.982928 
L 245.909386 286.622244 
L 246.071876 281.982928 
L 246.234365 285.955054 
L 246.396855 281.3125 
L 246.559345 286.004693 
L 246.721835 281.972959 
L 246.884324 285.955054 
L 247.046814 281.3125 
L 247.209304 285.955054 
L 247.371794 285.955054 
L 247.534283 286.622244 
L 247.696773 281.302314 
L 247.859263 286.622244 
L 248.021753 285.955054 
L 248.184242 280.653257 
L 248.346732 281.3125 
L 248.509222 286.004693 
L 248.671712 281.3125 
L 248.834201 286.004693 
L 248.996691 286.004693 
L 249.159181 281.3125 
L 249.321671 281.3125 
L 249.484161 286.004693 
L 249.64665 281.3125 
L 249.80914 281.3125 
L 249.97163 285.955054 
L 250.13412 286.668543 
L 250.296609 281.3125 
L 250.459099 282.643871 
L 250.621589 281.972959 
L 250.784079 281.982928 
L 250.946568 285.955054 
L 251.109058 286.668543 
L 251.271548 281.3125 
L 251.434038 285.955054 
L 251.596527 281.3125 
L 251.759017 286.628888 
L 251.921507 277.383703 
L 252.083997 281.982928 
L 252.246486 281.3125 
L 252.408976 286.67512 
L 252.571466 276.620307 
L 252.733956 286.004693 
L 253.058935 285.955054 
L 253.221425 286.622244 
L 253.383915 286.668543 
L 253.546405 281.982928 
L 253.708894 286.622244 
L 253.871384 281.3125 
L 254.033874 282.643871 
L 254.196364 281.3125 
L 254.358853 281.3125 
L 254.521343 277.370477 
L 254.683833 281.3125 
L 255.008812 281.3125 
L 255.171302 281.982928 
L 255.496282 291.344921 
L 255.658771 286.004693 
L 255.983751 287.296567 
L 256.146241 281.982928 
L 256.47122 290.671087 
L 256.63371 281.3125 
L 256.7962 281.972959 
L 256.95869 285.955054 
L 257.121179 286.622244 
L 257.283669 290.671087 
L 257.446159 281.982928 
L 257.608649 282.643871 
L 257.771138 281.972959 
L 257.933628 286.628888 
L 258.096118 286.67512 
L 258.258608 285.955054 
L 258.421097 281.982928 
L 258.746077 292.016026 
L 258.908567 276.716648 
L 259.071057 281.972959 
L 259.233546 281.3125 
L 259.396036 285.955054 
L 259.558526 281.972959 
L 259.721016 285.955054 
L 259.883505 281.3125 
L 260.045995 281.972959 
L 260.208485 285.955054 
L 260.370975 281.3125 
L 260.533464 291.344921 
L 260.695954 281.972959 
L 260.858444 285.955054 
L 261.020934 281.3125 
L 261.183423 290.671087 
L 261.345913 286.628888 
L 261.508403 286.628888 
L 261.670893 286.004693 
L 261.833382 280.653257 
L 261.995872 281.3125 
L 262.158362 286.628888 
L 262.320852 285.955054 
L 262.483342 286.668543 
L 262.645831 285.955054 
L 262.808321 286.012008 
L 262.970811 281.972959 
L 263.29579 292.016026 
L 263.45828 286.668543 
L 263.62077 285.955054 
L 263.78326 285.948188 
L 263.945749 291.319048 
L 264.270729 281.3125 
L 264.433219 292.016026 
L 264.758198 290.671087 
L 264.920688 281.3125 
L 265.083178 285.955054 
L 265.245667 281.3125 
L 265.408157 280.653257 
L 265.570647 282.643871 
L 265.733137 290.671087 
L 265.895627 281.3125 
L 266.058116 286.668543 
L 266.220606 281.3125 
L 266.383096 285.955054 
L 266.545586 285.955054 
L 266.708075 287.296567 
L 266.870565 286.622244 
L 267.033055 281.3125 
L 267.195545 291.341703 
L 267.358034 281.982928 
L 267.520524 285.955054 
L 267.683014 286.668543 
L 267.845504 281.3125 
L 268.332973 281.3125 
L 268.495463 281.982928 
L 268.657952 285.955054 
L 268.820442 281.3125 
L 268.982932 282.577108 
L 269.145422 285.955054 
L 269.307912 281.972959 
L 269.470401 285.955054 
L 269.632891 281.3125 
L 269.795381 281.3125 
L 269.957871 291.344921 
L 270.12036 291.341703 
L 270.28285 282.643871 
L 270.44534 281.3125 
L 270.60783 281.3125 
L 270.770319 285.955054 
L 270.932809 281.3125 
L 271.095299 286.628888 
L 271.257789 286.67512 
L 271.420278 287.339455 
L 271.582768 286.004693 
L 271.745258 281.972959 
L 271.907748 286.622244 
L 272.070238 281.3125 
L 272.557707 281.3125 
L 272.720197 280.642339 
L 272.882686 281.302314 
L 273.045176 285.948188 
L 273.207666 281.892704 
L 273.370156 280.642339 
L 273.532645 281.982928 
L 273.695135 285.955054 
L 273.857625 280.565455 
L 274.020115 281.3125 
L 274.182604 276.620307 
L 274.345094 281.302314 
L 274.507584 276.606729 
L 274.670074 276.606729 
L 274.832563 275.950146 
L 274.995053 275.950146 
L 275.157543 280.642339 
L 275.482523 275.294772 
L 275.807502 276.606729 
L 276.132482 275.175588 
L 276.294971 275.175588 
L 276.457461 276.606729 
L 276.619951 275.950146 
L 276.782441 276.606729 
L 276.94493 280.565455 
L 277.10742 276.620307 
L 277.26991 281.972959 
L 277.4324 275.950146 
L 277.594889 280.642339 
L 277.757379 281.3125 
L 277.919869 280.642339 
L 278.082359 281.239021 
L 278.244848 275.950146 
L 278.407338 280.642339 
L 278.569828 280.653257 
L 278.732318 276.606729 
L 278.894808 280.642339 
L 279.219787 280.565455 
L 279.382277 281.3125 
L 279.544767 281.302314 
L 279.707256 285.997898 
L 279.869746 276.606729 
L 280.194726 285.955054 
L 280.682195 285.955054 
L 280.844685 281.3125 
L 281.007174 281.3125 
L 281.169664 285.955054 
L 281.332154 281.982928 
L 281.494644 286.622244 
L 281.657133 287.296567 
L 281.819623 286.622244 
L 281.982113 290.671087 
L 282.144603 281.3125 
L 282.307093 281.972959 
L 282.469582 281.3125 
L 282.632072 285.948188 
L 282.794562 281.972959 
L 282.957052 286.622244 
L 283.119541 280.642339 
L 283.282031 281.972959 
L 283.444521 285.955054 
L 283.607011 280.642339 
L 283.7695 281.972959 
L 283.93199 281.3125 
L 284.09448 281.972959 
L 284.419459 291.341703 
L 284.581949 281.3125 
L 284.744439 281.972959 
L 284.906929 285.955054 
L 285.069419 282.63411 
L 285.231908 286.622244 
L 285.394398 286.622244 
L 285.556888 282.643871 
L 285.719378 281.972959 
L 285.881867 286.622244 
L 286.044357 285.948188 
L 286.206847 286.622244 
L 286.531826 286.628888 
L 286.694316 281.972959 
L 286.856806 281.972959 
L 287.019296 282.643871 
L 287.181785 285.955054 
L 287.344275 281.982928 
L 287.506765 291.341703 
L 287.669255 287.339455 
L 287.831744 286.628888 
L 287.994234 290.671087 
L 288.319214 281.972959 
L 288.481704 286.622244 
L 288.644193 281.3125 
L 288.806683 285.955054 
L 288.969173 286.622244 
L 289.131663 291.341703 
L 289.294152 285.955054 
L 289.456642 286.622244 
L 289.619132 280.642339 
L 289.781622 290.671087 
L 289.944111 287.296567 
L 290.106601 286.668543 
L 290.269091 286.668543 
L 290.431581 291.319048 
L 290.75656 281.972959 
L 290.91905 281.982928 
L 291.244029 291.341703 
L 291.406519 290.671087 
L 291.569009 294.808766 
L 291.731499 282.042427 
L 291.893989 281.3125 
L 292.056478 290.671087 
L 292.218968 285.955054 
L 292.381458 286.622244 
L 292.543948 286.622244 
L 292.706437 281.239021 
L 292.868927 287.296567 
L 293.031417 285.955054 
L 293.193907 285.955054 
L 293.356396 290.671087 
L 293.681376 286.004693 
L 293.843866 286.622244 
L 294.006355 286.67512 
L 294.168845 291.344921 
L 294.331335 286.668543 
L 294.493825 285.955054 
L 294.656314 286.628888 
L 294.818804 286.668543 
L 294.981294 281.982928 
L 295.306274 290.671087 
L 295.468763 282.567249 
L 295.631253 286.622244 
L 295.793743 286.622244 
L 295.956233 281.302314 
L 296.118722 281.972959 
L 296.281212 281.972959 
L 296.443702 286.622244 
L 296.606192 286.622244 
L 296.768681 281.3125 
L 296.931171 281.972959 
L 297.093661 285.955054 
L 297.256151 285.955054 
L 297.41864 277.277375 
L 297.58113 285.955054 
L 297.74362 281.982928 
L 297.90611 281.982928 
L 298.231089 290.671087 
L 298.393579 285.955054 
L 298.556069 285.948188 
L 298.718559 287.296567 
L 298.881048 286.622244 
L 299.043538 286.622244 
L 299.206028 285.955054 
L 299.368518 291.341703 
L 299.531007 281.972959 
L 299.693497 281.3125 
L 299.855987 286.622244 
L 300.018477 285.955054 
L 300.180966 281.3125 
L 300.343456 286.622244 
L 300.505946 281.972959 
L 300.668436 282.643871 
L 300.830925 281.3125 
L 300.993415 281.972959 
L 301.155905 281.3125 
L 301.318395 282.643871 
L 301.480885 281.3125 
L 301.643374 281.982928 
L 301.805864 281.972959 
L 301.968354 286.622244 
L 302.130844 286.67512 
L 302.293333 291.319048 
L 302.455823 286.622244 
L 302.780803 286.622244 
L 302.943292 281.982928 
L 303.105782 291.319048 
L 303.268272 281.982928 
L 303.593251 292.687839 
L 303.755741 285.955054 
L 303.918231 286.67512 
L 304.080721 290.00171 
L 304.24321 286.628888 
L 304.56819 295.486535 
L 304.73068 281.3125 
L 304.89317 287.296567 
L 305.055659 286.622244 
L 305.218149 282.643871 
L 305.380639 291.993789 
L 305.543129 285.948188 
L 305.705618 285.281488 
L 305.868108 287.290137 
L 306.193088 285.955054 
L 306.355577 286.622244 
L 306.518067 285.955054 
L 306.680557 287.339455 
L 306.843047 286.004693 
L 307.005536 287.296567 
L 307.168026 281.3125 
L 307.330516 281.972959 
L 307.493006 285.955054 
L 307.655495 286.622244 
L 307.817985 285.955054 
L 307.980475 281.972959 
L 308.142965 291.341703 
L 308.305455 281.972959 
L 308.467944 281.972959 
L 308.630434 286.622244 
L 308.792924 287.296567 
L 308.955414 285.997898 
L 309.117903 285.955054 
L 309.280393 287.290137 
L 309.442883 286.622244 
L 309.605373 286.622244 
L 309.767862 291.341703 
L 309.930352 285.955054 
L 310.092842 290.671087 
L 310.255332 281.3125 
L 310.417821 286.622244 
L 310.580311 276.716648 
L 310.742801 285.955054 
L 310.905291 286.622244 
L 311.067781 285.955054 
L 311.23027 291.341703 
L 311.39276 285.955054 
L 311.55525 286.622244 
L 311.71774 286.622244 
L 311.880229 291.319048 
L 312.042719 291.993789 
L 312.205209 286.622244 
L 312.367699 286.622244 
L 312.530188 281.3125 
L 312.692678 287.290137 
L 312.855168 286.622244 
L 313.017658 287.296567 
L 313.180147 281.3125 
L 313.342637 281.972959 
L 313.505127 286.622244 
L 313.667617 286.668543 
L 313.830106 287.296567 
L 314.155086 286.004693 
L 314.317576 287.964951 
L 314.480066 286.622244 
L 314.642555 291.319048 
L 314.805045 291.341703 
L 314.967535 287.296567 
L 315.130025 291.322299 
L 315.617494 291.319048 
L 315.779984 286.622244 
L 315.942473 291.319048 
L 316.267453 281.972959 
L 316.429943 285.955054 
L 316.592432 286.628888 
L 316.754922 286.622244 
L 316.917412 281.972959 
L 317.079902 287.339455 
L 317.242391 281.3125 
L 317.404881 281.972959 
L 317.567371 286.622244 
L 317.729861 287.964951 
L 317.892351 286.622244 
L 318.05484 291.341703 
L 318.54231 291.296161 
L 318.867289 281.972959 
L 319.029779 286.622244 
L 319.354758 286.622244 
L 319.517248 281.982928 
L 319.679738 281.972959 
L 319.842228 292.016026 
L 320.004717 287.339455 
L 320.167207 286.668543 
L 320.329697 295.486535 
L 320.654676 277.370477 
L 320.817166 281.972959 
L 320.979656 281.239021 
L 321.142146 286.622244 
L 321.629615 286.628888 
L 321.792105 287.290137 
L 321.954595 285.948188 
L 322.117084 290.667647 
L 322.442064 282.643871 
L 322.604554 285.955054 
L 322.767043 285.955054 
L 322.929533 281.972959 
L 323.092023 281.972959 
L 323.254513 286.004693 
L 323.417002 281.3125 
L 323.579492 282.577108 
L 323.741982 286.622244 
L 323.904472 281.3125 
L 324.066962 291.341703 
L 324.229451 291.344921 
L 324.391941 281.972959 
L 324.716921 281.972959 
L 324.87941 293.3465 
L 325.0419 286.622244 
L 325.20439 287.296567 
L 325.36688 287.296567 
L 325.529369 291.319048 
L 325.691859 285.955054 
L 325.854349 286.622244 
L 326.341818 286.622244 
L 326.504308 290.671087 
L 326.666798 290.645024 
L 326.829287 281.972959 
L 326.991777 285.955054 
L 327.154267 281.3125 
L 327.316757 286.622244 
L 327.479247 281.3125 
L 327.641736 286.622244 
L 327.804226 286.622244 
L 327.966716 285.955054 
L 328.129206 285.955054 
L 328.291695 292.672053 
L 328.454185 286.622244 
L 328.616675 285.955054 
L 328.779165 286.622244 
L 328.941654 285.955054 
L 329.266634 287.290137 
L 329.429124 281.972959 
L 329.591613 291.341703 
L 329.754103 291.341703 
L 329.916593 286.622244 
L 330.079083 286.622244 
L 330.241572 282.643871 
L 330.404062 281.982928 
L 330.566552 286.628888 
L 330.729042 286.622244 
L 330.891532 295.485056 
L 331.216511 285.955054 
L 331.379001 291.319048 
L 331.541491 287.25324 
L 331.70398 286.622244 
L 331.86647 286.622244 
L 332.02896 287.296567 
L 332.19145 286.622244 
L 332.353939 281.972959 
L 332.516429 291.341703 
L 332.678919 286.622244 
L 332.841409 286.628888 
L 333.003898 287.296567 
L 333.166388 281.972959 
L 333.328878 292.016026 
L 333.491368 285.955054 
L 333.653857 291.341703 
L 333.816347 285.955054 
L 333.978837 286.622244 
L 334.141327 285.948188 
L 334.303817 281.902785 
L 334.628796 291.319048 
L 334.791286 291.341703 
L 334.953776 286.622244 
L 335.116265 286.622244 
L 335.278755 291.996818 
L 335.441245 291.319048 
L 335.603735 286.622244 
L 335.766224 291.319048 
L 336.091204 281.3125 
L 336.253694 286.668543 
L 336.416183 285.955054 
L 336.578673 292.016026 
L 336.741163 281.3125 
L 336.903653 287.290137 
L 337.066143 281.972959 
L 337.228632 281.972959 
L 337.391122 285.997898 
L 337.553612 285.955054 
L 337.716102 287.290137 
L 337.878591 281.902785 
L 338.041081 281.972959 
L 338.366061 286.622244 
L 338.52855 286.622244 
L 338.69104 291.993789 
L 338.85353 286.622244 
L 339.01602 287.296567 
L 339.178509 286.622244 
L 339.340999 281.972959 
L 339.503489 291.341703 
L 339.828468 281.972959 
L 339.990958 285.955054 
L 340.153448 281.3125 
L 340.315938 281.972959 
L 340.478428 286.622244 
L 340.640917 281.902785 
L 340.803407 286.622244 
L 340.965897 285.904908 
L 341.128387 285.948188 
L 341.290876 286.622244 
L 341.615856 286.622244 
L 341.778346 281.302314 
L 341.940835 281.972959 
L 342.103325 285.948188 
L 342.265815 281.302314 
L 342.428305 281.239021 
L 342.590794 286.622244 
L 342.753284 281.3125 
L 342.915774 286.622244 
L 343.078264 281.302314 
L 343.240753 286.622244 
L 343.403243 286.622244 
L 343.565733 281.96298 
L 343.728223 280.642339 
L 343.890713 286.622244 
L 344.053202 281.972959 
L 344.215692 285.948188 
L 344.378182 286.622244 
L 344.540672 281.902785 
L 344.703161 285.955054 
L 344.865651 281.228729 
L 345.028141 290.641549 
L 345.190631 281.228729 
L 345.35312 281.902785 
L 345.51561 281.902785 
L 345.6781 280.642339 
L 345.84059 281.302314 
L 346.003079 281.302314 
L 346.165569 289.968019 
L 346.328059 285.955054 
L 346.490549 285.955054 
L 346.653038 281.228729 
L 346.815528 281.302314 
L 346.978018 286.622244 
L 347.140508 286.622244 
L 347.302998 281.892704 
L 347.465487 286.622244 
L 347.627977 287.284233 
L 347.790467 285.948188 
L 347.952957 290.641549 
L 348.115446 281.902785 
L 348.277936 285.948188 
L 348.440426 285.904908 
L 348.602916 287.290137 
L 348.765405 291.341703 
L 348.927895 285.955054 
L 349.090385 285.955054 
L 349.252875 281.3125 
L 349.415364 281.972959 
L 349.577854 287.296567 
L 349.740344 286.622244 
L 349.902834 281.902785 
L 350.065324 290.667647 
L 350.390303 281.972959 
L 350.552793 291.315794 
L 350.715283 285.227902 
L 350.877772 292.672053 
L 351.040262 286.622244 
L 351.365242 286.622244 
L 351.527731 276.606729 
L 351.690221 286.622244 
L 352.015201 286.622244 
L 352.34018 286.622244 
L 352.50267 287.333089 
L 352.66516 287.296567 
L 352.827649 285.955054 
L 353.152629 287.296567 
L 353.315119 287.290137 
L 353.477609 286.622244 
L 353.640098 286.622244 
L 353.802588 291.341703 
L 353.965078 281.902785 
L 354.127568 286.622244 
L 354.290057 286.622244 
L 354.452547 277.183326 
L 354.615037 286.622244 
L 354.777527 286.622244 
L 354.940016 291.993789 
L 355.102506 286.622244 
L 355.264996 286.622244 
L 355.427486 282.567249 
L 355.589975 290.645024 
L 355.752465 291.341703 
L 355.914955 281.972959 
L 356.077445 286.668543 
L 356.239934 285.948188 
L 356.402424 281.972959 
L 356.564914 291.319048 
L 356.727404 287.290137 
L 356.889894 287.296567 
L 357.052383 291.993789 
L 357.214873 287.296567 
L 357.539853 287.290137 
L 357.702342 286.622244 
L 357.864832 286.615592 
L 358.027322 291.993789 
L 358.189812 286.622244 
L 358.352301 287.964951 
L 358.514791 286.622244 
L 358.677281 281.3125 
L 358.839771 286.622244 
L 359.00226 286.575471 
L 359.16475 281.972959 
L 359.32724 281.902785 
L 359.48973 285.955054 
L 359.652219 286.622244 
L 359.977199 286.622244 
L 360.139689 291.344921 
L 360.302179 286.622244 
L 360.464668 286.575471 
L 360.627158 295.486535 
L 360.789648 286.622244 
L 360.952138 286.622244 
L 361.114627 291.993789 
L 361.277117 292.013026 
L 361.439607 286.622244 
L 361.602097 286.622244 
L 361.764586 281.902785 
L 361.927076 285.955054 
L 362.089566 277.277375 
L 362.252056 291.319048 
L 362.577035 286.622244 
L 363.876953 286.622244 
L 364.039443 281.902785 
L 364.201933 291.341703 
L 364.364423 286.622244 
L 364.526912 286.622244 
L 364.689402 287.290137 
L 364.851892 285.955054 
L 365.014382 291.319048 
L 365.176871 286.622244 
L 365.339361 292.016026 
L 365.501851 286.622244 
L 365.82683 286.622244 
L 365.98932 290.671087 
L 366.15181 285.955054 
L 366.3143 286.622244 
L 366.47679 291.319048 
L 366.639279 286.622244 
L 366.801769 286.622244 
L 366.964259 292.013026 
L 367.289238 286.622244 
L 367.939197 286.615592 
L 368.101687 287.290137 
L 368.264177 282.643871 
L 368.426667 286.622244 
L 368.589156 286.622244 
L 368.751646 281.239021 
L 368.914136 281.972959 
L 369.076626 286.668543 
L 369.239115 286.622244 
L 369.401605 281.972959 
L 369.564095 291.341703 
L 369.726585 286.622244 
L 370.051564 295.383142 
L 370.214054 286.622244 
L 370.376544 291.993789 
L 370.539034 291.319048 
L 370.701523 286.668543 
L 370.864013 286.622244 
L 371.026503 281.228729 
L 371.188993 291.319048 
L 371.513972 291.319048 
L 371.676462 286.004693 
L 371.838952 287.290137 
L 372.001441 286.622244 
L 372.163931 282.63411 
L 372.326421 285.955054 
L 372.488911 286.622244 
L 372.6514 286.668543 
L 372.81389 291.319048 
L 373.13887 282.63411 
L 373.463849 291.319048 
L 373.626339 291.319048 
L 373.788829 285.948188 
L 373.951319 291.319048 
L 374.113808 286.622244 
L 374.763767 286.622244 
L 374.926257 291.993789 
L 375.088747 281.902785 
L 375.251237 286.622244 
L 375.413726 285.955054 
L 375.576216 281.972959 
L 375.738706 291.319048 
L 375.901196 287.290137 
L 376.063686 286.622244 
L 376.226175 286.622244 
L 376.388665 282.567249 
L 376.551155 286.622244 
L 376.713645 286.622244 
L 376.876134 287.290137 
L 377.038624 286.622244 
L 377.201114 291.319048 
L 377.363604 286.615592 
L 377.526093 291.319048 
L 377.688583 285.948188 
L 377.851073 291.993789 
L 378.013563 291.319048 
L 378.176052 286.622244 
L 378.501032 286.622244 
L 378.663522 291.319048 
L 378.826011 287.296567 
L 378.988501 291.319048 
L 379.313481 281.972959 
L 379.475971 281.902785 
L 379.63846 291.993789 
L 379.80095 286.575471 
L 379.96344 287.290137 
L 380.12593 286.615592 
L 380.288419 287.290137 
L 380.450909 291.319048 
L 380.613399 282.63411 
L 380.775889 291.993789 
L 381.100868 281.239021 
L 381.263358 291.341703 
L 381.425848 291.319048 
L 381.588337 286.622244 
L 381.750827 287.333089 
L 381.913317 286.668543 
L 382.075807 287.290137 
L 382.238296 286.622244 
L 382.725766 286.622244 
L 382.888256 291.315794 
L 383.050745 281.902785 
L 383.375725 291.993789 
L 383.538215 287.290137 
L 383.700704 286.622244 
L 383.863194 286.575471 
L 384.025684 291.319048 
L 384.188174 286.622244 
L 384.350663 286.622244 
L 384.513153 291.319048 
L 384.838133 281.902785 
L 385.000622 287.302453 
L 385.163112 287.290137 
L 385.325602 286.668543 
L 385.488092 286.622244 
L 385.650581 277.290735 
L 385.813071 285.955054 
L 385.975561 286.622244 
L 386.138051 286.622244 
L 386.300541 291.341703 
L 386.46303 291.993789 
L 386.62552 290.645024 
L 386.78801 287.290137 
L 387.112989 285.948188 
L 387.275479 281.902785 
L 387.437969 286.622244 
L 387.600459 282.63411 
L 387.762948 287.290137 
L 387.925438 286.622244 
L 388.087928 286.622244 
L 388.250418 290.671087 
L 388.412907 282.567249 
L 388.737887 281.239021 
L 388.900377 286.622244 
L 389.062867 281.972959 
L 389.387846 291.993789 
L 389.550336 286.575471 
L 389.712826 285.948188 
L 390.037805 287.290137 
L 390.200295 291.315794 
L 390.362785 286.622244 
L 390.525274 291.993789 
L 390.687764 285.948188 
L 390.850254 286.622244 
L 391.012744 285.948188 
L 391.175233 287.290137 
L 391.337723 286.622244 
L 391.500213 291.319048 
L 391.662703 281.96298 
L 391.825192 286.622244 
L 392.637641 286.622244 
L 392.800131 291.993789 
L 392.962621 291.993789 
L 393.125111 291.319048 
L 393.2876 286.575471 
L 393.45009 290.641549 
L 393.61258 290.637529 
L 393.77507 291.319048 
L 393.937559 287.290137 
L 394.100049 286.615592 
L 394.262539 287.290137 
L 394.425029 282.567249 
L 394.587518 292.013026 
L 394.912498 282.643871 
L 395.074988 287.964951 
L 395.237477 281.902785 
L 395.399967 285.948188 
L 395.724947 287.333089 
L 395.887437 291.319048 
L 396.212416 285.897971 
L 396.374906 291.319048 
L 396.537396 291.319048 
L 396.699885 285.897971 
L 396.862375 286.615592 
L 397.024865 286.575471 
L 397.187355 285.948188 
L 397.349844 286.622244 
L 397.512334 291.319048 
L 397.674824 291.319048 
L 397.837314 285.955054 
L 397.999803 286.622244 
L 398.162293 291.996818 
L 398.324783 286.622244 
L 398.487273 291.319048 
L 398.487273 291.319048 
" clip-path="url(#p9f54749689)" style="fill: none; stroke: #1f77b4; stroke-width: 1.5; stroke-linecap: square"/>
   </g>
   <g id="patch_3">
    <path d="M 57.6 307.584 
L 57.6 41.472 
" style="fill: none; stroke: #000000; stroke-width: 0.8; stroke-linejoin: miter; stroke-linecap: square"/>
   </g>
   <g id="patch_4">
    <path d="M 414.72 307.584 
L 414.72 41.472 
" style="fill: none; stroke: #000000; stroke-width: 0.8; stroke-linejoin: miter; stroke-linecap: square"/>
   </g>
   <g id="patch_5">
    <path d="M 57.6 307.584 
L 414.72 307.584 
" style="fill: none; stroke: #000000; stroke-width: 0.8; stroke-linejoin: miter; stroke-linecap: square"/>
   </g>
   <g id="patch_6">
    <path d="M 57.6 41.472 
L 414.72 41.472 
" style="fill: none; stroke: #000000; stroke-width: 0.8; stroke-linejoin: miter; stroke-linecap: square"/>
   </g>
  </g>
 </g>
 <defs>
  <clipPath id="p9f54749689">
   <rect x="57.6" y="41.472" width="357.12" height="266.112"/>
  </clipPath>
 </defs>
</svg>
