<?xml version="1.0" encoding="utf-8" standalone="no"?>
<!DOCTYPE svg PUBLIC "-//W3C//DTD SVG 1.1//EN"
  "http://www.w3.org/Graphics/SVG/1.1/DTD/svg11.dtd">
<svg xmlns:xlink="http://www.w3.org/1999/xlink" width="460.8pt" height="345.6pt" viewBox="0 0 460.8 345.6" xmlns="http://www.w3.org/2000/svg" version="1.1">
 <metadata>
  <rdf:RDF xmlns:dc="http://purl.org/dc/elements/1.1/" xmlns:cc="http://creativecommons.org/ns#" xmlns:rdf="http://www.w3.org/1999/02/22-rdf-syntax-ns#">
   <cc:Work>
    <dc:type rdf:resource="http://purl.org/dc/dcmitype/StillImage"/>
    <dc:date>2022-05-19T23:39:14.330494</dc:date>
    <dc:format>image/svg+xml</dc:format>
    <dc:creator>
     <cc:Agent>
      <dc:title>Matplotlib v3.5.1, https://matplotlib.org/</dc:title>
     </cc:Agent>
    </dc:creator>
   </cc:Work>
  </rdf:RDF>
 </metadata>
 <defs>
  <style type="text/css">*{stroke-linejoin: round; stroke-linecap: butt}</style>
 </defs>
 <g id="figure_1">
  <g id="patch_1">
   <path d="M 0 345.6 
L 460.8 345.6 
L 460.8 0 
L 0 0 
z
" style="fill: #ffffff"/>
  </g>
  <g id="axes_1">
   <g id="patch_2">
    <path d="M 57.6 307.584 
L 414.72 307.584 
L 414.72 41.472 
L 57.6 41.472 
z
" style="fill: #ffffff"/>
   </g>
   <g id="matplotlib.axis_1">
    <g id="xtick_1">
     <g id="line2d_1">
      <defs>
       <path id="m1c7e308de6" d="M 0 0 
L 0 3.5 
" style="stroke: #000000; stroke-width: 0.8"/>
      </defs>
      <g>
       <use xlink:href="#m1c7e308de6" x="73.832727" y="307.584" style="stroke: #000000; stroke-width: 0.8"/>
      </g>
     </g>
     <g id="text_1">
      <!-- $\mathdefault{50000}$ -->
      <g transform="translate(61.379389 321.502498)scale(0.1 -0.1)">
       <defs>
        <path id="CMR17-35" d="M 730 3692 
C 794 3666 1056 3584 1325 3584 
C 1920 3584 2246 3911 2432 4100 
C 2432 4157 2432 4192 2394 4192 
C 2387 4192 2374 4192 2323 4163 
C 2099 4058 1837 3973 1517 3973 
C 1325 3973 1037 3999 723 4139 
C 653 4171 640 4171 634 4171 
C 602 4171 595 4164 595 4037 
L 595 2203 
C 595 2089 595 2057 659 2057 
C 691 2057 704 2070 736 2114 
C 941 2401 1222 2522 1542 2522 
C 1766 2522 2246 2382 2246 1289 
C 2246 1085 2246 715 2054 421 
C 1894 159 1645 25 1370 25 
C 947 25 518 320 403 814 
C 429 807 480 795 506 795 
C 589 795 749 840 749 1038 
C 749 1210 627 1280 506 1280 
C 358 1280 262 1190 262 1011 
C 262 454 704 -128 1382 -128 
C 2042 -128 2669 440 2669 1264 
C 2669 2030 2170 2624 1549 2624 
C 1222 2624 947 2503 730 2274 
L 730 3692 
z
" transform="scale(0.015625)"/>
        <path id="CMR17-30" d="M 2688 2025 
C 2688 2416 2682 3080 2413 3591 
C 2176 4039 1798 4198 1466 4198 
C 1158 4198 768 4058 525 3597 
C 269 3118 243 2524 243 2025 
C 243 1661 250 1106 448 619 
C 723 -39 1216 -128 1466 -128 
C 1760 -128 2208 -7 2470 600 
C 2662 1042 2688 1559 2688 2025 
z
M 1466 -26 
C 1056 -26 813 325 723 812 
C 653 1188 653 1738 653 2096 
C 653 2588 653 2997 736 3387 
C 858 3929 1216 4096 1466 4096 
C 1728 4096 2067 3923 2189 3400 
C 2272 3036 2278 2607 2278 2096 
C 2278 1680 2278 1169 2202 792 
C 2067 95 1690 -26 1466 -26 
z
" transform="scale(0.015625)"/>
       </defs>
       <use xlink:href="#CMR17-35" transform="scale(0.996264)"/>
       <use xlink:href="#CMR17-30" transform="translate(45.690477 0)scale(0.996264)"/>
       <use xlink:href="#CMR17-30" transform="translate(91.380954 0)scale(0.996264)"/>
       <use xlink:href="#CMR17-30" transform="translate(137.071431 0)scale(0.996264)"/>
       <use xlink:href="#CMR17-30" transform="translate(182.761908 0)scale(0.996264)"/>
      </g>
     </g>
    </g>
    <g id="xtick_2">
     <g id="line2d_2">
      <g>
       <use xlink:href="#m1c7e308de6" x="114.414545" y="307.584" style="stroke: #000000; stroke-width: 0.8"/>
      </g>
     </g>
     <g id="text_2">
      <!-- $\mathdefault{52500}$ -->
      <g transform="translate(101.961207 321.502498)scale(0.1 -0.1)">
       <defs>
        <path id="CMR17-32" d="M 2669 989 
L 2554 989 
C 2490 536 2438 459 2413 420 
C 2381 369 1920 369 1830 369 
L 602 369 
C 832 619 1280 1072 1824 1597 
C 2214 1967 2669 2402 2669 3035 
C 2669 3790 2067 4224 1395 4224 
C 691 4224 262 3604 262 3030 
C 262 2780 448 2748 525 2748 
C 589 2748 781 2787 781 3010 
C 781 3207 614 3264 525 3264 
C 486 3264 448 3258 422 3245 
C 544 3790 915 4058 1306 4058 
C 1862 4058 2227 3617 2227 3035 
C 2227 2479 1901 2000 1536 1584 
L 262 146 
L 262 0 
L 2515 0 
L 2669 989 
z
" transform="scale(0.015625)"/>
       </defs>
       <use xlink:href="#CMR17-35" transform="scale(0.996264)"/>
       <use xlink:href="#CMR17-32" transform="translate(45.690477 0)scale(0.996264)"/>
       <use xlink:href="#CMR17-35" transform="translate(91.380954 0)scale(0.996264)"/>
       <use xlink:href="#CMR17-30" transform="translate(137.071431 0)scale(0.996264)"/>
       <use xlink:href="#CMR17-30" transform="translate(182.761908 0)scale(0.996264)"/>
      </g>
     </g>
    </g>
    <g id="xtick_3">
     <g id="line2d_3">
      <g>
       <use xlink:href="#m1c7e308de6" x="154.996364" y="307.584" style="stroke: #000000; stroke-width: 0.8"/>
      </g>
     </g>
     <g id="text_3">
      <!-- $\mathdefault{55000}$ -->
      <g transform="translate(142.543026 321.502498)scale(0.1 -0.1)">
       <use xlink:href="#CMR17-35" transform="scale(0.996264)"/>
       <use xlink:href="#CMR17-35" transform="translate(45.690477 0)scale(0.996264)"/>
       <use xlink:href="#CMR17-30" transform="translate(91.380954 0)scale(0.996264)"/>
       <use xlink:href="#CMR17-30" transform="translate(137.071431 0)scale(0.996264)"/>
       <use xlink:href="#CMR17-30" transform="translate(182.761908 0)scale(0.996264)"/>
      </g>
     </g>
    </g>
    <g id="xtick_4">
     <g id="line2d_4">
      <g>
       <use xlink:href="#m1c7e308de6" x="195.578182" y="307.584" style="stroke: #000000; stroke-width: 0.8"/>
      </g>
     </g>
     <g id="text_4">
      <!-- $\mathdefault{57500}$ -->
      <g transform="translate(183.124844 321.502498)scale(0.1 -0.1)">
       <defs>
        <path id="CMR17-37" d="M 2886 3941 
L 2886 4081 
L 1382 4081 
C 634 4081 621 4165 595 4288 
L 480 4288 
L 294 3094 
L 410 3094 
C 429 3215 474 3540 550 3661 
C 589 3712 1062 3712 1171 3712 
L 2579 3712 
L 1869 2661 
C 1395 1954 1069 999 1069 165 
C 1069 89 1069 -128 1299 -128 
C 1530 -128 1530 89 1530 171 
L 1530 465 
C 1530 1508 1709 2196 2003 2636 
L 2886 3941 
z
" transform="scale(0.015625)"/>
       </defs>
       <use xlink:href="#CMR17-35" transform="scale(0.996264)"/>
       <use xlink:href="#CMR17-37" transform="translate(45.690477 0)scale(0.996264)"/>
       <use xlink:href="#CMR17-35" transform="translate(91.380954 0)scale(0.996264)"/>
       <use xlink:href="#CMR17-30" transform="translate(137.071431 0)scale(0.996264)"/>
       <use xlink:href="#CMR17-30" transform="translate(182.761908 0)scale(0.996264)"/>
      </g>
     </g>
    </g>
    <g id="xtick_5">
     <g id="line2d_5">
      <g>
       <use xlink:href="#m1c7e308de6" x="236.16" y="307.584" style="stroke: #000000; stroke-width: 0.8"/>
      </g>
     </g>
     <g id="text_5">
      <!-- $\mathdefault{60000}$ -->
      <g transform="translate(223.706662 321.502498)scale(0.1 -0.1)">
       <defs>
        <path id="CMR17-36" d="M 678 2176 
C 678 3690 1395 4032 1811 4032 
C 1946 4032 2272 4009 2400 3776 
C 2298 3776 2106 3776 2106 3553 
C 2106 3381 2246 3323 2336 3323 
C 2394 3323 2566 3348 2566 3560 
C 2566 3954 2246 4179 1805 4179 
C 1043 4179 243 3390 243 1984 
C 243 253 966 -128 1478 -128 
C 2099 -128 2688 427 2688 1283 
C 2688 2081 2170 2662 1517 2662 
C 1126 2662 838 2407 678 1960 
L 678 2176 
z
M 1478 25 
C 691 25 691 1200 691 1436 
C 691 1896 909 2560 1504 2560 
C 1613 2560 1926 2560 2138 2120 
C 2253 1870 2253 1609 2253 1289 
C 2253 944 2253 690 2118 434 
C 1978 171 1773 25 1478 25 
z
" transform="scale(0.015625)"/>
       </defs>
       <use xlink:href="#CMR17-36" transform="scale(0.996264)"/>
       <use xlink:href="#CMR17-30" transform="translate(45.690477 0)scale(0.996264)"/>
       <use xlink:href="#CMR17-30" transform="translate(91.380954 0)scale(0.996264)"/>
       <use xlink:href="#CMR17-30" transform="translate(137.071431 0)scale(0.996264)"/>
       <use xlink:href="#CMR17-30" transform="translate(182.761908 0)scale(0.996264)"/>
      </g>
     </g>
    </g>
    <g id="xtick_6">
     <g id="line2d_6">
      <g>
       <use xlink:href="#m1c7e308de6" x="276.741818" y="307.584" style="stroke: #000000; stroke-width: 0.8"/>
      </g>
     </g>
     <g id="text_6">
      <!-- $\mathdefault{62500}$ -->
      <g transform="translate(264.28848 321.502498)scale(0.1 -0.1)">
       <use xlink:href="#CMR17-36" transform="scale(0.996264)"/>
       <use xlink:href="#CMR17-32" transform="translate(45.690477 0)scale(0.996264)"/>
       <use xlink:href="#CMR17-35" transform="translate(91.380954 0)scale(0.996264)"/>
       <use xlink:href="#CMR17-30" transform="translate(137.071431 0)scale(0.996264)"/>
       <use xlink:href="#CMR17-30" transform="translate(182.761908 0)scale(0.996264)"/>
      </g>
     </g>
    </g>
    <g id="xtick_7">
     <g id="line2d_7">
      <g>
       <use xlink:href="#m1c7e308de6" x="317.323636" y="307.584" style="stroke: #000000; stroke-width: 0.8"/>
      </g>
     </g>
     <g id="text_7">
      <!-- $\mathdefault{65000}$ -->
      <g transform="translate(304.870298 321.502498)scale(0.1 -0.1)">
       <use xlink:href="#CMR17-36" transform="scale(0.996264)"/>
       <use xlink:href="#CMR17-35" transform="translate(45.690477 0)scale(0.996264)"/>
       <use xlink:href="#CMR17-30" transform="translate(91.380954 0)scale(0.996264)"/>
       <use xlink:href="#CMR17-30" transform="translate(137.071431 0)scale(0.996264)"/>
       <use xlink:href="#CMR17-30" transform="translate(182.761908 0)scale(0.996264)"/>
      </g>
     </g>
    </g>
    <g id="xtick_8">
     <g id="line2d_8">
      <g>
       <use xlink:href="#m1c7e308de6" x="357.905455" y="307.584" style="stroke: #000000; stroke-width: 0.8"/>
      </g>
     </g>
     <g id="text_8">
      <!-- $\mathdefault{67500}$ -->
      <g transform="translate(345.452116 321.502498)scale(0.1 -0.1)">
       <use xlink:href="#CMR17-36" transform="scale(0.996264)"/>
       <use xlink:href="#CMR17-37" transform="translate(45.690477 0)scale(0.996264)"/>
       <use xlink:href="#CMR17-35" transform="translate(91.380954 0)scale(0.996264)"/>
       <use xlink:href="#CMR17-30" transform="translate(137.071431 0)scale(0.996264)"/>
       <use xlink:href="#CMR17-30" transform="translate(182.761908 0)scale(0.996264)"/>
      </g>
     </g>
    </g>
    <g id="xtick_9">
     <g id="line2d_9">
      <g>
       <use xlink:href="#m1c7e308de6" x="398.487273" y="307.584" style="stroke: #000000; stroke-width: 0.8"/>
      </g>
     </g>
     <g id="text_9">
      <!-- $\mathdefault{70000}$ -->
      <g transform="translate(386.033935 321.502498)scale(0.1 -0.1)">
       <use xlink:href="#CMR17-37" transform="scale(0.996264)"/>
       <use xlink:href="#CMR17-30" transform="translate(45.690477 0)scale(0.996264)"/>
       <use xlink:href="#CMR17-30" transform="translate(91.380954 0)scale(0.996264)"/>
       <use xlink:href="#CMR17-30" transform="translate(137.071431 0)scale(0.996264)"/>
       <use xlink:href="#CMR17-30" transform="translate(182.761908 0)scale(0.996264)"/>
      </g>
     </g>
    </g>
    <g id="text_10">
     <!-- f -->
     <g transform="translate(234.637922 334.358175)scale(0.1 -0.1)">
      <defs>
       <path id="CMR17-66" d="M 979 2560 
L 1709 2560 
L 1709 2725 
L 966 2725 
L 966 3494 
C 966 4022 1235 4352 1510 4352 
C 1594 4352 1690 4327 1754 4282 
C 1702 4269 1568 4225 1568 4067 
C 1568 3901 1696 3850 1786 3850 
C 1875 3850 2003 3901 2003 4067 
C 2003 4308 1773 4454 1517 4454 
C 1152 4454 653 4156 653 3481 
L 653 2725 
L 141 2725 
L 141 2560 
L 653 2560 
L 653 427 
C 653 184 627 153 218 153 
L 218 -13 
C 371 0 666 0 832 0 
C 1018 0 1344 0 1517 -13 
L 1517 153 
C 1056 153 979 153 979 439 
L 979 2560 
z
" transform="scale(0.015625)"/>
      </defs>
      <use xlink:href="#CMR17-66" transform="scale(0.996264)"/>
     </g>
    </g>
   </g>
   <g id="matplotlib.axis_2">
    <g id="ytick_1">
     <g id="line2d_10">
      <defs>
       <path id="m35d79f2883" d="M 0 0 
L -3.5 0 
" style="stroke: #000000; stroke-width: 0.8"/>
      </defs>
      <g>
       <use xlink:href="#m35d79f2883" x="57.6" y="287.882061" style="stroke: #000000; stroke-width: 0.8"/>
      </g>
     </g>
     <g id="text_11">
      <!-- $\mathdefault{20}$ -->
      <g transform="translate(40.637329 291.34131)scale(0.1 -0.1)">
       <use xlink:href="#CMR17-32" transform="scale(0.996264)"/>
       <use xlink:href="#CMR17-30" transform="translate(45.690477 0)scale(0.996264)"/>
      </g>
     </g>
    </g>
    <g id="ytick_2">
     <g id="line2d_11">
      <g>
       <use xlink:href="#m35d79f2883" x="57.6" y="236.813612" style="stroke: #000000; stroke-width: 0.8"/>
      </g>
     </g>
     <g id="text_12">
      <!-- $\mathdefault{40}$ -->
      <g transform="translate(40.637329 240.272861)scale(0.1 -0.1)">
       <defs>
        <path id="CMR17-34" d="M 2150 4122 
C 2150 4256 2144 4256 2029 4256 
L 128 1254 
L 128 1088 
L 1779 1088 
L 1779 457 
C 1779 224 1766 160 1318 160 
L 1197 160 
L 1197 0 
C 1402 0 1747 0 1965 0 
C 2182 0 2528 0 2733 0 
L 2733 160 
L 2611 160 
C 2163 160 2150 224 2150 457 
L 2150 1088 
L 2803 1088 
L 2803 1254 
L 2150 1254 
L 2150 4122 
z
M 1798 3703 
L 1798 1254 
L 256 1254 
L 1798 3703 
z
" transform="scale(0.015625)"/>
       </defs>
       <use xlink:href="#CMR17-34" transform="scale(0.996264)"/>
       <use xlink:href="#CMR17-30" transform="translate(45.690477 0)scale(0.996264)"/>
      </g>
     </g>
    </g>
    <g id="ytick_3">
     <g id="line2d_12">
      <g>
       <use xlink:href="#m35d79f2883" x="57.6" y="185.745162" style="stroke: #000000; stroke-width: 0.8"/>
      </g>
     </g>
     <g id="text_13">
      <!-- $\mathdefault{60}$ -->
      <g transform="translate(40.637329 189.204412)scale(0.1 -0.1)">
       <use xlink:href="#CMR17-36" transform="scale(0.996264)"/>
       <use xlink:href="#CMR17-30" transform="translate(45.690477 0)scale(0.996264)"/>
      </g>
     </g>
    </g>
    <g id="ytick_4">
     <g id="line2d_13">
      <g>
       <use xlink:href="#m35d79f2883" x="57.6" y="134.676713" style="stroke: #000000; stroke-width: 0.8"/>
      </g>
     </g>
     <g id="text_14">
      <!-- $\mathdefault{80}$ -->
      <g transform="translate(40.637329 138.135963)scale(0.1 -0.1)">
       <defs>
        <path id="CMR17-38" d="M 1741 2264 
C 2144 2467 2554 2773 2554 3263 
C 2554 3841 1990 4179 1472 4179 
C 890 4179 378 3759 378 3180 
C 378 3021 416 2747 666 2505 
C 730 2442 998 2251 1171 2130 
C 883 1983 211 1634 211 934 
C 211 279 838 -128 1459 -128 
C 2144 -128 2720 362 2720 1010 
C 2720 1590 2330 1857 2074 2029 
L 1741 2264 
z
M 902 2822 
C 851 2854 595 3051 595 3351 
C 595 3739 998 4032 1459 4032 
C 1965 4032 2336 3676 2336 3262 
C 2336 2669 1670 2331 1638 2331 
C 1632 2331 1626 2331 1574 2370 
L 902 2822 
z
M 2080 1519 
C 2176 1449 2483 1240 2483 851 
C 2483 381 2010 25 1472 25 
C 890 25 448 438 448 940 
C 448 1443 838 1862 1280 2060 
L 2080 1519 
z
" transform="scale(0.015625)"/>
       </defs>
       <use xlink:href="#CMR17-38" transform="scale(0.996264)"/>
       <use xlink:href="#CMR17-30" transform="translate(45.690477 0)scale(0.996264)"/>
      </g>
     </g>
    </g>
    <g id="ytick_5">
     <g id="line2d_14">
      <g>
       <use xlink:href="#m35d79f2883" x="57.6" y="83.608264" style="stroke: #000000; stroke-width: 0.8"/>
      </g>
     </g>
     <g id="text_15">
      <!-- $\mathdefault{100}$ -->
      <g transform="translate(35.655994 87.067513)scale(0.1 -0.1)">
       <defs>
        <path id="CMR17-31" d="M 1702 4058 
C 1702 4192 1696 4192 1606 4192 
C 1357 3916 979 3827 621 3827 
C 602 3827 570 3827 563 3808 
C 557 3795 557 3782 557 3648 
C 755 3648 1088 3686 1344 3839 
L 1344 461 
C 1344 236 1331 160 781 160 
L 589 160 
L 589 0 
C 896 0 1216 0 1523 0 
C 1830 0 2150 0 2458 0 
L 2458 160 
L 2266 160 
C 1715 160 1702 230 1702 458 
L 1702 4058 
z
" transform="scale(0.015625)"/>
       </defs>
       <use xlink:href="#CMR17-31" transform="scale(0.996264)"/>
       <use xlink:href="#CMR17-30" transform="translate(45.690477 0)scale(0.996264)"/>
       <use xlink:href="#CMR17-30" transform="translate(91.380954 0)scale(0.996264)"/>
      </g>
     </g>
    </g>
    <g id="text_16">
     <!-- Z -->
     <g transform="translate(29.718816 177.572142)rotate(-90)scale(0.1 -0.1)">
      <defs>
       <path id="CMR17-5a" d="M 3302 4230 
C 3302 4352 3296 4352 3162 4352 
L 442 4352 
L 378 2948 
L 493 2948 
C 531 3675 723 4192 1760 4192 
L 2816 4192 
L 339 204 
C 294 134 294 127 294 83 
C 294 0 307 0 435 0 
L 3245 0 
L 3334 1666 
L 3219 1666 
C 3162 829 3117 178 1894 178 
L 781 178 
L 3302 4230 
z
" transform="scale(0.015625)"/>
      </defs>
      <use xlink:href="#CMR17-5a" transform="scale(0.996264)"/>
     </g>
    </g>
   </g>
   <g id="LineCollection_1">
    <path d="M 73.832727 283.441326 
L 73.832727 283.441326 
" clip-path="url(#pb32df7e08d)" style="fill: none; stroke: #b22222; stroke-width: 1.5"/>
    <path d="M 90.065455 295.488 
L 90.065455 295.488 
" clip-path="url(#pb32df7e08d)" style="fill: none; stroke: #b22222; stroke-width: 1.5"/>
    <path d="M 106.298182 295.488 
L 106.298182 295.488 
" clip-path="url(#pb32df7e08d)" style="fill: none; stroke: #b22222; stroke-width: 1.5"/>
    <path d="M 122.530909 295.488 
L 122.530909 295.488 
" clip-path="url(#pb32df7e08d)" style="fill: none; stroke: #b22222; stroke-width: 1.5"/>
    <path d="M 138.763636 295.488 
L 138.763636 295.488 
" clip-path="url(#pb32df7e08d)" style="fill: none; stroke: #b22222; stroke-width: 1.5"/>
    <path d="M 154.996364 295.488 
L 154.996364 295.488 
" clip-path="url(#pb32df7e08d)" style="fill: none; stroke: #b22222; stroke-width: 1.5"/>
    <path d="M 171.229091 295.488 
L 171.229091 295.488 
" clip-path="url(#pb32df7e08d)" style="fill: none; stroke: #b22222; stroke-width: 1.5"/>
    <path d="M 187.461818 295.488 
L 187.461818 295.488 
" clip-path="url(#pb32df7e08d)" style="fill: none; stroke: #b22222; stroke-width: 1.5"/>
    <path d="M 203.694545 270.859244 
L 203.694545 270.859244 
" clip-path="url(#pb32df7e08d)" style="fill: none; stroke: #b22222; stroke-width: 1.5"/>
    <path d="M 219.927273 270.859244 
L 219.927273 270.859244 
" clip-path="url(#pb32df7e08d)" style="fill: none; stroke: #b22222; stroke-width: 1.5"/>
    <path d="M 236.16 243.939442 
L 236.16 243.939442 
" clip-path="url(#pb32df7e08d)" style="fill: none; stroke: #b22222; stroke-width: 1.5"/>
    <path d="M 252.392727 243.939442 
L 252.392727 243.939442 
" clip-path="url(#pb32df7e08d)" style="fill: none; stroke: #b22222; stroke-width: 1.5"/>
    <path d="M 268.625455 198.512275 
L 268.625455 198.512275 
" clip-path="url(#pb32df7e08d)" style="fill: none; stroke: #b22222; stroke-width: 1.5"/>
    <path d="M 366.021818 185.745162 
L 366.021818 185.745162 
" clip-path="url(#pb32df7e08d)" style="fill: none; stroke: #b22222; stroke-width: 1.5"/>
    <path d="M 382.254545 217.358964 
L 382.254545 217.358964 
" clip-path="url(#pb32df7e08d)" style="fill: none; stroke: #b22222; stroke-width: 1.5"/>
    <path d="M 398.487273 217.358964 
L 398.487273 217.358964 
" clip-path="url(#pb32df7e08d)" style="fill: none; stroke: #b22222; stroke-width: 1.5"/>
    <path d="M 284.858182 118.113973 
L 284.858182 118.113973 
" clip-path="url(#pb32df7e08d)" style="fill: none; stroke: #b22222; stroke-width: 1.5"/>
    <path d="M 349.789091 155.627872 
L 349.789091 155.627872 
" clip-path="url(#pb32df7e08d)" style="fill: none; stroke: #b22222; stroke-width: 1.5"/>
    <path d="M 301.090909 53.568 
L 301.090909 53.568 
" clip-path="url(#pb32df7e08d)" style="fill: none; stroke: #b22222; stroke-width: 1.5"/>
    <path d="M 317.323636 76.312771 
L 317.323636 76.312771 
" clip-path="url(#pb32df7e08d)" style="fill: none; stroke: #b22222; stroke-width: 1.5"/>
    <path d="M 333.556364 118.113973 
L 333.556364 118.113973 
" clip-path="url(#pb32df7e08d)" style="fill: none; stroke: #b22222; stroke-width: 1.5"/>
   </g>
   <g id="LineCollection_2">
    <path d="M 73.832727 283.441326 
L 73.832727 283.441326 
" clip-path="url(#pb32df7e08d)" style="fill: none; stroke: #b22222; stroke-width: 1.5"/>
    <path d="M 90.065455 295.488 
L 90.065455 295.488 
" clip-path="url(#pb32df7e08d)" style="fill: none; stroke: #b22222; stroke-width: 1.5"/>
    <path d="M 106.298182 295.488 
L 106.298182 295.488 
" clip-path="url(#pb32df7e08d)" style="fill: none; stroke: #b22222; stroke-width: 1.5"/>
    <path d="M 122.530909 295.488 
L 122.530909 295.488 
" clip-path="url(#pb32df7e08d)" style="fill: none; stroke: #b22222; stroke-width: 1.5"/>
    <path d="M 138.763636 295.488 
L 138.763636 295.488 
" clip-path="url(#pb32df7e08d)" style="fill: none; stroke: #b22222; stroke-width: 1.5"/>
    <path d="M 154.996364 295.488 
L 154.996364 295.488 
" clip-path="url(#pb32df7e08d)" style="fill: none; stroke: #b22222; stroke-width: 1.5"/>
    <path d="M 171.229091 295.488 
L 171.229091 295.488 
" clip-path="url(#pb32df7e08d)" style="fill: none; stroke: #b22222; stroke-width: 1.5"/>
    <path d="M 187.461818 295.488 
L 187.461818 295.488 
" clip-path="url(#pb32df7e08d)" style="fill: none; stroke: #b22222; stroke-width: 1.5"/>
    <path d="M 203.694545 270.859244 
L 203.694545 270.859244 
" clip-path="url(#pb32df7e08d)" style="fill: none; stroke: #b22222; stroke-width: 1.5"/>
    <path d="M 219.927273 270.859244 
L 219.927273 270.859244 
" clip-path="url(#pb32df7e08d)" style="fill: none; stroke: #b22222; stroke-width: 1.5"/>
    <path d="M 236.16 243.939442 
L 236.16 243.939442 
" clip-path="url(#pb32df7e08d)" style="fill: none; stroke: #b22222; stroke-width: 1.5"/>
    <path d="M 252.392727 243.939442 
L 252.392727 243.939442 
" clip-path="url(#pb32df7e08d)" style="fill: none; stroke: #b22222; stroke-width: 1.5"/>
    <path d="M 268.625455 198.512275 
L 268.625455 198.512275 
" clip-path="url(#pb32df7e08d)" style="fill: none; stroke: #b22222; stroke-width: 1.5"/>
    <path d="M 366.021818 185.745162 
L 366.021818 185.745162 
" clip-path="url(#pb32df7e08d)" style="fill: none; stroke: #b22222; stroke-width: 1.5"/>
    <path d="M 382.254545 217.358964 
L 382.254545 217.358964 
" clip-path="url(#pb32df7e08d)" style="fill: none; stroke: #b22222; stroke-width: 1.5"/>
    <path d="M 398.487273 217.358964 
L 398.487273 217.358964 
" clip-path="url(#pb32df7e08d)" style="fill: none; stroke: #b22222; stroke-width: 1.5"/>
    <path d="M 284.858182 118.113973 
L 284.858182 118.113973 
" clip-path="url(#pb32df7e08d)" style="fill: none; stroke: #b22222; stroke-width: 1.5"/>
    <path d="M 349.789091 155.627872 
L 349.789091 155.627872 
" clip-path="url(#pb32df7e08d)" style="fill: none; stroke: #b22222; stroke-width: 1.5"/>
    <path d="M 301.090909 53.568 
L 301.090909 53.568 
" clip-path="url(#pb32df7e08d)" style="fill: none; stroke: #b22222; stroke-width: 1.5"/>
    <path d="M 317.323636 76.312771 
L 317.323636 76.312771 
" clip-path="url(#pb32df7e08d)" style="fill: none; stroke: #b22222; stroke-width: 1.5"/>
    <path d="M 333.556364 118.113973 
L 333.556364 118.113973 
" clip-path="url(#pb32df7e08d)" style="fill: none; stroke: #b22222; stroke-width: 1.5"/>
   </g>
   <g id="line2d_15">
    <defs>
     <path id="mbfcb65f7f1" d="M -3 0 
L 3 0 
M 0 3 
L 0 -3 
" style="stroke: #4169e1"/>
    </defs>
    <g clip-path="url(#pb32df7e08d)">
     <use xlink:href="#mbfcb65f7f1" x="73.832727" y="283.441326" style="fill: #4169e1; stroke: #4169e1"/>
     <use xlink:href="#mbfcb65f7f1" x="90.065455" y="295.488" style="fill: #4169e1; stroke: #4169e1"/>
     <use xlink:href="#mbfcb65f7f1" x="106.298182" y="295.488" style="fill: #4169e1; stroke: #4169e1"/>
     <use xlink:href="#mbfcb65f7f1" x="122.530909" y="295.488" style="fill: #4169e1; stroke: #4169e1"/>
     <use xlink:href="#mbfcb65f7f1" x="138.763636" y="295.488" style="fill: #4169e1; stroke: #4169e1"/>
     <use xlink:href="#mbfcb65f7f1" x="154.996364" y="295.488" style="fill: #4169e1; stroke: #4169e1"/>
     <use xlink:href="#mbfcb65f7f1" x="171.229091" y="295.488" style="fill: #4169e1; stroke: #4169e1"/>
     <use xlink:href="#mbfcb65f7f1" x="187.461818" y="295.488" style="fill: #4169e1; stroke: #4169e1"/>
     <use xlink:href="#mbfcb65f7f1" x="203.694545" y="270.859244" style="fill: #4169e1; stroke: #4169e1"/>
     <use xlink:href="#mbfcb65f7f1" x="219.927273" y="270.859244" style="fill: #4169e1; stroke: #4169e1"/>
     <use xlink:href="#mbfcb65f7f1" x="236.16" y="243.939442" style="fill: #4169e1; stroke: #4169e1"/>
     <use xlink:href="#mbfcb65f7f1" x="252.392727" y="243.939442" style="fill: #4169e1; stroke: #4169e1"/>
     <use xlink:href="#mbfcb65f7f1" x="268.625455" y="198.512275" style="fill: #4169e1; stroke: #4169e1"/>
     <use xlink:href="#mbfcb65f7f1" x="366.021818" y="185.745162" style="fill: #4169e1; stroke: #4169e1"/>
     <use xlink:href="#mbfcb65f7f1" x="382.254545" y="217.358964" style="fill: #4169e1; stroke: #4169e1"/>
     <use xlink:href="#mbfcb65f7f1" x="398.487273" y="217.358964" style="fill: #4169e1; stroke: #4169e1"/>
     <use xlink:href="#mbfcb65f7f1" x="284.858182" y="118.113973" style="fill: #4169e1; stroke: #4169e1"/>
     <use xlink:href="#mbfcb65f7f1" x="349.789091" y="155.627872" style="fill: #4169e1; stroke: #4169e1"/>
     <use xlink:href="#mbfcb65f7f1" x="301.090909" y="53.568" style="fill: #4169e1; stroke: #4169e1"/>
     <use xlink:href="#mbfcb65f7f1" x="317.323636" y="76.312771" style="fill: #4169e1; stroke: #4169e1"/>
     <use xlink:href="#mbfcb65f7f1" x="333.556364" y="118.113973" style="fill: #4169e1; stroke: #4169e1"/>
    </g>
   </g>
   <g id="patch_3">
    <path d="M 57.6 307.584 
L 57.6 41.472 
" style="fill: none; stroke: #000000; stroke-width: 0.8; stroke-linejoin: miter; stroke-linecap: square"/>
   </g>
   <g id="patch_4">
    <path d="M 414.72 307.584 
L 414.72 41.472 
" style="fill: none; stroke: #000000; stroke-width: 0.8; stroke-linejoin: miter; stroke-linecap: square"/>
   </g>
   <g id="patch_5">
    <path d="M 57.6 307.584 
L 414.72 307.584 
" style="fill: none; stroke: #000000; stroke-width: 0.8; stroke-linejoin: miter; stroke-linecap: square"/>
   </g>
   <g id="patch_6">
    <path d="M 57.6 41.472 
L 414.72 41.472 
" style="fill: none; stroke: #000000; stroke-width: 0.8; stroke-linejoin: miter; stroke-linecap: square"/>
   </g>
  </g>
 </g>
 <defs>
  <clipPath id="pb32df7e08d">
   <rect x="57.6" y="41.472" width="357.12" height="266.112"/>
  </clipPath>
 </defs>
</svg>
