<?xml version="1.0" encoding="utf-8" standalone="no"?>
<!DOCTYPE svg PUBLIC "-//W3C//DTD SVG 1.1//EN"
  "http://www.w3.org/Graphics/SVG/1.1/DTD/svg11.dtd">
<svg xmlns:xlink="http://www.w3.org/1999/xlink" width="460.8pt" height="345.6pt" viewBox="0 0 460.8 345.6" xmlns="http://www.w3.org/2000/svg" version="1.1">
 <metadata>
  <rdf:RDF xmlns:dc="http://purl.org/dc/elements/1.1/" xmlns:cc="http://creativecommons.org/ns#" xmlns:rdf="http://www.w3.org/1999/02/22-rdf-syntax-ns#">
   <cc:Work>
    <dc:type rdf:resource="http://purl.org/dc/dcmitype/StillImage"/>
    <dc:date>2022-05-21T12:47:58.976310</dc:date>
    <dc:format>image/svg+xml</dc:format>
    <dc:creator>
     <cc:Agent>
      <dc:title>Matplotlib v3.5.1, https://matplotlib.org/</dc:title>
     </cc:Agent>
    </dc:creator>
   </cc:Work>
  </rdf:RDF>
 </metadata>
 <defs>
  <style type="text/css">*{stroke-linejoin: round; stroke-linecap: butt}</style>
 </defs>
 <g id="figure_1">
  <g id="patch_1">
   <path d="M 0 345.6 
L 460.8 345.6 
L 460.8 0 
L 0 0 
z
" style="fill: #ffffff"/>
  </g>
  <g id="axes_1">
   <g id="patch_2">
    <path d="M 52.78403 298.92005 
L 450 298.92005 
L 450 10.8 
L 52.78403 10.8 
z
" style="fill: #ffffff"/>
   </g>
   <g id="matplotlib.axis_1">
    <g id="xtick_1">
     <g id="line2d_1">
      <defs>
       <path id="m9097e5c8d5" d="M 0 0 
L 0 3.5 
" style="stroke: #000000; stroke-width: 0.8"/>
      </defs>
      <g>
       <use xlink:href="#m9097e5c8d5" x="70.839301" y="298.92005" style="stroke: #000000; stroke-width: 0.8"/>
      </g>
     </g>
     <g id="text_1">
      <!-- $\mathdefault{30000}$ -->
      <g transform="translate(58.385963 312.838548)scale(0.1 -0.1)">
       <defs>
        <path id="CMR17-33" d="M 1414 2157 
C 1984 2157 2234 1662 2234 1090 
C 2234 320 1824 25 1453 25 
C 1114 25 563 194 390 693 
C 422 680 454 680 486 680 
C 640 680 755 782 755 948 
C 755 1133 614 1216 486 1216 
C 378 1216 211 1165 211 926 
C 211 335 787 -128 1466 -128 
C 2176 -128 2720 430 2720 1085 
C 2720 1707 2208 2157 1600 2227 
C 2086 2328 2554 2756 2554 3329 
C 2554 3820 2048 4179 1472 4179 
C 890 4179 378 3829 378 3329 
C 378 3110 544 3072 627 3072 
C 762 3072 877 3155 877 3321 
C 877 3486 762 3569 627 3569 
C 602 3569 570 3569 544 3557 
C 730 3959 1235 4032 1459 4032 
C 1683 4032 2106 3925 2106 3320 
C 2106 3143 2080 2828 1862 2550 
C 1670 2304 1453 2304 1242 2284 
C 1210 2284 1062 2269 1037 2269 
C 992 2263 966 2257 966 2208 
C 966 2163 973 2157 1101 2157 
L 1414 2157 
z
" transform="scale(0.015625)"/>
        <path id="CMR17-30" d="M 2688 2025 
C 2688 2416 2682 3080 2413 3591 
C 2176 4039 1798 4198 1466 4198 
C 1158 4198 768 4058 525 3597 
C 269 3118 243 2524 243 2025 
C 243 1661 250 1106 448 619 
C 723 -39 1216 -128 1466 -128 
C 1760 -128 2208 -7 2470 600 
C 2662 1042 2688 1559 2688 2025 
z
M 1466 -26 
C 1056 -26 813 325 723 812 
C 653 1188 653 1738 653 2096 
C 653 2588 653 2997 736 3387 
C 858 3929 1216 4096 1466 4096 
C 1728 4096 2067 3923 2189 3400 
C 2272 3036 2278 2607 2278 2096 
C 2278 1680 2278 1169 2202 792 
C 2067 95 1690 -26 1466 -26 
z
" transform="scale(0.015625)"/>
       </defs>
       <use xlink:href="#CMR17-33" transform="scale(0.996264)"/>
       <use xlink:href="#CMR17-30" transform="translate(45.690477 0)scale(0.996264)"/>
       <use xlink:href="#CMR17-30" transform="translate(91.380954 0)scale(0.996264)"/>
       <use xlink:href="#CMR17-30" transform="translate(137.071431 0)scale(0.996264)"/>
       <use xlink:href="#CMR17-30" transform="translate(182.761908 0)scale(0.996264)"/>
      </g>
     </g>
    </g>
    <g id="xtick_2">
     <g id="line2d_2">
      <g>
       <use xlink:href="#m9097e5c8d5" x="126.393982" y="298.92005" style="stroke: #000000; stroke-width: 0.8"/>
      </g>
     </g>
     <g id="text_2">
      <!-- $\mathdefault{40000}$ -->
      <g transform="translate(113.940644 312.838548)scale(0.1 -0.1)">
       <defs>
        <path id="CMR17-34" d="M 2150 4122 
C 2150 4256 2144 4256 2029 4256 
L 128 1254 
L 128 1088 
L 1779 1088 
L 1779 457 
C 1779 224 1766 160 1318 160 
L 1197 160 
L 1197 0 
C 1402 0 1747 0 1965 0 
C 2182 0 2528 0 2733 0 
L 2733 160 
L 2611 160 
C 2163 160 2150 224 2150 457 
L 2150 1088 
L 2803 1088 
L 2803 1254 
L 2150 1254 
L 2150 4122 
z
M 1798 3703 
L 1798 1254 
L 256 1254 
L 1798 3703 
z
" transform="scale(0.015625)"/>
       </defs>
       <use xlink:href="#CMR17-34" transform="scale(0.996264)"/>
       <use xlink:href="#CMR17-30" transform="translate(45.690477 0)scale(0.996264)"/>
       <use xlink:href="#CMR17-30" transform="translate(91.380954 0)scale(0.996264)"/>
       <use xlink:href="#CMR17-30" transform="translate(137.071431 0)scale(0.996264)"/>
       <use xlink:href="#CMR17-30" transform="translate(182.761908 0)scale(0.996264)"/>
      </g>
     </g>
    </g>
    <g id="xtick_3">
     <g id="line2d_3">
      <g>
       <use xlink:href="#m9097e5c8d5" x="181.948664" y="298.92005" style="stroke: #000000; stroke-width: 0.8"/>
      </g>
     </g>
     <g id="text_3">
      <!-- $\mathdefault{50000}$ -->
      <g transform="translate(169.495325 312.838548)scale(0.1 -0.1)">
       <defs>
        <path id="CMR17-35" d="M 730 3692 
C 794 3666 1056 3584 1325 3584 
C 1920 3584 2246 3911 2432 4100 
C 2432 4157 2432 4192 2394 4192 
C 2387 4192 2374 4192 2323 4163 
C 2099 4058 1837 3973 1517 3973 
C 1325 3973 1037 3999 723 4139 
C 653 4171 640 4171 634 4171 
C 602 4171 595 4164 595 4037 
L 595 2203 
C 595 2089 595 2057 659 2057 
C 691 2057 704 2070 736 2114 
C 941 2401 1222 2522 1542 2522 
C 1766 2522 2246 2382 2246 1289 
C 2246 1085 2246 715 2054 421 
C 1894 159 1645 25 1370 25 
C 947 25 518 320 403 814 
C 429 807 480 795 506 795 
C 589 795 749 840 749 1038 
C 749 1210 627 1280 506 1280 
C 358 1280 262 1190 262 1011 
C 262 454 704 -128 1382 -128 
C 2042 -128 2669 440 2669 1264 
C 2669 2030 2170 2624 1549 2624 
C 1222 2624 947 2503 730 2274 
L 730 3692 
z
" transform="scale(0.015625)"/>
       </defs>
       <use xlink:href="#CMR17-35" transform="scale(0.996264)"/>
       <use xlink:href="#CMR17-30" transform="translate(45.690477 0)scale(0.996264)"/>
       <use xlink:href="#CMR17-30" transform="translate(91.380954 0)scale(0.996264)"/>
       <use xlink:href="#CMR17-30" transform="translate(137.071431 0)scale(0.996264)"/>
       <use xlink:href="#CMR17-30" transform="translate(182.761908 0)scale(0.996264)"/>
      </g>
     </g>
    </g>
    <g id="xtick_4">
     <g id="line2d_4">
      <g>
       <use xlink:href="#m9097e5c8d5" x="237.503345" y="298.92005" style="stroke: #000000; stroke-width: 0.8"/>
      </g>
     </g>
     <g id="text_4">
      <!-- $\mathdefault{60000}$ -->
      <g transform="translate(225.050007 312.838548)scale(0.1 -0.1)">
       <defs>
        <path id="CMR17-36" d="M 678 2176 
C 678 3690 1395 4032 1811 4032 
C 1946 4032 2272 4009 2400 3776 
C 2298 3776 2106 3776 2106 3553 
C 2106 3381 2246 3323 2336 3323 
C 2394 3323 2566 3348 2566 3560 
C 2566 3954 2246 4179 1805 4179 
C 1043 4179 243 3390 243 1984 
C 243 253 966 -128 1478 -128 
C 2099 -128 2688 427 2688 1283 
C 2688 2081 2170 2662 1517 2662 
C 1126 2662 838 2407 678 1960 
L 678 2176 
z
M 1478 25 
C 691 25 691 1200 691 1436 
C 691 1896 909 2560 1504 2560 
C 1613 2560 1926 2560 2138 2120 
C 2253 1870 2253 1609 2253 1289 
C 2253 944 2253 690 2118 434 
C 1978 171 1773 25 1478 25 
z
" transform="scale(0.015625)"/>
       </defs>
       <use xlink:href="#CMR17-36" transform="scale(0.996264)"/>
       <use xlink:href="#CMR17-30" transform="translate(45.690477 0)scale(0.996264)"/>
       <use xlink:href="#CMR17-30" transform="translate(91.380954 0)scale(0.996264)"/>
       <use xlink:href="#CMR17-30" transform="translate(137.071431 0)scale(0.996264)"/>
       <use xlink:href="#CMR17-30" transform="translate(182.761908 0)scale(0.996264)"/>
      </g>
     </g>
    </g>
    <g id="xtick_5">
     <g id="line2d_5">
      <g>
       <use xlink:href="#m9097e5c8d5" x="293.058026" y="298.92005" style="stroke: #000000; stroke-width: 0.8"/>
      </g>
     </g>
     <g id="text_5">
      <!-- $\mathdefault{70000}$ -->
      <g transform="translate(280.604688 312.838548)scale(0.1 -0.1)">
       <defs>
        <path id="CMR17-37" d="M 2886 3941 
L 2886 4081 
L 1382 4081 
C 634 4081 621 4165 595 4288 
L 480 4288 
L 294 3094 
L 410 3094 
C 429 3215 474 3540 550 3661 
C 589 3712 1062 3712 1171 3712 
L 2579 3712 
L 1869 2661 
C 1395 1954 1069 999 1069 165 
C 1069 89 1069 -128 1299 -128 
C 1530 -128 1530 89 1530 171 
L 1530 465 
C 1530 1508 1709 2196 2003 2636 
L 2886 3941 
z
" transform="scale(0.015625)"/>
       </defs>
       <use xlink:href="#CMR17-37" transform="scale(0.996264)"/>
       <use xlink:href="#CMR17-30" transform="translate(45.690477 0)scale(0.996264)"/>
       <use xlink:href="#CMR17-30" transform="translate(91.380954 0)scale(0.996264)"/>
       <use xlink:href="#CMR17-30" transform="translate(137.071431 0)scale(0.996264)"/>
       <use xlink:href="#CMR17-30" transform="translate(182.761908 0)scale(0.996264)"/>
      </g>
     </g>
    </g>
    <g id="xtick_6">
     <g id="line2d_6">
      <g>
       <use xlink:href="#m9097e5c8d5" x="348.612707" y="298.92005" style="stroke: #000000; stroke-width: 0.8"/>
      </g>
     </g>
     <g id="text_6">
      <!-- $\mathdefault{80000}$ -->
      <g transform="translate(336.159369 312.838548)scale(0.1 -0.1)">
       <defs>
        <path id="CMR17-38" d="M 1741 2264 
C 2144 2467 2554 2773 2554 3263 
C 2554 3841 1990 4179 1472 4179 
C 890 4179 378 3759 378 3180 
C 378 3021 416 2747 666 2505 
C 730 2442 998 2251 1171 2130 
C 883 1983 211 1634 211 934 
C 211 279 838 -128 1459 -128 
C 2144 -128 2720 362 2720 1010 
C 2720 1590 2330 1857 2074 2029 
L 1741 2264 
z
M 902 2822 
C 851 2854 595 3051 595 3351 
C 595 3739 998 4032 1459 4032 
C 1965 4032 2336 3676 2336 3262 
C 2336 2669 1670 2331 1638 2331 
C 1632 2331 1626 2331 1574 2370 
L 902 2822 
z
M 2080 1519 
C 2176 1449 2483 1240 2483 851 
C 2483 381 2010 25 1472 25 
C 890 25 448 438 448 940 
C 448 1443 838 1862 1280 2060 
L 2080 1519 
z
" transform="scale(0.015625)"/>
       </defs>
       <use xlink:href="#CMR17-38" transform="scale(0.996264)"/>
       <use xlink:href="#CMR17-30" transform="translate(45.690477 0)scale(0.996264)"/>
       <use xlink:href="#CMR17-30" transform="translate(91.380954 0)scale(0.996264)"/>
       <use xlink:href="#CMR17-30" transform="translate(137.071431 0)scale(0.996264)"/>
       <use xlink:href="#CMR17-30" transform="translate(182.761908 0)scale(0.996264)"/>
      </g>
     </g>
    </g>
    <g id="xtick_7">
     <g id="line2d_7">
      <g>
       <use xlink:href="#m9097e5c8d5" x="404.167388" y="298.92005" style="stroke: #000000; stroke-width: 0.8"/>
      </g>
     </g>
     <g id="text_7">
      <!-- $\mathdefault{90000}$ -->
      <g transform="translate(391.71405 312.838548)scale(0.1 -0.1)">
       <defs>
        <path id="CMR17-39" d="M 2253 1864 
C 2253 464 1670 31 1190 31 
C 1043 31 685 31 538 294 
C 704 268 826 357 826 518 
C 826 692 685 749 595 749 
C 538 749 365 723 365 506 
C 365 71 742 -128 1203 -128 
C 1939 -128 2688 674 2688 2073 
C 2688 3817 1971 4179 1485 4179 
C 851 4179 243 3628 243 2778 
C 243 1991 762 1408 1414 1408 
C 1952 1408 2189 1903 2253 2112 
L 2253 1864 
z
M 1427 1510 
C 1254 1510 1011 1542 813 1922 
C 678 2169 678 2461 678 2771 
C 678 3146 678 3405 858 3684 
C 947 3817 1114 4032 1485 4032 
C 2240 4032 2240 2885 2240 2632 
C 2240 2182 2035 1510 1427 1510 
z
" transform="scale(0.015625)"/>
       </defs>
       <use xlink:href="#CMR17-39" transform="scale(0.996264)"/>
       <use xlink:href="#CMR17-30" transform="translate(45.690477 0)scale(0.996264)"/>
       <use xlink:href="#CMR17-30" transform="translate(91.380954 0)scale(0.996264)"/>
       <use xlink:href="#CMR17-30" transform="translate(137.071431 0)scale(0.996264)"/>
       <use xlink:href="#CMR17-30" transform="translate(182.761908 0)scale(0.996264)"/>
      </g>
     </g>
    </g>
    <g id="text_8">
     <!-- $f$ (Hz) -->
     <g transform="translate(228.704624 330.730895)scale(0.16 -0.16)">
      <defs>
       <path id="CMMI12-66" d="M 2854 2566 
C 2982 2566 3034 2566 3034 2688 
C 3034 2752 2982 2752 2867 2752 
L 2349 2752 
C 2470 3429 2560 3897 2611 4107 
C 2650 4265 2784 4416 2950 4416 
C 3085 4416 3219 4358 3283 4298 
C 3034 4272 2957 4082 2957 3969 
C 2957 3837 3053 3759 3174 3759 
C 3302 3759 3494 3870 3494 4119 
C 3494 4393 3226 4544 2944 4544 
C 2669 4544 2400 4334 2272 4078 
C 2157 3848 2093 3611 1946 2752 
L 1517 2752 
C 1395 2752 1331 2752 1331 2637 
C 1331 2566 1370 2566 1498 2566 
L 1907 2566 
C 1792 1976 1530 542 1382 -137 
C 1274 -689 1178 -1152 858 -1152 
C 838 -1152 653 -1152 538 -1031 
C 864 -1005 864 -726 864 -720 
C 864 -593 768 -517 646 -517 
C 518 -517 326 -625 326 -867 
C 326 -1140 608 -1280 858 -1280 
C 1510 -1280 1779 -118 1850 199 
C 1965 688 2278 2376 2310 2566 
L 2854 2566 
z
" transform="scale(0.015625)"/>
       <path id="CMR17-28" d="M 1958 -1561 
C 1958 -1555 1958 -1542 1939 -1523 
C 1645 -1224 858 -407 858 1581 
C 858 3569 1632 4379 1946 4697 
C 1946 4704 1958 4717 1958 4736 
C 1958 4755 1939 4768 1914 4768 
C 1843 4768 1299 4296 986 3594 
C 666 2887 576 2199 576 1588 
C 576 1128 621 351 1005 -471 
C 1312 -1135 1837 -1600 1914 -1600 
C 1946 -1600 1958 -1587 1958 -1561 
z
" transform="scale(0.015625)"/>
       <path id="CMR17-48" d="M 3590 3905 
C 3590 4192 3661 4192 4102 4192 
L 4102 4352 
C 3917 4352 3578 4352 3379 4352 
C 3181 4352 2842 4352 2656 4352 
L 2656 4192 
C 3098 4192 3168 4192 3168 3904 
L 3168 2341 
L 1261 2341 
L 1261 3904 
C 1261 4192 1331 4192 1773 4192 
L 1773 4352 
C 1587 4352 1248 4352 1050 4352 
C 851 4352 512 4352 326 4352 
L 326 4192 
C 768 4192 838 4192 838 3905 
L 838 447 
C 838 160 768 160 326 160 
L 326 0 
C 512 0 851 0 1050 0 
C 1248 0 1587 0 1773 0 
L 1773 160 
C 1331 160 1261 160 1261 446 
L 1261 2176 
L 3168 2176 
L 3168 446 
C 3168 160 3098 160 2656 160 
L 2656 0 
C 2842 0 3181 0 3379 0 
C 3578 0 3917 0 4102 0 
L 4102 160 
C 3661 160 3590 160 3590 447 
L 3590 3905 
z
" transform="scale(0.015625)"/>
       <path id="CMR17-7a" d="M 2310 2605 
C 2362 2670 2362 2682 2362 2695 
C 2362 2752 2336 2752 2221 2752 
L 275 2752 
L 211 1760 
L 326 1760 
C 371 2381 442 2650 1178 2650 
L 1958 2650 
L 128 96 
C 128 0 134 0 269 0 
L 2291 0 
L 2381 1152 
L 2266 1152 
C 2214 442 2131 115 1350 115 
L 531 115 
L 2310 2605 
z
" transform="scale(0.015625)"/>
       <path id="CMR17-29" d="M 1683 1581 
C 1683 2040 1638 2817 1254 3639 
C 947 4303 422 4768 346 4768 
C 326 4768 301 4761 301 4729 
C 301 4717 307 4710 314 4697 
C 621 4378 1402 3568 1402 1584 
C 1402 -407 627 -1217 314 -1537 
C 307 -1549 301 -1556 301 -1568 
C 301 -1600 326 -1600 346 -1600 
C 416 -1600 960 -1128 1274 -426 
C 1594 281 1683 969 1683 1581 
z
" transform="scale(0.015625)"/>
      </defs>
      <use xlink:href="#CMMI12-66" transform="scale(0.996264)"/>
      <use xlink:href="#CMR17-28" transform="translate(88.796271 0)scale(0.996264)"/>
      <use xlink:href="#CMR17-48" transform="translate(124.077039 0)scale(0.996264)"/>
      <use xlink:href="#CMR17-7a" transform="translate(193.149469 0)scale(0.996264)"/>
      <use xlink:href="#CMR17-29" transform="translate(233.635129 0)scale(0.996264)"/>
     </g>
    </g>
   </g>
   <g id="matplotlib.axis_2">
    <g id="ytick_1">
     <g id="line2d_8">
      <defs>
       <path id="m73547de85d" d="M 0 0 
L -3.5 0 
" style="stroke: #000000; stroke-width: 0.8"/>
      </defs>
      <g>
       <use xlink:href="#m73547de85d" x="52.78403" y="260.966769" style="stroke: #000000; stroke-width: 0.8"/>
      </g>
     </g>
     <g id="text_9">
      <!-- $\mathdefault{20}$ -->
      <g transform="translate(35.821359 264.426018)scale(0.1 -0.1)">
       <defs>
        <path id="CMR17-32" d="M 2669 989 
L 2554 989 
C 2490 536 2438 459 2413 420 
C 2381 369 1920 369 1830 369 
L 602 369 
C 832 619 1280 1072 1824 1597 
C 2214 1967 2669 2402 2669 3035 
C 2669 3790 2067 4224 1395 4224 
C 691 4224 262 3604 262 3030 
C 262 2780 448 2748 525 2748 
C 589 2748 781 2787 781 3010 
C 781 3207 614 3264 525 3264 
C 486 3264 448 3258 422 3245 
C 544 3790 915 4058 1306 4058 
C 1862 4058 2227 3617 2227 3035 
C 2227 2479 1901 2000 1536 1584 
L 262 146 
L 262 0 
L 2515 0 
L 2669 989 
z
" transform="scale(0.015625)"/>
       </defs>
       <use xlink:href="#CMR17-32" transform="scale(0.996264)"/>
       <use xlink:href="#CMR17-30" transform="translate(45.690477 0)scale(0.996264)"/>
      </g>
     </g>
    </g>
    <g id="ytick_2">
     <g id="line2d_9">
      <g>
       <use xlink:href="#m73547de85d" x="52.78403" y="208.618334" style="stroke: #000000; stroke-width: 0.8"/>
      </g>
     </g>
     <g id="text_10">
      <!-- $\mathdefault{40}$ -->
      <g transform="translate(35.821359 212.077583)scale(0.1 -0.1)">
       <use xlink:href="#CMR17-34" transform="scale(0.996264)"/>
       <use xlink:href="#CMR17-30" transform="translate(45.690477 0)scale(0.996264)"/>
      </g>
     </g>
    </g>
    <g id="ytick_3">
     <g id="line2d_10">
      <g>
       <use xlink:href="#m73547de85d" x="52.78403" y="156.2699" style="stroke: #000000; stroke-width: 0.8"/>
      </g>
     </g>
     <g id="text_11">
      <!-- $\mathdefault{60}$ -->
      <g transform="translate(35.821359 159.729149)scale(0.1 -0.1)">
       <use xlink:href="#CMR17-36" transform="scale(0.996264)"/>
       <use xlink:href="#CMR17-30" transform="translate(45.690477 0)scale(0.996264)"/>
      </g>
     </g>
    </g>
    <g id="ytick_4">
     <g id="line2d_11">
      <g>
       <use xlink:href="#m73547de85d" x="52.78403" y="103.921465" style="stroke: #000000; stroke-width: 0.8"/>
      </g>
     </g>
     <g id="text_12">
      <!-- $\mathdefault{80}$ -->
      <g transform="translate(35.821359 107.380714)scale(0.1 -0.1)">
       <use xlink:href="#CMR17-38" transform="scale(0.996264)"/>
       <use xlink:href="#CMR17-30" transform="translate(45.690477 0)scale(0.996264)"/>
      </g>
     </g>
    </g>
    <g id="ytick_5">
     <g id="line2d_12">
      <g>
       <use xlink:href="#m73547de85d" x="52.78403" y="51.573031" style="stroke: #000000; stroke-width: 0.8"/>
      </g>
     </g>
     <g id="text_13">
      <!-- $\mathdefault{100}$ -->
      <g transform="translate(30.840024 55.03228)scale(0.1 -0.1)">
       <defs>
        <path id="CMR17-31" d="M 1702 4058 
C 1702 4192 1696 4192 1606 4192 
C 1357 3916 979 3827 621 3827 
C 602 3827 570 3827 563 3808 
C 557 3795 557 3782 557 3648 
C 755 3648 1088 3686 1344 3839 
L 1344 461 
C 1344 236 1331 160 781 160 
L 589 160 
L 589 0 
C 896 0 1216 0 1523 0 
C 1830 0 2150 0 2458 0 
L 2458 160 
L 2266 160 
C 1715 160 1702 230 1702 458 
L 1702 4058 
z
" transform="scale(0.015625)"/>
       </defs>
       <use xlink:href="#CMR17-31" transform="scale(0.996264)"/>
       <use xlink:href="#CMR17-30" transform="translate(45.690477 0)scale(0.996264)"/>
       <use xlink:href="#CMR17-30" transform="translate(91.380954 0)scale(0.996264)"/>
      </g>
     </g>
    </g>
    <g id="text_14">
     <!-- $Z$ ($\Omega$) -->
     <g transform="translate(22.854968 175.081223)rotate(-90)scale(0.16 -0.16)">
      <defs>
       <path id="CMMI12-5a" d="M 4480 4154 
C 4518 4199 4550 4237 4550 4301 
C 4550 4346 4544 4352 4397 4352 
L 1754 4352 
C 1606 4352 1600 4346 1562 4231 
L 1210 3084 
C 1190 3020 1190 3007 1190 2995 
C 1190 2969 1210 2931 1254 2931 
C 1306 2931 1318 2956 1344 3039 
C 1581 3727 1894 4167 2906 4167 
L 3955 4167 
L 448 216 
C 390 147 365 121 365 51 
C 365 0 397 0 518 0 
L 3251 0 
C 3398 0 3405 6 3443 121 
L 3891 1529 
C 3898 1548 3910 1593 3910 1618 
C 3910 1650 3885 1682 3846 1682 
C 3795 1682 3789 1676 3738 1516 
C 3469 695 3187 198 2074 198 
L 966 198 
L 4480 4154 
z
" transform="scale(0.015625)"/>
       <path id="CMR17-a" d="M 4038 935 
L 3923 935 
C 3866 641 3846 563 3814 461 
C 3782 365 3763 314 3392 314 
L 2874 314 
C 2944 686 3098 961 3366 1391 
C 3699 1935 3974 2377 3974 2910 
C 3974 3775 3155 4480 2138 4480 
C 1094 4480 294 3768 294 2910 
C 294 2377 576 1922 890 1416 
C 1171 961 1325 686 1395 314 
L 877 314 
C 512 314 493 365 461 454 
C 422 557 410 641 346 935 
L 230 935 
L 416 0 
L 1382 0 
C 1517 0 1523 6 1523 102 
C 1523 558 1286 1154 1178 1429 
C 973 1929 781 2416 781 2916 
C 781 3871 1466 4377 2131 4377 
C 2829 4377 3488 3851 3488 2916 
C 3488 2422 3315 1981 3078 1397 
C 2976 1135 2746 551 2746 102 
C 2746 0 2752 0 2886 0 
L 3853 0 
L 4038 935 
z
" transform="scale(0.015625)"/>
      </defs>
      <use xlink:href="#CMMI12-5a" transform="scale(0.996264)"/>
      <use xlink:href="#CMR17-28" transform="translate(103.999559 0)scale(0.996264)"/>
      <use xlink:href="#CMR17-a" transform="translate(139.280326 0)scale(0.996264)"/>
      <use xlink:href="#CMR17-29" transform="translate(205.790207 0)scale(0.996264)"/>
     </g>
    </g>
   </g>
   <g id="LineCollection_1">
    <path d="M 70.839301 175.282018 
L 70.839301 175.282018 
" clip-path="url(#p4d2afa80e8)" style="fill: none; stroke: #b22222; stroke-width: 1.5"/>
    <path d="M 76.394769 176.9235 
L 76.394769 176.9235 
" clip-path="url(#p4d2afa80e8)" style="fill: none; stroke: #b22222; stroke-width: 1.5"/>
    <path d="M 81.950238 186.603834 
L 81.950238 186.603834 
" clip-path="url(#p4d2afa80e8)" style="fill: none; stroke: #b22222; stroke-width: 1.5"/>
    <path d="M 87.505706 191.633612 
L 87.505706 191.633612 
" clip-path="url(#p4d2afa80e8)" style="fill: none; stroke: #b22222; stroke-width: 1.5"/>
    <path d="M 93.061174 208.618334 
L 93.061174 208.618334 
" clip-path="url(#p4d2afa80e8)" style="fill: none; stroke: #b22222; stroke-width: 1.5"/>
    <path d="M 98.616642 209.369747 
L 98.616642 209.369747 
" clip-path="url(#p4d2afa80e8)" style="fill: none; stroke: #b22222; stroke-width: 1.5"/>
    <path d="M 104.17211 217.240429 
L 104.17211 217.240429 
" clip-path="url(#p4d2afa80e8)" style="fill: none; stroke: #b22222; stroke-width: 1.5"/>
    <path d="M 109.727578 215.779205 
L 109.727578 215.779205 
" clip-path="url(#p4d2afa80e8)" style="fill: none; stroke: #b22222; stroke-width: 1.5"/>
    <path d="M 115.283046 231.938287 
L 115.283046 231.938287 
" clip-path="url(#p4d2afa80e8)" style="fill: none; stroke: #b22222; stroke-width: 1.5"/>
    <path d="M 120.838514 225.865382 
L 120.838514 225.865382 
" clip-path="url(#p4d2afa80e8)" style="fill: none; stroke: #b22222; stroke-width: 1.5"/>
    <path d="M 126.393982 232.871508 
L 126.393982 232.871508 
" clip-path="url(#p4d2afa80e8)" style="fill: none; stroke: #b22222; stroke-width: 1.5"/>
    <path d="M 131.949451 242.313878 
L 131.949451 242.313878 
" clip-path="url(#p4d2afa80e8)" style="fill: none; stroke: #b22222; stroke-width: 1.5"/>
    <path d="M 137.504919 242.313878 
L 137.504919 242.313878 
" clip-path="url(#p4d2afa80e8)" style="fill: none; stroke: #b22222; stroke-width: 1.5"/>
    <path d="M 143.060387 252.638609 
L 143.060387 252.638609 
" clip-path="url(#p4d2afa80e8)" style="fill: none; stroke: #b22222; stroke-width: 1.5"/>
    <path d="M 148.615855 252.638609 
L 148.615855 252.638609 
" clip-path="url(#p4d2afa80e8)" style="fill: none; stroke: #b22222; stroke-width: 1.5"/>
    <path d="M 154.171323 252.638609 
L 154.171323 252.638609 
" clip-path="url(#p4d2afa80e8)" style="fill: none; stroke: #b22222; stroke-width: 1.5"/>
    <path d="M 159.726791 261.082841 
L 159.726791 261.082841 
" clip-path="url(#p4d2afa80e8)" style="fill: none; stroke: #b22222; stroke-width: 1.5"/>
    <path d="M 165.282259 259.80347 
L 165.282259 259.80347 
" clip-path="url(#p4d2afa80e8)" style="fill: none; stroke: #b22222; stroke-width: 1.5"/>
    <path d="M 170.837727 269.109859 
L 170.837727 269.109859 
" clip-path="url(#p4d2afa80e8)" style="fill: none; stroke: #b22222; stroke-width: 1.5"/>
    <path d="M 176.393195 254.628618 
L 176.393195 254.628618 
" clip-path="url(#p4d2afa80e8)" style="fill: none; stroke: #b22222; stroke-width: 1.5"/>
    <path d="M 181.948664 269.305457 
L 181.948664 269.305457 
" clip-path="url(#p4d2afa80e8)" style="fill: none; stroke: #b22222; stroke-width: 1.5"/>
    <path d="M 187.504132 269.305457 
L 187.504132 269.305457 
" clip-path="url(#p4d2afa80e8)" style="fill: none; stroke: #b22222; stroke-width: 1.5"/>
    <path d="M 193.0596 268.047156 
L 193.0596 268.047156 
" clip-path="url(#p4d2afa80e8)" style="fill: none; stroke: #b22222; stroke-width: 1.5"/>
    <path d="M 198.615068 273.850752 
L 198.615068 273.850752 
" clip-path="url(#p4d2afa80e8)" style="fill: none; stroke: #b22222; stroke-width: 1.5"/>
    <path d="M 204.170536 273.850752 
L 204.170536 273.850752 
" clip-path="url(#p4d2afa80e8)" style="fill: none; stroke: #b22222; stroke-width: 1.5"/>
    <path d="M 209.726004 268.047156 
L 209.726004 268.047156 
" clip-path="url(#p4d2afa80e8)" style="fill: none; stroke: #b22222; stroke-width: 1.5"/>
    <path d="M 215.281472 268.047156 
L 215.281472 268.047156 
" clip-path="url(#p4d2afa80e8)" style="fill: none; stroke: #b22222; stroke-width: 1.5"/>
    <path d="M 220.83694 269.305457 
L 220.83694 269.305457 
" clip-path="url(#p4d2afa80e8)" style="fill: none; stroke: #b22222; stroke-width: 1.5"/>
    <path d="M 226.392408 256.976081 
L 226.392408 256.976081 
" clip-path="url(#p4d2afa80e8)" style="fill: none; stroke: #b22222; stroke-width: 1.5"/>
    <path d="M 231.947877 260.966769 
L 231.947877 260.966769 
" clip-path="url(#p4d2afa80e8)" style="fill: none; stroke: #b22222; stroke-width: 1.5"/>
    <path d="M 237.503345 238.880366 
L 237.503345 238.880366 
" clip-path="url(#p4d2afa80e8)" style="fill: none; stroke: #b22222; stroke-width: 1.5"/>
    <path d="M 243.058813 208.111328 
L 243.058813 208.111328 
" clip-path="url(#p4d2afa80e8)" style="fill: none; stroke: #b22222; stroke-width: 1.5"/>
    <path d="M 248.614281 152.870651 
L 248.614281 152.870651 
" clip-path="url(#p4d2afa80e8)" style="fill: none; stroke: #b22222; stroke-width: 1.5"/>
    <path d="M 254.169749 70.430536 
L 254.169749 70.430536 
" clip-path="url(#p4d2afa80e8)" style="fill: none; stroke: #b22222; stroke-width: 1.5"/>
    <path d="M 259.725217 23.896366 
L 259.725217 23.896366 
" clip-path="url(#p4d2afa80e8)" style="fill: none; stroke: #b22222; stroke-width: 1.5"/>
    <path d="M 265.280685 50.042375 
L 265.280685 50.042375 
" clip-path="url(#p4d2afa80e8)" style="fill: none; stroke: #b22222; stroke-width: 1.5"/>
    <path d="M 270.836153 96.750447 
L 270.836153 96.750447 
" clip-path="url(#p4d2afa80e8)" style="fill: none; stroke: #b22222; stroke-width: 1.5"/>
    <path d="M 276.391622 135.606044 
L 276.391622 135.606044 
" clip-path="url(#p4d2afa80e8)" style="fill: none; stroke: #b22222; stroke-width: 1.5"/>
    <path d="M 281.94709 177.840611 
L 281.94709 177.840611 
" clip-path="url(#p4d2afa80e8)" style="fill: none; stroke: #b22222; stroke-width: 1.5"/>
    <path d="M 287.502558 193.003398 
L 287.502558 193.003398 
" clip-path="url(#p4d2afa80e8)" style="fill: none; stroke: #b22222; stroke-width: 1.5"/>
    <path d="M 293.058026 199.238712 
L 293.058026 199.238712 
" clip-path="url(#p4d2afa80e8)" style="fill: none; stroke: #b22222; stroke-width: 1.5"/>
    <path d="M 298.613494 206.865037 
L 298.613494 206.865037 
" clip-path="url(#p4d2afa80e8)" style="fill: none; stroke: #b22222; stroke-width: 1.5"/>
    <path d="M 304.168962 242.313878 
L 304.168962 242.313878 
" clip-path="url(#p4d2afa80e8)" style="fill: none; stroke: #b22222; stroke-width: 1.5"/>
    <path d="M 309.72443 252.638609 
L 309.72443 252.638609 
" clip-path="url(#p4d2afa80e8)" style="fill: none; stroke: #b22222; stroke-width: 1.5"/>
    <path d="M 315.279898 245.924115 
L 315.279898 245.924115 
" clip-path="url(#p4d2afa80e8)" style="fill: none; stroke: #b22222; stroke-width: 1.5"/>
    <path d="M 320.835366 246.689923 
L 320.835366 246.689923 
" clip-path="url(#p4d2afa80e8)" style="fill: none; stroke: #b22222; stroke-width: 1.5"/>
    <path d="M 326.390835 253.828346 
L 326.390835 253.828346 
" clip-path="url(#p4d2afa80e8)" style="fill: none; stroke: #b22222; stroke-width: 1.5"/>
    <path d="M 331.946303 253.828346 
L 331.946303 253.828346 
" clip-path="url(#p4d2afa80e8)" style="fill: none; stroke: #b22222; stroke-width: 1.5"/>
    <path d="M 337.501771 256.20782 
L 337.501771 256.20782 
" clip-path="url(#p4d2afa80e8)" style="fill: none; stroke: #b22222; stroke-width: 1.5"/>
    <path d="M 343.057239 260.139593 
L 343.057239 260.139593 
" clip-path="url(#p4d2afa80e8)" style="fill: none; stroke: #b22222; stroke-width: 1.5"/>
    <path d="M 348.612707 261.671008 
L 348.612707 261.671008 
" clip-path="url(#p4d2afa80e8)" style="fill: none; stroke: #b22222; stroke-width: 1.5"/>
    <path d="M 354.168175 269.305457 
L 354.168175 269.305457 
" clip-path="url(#p4d2afa80e8)" style="fill: none; stroke: #b22222; stroke-width: 1.5"/>
    <path d="M 359.723643 269.305457 
L 359.723643 269.305457 
" clip-path="url(#p4d2afa80e8)" style="fill: none; stroke: #b22222; stroke-width: 1.5"/>
    <path d="M 365.279111 259.922122 
L 365.279111 259.922122 
" clip-path="url(#p4d2afa80e8)" style="fill: none; stroke: #b22222; stroke-width: 1.5"/>
    <path d="M 370.834579 276.739878 
L 370.834579 276.739878 
" clip-path="url(#p4d2afa80e8)" style="fill: none; stroke: #b22222; stroke-width: 1.5"/>
    <path d="M 376.390048 276.739878 
L 376.390048 276.739878 
" clip-path="url(#p4d2afa80e8)" style="fill: none; stroke: #b22222; stroke-width: 1.5"/>
    <path d="M 381.945516 275.514364 
L 381.945516 275.514364 
" clip-path="url(#p4d2afa80e8)" style="fill: none; stroke: #b22222; stroke-width: 1.5"/>
    <path d="M 387.500984 275.514364 
L 387.500984 275.514364 
" clip-path="url(#p4d2afa80e8)" style="fill: none; stroke: #b22222; stroke-width: 1.5"/>
    <path d="M 393.056452 275.514364 
L 393.056452 275.514364 
" clip-path="url(#p4d2afa80e8)" style="fill: none; stroke: #b22222; stroke-width: 1.5"/>
    <path d="M 398.61192 285.823684 
L 398.61192 285.823684 
" clip-path="url(#p4d2afa80e8)" style="fill: none; stroke: #b22222; stroke-width: 1.5"/>
    <path d="M 404.167388 285.823684 
L 404.167388 285.823684 
" clip-path="url(#p4d2afa80e8)" style="fill: none; stroke: #b22222; stroke-width: 1.5"/>
    <path d="M 409.722856 285.823684 
L 409.722856 285.823684 
" clip-path="url(#p4d2afa80e8)" style="fill: none; stroke: #b22222; stroke-width: 1.5"/>
    <path d="M 415.278324 284.678204 
L 415.278324 284.678204 
" clip-path="url(#p4d2afa80e8)" style="fill: none; stroke: #b22222; stroke-width: 1.5"/>
    <path d="M 420.833792 284.678204 
L 420.833792 284.678204 
" clip-path="url(#p4d2afa80e8)" style="fill: none; stroke: #b22222; stroke-width: 1.5"/>
    <path d="M 426.389261 283.532724 
L 426.389261 283.532724 
" clip-path="url(#p4d2afa80e8)" style="fill: none; stroke: #b22222; stroke-width: 1.5"/>
    <path d="M 431.944729 283.532724 
L 431.944729 283.532724 
" clip-path="url(#p4d2afa80e8)" style="fill: none; stroke: #b22222; stroke-width: 1.5"/>
   </g>
   <g id="LineCollection_2">
    <path d="M 70.839301 175.282018 
L 70.839301 175.282018 
" clip-path="url(#p4d2afa80e8)" style="fill: none; stroke: #b22222; stroke-width: 1.5"/>
    <path d="M 76.394769 176.9235 
L 76.394769 176.9235 
" clip-path="url(#p4d2afa80e8)" style="fill: none; stroke: #b22222; stroke-width: 1.5"/>
    <path d="M 81.950238 186.603834 
L 81.950238 186.603834 
" clip-path="url(#p4d2afa80e8)" style="fill: none; stroke: #b22222; stroke-width: 1.5"/>
    <path d="M 87.505706 191.633612 
L 87.505706 191.633612 
" clip-path="url(#p4d2afa80e8)" style="fill: none; stroke: #b22222; stroke-width: 1.5"/>
    <path d="M 93.061174 208.618334 
L 93.061174 208.618334 
" clip-path="url(#p4d2afa80e8)" style="fill: none; stroke: #b22222; stroke-width: 1.5"/>
    <path d="M 98.616642 209.369747 
L 98.616642 209.369747 
" clip-path="url(#p4d2afa80e8)" style="fill: none; stroke: #b22222; stroke-width: 1.5"/>
    <path d="M 104.17211 217.240429 
L 104.17211 217.240429 
" clip-path="url(#p4d2afa80e8)" style="fill: none; stroke: #b22222; stroke-width: 1.5"/>
    <path d="M 109.727578 215.779205 
L 109.727578 215.779205 
" clip-path="url(#p4d2afa80e8)" style="fill: none; stroke: #b22222; stroke-width: 1.5"/>
    <path d="M 115.283046 231.938287 
L 115.283046 231.938287 
" clip-path="url(#p4d2afa80e8)" style="fill: none; stroke: #b22222; stroke-width: 1.5"/>
    <path d="M 120.838514 225.865382 
L 120.838514 225.865382 
" clip-path="url(#p4d2afa80e8)" style="fill: none; stroke: #b22222; stroke-width: 1.5"/>
    <path d="M 126.393982 232.871508 
L 126.393982 232.871508 
" clip-path="url(#p4d2afa80e8)" style="fill: none; stroke: #b22222; stroke-width: 1.5"/>
    <path d="M 131.949451 242.313878 
L 131.949451 242.313878 
" clip-path="url(#p4d2afa80e8)" style="fill: none; stroke: #b22222; stroke-width: 1.5"/>
    <path d="M 137.504919 242.313878 
L 137.504919 242.313878 
" clip-path="url(#p4d2afa80e8)" style="fill: none; stroke: #b22222; stroke-width: 1.5"/>
    <path d="M 143.060387 252.638609 
L 143.060387 252.638609 
" clip-path="url(#p4d2afa80e8)" style="fill: none; stroke: #b22222; stroke-width: 1.5"/>
    <path d="M 148.615855 252.638609 
L 148.615855 252.638609 
" clip-path="url(#p4d2afa80e8)" style="fill: none; stroke: #b22222; stroke-width: 1.5"/>
    <path d="M 154.171323 252.638609 
L 154.171323 252.638609 
" clip-path="url(#p4d2afa80e8)" style="fill: none; stroke: #b22222; stroke-width: 1.5"/>
    <path d="M 159.726791 261.082841 
L 159.726791 261.082841 
" clip-path="url(#p4d2afa80e8)" style="fill: none; stroke: #b22222; stroke-width: 1.5"/>
    <path d="M 165.282259 259.80347 
L 165.282259 259.80347 
" clip-path="url(#p4d2afa80e8)" style="fill: none; stroke: #b22222; stroke-width: 1.5"/>
    <path d="M 170.837727 269.109859 
L 170.837727 269.109859 
" clip-path="url(#p4d2afa80e8)" style="fill: none; stroke: #b22222; stroke-width: 1.5"/>
    <path d="M 176.393195 254.628618 
L 176.393195 254.628618 
" clip-path="url(#p4d2afa80e8)" style="fill: none; stroke: #b22222; stroke-width: 1.5"/>
    <path d="M 181.948664 269.305457 
L 181.948664 269.305457 
" clip-path="url(#p4d2afa80e8)" style="fill: none; stroke: #b22222; stroke-width: 1.5"/>
    <path d="M 187.504132 269.305457 
L 187.504132 269.305457 
" clip-path="url(#p4d2afa80e8)" style="fill: none; stroke: #b22222; stroke-width: 1.5"/>
    <path d="M 193.0596 268.047156 
L 193.0596 268.047156 
" clip-path="url(#p4d2afa80e8)" style="fill: none; stroke: #b22222; stroke-width: 1.5"/>
    <path d="M 198.615068 273.850752 
L 198.615068 273.850752 
" clip-path="url(#p4d2afa80e8)" style="fill: none; stroke: #b22222; stroke-width: 1.5"/>
    <path d="M 204.170536 273.850752 
L 204.170536 273.850752 
" clip-path="url(#p4d2afa80e8)" style="fill: none; stroke: #b22222; stroke-width: 1.5"/>
    <path d="M 209.726004 268.047156 
L 209.726004 268.047156 
" clip-path="url(#p4d2afa80e8)" style="fill: none; stroke: #b22222; stroke-width: 1.5"/>
    <path d="M 215.281472 268.047156 
L 215.281472 268.047156 
" clip-path="url(#p4d2afa80e8)" style="fill: none; stroke: #b22222; stroke-width: 1.5"/>
    <path d="M 220.83694 269.305457 
L 220.83694 269.305457 
" clip-path="url(#p4d2afa80e8)" style="fill: none; stroke: #b22222; stroke-width: 1.5"/>
    <path d="M 226.392408 256.976081 
L 226.392408 256.976081 
" clip-path="url(#p4d2afa80e8)" style="fill: none; stroke: #b22222; stroke-width: 1.5"/>
    <path d="M 231.947877 260.966769 
L 231.947877 260.966769 
" clip-path="url(#p4d2afa80e8)" style="fill: none; stroke: #b22222; stroke-width: 1.5"/>
    <path d="M 237.503345 238.880366 
L 237.503345 238.880366 
" clip-path="url(#p4d2afa80e8)" style="fill: none; stroke: #b22222; stroke-width: 1.5"/>
    <path d="M 243.058813 208.111328 
L 243.058813 208.111328 
" clip-path="url(#p4d2afa80e8)" style="fill: none; stroke: #b22222; stroke-width: 1.5"/>
    <path d="M 248.614281 152.870651 
L 248.614281 152.870651 
" clip-path="url(#p4d2afa80e8)" style="fill: none; stroke: #b22222; stroke-width: 1.5"/>
    <path d="M 254.169749 70.430536 
L 254.169749 70.430536 
" clip-path="url(#p4d2afa80e8)" style="fill: none; stroke: #b22222; stroke-width: 1.5"/>
    <path d="M 259.725217 23.896366 
L 259.725217 23.896366 
" clip-path="url(#p4d2afa80e8)" style="fill: none; stroke: #b22222; stroke-width: 1.5"/>
    <path d="M 265.280685 50.042375 
L 265.280685 50.042375 
" clip-path="url(#p4d2afa80e8)" style="fill: none; stroke: #b22222; stroke-width: 1.5"/>
    <path d="M 270.836153 96.750447 
L 270.836153 96.750447 
" clip-path="url(#p4d2afa80e8)" style="fill: none; stroke: #b22222; stroke-width: 1.5"/>
    <path d="M 276.391622 135.606044 
L 276.391622 135.606044 
" clip-path="url(#p4d2afa80e8)" style="fill: none; stroke: #b22222; stroke-width: 1.5"/>
    <path d="M 281.94709 177.840611 
L 281.94709 177.840611 
" clip-path="url(#p4d2afa80e8)" style="fill: none; stroke: #b22222; stroke-width: 1.5"/>
    <path d="M 287.502558 193.003398 
L 287.502558 193.003398 
" clip-path="url(#p4d2afa80e8)" style="fill: none; stroke: #b22222; stroke-width: 1.5"/>
    <path d="M 293.058026 199.238712 
L 293.058026 199.238712 
" clip-path="url(#p4d2afa80e8)" style="fill: none; stroke: #b22222; stroke-width: 1.5"/>
    <path d="M 298.613494 206.865037 
L 298.613494 206.865037 
" clip-path="url(#p4d2afa80e8)" style="fill: none; stroke: #b22222; stroke-width: 1.5"/>
    <path d="M 304.168962 242.313878 
L 304.168962 242.313878 
" clip-path="url(#p4d2afa80e8)" style="fill: none; stroke: #b22222; stroke-width: 1.5"/>
    <path d="M 309.72443 252.638609 
L 309.72443 252.638609 
" clip-path="url(#p4d2afa80e8)" style="fill: none; stroke: #b22222; stroke-width: 1.5"/>
    <path d="M 315.279898 245.924115 
L 315.279898 245.924115 
" clip-path="url(#p4d2afa80e8)" style="fill: none; stroke: #b22222; stroke-width: 1.5"/>
    <path d="M 320.835366 246.689923 
L 320.835366 246.689923 
" clip-path="url(#p4d2afa80e8)" style="fill: none; stroke: #b22222; stroke-width: 1.5"/>
    <path d="M 326.390835 253.828346 
L 326.390835 253.828346 
" clip-path="url(#p4d2afa80e8)" style="fill: none; stroke: #b22222; stroke-width: 1.5"/>
    <path d="M 331.946303 253.828346 
L 331.946303 253.828346 
" clip-path="url(#p4d2afa80e8)" style="fill: none; stroke: #b22222; stroke-width: 1.5"/>
    <path d="M 337.501771 256.20782 
L 337.501771 256.20782 
" clip-path="url(#p4d2afa80e8)" style="fill: none; stroke: #b22222; stroke-width: 1.5"/>
    <path d="M 343.057239 260.139593 
L 343.057239 260.139593 
" clip-path="url(#p4d2afa80e8)" style="fill: none; stroke: #b22222; stroke-width: 1.5"/>
    <path d="M 348.612707 261.671008 
L 348.612707 261.671008 
" clip-path="url(#p4d2afa80e8)" style="fill: none; stroke: #b22222; stroke-width: 1.5"/>
    <path d="M 354.168175 269.305457 
L 354.168175 269.305457 
" clip-path="url(#p4d2afa80e8)" style="fill: none; stroke: #b22222; stroke-width: 1.5"/>
    <path d="M 359.723643 269.305457 
L 359.723643 269.305457 
" clip-path="url(#p4d2afa80e8)" style="fill: none; stroke: #b22222; stroke-width: 1.5"/>
    <path d="M 365.279111 259.922122 
L 365.279111 259.922122 
" clip-path="url(#p4d2afa80e8)" style="fill: none; stroke: #b22222; stroke-width: 1.5"/>
    <path d="M 370.834579 276.739878 
L 370.834579 276.739878 
" clip-path="url(#p4d2afa80e8)" style="fill: none; stroke: #b22222; stroke-width: 1.5"/>
    <path d="M 376.390048 276.739878 
L 376.390048 276.739878 
" clip-path="url(#p4d2afa80e8)" style="fill: none; stroke: #b22222; stroke-width: 1.5"/>
    <path d="M 381.945516 275.514364 
L 381.945516 275.514364 
" clip-path="url(#p4d2afa80e8)" style="fill: none; stroke: #b22222; stroke-width: 1.5"/>
    <path d="M 387.500984 275.514364 
L 387.500984 275.514364 
" clip-path="url(#p4d2afa80e8)" style="fill: none; stroke: #b22222; stroke-width: 1.5"/>
    <path d="M 393.056452 275.514364 
L 393.056452 275.514364 
" clip-path="url(#p4d2afa80e8)" style="fill: none; stroke: #b22222; stroke-width: 1.5"/>
    <path d="M 398.61192 285.823684 
L 398.61192 285.823684 
" clip-path="url(#p4d2afa80e8)" style="fill: none; stroke: #b22222; stroke-width: 1.5"/>
    <path d="M 404.167388 285.823684 
L 404.167388 285.823684 
" clip-path="url(#p4d2afa80e8)" style="fill: none; stroke: #b22222; stroke-width: 1.5"/>
    <path d="M 409.722856 285.823684 
L 409.722856 285.823684 
" clip-path="url(#p4d2afa80e8)" style="fill: none; stroke: #b22222; stroke-width: 1.5"/>
    <path d="M 415.278324 284.678204 
L 415.278324 284.678204 
" clip-path="url(#p4d2afa80e8)" style="fill: none; stroke: #b22222; stroke-width: 1.5"/>
    <path d="M 420.833792 284.678204 
L 420.833792 284.678204 
" clip-path="url(#p4d2afa80e8)" style="fill: none; stroke: #b22222; stroke-width: 1.5"/>
    <path d="M 426.389261 283.532724 
L 426.389261 283.532724 
" clip-path="url(#p4d2afa80e8)" style="fill: none; stroke: #b22222; stroke-width: 1.5"/>
    <path d="M 431.944729 283.532724 
L 431.944729 283.532724 
" clip-path="url(#p4d2afa80e8)" style="fill: none; stroke: #b22222; stroke-width: 1.5"/>
   </g>
   <g id="line2d_13">
    <defs>
     <path id="m64cfebf489" d="M -3 0 
L 3 0 
M 0 3 
L 0 -3 
" style="stroke: #4169e1"/>
    </defs>
    <g clip-path="url(#p4d2afa80e8)">
     <use xlink:href="#m64cfebf489" x="70.839301" y="175.282018" style="fill: #4169e1; stroke: #4169e1"/>
     <use xlink:href="#m64cfebf489" x="76.394769" y="176.9235" style="fill: #4169e1; stroke: #4169e1"/>
     <use xlink:href="#m64cfebf489" x="81.950238" y="186.603834" style="fill: #4169e1; stroke: #4169e1"/>
     <use xlink:href="#m64cfebf489" x="87.505706" y="191.633612" style="fill: #4169e1; stroke: #4169e1"/>
     <use xlink:href="#m64cfebf489" x="93.061174" y="208.618334" style="fill: #4169e1; stroke: #4169e1"/>
     <use xlink:href="#m64cfebf489" x="98.616642" y="209.369747" style="fill: #4169e1; stroke: #4169e1"/>
     <use xlink:href="#m64cfebf489" x="104.17211" y="217.240429" style="fill: #4169e1; stroke: #4169e1"/>
     <use xlink:href="#m64cfebf489" x="109.727578" y="215.779205" style="fill: #4169e1; stroke: #4169e1"/>
     <use xlink:href="#m64cfebf489" x="115.283046" y="231.938287" style="fill: #4169e1; stroke: #4169e1"/>
     <use xlink:href="#m64cfebf489" x="120.838514" y="225.865382" style="fill: #4169e1; stroke: #4169e1"/>
     <use xlink:href="#m64cfebf489" x="126.393982" y="232.871508" style="fill: #4169e1; stroke: #4169e1"/>
     <use xlink:href="#m64cfebf489" x="131.949451" y="242.313878" style="fill: #4169e1; stroke: #4169e1"/>
     <use xlink:href="#m64cfebf489" x="137.504919" y="242.313878" style="fill: #4169e1; stroke: #4169e1"/>
     <use xlink:href="#m64cfebf489" x="143.060387" y="252.638609" style="fill: #4169e1; stroke: #4169e1"/>
     <use xlink:href="#m64cfebf489" x="148.615855" y="252.638609" style="fill: #4169e1; stroke: #4169e1"/>
     <use xlink:href="#m64cfebf489" x="154.171323" y="252.638609" style="fill: #4169e1; stroke: #4169e1"/>
     <use xlink:href="#m64cfebf489" x="159.726791" y="261.082841" style="fill: #4169e1; stroke: #4169e1"/>
     <use xlink:href="#m64cfebf489" x="165.282259" y="259.80347" style="fill: #4169e1; stroke: #4169e1"/>
     <use xlink:href="#m64cfebf489" x="170.837727" y="269.109859" style="fill: #4169e1; stroke: #4169e1"/>
     <use xlink:href="#m64cfebf489" x="176.393195" y="254.628618" style="fill: #4169e1; stroke: #4169e1"/>
     <use xlink:href="#m64cfebf489" x="181.948664" y="269.305457" style="fill: #4169e1; stroke: #4169e1"/>
     <use xlink:href="#m64cfebf489" x="187.504132" y="269.305457" style="fill: #4169e1; stroke: #4169e1"/>
     <use xlink:href="#m64cfebf489" x="193.0596" y="268.047156" style="fill: #4169e1; stroke: #4169e1"/>
     <use xlink:href="#m64cfebf489" x="198.615068" y="273.850752" style="fill: #4169e1; stroke: #4169e1"/>
     <use xlink:href="#m64cfebf489" x="204.170536" y="273.850752" style="fill: #4169e1; stroke: #4169e1"/>
     <use xlink:href="#m64cfebf489" x="209.726004" y="268.047156" style="fill: #4169e1; stroke: #4169e1"/>
     <use xlink:href="#m64cfebf489" x="215.281472" y="268.047156" style="fill: #4169e1; stroke: #4169e1"/>
     <use xlink:href="#m64cfebf489" x="220.83694" y="269.305457" style="fill: #4169e1; stroke: #4169e1"/>
     <use xlink:href="#m64cfebf489" x="226.392408" y="256.976081" style="fill: #4169e1; stroke: #4169e1"/>
     <use xlink:href="#m64cfebf489" x="231.947877" y="260.966769" style="fill: #4169e1; stroke: #4169e1"/>
     <use xlink:href="#m64cfebf489" x="237.503345" y="238.880366" style="fill: #4169e1; stroke: #4169e1"/>
     <use xlink:href="#m64cfebf489" x="243.058813" y="208.111328" style="fill: #4169e1; stroke: #4169e1"/>
     <use xlink:href="#m64cfebf489" x="248.614281" y="152.870651" style="fill: #4169e1; stroke: #4169e1"/>
     <use xlink:href="#m64cfebf489" x="254.169749" y="70.430536" style="fill: #4169e1; stroke: #4169e1"/>
     <use xlink:href="#m64cfebf489" x="259.725217" y="23.896366" style="fill: #4169e1; stroke: #4169e1"/>
     <use xlink:href="#m64cfebf489" x="265.280685" y="50.042375" style="fill: #4169e1; stroke: #4169e1"/>
     <use xlink:href="#m64cfebf489" x="270.836153" y="96.750447" style="fill: #4169e1; stroke: #4169e1"/>
     <use xlink:href="#m64cfebf489" x="276.391622" y="135.606044" style="fill: #4169e1; stroke: #4169e1"/>
     <use xlink:href="#m64cfebf489" x="281.94709" y="177.840611" style="fill: #4169e1; stroke: #4169e1"/>
     <use xlink:href="#m64cfebf489" x="287.502558" y="193.003398" style="fill: #4169e1; stroke: #4169e1"/>
     <use xlink:href="#m64cfebf489" x="293.058026" y="199.238712" style="fill: #4169e1; stroke: #4169e1"/>
     <use xlink:href="#m64cfebf489" x="298.613494" y="206.865037" style="fill: #4169e1; stroke: #4169e1"/>
     <use xlink:href="#m64cfebf489" x="304.168962" y="242.313878" style="fill: #4169e1; stroke: #4169e1"/>
     <use xlink:href="#m64cfebf489" x="309.72443" y="252.638609" style="fill: #4169e1; stroke: #4169e1"/>
     <use xlink:href="#m64cfebf489" x="315.279898" y="245.924115" style="fill: #4169e1; stroke: #4169e1"/>
     <use xlink:href="#m64cfebf489" x="320.835366" y="246.689923" style="fill: #4169e1; stroke: #4169e1"/>
     <use xlink:href="#m64cfebf489" x="326.390835" y="253.828346" style="fill: #4169e1; stroke: #4169e1"/>
     <use xlink:href="#m64cfebf489" x="331.946303" y="253.828346" style="fill: #4169e1; stroke: #4169e1"/>
     <use xlink:href="#m64cfebf489" x="337.501771" y="256.20782" style="fill: #4169e1; stroke: #4169e1"/>
     <use xlink:href="#m64cfebf489" x="343.057239" y="260.139593" style="fill: #4169e1; stroke: #4169e1"/>
     <use xlink:href="#m64cfebf489" x="348.612707" y="261.671008" style="fill: #4169e1; stroke: #4169e1"/>
     <use xlink:href="#m64cfebf489" x="354.168175" y="269.305457" style="fill: #4169e1; stroke: #4169e1"/>
     <use xlink:href="#m64cfebf489" x="359.723643" y="269.305457" style="fill: #4169e1; stroke: #4169e1"/>
     <use xlink:href="#m64cfebf489" x="365.279111" y="259.922122" style="fill: #4169e1; stroke: #4169e1"/>
     <use xlink:href="#m64cfebf489" x="370.834579" y="276.739878" style="fill: #4169e1; stroke: #4169e1"/>
     <use xlink:href="#m64cfebf489" x="376.390048" y="276.739878" style="fill: #4169e1; stroke: #4169e1"/>
     <use xlink:href="#m64cfebf489" x="381.945516" y="275.514364" style="fill: #4169e1; stroke: #4169e1"/>
     <use xlink:href="#m64cfebf489" x="387.500984" y="275.514364" style="fill: #4169e1; stroke: #4169e1"/>
     <use xlink:href="#m64cfebf489" x="393.056452" y="275.514364" style="fill: #4169e1; stroke: #4169e1"/>
     <use xlink:href="#m64cfebf489" x="398.61192" y="285.823684" style="fill: #4169e1; stroke: #4169e1"/>
     <use xlink:href="#m64cfebf489" x="404.167388" y="285.823684" style="fill: #4169e1; stroke: #4169e1"/>
     <use xlink:href="#m64cfebf489" x="409.722856" y="285.823684" style="fill: #4169e1; stroke: #4169e1"/>
     <use xlink:href="#m64cfebf489" x="415.278324" y="284.678204" style="fill: #4169e1; stroke: #4169e1"/>
     <use xlink:href="#m64cfebf489" x="420.833792" y="284.678204" style="fill: #4169e1; stroke: #4169e1"/>
     <use xlink:href="#m64cfebf489" x="426.389261" y="283.532724" style="fill: #4169e1; stroke: #4169e1"/>
     <use xlink:href="#m64cfebf489" x="431.944729" y="283.532724" style="fill: #4169e1; stroke: #4169e1"/>
    </g>
   </g>
   <g id="patch_3">
    <path d="M 52.78403 298.92005 
L 52.78403 10.8 
" style="fill: none; stroke: #000000; stroke-width: 0.8; stroke-linejoin: miter; stroke-linecap: square"/>
   </g>
   <g id="patch_4">
    <path d="M 450 298.92005 
L 450 10.8 
" style="fill: none; stroke: #000000; stroke-width: 0.8; stroke-linejoin: miter; stroke-linecap: square"/>
   </g>
   <g id="patch_5">
    <path d="M 52.78403 298.92005 
L 450 298.92005 
" style="fill: none; stroke: #000000; stroke-width: 0.8; stroke-linejoin: miter; stroke-linecap: square"/>
   </g>
   <g id="patch_6">
    <path d="M 52.78403 10.8 
L 450 10.8 
" style="fill: none; stroke: #000000; stroke-width: 0.8; stroke-linejoin: miter; stroke-linecap: square"/>
   </g>
  </g>
 </g>
 <defs>
  <clipPath id="p4d2afa80e8">
   <rect x="52.78403" y="10.8" width="397.21597" height="288.12005"/>
  </clipPath>
 </defs>
</svg>
