<?xml version="1.0" encoding="utf-8" standalone="no"?>
<!DOCTYPE svg PUBLIC "-//W3C//DTD SVG 1.1//EN"
  "http://www.w3.org/Graphics/SVG/1.1/DTD/svg11.dtd">
<svg xmlns:xlink="http://www.w3.org/1999/xlink" width="460.8pt" height="345.6pt" viewBox="0 0 460.8 345.6" xmlns="http://www.w3.org/2000/svg" version="1.1">
 <metadata>
  <rdf:RDF xmlns:dc="http://purl.org/dc/elements/1.1/" xmlns:cc="http://creativecommons.org/ns#" xmlns:rdf="http://www.w3.org/1999/02/22-rdf-syntax-ns#">
   <cc:Work>
    <dc:type rdf:resource="http://purl.org/dc/dcmitype/StillImage"/>
    <dc:date>2022-05-19T23:39:20.059299</dc:date>
    <dc:format>image/svg+xml</dc:format>
    <dc:creator>
     <cc:Agent>
      <dc:title>Matplotlib v3.5.1, https://matplotlib.org/</dc:title>
     </cc:Agent>
    </dc:creator>
   </cc:Work>
  </rdf:RDF>
 </metadata>
 <defs>
  <style type="text/css">*{stroke-linejoin: round; stroke-linecap: butt}</style>
 </defs>
 <g id="figure_1">
  <g id="patch_1">
   <path d="M 0 345.6 
L 460.8 345.6 
L 460.8 0 
L 0 0 
z
" style="fill: #ffffff"/>
  </g>
  <g id="axes_1">
   <g id="patch_2">
    <path d="M 57.6 307.584 
L 414.72 307.584 
L 414.72 41.472 
L 57.6 41.472 
z
" style="fill: #ffffff"/>
   </g>
   <g id="matplotlib.axis_1">
    <g id="xtick_1">
     <g id="line2d_1">
      <defs>
       <path id="mba226c9648" d="M 0 0 
L 0 3.5 
" style="stroke: #000000; stroke-width: 0.8"/>
      </defs>
      <g>
       <use xlink:href="#mba226c9648" x="69.445504" y="307.584" style="stroke: #000000; stroke-width: 0.8"/>
      </g>
     </g>
     <g id="text_1">
      <!-- $\mathdefault{0}$ -->
      <g transform="translate(66.954836 321.502498)scale(0.1 -0.1)">
       <defs>
        <path id="CMR17-30" d="M 2688 2025 
C 2688 2416 2682 3080 2413 3591 
C 2176 4039 1798 4198 1466 4198 
C 1158 4198 768 4058 525 3597 
C 269 3118 243 2524 243 2025 
C 243 1661 250 1106 448 619 
C 723 -39 1216 -128 1466 -128 
C 1760 -128 2208 -7 2470 600 
C 2662 1042 2688 1559 2688 2025 
z
M 1466 -26 
C 1056 -26 813 325 723 812 
C 653 1188 653 1738 653 2096 
C 653 2588 653 2997 736 3387 
C 858 3929 1216 4096 1466 4096 
C 1728 4096 2067 3923 2189 3400 
C 2272 3036 2278 2607 2278 2096 
C 2278 1680 2278 1169 2202 792 
C 2067 95 1690 -26 1466 -26 
z
" transform="scale(0.015625)"/>
       </defs>
       <use xlink:href="#CMR17-30" transform="scale(0.996264)"/>
      </g>
     </g>
    </g>
    <g id="xtick_2">
     <g id="line2d_2">
      <g>
       <use xlink:href="#mba226c9648" x="113.31774" y="307.584" style="stroke: #000000; stroke-width: 0.8"/>
      </g>
     </g>
     <g id="text_2">
      <!-- $\mathdefault{100000}$ -->
      <g transform="translate(98.373734 321.502498)scale(0.1 -0.1)">
       <defs>
        <path id="CMR17-31" d="M 1702 4058 
C 1702 4192 1696 4192 1606 4192 
C 1357 3916 979 3827 621 3827 
C 602 3827 570 3827 563 3808 
C 557 3795 557 3782 557 3648 
C 755 3648 1088 3686 1344 3839 
L 1344 461 
C 1344 236 1331 160 781 160 
L 589 160 
L 589 0 
C 896 0 1216 0 1523 0 
C 1830 0 2150 0 2458 0 
L 2458 160 
L 2266 160 
C 1715 160 1702 230 1702 458 
L 1702 4058 
z
" transform="scale(0.015625)"/>
       </defs>
       <use xlink:href="#CMR17-31" transform="scale(0.996264)"/>
       <use xlink:href="#CMR17-30" transform="translate(45.690477 0)scale(0.996264)"/>
       <use xlink:href="#CMR17-30" transform="translate(91.380954 0)scale(0.996264)"/>
       <use xlink:href="#CMR17-30" transform="translate(137.071431 0)scale(0.996264)"/>
       <use xlink:href="#CMR17-30" transform="translate(182.761908 0)scale(0.996264)"/>
       <use xlink:href="#CMR17-30" transform="translate(228.452386 0)scale(0.996264)"/>
      </g>
     </g>
    </g>
    <g id="xtick_3">
     <g id="line2d_3">
      <g>
       <use xlink:href="#mba226c9648" x="157.189975" y="307.584" style="stroke: #000000; stroke-width: 0.8"/>
      </g>
     </g>
     <g id="text_3">
      <!-- $\mathdefault{200000}$ -->
      <g transform="translate(142.24597 321.502498)scale(0.1 -0.1)">
       <defs>
        <path id="CMR17-32" d="M 2669 989 
L 2554 989 
C 2490 536 2438 459 2413 420 
C 2381 369 1920 369 1830 369 
L 602 369 
C 832 619 1280 1072 1824 1597 
C 2214 1967 2669 2402 2669 3035 
C 2669 3790 2067 4224 1395 4224 
C 691 4224 262 3604 262 3030 
C 262 2780 448 2748 525 2748 
C 589 2748 781 2787 781 3010 
C 781 3207 614 3264 525 3264 
C 486 3264 448 3258 422 3245 
C 544 3790 915 4058 1306 4058 
C 1862 4058 2227 3617 2227 3035 
C 2227 2479 1901 2000 1536 1584 
L 262 146 
L 262 0 
L 2515 0 
L 2669 989 
z
" transform="scale(0.015625)"/>
       </defs>
       <use xlink:href="#CMR17-32" transform="scale(0.996264)"/>
       <use xlink:href="#CMR17-30" transform="translate(45.690477 0)scale(0.996264)"/>
       <use xlink:href="#CMR17-30" transform="translate(91.380954 0)scale(0.996264)"/>
       <use xlink:href="#CMR17-30" transform="translate(137.071431 0)scale(0.996264)"/>
       <use xlink:href="#CMR17-30" transform="translate(182.761908 0)scale(0.996264)"/>
       <use xlink:href="#CMR17-30" transform="translate(228.452386 0)scale(0.996264)"/>
      </g>
     </g>
    </g>
    <g id="xtick_4">
     <g id="line2d_4">
      <g>
       <use xlink:href="#mba226c9648" x="201.062211" y="307.584" style="stroke: #000000; stroke-width: 0.8"/>
      </g>
     </g>
     <g id="text_4">
      <!-- $\mathdefault{300000}$ -->
      <g transform="translate(186.118206 321.502498)scale(0.1 -0.1)">
       <defs>
        <path id="CMR17-33" d="M 1414 2157 
C 1984 2157 2234 1662 2234 1090 
C 2234 320 1824 25 1453 25 
C 1114 25 563 194 390 693 
C 422 680 454 680 486 680 
C 640 680 755 782 755 948 
C 755 1133 614 1216 486 1216 
C 378 1216 211 1165 211 926 
C 211 335 787 -128 1466 -128 
C 2176 -128 2720 430 2720 1085 
C 2720 1707 2208 2157 1600 2227 
C 2086 2328 2554 2756 2554 3329 
C 2554 3820 2048 4179 1472 4179 
C 890 4179 378 3829 378 3329 
C 378 3110 544 3072 627 3072 
C 762 3072 877 3155 877 3321 
C 877 3486 762 3569 627 3569 
C 602 3569 570 3569 544 3557 
C 730 3959 1235 4032 1459 4032 
C 1683 4032 2106 3925 2106 3320 
C 2106 3143 2080 2828 1862 2550 
C 1670 2304 1453 2304 1242 2284 
C 1210 2284 1062 2269 1037 2269 
C 992 2263 966 2257 966 2208 
C 966 2163 973 2157 1101 2157 
L 1414 2157 
z
" transform="scale(0.015625)"/>
       </defs>
       <use xlink:href="#CMR17-33" transform="scale(0.996264)"/>
       <use xlink:href="#CMR17-30" transform="translate(45.690477 0)scale(0.996264)"/>
       <use xlink:href="#CMR17-30" transform="translate(91.380954 0)scale(0.996264)"/>
       <use xlink:href="#CMR17-30" transform="translate(137.071431 0)scale(0.996264)"/>
       <use xlink:href="#CMR17-30" transform="translate(182.761908 0)scale(0.996264)"/>
       <use xlink:href="#CMR17-30" transform="translate(228.452386 0)scale(0.996264)"/>
      </g>
     </g>
    </g>
    <g id="xtick_5">
     <g id="line2d_5">
      <g>
       <use xlink:href="#mba226c9648" x="244.934447" y="307.584" style="stroke: #000000; stroke-width: 0.8"/>
      </g>
     </g>
     <g id="text_5">
      <!-- $\mathdefault{400000}$ -->
      <g transform="translate(229.990441 321.502498)scale(0.1 -0.1)">
       <defs>
        <path id="CMR17-34" d="M 2150 4122 
C 2150 4256 2144 4256 2029 4256 
L 128 1254 
L 128 1088 
L 1779 1088 
L 1779 457 
C 1779 224 1766 160 1318 160 
L 1197 160 
L 1197 0 
C 1402 0 1747 0 1965 0 
C 2182 0 2528 0 2733 0 
L 2733 160 
L 2611 160 
C 2163 160 2150 224 2150 457 
L 2150 1088 
L 2803 1088 
L 2803 1254 
L 2150 1254 
L 2150 4122 
z
M 1798 3703 
L 1798 1254 
L 256 1254 
L 1798 3703 
z
" transform="scale(0.015625)"/>
       </defs>
       <use xlink:href="#CMR17-34" transform="scale(0.996264)"/>
       <use xlink:href="#CMR17-30" transform="translate(45.690477 0)scale(0.996264)"/>
       <use xlink:href="#CMR17-30" transform="translate(91.380954 0)scale(0.996264)"/>
       <use xlink:href="#CMR17-30" transform="translate(137.071431 0)scale(0.996264)"/>
       <use xlink:href="#CMR17-30" transform="translate(182.761908 0)scale(0.996264)"/>
       <use xlink:href="#CMR17-30" transform="translate(228.452386 0)scale(0.996264)"/>
      </g>
     </g>
    </g>
    <g id="xtick_6">
     <g id="line2d_6">
      <g>
       <use xlink:href="#mba226c9648" x="288.806683" y="307.584" style="stroke: #000000; stroke-width: 0.8"/>
      </g>
     </g>
     <g id="text_6">
      <!-- $\mathdefault{500000}$ -->
      <g transform="translate(273.862677 321.502498)scale(0.1 -0.1)">
       <defs>
        <path id="CMR17-35" d="M 730 3692 
C 794 3666 1056 3584 1325 3584 
C 1920 3584 2246 3911 2432 4100 
C 2432 4157 2432 4192 2394 4192 
C 2387 4192 2374 4192 2323 4163 
C 2099 4058 1837 3973 1517 3973 
C 1325 3973 1037 3999 723 4139 
C 653 4171 640 4171 634 4171 
C 602 4171 595 4164 595 4037 
L 595 2203 
C 595 2089 595 2057 659 2057 
C 691 2057 704 2070 736 2114 
C 941 2401 1222 2522 1542 2522 
C 1766 2522 2246 2382 2246 1289 
C 2246 1085 2246 715 2054 421 
C 1894 159 1645 25 1370 25 
C 947 25 518 320 403 814 
C 429 807 480 795 506 795 
C 589 795 749 840 749 1038 
C 749 1210 627 1280 506 1280 
C 358 1280 262 1190 262 1011 
C 262 454 704 -128 1382 -128 
C 2042 -128 2669 440 2669 1264 
C 2669 2030 2170 2624 1549 2624 
C 1222 2624 947 2503 730 2274 
L 730 3692 
z
" transform="scale(0.015625)"/>
       </defs>
       <use xlink:href="#CMR17-35" transform="scale(0.996264)"/>
       <use xlink:href="#CMR17-30" transform="translate(45.690477 0)scale(0.996264)"/>
       <use xlink:href="#CMR17-30" transform="translate(91.380954 0)scale(0.996264)"/>
       <use xlink:href="#CMR17-30" transform="translate(137.071431 0)scale(0.996264)"/>
       <use xlink:href="#CMR17-30" transform="translate(182.761908 0)scale(0.996264)"/>
       <use xlink:href="#CMR17-30" transform="translate(228.452386 0)scale(0.996264)"/>
      </g>
     </g>
    </g>
    <g id="xtick_7">
     <g id="line2d_7">
      <g>
       <use xlink:href="#mba226c9648" x="332.678919" y="307.584" style="stroke: #000000; stroke-width: 0.8"/>
      </g>
     </g>
     <g id="text_7">
      <!-- $\mathdefault{600000}$ -->
      <g transform="translate(317.734913 321.502498)scale(0.1 -0.1)">
       <defs>
        <path id="CMR17-36" d="M 678 2176 
C 678 3690 1395 4032 1811 4032 
C 1946 4032 2272 4009 2400 3776 
C 2298 3776 2106 3776 2106 3553 
C 2106 3381 2246 3323 2336 3323 
C 2394 3323 2566 3348 2566 3560 
C 2566 3954 2246 4179 1805 4179 
C 1043 4179 243 3390 243 1984 
C 243 253 966 -128 1478 -128 
C 2099 -128 2688 427 2688 1283 
C 2688 2081 2170 2662 1517 2662 
C 1126 2662 838 2407 678 1960 
L 678 2176 
z
M 1478 25 
C 691 25 691 1200 691 1436 
C 691 1896 909 2560 1504 2560 
C 1613 2560 1926 2560 2138 2120 
C 2253 1870 2253 1609 2253 1289 
C 2253 944 2253 690 2118 434 
C 1978 171 1773 25 1478 25 
z
" transform="scale(0.015625)"/>
       </defs>
       <use xlink:href="#CMR17-36" transform="scale(0.996264)"/>
       <use xlink:href="#CMR17-30" transform="translate(45.690477 0)scale(0.996264)"/>
       <use xlink:href="#CMR17-30" transform="translate(91.380954 0)scale(0.996264)"/>
       <use xlink:href="#CMR17-30" transform="translate(137.071431 0)scale(0.996264)"/>
       <use xlink:href="#CMR17-30" transform="translate(182.761908 0)scale(0.996264)"/>
       <use xlink:href="#CMR17-30" transform="translate(228.452386 0)scale(0.996264)"/>
      </g>
     </g>
    </g>
    <g id="xtick_8">
     <g id="line2d_8">
      <g>
       <use xlink:href="#mba226c9648" x="376.551155" y="307.584" style="stroke: #000000; stroke-width: 0.8"/>
      </g>
     </g>
     <g id="text_8">
      <!-- $\mathdefault{700000}$ -->
      <g transform="translate(361.607149 321.502498)scale(0.1 -0.1)">
       <defs>
        <path id="CMR17-37" d="M 2886 3941 
L 2886 4081 
L 1382 4081 
C 634 4081 621 4165 595 4288 
L 480 4288 
L 294 3094 
L 410 3094 
C 429 3215 474 3540 550 3661 
C 589 3712 1062 3712 1171 3712 
L 2579 3712 
L 1869 2661 
C 1395 1954 1069 999 1069 165 
C 1069 89 1069 -128 1299 -128 
C 1530 -128 1530 89 1530 171 
L 1530 465 
C 1530 1508 1709 2196 2003 2636 
L 2886 3941 
z
" transform="scale(0.015625)"/>
       </defs>
       <use xlink:href="#CMR17-37" transform="scale(0.996264)"/>
       <use xlink:href="#CMR17-30" transform="translate(45.690477 0)scale(0.996264)"/>
       <use xlink:href="#CMR17-30" transform="translate(91.380954 0)scale(0.996264)"/>
       <use xlink:href="#CMR17-30" transform="translate(137.071431 0)scale(0.996264)"/>
       <use xlink:href="#CMR17-30" transform="translate(182.761908 0)scale(0.996264)"/>
       <use xlink:href="#CMR17-30" transform="translate(228.452386 0)scale(0.996264)"/>
      </g>
     </g>
    </g>
   </g>
   <g id="matplotlib.axis_2">
    <g id="ytick_1">
     <g id="line2d_9">
      <defs>
       <path id="mee998e301b" d="M 0 0 
L -3.5 0 
" style="stroke: #000000; stroke-width: 0.8"/>
      </defs>
      <g>
       <use xlink:href="#mee998e301b" x="57.6" y="295.865839" style="stroke: #000000; stroke-width: 0.8"/>
      </g>
     </g>
     <g id="text_9">
      <!-- $\mathdefault{0}$ -->
      <g transform="translate(45.618665 299.325089)scale(0.1 -0.1)">
       <use xlink:href="#CMR17-30" transform="scale(0.996264)"/>
      </g>
     </g>
    </g>
    <g id="ytick_2">
     <g id="line2d_10">
      <g>
       <use xlink:href="#mee998e301b" x="57.6" y="265.404632" style="stroke: #000000; stroke-width: 0.8"/>
      </g>
     </g>
     <g id="text_10">
      <!-- $\mathdefault{5}$ -->
      <g transform="translate(45.618665 268.863881)scale(0.1 -0.1)">
       <use xlink:href="#CMR17-35" transform="scale(0.996264)"/>
      </g>
     </g>
    </g>
    <g id="ytick_3">
     <g id="line2d_11">
      <g>
       <use xlink:href="#mee998e301b" x="57.6" y="234.943424" style="stroke: #000000; stroke-width: 0.8"/>
      </g>
     </g>
     <g id="text_11">
      <!-- $\mathdefault{10}$ -->
      <g transform="translate(40.637329 238.402674)scale(0.1 -0.1)">
       <use xlink:href="#CMR17-31" transform="scale(0.996264)"/>
       <use xlink:href="#CMR17-30" transform="translate(45.690477 0)scale(0.996264)"/>
      </g>
     </g>
    </g>
    <g id="ytick_4">
     <g id="line2d_12">
      <g>
       <use xlink:href="#mee998e301b" x="57.6" y="204.482217" style="stroke: #000000; stroke-width: 0.8"/>
      </g>
     </g>
     <g id="text_12">
      <!-- $\mathdefault{15}$ -->
      <g transform="translate(40.637329 207.941466)scale(0.1 -0.1)">
       <use xlink:href="#CMR17-31" transform="scale(0.996264)"/>
       <use xlink:href="#CMR17-35" transform="translate(45.690477 0)scale(0.996264)"/>
      </g>
     </g>
    </g>
    <g id="ytick_5">
     <g id="line2d_13">
      <g>
       <use xlink:href="#mee998e301b" x="57.6" y="174.02101" style="stroke: #000000; stroke-width: 0.8"/>
      </g>
     </g>
     <g id="text_13">
      <!-- $\mathdefault{20}$ -->
      <g transform="translate(40.637329 177.480259)scale(0.1 -0.1)">
       <use xlink:href="#CMR17-32" transform="scale(0.996264)"/>
       <use xlink:href="#CMR17-30" transform="translate(45.690477 0)scale(0.996264)"/>
      </g>
     </g>
    </g>
    <g id="ytick_6">
     <g id="line2d_14">
      <g>
       <use xlink:href="#mee998e301b" x="57.6" y="143.559802" style="stroke: #000000; stroke-width: 0.8"/>
      </g>
     </g>
     <g id="text_14">
      <!-- $\mathdefault{25}$ -->
      <g transform="translate(40.637329 147.019051)scale(0.1 -0.1)">
       <use xlink:href="#CMR17-32" transform="scale(0.996264)"/>
       <use xlink:href="#CMR17-35" transform="translate(45.690477 0)scale(0.996264)"/>
      </g>
     </g>
    </g>
    <g id="ytick_7">
     <g id="line2d_15">
      <g>
       <use xlink:href="#mee998e301b" x="57.6" y="113.098595" style="stroke: #000000; stroke-width: 0.8"/>
      </g>
     </g>
     <g id="text_15">
      <!-- $\mathdefault{30}$ -->
      <g transform="translate(40.637329 116.557844)scale(0.1 -0.1)">
       <use xlink:href="#CMR17-33" transform="scale(0.996264)"/>
       <use xlink:href="#CMR17-30" transform="translate(45.690477 0)scale(0.996264)"/>
      </g>
     </g>
    </g>
    <g id="ytick_8">
     <g id="line2d_16">
      <g>
       <use xlink:href="#mee998e301b" x="57.6" y="82.637387" style="stroke: #000000; stroke-width: 0.8"/>
      </g>
     </g>
     <g id="text_16">
      <!-- $\mathdefault{35}$ -->
      <g transform="translate(40.637329 86.096636)scale(0.1 -0.1)">
       <use xlink:href="#CMR17-33" transform="scale(0.996264)"/>
       <use xlink:href="#CMR17-35" transform="translate(45.690477 0)scale(0.996264)"/>
      </g>
     </g>
    </g>
    <g id="ytick_9">
     <g id="line2d_17">
      <g>
       <use xlink:href="#mee998e301b" x="57.6" y="52.17618" style="stroke: #000000; stroke-width: 0.8"/>
      </g>
     </g>
     <g id="text_17">
      <!-- $\mathdefault{40}$ -->
      <g transform="translate(40.637329 55.635429)scale(0.1 -0.1)">
       <use xlink:href="#CMR17-34" transform="scale(0.996264)"/>
       <use xlink:href="#CMR17-30" transform="translate(45.690477 0)scale(0.996264)"/>
      </g>
     </g>
    </g>
   </g>
   <g id="line2d_18">
    <path d="M 73.832727 283.851626 
L 73.995217 282.97581 
L 74.157707 290.017091 
L 74.320197 283.851626 
L 74.482686 283.851626 
L 74.645176 290.046829 
L 74.807666 283.851626 
L 74.970156 282.966798 
L 75.132645 290.902818 
L 75.295135 290.017091 
L 75.457625 277.656423 
L 75.620115 290.012819 
L 75.782604 290.902818 
L 75.945094 283.842895 
L 76.107584 284.728366 
L 76.270074 284.671406 
L 76.432563 290.902818 
L 76.595053 290.017091 
L 76.757543 284.728366 
L 76.920033 283.790227 
L 77.082523 284.728366 
L 77.245012 283.851626 
L 77.407502 283.851626 
L 77.569992 290.017091 
L 77.732482 284.728366 
L 77.894971 283.851626 
L 78.057461 284.728366 
L 78.219951 284.728366 
L 78.382441 283.790227 
L 78.54493 290.017091 
L 78.70742 283.842895 
L 78.86991 289.127741 
L 79.0324 290.017091 
L 79.194889 284.671406 
L 79.357379 290.902818 
L 79.682359 283.851626 
L 79.844848 283.851626 
L 80.007338 290.017091 
L 80.169828 289.127741 
L 80.332318 283.851626 
L 80.494808 290.906795 
L 80.657297 283.851626 
L 80.819787 282.966798 
L 80.982277 283.851626 
L 81.144767 291.793172 
L 81.307256 283.851626 
L 81.469746 283.790227 
L 81.632236 283.851626 
L 81.794726 290.017091 
L 81.957215 290.017091 
L 82.119705 290.902818 
L 82.282195 283.790227 
L 82.444685 283.851626 
L 82.607174 290.902818 
L 82.769664 284.728366 
L 82.932154 284.728366 
L 83.094644 290.017091 
L 83.257133 283.851626 
L 83.582113 283.851626 
L 83.744603 284.728366 
L 83.907093 290.928071 
L 84.069582 282.900878 
L 84.232072 283.851626 
L 84.394562 277.74854 
L 84.557052 277.656423 
L 84.719541 278.52866 
L 84.882031 290.017091 
L 85.044521 283.842895 
L 85.207011 283.781407 
L 85.3695 290.902818 
L 85.53199 290.012819 
L 85.69448 284.728366 
L 86.019459 284.728366 
L 86.181949 283.851626 
L 86.344439 284.671406 
L 86.506929 283.851626 
L 86.994398 283.851626 
L 87.156888 282.966798 
L 87.319378 284.728366 
L 87.481867 284.736806 
L 87.644357 282.966798 
L 87.806847 290.017091 
L 87.969337 278.52866 
L 88.131826 283.781407 
L 88.294316 282.966798 
L 88.456806 290.017091 
L 88.781785 276.771595 
L 88.944275 277.735441 
L 89.269255 290.0426 
L 89.431744 283.851626 
L 90.081704 283.842895 
L 90.244193 277.735441 
L 90.406683 290.017091 
L 90.731663 277.656423 
L 90.894152 283.790227 
L 91.056642 284.728366 
L 91.219132 283.790227 
L 91.544111 290.902818 
L 91.706601 283.790227 
L 92.19407 283.842895 
L 92.35656 284.728366 
L 92.51905 290.017091 
L 92.68154 283.851626 
L 92.844029 284.728366 
L 93.006519 283.851626 
L 93.169009 290.017091 
L 93.331499 283.851626 
L 93.493989 282.966798 
L 93.818968 284.728366 
L 93.981458 283.851626 
L 94.143948 283.851626 
L 94.306437 289.187729 
L 94.468927 283.842895 
L 94.631417 290.017091 
L 94.793907 278.52866 
L 95.118886 290.902818 
L 95.281376 283.728198 
L 95.443866 290.902818 
L 95.606355 284.728366 
L 95.768845 290.012819 
L 95.931335 277.656423 
L 96.093825 290.017091 
L 96.418804 277.74854 
L 96.581294 290.017091 
L 96.743784 290.012819 
L 96.906274 283.851626 
L 97.068763 290.017091 
L 97.231253 290.017091 
L 97.393743 277.656423 
L 97.556233 290.017091 
L 97.718722 290.902818 
L 97.881212 283.851626 
L 98.043702 283.781407 
L 98.206192 290.017091 
L 98.531171 278.52866 
L 98.693661 290.017091 
L 98.856151 289.127741 
L 99.01864 290.902818 
L 99.18113 284.728366 
L 99.34362 290.902818 
L 99.50611 290.017091 
L 99.6686 277.656423 
L 99.831089 284.671406 
L 99.993579 283.842895 
L 100.156069 283.851626 
L 100.318559 284.671406 
L 100.481048 282.900878 
L 100.806028 284.671406 
L 101.131007 284.671406 
L 101.293497 282.900878 
L 101.455987 290.902818 
L 101.618477 278.52866 
L 101.943456 290.902818 
L 102.105946 283.842895 
L 102.268436 282.909984 
L 102.430925 283.851626 
L 102.593415 282.966798 
L 102.755905 290.902818 
L 103.080885 277.74854 
L 103.243374 284.728366 
L 103.405864 277.656423 
L 103.568354 289.127741 
L 103.730844 283.851626 
L 103.893333 284.728366 
L 104.055823 289.127741 
L 104.218313 282.900878 
L 104.380803 290.902818 
L 104.543292 284.728366 
L 104.705782 284.728366 
L 104.868272 290.017091 
L 105.193251 290.012819 
L 105.355741 283.842895 
L 105.518231 283.790227 
L 105.680721 290.902818 
L 105.84321 283.851626 
L 106.0057 282.900878 
L 106.16819 284.728366 
L 106.33068 290.932009 
L 106.818149 163.917978 
L 107.143129 129.130377 
L 107.305618 122.990619 
L 107.630598 100.901051 
L 107.793088 101.237683 
L 107.955577 90.670932 
L 108.118067 90.670932 
L 108.280557 89.909923 
L 108.443047 75.649117 
L 108.605536 83.191908 
L 108.768026 79.438499 
L 109.093006 77.537312 
L 109.580475 67.074505 
L 109.742965 70.656627 
L 109.905455 71.280093 
L 110.067944 65.925056 
L 110.230434 65.925056 
L 110.392924 70.146627 
L 110.555414 64.764557 
L 110.717903 63.995558 
L 110.880393 69.001101 
L 111.042883 66.583135 
L 111.205373 57.409755 
L 111.367862 61.003546 
L 111.530352 67.067611 
L 111.855332 56.817868 
L 112.017821 55.417152 
L 112.180311 60.430039 
L 112.342801 59.649216 
L 112.505291 64.709987 
L 112.667781 59.216999 
L 112.83027 59.216999 
L 112.99276 57.991455 
L 113.15525 53.568 
L 113.31774 58.62676 
L 113.480229 58.62676 
L 113.967699 55.501826 
L 114.292678 67.056885 
L 114.617658 55.038695 
L 114.780147 54.879945 
L 115.267617 65.846877 
L 115.592596 64.777541 
L 115.755086 64.777541 
L 115.917576 65.433823 
L 116.080066 71.102033 
L 116.242555 71.102033 
L 116.405045 76.413103 
L 116.730025 77.895546 
L 116.892514 82.783431 
L 117.055004 92.41953 
L 117.217494 88.328909 
L 117.379984 95.560368 
L 117.542473 90.79229 
L 117.704963 100.373526 
L 117.867453 100.373526 
L 118.192432 111.721794 
L 118.354922 107.652167 
L 118.517412 119.167795 
L 118.679902 113.376424 
L 118.842391 114.239706 
L 119.004881 119.167795 
L 119.167371 119.994945 
L 119.329861 131.512079 
L 119.492351 130.793084 
L 119.65484 130.793084 
L 119.81733 131.512079 
L 119.97982 133.064911 
L 120.14231 143.260775 
L 120.304799 144.828803 
L 120.467289 149.847547 
L 120.792269 151.420884 
L 120.954758 150.683782 
L 121.279738 161.749275 
L 121.442228 163.338761 
L 121.604717 163.338761 
L 121.929697 175.372032 
L 122.092187 170.066925 
L 122.417166 170.066925 
L 122.579656 182.900103 
L 122.742146 182.682733 
L 122.904636 182.133199 
L 123.067125 177.636276 
L 123.229615 189.147119 
L 123.392105 188.297469 
L 123.554595 182.900103 
L 123.879574 195.87595 
L 124.042064 195.096025 
L 124.367043 196.657275 
L 124.529533 195.87595 
L 124.692023 201.829006 
L 124.854513 202.679588 
L 125.017002 197.986999 
L 125.179492 208.99817 
L 125.341982 203.465666 
L 125.504472 208.204351 
L 125.666962 202.679588 
L 125.829451 220.601348 
L 125.991941 209.853187 
L 126.154431 215.839671 
L 126.316921 210.273719 
L 126.47941 215.839671 
L 126.6419 216.639093 
L 126.80439 221.460587 
L 126.96688 216.247638 
L 127.129369 222.267926 
L 127.291859 221.460587 
L 127.454349 216.247638 
L 127.616839 223.076727 
L 127.779328 221.460587 
L 127.941818 222.267926 
L 128.104308 222.267926 
L 128.266798 216.247638 
L 128.429287 222.267926 
L 128.916757 202.156328 
L 129.079247 201.367308 
L 129.241736 201.367308 
L 129.404226 189.147119 
L 129.566716 189.07265 
L 129.729206 175.372032 
L 129.891695 171.663554 
L 130.379165 144.91757 
L 130.704144 122.000825 
L 130.866634 121.30354 
L 131.191613 109.969622 
L 131.354103 109.15974 
L 131.516593 109.969622 
L 131.679083 109.15974 
L 132.004062 97.823319 
L 132.166552 108.851069 
L 132.491532 97.446437 
L 132.654021 101.554557 
L 132.816511 100.73652 
L 133.141491 100.605753 
L 133.46647 101.196208 
L 133.62896 100.373526 
L 134.116429 118.202411 
L 134.441409 125.573128 
L 134.603898 125.573128 
L 134.766388 124.857411 
L 134.928878 130.609804 
L 135.091368 132.232344 
L 135.253857 137.301019 
L 135.416347 138.059323 
L 135.741327 150.722953 
L 135.903817 149.8821 
L 136.066306 161.850035 
L 136.228796 156.610263 
L 136.391286 168.52286 
L 136.553776 169.368719 
L 136.716265 169.368719 
L 136.878755 170.126987 
L 137.041245 175.465712 
L 137.203735 176.315955 
L 137.366224 182.269012 
L 137.528714 182.269012 
L 137.691204 176.897209 
L 137.853694 183.119594 
L 138.016183 183.119594 
L 138.178673 195.314826 
L 138.341163 189.07265 
L 138.503653 189.07265 
L 138.828632 201.367308 
L 138.991122 202.156328 
L 139.153612 207.287794 
L 139.316102 207.709683 
L 139.478591 208.507317 
L 139.641081 214.527605 
L 139.803571 208.99817 
L 139.966061 209.367505 
L 140.29104 220.227889 
L 140.45353 216.247638 
L 140.61602 220.227889 
L 140.940999 222.267926 
L 141.103489 228.769514 
L 141.265979 221.40808 
L 141.428468 222.715037 
L 141.590958 222.267926 
L 141.753448 229.101268 
L 141.915938 228.817117 
L 142.078428 228.288213 
L 142.240917 229.962063 
L 142.565897 227.952658 
L 142.728387 234.002839 
L 142.890876 235.689063 
L 143.053366 229.634587 
L 143.215856 235.689063 
L 143.378346 229.634587 
L 143.540835 235.689063 
L 143.703325 229.634587 
L 143.865815 240.60387 
L 144.028305 241.473263 
L 144.190794 235.689063 
L 144.353284 234.823991 
L 144.515774 229.962063 
L 144.678264 241.74354 
L 144.840753 229.962063 
L 145.003243 235.689063 
L 145.328223 235.689063 
L 145.490713 236.511669 
L 145.653202 235.689063 
L 145.815692 235.689063 
L 145.978182 229.962063 
L 146.303161 242.304108 
L 146.465651 235.689063 
L 146.790631 235.689063 
L 146.95312 236.511669 
L 147.11561 242.304108 
L 147.2781 235.689063 
L 147.44059 242.304108 
L 147.603079 236.511669 
L 147.765569 242.34231 
L 147.928059 236.553792 
L 148.253038 247.557975 
L 148.415528 236.553792 
L 148.578018 241.473263 
L 148.740508 241.74354 
L 148.902998 235.689063 
L 149.065487 235.689063 
L 149.227977 236.511669 
L 149.390467 243.173775 
L 149.552957 242.34231 
L 149.715446 248.393162 
L 149.877936 247.315523 
L 150.040426 242.304108 
L 150.202916 249.262829 
L 150.365405 242.34231 
L 150.527895 248.427022 
L 150.690385 243.435788 
L 150.852875 249.262829 
L 151.015364 248.427022 
L 151.177854 248.427022 
L 151.340344 249.494565 
L 151.502834 244.301475 
L 151.665324 249.262829 
L 151.827813 250.132843 
L 151.990303 242.608269 
L 152.152793 249.262829 
L 152.315283 249.262829 
L 152.477772 250.132843 
L 152.640262 250.132843 
L 152.802752 249.262829 
L 152.965242 255.351884 
L 153.127731 256.19357 
L 153.290221 255.351884 
L 153.452711 255.148403 
L 153.615201 250.970799 
L 153.77769 250.100165 
L 153.94018 250.132843 
L 154.10267 249.262829 
L 154.26516 256.221897 
L 154.427649 243.435788 
L 154.752629 255.381126 
L 154.915119 250.132843 
L 155.077609 249.296415 
L 155.240098 256.221897 
L 155.402588 256.221897 
L 155.565078 249.262829 
L 155.727568 250.132843 
L 155.890057 255.351884 
L 156.052547 250.970799 
L 156.215037 261.26804 
L 156.540016 250.100165 
L 156.702506 261.26804 
L 156.864996 248.393162 
L 157.027486 249.262829 
L 157.189975 248.393162 
L 157.352465 248.427022 
L 157.677445 242.304108 
L 157.839934 242.304108 
L 158.002424 235.388551 
L 158.164914 235.645981 
L 158.327404 241.473263 
L 158.652383 228.721862 
L 158.814873 236.215053 
L 158.977363 235.34504 
L 159.139853 228.769514 
L 159.302342 234.519159 
L 159.627322 234.475373 
L 159.789812 228.386318 
L 159.952301 228.386318 
L 160.114791 222.663085 
L 160.277281 222.663085 
L 160.439771 215.738622 
L 160.60226 214.123722 
L 160.76475 214.123722 
L 161.08973 201.627184 
L 161.252219 201.627184 
L 161.414709 199.97482 
L 161.577199 194.818359 
L 161.739689 193.958778 
L 161.902179 189.253189 
L 162.064668 194.746709 
L 162.227158 188.726421 
L 162.552138 200.294785 
L 162.714627 200.766996 
L 162.877117 200.294785 
L 163.039607 202.421403 
L 163.202097 202.421403 
L 163.364586 208.876282 
L 163.527076 208.011554 
L 163.852056 220.985236 
L 164.014545 222.663085 
L 164.177035 222.663085 
L 164.339525 222.216274 
L 164.502015 227.904785 
L 164.664505 228.769514 
L 164.826994 235.645981 
L 164.989484 234.823991 
L 165.151974 234.823991 
L 165.314464 242.304108 
L 165.476953 242.304108 
L 165.639443 236.215053 
L 165.801933 236.511669 
L 165.964423 241.473263 
L 166.126912 242.304108 
L 166.289402 242.304108 
L 166.451892 255.119511 
L 166.614382 249.262829 
L 166.776871 249.028767 
L 166.939361 243.173775 
L 167.101851 248.393162 
L 167.264341 249.262829 
L 167.58932 249.262829 
L 167.75181 250.132843 
L 167.9143 249.262829 
L 168.07679 250.132843 
L 168.239279 250.132843 
L 168.401769 256.221897 
L 168.564259 256.19357 
L 168.726749 249.262829 
L 168.889238 256.221897 
L 169.214218 256.221897 
L 169.539197 257.716462 
L 169.701687 262.118205 
L 169.864177 262.993216 
L 170.026667 256.869185 
L 170.189156 262.969253 
L 170.351646 262.993216 
L 170.514136 262.142423 
L 170.676626 262.993216 
L 170.839115 268.982128 
L 171.001605 262.993216 
L 171.164095 262.993216 
L 171.326585 256.221897 
L 171.489075 256.221897 
L 171.651564 257.934494 
L 171.814054 262.142423 
L 171.976544 256.221897 
L 172.139034 263.867879 
L 172.464013 263.844893 
L 172.626503 262.993216 
L 172.788993 269.117248 
L 172.951482 262.142423 
L 173.113972 269.117248 
L 173.276462 263.867879 
L 173.438952 269.973323 
L 173.601441 269.117248 
L 173.763931 269.117248 
L 173.926421 263.867879 
L 174.088911 262.993216 
L 174.2514 269.99191 
L 174.41389 257.934494 
L 174.57638 269.99191 
L 174.73887 263.016458 
L 174.90136 263.016458 
L 175.063849 269.99191 
L 175.226339 269.117248 
L 175.551319 270.848614 
L 175.713808 269.842433 
L 175.876298 270.848614 
L 176.038788 269.99191 
L 176.201278 276.016176 
L 176.363767 263.867879 
L 176.688747 263.844893 
L 176.851237 269.99191 
L 177.013726 269.99191 
L 177.176216 263.867879 
L 177.338706 270.848614 
L 177.501196 269.99191 
L 177.663686 269.99191 
L 177.826175 264.027899 
L 177.988665 269.99191 
L 178.151155 269.99191 
L 178.313645 268.26206 
L 178.476134 269.99191 
L 178.801114 269.99191 
L 178.963604 263.867879 
L 179.126093 270.722149 
L 179.288583 269.117248 
L 179.451073 268.982128 
L 179.613563 263.867879 
L 179.776052 276.016176 
L 179.938542 263.867879 
L 180.101032 269.99191 
L 180.263522 269.117248 
L 180.426011 269.99191 
L 180.588501 269.973323 
L 180.750991 263.867879 
L 180.913481 269.99191 
L 181.075971 269.99191 
L 181.23846 269.136095 
L 181.40095 276.016176 
L 181.56344 269.117248 
L 181.72593 269.99191 
L 181.888419 269.99191 
L 182.050909 276.016176 
L 182.213399 276.016176 
L 182.375889 269.861209 
L 182.538378 269.99191 
L 182.700868 270.848614 
L 182.863358 276.016176 
L 183.025848 270.848614 
L 183.188337 276.016176 
L 183.350827 269.99191 
L 183.838296 269.99191 
L 184.000786 264.027899 
L 184.163276 269.99191 
L 184.325766 270.848614 
L 184.488256 276.016176 
L 184.650745 269.99191 
L 184.813235 270.848614 
L 184.975725 276.115942 
L 185.138215 276.115942 
L 185.463194 264.876053 
L 185.625684 276.88156 
L 185.788174 270.848614 
L 185.950663 276.016176 
L 186.113153 276.88156 
L 186.275643 264.720184 
L 186.600622 276.895607 
L 186.763112 269.99191 
L 186.925602 271.724254 
L 187.088092 269.99191 
L 187.250581 276.016176 
L 187.413071 269.99191 
L 187.575561 283.040971 
L 187.738051 269.99191 
L 187.900541 270.866921 
L 188.06303 282.171143 
L 188.22552 269.99191 
L 188.38801 276.016176 
L 188.5505 276.868189 
L 188.712989 269.99191 
L 188.875479 282.97581 
L 189.037969 270.848614 
L 189.200459 276.88156 
L 189.362948 276.88156 
L 189.525438 288.28233 
L 189.850418 270.722149 
L 190.012907 270.866921 
L 190.175397 264.876053 
L 190.337887 276.115942 
L 190.500377 270.848614 
L 190.662867 270.848614 
L 190.825356 276.88156 
L 190.987846 276.977045 
L 191.150336 269.99191 
L 191.312826 269.99191 
L 191.475315 276.88156 
L 191.637805 276.88156 
L 191.800295 276.016176 
L 191.962785 283.040971 
L 192.125274 282.97581 
L 192.287764 276.016176 
L 192.450254 282.97581 
L 192.612744 270.848614 
L 192.775233 276.016176 
L 192.937723 276.88156 
L 193.100213 269.99191 
L 193.262703 269.99191 
L 193.425192 270.722149 
L 193.587682 264.876053 
L 193.750172 276.895607 
L 193.912662 276.115942 
L 194.075152 270.866921 
L 194.237641 269.99191 
L 194.400131 276.88156 
L 194.562621 270.866921 
L 194.725111 276.016176 
L 194.8876 276.016176 
L 195.05009 276.88156 
L 195.21258 276.016176 
L 195.537559 277.761626 
L 195.700049 276.88156 
L 195.862539 276.88156 
L 196.025029 269.861209 
L 196.187518 276.88156 
L 196.350008 269.99191 
L 196.512498 276.016176 
L 196.674988 276.88156 
L 196.837477 270.848614 
L 196.999967 269.99191 
L 197.162457 270.848614 
L 197.487437 282.171143 
L 197.649926 270.848614 
L 197.812416 270.848614 
L 197.974906 276.88156 
L 199.274824 276.88156 
L 199.437314 269.861209 
L 199.599803 270.848614 
L 199.762293 276.88156 
L 200.087273 276.88156 
L 200.249762 276.016176 
L 200.412252 276.88156 
L 200.574742 275.137095 
L 200.737232 276.88156 
L 200.899722 264.005142 
L 201.062211 269.973323 
L 201.224701 263.844893 
L 201.387191 263.844893 
L 201.549681 268.982128 
L 201.71217 268.982128 
L 201.87466 262.993216 
L 202.03715 262.802957 
L 202.362129 250.712391 
L 202.524619 248.995479 
L 202.687109 255.994174 
L 202.849599 248.995479 
L 203.012088 255.148403 
L 203.337068 236.215053 
L 203.662048 247.280349 
L 203.824537 242.304108 
L 203.987027 242.304108 
L 204.149517 243.13647 
L 204.312007 242.304108 
L 204.474496 243.13647 
L 204.636986 248.154732 
L 204.799476 248.995479 
L 205.449435 248.995479 
L 205.611925 255.119511 
L 205.774414 248.995479 
L 206.099394 262.802957 
L 206.261884 255.994174 
L 206.424373 255.994174 
L 206.586863 262.802957 
L 206.749353 250.938363 
L 206.911843 262.118205 
L 207.074333 263.844893 
L 207.236822 268.982128 
L 207.399312 262.993216 
L 207.561802 263.844893 
L 207.724292 256.869185 
L 207.886781 269.842433 
L 208.049271 268.982128 
L 208.211761 263.844893 
L 208.374251 263.844893 
L 208.53674 269.842433 
L 208.69923 262.993216 
L 208.86172 263.844893 
L 209.02421 262.993216 
L 209.186699 269.842433 
L 209.349189 263.844893 
L 209.511679 262.993216 
L 209.674169 270.722149 
L 209.836658 268.982128 
L 209.999148 269.973323 
L 210.161638 264.876053 
L 210.324128 275.137095 
L 210.486618 276.88156 
L 210.649107 276.88156 
L 210.811597 269.117248 
L 210.974087 271.706892 
L 211.136577 276.88156 
L 211.299066 276.016176 
L 211.461556 276.88156 
L 211.624046 270.848614 
L 211.786536 276.016176 
L 211.949025 270.848614 
L 212.111515 276.88156 
L 212.274005 271.706892 
L 212.436495 276.88156 
L 212.761474 276.88156 
L 212.923964 270.848614 
L 213.086454 276.016176 
L 213.248943 276.88156 
L 213.411433 269.99191 
L 213.573923 276.016176 
L 213.736413 270.848614 
L 213.898903 276.895607 
L 214.061392 269.973323 
L 214.223882 283.040971 
L 214.386372 270.848614 
L 214.548862 270.848614 
L 214.711351 276.88156 
L 214.873841 276.016176 
L 215.036331 276.88156 
L 215.198821 276.88156 
L 215.36131 270.848614 
L 215.5238 271.724254 
L 215.68629 277.761626 
L 215.84878 276.88156 
L 216.011269 276.88156 
L 216.173759 271.724254 
L 216.498739 282.171143 
L 216.823718 270.848614 
L 216.986208 277.761626 
L 217.148698 276.88156 
L 217.961147 276.88156 
L 218.123636 269.99191 
L 218.286126 270.722149 
L 218.448616 270.848614 
L 218.611106 276.016176 
L 218.936085 277.761626 
L 219.098575 276.016176 
L 219.261065 276.016176 
L 219.423554 282.97581 
L 219.586044 276.88156 
L 219.748534 277.761626 
L 219.911024 283.040971 
L 220.236003 270.848614 
L 220.398493 269.99191 
L 220.560983 277.761626 
L 220.723473 276.88156 
L 220.885962 277.761626 
L 221.048452 276.88156 
L 221.210942 276.88156 
L 221.373432 270.848614 
L 221.535921 283.040971 
L 221.698411 276.88156 
L 221.860901 283.040971 
L 222.023391 276.001844 
L 222.18588 276.88156 
L 222.67335 276.88156 
L 222.835839 269.99191 
L 222.998329 276.977045 
L 223.160819 270.848614 
L 223.323309 270.848614 
L 223.485799 283.040971 
L 223.648288 283.040971 
L 223.810778 282.171143 
L 223.973268 276.88156 
L 224.135758 283.851626 
L 224.298247 276.88156 
L 224.460737 277.761626 
L 224.623227 271.724254 
L 224.785717 283.040971 
L 224.948206 276.88156 
L 225.110696 276.88156 
L 225.273186 283.040971 
L 225.435676 276.88156 
L 225.598165 277.74854 
L 225.760655 276.88156 
L 225.923145 276.88156 
L 226.085635 270.848614 
L 226.248124 277.761626 
L 226.410614 277.761626 
L 226.573104 270.866921 
L 226.735594 283.050574 
L 226.898084 276.977045 
L 227.060573 277.761626 
L 227.223063 276.88156 
L 227.548043 276.88156 
L 227.710532 282.97581 
L 227.873022 277.761626 
L 228.035512 276.88156 
L 228.198002 276.88156 
L 228.360491 282.97581 
L 228.522981 276.88156 
L 229.01045 276.88156 
L 229.17294 271.724254 
L 229.33543 276.016176 
L 229.49792 276.88156 
L 229.66041 276.977045 
L 229.822899 276.016176 
L 229.985389 277.761626 
L 230.147879 283.040971 
L 230.310369 276.88156 
L 230.472858 283.921037 
L 230.797838 270.848614 
L 230.960328 282.97581 
L 231.122817 276.88156 
L 231.285307 276.88156 
L 231.447797 283.040971 
L 231.610287 276.88156 
L 231.772776 276.016176 
L 231.935266 276.016176 
L 232.097756 289.166516 
L 232.260246 276.88156 
L 232.422735 276.016176 
L 232.585225 282.091625 
L 232.747715 283.040971 
L 232.910205 276.88156 
L 233.397674 276.88156 
L 233.560164 270.848614 
L 233.722654 271.706892 
L 233.885143 270.704326 
L 234.047633 276.88156 
L 234.210123 276.016176 
L 234.372613 276.88156 
L 234.535102 282.97581 
L 234.697592 271.584677 
L 234.860082 276.88156 
L 235.022572 276.785105 
L 235.185061 276.001844 
L 235.347551 276.88156 
L 235.510041 276.001844 
L 235.672531 276.88156 
L 235.83502 276.001844 
L 235.99751 276.88156 
L 236.16 276.001844 
L 236.32249 276.88156 
L 236.48498 269.99191 
L 236.647469 270.722149 
L 236.972449 276.88156 
L 237.134939 276.785105 
L 237.297428 276.88156 
L 237.459918 270.848614 
L 237.622408 276.88156 
L 237.784898 277.761626 
L 237.947387 276.88156 
L 238.109877 282.97581 
L 238.272367 276.88156 
L 238.434857 276.88156 
L 238.597346 270.722149 
L 238.759836 276.88156 
L 238.922326 276.88156 
L 239.084816 277.761626 
L 239.247305 277.761626 
L 239.572285 276.016176 
L 239.897265 277.852685 
L 240.222244 276.016176 
L 240.547224 290.046829 
L 240.709713 289.166516 
L 240.872203 277.74854 
L 241.034693 283.851626 
L 241.197183 276.977045 
L 241.359672 277.74854 
L 241.522162 289.166516 
L 241.847142 277.761626 
L 242.009631 277.74854 
L 242.172121 283.860348 
L 242.334611 276.115942 
L 242.497101 277.74854 
L 242.65959 277.852685 
L 242.82208 277.74854 
L 242.98457 276.88156 
L 243.30955 289.166516 
L 243.472039 277.74854 
L 243.634529 277.761626 
L 243.797019 283.851626 
L 243.959509 283.860348 
L 244.121998 282.97581 
L 244.284488 283.851626 
L 244.446978 278.629242 
L 244.609468 282.97581 
L 244.771957 283.860348 
L 244.934447 283.912403 
L 245.096937 277.761626 
L 245.259427 277.761626 
L 245.421916 283.921037 
L 245.584406 277.852685 
L 245.746896 276.88156 
L 245.909386 271.584677 
L 246.234365 283.040971 
L 246.396855 283.040971 
L 246.559345 277.74854 
L 246.721835 283.921037 
L 246.884324 277.761626 
L 247.046814 277.74854 
L 247.209304 282.97581 
L 247.371794 282.97581 
L 247.534283 283.851626 
L 247.696773 282.97581 
L 247.859263 282.97581 
L 248.021753 278.629242 
L 248.184242 282.97581 
L 248.346732 282.97581 
L 248.509222 283.860348 
L 248.671712 277.761626 
L 248.834201 276.88156 
L 248.996691 276.88156 
L 249.159181 283.040971 
L 249.321671 276.88156 
L 249.484161 289.166516 
L 249.64665 284.736806 
L 249.97163 283.040971 
L 250.13412 283.040971 
L 250.296609 289.166516 
L 250.459099 276.88156 
L 250.621589 276.88156 
L 250.784079 282.97581 
L 250.946568 282.97581 
L 251.109058 277.74854 
L 251.271548 277.83973 
L 251.434038 283.851626 
L 251.596527 283.040971 
L 251.759017 276.88156 
L 251.921507 277.761626 
L 252.083997 283.050574 
L 252.246486 277.761626 
L 252.408976 277.761626 
L 252.571466 283.921037 
L 253.058935 283.921037 
L 253.221425 277.761626 
L 253.383915 282.97581 
L 253.546405 272.583161 
L 253.708894 283.040971 
L 254.033874 284.736806 
L 254.196364 290.046829 
L 254.358853 277.74854 
L 254.521343 283.912403 
L 254.683833 277.669642 
L 254.846323 283.851626 
L 255.008812 283.921037 
L 255.171302 277.761626 
L 255.333792 283.040971 
L 255.496282 276.88156 
L 255.658771 276.88156 
L 255.821261 283.040971 
L 255.983751 283.040971 
L 256.146241 283.921037 
L 256.308731 277.761626 
L 256.47122 283.040971 
L 256.63371 283.040971 
L 256.7962 276.88156 
L 256.95869 276.88156 
L 257.121179 277.74854 
L 257.283669 277.761626 
L 257.446159 282.97581 
L 257.608649 282.97581 
L 257.771138 277.761626 
L 257.933628 283.851626 
L 258.096118 284.793105 
L 258.258608 276.88156 
L 258.421097 290.046829 
L 258.583587 282.97581 
L 258.746077 284.736806 
L 258.908567 276.88156 
L 259.071057 283.032051 
L 259.233546 284.736806 
L 259.396036 277.761626 
L 259.558526 283.921037 
L 259.721016 283.040971 
L 259.883505 272.583161 
L 260.208485 283.040971 
L 260.370975 282.97581 
L 260.533464 277.761626 
L 260.858444 290.932009 
L 261.020934 283.851626 
L 261.183423 284.736806 
L 261.345913 276.88156 
L 261.508403 276.88156 
L 261.670893 283.860348 
L 261.833382 277.761626 
L 261.995872 283.860348 
L 262.158362 277.761626 
L 262.320852 290.051053 
L 262.483342 278.629242 
L 262.645831 289.166516 
L 262.808321 290.046829 
L 262.970811 277.74854 
L 263.133301 277.761626 
L 263.29579 282.97581 
L 263.45828 277.74854 
L 263.62077 283.851626 
L 263.78326 282.97581 
L 263.945749 283.851626 
L 264.108239 283.851626 
L 264.270729 290.051053 
L 264.595708 272.583161 
L 264.920688 290.932009 
L 265.083178 277.761626 
L 265.245667 276.88156 
L 265.733137 276.88156 
L 265.895627 277.74854 
L 266.058116 276.88156 
L 266.220606 276.895607 
L 266.383096 283.860348 
L 266.545586 283.912403 
L 266.708075 277.74854 
L 266.870565 277.74854 
L 267.033055 282.966798 
L 267.195545 277.74854 
L 267.358034 283.851626 
L 267.520524 277.74854 
L 267.683014 283.040971 
L 267.845504 277.74854 
L 268.007993 282.97581 
L 268.170483 283.921037 
L 268.495463 283.851626 
L 268.657952 276.88156 
L 268.820442 283.040971 
L 268.982932 283.860348 
L 269.145422 276.016176 
L 269.307912 276.88156 
L 269.470401 283.040971 
L 269.632891 282.101613 
L 269.795381 282.97581 
L 269.957871 282.97581 
L 270.12036 277.74854 
L 270.28285 277.74854 
L 270.44534 283.851626 
L 270.60783 283.851626 
L 270.770319 277.656423 
L 270.932809 282.97581 
L 271.257789 270.722149 
L 271.582768 270.722149 
L 271.745258 276.016176 
L 271.907748 275.915396 
L 272.070238 276.016176 
L 272.232727 270.704326 
L 272.395217 282.97581 
L 272.557707 269.842433 
L 272.720197 275.900919 
L 272.882686 276.771595 
L 273.045176 270.704326 
L 273.207666 269.842433 
L 273.370156 263.683023 
L 273.695135 276.771595 
L 273.857625 268.962368 
L 274.020115 269.842433 
L 274.182604 275.900919 
L 274.345094 269.842433 
L 274.507584 269.842433 
L 274.670074 276.001844 
L 274.832563 269.842433 
L 274.995053 270.704326 
L 275.157543 270.722149 
L 275.320033 276.001844 
L 275.482523 276.001844 
L 275.807502 277.74854 
L 275.969992 282.97581 
L 276.132482 282.97581 
L 276.294971 276.785105 
L 276.457461 283.851626 
L 276.619951 276.001844 
L 276.782441 276.771595 
L 276.94493 278.616429 
L 277.10742 283.851626 
L 277.26991 276.785105 
L 277.4324 276.88156 
L 277.594889 282.966798 
L 277.757379 277.74854 
L 277.919869 276.88156 
L 278.082359 283.040971 
L 278.244848 277.74854 
L 278.407338 282.97581 
L 278.569828 283.851626 
L 278.732318 282.97581 
L 278.894808 277.74854 
L 279.057297 276.88156 
L 279.219787 284.793105 
L 279.382277 276.88156 
L 279.544767 277.74854 
L 279.707256 277.74854 
L 280.032236 290.017091 
L 280.194726 277.761626 
L 280.357215 283.851626 
L 280.519705 276.88156 
L 280.682195 283.851626 
L 280.844685 283.851626 
L 281.007174 290.046829 
L 281.332154 276.88156 
L 281.494644 283.040971 
L 281.657133 276.88156 
L 281.819623 276.88156 
L 281.982113 289.166516 
L 282.144603 276.88156 
L 282.307093 282.97581 
L 282.469582 284.793105 
L 282.632072 277.74854 
L 282.957052 290.017091 
L 283.119541 290.906795 
L 283.282031 282.97581 
L 283.444521 282.091625 
L 283.607011 277.74854 
L 283.7695 284.736806 
L 283.93199 282.97581 
L 284.09448 284.793105 
L 284.25697 277.74854 
L 284.419459 278.629242 
L 284.581949 277.74854 
L 284.744439 283.921037 
L 284.906929 283.040971 
L 285.069419 283.860348 
L 285.231908 276.88156 
L 285.394398 278.629242 
L 285.556888 282.97581 
L 285.719378 283.040971 
L 285.881867 290.046829 
L 286.044357 277.74854 
L 286.206847 277.74854 
L 286.369337 278.629242 
L 286.531826 282.97581 
L 286.694316 277.74854 
L 286.856806 282.97581 
L 287.019296 277.74854 
L 287.181785 283.851626 
L 287.344275 284.728366 
L 287.506765 278.629242 
L 287.669255 283.851626 
L 287.831744 283.921037 
L 287.994234 290.046829 
L 288.156724 271.724254 
L 288.319214 289.166516 
L 288.481704 276.88156 
L 288.644193 282.97581 
L 288.806683 277.74854 
L 288.969173 277.74854 
L 289.131663 290.046829 
L 289.294152 277.74854 
L 289.456642 282.97581 
L 289.619132 277.74854 
L 289.781622 282.091625 
L 289.944111 290.017091 
L 290.106601 271.584677 
L 290.269091 283.851626 
L 290.431581 277.74854 
L 290.59407 282.97581 
L 290.75656 276.88156 
L 290.91905 277.74854 
L 291.08154 277.761626 
L 291.244029 276.88156 
L 291.569009 290.046829 
L 291.893989 277.761626 
L 292.056478 283.040971 
L 292.218968 282.97581 
L 292.543948 284.793105 
L 292.706437 276.977045 
L 292.868927 276.88156 
L 293.031417 277.761626 
L 293.193907 289.166516 
L 293.518886 277.74854 
L 293.681376 283.851626 
L 293.843866 277.74854 
L 294.006355 277.74854 
L 294.168845 290.051053 
L 294.331335 283.921037 
L 294.493825 282.97581 
L 294.656314 283.860348 
L 294.818804 282.97581 
L 294.981294 283.912403 
L 295.143784 278.629242 
L 295.306274 283.860348 
L 295.468763 283.040971 
L 295.631253 283.912403 
L 295.793743 283.851626 
L 295.956233 277.74854 
L 296.118722 284.736806 
L 296.281212 271.584677 
L 296.768681 284.736806 
L 296.931171 283.851626 
L 297.093661 283.912403 
L 297.256151 282.97581 
L 297.41864 277.74854 
L 297.58113 282.97581 
L 297.74362 276.88156 
L 297.90611 290.046829 
L 298.0686 277.74854 
L 298.231089 277.74854 
L 298.393579 283.860348 
L 298.556069 282.97581 
L 298.718559 282.97581 
L 298.881048 283.860348 
L 299.043538 277.74854 
L 299.206028 284.736806 
L 299.368518 283.851626 
L 299.531007 290.046829 
L 299.693497 290.046829 
L 299.855987 278.629242 
L 300.180966 290.051053 
L 300.505946 277.74854 
L 300.668436 283.860348 
L 300.830925 277.74854 
L 300.993415 283.040971 
L 301.155905 277.74854 
L 301.318395 282.97581 
L 301.480885 277.761626 
L 301.805864 290.046829 
L 301.968354 290.932009 
L 302.130844 277.761626 
L 302.293333 290.046829 
L 302.455823 277.74854 
L 302.618313 290.046829 
L 302.780803 283.851626 
L 302.943292 289.166516 
L 303.105782 284.736806 
L 303.430762 284.784748 
L 303.593251 283.851626 
L 303.755741 283.851626 
L 303.918231 278.629242 
L 304.080721 278.629242 
L 304.24321 277.761626 
L 304.4057 283.921037 
L 304.56819 277.761626 
L 304.73068 277.761626 
L 304.89317 283.921037 
L 305.055659 276.785105 
L 305.218149 283.851626 
L 305.380639 284.736806 
L 305.543129 277.74854 
L 305.705618 284.736806 
L 305.868108 283.851626 
L 306.030598 284.736806 
L 306.193088 284.736806 
L 306.355577 283.851626 
L 306.518067 284.728366 
L 306.680557 290.046829 
L 306.843047 278.629242 
L 307.005536 282.97581 
L 307.168026 276.88156 
L 307.330516 277.74854 
L 307.493006 276.88156 
L 307.655495 289.166516 
L 307.817985 290.046829 
L 307.980475 283.912403 
L 308.142965 284.736806 
L 308.305455 277.74854 
L 308.467944 282.97581 
L 308.630434 283.851626 
L 308.792924 289.166516 
L 308.955414 283.040971 
L 309.117903 283.851626 
L 309.280393 283.851626 
L 309.442883 284.728366 
L 309.605373 283.851626 
L 309.930352 283.851626 
L 310.092842 278.616429 
L 310.255332 284.736806 
L 310.580311 284.736806 
L 310.742801 283.912403 
L 310.905291 271.706892 
L 311.23027 290.046829 
L 311.55525 277.74854 
L 311.71774 276.88156 
L 311.880229 283.040971 
L 312.042719 283.851626 
L 312.205209 290.906795 
L 312.367699 290.932009 
L 312.530188 295.488 
L 312.855168 277.74854 
L 313.180147 289.166516 
L 313.505127 277.74854 
L 313.667617 283.851626 
L 313.830106 283.912403 
L 313.992596 277.74854 
L 314.317576 277.74854 
L 314.642555 284.736806 
L 314.805045 289.166516 
L 315.130025 277.74854 
L 315.292514 283.851626 
L 315.779984 283.790227 
L 315.942473 277.656423 
L 316.104963 283.912403 
L 316.267453 276.88156 
L 316.429943 277.74854 
L 316.754922 289.166516 
L 317.079902 278.616429 
L 317.242391 290.046829 
L 317.404881 277.74854 
L 317.567371 284.793105 
L 317.729861 277.761626 
L 317.892351 283.851626 
L 318.05484 283.851626 
L 318.21733 290.051053 
L 318.37982 290.046829 
L 318.54231 284.736806 
L 318.704799 290.046829 
L 318.867289 283.851626 
L 319.192269 283.851626 
L 319.354758 284.736806 
L 319.517248 278.629242 
L 319.679738 282.966798 
L 319.842228 283.851626 
L 320.004717 283.851626 
L 320.167207 282.97581 
L 320.492187 282.97581 
L 320.654676 277.74854 
L 320.817166 282.97581 
L 321.142146 284.793105 
L 321.304636 290.046829 
L 321.467125 282.97581 
L 321.792105 284.736806 
L 321.954595 290.046829 
L 322.117084 277.74854 
L 322.279574 277.74854 
L 322.604554 284.736806 
L 322.767043 271.584677 
L 323.092023 283.851626 
L 323.254513 282.97581 
L 323.417002 290.051053 
L 323.579492 283.860348 
L 323.741982 290.932009 
L 323.904472 276.88156 
L 324.066962 283.851626 
L 324.229451 277.74854 
L 324.391941 278.629242 
L 324.554431 277.761626 
L 324.87941 290.021359 
L 325.0419 284.736806 
L 325.20439 283.851626 
L 325.36688 283.851626 
L 325.529369 284.736806 
L 325.691859 284.736806 
L 325.854349 277.74854 
L 326.016839 283.851626 
L 326.179328 283.851626 
L 326.341818 277.761626 
L 326.504308 276.88156 
L 326.666798 282.97581 
L 326.829287 284.736806 
L 326.991777 289.166516 
L 327.154267 282.97581 
L 327.316757 283.851626 
L 327.479247 277.761626 
L 327.641736 277.761626 
L 327.804226 290.046829 
L 327.966716 282.97581 
L 328.129206 284.736806 
L 328.291695 278.616429 
L 328.454185 283.851626 
L 329.266634 283.790227 
L 329.429124 289.132304 
L 329.591613 284.736806 
L 329.754103 290.046829 
L 329.916593 277.74854 
L 330.079083 277.74854 
L 330.241572 289.166516 
L 330.566552 277.74854 
L 330.891532 290.046829 
L 331.054021 289.166516 
L 331.216511 283.912403 
L 331.379001 290.046829 
L 331.541491 283.912403 
L 331.70398 290.046829 
L 331.86647 290.928071 
L 332.02896 290.046829 
L 332.19145 283.851626 
L 332.353939 283.851626 
L 332.516429 290.046829 
L 332.678919 283.851626 
L 332.841409 284.736806 
L 333.003898 282.97581 
L 333.328878 282.97581 
L 333.491368 284.736806 
L 333.653857 284.736806 
L 333.816347 283.912403 
L 333.978837 276.88156 
L 334.141327 283.912403 
L 334.303817 277.74854 
L 334.466306 283.851626 
L 334.628796 284.736806 
L 334.791286 289.166516 
L 334.953776 283.851626 
L 335.278755 295.487724 
L 335.441245 283.851626 
L 335.603735 290.017091 
L 335.928714 276.868189 
L 336.091204 284.728366 
L 336.253694 283.851626 
L 336.416183 289.166516 
L 336.578673 289.166516 
L 336.741163 283.851626 
L 337.066143 283.851626 
L 337.391122 290.932009 
L 337.553612 283.860348 
L 337.716102 283.851626 
L 337.878591 277.74854 
L 338.041081 283.851626 
L 338.203571 276.785105 
L 338.52855 283.851626 
L 338.69104 278.52866 
L 338.85353 283.851626 
L 339.01602 278.541603 
L 339.178509 283.851626 
L 339.340999 276.785105 
L 339.503489 283.851626 
L 339.665979 284.736806 
L 339.828468 277.74854 
L 339.990958 283.851626 
L 340.315938 283.851626 
L 340.478428 282.966798 
L 340.640917 283.851626 
L 340.965897 283.860348 
L 341.128387 277.656423 
L 341.290876 283.851626 
L 341.453366 277.656423 
L 341.615856 283.790227 
L 341.778346 277.656423 
L 341.940835 282.966798 
L 342.265815 282.966798 
L 342.428305 276.771595 
L 342.590794 282.966798 
L 342.915774 272.448109 
L 343.403243 282.97581 
L 343.565733 282.966798 
L 343.728223 276.001844 
L 343.890713 282.909984 
L 344.053202 283.851626 
L 344.215692 276.785105 
L 344.378182 277.74854 
L 344.540672 275.900919 
L 344.703161 283.851626 
L 344.865651 282.97581 
L 345.028141 283.842895 
L 345.190631 277.735441 
L 345.35312 277.656423 
L 345.51561 289.127741 
L 345.6781 284.728366 
L 345.84059 289.166516 
L 346.328059 271.584677 
L 346.490549 290.046829 
L 346.815528 276.771595 
L 346.978018 283.851626 
L 347.140508 276.868189 
L 347.302998 282.909984 
L 347.465487 277.74854 
L 347.627977 283.851626 
L 347.790467 283.851626 
L 347.952957 295.485782 
L 348.115446 284.728366 
L 348.277936 284.728366 
L 348.440426 277.656423 
L 348.602916 290.017091 
L 348.765405 290.017091 
L 348.927895 284.728366 
L 349.090385 283.851626 
L 349.252875 277.74854 
L 349.415364 283.851626 
L 349.577854 282.97581 
L 349.740344 290.928071 
L 349.902834 284.784748 
L 350.065324 284.736806 
L 350.227813 290.906795 
L 350.390303 282.985509 
L 350.552793 283.851626 
L 350.715283 276.785105 
L 351.040262 290.902818 
L 351.202752 282.97581 
L 351.365242 284.728366 
L 351.527731 290.928071 
L 351.690221 276.771595 
L 351.852711 283.790227 
L 352.015201 283.851626 
L 352.17769 295.487724 
L 352.50267 289.166516 
L 352.66516 290.046829 
L 352.827649 283.851626 
L 352.990139 282.97581 
L 353.152629 289.162001 
L 353.315119 283.851626 
L 353.477609 290.906795 
L 353.640098 283.90376 
L 353.802588 283.860348 
L 353.965078 282.97581 
L 354.127568 282.97581 
L 354.290057 278.52866 
L 354.452547 290.046829 
L 354.615037 283.851626 
L 354.777527 284.728366 
L 354.940016 290.046829 
L 355.102506 289.127741 
L 355.264996 284.728366 
L 355.427486 283.851626 
L 355.589975 290.017091 
L 355.752465 290.046829 
L 355.914955 283.851626 
L 356.077445 283.851626 
L 356.239934 276.88156 
L 356.402424 276.785105 
L 356.564914 283.860348 
L 356.727404 277.74854 
L 356.889894 290.902818 
L 357.052383 283.851626 
L 357.214873 283.860348 
L 357.377363 285.614189 
L 357.539853 283.851626 
L 357.702342 283.851626 
L 357.864832 284.736806 
L 358.027322 284.728366 
L 358.189812 283.851626 
L 358.352301 290.017091 
L 358.514791 283.790227 
L 358.677281 290.017091 
L 358.839771 283.790227 
L 359.16475 283.851626 
L 359.32724 283.032051 
L 359.48973 282.97581 
L 359.652219 283.851626 
L 359.814709 290.046829 
L 359.977199 284.728366 
L 360.302179 282.97581 
L 360.464668 290.017091 
L 360.627158 283.851626 
L 360.789648 284.736806 
L 360.952138 283.851626 
L 361.114627 290.017091 
L 361.277117 285.614189 
L 361.439607 277.74854 
L 361.602097 284.671406 
L 361.764586 284.728366 
L 361.927076 283.851626 
L 362.089566 289.127741 
L 362.252056 284.736806 
L 362.414545 283.851626 
L 362.577035 290.017091 
L 362.739525 283.040971 
L 362.902015 283.912403 
L 363.064505 283.851626 
L 363.226994 284.784748 
L 363.389484 283.851626 
L 363.551974 290.932009 
L 363.714464 278.616429 
L 364.039443 290.017091 
L 364.201933 283.851626 
L 364.364423 284.728366 
L 364.526912 284.728366 
L 364.689402 290.902818 
L 364.851892 290.017091 
L 365.014382 290.017091 
L 365.176871 278.52866 
L 365.339361 283.860348 
L 365.501851 277.74854 
L 365.664341 278.629242 
L 365.82683 290.902818 
L 365.98932 277.74854 
L 366.15181 283.851626 
L 366.47679 283.851626 
L 366.639279 284.736806 
L 366.964259 284.736806 
L 367.126749 283.851626 
L 367.289238 284.728366 
L 367.451728 290.017091 
L 367.614218 284.728366 
L 367.776708 290.017091 
L 367.939197 282.966798 
L 368.101687 282.900878 
L 368.264177 284.728366 
L 368.426667 283.851626 
L 368.589156 285.614189 
L 368.751646 284.728366 
L 368.914136 290.046829 
L 369.076626 283.851626 
L 369.239115 284.728366 
L 369.401605 283.851626 
L 369.564095 277.74854 
L 369.726585 277.74854 
L 369.889075 284.728366 
L 370.051564 277.74854 
L 370.214054 277.74854 
L 370.376544 284.736806 
L 370.539034 284.736806 
L 370.701523 283.851626 
L 370.864013 291.772236 
L 371.026503 284.736806 
L 371.188993 284.728366 
L 371.351482 283.851626 
L 371.513972 278.52866 
L 371.676462 277.74854 
L 371.838952 283.851626 
L 372.163931 283.851626 
L 372.326421 290.017091 
L 372.488911 290.046829 
L 372.6514 282.97581 
L 372.97638 284.728366 
L 373.13887 283.851626 
L 373.30136 290.932009 
L 373.463849 278.616429 
L 373.626339 290.902818 
L 373.788829 277.656423 
L 373.951319 294.597449 
L 374.276298 284.728366 
L 374.438788 290.017091 
L 374.601278 284.736806 
L 374.763767 285.614189 
L 374.926257 284.736806 
L 375.088747 290.902818 
L 375.251237 283.842895 
L 375.413726 290.902818 
L 375.576216 277.74854 
L 375.738706 290.046829 
L 375.901196 283.851626 
L 376.063686 290.017091 
L 376.226175 290.046829 
L 376.388665 277.74854 
L 376.551155 283.851626 
L 376.713645 277.74854 
L 376.876134 284.728366 
L 377.038624 283.790227 
L 377.201114 290.902818 
L 377.363604 284.728366 
L 377.526093 284.728366 
L 377.688583 283.790227 
L 377.851073 290.902818 
L 378.013563 284.728366 
L 378.176052 283.851626 
L 378.338542 284.736806 
L 378.501032 283.851626 
L 378.663522 289.166516 
L 378.826011 284.736806 
L 378.988501 284.728366 
L 379.150991 276.785105 
L 379.313481 290.017091 
L 379.475971 277.74854 
L 379.63846 290.046829 
L 379.80095 283.851626 
L 379.96344 282.966798 
L 380.12593 290.017091 
L 380.288419 290.046829 
L 380.450909 283.851626 
L 380.775889 283.851626 
L 380.938378 290.902818 
L 381.100868 284.728366 
L 381.263358 290.902818 
L 381.425848 290.902818 
L 381.588337 284.736806 
L 381.750827 282.97581 
L 381.913317 283.851626 
L 382.075807 290.046829 
L 382.238296 283.851626 
L 382.400786 283.851626 
L 382.563276 277.74854 
L 382.725766 283.851626 
L 382.888256 282.97581 
L 383.050745 290.017091 
L 383.213235 284.728366 
L 383.538215 284.728366 
L 383.700704 290.899543 
L 383.863194 283.851626 
L 384.025684 290.012819 
L 384.188174 282.021283 
L 384.350663 283.851626 
L 384.513153 295.487724 
L 384.675643 284.728366 
L 384.838133 283.851626 
L 385.000622 290.017091 
L 385.163112 277.74854 
L 385.325602 290.046829 
L 385.488092 284.728366 
L 385.650581 283.851626 
L 385.813071 283.851626 
L 385.975561 290.046829 
L 386.138051 290.046829 
L 386.300541 290.928071 
L 386.46303 290.017091 
L 386.62552 291.813894 
L 386.78801 283.851626 
L 386.9505 290.046829 
L 387.112989 283.851626 
L 387.275479 295.487724 
L 387.437969 283.851626 
L 387.600459 290.017091 
L 387.762948 284.728366 
L 387.925438 290.017091 
L 388.250418 282.966798 
L 388.412907 283.851626 
L 388.575397 283.851626 
L 388.737887 282.966798 
L 388.900377 278.616429 
L 389.062867 284.679931 
L 389.225356 283.851626 
L 389.387846 283.851626 
L 389.550336 290.046829 
L 389.712826 283.851626 
L 389.875315 290.017091 
L 390.037805 284.728366 
L 390.200295 290.046829 
L 390.362785 283.851626 
L 390.525274 290.902818 
L 390.687764 290.017091 
L 390.850254 295.354605 
L 391.012744 283.790227 
L 391.175233 290.046829 
L 391.337723 278.541603 
L 391.500213 290.902818 
L 391.662703 277.74854 
L 391.825192 290.046829 
L 391.987682 284.736806 
L 392.150172 290.902818 
L 392.312662 290.046829 
L 392.475152 283.851626 
L 392.637641 283.912403 
L 392.800131 283.851626 
L 392.962621 277.656423 
L 393.2876 290.012819 
L 393.45009 290.046829 
L 393.61258 283.851626 
L 393.77507 290.902818 
L 393.937559 290.017091 
L 394.100049 283.851626 
L 394.262539 284.728366 
L 394.425029 289.132304 
L 394.587518 283.851626 
L 394.750008 282.966798 
L 394.912498 277.656423 
L 395.074988 290.932009 
L 395.237477 283.851626 
L 395.399967 290.932009 
L 395.724947 272.448109 
L 395.887437 290.902818 
L 396.049926 289.132304 
L 396.374906 282.966798 
L 396.537396 283.851626 
L 396.699885 283.842895 
L 396.862375 290.902818 
L 397.024865 290.012819 
L 397.349844 290.017091 
L 397.512334 283.851626 
L 397.674824 290.017091 
L 397.837314 290.906795 
L 398.162293 276.771595 
L 398.324783 283.790227 
L 398.487273 282.966798 
L 398.487273 282.966798 
" clip-path="url(#p6a060e356e)" style="fill: none; stroke: #1f77b4; stroke-width: 1.5; stroke-linecap: square"/>
   </g>
   <g id="patch_3">
    <path d="M 57.6 307.584 
L 57.6 41.472 
" style="fill: none; stroke: #000000; stroke-width: 0.8; stroke-linejoin: miter; stroke-linecap: square"/>
   </g>
   <g id="patch_4">
    <path d="M 414.72 307.584 
L 414.72 41.472 
" style="fill: none; stroke: #000000; stroke-width: 0.8; stroke-linejoin: miter; stroke-linecap: square"/>
   </g>
   <g id="patch_5">
    <path d="M 57.6 307.584 
L 414.72 307.584 
" style="fill: none; stroke: #000000; stroke-width: 0.8; stroke-linejoin: miter; stroke-linecap: square"/>
   </g>
   <g id="patch_6">
    <path d="M 57.6 41.472 
L 414.72 41.472 
" style="fill: none; stroke: #000000; stroke-width: 0.8; stroke-linejoin: miter; stroke-linecap: square"/>
   </g>
  </g>
 </g>
 <defs>
  <clipPath id="p6a060e356e">
   <rect x="57.6" y="41.472" width="357.12" height="266.112"/>
  </clipPath>
 </defs>
</svg>
