<?xml version="1.0" encoding="utf-8" standalone="no"?>
<!DOCTYPE svg PUBLIC "-//W3C//DTD SVG 1.1//EN"
  "http://www.w3.org/Graphics/SVG/1.1/DTD/svg11.dtd">
<svg xmlns:xlink="http://www.w3.org/1999/xlink" width="460.8pt" height="345.6pt" viewBox="0 0 460.8 345.6" xmlns="http://www.w3.org/2000/svg" version="1.1">
 <metadata>
  <rdf:RDF xmlns:dc="http://purl.org/dc/elements/1.1/" xmlns:cc="http://creativecommons.org/ns#" xmlns:rdf="http://www.w3.org/1999/02/22-rdf-syntax-ns#">
   <cc:Work>
    <dc:type rdf:resource="http://purl.org/dc/dcmitype/StillImage"/>
    <dc:date>2022-05-20T18:49:07.974370</dc:date>
    <dc:format>image/svg+xml</dc:format>
    <dc:creator>
     <cc:Agent>
      <dc:title>Matplotlib v3.5.1, https://matplotlib.org/</dc:title>
     </cc:Agent>
    </dc:creator>
   </cc:Work>
  </rdf:RDF>
 </metadata>
 <defs>
  <style type="text/css">*{stroke-linejoin: round; stroke-linecap: butt}</style>
 </defs>
 <g id="figure_1">
  <g id="patch_1">
   <path d="M 0 345.6 
L 460.8 345.6 
L 460.8 0 
L 0 0 
z
" style="fill: #ffffff"/>
  </g>
  <g id="axes_1">
   <g id="patch_2">
    <path d="M 57.6 307.584 
L 414.72 307.584 
L 414.72 41.472 
L 57.6 41.472 
z
" style="fill: #ffffff"/>
   </g>
   <g id="matplotlib.axis_1">
    <g id="xtick_1">
     <g id="line2d_1">
      <defs>
       <path id="mdadaed27ac" d="M 0 0 
L 0 3.5 
" style="stroke: #000000; stroke-width: 0.8"/>
      </defs>
      <g>
       <use xlink:href="#mdadaed27ac" x="70.553388" y="307.584" style="stroke: #000000; stroke-width: 0.8"/>
      </g>
     </g>
     <g id="text_1">
      <!-- $\mathdefault{0.0}$ -->
      <g transform="translate(64.188349 321.502498)scale(0.1 -0.1)">
       <defs>
        <path id="CMR17-30" d="M 2688 2025 
C 2688 2416 2682 3080 2413 3591 
C 2176 4039 1798 4198 1466 4198 
C 1158 4198 768 4058 525 3597 
C 269 3118 243 2524 243 2025 
C 243 1661 250 1106 448 619 
C 723 -39 1216 -128 1466 -128 
C 1760 -128 2208 -7 2470 600 
C 2662 1042 2688 1559 2688 2025 
z
M 1466 -26 
C 1056 -26 813 325 723 812 
C 653 1188 653 1738 653 2096 
C 653 2588 653 2997 736 3387 
C 858 3929 1216 4096 1466 4096 
C 1728 4096 2067 3923 2189 3400 
C 2272 3036 2278 2607 2278 2096 
C 2278 1680 2278 1169 2202 792 
C 2067 95 1690 -26 1466 -26 
z
" transform="scale(0.015625)"/>
        <path id="CMMI12-3a" d="M 1178 307 
C 1178 492 1024 619 870 619 
C 685 619 557 466 557 313 
C 557 128 710 0 864 0 
C 1050 0 1178 153 1178 307 
z
" transform="scale(0.015625)"/>
       </defs>
       <use xlink:href="#CMR17-30" transform="scale(0.996264)"/>
       <use xlink:href="#CMMI12-3a" transform="translate(45.690477 0)scale(0.996264)"/>
       <use xlink:href="#CMR17-30" transform="translate(72.787654 0)scale(0.996264)"/>
      </g>
     </g>
    </g>
    <g id="xtick_2">
     <g id="line2d_2">
      <g>
       <use xlink:href="#mdadaed27ac" x="136.140165" y="307.584" style="stroke: #000000; stroke-width: 0.8"/>
      </g>
     </g>
     <g id="text_2">
      <!-- $\mathdefault{0.2}$ -->
      <g transform="translate(129.775126 321.502498)scale(0.1 -0.1)">
       <defs>
        <path id="CMR17-32" d="M 2669 989 
L 2554 989 
C 2490 536 2438 459 2413 420 
C 2381 369 1920 369 1830 369 
L 602 369 
C 832 619 1280 1072 1824 1597 
C 2214 1967 2669 2402 2669 3035 
C 2669 3790 2067 4224 1395 4224 
C 691 4224 262 3604 262 3030 
C 262 2780 448 2748 525 2748 
C 589 2748 781 2787 781 3010 
C 781 3207 614 3264 525 3264 
C 486 3264 448 3258 422 3245 
C 544 3790 915 4058 1306 4058 
C 1862 4058 2227 3617 2227 3035 
C 2227 2479 1901 2000 1536 1584 
L 262 146 
L 262 0 
L 2515 0 
L 2669 989 
z
" transform="scale(0.015625)"/>
       </defs>
       <use xlink:href="#CMR17-30" transform="scale(0.996264)"/>
       <use xlink:href="#CMMI12-3a" transform="translate(45.690477 0)scale(0.996264)"/>
       <use xlink:href="#CMR17-32" transform="translate(72.787654 0)scale(0.996264)"/>
      </g>
     </g>
    </g>
    <g id="xtick_3">
     <g id="line2d_3">
      <g>
       <use xlink:href="#mdadaed27ac" x="201.726942" y="307.584" style="stroke: #000000; stroke-width: 0.8"/>
      </g>
     </g>
     <g id="text_3">
      <!-- $\mathdefault{0.4}$ -->
      <g transform="translate(195.361903 321.502498)scale(0.1 -0.1)">
       <defs>
        <path id="CMR17-34" d="M 2150 4122 
C 2150 4256 2144 4256 2029 4256 
L 128 1254 
L 128 1088 
L 1779 1088 
L 1779 457 
C 1779 224 1766 160 1318 160 
L 1197 160 
L 1197 0 
C 1402 0 1747 0 1965 0 
C 2182 0 2528 0 2733 0 
L 2733 160 
L 2611 160 
C 2163 160 2150 224 2150 457 
L 2150 1088 
L 2803 1088 
L 2803 1254 
L 2150 1254 
L 2150 4122 
z
M 1798 3703 
L 1798 1254 
L 256 1254 
L 1798 3703 
z
" transform="scale(0.015625)"/>
       </defs>
       <use xlink:href="#CMR17-30" transform="scale(0.996264)"/>
       <use xlink:href="#CMMI12-3a" transform="translate(45.690477 0)scale(0.996264)"/>
       <use xlink:href="#CMR17-34" transform="translate(72.787654 0)scale(0.996264)"/>
      </g>
     </g>
    </g>
    <g id="xtick_4">
     <g id="line2d_4">
      <g>
       <use xlink:href="#mdadaed27ac" x="267.313719" y="307.584" style="stroke: #000000; stroke-width: 0.8"/>
      </g>
     </g>
     <g id="text_4">
      <!-- $\mathdefault{0.6}$ -->
      <g transform="translate(260.94868 321.502498)scale(0.1 -0.1)">
       <defs>
        <path id="CMR17-36" d="M 678 2176 
C 678 3690 1395 4032 1811 4032 
C 1946 4032 2272 4009 2400 3776 
C 2298 3776 2106 3776 2106 3553 
C 2106 3381 2246 3323 2336 3323 
C 2394 3323 2566 3348 2566 3560 
C 2566 3954 2246 4179 1805 4179 
C 1043 4179 243 3390 243 1984 
C 243 253 966 -128 1478 -128 
C 2099 -128 2688 427 2688 1283 
C 2688 2081 2170 2662 1517 2662 
C 1126 2662 838 2407 678 1960 
L 678 2176 
z
M 1478 25 
C 691 25 691 1200 691 1436 
C 691 1896 909 2560 1504 2560 
C 1613 2560 1926 2560 2138 2120 
C 2253 1870 2253 1609 2253 1289 
C 2253 944 2253 690 2118 434 
C 1978 171 1773 25 1478 25 
z
" transform="scale(0.015625)"/>
       </defs>
       <use xlink:href="#CMR17-30" transform="scale(0.996264)"/>
       <use xlink:href="#CMMI12-3a" transform="translate(45.690477 0)scale(0.996264)"/>
       <use xlink:href="#CMR17-36" transform="translate(72.787654 0)scale(0.996264)"/>
      </g>
     </g>
    </g>
    <g id="xtick_5">
     <g id="line2d_5">
      <g>
       <use xlink:href="#mdadaed27ac" x="332.900496" y="307.584" style="stroke: #000000; stroke-width: 0.8"/>
      </g>
     </g>
     <g id="text_5">
      <!-- $\mathdefault{0.8}$ -->
      <g transform="translate(326.535456 321.502498)scale(0.1 -0.1)">
       <defs>
        <path id="CMR17-38" d="M 1741 2264 
C 2144 2467 2554 2773 2554 3263 
C 2554 3841 1990 4179 1472 4179 
C 890 4179 378 3759 378 3180 
C 378 3021 416 2747 666 2505 
C 730 2442 998 2251 1171 2130 
C 883 1983 211 1634 211 934 
C 211 279 838 -128 1459 -128 
C 2144 -128 2720 362 2720 1010 
C 2720 1590 2330 1857 2074 2029 
L 1741 2264 
z
M 902 2822 
C 851 2854 595 3051 595 3351 
C 595 3739 998 4032 1459 4032 
C 1965 4032 2336 3676 2336 3262 
C 2336 2669 1670 2331 1638 2331 
C 1632 2331 1626 2331 1574 2370 
L 902 2822 
z
M 2080 1519 
C 2176 1449 2483 1240 2483 851 
C 2483 381 2010 25 1472 25 
C 890 25 448 438 448 940 
C 448 1443 838 1862 1280 2060 
L 2080 1519 
z
" transform="scale(0.015625)"/>
       </defs>
       <use xlink:href="#CMR17-30" transform="scale(0.996264)"/>
       <use xlink:href="#CMMI12-3a" transform="translate(45.690477 0)scale(0.996264)"/>
       <use xlink:href="#CMR17-38" transform="translate(72.787654 0)scale(0.996264)"/>
      </g>
     </g>
    </g>
    <g id="xtick_6">
     <g id="line2d_6">
      <g>
       <use xlink:href="#mdadaed27ac" x="398.487273" y="307.584" style="stroke: #000000; stroke-width: 0.8"/>
      </g>
     </g>
     <g id="text_6">
      <!-- $\mathdefault{1.0}$ -->
      <g transform="translate(392.122233 321.502498)scale(0.1 -0.1)">
       <defs>
        <path id="CMR17-31" d="M 1702 4058 
C 1702 4192 1696 4192 1606 4192 
C 1357 3916 979 3827 621 3827 
C 602 3827 570 3827 563 3808 
C 557 3795 557 3782 557 3648 
C 755 3648 1088 3686 1344 3839 
L 1344 461 
C 1344 236 1331 160 781 160 
L 589 160 
L 589 0 
C 896 0 1216 0 1523 0 
C 1830 0 2150 0 2458 0 
L 2458 160 
L 2266 160 
C 1715 160 1702 230 1702 458 
L 1702 4058 
z
" transform="scale(0.015625)"/>
       </defs>
       <use xlink:href="#CMR17-31" transform="scale(0.996264)"/>
       <use xlink:href="#CMMI12-3a" transform="translate(45.690477 0)scale(0.996264)"/>
       <use xlink:href="#CMR17-30" transform="translate(72.787654 0)scale(0.996264)"/>
      </g>
     </g>
    </g>
    <g id="text_7">
     <!-- $f$ (Hz) -->
     <g transform="translate(221.7003 334.911657)scale(0.1 -0.1)">
      <defs>
       <path id="CMMI12-66" d="M 2854 2566 
C 2982 2566 3034 2566 3034 2688 
C 3034 2752 2982 2752 2867 2752 
L 2349 2752 
C 2470 3429 2560 3897 2611 4107 
C 2650 4265 2784 4416 2950 4416 
C 3085 4416 3219 4358 3283 4298 
C 3034 4272 2957 4082 2957 3969 
C 2957 3837 3053 3759 3174 3759 
C 3302 3759 3494 3870 3494 4119 
C 3494 4393 3226 4544 2944 4544 
C 2669 4544 2400 4334 2272 4078 
C 2157 3848 2093 3611 1946 2752 
L 1517 2752 
C 1395 2752 1331 2752 1331 2637 
C 1331 2566 1370 2566 1498 2566 
L 1907 2566 
C 1792 1976 1530 542 1382 -137 
C 1274 -689 1178 -1152 858 -1152 
C 838 -1152 653 -1152 538 -1031 
C 864 -1005 864 -726 864 -720 
C 864 -593 768 -517 646 -517 
C 518 -517 326 -625 326 -867 
C 326 -1140 608 -1280 858 -1280 
C 1510 -1280 1779 -118 1850 199 
C 1965 688 2278 2376 2310 2566 
L 2854 2566 
z
" transform="scale(0.015625)"/>
       <path id="CMR17-28" d="M 1958 -1561 
C 1958 -1555 1958 -1542 1939 -1523 
C 1645 -1224 858 -407 858 1581 
C 858 3569 1632 4379 1946 4697 
C 1946 4704 1958 4717 1958 4736 
C 1958 4755 1939 4768 1914 4768 
C 1843 4768 1299 4296 986 3594 
C 666 2887 576 2199 576 1588 
C 576 1128 621 351 1005 -471 
C 1312 -1135 1837 -1600 1914 -1600 
C 1946 -1600 1958 -1587 1958 -1561 
z
" transform="scale(0.015625)"/>
       <path id="CMR17-48" d="M 3590 3905 
C 3590 4192 3661 4192 4102 4192 
L 4102 4352 
C 3917 4352 3578 4352 3379 4352 
C 3181 4352 2842 4352 2656 4352 
L 2656 4192 
C 3098 4192 3168 4192 3168 3904 
L 3168 2341 
L 1261 2341 
L 1261 3904 
C 1261 4192 1331 4192 1773 4192 
L 1773 4352 
C 1587 4352 1248 4352 1050 4352 
C 851 4352 512 4352 326 4352 
L 326 4192 
C 768 4192 838 4192 838 3905 
L 838 447 
C 838 160 768 160 326 160 
L 326 0 
C 512 0 851 0 1050 0 
C 1248 0 1587 0 1773 0 
L 1773 160 
C 1331 160 1261 160 1261 446 
L 1261 2176 
L 3168 2176 
L 3168 446 
C 3168 160 3098 160 2656 160 
L 2656 0 
C 2842 0 3181 0 3379 0 
C 3578 0 3917 0 4102 0 
L 4102 160 
C 3661 160 3590 160 3590 447 
L 3590 3905 
z
" transform="scale(0.015625)"/>
       <path id="CMR17-7a" d="M 2310 2605 
C 2362 2670 2362 2682 2362 2695 
C 2362 2752 2336 2752 2221 2752 
L 275 2752 
L 211 1760 
L 326 1760 
C 371 2381 442 2650 1178 2650 
L 1958 2650 
L 128 96 
C 128 0 134 0 269 0 
L 2291 0 
L 2381 1152 
L 2266 1152 
C 2214 442 2131 115 1350 115 
L 531 115 
L 2310 2605 
z
" transform="scale(0.015625)"/>
       <path id="CMR17-29" d="M 1683 1581 
C 1683 2040 1638 2817 1254 3639 
C 947 4303 422 4768 346 4768 
C 326 4768 301 4761 301 4729 
C 301 4717 307 4710 314 4697 
C 621 4378 1402 3568 1402 1584 
C 1402 -407 627 -1217 314 -1537 
C 307 -1549 301 -1556 301 -1568 
C 301 -1600 326 -1600 346 -1600 
C 416 -1600 960 -1128 1274 -426 
C 1594 281 1683 969 1683 1581 
z
" transform="scale(0.015625)"/>
      </defs>
      <use xlink:href="#CMMI12-66" transform="scale(0.996264)"/>
      <use xlink:href="#CMR17-28" transform="translate(88.796271 0)scale(0.996264)"/>
      <use xlink:href="#CMR17-48" transform="translate(124.077039 0)scale(0.996264)"/>
      <use xlink:href="#CMR17-7a" transform="translate(193.149469 0)scale(0.996264)"/>
      <use xlink:href="#CMR17-29" transform="translate(233.635129 0)scale(0.996264)"/>
     </g>
    </g>
    <g id="text_8">
     <!-- $\times\mathdefault{10^{6}}\mathdefault{}$ -->
     <g transform="translate(393.037348 333.442332)scale(0.1 -0.1)">
      <defs>
       <path id="CMSY10-2" d="M 2490 1785 
L 1210 3059 
C 1133 3136 1120 3148 1069 3148 
C 1005 3148 941 3091 941 3020 
C 941 2976 954 2963 1024 2892 
L 2304 1606 
L 1024 320 
C 954 249 941 236 941 192 
C 941 121 1005 64 1069 64 
C 1120 64 1133 76 1210 153 
L 2483 1427 
L 3808 102 
C 3821 96 3866 64 3904 64 
C 3981 64 4032 121 4032 192 
C 4032 204 4032 230 4013 262 
C 4006 275 2989 1280 2669 1606 
L 3840 2777 
C 3872 2816 3968 2899 4000 2937 
C 4006 2950 4032 2976 4032 3020 
C 4032 3091 3981 3148 3904 3148 
C 3853 3148 3827 3123 3757 3052 
L 2490 1785 
z
" transform="scale(0.015625)"/>
      </defs>
      <use xlink:href="#CMSY10-2" transform="scale(0.996264)"/>
      <use xlink:href="#CMR17-31" transform="translate(77.487468 0)scale(0.996264)"/>
      <use xlink:href="#CMR17-30" transform="translate(123.177945 0)scale(0.996264)"/>
      <use xlink:href="#CMR17-36" transform="translate(168.868422 36.153639)scale(0.697382)"/>
     </g>
    </g>
   </g>
   <g id="matplotlib.axis_2">
    <g id="ytick_1">
     <g id="line2d_7">
      <defs>
       <path id="m97d5447ea5" d="M 0 0 
L -3.5 0 
" style="stroke: #000000; stroke-width: 0.8"/>
      </defs>
      <g>
       <use xlink:href="#m97d5447ea5" x="57.6" y="295.890947" style="stroke: #000000; stroke-width: 0.8"/>
      </g>
     </g>
     <g id="text_9">
      <!-- $\mathdefault{0}$ -->
      <g transform="translate(45.618665 299.350196)scale(0.1 -0.1)">
       <use xlink:href="#CMR17-30" transform="scale(0.996264)"/>
      </g>
     </g>
    </g>
    <g id="ytick_2">
     <g id="line2d_8">
      <g>
       <use xlink:href="#m97d5447ea5" x="57.6" y="263.429287" style="stroke: #000000; stroke-width: 0.8"/>
      </g>
     </g>
     <g id="text_10">
      <!-- $\mathdefault{5}$ -->
      <g transform="translate(45.618665 266.888536)scale(0.1 -0.1)">
       <defs>
        <path id="CMR17-35" d="M 730 3692 
C 794 3666 1056 3584 1325 3584 
C 1920 3584 2246 3911 2432 4100 
C 2432 4157 2432 4192 2394 4192 
C 2387 4192 2374 4192 2323 4163 
C 2099 4058 1837 3973 1517 3973 
C 1325 3973 1037 3999 723 4139 
C 653 4171 640 4171 634 4171 
C 602 4171 595 4164 595 4037 
L 595 2203 
C 595 2089 595 2057 659 2057 
C 691 2057 704 2070 736 2114 
C 941 2401 1222 2522 1542 2522 
C 1766 2522 2246 2382 2246 1289 
C 2246 1085 2246 715 2054 421 
C 1894 159 1645 25 1370 25 
C 947 25 518 320 403 814 
C 429 807 480 795 506 795 
C 589 795 749 840 749 1038 
C 749 1210 627 1280 506 1280 
C 358 1280 262 1190 262 1011 
C 262 454 704 -128 1382 -128 
C 2042 -128 2669 440 2669 1264 
C 2669 2030 2170 2624 1549 2624 
C 1222 2624 947 2503 730 2274 
L 730 3692 
z
" transform="scale(0.015625)"/>
       </defs>
       <use xlink:href="#CMR17-35" transform="scale(0.996264)"/>
      </g>
     </g>
    </g>
    <g id="ytick_3">
     <g id="line2d_9">
      <g>
       <use xlink:href="#m97d5447ea5" x="57.6" y="230.967626" style="stroke: #000000; stroke-width: 0.8"/>
      </g>
     </g>
     <g id="text_11">
      <!-- $\mathdefault{10}$ -->
      <g transform="translate(40.637329 234.426876)scale(0.1 -0.1)">
       <use xlink:href="#CMR17-31" transform="scale(0.996264)"/>
       <use xlink:href="#CMR17-30" transform="translate(45.690477 0)scale(0.996264)"/>
      </g>
     </g>
    </g>
    <g id="ytick_4">
     <g id="line2d_10">
      <g>
       <use xlink:href="#m97d5447ea5" x="57.6" y="198.505966" style="stroke: #000000; stroke-width: 0.8"/>
      </g>
     </g>
     <g id="text_12">
      <!-- $\mathdefault{15}$ -->
      <g transform="translate(40.637329 201.965215)scale(0.1 -0.1)">
       <use xlink:href="#CMR17-31" transform="scale(0.996264)"/>
       <use xlink:href="#CMR17-35" transform="translate(45.690477 0)scale(0.996264)"/>
      </g>
     </g>
    </g>
    <g id="ytick_5">
     <g id="line2d_11">
      <g>
       <use xlink:href="#m97d5447ea5" x="57.6" y="166.044306" style="stroke: #000000; stroke-width: 0.8"/>
      </g>
     </g>
     <g id="text_13">
      <!-- $\mathdefault{20}$ -->
      <g transform="translate(40.637329 169.503555)scale(0.1 -0.1)">
       <use xlink:href="#CMR17-32" transform="scale(0.996264)"/>
       <use xlink:href="#CMR17-30" transform="translate(45.690477 0)scale(0.996264)"/>
      </g>
     </g>
    </g>
    <g id="ytick_6">
     <g id="line2d_12">
      <g>
       <use xlink:href="#m97d5447ea5" x="57.6" y="133.582646" style="stroke: #000000; stroke-width: 0.8"/>
      </g>
     </g>
     <g id="text_14">
      <!-- $\mathdefault{25}$ -->
      <g transform="translate(40.637329 137.041895)scale(0.1 -0.1)">
       <use xlink:href="#CMR17-32" transform="scale(0.996264)"/>
       <use xlink:href="#CMR17-35" transform="translate(45.690477 0)scale(0.996264)"/>
      </g>
     </g>
    </g>
    <g id="ytick_7">
     <g id="line2d_13">
      <g>
       <use xlink:href="#m97d5447ea5" x="57.6" y="101.120985" style="stroke: #000000; stroke-width: 0.8"/>
      </g>
     </g>
     <g id="text_15">
      <!-- $\mathdefault{30}$ -->
      <g transform="translate(40.637329 104.580235)scale(0.1 -0.1)">
       <defs>
        <path id="CMR17-33" d="M 1414 2157 
C 1984 2157 2234 1662 2234 1090 
C 2234 320 1824 25 1453 25 
C 1114 25 563 194 390 693 
C 422 680 454 680 486 680 
C 640 680 755 782 755 948 
C 755 1133 614 1216 486 1216 
C 378 1216 211 1165 211 926 
C 211 335 787 -128 1466 -128 
C 2176 -128 2720 430 2720 1085 
C 2720 1707 2208 2157 1600 2227 
C 2086 2328 2554 2756 2554 3329 
C 2554 3820 2048 4179 1472 4179 
C 890 4179 378 3829 378 3329 
C 378 3110 544 3072 627 3072 
C 762 3072 877 3155 877 3321 
C 877 3486 762 3569 627 3569 
C 602 3569 570 3569 544 3557 
C 730 3959 1235 4032 1459 4032 
C 1683 4032 2106 3925 2106 3320 
C 2106 3143 2080 2828 1862 2550 
C 1670 2304 1453 2304 1242 2284 
C 1210 2284 1062 2269 1037 2269 
C 992 2263 966 2257 966 2208 
C 966 2163 973 2157 1101 2157 
L 1414 2157 
z
" transform="scale(0.015625)"/>
       </defs>
       <use xlink:href="#CMR17-33" transform="scale(0.996264)"/>
       <use xlink:href="#CMR17-30" transform="translate(45.690477 0)scale(0.996264)"/>
      </g>
     </g>
    </g>
    <g id="ytick_8">
     <g id="line2d_14">
      <g>
       <use xlink:href="#m97d5447ea5" x="57.6" y="68.659325" style="stroke: #000000; stroke-width: 0.8"/>
      </g>
     </g>
     <g id="text_16">
      <!-- $\mathdefault{35}$ -->
      <g transform="translate(40.637329 72.118574)scale(0.1 -0.1)">
       <use xlink:href="#CMR17-33" transform="scale(0.996264)"/>
       <use xlink:href="#CMR17-35" transform="translate(45.690477 0)scale(0.996264)"/>
      </g>
     </g>
    </g>
    <g id="text_17">
     <!-- $Z$ ($\Omega$) -->
     <g transform="translate(34.146669 187.417181)rotate(-90)scale(0.1 -0.1)">
      <defs>
       <path id="CMMI12-5a" d="M 4480 4154 
C 4518 4199 4550 4237 4550 4301 
C 4550 4346 4544 4352 4397 4352 
L 1754 4352 
C 1606 4352 1600 4346 1562 4231 
L 1210 3084 
C 1190 3020 1190 3007 1190 2995 
C 1190 2969 1210 2931 1254 2931 
C 1306 2931 1318 2956 1344 3039 
C 1581 3727 1894 4167 2906 4167 
L 3955 4167 
L 448 216 
C 390 147 365 121 365 51 
C 365 0 397 0 518 0 
L 3251 0 
C 3398 0 3405 6 3443 121 
L 3891 1529 
C 3898 1548 3910 1593 3910 1618 
C 3910 1650 3885 1682 3846 1682 
C 3795 1682 3789 1676 3738 1516 
C 3469 695 3187 198 2074 198 
L 966 198 
L 4480 4154 
z
" transform="scale(0.015625)"/>
       <path id="CMR17-a" d="M 4038 935 
L 3923 935 
C 3866 641 3846 563 3814 461 
C 3782 365 3763 314 3392 314 
L 2874 314 
C 2944 686 3098 961 3366 1391 
C 3699 1935 3974 2377 3974 2910 
C 3974 3775 3155 4480 2138 4480 
C 1094 4480 294 3768 294 2910 
C 294 2377 576 1922 890 1416 
C 1171 961 1325 686 1395 314 
L 877 314 
C 512 314 493 365 461 454 
C 422 557 410 641 346 935 
L 230 935 
L 416 0 
L 1382 0 
C 1517 0 1523 6 1523 102 
C 1523 558 1286 1154 1178 1429 
C 973 1929 781 2416 781 2916 
C 781 3871 1466 4377 2131 4377 
C 2829 4377 3488 3851 3488 2916 
C 3488 2422 3315 1981 3078 1397 
C 2976 1135 2746 551 2746 102 
C 2746 0 2752 0 2886 0 
L 3853 0 
L 4038 935 
z
" transform="scale(0.015625)"/>
      </defs>
      <use xlink:href="#CMMI12-5a" transform="scale(0.996264)"/>
      <use xlink:href="#CMR17-28" transform="translate(103.999559 0)scale(0.996264)"/>
      <use xlink:href="#CMR17-a" transform="translate(139.280326 0)scale(0.996264)"/>
      <use xlink:href="#CMR17-29" transform="translate(205.790207 0)scale(0.996264)"/>
     </g>
    </g>
   </g>
   <g id="line2d_15">
    <path d="M 73.832727 295.48593 
L 73.995217 283.07843 
L 74.157707 283.022304 
L 74.320197 289.653546 
L 74.482686 283.012904 
L 74.645176 291.572902 
L 74.807666 290.601993 
L 74.970156 283.087734 
L 75.132645 283.961351 
L 75.295135 284.022051 
L 75.457625 283.012904 
L 75.620115 288.710343 
L 75.782604 283.012904 
L 75.945094 284.902146 
L 76.107584 290.601993 
L 76.270074 288.710343 
L 76.432563 290.601993 
L 76.595053 277.415198 
L 77.082523 290.574805 
L 77.245012 289.653546 
L 77.407502 277.415198 
L 77.569992 276.485679 
L 77.732482 284.022051 
L 77.894971 283.07843 
L 78.057461 289.653546 
L 78.219951 290.601993 
L 78.382441 275.542743 
L 78.54493 277.415198 
L 78.86991 290.601993 
L 79.0324 289.658099 
L 79.194889 289.658099 
L 79.357379 283.961351 
L 79.519869 284.022051 
L 79.682359 283.961351 
L 79.844848 283.012904 
L 80.007338 276.485679 
L 80.169828 288.710343 
L 80.332318 277.415198 
L 80.494808 283.012904 
L 80.657297 284.022051 
L 80.819787 278.34644 
L 81.144767 290.606231 
L 81.307256 283.022304 
L 81.469746 289.626082 
L 81.632236 290.601993 
L 81.794726 289.658099 
L 81.957215 290.601993 
L 82.119705 289.653546 
L 82.607174 289.621482 
L 82.769664 290.601993 
L 82.932154 290.598504 
L 83.257133 276.471577 
L 83.419623 283.961351 
L 83.582113 283.022304 
L 83.744603 284.022051 
L 83.907093 284.022051 
L 84.069582 276.471577 
L 84.232072 288.715206 
L 84.394562 290.601993 
L 84.557052 283.961351 
L 84.719541 294.53231 
L 84.882031 290.601993 
L 85.044521 283.012904 
L 85.207011 283.012904 
L 85.3695 284.022051 
L 85.69448 295.48593 
L 85.85697 283.022304 
L 86.019459 289.621482 
L 86.181949 289.653546 
L 86.506929 282.074548 
L 86.669419 283.012904 
L 86.831908 283.012904 
L 86.994398 283.953005 
L 87.156888 283.953005 
L 87.319378 283.022304 
L 87.481867 283.07843 
L 87.644357 290.601993 
L 87.806847 289.653546 
L 87.969337 276.485679 
L 88.131826 283.961351 
L 88.294316 283.07843 
L 88.456806 289.658099 
L 88.619296 283.087734 
L 88.781785 284.013792 
L 88.944275 290.628905 
L 89.269255 276.485679 
L 89.431744 290.601993 
L 89.594234 289.658099 
L 89.756724 289.653546 
L 89.919214 283.012904 
L 90.081704 295.485633 
L 90.244193 284.031046 
L 90.406683 290.601993 
L 90.569173 289.653546 
L 90.731663 283.087734 
L 90.894152 290.598504 
L 91.056642 283.961351 
L 91.219132 282.074548 
L 91.381622 288.710343 
L 91.544111 276.471577 
L 91.706601 290.601993 
L 91.869091 283.961351 
L 92.031581 289.653546 
L 92.19407 290.601993 
L 92.35656 283.953005 
L 92.51905 295.485633 
L 92.68154 284.902146 
L 92.844029 283.953005 
L 93.169009 291.547645 
L 93.331499 290.571278 
L 93.493989 290.601993 
L 93.656478 289.653546 
L 93.981458 282.144798 
L 94.143948 289.626082 
L 94.306437 284.022051 
L 94.468927 289.658099 
L 94.631417 276.471577 
L 94.793907 289.653546 
L 94.956396 283.961351 
L 95.118886 283.022304 
L 95.281376 290.601993 
L 95.443866 283.953005 
L 95.768845 294.530931 
L 96.093825 282.144798 
L 96.256314 289.653546 
L 96.418804 283.022304 
L 96.581294 282.074548 
L 96.906274 294.53231 
L 97.068763 288.673459 
L 97.231253 293.576908 
L 97.393743 276.485679 
L 97.718722 289.685283 
L 97.881212 289.653546 
L 98.043702 290.601993 
L 98.206192 283.07843 
L 98.368681 283.961351 
L 98.531171 283.961351 
L 98.693661 283.07843 
L 98.856151 283.012904 
L 99.01864 291.547645 
L 99.18113 283.900027 
L 99.34362 290.598504 
L 99.50611 289.621482 
L 99.6686 290.571278 
L 99.831089 289.626082 
L 99.993579 283.087734 
L 100.156069 289.653546 
L 100.318559 283.07843 
L 100.481048 283.961351 
L 100.643538 284.022051 
L 100.806028 283.012904 
L 100.968518 289.653546 
L 101.293497 276.471577 
L 101.455987 288.710343 
L 101.618477 290.598504 
L 101.780966 283.961351 
L 101.943456 289.658099 
L 102.105946 283.087734 
L 102.268436 294.53231 
L 102.430925 290.598504 
L 102.593415 290.601993 
L 102.755905 291.525301 
L 102.918395 294.530931 
L 103.080885 283.953005 
L 103.243374 289.658099 
L 103.405864 289.658099 
L 103.568354 295.343363 
L 103.893333 283.087734 
L 104.055823 270.935324 
L 104.218313 291.547645 
L 104.380803 294.530931 
L 104.543292 282.074548 
L 104.705782 284.022051 
L 104.868272 277.415198 
L 105.030762 283.012904 
L 105.193251 283.953005 
L 105.355741 283.012904 
L 105.518231 283.953005 
L 105.680721 283.961351 
L 105.84321 290.571278 
L 106.0057 290.574805 
L 106.33068 283.012904 
L 106.655659 178.515609 
L 107.143129 118.20561 
L 107.305618 111.66264 
L 107.793088 82.643912 
L 107.955577 82.643912 
L 108.118067 76.799943 
L 108.280557 76.122139 
L 108.443047 80.748207 
L 108.605536 71.089644 
L 108.768026 75.012685 
L 108.930516 74.873249 
L 109.093006 68.457988 
L 109.255495 69.134106 
L 109.417985 69.134106 
L 109.580475 66.625789 
L 109.742965 66.480417 
L 109.905455 67.303747 
L 110.067944 65.457393 
L 110.230434 65.457393 
L 110.392924 59.667064 
L 110.555414 59.516456 
L 110.717903 64.276968 
L 111.042883 53.568 
L 111.205373 63.770876 
L 111.367862 57.080763 
L 111.530352 57.763494 
L 111.855332 66.572943 
L 112.017821 55.844026 
L 112.180311 61.201098 
L 112.342801 59.431923 
L 112.505291 66.921605 
L 112.83027 60.126463 
L 112.99276 64.863409 
L 113.15525 54.872674 
L 113.31774 70.508339 
L 113.480229 63.641325 
L 113.642719 64.49983 
L 113.805209 63.424116 
L 113.967699 64.49983 
L 114.130188 75.333803 
L 114.292678 70.173122 
L 114.455168 71.035848 
L 115.430106 101.590716 
L 115.755086 101.590716 
L 115.917576 108.470234 
L 116.080066 108.605782 
L 116.242555 121.695461 
L 116.405045 121.695461 
L 116.567535 116.377001 
L 116.730025 121.695461 
L 116.892514 134.151577 
L 117.055004 134.927466 
L 117.217494 134.927466 
L 117.542473 147.413962 
L 117.704963 147.515834 
L 117.867453 142.019513 
L 118.029943 148.305469 
L 118.192432 161.830548 
L 118.354922 161.830548 
L 118.517412 156.453036 
L 118.679902 168.104491 
L 118.842391 162.726978 
L 119.004881 173.788457 
L 119.167371 169.810308 
L 119.492351 181.81529 
L 119.65484 182.16378 
L 119.81733 188.503362 
L 119.97982 189.02512 
L 120.14231 183.539424 
L 120.304799 183.617747 
L 120.467289 195.748754 
L 120.629779 190.240948 
L 120.792269 202.47254 
L 120.954758 197.422656 
L 121.117248 202.47254 
L 121.279738 203.318491 
L 121.442228 210.609289 
L 121.604717 204.229659 
L 121.929697 216.599342 
L 122.092187 211.044048 
L 122.254676 211.461211 
L 122.417166 217.459701 
L 122.579656 215.683675 
L 122.742146 209.272547 
L 122.904636 210.127734 
L 123.067125 203.318491 
L 123.229615 203.318491 
L 123.392105 183.539424 
L 123.554595 194.347171 
L 124.042064 163.367307 
L 124.204554 160.876791 
L 124.529533 128.887728 
L 124.854513 111.475526 
L 125.017002 116.680583 
L 125.179492 110.607844 
L 125.341982 115.838504 
L 125.504472 114.967092 
L 125.666962 109.612514 
L 125.829451 109.612514 
L 125.991941 103.507142 
L 126.154431 102.634797 
L 126.316921 102.634797 
L 126.47941 107.856032 
L 126.6419 107.856032 
L 126.80439 108.605782 
L 126.96688 120.813638 
L 127.129369 109.356844 
L 127.454349 120.743723 
L 127.616839 114.641936 
L 127.941818 134.043831 
L 128.104308 127.028773 
L 128.266798 139.531972 
L 128.429287 140.28332 
L 128.591777 153.764101 
L 128.754267 154.562962 
L 128.916757 153.97482 
L 129.079247 160.279224 
L 129.404226 160.279224 
L 129.566716 161.086489 
L 129.729206 168.29632 
L 129.891695 168.913259 
L 130.054185 168.29632 
L 130.379165 182.08442 
L 130.541654 182.08442 
L 130.704144 188.428426 
L 131.029124 190.167144 
L 131.191613 202.40696 
L 131.516593 190.167144 
L 131.679083 203.253122 
L 131.841572 203.318491 
L 132.004062 202.40696 
L 132.166552 210.127734 
L 132.491532 210.127734 
L 132.654021 216.599342 
L 132.816511 216.543387 
L 132.979001 217.459701 
L 133.30398 217.459701 
L 133.46647 224.792032 
L 133.62896 223.875353 
L 133.79145 216.599342 
L 133.953939 218.376379 
L 134.116429 224.792032 
L 134.278919 224.438991 
L 134.441409 224.388262 
L 134.603898 231.441986 
L 134.766388 225.659128 
L 134.928878 231.762233 
L 135.253857 231.762233 
L 135.416347 232.63886 
L 135.578837 231.762233 
L 135.903817 231.762233 
L 136.066306 224.792032 
L 136.228796 225.659128 
L 136.391286 230.886501 
L 136.553776 230.886501 
L 136.716265 238.21432 
L 136.878755 232.68375 
L 137.041245 231.762233 
L 137.203735 237.926294 
L 137.366224 232.63886 
L 137.528714 238.21432 
L 137.691204 231.762233 
L 137.853694 238.811701 
L 138.016183 232.63886 
L 138.178673 231.762233 
L 138.341163 245.300637 
L 138.666143 231.762233 
L 138.991122 245.300637 
L 139.153612 238.21432 
L 139.316102 239.135837 
L 139.478591 239.135837 
L 139.641081 240.94024 
L 139.803571 245.587925 
L 139.966061 239.135837 
L 140.12855 240.017701 
L 140.29104 239.135837 
L 140.45353 246.474371 
L 140.61602 240.017701 
L 140.778509 246.227417 
L 140.940999 240.017701 
L 141.103489 240.901171 
L 141.428468 253.643502 
L 141.590958 252.716353 
L 141.753448 252.716353 
L 141.915938 252.49951 
L 142.078428 247.154566 
L 142.240917 246.227417 
L 142.403407 253.643502 
L 142.565897 252.747516 
L 142.890876 252.747516 
L 143.053366 247.154566 
L 143.215856 247.154566 
L 143.378346 254.541126 
L 143.540835 246.227417 
L 143.703325 252.747516 
L 143.865815 240.94024 
L 144.190794 251.599846 
L 144.353284 246.227417 
L 144.515774 251.568075 
L 144.678264 238.811701 
L 144.840753 238.811701 
L 145.003243 232.63886 
L 145.165733 238.811701 
L 145.328223 225.259652 
L 145.653202 236.115969 
L 145.815692 237.926294 
L 146.140672 224.388262 
L 146.303161 224.388262 
L 146.465651 225.259652 
L 146.628141 223.466745 
L 146.790631 216.149388 
L 146.95312 217.014658 
L 147.11561 203.712082 
L 147.2781 202.795403 
L 147.44059 196.869013 
L 147.603079 202.729999 
L 147.765569 201.412276 
L 148.090549 191.323616 
L 148.415528 201.87909 
L 148.578018 195.463437 
L 148.902998 209.640686 
L 149.065487 209.640686 
L 149.227977 217.014658 
L 149.390467 211.901432 
L 149.552957 217.014658 
L 149.715446 211.901432 
L 150.040426 223.466745 
L 150.202916 225.259652 
L 150.365405 224.388262 
L 150.527895 225.259652 
L 150.690385 238.811701 
L 150.852875 232.63886 
L 151.015364 237.926294 
L 151.177854 238.811701 
L 151.340344 231.762233 
L 151.502834 245.300637 
L 151.827813 247.154566 
L 151.990303 246.227417 
L 152.315283 246.227417 
L 152.477772 240.017701 
L 152.802752 252.747516 
L 152.965242 246.263208 
L 153.127731 246.227417 
L 153.290221 259.952842 
L 153.452711 253.613315 
L 153.615201 260.859508 
L 153.77769 248.047553 
L 153.94018 259.952842 
L 154.10267 254.541126 
L 154.26516 260.859508 
L 154.427649 260.859508 
L 154.590139 259.952842 
L 154.752629 260.859508 
L 154.915119 259.952842 
L 155.077609 260.859508 
L 155.240098 260.859508 
L 155.402588 254.541126 
L 155.727568 267.405803 
L 155.890057 253.643502 
L 156.052547 255.468568 
L 156.215037 261.962141 
L 156.377527 261.034699 
L 156.540016 268.317821 
L 156.702506 261.962141 
L 156.864996 268.317821 
L 157.027486 268.317821 
L 157.189975 266.474368 
L 157.514955 268.298014 
L 157.677445 255.468568 
L 157.839934 269.230787 
L 158.002424 268.317821 
L 158.164914 261.791612 
L 158.327404 261.034699 
L 158.489894 260.884276 
L 158.652383 267.405803 
L 158.814873 267.385718 
L 158.977363 261.962141 
L 159.139853 268.317821 
L 159.302342 261.059218 
L 159.464832 261.059218 
L 159.627322 268.317821 
L 159.789812 267.405803 
L 159.952301 268.317821 
L 160.277281 268.298014 
L 160.439771 267.241724 
L 160.60226 268.317821 
L 160.76475 261.791612 
L 160.92724 268.317821 
L 161.08973 267.385718 
L 161.252219 274.737713 
L 161.414709 267.385718 
L 161.577199 267.385718 
L 161.739689 268.317821 
L 161.902179 261.791612 
L 162.064668 267.385718 
L 162.227158 261.962141 
L 162.389648 268.317821 
L 162.552138 261.059218 
L 162.714627 268.317821 
L 163.364586 268.317821 
L 163.527076 267.405803 
L 163.689566 275.659929 
L 163.852056 275.761685 
L 164.014545 281.286353 
L 164.177035 275.659929 
L 164.339525 274.737713 
L 164.502015 268.317821 
L 164.664505 269.230787 
L 164.826994 275.659929 
L 164.989484 268.317821 
L 165.314464 268.317821 
L 165.476953 269.230787 
L 165.639443 269.250296 
L 165.801933 275.674898 
L 165.964423 268.317821 
L 166.126912 268.317821 
L 166.289402 269.250296 
L 166.451892 268.317821 
L 166.614382 269.250296 
L 166.776871 275.776506 
L 166.939361 269.230787 
L 167.101851 274.737713 
L 167.264341 274.737713 
L 167.42683 269.096017 
L 167.58932 275.659929 
L 167.75181 274.844031 
L 167.9143 275.761685 
L 168.07679 274.737713 
L 168.239279 261.962141 
L 168.401769 274.737713 
L 168.564259 269.230787 
L 168.726749 274.737713 
L 168.889238 261.962141 
L 169.051728 274.844031 
L 169.214218 268.317821 
L 169.376708 268.317821 
L 169.539197 269.230787 
L 169.701687 275.674898 
L 169.864177 269.230787 
L 170.026667 269.230787 
L 170.189156 275.674898 
L 170.351646 276.597791 
L 170.514136 274.737713 
L 170.676626 275.761685 
L 170.839115 275.761685 
L 171.001605 268.317821 
L 171.164095 268.317821 
L 171.326585 273.911928 
L 171.489075 269.230787 
L 171.651564 268.317821 
L 171.814054 269.230787 
L 171.976544 268.317821 
L 172.139034 268.317821 
L 172.301523 270.163932 
L 172.464013 274.844031 
L 172.626503 269.230787 
L 172.788993 274.737713 
L 172.951482 274.844031 
L 173.113972 275.659929 
L 173.276462 274.844031 
L 173.438952 275.674898 
L 173.601441 275.659929 
L 173.763931 268.317821 
L 173.926421 283.161704 
L 174.088911 275.659929 
L 174.41389 275.674898 
L 174.57638 274.722441 
L 174.73887 269.230787 
L 174.90136 275.761685 
L 175.063849 275.659929 
L 175.226339 269.250296 
L 175.388829 269.230787 
L 175.551319 274.844031 
L 175.713808 269.250296 
L 175.876298 274.737713 
L 176.038788 269.230787 
L 176.201278 274.737713 
L 176.363767 275.659929 
L 176.526257 274.737713 
L 176.688747 275.659929 
L 176.851237 275.659929 
L 177.176216 260.859508 
L 177.338706 268.158528 
L 177.501196 260.859508 
L 177.663686 259.952842 
L 177.826175 259.927033 
L 177.988665 248.012987 
L 178.151155 253.613315 
L 178.313645 253.400823 
L 178.476134 252.46872 
L 178.638624 252.49951 
L 178.801114 252.716353 
L 178.963604 239.698727 
L 179.126093 238.811701 
L 179.451073 252.46872 
L 179.776052 239.698727 
L 179.938542 253.400823 
L 180.101032 245.977983 
L 180.263522 253.3703 
L 180.426011 246.874614 
L 180.588501 246.874614 
L 180.750991 245.94251 
L 180.913481 252.46872 
L 181.075971 254.333298 
L 181.23846 259.927033 
L 181.40095 253.400823 
L 181.56344 259.927033 
L 181.72593 259.927033 
L 181.888419 260.859508 
L 182.050909 260.859508 
L 182.213399 261.767116 
L 182.375889 260.859508 
L 182.538378 260.859508 
L 182.700868 261.791612 
L 182.863358 259.927033 
L 183.025848 268.158528 
L 183.188337 269.096017 
L 183.350827 269.096017 
L 183.513317 274.722441 
L 183.675807 260.859508 
L 183.838296 260.859508 
L 184.000786 267.385718 
L 184.163276 267.241724 
L 184.325766 269.230787 
L 184.488256 262.699889 
L 184.650745 268.317821 
L 185.625684 268.317821 
L 185.788174 274.737713 
L 185.950663 275.659929 
L 186.113153 274.737713 
L 186.275643 274.737713 
L 186.438133 268.317821 
L 186.600622 274.722441 
L 186.763112 275.659929 
L 186.925602 275.659929 
L 187.088092 269.230787 
L 187.250581 275.659929 
L 187.575561 275.659929 
L 187.738051 281.222794 
L 187.900541 282.234075 
L 188.06303 275.659929 
L 188.22552 274.737713 
L 188.38801 274.737713 
L 188.5505 282.234075 
L 188.712989 270.163932 
L 189.037969 276.597791 
L 189.362948 276.597791 
L 189.525438 275.659929 
L 189.687928 288.751664 
L 189.850418 275.659929 
L 190.175397 275.659929 
L 190.337887 282.223842 
L 190.500377 275.659929 
L 190.662867 275.659929 
L 190.825356 276.597791 
L 190.987846 269.250296 
L 191.150336 268.317821 
L 191.312826 274.737713 
L 191.637805 274.737713 
L 191.800295 275.674898 
L 191.962785 275.659929 
L 192.125274 282.234075 
L 192.287764 274.737713 
L 192.450254 275.659929 
L 192.612744 270.163932 
L 192.775233 275.659929 
L 192.937723 275.659929 
L 193.100213 269.230787 
L 193.262703 275.659929 
L 193.425192 275.761685 
L 193.750172 282.154402 
L 193.912662 275.659929 
L 194.400131 275.659929 
L 194.562621 276.597791 
L 194.725111 275.659929 
L 194.8876 269.230787 
L 195.21258 281.29689 
L 195.37507 283.161704 
L 195.537559 274.737713 
L 195.700049 275.761685 
L 195.862539 274.844031 
L 196.025029 282.223842 
L 196.187518 283.152503 
L 196.350008 275.659929 
L 196.512498 282.223842 
L 196.674988 282.154402 
L 196.999967 282.223842 
L 197.162457 275.659929 
L 197.324947 275.659929 
L 197.487437 281.222794 
L 197.649926 282.164738 
L 197.812416 275.659929 
L 197.974906 284.091042 
L 198.137396 282.223842 
L 198.299885 283.161704 
L 198.462375 270.163932 
L 198.624865 283.161704 
L 198.787355 282.223842 
L 198.949844 275.761685 
L 199.274824 275.659929 
L 199.437314 275.659929 
L 199.599803 269.230787 
L 199.762293 275.659929 
L 199.924783 274.722441 
L 200.087273 275.659929 
L 200.249762 275.659929 
L 200.412252 282.154402 
L 200.574742 274.737713 
L 200.737232 275.659929 
L 200.899722 274.737713 
L 201.062211 268.317821 
L 201.224701 268.317821 
L 201.387191 274.737713 
L 201.549681 275.659929 
L 201.71217 268.317821 
L 202.03715 282.234075 
L 202.362129 269.230787 
L 202.524619 275.659929 
L 202.687109 269.077023 
L 202.849599 275.659929 
L 203.174578 275.659929 
L 203.337068 274.722441 
L 203.499558 269.096017 
L 203.662048 276.597791 
L 203.987027 274.737713 
L 204.149517 274.722441 
L 204.312007 269.230787 
L 204.474496 275.659929 
L 204.636986 275.659929 
L 204.799476 274.737713 
L 204.961966 283.161704 
L 205.124455 281.29689 
L 205.286945 275.659929 
L 205.449435 276.597791 
L 205.611925 269.230787 
L 205.774414 275.659929 
L 206.099394 275.659929 
L 206.261884 274.737713 
L 206.424373 283.097029 
L 206.586863 282.154402 
L 206.749353 275.659929 
L 206.911843 275.659929 
L 207.074333 270.163932 
L 207.236822 276.597791 
L 207.399312 275.761685 
L 207.561802 282.223842 
L 207.724292 275.659929 
L 207.886781 275.776506 
L 208.049271 275.674898 
L 208.211761 283.161704 
L 208.374251 275.659929 
L 208.53674 282.223842 
L 208.69923 276.597791 
L 208.86172 283.161704 
L 209.02421 275.659929 
L 209.186699 275.659929 
L 209.349189 276.597791 
L 209.511679 282.223842 
L 209.674169 282.154402 
L 209.836658 276.583846 
L 209.999148 275.659929 
L 210.324128 275.761685 
L 210.486618 276.583846 
L 210.649107 276.597791 
L 210.811597 283.097029 
L 210.974087 283.161704 
L 211.136577 270.163932 
L 211.299066 283.161704 
L 211.461556 275.659929 
L 211.624046 283.161704 
L 211.786536 276.597791 
L 211.949025 276.583846 
L 212.111515 282.154402 
L 212.274005 283.087734 
L 212.436495 282.223842 
L 212.598984 276.583846 
L 212.761474 282.223842 
L 212.923964 275.659929 
L 213.086454 288.751664 
L 213.411433 276.583846 
L 213.573923 282.164738 
L 213.736413 283.152503 
L 213.898903 276.597791 
L 214.061392 276.597791 
L 214.223882 275.659929 
L 214.386372 275.659929 
L 214.548862 282.223842 
L 214.711351 276.597791 
L 214.873841 277.522385 
L 215.036331 275.761685 
L 215.36131 275.659929 
L 215.68629 277.522385 
L 215.84878 283.097029 
L 216.011269 281.222794 
L 216.173759 270.14543 
L 216.336249 284.091042 
L 216.498739 283.152503 
L 216.661229 275.659929 
L 216.823718 288.751664 
L 216.986208 282.223842 
L 217.148698 282.223842 
L 217.311188 283.161704 
L 217.636167 283.152503 
L 217.798657 282.223842 
L 217.961147 283.161704 
L 218.123636 270.163932 
L 218.286126 282.223842 
L 218.448616 276.597791 
L 218.611106 283.097029 
L 218.773595 284.091042 
L 218.936085 276.597791 
L 219.098575 283.161704 
L 219.261065 283.152503 
L 219.423554 282.223842 
L 219.586044 276.597791 
L 219.748534 263.609835 
L 219.911024 283.161704 
L 220.073514 276.583846 
L 220.236003 276.597791 
L 220.398493 283.161704 
L 220.560983 284.091042 
L 220.723473 283.161704 
L 220.885962 275.659929 
L 221.048452 283.161704 
L 221.698411 283.161704 
L 221.860901 289.694291 
L 222.023391 290.633101 
L 222.18588 283.161704 
L 222.34837 284.091042 
L 222.51086 276.583846 
L 222.67335 283.087734 
L 222.835839 271.079245 
L 222.998329 275.659929 
L 223.160819 276.583846 
L 223.323309 283.161704 
L 223.485799 276.597791 
L 223.648288 289.662646 
L 223.810778 284.091042 
L 223.973268 283.161704 
L 224.135758 283.097029 
L 224.298247 282.223842 
L 224.460737 283.161704 
L 224.623227 276.597791 
L 224.785717 289.694291 
L 224.948206 288.751664 
L 225.273186 275.659929 
L 225.435676 276.597791 
L 225.598165 275.659929 
L 225.760655 282.223842 
L 225.923145 270.015189 
L 226.085635 283.087734 
L 226.248124 275.659929 
L 226.410614 276.583846 
L 226.573104 276.583846 
L 226.735594 289.68979 
L 226.898084 270.163932 
L 227.060573 276.597791 
L 227.385553 276.583846 
L 227.548043 289.725616 
L 227.710532 283.161704 
L 227.873022 282.154402 
L 228.035512 276.597791 
L 228.198002 277.522385 
L 228.360491 275.659929 
L 228.522981 283.087734 
L 228.685471 282.223842 
L 228.847961 277.522385 
L 229.01045 282.154402 
L 229.17294 275.659929 
L 229.33543 282.154402 
L 229.49792 275.659929 
L 229.66041 282.154402 
L 229.822899 269.096017 
L 229.985389 276.583846 
L 230.147879 274.722441 
L 230.310369 269.230787 
L 230.472858 274.722441 
L 230.635348 262.699889 
L 230.960328 274.722441 
L 231.122817 267.241724 
L 231.285307 267.241724 
L 231.447797 261.767116 
L 231.610287 276.583846 
L 231.772776 268.158528 
L 231.935266 274.722441 
L 232.097756 275.64568 
L 232.260246 275.542743 
L 232.422735 269.096017 
L 232.585225 274.722441 
L 232.747715 275.659929 
L 232.910205 281.222794 
L 233.072695 269.096017 
L 233.235184 275.659929 
L 233.560164 275.659929 
L 233.722654 274.737713 
L 233.885143 276.597791 
L 234.047633 275.659929 
L 234.210123 275.659929 
L 234.372613 274.737713 
L 234.535102 274.722441 
L 234.697592 275.659929 
L 234.860082 275.659929 
L 235.022572 283.087734 
L 235.185061 276.583846 
L 235.347551 282.144798 
L 235.510041 282.154402 
L 235.672531 275.659929 
L 235.83502 276.583846 
L 235.99751 276.583846 
L 236.16 275.659929 
L 236.32249 276.583846 
L 236.48498 282.223842 
L 236.647469 275.659929 
L 236.809959 276.597791 
L 236.972449 282.223842 
L 237.134939 282.223842 
L 237.297428 275.659929 
L 237.459918 276.69483 
L 237.622408 276.583846 
L 237.784898 290.636543 
L 237.947387 275.659929 
L 238.109877 276.597791 
L 238.272367 275.659929 
L 238.434857 277.50873 
L 238.597346 283.152503 
L 238.922326 283.087734 
L 239.247305 275.659929 
L 239.409795 276.583846 
L 239.572285 275.659929 
L 239.734775 283.087734 
L 239.897265 283.087734 
L 240.059754 284.091042 
L 240.222244 283.097029 
L 240.384734 277.522385 
L 240.547224 276.597791 
L 240.709713 284.091042 
L 240.872203 276.499766 
L 241.034693 276.583846 
L 241.197183 282.223842 
L 241.359672 277.522385 
L 241.522162 283.152503 
L 241.684652 283.097029 
L 241.847142 275.659929 
L 242.009631 289.68979 
L 242.172121 270.015189 
L 242.334611 282.154402 
L 242.497101 283.087734 
L 242.65959 275.659929 
L 242.82208 282.154402 
L 242.98457 275.659929 
L 243.14706 282.154402 
L 243.30955 276.597791 
L 243.472039 284.031046 
L 243.634529 281.222794 
L 243.797019 275.659929 
L 244.121998 289.694291 
L 244.284488 283.161704 
L 244.446978 283.161704 
L 244.609468 276.583846 
L 244.771957 283.152503 
L 244.934447 276.583846 
L 245.096937 284.091042 
L 245.259427 282.154402 
L 245.584406 284.031046 
L 245.746896 289.662646 
L 245.909386 276.597791 
L 246.071876 276.583846 
L 246.234365 289.694291 
L 246.396855 282.154402 
L 246.559345 283.161704 
L 246.721835 275.659929 
L 246.884324 276.597791 
L 247.046814 284.031046 
L 247.371794 282.154402 
L 247.534283 276.597791 
L 247.696773 289.694291 
L 247.859263 283.097029 
L 248.184242 283.161704 
L 248.346732 284.031046 
L 248.509222 284.031046 
L 248.671712 276.583846 
L 248.996691 290.633101 
L 249.159181 283.097029 
L 249.321671 289.68979 
L 249.484161 283.161704 
L 249.64665 282.223842 
L 249.80914 275.659929 
L 249.97163 283.161704 
L 250.13412 275.659929 
L 250.296609 282.223842 
L 250.459099 276.597791 
L 250.621589 283.152503 
L 250.784079 284.091042 
L 250.946568 283.161704 
L 251.109058 284.091042 
L 251.271548 283.087734 
L 251.596527 275.64568 
L 251.921507 289.68979 
L 252.246486 275.659929 
L 252.408976 276.583846 
L 252.571466 276.597791 
L 252.896446 289.694291 
L 253.221425 276.597791 
L 253.546405 288.751664 
L 253.708894 276.597791 
L 253.871384 284.091042 
L 254.033874 276.597791 
L 254.196364 276.597791 
L 254.358853 289.694291 
L 254.683833 275.659929 
L 254.846323 289.68979 
L 255.008812 283.152503 
L 255.171302 283.087734 
L 255.333792 282.154402 
L 255.496282 289.68979 
L 255.658771 283.087734 
L 255.821261 290.606231 
L 255.983751 284.031046 
L 256.146241 282.154402 
L 256.308731 284.091042 
L 256.47122 289.694291 
L 256.63371 283.161704 
L 256.7962 283.161704 
L 256.95869 290.636543 
L 257.121179 274.722441 
L 257.283669 283.152503 
L 257.446159 274.737713 
L 257.608649 283.152503 
L 257.771138 275.659929 
L 258.096118 289.68979 
L 258.258608 283.087734 
L 258.421097 282.154402 
L 258.583587 283.087734 
L 258.746077 277.522385 
L 258.908567 289.68979 
L 259.071057 288.751664 
L 259.233546 290.633101 
L 259.396036 278.447949 
L 259.558526 283.161704 
L 259.721016 284.031046 
L 259.883505 284.091042 
L 260.045995 275.659929 
L 260.208485 284.091042 
L 260.370975 275.659929 
L 260.533464 283.097029 
L 260.695954 283.087734 
L 260.858444 282.154402 
L 261.020934 283.087734 
L 261.183423 289.68979 
L 261.345913 276.583846 
L 261.670893 289.68979 
L 261.833382 290.633101 
L 262.158362 276.597791 
L 262.320852 284.031046 
L 262.483342 275.557139 
L 262.645831 283.087734 
L 262.808321 275.659929 
L 262.970811 276.597791 
L 263.29579 276.583846 
L 263.45828 276.681025 
L 263.62077 283.097029 
L 263.78326 283.161704 
L 263.945749 284.091042 
L 264.270729 282.154402 
L 264.433219 282.223842 
L 264.595708 289.694291 
L 264.758198 288.751664 
L 264.920688 282.154402 
L 265.083178 289.658099 
L 265.245667 282.154402 
L 265.408157 285.021355 
L 265.570647 276.583846 
L 265.733137 284.091042 
L 265.895627 284.031046 
L 266.058116 283.161704 
L 266.220606 275.659929 
L 266.383096 284.091042 
L 266.545586 283.161704 
L 266.708075 283.087734 
L 266.870565 284.091042 
L 267.033055 275.659929 
L 267.195545 283.152503 
L 267.358034 275.659929 
L 267.520524 276.597791 
L 267.683014 284.031046 
L 267.845504 283.152503 
L 268.007993 290.628905 
L 268.332973 276.583846 
L 268.495463 277.522385 
L 268.657952 289.68979 
L 268.820442 283.087734 
L 268.982932 284.031046 
L 269.145422 275.659929 
L 269.470401 290.633101 
L 269.632891 276.583846 
L 269.795381 283.161704 
L 269.957871 276.583846 
L 270.12036 288.715206 
L 270.28285 277.50873 
L 270.44534 288.751664 
L 270.60783 283.087734 
L 270.770319 288.751664 
L 270.932809 283.087734 
L 271.095299 282.154402 
L 271.257789 289.658099 
L 271.420278 283.087734 
L 271.582768 283.087734 
L 271.745258 276.485679 
L 271.907748 289.68979 
L 272.232727 275.659929 
L 272.395217 289.68979 
L 272.557707 284.031046 
L 272.720197 283.152503 
L 272.882686 283.097029 
L 273.045176 276.583846 
L 273.207666 283.097029 
L 273.370156 284.031046 
L 273.532645 282.154402 
L 273.695135 282.154402 
L 273.857625 277.522385 
L 274.020115 284.031046 
L 274.182604 283.087734 
L 274.345094 289.658099 
L 274.507584 284.031046 
L 274.670074 284.091042 
L 274.832563 289.658099 
L 275.157543 276.583846 
L 275.320033 276.583846 
L 275.482523 283.152503 
L 275.645012 282.223842 
L 275.807502 282.164738 
L 276.132482 270.033878 
L 276.619951 283.161704 
L 276.782441 270.015189 
L 277.10742 289.68979 
L 277.4324 276.597791 
L 277.594889 283.087734 
L 277.757379 276.583846 
L 277.919869 283.152503 
L 278.082359 283.087734 
L 278.244848 284.022051 
L 278.407338 282.154402 
L 278.732318 284.031046 
L 278.894808 284.031046 
L 279.057297 275.659929 
L 279.219787 277.522385 
L 279.544767 288.751664 
L 279.707256 275.761685 
L 279.869746 276.583846 
L 280.032236 275.659929 
L 280.194726 283.097029 
L 280.357215 277.50873 
L 280.519705 283.087734 
L 280.682195 284.031046 
L 280.844685 283.097029 
L 281.007174 276.485679 
L 281.169664 282.144798 
L 281.332154 282.154402 
L 281.494644 282.003577 
L 281.657133 282.144798 
L 281.819623 276.583846 
L 281.982113 276.583846 
L 282.144603 275.557139 
L 282.307093 276.583846 
L 282.469582 282.154402 
L 282.632072 276.583846 
L 282.794562 276.583846 
L 282.957052 281.21215 
L 283.119541 276.583846 
L 283.282031 275.64568 
L 283.607011 275.659929 
L 283.7695 283.087734 
L 283.93199 276.485679 
L 284.09448 282.154402 
L 284.25697 270.126908 
L 284.419459 284.022051 
L 284.581949 283.087734 
L 284.744439 283.087734 
L 284.906929 269.096017 
L 285.069419 283.087734 
L 285.231908 276.583846 
L 285.394398 289.658099 
L 285.556888 276.583846 
L 285.719378 275.659929 
L 285.881867 282.223842 
L 286.206847 270.953728 
L 286.369337 289.68979 
L 286.531826 283.087734 
L 286.694316 283.087734 
L 286.856806 275.659929 
L 287.019296 283.087734 
L 287.181785 282.154402 
L 287.344275 284.966048 
L 287.506765 283.087734 
L 287.669255 289.658099 
L 287.831744 276.485679 
L 287.994234 282.154402 
L 288.156724 276.583846 
L 288.319214 282.144798 
L 288.481704 283.087734 
L 288.644193 277.50873 
L 288.806683 282.154402 
L 288.969173 283.087734 
L 289.131663 275.659929 
L 289.294152 283.087734 
L 289.456642 284.031046 
L 289.619132 288.751664 
L 289.781622 282.223842 
L 289.944111 283.087734 
L 290.431581 283.087734 
L 290.59407 284.022051 
L 290.75656 283.087734 
L 290.91905 289.68979 
L 291.244029 276.485679 
L 291.569009 288.715206 
L 291.731499 276.583846 
L 291.893989 276.583846 
L 292.056478 282.154402 
L 292.381458 282.154402 
L 292.543948 284.091042 
L 292.868927 281.21215 
L 293.031417 282.154402 
L 293.193907 282.154402 
L 293.356396 289.662646 
L 293.518886 283.087734 
L 293.681376 283.087734 
L 293.843866 289.658099 
L 294.006355 283.087734 
L 294.818804 283.087734 
L 294.981294 289.658099 
L 295.143784 283.087734 
L 295.468763 295.488 
L 295.793743 283.097029 
L 296.118722 283.152503 
L 296.281212 276.583846 
L 296.443702 289.68979 
L 296.606192 283.087734 
L 296.768681 284.022051 
L 296.931171 284.022051 
L 297.093661 276.583846 
L 297.41864 284.031046 
L 297.58113 284.022051 
L 297.74362 283.087734 
L 297.90611 289.658099 
L 298.0686 283.087734 
L 298.231089 283.087734 
L 298.393579 282.154402 
L 298.556069 283.087734 
L 298.718559 276.583846 
L 298.881048 283.087734 
L 299.043538 282.154402 
L 299.206028 276.583846 
L 299.531007 289.658099 
L 299.693497 283.087734 
L 299.855987 283.087734 
L 300.018477 289.658099 
L 300.180966 283.022304 
L 300.343456 283.087734 
L 300.505946 289.658099 
L 300.668436 283.087734 
L 300.993415 283.087734 
L 301.155905 289.658099 
L 301.480885 276.583846 
L 301.643374 276.583846 
L 301.805864 289.68979 
L 301.968354 282.144798 
L 302.130844 283.087734 
L 302.293333 276.386508 
L 302.455823 289.68979 
L 302.618313 282.154402 
L 302.780803 282.154402 
L 302.943292 276.583846 
L 303.105782 282.223842 
L 303.268272 283.097029 
L 303.918231 283.022304 
L 304.080721 282.144798 
L 304.24321 290.628905 
L 304.4057 289.658099 
L 304.56819 283.087734 
L 304.73068 289.68979 
L 304.89317 276.583846 
L 305.055659 288.751664 
L 305.218149 277.50873 
L 305.380639 275.659929 
L 305.543129 284.031046 
L 305.705618 284.031046 
L 305.868108 276.583846 
L 306.030598 284.031046 
L 306.193088 283.087734 
L 306.355577 281.21215 
L 306.518067 270.015189 
L 306.680557 289.68979 
L 306.843047 290.606231 
L 307.005536 295.488 
L 307.168026 283.087734 
L 307.330516 289.658099 
L 307.493006 282.144798 
L 307.817985 284.031046 
L 307.980475 283.087734 
L 308.142965 289.68979 
L 308.305455 276.583846 
L 308.467944 283.087734 
L 308.955414 283.087734 
L 309.117903 275.659929 
L 309.280393 283.087734 
L 309.442883 283.087734 
L 309.605373 284.031046 
L 309.767862 289.68979 
L 309.930352 290.601993 
L 310.092842 283.087734 
L 310.255332 289.68979 
L 310.417821 284.022051 
L 310.580311 283.087734 
L 310.742801 283.087734 
L 310.905291 289.658099 
L 311.067781 283.087734 
L 311.23027 284.031046 
L 311.39276 289.658099 
L 311.55525 283.087734 
L 311.71774 283.087734 
L 311.880229 284.031046 
L 312.042719 277.42899 
L 312.205209 288.751664 
L 312.367699 289.68979 
L 312.530188 284.031046 
L 312.692678 289.658099 
L 312.855168 276.583846 
L 313.017658 282.144798 
L 313.180147 283.087734 
L 313.505127 283.087734 
L 313.667617 277.415198 
L 313.830106 290.601993 
L 313.992596 283.087734 
L 314.155086 282.074548 
L 314.317576 283.087734 
L 314.480066 283.087734 
L 314.642555 277.50873 
L 314.805045 283.097029 
L 314.967535 282.154402 
L 315.130025 283.087734 
L 315.292514 289.68979 
L 315.455004 283.087734 
L 315.617494 283.097029 
L 315.779984 284.022051 
L 315.942473 283.087734 
L 316.267453 283.087734 
L 316.429943 282.154402 
L 316.592432 276.583846 
L 316.754922 289.658099 
L 316.917412 284.022051 
L 317.079902 289.68979 
L 317.242391 289.658099 
L 317.567371 276.583846 
L 317.729861 290.606231 
L 317.892351 289.68979 
L 318.05484 289.658099 
L 318.37982 270.14543 
L 318.704799 289.68979 
L 318.867289 283.087734 
L 319.029779 284.022051 
L 319.192269 283.087734 
L 319.517248 283.087734 
L 319.679738 284.031046 
L 319.842228 290.628905 
L 320.004717 284.9581 
L 320.329697 295.488 
L 320.492187 283.087734 
L 320.654676 289.68979 
L 320.817166 289.658099 
L 320.979656 283.087734 
L 321.142146 283.087734 
L 321.304636 282.154402 
L 321.467125 283.152503 
L 321.629615 290.633101 
L 321.792105 283.097029 
L 321.954595 283.087734 
L 322.117084 288.715206 
L 322.279574 289.658099 
L 322.442064 289.658099 
L 322.604554 288.751664 
L 322.767043 283.087734 
L 323.092023 283.087734 
L 323.254513 295.488 
L 323.579492 284.022051 
L 323.741982 289.68979 
L 323.904472 283.087734 
L 324.391941 283.087734 
L 324.554431 276.583846 
L 324.716921 275.64568 
L 324.87941 276.583846 
L 325.0419 283.087734 
L 325.20439 283.087734 
L 325.36688 284.022051 
L 325.529369 283.087734 
L 325.691859 283.087734 
L 325.854349 276.583846 
L 326.016839 290.601993 
L 326.179328 283.087734 
L 326.341818 283.087734 
L 326.504308 276.485679 
L 326.666798 283.087734 
L 326.829287 276.569886 
L 326.991777 277.415198 
L 327.154267 276.583846 
L 327.316757 283.087734 
L 327.479247 284.022051 
L 327.641736 289.658099 
L 327.804226 275.542743 
L 328.129206 290.628905 
L 328.454185 275.659929 
L 328.616675 289.658099 
L 328.779165 284.022051 
L 328.941654 284.022051 
L 329.104144 289.68979 
L 329.266634 270.015189 
L 329.429124 289.68979 
L 329.591613 283.087734 
L 329.754103 284.022051 
L 329.916593 290.574805 
L 330.079083 290.606231 
L 330.241572 289.658099 
L 330.566552 276.583846 
L 330.729042 277.50873 
L 330.891532 282.154402 
L 331.054021 282.144798 
L 331.216511 283.087734 
L 331.379001 283.097029 
L 331.541491 284.022051 
L 331.70398 284.031046 
L 331.86647 282.154402 
L 332.19145 284.022051 
L 332.353939 283.087734 
L 332.516429 284.022051 
L 332.678919 290.601993 
L 332.841409 283.087734 
L 333.003898 288.710343 
L 333.166388 283.022304 
L 333.328878 283.022304 
L 333.491368 290.601993 
L 333.653857 283.087734 
L 333.978837 283.087734 
L 334.141327 282.154402 
L 334.303817 289.658099 
L 334.466306 283.087734 
L 334.628796 283.087734 
L 334.791286 290.606231 
L 334.953776 288.751664 
L 335.116265 275.659929 
L 335.278755 282.144798 
L 335.441245 277.42899 
L 335.603735 283.087734 
L 335.766224 283.07843 
L 335.928714 288.746853 
L 336.091204 276.583846 
L 336.253694 283.087734 
L 336.416183 282.154402 
L 336.578673 277.415198 
L 336.741163 290.601993 
L 336.903653 275.542743 
L 337.066143 288.710343 
L 337.228632 289.658099 
L 337.391122 277.42899 
L 337.553612 283.087734 
L 337.878591 283.087734 
L 338.041081 284.022051 
L 338.203571 289.658099 
L 338.366061 282.144798 
L 338.52855 283.022304 
L 338.69104 282.144798 
L 338.85353 283.087734 
L 339.01602 277.415198 
L 339.503489 290.601993 
L 339.665979 283.022304 
L 339.828468 282.144798 
L 339.990958 284.022051 
L 340.153448 282.144798 
L 340.315938 276.471577 
L 340.478428 289.68979 
L 340.640917 284.022051 
L 340.803407 283.087734 
L 340.965897 289.694291 
L 341.128387 275.64568 
L 341.290876 276.485679 
L 341.453366 284.031046 
L 341.615856 284.022051 
L 341.778346 276.485679 
L 341.940835 283.087734 
L 342.103325 270.015189 
L 342.428305 284.022051 
L 342.590794 283.087734 
L 342.753284 283.087734 
L 342.915774 290.601993 
L 343.078264 289.653546 
L 343.240753 283.022304 
L 343.403243 283.087734 
L 343.565733 275.542743 
L 343.728223 282.144798 
L 343.890713 276.485679 
L 344.053202 282.154402 
L 344.215692 277.50873 
L 344.378182 283.087734 
L 344.703161 283.087734 
L 344.865651 284.031046 
L 345.028141 282.144798 
L 345.190631 284.022051 
L 345.35312 289.658099 
L 345.51561 276.471577 
L 345.6781 283.087734 
L 345.84059 282.144798 
L 346.003079 288.710343 
L 346.165569 283.087734 
L 346.328059 289.658099 
L 346.490549 284.022051 
L 346.653038 289.658099 
L 346.815528 282.154402 
L 346.978018 283.961351 
L 347.140508 289.658099 
L 347.302998 289.68979 
L 347.465487 290.601993 
L 347.627977 282.154402 
L 347.790467 284.022051 
L 347.952957 283.07843 
L 348.115446 284.966048 
L 348.440426 283.087734 
L 348.602916 289.658099 
L 348.765405 290.606231 
L 349.090385 288.710343 
L 349.252875 277.415198 
L 349.415364 284.022051 
L 349.577854 283.022304 
L 349.740344 277.415198 
L 350.227813 290.606231 
L 350.390303 283.087734 
L 350.552793 283.087734 
L 350.715283 288.715206 
L 350.877772 289.658099 
L 351.040262 284.9581 
L 351.202752 276.485679 
L 351.365242 290.606231 
L 351.527731 282.154402 
L 351.690221 284.022051 
L 351.852711 284.022051 
L 352.015201 283.07843 
L 352.17769 290.601993 
L 352.34018 270.015189 
L 352.50267 289.658099 
L 352.66516 282.144798 
L 352.827649 284.902146 
L 353.152629 283.087734 
L 353.315119 289.658099 
L 353.477609 283.087734 
L 353.640098 284.022051 
L 353.802588 283.087734 
L 354.290057 283.087734 
L 354.452547 289.658099 
L 354.615037 289.68979 
L 354.777527 283.087734 
L 354.940016 283.07843 
L 355.102506 276.569886 
L 355.264996 289.658099 
L 355.427486 290.601993 
L 355.589975 278.34644 
L 355.752465 275.542743 
L 355.914955 276.485679 
L 356.239934 290.601993 
L 356.402424 290.601993 
L 356.564914 289.68979 
L 356.727404 283.087734 
L 356.889894 289.658099 
L 357.052383 282.154402 
L 357.214873 289.68979 
L 357.539853 289.68979 
L 357.702342 275.659929 
L 357.864832 277.50873 
L 358.027322 284.022051 
L 358.189812 275.659929 
L 358.352301 283.022304 
L 358.514791 283.087734 
L 358.677281 289.658099 
L 358.839771 289.658099 
L 359.00226 283.012904 
L 359.16475 283.953005 
L 359.32724 276.485679 
L 359.48973 290.628905 
L 359.652219 277.50873 
L 359.814709 289.658099 
L 359.977199 284.022051 
L 360.139689 289.658099 
L 360.302179 283.087734 
L 360.464668 290.628905 
L 360.627158 276.583846 
L 360.789648 289.658099 
L 360.952138 289.68979 
L 361.114627 276.485679 
L 361.277117 283.087734 
L 361.439607 283.087734 
L 361.602097 284.022051 
L 361.764586 276.485679 
L 361.927076 290.601993 
L 362.089566 289.653546 
L 362.414545 289.653546 
L 362.739525 277.415198 
L 362.902015 284.966048 
L 363.064505 276.583846 
L 363.389484 290.574805 
L 363.551974 290.601993 
L 363.714464 283.087734 
L 363.876953 290.601993 
L 364.039443 289.658099 
L 364.201933 283.087734 
L 364.364423 283.087734 
L 364.526912 289.653546 
L 364.689402 289.658099 
L 364.851892 283.087734 
L 365.014382 290.601993 
L 365.176871 289.658099 
L 365.339361 284.022051 
L 365.501851 290.601993 
L 365.664341 284.022051 
L 365.82683 289.658099 
L 365.98932 277.415198 
L 366.15181 295.487706 
L 366.3143 283.07843 
L 366.47679 284.022051 
L 366.639279 289.658099 
L 366.801769 283.087734 
L 366.964259 283.087734 
L 367.126749 288.715206 
L 367.289238 289.658099 
L 367.451728 282.144798 
L 367.614218 288.710343 
L 367.776708 283.022304 
L 367.939197 283.07843 
L 368.101687 289.653546 
L 368.264177 289.658099 
L 368.426667 284.022051 
L 368.589156 290.601993 
L 368.751646 276.471577 
L 368.914136 277.415198 
L 369.076626 289.653546 
L 369.239115 283.087734 
L 369.401605 283.087734 
L 369.564095 288.710343 
L 369.726585 284.022051 
L 369.889075 283.961351 
L 370.051564 277.522385 
L 370.214054 289.68979 
L 370.376544 283.087734 
L 370.539034 284.022051 
L 370.701523 282.154402 
L 370.864013 290.601993 
L 371.026503 284.031046 
L 371.188993 282.074548 
L 371.351482 290.601993 
L 371.513972 283.022304 
L 371.676462 290.601993 
L 371.838952 283.087734 
L 372.001441 290.574805 
L 372.163931 283.07843 
L 372.326421 292.497163 
L 372.488911 289.658099 
L 372.6514 277.415198 
L 372.81389 290.601993 
L 372.97638 283.087734 
L 373.13887 283.087734 
L 373.30136 284.022051 
L 373.463849 283.087734 
L 373.626339 289.658099 
L 373.788829 291.572902 
L 373.951319 290.601993 
L 374.113808 270.015189 
L 374.276298 288.746853 
L 374.601278 276.485679 
L 374.763767 283.961351 
L 374.926257 276.485679 
L 375.251237 289.653546 
L 375.413726 290.601993 
L 375.738706 290.601993 
L 375.901196 284.022051 
L 376.226175 282.074548 
L 376.388665 284.022051 
L 376.551155 289.658099 
L 376.713645 283.087734 
L 376.876134 289.658099 
L 377.038624 283.087734 
L 377.201114 289.658099 
L 377.363604 284.022051 
L 377.526093 283.022304 
L 377.688583 283.087734 
L 377.851073 276.485679 
L 378.013563 275.557139 
L 378.176052 289.658099 
L 378.338542 289.653546 
L 378.501032 283.961351 
L 378.663522 290.601993 
L 378.826011 283.961351 
L 378.988501 290.598504 
L 379.150991 290.601993 
L 379.475971 277.42899 
L 379.63846 289.653546 
L 379.80095 284.022051 
L 379.96344 284.022051 
L 380.12593 283.07843 
L 380.288419 289.685283 
L 380.613399 275.64568 
L 380.938378 289.658099 
L 381.425848 289.653546 
L 381.588337 283.961351 
L 381.750827 283.961351 
L 381.913317 289.653546 
L 382.075807 283.087734 
L 382.238296 290.601993 
L 382.400786 283.961351 
L 382.563276 290.574805 
L 382.725766 283.087734 
L 382.888256 283.022304 
L 383.050745 283.961351 
L 383.213235 283.087734 
L 383.375725 277.415198 
L 383.538215 283.961351 
L 383.700704 283.087734 
L 383.863194 291.547645 
L 384.025684 284.022051 
L 384.188174 290.601993 
L 384.350663 289.653546 
L 384.675643 289.658099 
L 384.838133 290.571278 
L 385.000622 289.658099 
L 385.325602 276.583846 
L 385.650581 294.539258 
L 385.813071 283.961351 
L 385.975561 289.658099 
L 386.138051 283.022304 
L 386.300541 283.087734 
L 386.46303 283.022304 
L 386.62552 283.087734 
L 386.78801 282.144798 
L 386.9505 276.485679 
L 387.112989 284.022051 
L 387.275479 283.087734 
L 387.437969 283.022304 
L 387.600459 290.601993 
L 387.925438 288.710343 
L 388.087928 290.601993 
L 388.412907 290.574805 
L 388.575397 283.07843 
L 388.737887 289.653546 
L 388.900377 289.658099 
L 389.062867 283.961351 
L 389.225356 283.07843 
L 389.387846 276.471577 
L 389.550336 289.658099 
L 389.712826 283.087734 
L 389.875315 290.601993 
L 390.037805 284.022051 
L 390.200295 289.658099 
L 390.362785 289.658099 
L 390.525274 283.07843 
L 390.687764 283.087734 
L 390.850254 284.022051 
L 391.012744 275.542743 
L 391.337723 288.710343 
L 391.500213 283.953005 
L 391.662703 289.653546 
L 391.987682 277.320709 
L 392.150172 289.653546 
L 392.312662 290.601993 
L 392.475152 275.542743 
L 392.637641 283.012904 
L 392.800131 275.542743 
L 393.125111 289.658099 
L 393.2876 284.022051 
L 393.45009 290.601993 
L 393.61258 283.087734 
L 393.77507 289.658099 
L 393.937559 282.084253 
L 394.100049 283.087734 
L 394.262539 283.022304 
L 394.425029 290.601993 
L 394.587518 283.022304 
L 394.750008 283.943895 
L 394.912498 291.547645 
L 395.074988 291.547645 
L 395.237477 282.074548 
L 395.562457 284.022051 
L 395.724947 284.022051 
L 395.887437 283.087734 
L 396.049926 290.601993 
L 396.212416 284.082137 
L 396.374906 289.658099 
L 396.537396 282.144798 
L 396.699885 283.087734 
L 396.862375 290.601993 
L 397.024865 283.012904 
L 397.187355 282.074548 
L 397.349844 282.144798 
L 397.512334 290.601993 
L 397.674824 277.415198 
L 397.999803 295.485633 
L 398.162293 295.485633 
L 398.324783 284.013792 
L 398.487273 295.485633 
L 398.487273 295.485633 
" clip-path="url(#p5b33e2cc97)" style="fill: none; stroke: #1f77b4; stroke-width: 1.5; stroke-linecap: square"/>
   </g>
   <g id="patch_3">
    <path d="M 57.6 307.584 
L 57.6 41.472 
" style="fill: none; stroke: #000000; stroke-width: 0.8; stroke-linejoin: miter; stroke-linecap: square"/>
   </g>
   <g id="patch_4">
    <path d="M 414.72 307.584 
L 414.72 41.472 
" style="fill: none; stroke: #000000; stroke-width: 0.8; stroke-linejoin: miter; stroke-linecap: square"/>
   </g>
   <g id="patch_5">
    <path d="M 57.6 307.584 
L 414.72 307.584 
" style="fill: none; stroke: #000000; stroke-width: 0.8; stroke-linejoin: miter; stroke-linecap: square"/>
   </g>
   <g id="patch_6">
    <path d="M 57.6 41.472 
L 414.72 41.472 
" style="fill: none; stroke: #000000; stroke-width: 0.8; stroke-linejoin: miter; stroke-linecap: square"/>
   </g>
  </g>
 </g>
 <defs>
  <clipPath id="p5b33e2cc97">
   <rect x="57.6" y="41.472" width="357.12" height="266.112"/>
  </clipPath>
 </defs>
</svg>
