<?xml version="1.0" encoding="utf-8" standalone="no"?>
<!DOCTYPE svg PUBLIC "-//W3C//DTD SVG 1.1//EN"
  "http://www.w3.org/Graphics/SVG/1.1/DTD/svg11.dtd">
<svg xmlns:xlink="http://www.w3.org/1999/xlink" width="460.8pt" height="345.6pt" viewBox="0 0 460.8 345.6" xmlns="http://www.w3.org/2000/svg" version="1.1">
 <metadata>
  <rdf:RDF xmlns:dc="http://purl.org/dc/elements/1.1/" xmlns:cc="http://creativecommons.org/ns#" xmlns:rdf="http://www.w3.org/1999/02/22-rdf-syntax-ns#">
   <cc:Work>
    <dc:type rdf:resource="http://purl.org/dc/dcmitype/StillImage"/>
    <dc:date>2022-05-20T18:49:11.341964</dc:date>
    <dc:format>image/svg+xml</dc:format>
    <dc:creator>
     <cc:Agent>
      <dc:title>Matplotlib v3.5.1, https://matplotlib.org/</dc:title>
     </cc:Agent>
    </dc:creator>
   </cc:Work>
  </rdf:RDF>
 </metadata>
 <defs>
  <style type="text/css">*{stroke-linejoin: round; stroke-linecap: butt}</style>
 </defs>
 <g id="figure_1">
  <g id="patch_1">
   <path d="M 0 345.6 
L 460.8 345.6 
L 460.8 0 
L 0 0 
z
" style="fill: #ffffff"/>
  </g>
  <g id="axes_1">
   <g id="patch_2">
    <path d="M 57.6 307.584 
L 414.72 307.584 
L 414.72 41.472 
L 57.6 41.472 
z
" style="fill: #ffffff"/>
   </g>
   <g id="matplotlib.axis_1">
    <g id="xtick_1">
     <g id="line2d_1">
      <defs>
       <path id="madb2805cd0" d="M 0 0 
L 0 3.5 
" style="stroke: #000000; stroke-width: 0.8"/>
      </defs>
      <g>
       <use xlink:href="#madb2805cd0" x="67.207124" y="307.584" style="stroke: #000000; stroke-width: 0.8"/>
      </g>
     </g>
     <g id="text_1">
      <!-- $\mathdefault{0}$ -->
      <g transform="translate(64.716457 321.502498)scale(0.1 -0.1)">
       <defs>
        <path id="CMR17-30" d="M 2688 2025 
C 2688 2416 2682 3080 2413 3591 
C 2176 4039 1798 4198 1466 4198 
C 1158 4198 768 4058 525 3597 
C 269 3118 243 2524 243 2025 
C 243 1661 250 1106 448 619 
C 723 -39 1216 -128 1466 -128 
C 1760 -128 2208 -7 2470 600 
C 2662 1042 2688 1559 2688 2025 
z
M 1466 -26 
C 1056 -26 813 325 723 812 
C 653 1188 653 1738 653 2096 
C 653 2588 653 2997 736 3387 
C 858 3929 1216 4096 1466 4096 
C 1728 4096 2067 3923 2189 3400 
C 2272 3036 2278 2607 2278 2096 
C 2278 1680 2278 1169 2202 792 
C 2067 95 1690 -26 1466 -26 
z
" transform="scale(0.015625)"/>
       </defs>
       <use xlink:href="#CMR17-30" transform="scale(0.996264)"/>
      </g>
     </g>
    </g>
    <g id="xtick_2">
     <g id="line2d_2">
      <g>
       <use xlink:href="#madb2805cd0" x="133.463154" y="307.584" style="stroke: #000000; stroke-width: 0.8"/>
      </g>
     </g>
     <g id="text_2">
      <!-- $\mathdefault{100000}$ -->
      <g transform="translate(118.519148 321.502498)scale(0.1 -0.1)">
       <defs>
        <path id="CMR17-31" d="M 1702 4058 
C 1702 4192 1696 4192 1606 4192 
C 1357 3916 979 3827 621 3827 
C 602 3827 570 3827 563 3808 
C 557 3795 557 3782 557 3648 
C 755 3648 1088 3686 1344 3839 
L 1344 461 
C 1344 236 1331 160 781 160 
L 589 160 
L 589 0 
C 896 0 1216 0 1523 0 
C 1830 0 2150 0 2458 0 
L 2458 160 
L 2266 160 
C 1715 160 1702 230 1702 458 
L 1702 4058 
z
" transform="scale(0.015625)"/>
       </defs>
       <use xlink:href="#CMR17-31" transform="scale(0.996264)"/>
       <use xlink:href="#CMR17-30" transform="translate(45.690477 0)scale(0.996264)"/>
       <use xlink:href="#CMR17-30" transform="translate(91.380954 0)scale(0.996264)"/>
       <use xlink:href="#CMR17-30" transform="translate(137.071431 0)scale(0.996264)"/>
       <use xlink:href="#CMR17-30" transform="translate(182.761908 0)scale(0.996264)"/>
       <use xlink:href="#CMR17-30" transform="translate(228.452386 0)scale(0.996264)"/>
      </g>
     </g>
    </g>
    <g id="xtick_3">
     <g id="line2d_3">
      <g>
       <use xlink:href="#madb2805cd0" x="199.719184" y="307.584" style="stroke: #000000; stroke-width: 0.8"/>
      </g>
     </g>
     <g id="text_3">
      <!-- $\mathdefault{200000}$ -->
      <g transform="translate(184.775178 321.502498)scale(0.1 -0.1)">
       <defs>
        <path id="CMR17-32" d="M 2669 989 
L 2554 989 
C 2490 536 2438 459 2413 420 
C 2381 369 1920 369 1830 369 
L 602 369 
C 832 619 1280 1072 1824 1597 
C 2214 1967 2669 2402 2669 3035 
C 2669 3790 2067 4224 1395 4224 
C 691 4224 262 3604 262 3030 
C 262 2780 448 2748 525 2748 
C 589 2748 781 2787 781 3010 
C 781 3207 614 3264 525 3264 
C 486 3264 448 3258 422 3245 
C 544 3790 915 4058 1306 4058 
C 1862 4058 2227 3617 2227 3035 
C 2227 2479 1901 2000 1536 1584 
L 262 146 
L 262 0 
L 2515 0 
L 2669 989 
z
" transform="scale(0.015625)"/>
       </defs>
       <use xlink:href="#CMR17-32" transform="scale(0.996264)"/>
       <use xlink:href="#CMR17-30" transform="translate(45.690477 0)scale(0.996264)"/>
       <use xlink:href="#CMR17-30" transform="translate(91.380954 0)scale(0.996264)"/>
       <use xlink:href="#CMR17-30" transform="translate(137.071431 0)scale(0.996264)"/>
       <use xlink:href="#CMR17-30" transform="translate(182.761908 0)scale(0.996264)"/>
       <use xlink:href="#CMR17-30" transform="translate(228.452386 0)scale(0.996264)"/>
      </g>
     </g>
    </g>
    <g id="xtick_4">
     <g id="line2d_4">
      <g>
       <use xlink:href="#madb2805cd0" x="265.975213" y="307.584" style="stroke: #000000; stroke-width: 0.8"/>
      </g>
     </g>
     <g id="text_4">
      <!-- $\mathdefault{300000}$ -->
      <g transform="translate(251.031208 321.502498)scale(0.1 -0.1)">
       <defs>
        <path id="CMR17-33" d="M 1414 2157 
C 1984 2157 2234 1662 2234 1090 
C 2234 320 1824 25 1453 25 
C 1114 25 563 194 390 693 
C 422 680 454 680 486 680 
C 640 680 755 782 755 948 
C 755 1133 614 1216 486 1216 
C 378 1216 211 1165 211 926 
C 211 335 787 -128 1466 -128 
C 2176 -128 2720 430 2720 1085 
C 2720 1707 2208 2157 1600 2227 
C 2086 2328 2554 2756 2554 3329 
C 2554 3820 2048 4179 1472 4179 
C 890 4179 378 3829 378 3329 
C 378 3110 544 3072 627 3072 
C 762 3072 877 3155 877 3321 
C 877 3486 762 3569 627 3569 
C 602 3569 570 3569 544 3557 
C 730 3959 1235 4032 1459 4032 
C 1683 4032 2106 3925 2106 3320 
C 2106 3143 2080 2828 1862 2550 
C 1670 2304 1453 2304 1242 2284 
C 1210 2284 1062 2269 1037 2269 
C 992 2263 966 2257 966 2208 
C 966 2163 973 2157 1101 2157 
L 1414 2157 
z
" transform="scale(0.015625)"/>
       </defs>
       <use xlink:href="#CMR17-33" transform="scale(0.996264)"/>
       <use xlink:href="#CMR17-30" transform="translate(45.690477 0)scale(0.996264)"/>
       <use xlink:href="#CMR17-30" transform="translate(91.380954 0)scale(0.996264)"/>
       <use xlink:href="#CMR17-30" transform="translate(137.071431 0)scale(0.996264)"/>
       <use xlink:href="#CMR17-30" transform="translate(182.761908 0)scale(0.996264)"/>
       <use xlink:href="#CMR17-30" transform="translate(228.452386 0)scale(0.996264)"/>
      </g>
     </g>
    </g>
    <g id="xtick_5">
     <g id="line2d_5">
      <g>
       <use xlink:href="#madb2805cd0" x="332.231243" y="307.584" style="stroke: #000000; stroke-width: 0.8"/>
      </g>
     </g>
     <g id="text_5">
      <!-- $\mathdefault{400000}$ -->
      <g transform="translate(317.287237 321.502498)scale(0.1 -0.1)">
       <defs>
        <path id="CMR17-34" d="M 2150 4122 
C 2150 4256 2144 4256 2029 4256 
L 128 1254 
L 128 1088 
L 1779 1088 
L 1779 457 
C 1779 224 1766 160 1318 160 
L 1197 160 
L 1197 0 
C 1402 0 1747 0 1965 0 
C 2182 0 2528 0 2733 0 
L 2733 160 
L 2611 160 
C 2163 160 2150 224 2150 457 
L 2150 1088 
L 2803 1088 
L 2803 1254 
L 2150 1254 
L 2150 4122 
z
M 1798 3703 
L 1798 1254 
L 256 1254 
L 1798 3703 
z
" transform="scale(0.015625)"/>
       </defs>
       <use xlink:href="#CMR17-34" transform="scale(0.996264)"/>
       <use xlink:href="#CMR17-30" transform="translate(45.690477 0)scale(0.996264)"/>
       <use xlink:href="#CMR17-30" transform="translate(91.380954 0)scale(0.996264)"/>
       <use xlink:href="#CMR17-30" transform="translate(137.071431 0)scale(0.996264)"/>
       <use xlink:href="#CMR17-30" transform="translate(182.761908 0)scale(0.996264)"/>
       <use xlink:href="#CMR17-30" transform="translate(228.452386 0)scale(0.996264)"/>
      </g>
     </g>
    </g>
    <g id="xtick_6">
     <g id="line2d_6">
      <g>
       <use xlink:href="#madb2805cd0" x="398.487273" y="307.584" style="stroke: #000000; stroke-width: 0.8"/>
      </g>
     </g>
     <g id="text_6">
      <!-- $\mathdefault{500000}$ -->
      <g transform="translate(383.543267 321.502498)scale(0.1 -0.1)">
       <defs>
        <path id="CMR17-35" d="M 730 3692 
C 794 3666 1056 3584 1325 3584 
C 1920 3584 2246 3911 2432 4100 
C 2432 4157 2432 4192 2394 4192 
C 2387 4192 2374 4192 2323 4163 
C 2099 4058 1837 3973 1517 3973 
C 1325 3973 1037 3999 723 4139 
C 653 4171 640 4171 634 4171 
C 602 4171 595 4164 595 4037 
L 595 2203 
C 595 2089 595 2057 659 2057 
C 691 2057 704 2070 736 2114 
C 941 2401 1222 2522 1542 2522 
C 1766 2522 2246 2382 2246 1289 
C 2246 1085 2246 715 2054 421 
C 1894 159 1645 25 1370 25 
C 947 25 518 320 403 814 
C 429 807 480 795 506 795 
C 589 795 749 840 749 1038 
C 749 1210 627 1280 506 1280 
C 358 1280 262 1190 262 1011 
C 262 454 704 -128 1382 -128 
C 2042 -128 2669 440 2669 1264 
C 2669 2030 2170 2624 1549 2624 
C 1222 2624 947 2503 730 2274 
L 730 3692 
z
" transform="scale(0.015625)"/>
       </defs>
       <use xlink:href="#CMR17-35" transform="scale(0.996264)"/>
       <use xlink:href="#CMR17-30" transform="translate(45.690477 0)scale(0.996264)"/>
       <use xlink:href="#CMR17-30" transform="translate(91.380954 0)scale(0.996264)"/>
       <use xlink:href="#CMR17-30" transform="translate(137.071431 0)scale(0.996264)"/>
       <use xlink:href="#CMR17-30" transform="translate(182.761908 0)scale(0.996264)"/>
       <use xlink:href="#CMR17-30" transform="translate(228.452386 0)scale(0.996264)"/>
      </g>
     </g>
    </g>
    <g id="text_7">
     <!-- $f$ (Hz) -->
     <g transform="translate(221.7003 334.911657)scale(0.1 -0.1)">
      <defs>
       <path id="CMMI12-66" d="M 2854 2566 
C 2982 2566 3034 2566 3034 2688 
C 3034 2752 2982 2752 2867 2752 
L 2349 2752 
C 2470 3429 2560 3897 2611 4107 
C 2650 4265 2784 4416 2950 4416 
C 3085 4416 3219 4358 3283 4298 
C 3034 4272 2957 4082 2957 3969 
C 2957 3837 3053 3759 3174 3759 
C 3302 3759 3494 3870 3494 4119 
C 3494 4393 3226 4544 2944 4544 
C 2669 4544 2400 4334 2272 4078 
C 2157 3848 2093 3611 1946 2752 
L 1517 2752 
C 1395 2752 1331 2752 1331 2637 
C 1331 2566 1370 2566 1498 2566 
L 1907 2566 
C 1792 1976 1530 542 1382 -137 
C 1274 -689 1178 -1152 858 -1152 
C 838 -1152 653 -1152 538 -1031 
C 864 -1005 864 -726 864 -720 
C 864 -593 768 -517 646 -517 
C 518 -517 326 -625 326 -867 
C 326 -1140 608 -1280 858 -1280 
C 1510 -1280 1779 -118 1850 199 
C 1965 688 2278 2376 2310 2566 
L 2854 2566 
z
" transform="scale(0.015625)"/>
       <path id="CMR17-28" d="M 1958 -1561 
C 1958 -1555 1958 -1542 1939 -1523 
C 1645 -1224 858 -407 858 1581 
C 858 3569 1632 4379 1946 4697 
C 1946 4704 1958 4717 1958 4736 
C 1958 4755 1939 4768 1914 4768 
C 1843 4768 1299 4296 986 3594 
C 666 2887 576 2199 576 1588 
C 576 1128 621 351 1005 -471 
C 1312 -1135 1837 -1600 1914 -1600 
C 1946 -1600 1958 -1587 1958 -1561 
z
" transform="scale(0.015625)"/>
       <path id="CMR17-48" d="M 3590 3905 
C 3590 4192 3661 4192 4102 4192 
L 4102 4352 
C 3917 4352 3578 4352 3379 4352 
C 3181 4352 2842 4352 2656 4352 
L 2656 4192 
C 3098 4192 3168 4192 3168 3904 
L 3168 2341 
L 1261 2341 
L 1261 3904 
C 1261 4192 1331 4192 1773 4192 
L 1773 4352 
C 1587 4352 1248 4352 1050 4352 
C 851 4352 512 4352 326 4352 
L 326 4192 
C 768 4192 838 4192 838 3905 
L 838 447 
C 838 160 768 160 326 160 
L 326 0 
C 512 0 851 0 1050 0 
C 1248 0 1587 0 1773 0 
L 1773 160 
C 1331 160 1261 160 1261 446 
L 1261 2176 
L 3168 2176 
L 3168 446 
C 3168 160 3098 160 2656 160 
L 2656 0 
C 2842 0 3181 0 3379 0 
C 3578 0 3917 0 4102 0 
L 4102 160 
C 3661 160 3590 160 3590 447 
L 3590 3905 
z
" transform="scale(0.015625)"/>
       <path id="CMR17-7a" d="M 2310 2605 
C 2362 2670 2362 2682 2362 2695 
C 2362 2752 2336 2752 2221 2752 
L 275 2752 
L 211 1760 
L 326 1760 
C 371 2381 442 2650 1178 2650 
L 1958 2650 
L 128 96 
C 128 0 134 0 269 0 
L 2291 0 
L 2381 1152 
L 2266 1152 
C 2214 442 2131 115 1350 115 
L 531 115 
L 2310 2605 
z
" transform="scale(0.015625)"/>
       <path id="CMR17-29" d="M 1683 1581 
C 1683 2040 1638 2817 1254 3639 
C 947 4303 422 4768 346 4768 
C 326 4768 301 4761 301 4729 
C 301 4717 307 4710 314 4697 
C 621 4378 1402 3568 1402 1584 
C 1402 -407 627 -1217 314 -1537 
C 307 -1549 301 -1556 301 -1568 
C 301 -1600 326 -1600 346 -1600 
C 416 -1600 960 -1128 1274 -426 
C 1594 281 1683 969 1683 1581 
z
" transform="scale(0.015625)"/>
      </defs>
      <use xlink:href="#CMMI12-66" transform="scale(0.996264)"/>
      <use xlink:href="#CMR17-28" transform="translate(88.796271 0)scale(0.996264)"/>
      <use xlink:href="#CMR17-48" transform="translate(124.077039 0)scale(0.996264)"/>
      <use xlink:href="#CMR17-7a" transform="translate(193.149469 0)scale(0.996264)"/>
      <use xlink:href="#CMR17-29" transform="translate(233.635129 0)scale(0.996264)"/>
     </g>
    </g>
   </g>
   <g id="matplotlib.axis_2">
    <g id="ytick_1">
     <g id="line2d_7">
      <defs>
       <path id="m27e02a480f" d="M 0 0 
L -3.5 0 
" style="stroke: #000000; stroke-width: 0.8"/>
      </defs>
      <g>
       <use xlink:href="#m27e02a480f" x="57.6" y="295.819452" style="stroke: #000000; stroke-width: 0.8"/>
      </g>
     </g>
     <g id="text_8">
      <!-- $\mathdefault{0}$ -->
      <g transform="translate(45.618665 299.278702)scale(0.1 -0.1)">
       <use xlink:href="#CMR17-30" transform="scale(0.996264)"/>
      </g>
     </g>
    </g>
    <g id="ytick_2">
     <g id="line2d_8">
      <g>
       <use xlink:href="#m27e02a480f" x="57.6" y="242.454399" style="stroke: #000000; stroke-width: 0.8"/>
      </g>
     </g>
     <g id="text_9">
      <!-- $\mathdefault{10}$ -->
      <g transform="translate(40.637329 245.913648)scale(0.1 -0.1)">
       <use xlink:href="#CMR17-31" transform="scale(0.996264)"/>
       <use xlink:href="#CMR17-30" transform="translate(45.690477 0)scale(0.996264)"/>
      </g>
     </g>
    </g>
    <g id="ytick_3">
     <g id="line2d_9">
      <g>
       <use xlink:href="#m27e02a480f" x="57.6" y="189.089346" style="stroke: #000000; stroke-width: 0.8"/>
      </g>
     </g>
     <g id="text_10">
      <!-- $\mathdefault{20}$ -->
      <g transform="translate(40.637329 192.548595)scale(0.1 -0.1)">
       <use xlink:href="#CMR17-32" transform="scale(0.996264)"/>
       <use xlink:href="#CMR17-30" transform="translate(45.690477 0)scale(0.996264)"/>
      </g>
     </g>
    </g>
    <g id="ytick_4">
     <g id="line2d_10">
      <g>
       <use xlink:href="#m27e02a480f" x="57.6" y="135.724293" style="stroke: #000000; stroke-width: 0.8"/>
      </g>
     </g>
     <g id="text_11">
      <!-- $\mathdefault{30}$ -->
      <g transform="translate(40.637329 139.183542)scale(0.1 -0.1)">
       <use xlink:href="#CMR17-33" transform="scale(0.996264)"/>
       <use xlink:href="#CMR17-30" transform="translate(45.690477 0)scale(0.996264)"/>
      </g>
     </g>
    </g>
    <g id="ytick_5">
     <g id="line2d_11">
      <g>
       <use xlink:href="#m27e02a480f" x="57.6" y="82.359239" style="stroke: #000000; stroke-width: 0.8"/>
      </g>
     </g>
     <g id="text_12">
      <!-- $\mathdefault{40}$ -->
      <g transform="translate(40.637329 85.818488)scale(0.1 -0.1)">
       <use xlink:href="#CMR17-34" transform="scale(0.996264)"/>
       <use xlink:href="#CMR17-30" transform="translate(45.690477 0)scale(0.996264)"/>
      </g>
     </g>
    </g>
    <g id="text_13">
     <!-- $Z$ ($\Omega$) -->
     <g transform="translate(34.146669 187.417181)rotate(-90)scale(0.1 -0.1)">
      <defs>
       <path id="CMMI12-5a" d="M 4480 4154 
C 4518 4199 4550 4237 4550 4301 
C 4550 4346 4544 4352 4397 4352 
L 1754 4352 
C 1606 4352 1600 4346 1562 4231 
L 1210 3084 
C 1190 3020 1190 3007 1190 2995 
C 1190 2969 1210 2931 1254 2931 
C 1306 2931 1318 2956 1344 3039 
C 1581 3727 1894 4167 2906 4167 
L 3955 4167 
L 448 216 
C 390 147 365 121 365 51 
C 365 0 397 0 518 0 
L 3251 0 
C 3398 0 3405 6 3443 121 
L 3891 1529 
C 3898 1548 3910 1593 3910 1618 
C 3910 1650 3885 1682 3846 1682 
C 3795 1682 3789 1676 3738 1516 
C 3469 695 3187 198 2074 198 
L 966 198 
L 4480 4154 
z
" transform="scale(0.015625)"/>
       <path id="CMR17-a" d="M 4038 935 
L 3923 935 
C 3866 641 3846 563 3814 461 
C 3782 365 3763 314 3392 314 
L 2874 314 
C 2944 686 3098 961 3366 1391 
C 3699 1935 3974 2377 3974 2910 
C 3974 3775 3155 4480 2138 4480 
C 1094 4480 294 3768 294 2910 
C 294 2377 576 1922 890 1416 
C 1171 961 1325 686 1395 314 
L 877 314 
C 512 314 493 365 461 454 
C 422 557 410 641 346 935 
L 230 935 
L 416 0 
L 1382 0 
C 1517 0 1523 6 1523 102 
C 1523 558 1286 1154 1178 1429 
C 973 1929 781 2416 781 2916 
C 781 3871 1466 4377 2131 4377 
C 2829 4377 3488 3851 3488 2916 
C 3488 2422 3315 1981 3078 1397 
C 2976 1135 2746 551 2746 102 
C 2746 0 2752 0 2886 0 
L 3853 0 
L 4038 935 
z
" transform="scale(0.015625)"/>
      </defs>
      <use xlink:href="#CMMI12-5a" transform="scale(0.996264)"/>
      <use xlink:href="#CMR17-28" transform="translate(103.999559 0)scale(0.996264)"/>
      <use xlink:href="#CMR17-a" transform="translate(139.280326 0)scale(0.996264)"/>
      <use xlink:href="#CMR17-29" transform="translate(205.790207 0)scale(0.996264)"/>
     </g>
    </g>
   </g>
   <g id="line2d_12">
    <path d="M 73.832727 285.295589 
L 73.995217 285.295589 
L 74.157707 284.528418 
L 74.320197 275.306667 
L 74.645176 284.520524 
L 74.807666 286.070964 
L 74.970156 279.949585 
L 75.132645 284.528418 
L 75.295135 284.528418 
L 75.457625 285.295589 
L 75.620115 284.528418 
L 75.782604 279.949585 
L 75.945094 285.295589 
L 76.107584 279.190153 
L 76.270074 280.721037 
L 76.432563 285.348827 
L 76.757543 285.303229 
L 76.920033 284.528418 
L 77.082523 279.949585 
L 77.245012 290.696235 
L 77.407502 285.295589 
L 77.569992 286.070964 
L 77.732482 290.696235 
L 77.894971 279.190153 
L 78.057461 285.295589 
L 78.219951 279.949585 
L 78.382441 285.295589 
L 78.54493 279.105663 
L 78.70742 285.295589 
L 79.194889 285.295589 
L 79.357379 286.070964 
L 79.519869 279.949585 
L 79.682359 284.585495 
L 79.844848 285.295589 
L 80.007338 279.105663 
L 80.169828 285.295589 
L 80.332318 284.528418 
L 80.494808 279.190153 
L 80.657297 279.868895 
L 80.819787 279.949585 
L 80.982277 279.093829 
L 81.144767 279.093829 
L 81.307256 279.868895 
L 81.469746 285.295589 
L 81.632236 284.536913 
L 81.794726 285.295589 
L 81.957215 284.528418 
L 82.119705 279.868895 
L 82.282195 285.295589 
L 82.444685 284.528418 
L 82.607174 279.938111 
L 82.769664 279.949585 
L 82.932154 279.190153 
L 83.094644 284.528418 
L 83.257133 279.105663 
L 83.419623 295.371653 
L 83.582113 285.295589 
L 83.907093 285.295589 
L 84.069582 290.696235 
L 84.232072 290.722284 
L 84.394562 285.295589 
L 84.557052 284.520524 
L 84.719541 285.295589 
L 85.207011 285.295589 
L 85.3695 284.528418 
L 85.53199 280.709813 
L 85.69448 285.295589 
L 85.85697 285.295589 
L 86.019459 279.190153 
L 86.181949 285.295589 
L 86.344439 285.295589 
L 86.506929 279.17844 
L 86.669419 290.722284 
L 86.831908 284.528418 
L 86.994398 285.295589 
L 87.481867 285.234081 
L 87.644357 284.528418 
L 87.806847 280.632932 
L 87.969337 285.295589 
L 88.456806 285.295589 
L 88.619296 286.120279 
L 88.781785 289.921205 
L 89.106765 279.949585 
L 89.269255 285.348827 
L 89.594234 285.295589 
L 89.756724 279.949585 
L 89.919214 290.696235 
L 90.081704 285.295589 
L 90.244193 285.295589 
L 90.406683 284.520524 
L 90.569173 280.721037 
L 90.731663 291.472089 
L 90.894152 285.303229 
L 91.056642 284.528418 
L 91.219132 285.287941 
L 91.381622 295.371636 
L 91.544111 286.063571 
L 91.706601 285.295589 
L 91.869091 285.295589 
L 92.031581 291.475572 
L 92.19407 279.949585 
L 92.35656 285.295589 
L 92.68154 285.295589 
L 92.844029 279.949585 
L 93.006519 285.295589 
L 93.169009 286.063571 
L 93.331499 286.063571 
L 93.493989 285.295589 
L 93.981458 285.295589 
L 94.143948 280.632932 
L 94.306437 279.868895 
L 94.468927 290.722284 
L 94.631417 290.696235 
L 94.793907 274.550343 
L 94.956396 285.295589 
L 95.118886 285.295589 
L 95.281376 284.528418 
L 95.443866 279.949585 
L 95.606355 285.295589 
L 95.768845 286.070964 
L 95.931335 284.585495 
L 96.093825 285.295589 
L 96.418804 295.488 
L 96.743784 285.295589 
L 96.906274 286.070964 
L 97.068763 286.063571 
L 97.231253 284.462781 
L 97.393743 290.696235 
L 97.556233 286.063571 
L 97.718722 285.295589 
L 97.881212 285.295589 
L 98.043702 279.949585 
L 98.206192 285.295589 
L 98.368681 284.528418 
L 98.531171 279.868895 
L 98.693661 284.528418 
L 98.856151 284.528418 
L 99.01864 285.295589 
L 99.18113 286.839508 
L 99.34362 285.295589 
L 99.50611 290.725984 
L 99.6686 279.190153 
L 99.831089 285.295589 
L 99.993579 285.295589 
L 100.156069 284.528418 
L 100.318559 284.528418 
L 100.481048 285.295589 
L 100.643538 285.295589 
L 100.806028 289.917208 
L 100.968518 285.295589 
L 101.131007 285.295589 
L 101.293497 290.696235 
L 101.455987 279.868895 
L 101.618477 279.949585 
L 101.780966 285.295589 
L 101.943456 284.528418 
L 102.105946 285.295589 
L 102.268436 285.295589 
L 102.430925 290.722284 
L 102.593415 285.295589 
L 102.755905 286.063571 
L 102.918395 285.295589 
L 103.080885 285.295589 
L 103.243374 291.472089 
L 103.405864 286.063571 
L 103.730844 284.528418 
L 103.893333 290.696235 
L 104.055823 290.696235 
L 104.218313 279.949585 
L 104.380803 290.696235 
L 104.543292 291.472089 
L 104.705782 285.295589 
L 104.868272 285.295589 
L 105.030762 290.696235 
L 105.193251 290.696235 
L 105.355741 279.949585 
L 105.518231 285.295589 
L 105.680721 285.295589 
L 105.84321 286.063571 
L 106.0057 289.921205 
L 106.16819 285.295589 
L 106.33068 284.528418 
L 106.818149 179.613896 
L 107.468108 125.897654 
L 107.630598 125.897654 
L 107.955577 104.703499 
L 108.118067 107.29504 
L 108.280557 106.63503 
L 108.605536 97.178299 
L 108.768026 97.930432 
L 108.930516 92.457441 
L 109.093006 92.989602 
L 109.255495 91.451396 
L 109.417985 91.451396 
L 109.580475 90.917883 
L 109.742965 86.170006 
L 109.905455 86.700698 
L 110.067944 90.434867 
L 110.230434 85.127478 
L 110.555414 85.127478 
L 110.717903 84.074477 
L 110.880393 79.40717 
L 111.042883 83.540242 
L 111.205373 82.474915 
L 111.367862 82.474915 
L 111.530352 81.805114 
L 111.692842 77.64998 
L 111.855332 69.264183 
L 112.017821 77.51316 
L 112.180311 72.289276 
L 112.342801 72.819462 
L 112.505291 67.455123 
L 112.83027 75.436098 
L 112.99276 71.692773 
L 113.31774 70.020996 
L 113.480229 73.093517 
L 113.805209 60.39496 
L 113.967699 68.3899 
L 114.130188 67.706209 
L 114.292678 63.959194 
L 114.455168 66.530896 
L 114.617658 62.769938 
L 114.780147 66.530896 
L 114.942637 65.843683 
L 115.105127 65.843683 
L 115.267617 65.34347 
L 115.592596 55.533019 
L 115.755086 59.815916 
L 115.917576 60.354506 
L 116.080066 63.600114 
L 116.242555 58.587566 
L 116.405045 62.385934 
L 116.567535 53.568 
L 116.730025 62.232993 
L 116.892514 58.044147 
L 117.055004 62.931273 
L 117.217494 62.232993 
L 117.379984 62.254232 
L 117.542473 70.494601 
L 117.704963 66.618946 
L 117.867453 65.559047 
L 118.029943 67.1703 
L 118.192432 62.956647 
L 118.354922 71.756733 
L 118.517412 71.756733 
L 118.679902 70.715088 
L 118.842391 72.314625 
L 119.004881 81.914167 
L 119.167371 81.205032 
L 119.329861 81.205032 
L 119.65484 82.481556 
L 120.304799 95.521879 
L 120.467289 96.821397 
L 120.629779 91.802961 
L 120.792269 96.821397 
L 120.954758 96.821397 
L 121.117248 106.685722 
L 121.279738 102.55659 
L 121.442228 107.575026 
L 121.767207 107.575026 
L 121.929697 112.448295 
L 122.092187 112.448295 
L 122.417166 114.622332 
L 123.067125 128.833898 
L 123.229615 129.445326 
L 123.392105 134.365822 
L 123.554595 133.747945 
L 123.717084 130.169869 
L 123.879574 130.05734 
L 124.042064 135.242826 
L 124.204554 130.782376 
L 124.367043 146.02444 
L 124.692023 146.02444 
L 124.854513 141.660506 
L 125.341982 152.48452 
L 125.504472 151.162283 
L 125.829451 162.053107 
L 125.991941 157.657225 
L 126.154431 156.924432 
L 126.316921 162.7859 
L 126.47941 163.427539 
L 126.6419 162.694243 
L 126.80439 163.427539 
L 126.96688 168.681389 
L 127.129369 167.944843 
L 127.291859 173.186467 
L 127.454349 168.647077 
L 127.616839 173.838384 
L 127.779328 173.186467 
L 127.941818 178.99538 
L 128.104308 169.939551 
L 128.266798 179.732219 
L 128.429287 179.732219 
L 128.591777 180.389368 
L 128.754267 180.389368 
L 129.079247 190.940435 
L 129.241736 185.549927 
L 129.404226 190.199799 
L 129.566716 185.754803 
L 129.729206 190.867605 
L 129.891695 190.940435 
L 130.054185 195.45481 
L 130.216675 186.948853 
L 130.379165 190.940435 
L 130.541654 191.681366 
L 130.704144 195.639327 
L 130.866634 196.866997 
L 131.191613 206.867532 
L 131.354103 202.728666 
L 131.516593 202.793265 
L 131.679083 202.273846 
L 132.004062 203.469817 
L 132.166552 207.550027 
L 132.329042 208.233204 
L 132.491532 207.550027 
L 132.654021 208.917607 
L 132.816511 213.043365 
L 132.979001 208.917607 
L 133.141491 208.917607 
L 133.30398 214.483759 
L 133.46647 214.483759 
L 133.62896 219.032279 
L 133.79145 213.734507 
L 134.116429 219.727626 
L 134.278919 214.881424 
L 134.441409 220.423672 
L 134.603898 219.727626 
L 134.766388 219.780707 
L 134.928878 214.881424 
L 135.091368 224.971493 
L 135.253857 225.720446 
L 135.416347 220.844944 
L 135.578837 226.420701 
L 135.741327 220.476579 
L 135.903817 230.644094 
L 136.066306 231.351283 
L 136.228796 224.621684 
L 136.391286 232.059753 
L 136.553776 226.420701 
L 136.716265 231.351283 
L 136.878755 231.397045 
L 137.041245 226.077806 
L 137.366224 235.913852 
L 137.528714 231.351283 
L 137.691204 230.644094 
L 138.016183 232.059753 
L 138.178673 232.059753 
L 138.341163 236.33083 
L 138.503653 236.33083 
L 138.666143 231.351283 
L 138.828632 230.5981 
L 138.991122 237.046356 
L 139.153612 226.077806 
L 139.316102 226.077806 
L 139.478591 236.288896 
L 139.803571 226.028835 
L 139.966061 224.571141 
L 140.12855 219.297663 
L 140.29104 219.297663 
L 140.45353 217.846323 
L 140.61602 202.954086 
L 140.778509 207.741687 
L 141.103489 191.608755 
L 141.265979 190.940435 
L 141.428468 180.468765 
L 141.590958 184.889215 
L 141.915938 174.575224 
L 142.078428 173.186467 
L 142.403407 157.049276 
L 142.728387 146.922123 
L 142.890876 127.12124 
L 143.053366 127.12124 
L 143.215856 123.147169 
L 143.378346 112.819463 
L 143.540835 116.205802 
L 143.703325 107.903395 
L 143.865815 106.623309 
L 144.028305 101.710473 
L 144.190794 106.498844 
L 144.353284 105.622784 
L 144.515774 105.622784 
L 144.678264 104.917118 
L 145.003243 104.61157 
L 145.165733 103.005466 
L 145.328223 103.589598 
L 145.490713 99.516068 
L 145.653202 104.174743 
L 145.815692 97.884776 
L 145.978182 107.575026 
L 146.140672 96.954715 
L 146.303161 101.643577 
L 146.465651 101.512472 
L 146.628141 97.404907 
L 146.790631 101.512472 
L 146.95312 102.10254 
L 147.11561 106.558021 
L 147.2781 106.38311 
L 147.44059 107.872615 
L 147.603079 122.09728 
L 147.928059 123.530578 
L 148.090549 128.536368 
L 148.253038 129.332016 
L 148.578018 143.840838 
L 148.902998 136.333852 
L 149.065487 145.201786 
L 149.227977 145.831349 
L 149.390467 156.157466 
L 149.552957 156.157466 
L 149.877936 167.323977 
L 150.040426 162.695942 
L 150.202916 162.787847 
L 150.365405 173.161337 
L 150.690385 173.161337 
L 150.852875 173.754407 
L 151.177854 185.014167 
L 151.340344 180.48914 
L 151.502834 185.678372 
L 151.665324 195.077217 
L 151.827813 190.354835 
L 152.152793 190.354835 
L 152.477772 201.748568 
L 152.640262 201.065834 
L 152.965242 200.999614 
L 153.127731 202.431989 
L 153.290221 196.990269 
L 153.615201 207.741687 
L 153.77769 206.992435 
L 153.94018 207.741687 
L 154.590139 207.741687 
L 154.752629 213.676866 
L 154.915119 212.985554 
L 155.077609 217.846323 
L 155.240098 219.297663 
L 155.402588 219.297663 
L 155.565078 220.051146 
L 155.727568 224.571141 
L 155.890057 224.217358 
L 156.052547 215.119431 
L 156.215037 224.571141 
L 156.540016 226.028835 
L 156.702506 230.274245 
L 156.864996 226.028835 
L 157.027486 226.028835 
L 157.189975 225.324623 
L 157.352465 230.5981 
L 157.514955 226.077806 
L 157.677445 232.059753 
L 157.839934 232.059753 
L 158.164914 231.306038 
L 158.327404 236.33083 
L 158.489894 236.33083 
L 158.652383 231.74293 
L 158.814873 237.046356 
L 158.977363 237.046356 
L 159.139853 232.059753 
L 159.302342 231.351283 
L 159.464832 237.088054 
L 159.627322 237.046356 
L 159.789812 242.349781 
L 160.114791 232.059753 
L 160.277281 237.804117 
L 160.439771 238.09097 
L 160.60226 242.387716 
L 160.76475 237.378242 
L 160.92724 237.378242 
L 161.08973 237.088054 
L 161.252219 243.107542 
L 161.414709 243.107542 
L 161.577199 248.139908 
L 161.739689 237.046356 
L 161.902179 237.804117 
L 162.064668 243.107542 
L 162.227158 242.806194 
L 162.389648 243.107542 
L 162.552138 242.806194 
L 162.714627 243.107542 
L 162.877117 238.520912 
L 163.039607 243.107542 
L 163.202097 243.107542 
L 163.364586 237.046356 
L 163.527076 248.174218 
L 163.689566 243.107542 
L 163.852056 248.174218 
L 164.014545 243.828104 
L 164.177035 243.828104 
L 164.339525 243.107542 
L 164.502015 248.901997 
L 164.664505 243.107542 
L 164.826994 248.174218 
L 164.989484 243.107542 
L 165.151974 243.568283 
L 165.314464 237.804117 
L 165.639443 248.901997 
L 165.801933 242.349781 
L 166.126912 243.069805 
L 166.289402 242.082763 
L 166.614382 243.107542 
L 166.776871 242.349781 
L 166.939361 243.107542 
L 167.101851 242.387716 
L 167.264341 243.107542 
L 167.42683 248.174218 
L 167.58932 247.412673 
L 167.75181 243.107542 
L 167.9143 243.107542 
L 168.07679 248.901997 
L 168.239279 243.828104 
L 168.401769 243.828104 
L 168.564259 243.107542 
L 168.726749 248.901997 
L 168.889238 249.135296 
L 169.051728 249.135296 
L 169.214218 248.174218 
L 169.376708 243.828104 
L 169.701687 254.997497 
L 170.026667 243.865002 
L 170.189156 254.235711 
L 170.351646 248.935461 
L 170.514136 249.135296 
L 170.676626 243.069805 
L 170.839115 243.828104 
L 171.001605 243.828104 
L 171.164095 254.235711 
L 171.489075 243.107542 
L 171.651564 254.235711 
L 171.814054 248.901997 
L 171.976544 248.901997 
L 172.139034 253.291752 
L 172.301523 254.235711 
L 172.464013 248.901997 
L 172.626503 254.235711 
L 172.788993 248.901997 
L 172.951482 250.619479 
L 173.113972 249.168427 
L 173.276462 249.893294 
L 173.438952 254.997497 
L 173.763931 254.997497 
L 173.926421 249.893294 
L 174.2514 260.331211 
L 174.57638 249.893294 
L 174.90136 261.068486 
L 175.063849 254.997497 
L 175.388829 254.997497 
L 175.551319 255.730961 
L 175.713808 254.997497 
L 175.876298 260.152972 
L 176.038788 260.893825 
L 176.201278 265.513474 
L 176.363767 255.730961 
L 176.526257 260.331211 
L 176.688747 261.0933 
L 176.851237 261.068486 
L 177.013726 255.759586 
L 177.338706 266.279391 
L 177.501196 261.0933 
L 177.663686 266.279391 
L 177.826175 266.279391 
L 177.988665 260.331211 
L 178.151155 261.068486 
L 178.313645 256.493595 
L 178.476134 256.493595 
L 178.638624 254.997497 
L 178.801114 260.893825 
L 178.963604 260.893825 
L 179.126093 254.997497 
L 179.288583 260.152972 
L 179.451073 260.331211 
L 179.613563 261.83112 
L 179.776052 260.331211 
L 179.938542 260.331211 
L 180.101032 266.279391 
L 180.263522 260.152972 
L 180.588501 260.152972 
L 180.750991 255.759586 
L 180.913481 255.759586 
L 181.075971 254.997497 
L 181.23846 260.893825 
L 181.40095 260.152972 
L 181.56344 254.235711 
L 181.72593 255.730961 
L 181.888419 260.152972 
L 182.050909 255.730961 
L 182.213399 254.997497 
L 182.375889 254.792469 
L 182.538378 254.997497 
L 182.700868 255.730961 
L 182.863358 254.997497 
L 183.025848 254.968631 
L 183.188337 244.586102 
L 183.350827 243.828104 
L 183.513317 244.586102 
L 183.675807 248.901997 
L 183.838296 248.174218 
L 184.000786 242.082763 
L 184.163276 242.806194 
L 184.325766 237.762613 
L 184.488256 242.806194 
L 184.650745 242.044408 
L 184.813235 237.47248 
L 184.975725 236.710695 
L 185.300704 236.752853 
L 185.463194 230.985471 
L 185.625684 242.501979 
L 185.788174 231.031167 
L 185.950663 242.044408 
L 186.113153 241.321521 
L 186.275643 242.082763 
L 186.438133 232.455421 
L 186.600622 230.985471 
L 186.763112 231.697423 
L 186.925602 237.47248 
L 187.088092 236.710695 
L 187.250581 230.985471 
L 187.413071 231.697423 
L 187.575561 225.631932 
L 187.738051 224.873934 
L 187.900541 229.853106 
L 188.22552 218.863399 
L 188.38801 218.917696 
L 188.875479 200.999614 
L 189.037969 206.490861 
L 189.200459 196.43496 
L 189.362948 201.217384 
L 189.525438 200.531445 
L 189.687928 200.531445 
L 189.850418 205.290078 
L 190.012907 191.187411 
L 190.175397 195.006496 
L 190.337887 195.685182 
L 190.500377 195.190424 
L 190.662867 195.943907 
L 190.825356 195.261687 
L 190.987846 201.904565 
L 191.150336 200.463902 
L 191.312826 201.217384 
L 191.637805 211.346965 
L 191.800295 207.935483 
L 192.125274 218.105637 
L 192.287764 218.863399 
L 192.450254 218.917696 
L 192.775233 229.900156 
L 192.937723 225.682045 
L 193.100213 226.390232 
L 193.425192 235.991611 
L 193.587682 232.455421 
L 193.912662 242.806194 
L 194.237641 242.806194 
L 194.400131 248.139908 
L 194.562621 242.806194 
L 194.725111 242.806194 
L 194.8876 253.291752 
L 195.21258 243.069805 
L 195.537559 253.996845 
L 195.700049 248.901997 
L 195.862539 248.901997 
L 196.025029 249.631106 
L 196.187518 248.901997 
L 196.350008 249.135296 
L 196.512498 260.127663 
L 196.674988 254.235711 
L 196.837477 254.997497 
L 196.999967 254.235711 
L 197.162457 260.152972 
L 197.324947 254.997497 
L 197.487437 255.730961 
L 197.649926 254.997497 
L 197.812416 260.127663 
L 197.974906 260.893825 
L 198.137396 255.759586 
L 198.462375 255.730961 
L 198.787355 266.258177 
L 199.112334 255.730961 
L 199.274824 267.024644 
L 199.437314 265.513474 
L 199.762293 256.493595 
L 199.924783 266.130277 
L 200.087273 260.918888 
L 200.249762 260.331211 
L 200.412252 265.513474 
L 200.574742 267.024644 
L 200.737232 261.068486 
L 200.899722 267.024644 
L 201.062211 266.108849 
L 201.224701 267.77067 
L 201.387191 267.024644 
L 201.549681 267.024644 
L 201.71217 261.83112 
L 201.87466 260.918888 
L 202.03715 260.893825 
L 202.19964 271.639893 
L 202.362129 266.279391 
L 202.524619 267.024644 
L 202.687109 261.0933 
L 202.849599 271.517838 
L 203.012088 261.0933 
L 203.174578 267.168645 
L 203.337068 266.258177 
L 203.499558 267.024644 
L 203.662048 267.045002 
L 203.824537 267.77067 
L 203.987027 272.388995 
L 204.149517 272.270637 
L 204.312007 267.024644 
L 204.474496 267.77067 
L 204.636986 267.024644 
L 204.799476 272.388995 
L 204.961966 267.024644 
L 205.124455 267.024644 
L 205.286945 267.77067 
L 205.449435 267.024644 
L 205.611925 267.024644 
L 205.774414 272.388995 
L 205.936904 267.024644 
L 206.099394 277.674876 
L 206.424373 267.045002 
L 206.586863 266.879187 
L 206.749353 267.045002 
L 206.911843 273.138876 
L 207.074333 273.155157 
L 207.236822 267.045002 
L 207.399312 277.662087 
L 207.561802 273.040669 
L 207.724292 272.388995 
L 208.049271 272.270637 
L 208.211761 267.024644 
L 208.374251 273.794811 
L 208.53674 267.77067 
L 208.69923 267.790805 
L 208.86172 273.155157 
L 209.02421 267.77067 
L 209.186699 278.432119 
L 209.349189 272.405505 
L 209.511679 278.432119 
L 209.674169 267.790805 
L 209.836658 267.790805 
L 209.999148 271.517838 
L 210.324128 273.155157 
L 210.486618 273.155157 
L 210.649107 277.662087 
L 210.811597 268.537382 
L 210.974087 272.270637 
L 211.136577 268.537382 
L 211.299066 267.77067 
L 211.461556 268.537382 
L 211.624046 267.790805 
L 211.786536 277.662087 
L 211.949025 273.138876 
L 212.436495 273.155157 
L 212.598984 267.790805 
L 212.761474 272.388995 
L 212.923964 273.155157 
L 213.086454 267.790805 
L 213.248943 273.905588 
L 213.411433 267.790805 
L 213.573923 267.024644 
L 213.736413 273.138876 
L 214.061392 273.138876 
L 214.223882 272.270637 
L 214.548862 273.905588 
L 214.711351 267.77067 
L 214.873841 278.419565 
L 215.036331 279.190153 
L 215.198821 273.138876 
L 215.36131 272.388995 
L 215.5238 277.662087 
L 215.68629 267.790805 
L 215.84878 267.024644 
L 216.011269 273.040669 
L 216.173759 273.905588 
L 216.336249 268.537382 
L 216.498739 267.790805 
L 216.661229 273.905588 
L 216.986208 266.279391 
L 217.148698 273.024223 
L 217.311188 267.024644 
L 217.473677 267.024644 
L 217.636167 272.270637 
L 217.798657 273.024223 
L 217.961147 267.649219 
L 218.123636 272.270637 
L 218.286126 267.024644 
L 218.448616 267.790805 
L 218.611106 273.155157 
L 218.773595 272.270637 
L 218.936085 273.905588 
L 219.098575 272.388995 
L 219.261065 273.040669 
L 219.423554 273.155157 
L 219.586044 267.790805 
L 219.748534 268.537382 
L 219.911024 267.77067 
L 220.073514 273.905588 
L 220.236003 272.388995 
L 220.398493 273.024223 
L 220.560983 268.537382 
L 220.723473 273.040669 
L 220.885962 273.794811 
L 221.048452 267.77067 
L 221.210942 278.419565 
L 221.373432 277.64867 
L 221.535921 268.537382 
L 221.698411 277.662087 
L 222.023391 279.190153 
L 222.18588 284.528418 
L 222.34837 273.155157 
L 222.51086 278.419565 
L 222.67335 273.905588 
L 222.835839 273.155157 
L 223.160819 284.585495 
L 223.323309 273.155157 
L 223.485799 277.662087 
L 223.648288 273.794811 
L 223.810778 279.190153 
L 223.973268 279.190153 
L 224.135758 273.024223 
L 224.298247 279.190153 
L 224.460737 278.432119 
L 224.623227 279.190153 
L 224.785717 279.190153 
L 224.948206 267.77067 
L 225.110696 273.138876 
L 225.273186 268.399468 
L 225.435676 278.432119 
L 225.598165 279.190153 
L 225.760655 279.190153 
L 225.923145 273.905588 
L 226.085635 273.155157 
L 226.248124 278.432119 
L 226.410614 278.432119 
L 226.735594 268.537382 
L 226.898084 279.190153 
L 227.060573 268.399468 
L 227.223063 279.190153 
L 227.385553 273.040669 
L 227.548043 278.419565 
L 227.710532 278.419565 
L 227.873022 274.657397 
L 228.035512 278.432119 
L 228.198002 273.155157 
L 228.360491 278.432119 
L 228.522981 273.155157 
L 228.685471 278.432119 
L 228.847961 273.905588 
L 229.01045 278.432119 
L 229.17294 273.155157 
L 229.33543 273.155157 
L 229.49792 278.432119 
L 229.66041 279.961048 
L 229.822899 273.155157 
L 229.985389 273.905588 
L 230.147879 273.905588 
L 230.310369 278.419565 
L 230.472858 279.273793 
L 230.635348 278.419565 
L 230.797838 278.419565 
L 230.960328 284.528418 
L 231.285307 273.794811 
L 231.447797 274.657397 
L 231.610287 273.905588 
L 231.772776 273.905588 
L 231.935266 278.432119 
L 232.097756 279.190153 
L 232.260246 279.273793 
L 232.422735 273.794811 
L 232.585225 278.419565 
L 232.747715 273.138876 
L 232.910205 278.432119 
L 233.072695 278.432119 
L 233.235184 279.190153 
L 233.397674 278.419565 
L 233.560164 273.905588 
L 233.722654 278.419565 
L 233.885143 278.432119 
L 234.047633 279.190153 
L 234.535102 279.190153 
L 234.697592 273.138876 
L 234.860082 273.905588 
L 235.022572 273.905588 
L 235.185061 279.190153 
L 235.347551 273.905588 
L 235.510041 278.432119 
L 235.672531 278.432119 
L 235.83502 279.190153 
L 235.99751 284.593907 
L 236.16 278.432119 
L 236.32249 283.762664 
L 236.48498 279.190153 
L 236.647469 279.190153 
L 236.809959 278.432119 
L 237.134939 279.949585 
L 237.297428 274.565705 
L 237.459918 278.419565 
L 237.622408 279.190153 
L 237.784898 274.565705 
L 237.947387 279.190153 
L 238.109877 273.905588 
L 238.272367 279.190153 
L 238.597346 279.190153 
L 238.759836 273.155157 
L 238.922326 279.190153 
L 239.084816 279.190153 
L 239.247305 278.432119 
L 239.409795 273.905588 
L 239.572285 279.202457 
L 239.734775 273.040669 
L 239.897265 279.202457 
L 240.059754 279.190153 
L 240.222244 278.432119 
L 240.384734 279.949585 
L 240.547224 279.190153 
L 240.709713 279.190153 
L 240.872203 285.35639 
L 241.034693 279.190153 
L 241.359672 279.190153 
L 241.522162 278.432119 
L 241.684652 273.905588 
L 241.847142 279.190153 
L 242.009631 273.155157 
L 242.334611 279.190153 
L 242.65959 279.190153 
L 242.82208 273.138876 
L 242.98457 279.105663 
L 243.14706 273.905588 
L 243.472039 284.536913 
L 243.634529 278.419565 
L 243.797019 279.190153 
L 243.959509 273.905588 
L 244.121998 279.190153 
L 244.284488 273.905588 
L 244.446978 279.949585 
L 244.609468 279.190153 
L 244.771957 279.190153 
L 244.934447 273.905588 
L 245.096937 278.432119 
L 245.259427 278.432119 
L 245.421916 279.190153 
L 245.746896 279.190153 
L 245.909386 278.432119 
L 246.071876 279.190153 
L 246.234365 283.762664 
L 246.396855 273.905588 
L 246.559345 273.905588 
L 246.721835 279.190153 
L 246.884324 273.040669 
L 247.046814 273.794811 
L 247.209304 278.419565 
L 247.371794 279.105663 
L 247.534283 279.190153 
L 247.696773 273.138876 
L 247.859263 279.190153 
L 248.021753 272.405505 
L 248.184242 279.190153 
L 248.346732 277.556348 
L 248.509222 283.753915 
L 248.671712 278.419565 
L 248.834201 278.419565 
L 248.996691 273.024223 
L 249.159181 273.024223 
L 249.321671 267.62888 
L 249.484161 267.024644 
L 249.64665 261.635448 
L 249.80914 267.62888 
L 249.97163 267.62888 
L 250.13412 261.635448 
L 250.296609 261.635448 
L 250.459099 266.857986 
L 250.621589 260.127663 
L 250.784079 266.087398 
L 251.271548 254.763311 
L 251.434038 259.947367 
L 251.596527 249.631106 
L 251.759017 254.763311 
L 251.921507 254.026857 
L 252.083997 249.631106 
L 252.246486 248.632493 
L 252.408976 248.632493 
L 252.571466 253.015547 
L 252.733956 248.632493 
L 252.896446 247.900438 
L 253.058935 247.866331 
L 253.221425 241.774324 
L 253.383915 247.866331 
L 253.546405 242.501979 
L 253.708894 242.501979 
L 253.871384 248.632493 
L 254.033874 248.632493 
L 254.196364 243.268141 
L 254.358853 247.900438 
L 254.521343 243.530948 
L 254.683833 248.632493 
L 254.846323 242.539936 
L 255.008812 254.555917 
L 255.171302 247.900438 
L 255.333792 254.026857 
L 255.658771 255.50053 
L 255.821261 254.763311 
L 255.983751 251.123842 
L 256.146241 254.763311 
L 256.308731 254.763311 
L 256.47122 259.947367 
L 256.63371 261.462643 
L 256.7962 261.462643 
L 256.95869 261.635448 
L 257.121179 261.462643 
L 257.283669 255.730961 
L 257.446159 260.893825 
L 257.608649 271.500298 
L 257.771138 260.893825 
L 257.933628 266.879187 
L 258.096118 266.258177 
L 258.258608 267.77067 
L 258.421097 267.024644 
L 258.583587 267.024644 
L 258.746077 267.77067 
L 258.908567 267.024644 
L 259.071057 273.024223 
L 259.233546 267.77067 
L 259.396036 267.77067 
L 259.558526 276.79565 
L 259.721016 273.024223 
L 260.858444 273.024223 
L 261.020934 278.419565 
L 261.183423 278.419565 
L 261.345913 267.77067 
L 261.508403 267.790805 
L 261.833382 279.190153 
L 261.995872 273.155157 
L 262.158362 279.190153 
L 262.483342 267.024644 
L 262.645831 279.105663 
L 262.808321 273.794811 
L 262.970811 273.024223 
L 263.133301 279.190153 
L 263.29579 278.419565 
L 263.45828 283.753915 
L 263.62077 273.794811 
L 263.78326 273.794811 
L 263.945749 273.155157 
L 264.108239 278.419565 
L 264.270729 279.190153 
L 264.433219 273.155157 
L 264.595708 278.419565 
L 264.758198 273.905588 
L 264.920688 284.528418 
L 265.245667 273.155157 
L 265.408157 278.419565 
L 265.570647 273.794811 
L 265.733137 273.024223 
L 265.895627 279.190153 
L 266.058116 278.419565 
L 266.220606 284.528418 
L 266.383096 279.949585 
L 266.708075 278.419565 
L 266.870565 279.190153 
L 267.033055 279.190153 
L 267.195545 273.794811 
L 267.358034 273.905588 
L 267.520524 274.657397 
L 267.683014 279.190153 
L 267.845504 273.794811 
L 268.007993 280.029463 
L 268.170483 279.961048 
L 268.332973 279.190153 
L 268.495463 279.190153 
L 268.657952 279.961048 
L 268.820442 278.432119 
L 268.982932 279.190153 
L 269.145422 279.105663 
L 269.307912 285.348827 
L 269.470401 285.295589 
L 269.632891 273.794811 
L 269.795381 289.951173 
L 269.957871 279.190153 
L 270.12036 284.585495 
L 270.44534 278.432119 
L 270.60783 279.949585 
L 270.770319 279.190153 
L 270.932809 279.190153 
L 271.095299 278.432119 
L 271.257789 279.190153 
L 271.420278 274.672605 
L 271.582768 279.190153 
L 272.232727 279.190153 
L 272.395217 285.295589 
L 272.557707 279.17844 
L 272.720197 279.190153 
L 272.882686 273.794811 
L 273.207666 285.295589 
L 273.370156 279.190153 
L 273.532645 279.949585 
L 273.695135 279.190153 
L 273.857625 279.190153 
L 274.020115 274.672605 
L 274.182604 279.190153 
L 274.345094 279.202457 
L 274.507584 283.823568 
L 274.670074 279.961048 
L 274.832563 279.190153 
L 274.995053 279.190153 
L 275.157543 279.961048 
L 275.320033 279.190153 
L 275.482523 273.024223 
L 275.807502 284.528418 
L 275.969992 273.905588 
L 276.132482 285.295589 
L 276.294971 283.762664 
L 276.457461 279.949585 
L 276.619951 279.190153 
L 277.10742 279.190153 
L 277.26991 284.585495 
L 277.4324 279.190153 
L 277.594889 268.537382 
L 277.757379 279.190153 
L 277.919869 278.432119 
L 278.082359 273.921624 
L 278.407338 283.823568 
L 278.569828 274.550343 
L 278.894808 283.753915 
L 279.057297 279.105663 
L 279.219787 285.295589 
L 279.382277 284.528418 
L 279.707256 273.794811 
L 279.869746 284.528418 
L 280.194726 274.550343 
L 280.357215 285.295589 
L 280.519705 278.432119 
L 280.682195 278.419565 
L 280.844685 289.181487 
L 281.169664 273.905588 
L 281.494644 284.585495 
L 281.657133 279.190153 
L 281.819623 279.949585 
L 282.144603 278.419565 
L 282.307093 283.762664 
L 282.469582 279.190153 
L 282.632072 284.528418 
L 282.794562 279.17844 
L 282.957052 279.190153 
L 283.119541 284.528418 
L 283.282031 278.432119 
L 283.444521 284.528418 
L 283.607011 279.190153 
L 283.93199 279.190153 
L 284.09448 273.155157 
L 284.25697 284.528418 
L 284.419459 284.528418 
L 284.581949 279.190153 
L 284.744439 284.585495 
L 284.906929 279.190153 
L 285.069419 284.585495 
L 285.231908 279.190153 
L 285.394398 279.190153 
L 285.556888 279.949585 
L 285.719378 285.295589 
L 285.881867 285.295589 
L 286.044357 279.190153 
L 286.369337 279.190153 
L 286.531826 279.949585 
L 286.694316 284.528418 
L 286.856806 279.190153 
L 287.019296 279.190153 
L 287.181785 284.585495 
L 287.344275 274.672605 
L 287.506765 279.190153 
L 287.669255 279.190153 
L 287.831744 280.029463 
L 287.994234 279.949585 
L 288.156724 284.528418 
L 288.319214 279.190153 
L 288.481704 284.585495 
L 288.806683 273.779198 
L 288.969173 279.949585 
L 289.131663 279.190153 
L 289.294152 273.905588 
L 289.456642 273.794811 
L 289.619132 279.949585 
L 289.781622 279.190153 
L 290.106601 279.190153 
L 290.269091 284.577682 
L 290.431581 279.190153 
L 290.59407 284.585495 
L 290.75656 278.432119 
L 290.91905 278.432119 
L 291.08154 279.190153 
L 291.406519 279.190153 
L 291.569009 279.949585 
L 291.731499 284.528418 
L 291.893989 284.528418 
L 292.056478 274.550343 
L 292.218968 286.120279 
L 292.381458 279.190153 
L 292.543948 279.190153 
L 292.706437 283.753915 
L 292.868927 284.528418 
L 293.031417 279.190153 
L 293.193907 284.585495 
L 293.356396 273.905588 
L 293.518886 279.190153 
L 293.681376 278.432119 
L 293.843866 285.303229 
L 294.006355 284.528418 
L 294.168845 284.585495 
L 294.331335 273.155157 
L 294.493825 279.190153 
L 294.656314 279.190153 
L 294.818804 285.295589 
L 294.981294 279.190153 
L 295.143784 279.190153 
L 295.306274 273.794811 
L 295.468763 278.419565 
L 295.631253 290.74807 
L 295.793743 279.190153 
L 296.118722 279.190153 
L 296.281212 284.528418 
L 296.443702 279.190153 
L 296.606192 279.949585 
L 296.768681 284.528418 
L 296.931171 279.961048 
L 297.093661 279.190153 
L 297.41864 279.190153 
L 297.58113 273.905588 
L 297.74362 279.949585 
L 297.90611 278.419565 
L 298.0686 283.753915 
L 298.231089 278.419565 
L 298.393579 284.528418 
L 298.556069 273.138876 
L 298.718559 279.868895 
L 298.881048 279.190153 
L 299.043538 279.105663 
L 299.206028 279.17844 
L 299.368518 283.753915 
L 299.531007 273.794811 
L 299.693497 274.550343 
L 299.855987 273.024223 
L 300.018477 267.77067 
L 300.343456 279.190153 
L 300.505946 277.662087 
L 300.668436 279.949585 
L 300.830925 279.105663 
L 300.993415 273.794811 
L 301.155905 273.779198 
L 301.318395 279.190153 
L 301.480885 273.024223 
L 301.643374 273.794811 
L 301.805864 279.093829 
L 301.968354 279.949585 
L 302.130844 284.528418 
L 302.293333 273.138876 
L 302.455823 279.868895 
L 302.618313 273.794811 
L 302.943292 284.528418 
L 303.268272 273.794811 
L 303.430762 278.419565 
L 303.593251 279.190153 
L 303.755741 279.190153 
L 303.918231 284.528418 
L 304.080721 278.419565 
L 304.24321 279.949585 
L 304.4057 278.33116 
L 304.56819 279.190153 
L 304.73068 285.295589 
L 304.89317 279.949585 
L 305.055659 279.190153 
L 305.218149 284.585495 
L 305.543129 274.550343 
L 305.705618 285.295589 
L 305.868108 278.419565 
L 306.030598 279.949585 
L 306.193088 273.794811 
L 306.355577 279.190153 
L 306.518067 279.190153 
L 306.680557 284.585495 
L 306.843047 279.949585 
L 307.005536 285.295589 
L 307.168026 273.138876 
L 307.330516 279.202457 
L 307.493006 279.190153 
L 307.655495 273.905588 
L 307.817985 284.528418 
L 307.980475 279.949585 
L 308.142965 284.528418 
L 308.467944 274.550343 
L 308.792924 284.528418 
L 309.117903 275.321795 
L 309.280393 279.190153 
L 309.442883 279.961048 
L 309.605373 279.190153 
L 309.767862 279.949585 
L 309.930352 279.190153 
L 310.092842 279.190153 
L 310.255332 279.961048 
L 310.417821 279.190153 
L 310.580311 285.348827 
L 310.742801 279.190153 
L 310.905291 279.190153 
L 311.067781 279.949585 
L 311.23027 279.961048 
L 311.39276 278.419565 
L 311.55525 285.295589 
L 311.71774 284.528418 
L 311.880229 279.190153 
L 312.042719 279.190153 
L 312.205209 285.295589 
L 312.367699 279.190153 
L 312.530188 279.949585 
L 312.692678 279.880474 
L 312.855168 285.348827 
L 313.017658 284.528418 
L 313.180147 285.348827 
L 313.342637 279.190153 
L 313.505127 279.190153 
L 313.667617 279.961048 
L 313.830106 279.190153 
L 313.992596 284.528418 
L 314.155086 279.190153 
L 314.317576 285.295589 
L 314.480066 279.190153 
L 314.642555 285.295589 
L 314.805045 279.949585 
L 314.967535 279.949585 
L 315.130025 284.520524 
L 315.292514 279.949585 
L 315.455004 284.520524 
L 315.617494 285.295589 
L 315.779984 279.961048 
L 316.267453 290.722284 
L 316.429943 279.190153 
L 316.592432 279.949585 
L 316.754922 279.190153 
L 316.917412 285.303229 
L 317.079902 279.961048 
L 317.242391 279.961048 
L 317.404881 285.295589 
L 317.567371 285.295589 
L 317.729861 279.949585 
L 317.892351 285.295589 
L 318.37982 285.295589 
L 318.54231 279.190153 
L 318.704799 279.949585 
L 318.867289 279.190153 
L 319.029779 284.528418 
L 319.192269 279.949585 
L 319.354758 279.961048 
L 319.517248 286.070964 
L 319.679738 279.190153 
L 319.842228 279.190153 
L 320.004717 285.348827 
L 320.167207 285.348827 
L 320.329697 279.190153 
L 320.654676 279.190153 
L 320.817166 289.951173 
L 320.979656 284.585495 
L 321.142146 290.722284 
L 321.304636 284.528418 
L 321.467125 285.295589 
L 321.629615 279.190153 
L 321.792105 285.295589 
L 321.954595 284.528418 
L 322.117084 284.528418 
L 322.279574 279.949585 
L 322.442064 291.497658 
L 322.604554 279.190153 
L 322.767043 289.181487 
L 323.092023 279.190153 
L 323.417002 280.721037 
L 323.579492 280.721037 
L 323.741982 289.951173 
L 323.904472 279.190153 
L 324.066962 279.190153 
L 324.229451 279.949585 
L 324.391941 279.949585 
L 324.554431 284.528418 
L 324.716921 285.295589 
L 324.87941 290.696235 
L 325.0419 284.470757 
L 325.20439 284.528418 
L 325.36688 279.190153 
L 325.529369 279.949585 
L 325.691859 279.949585 
L 325.854349 279.190153 
L 326.016839 284.528418 
L 326.179328 279.190153 
L 326.504308 289.951173 
L 326.666798 280.721037 
L 326.991777 278.419565 
L 327.316757 279.949585 
L 327.479247 279.949585 
L 327.641736 279.190153 
L 327.804226 279.190153 
L 327.966716 284.528418 
L 328.129206 279.190153 
L 328.291695 279.949585 
L 328.454185 289.951173 
L 328.779165 279.949585 
L 328.941654 285.348827 
L 329.104144 285.295589 
L 329.266634 284.585495 
L 329.429124 289.951173 
L 329.591613 279.190153 
L 329.754103 286.120279 
L 329.916593 284.528418 
L 330.079083 289.951173 
L 330.241572 279.190153 
L 330.404062 289.951173 
L 330.729042 279.949585 
L 330.891532 279.949585 
L 331.054021 279.190153 
L 331.379001 289.951173 
L 331.541491 285.295589 
L 331.70398 285.295589 
L 331.86647 279.949585 
L 332.02896 279.949585 
L 332.19145 284.520524 
L 332.353939 279.190153 
L 332.516429 280.721037 
L 332.678919 279.190153 
L 333.003898 279.190153 
L 333.328878 290.725984 
L 333.491368 285.303229 
L 333.653857 284.577682 
L 333.816347 285.295589 
L 334.141327 285.295589 
L 334.303817 279.17844 
L 334.466306 284.528418 
L 334.628796 284.520524 
L 334.791286 290.696235 
L 334.953776 279.868895 
L 335.278755 286.112959 
L 335.441245 285.295589 
L 335.603735 289.951173 
L 335.928714 279.190153 
L 336.091204 280.721037 
L 336.253694 279.961048 
L 336.416183 279.949585 
L 336.578673 279.190153 
L 336.741163 279.949585 
L 336.903653 279.190153 
L 337.066143 289.951173 
L 337.228632 284.528418 
L 337.391122 285.295589 
L 337.716102 274.550343 
L 337.878591 285.295589 
L 338.041081 285.295589 
L 338.203571 279.949585 
L 338.366061 279.949585 
L 338.52855 285.348827 
L 338.85353 285.295589 
L 339.01602 279.190153 
L 339.178509 279.961048 
L 339.340999 286.070964 
L 339.503489 285.348827 
L 339.665979 279.190153 
L 339.828468 285.348827 
L 339.990958 279.190153 
L 340.153448 284.528418 
L 340.315938 285.295589 
L 340.478428 279.190153 
L 340.640917 285.295589 
L 340.803407 279.949585 
L 340.965897 290.696235 
L 341.128387 279.190153 
L 341.290876 285.295589 
L 341.778346 285.295589 
L 341.940835 289.951173 
L 342.103325 285.295589 
L 342.265815 285.295589 
L 342.428305 284.528418 
L 342.590794 278.419565 
L 342.915774 279.949585 
L 343.078264 285.348827 
L 343.240753 286.070964 
L 343.403243 290.722284 
L 343.565733 286.063571 
L 343.728223 290.722284 
L 343.890713 290.722284 
L 344.215692 284.528418 
L 344.378182 289.951173 
L 344.540672 285.295589 
L 344.703161 284.528418 
L 344.865651 284.520524 
L 345.028141 279.190153 
L 345.190631 285.295589 
L 345.35312 279.949585 
L 345.51561 279.190153 
L 345.6781 289.17667 
L 345.84059 279.949585 
L 346.003079 285.295589 
L 346.165569 285.35639 
L 346.328059 289.951173 
L 346.490549 279.949585 
L 346.653038 279.190153 
L 346.815528 289.921205 
L 347.140508 279.949585 
L 347.302998 279.949585 
L 347.465487 289.921205 
L 347.627977 290.696235 
L 347.790467 285.295589 
L 348.115446 285.303229 
L 348.277936 284.528418 
L 348.440426 285.295589 
L 348.602916 285.348827 
L 348.765405 284.528418 
L 348.927895 279.190153 
L 349.090385 285.295589 
L 349.252875 279.949585 
L 349.577854 286.070964 
L 349.740344 284.585495 
L 349.902834 279.949585 
L 350.065324 285.295589 
L 350.390303 285.295589 
L 350.552793 284.528418 
L 350.715283 279.868895 
L 350.877772 285.295589 
L 351.365242 285.295589 
L 351.527731 280.709813 
L 351.690221 285.295589 
L 351.852711 279.190153 
L 352.015201 279.17844 
L 352.17769 278.432119 
L 352.34018 285.303229 
L 352.50267 284.528418 
L 352.827649 278.419565 
L 352.990139 279.190153 
L 353.152629 285.295589 
L 353.315119 279.190153 
L 353.477609 279.105663 
L 353.640098 285.295589 
L 353.802588 284.528418 
L 353.965078 284.528418 
L 354.127568 278.419565 
L 354.290057 283.753915 
L 354.452547 279.105663 
L 354.615037 279.868895 
L 354.777527 283.753915 
L 354.940016 279.093829 
L 355.102506 278.419565 
L 355.264996 273.024223 
L 355.427486 273.779198 
L 355.589975 283.753915 
L 355.914955 273.794811 
L 356.077445 273.024223 
L 356.239934 273.779198 
L 356.402424 273.794811 
L 356.564914 273.024223 
L 356.727404 279.093829 
L 356.889894 273.779198 
L 357.052383 278.33116 
L 357.214873 273.024223 
L 357.377363 272.908404 
L 357.539853 277.556348 
L 357.702342 273.007746 
L 357.864832 272.253328 
L 358.027322 272.253328 
L 358.189812 266.857986 
L 358.352301 278.33116 
L 358.677281 268.518068 
L 358.839771 273.024223 
L 359.16475 273.024223 
L 359.32724 273.779198 
L 359.48973 267.62888 
L 359.652219 278.318455 
L 359.814709 279.093829 
L 359.977199 278.318455 
L 360.139689 278.33116 
L 360.302179 279.105663 
L 360.789648 279.093829 
L 360.952138 278.33116 
L 361.114627 279.093829 
L 361.277117 273.779198 
L 361.439607 273.779198 
L 361.602097 279.190153 
L 361.764586 279.868895 
L 361.927076 273.024223 
L 362.089566 279.949585 
L 362.252056 273.024223 
L 362.414545 279.17844 
L 362.577035 273.040669 
L 362.739525 278.419565 
L 362.902015 274.550343 
L 363.226994 283.753915 
L 363.389484 278.33116 
L 363.714464 279.949585 
L 363.876953 279.17844 
L 364.201933 284.528418 
L 364.364423 279.105663 
L 364.526912 279.868895 
L 364.689402 284.520524 
L 364.851892 284.528418 
L 365.014382 279.949585 
L 365.176871 285.295589 
L 365.339361 279.880474 
L 365.501851 279.190153 
L 365.664341 279.949585 
L 365.82683 279.190153 
L 365.98932 279.949585 
L 366.15181 279.190153 
L 366.3143 279.190153 
L 366.47679 279.949585 
L 366.639279 284.585495 
L 366.801769 285.295589 
L 366.964259 279.868895 
L 367.126749 285.295589 
L 367.289238 284.520524 
L 367.451728 284.528418 
L 367.614218 285.303229 
L 367.776708 279.868895 
L 367.939197 284.520524 
L 368.101687 279.949585 
L 368.264177 284.528418 
L 368.426667 284.528418 
L 368.589156 279.949585 
L 368.751646 284.520524 
L 368.914136 279.949585 
L 369.076626 284.520524 
L 369.239115 284.528418 
L 369.401605 285.295589 
L 369.564095 279.949585 
L 369.726585 285.303229 
L 369.889075 286.070964 
L 370.051564 279.949585 
L 370.214054 284.528418 
L 370.376544 285.295589 
L 370.539034 274.550343 
L 370.701523 274.550343 
L 370.864013 290.696235 
L 371.026503 285.295589 
L 371.188993 285.295589 
L 371.351482 284.520524 
L 371.676462 273.794811 
L 371.838952 279.949585 
L 372.001441 280.721037 
L 372.163931 279.949585 
L 372.326421 279.949585 
L 372.488911 279.190153 
L 372.81389 290.696235 
L 372.97638 284.528418 
L 373.13887 284.528418 
L 373.30136 286.063571 
L 373.463849 285.295589 
L 373.626339 285.295589 
L 373.788829 279.949585 
L 373.951319 279.949585 
L 374.276298 290.722284 
L 374.438788 285.295589 
L 374.601278 284.528418 
L 374.763767 284.528418 
L 374.926257 285.295589 
L 375.088747 289.951173 
L 375.251237 289.951173 
L 375.413726 280.644269 
L 375.576216 285.303229 
L 375.738706 284.528418 
L 375.901196 279.949585 
L 376.063686 285.303229 
L 376.388665 285.295589 
L 376.551155 284.520524 
L 376.713645 279.868895 
L 376.876134 286.070964 
L 377.038624 284.528418 
L 377.201114 279.868895 
L 377.363604 284.528418 
L 377.526093 285.295589 
L 377.688583 285.303229 
L 377.851073 284.528418 
L 378.013563 285.295589 
L 378.176052 279.190153 
L 378.338542 285.295589 
L 378.501032 279.949585 
L 378.826011 290.722284 
L 378.988501 279.190153 
L 379.150991 290.722284 
L 379.313481 279.949585 
L 379.475971 279.949585 
L 379.80095 289.921205 
L 379.96344 285.295589 
L 380.12593 286.063571 
L 380.288419 279.949585 
L 380.450909 289.947218 
L 380.613399 285.295589 
L 380.775889 290.696235 
L 380.938378 285.295589 
L 381.100868 286.070964 
L 381.263358 285.295589 
L 381.425848 290.696235 
L 381.588337 289.951173 
L 381.913317 279.949585 
L 382.075807 284.528418 
L 382.238296 285.295589 
L 382.400786 285.295589 
L 382.563276 286.063571 
L 382.888256 284.528418 
L 383.050745 279.949585 
L 383.213235 285.295589 
L 383.375725 284.528418 
L 383.538215 285.348827 
L 383.863194 285.295589 
L 384.025684 279.949585 
L 384.188174 279.868895 
L 384.350663 290.722284 
L 384.513153 279.949585 
L 384.675643 279.949585 
L 384.838133 284.528418 
L 385.000622 279.949585 
L 385.325602 290.696235 
L 385.488092 284.528418 
L 385.650581 284.528418 
L 385.813071 279.949585 
L 385.975561 285.295589 
L 386.138051 284.528418 
L 386.300541 285.295589 
L 386.46303 285.295589 
L 386.62552 289.181487 
L 386.78801 285.295589 
L 386.9505 290.696235 
L 387.112989 279.17844 
L 387.275479 285.295589 
L 387.437969 284.528418 
L 387.600459 285.295589 
L 387.762948 279.190153 
L 387.925438 284.528418 
L 388.087928 285.295589 
L 388.250418 284.528418 
L 388.412907 290.722284 
L 388.575397 290.722284 
L 388.737887 280.721037 
L 388.900377 290.696235 
L 389.062867 284.528418 
L 389.225356 290.696235 
L 389.387846 279.949585 
L 389.550336 285.295589 
L 389.712826 285.295589 
L 389.875315 284.528418 
L 390.037805 285.295589 
L 390.200295 285.295589 
L 390.362785 284.520524 
L 390.525274 285.348827 
L 390.850254 285.348827 
L 391.175233 279.190153 
L 391.337723 286.070964 
L 391.500213 279.190153 
L 391.662703 284.528418 
L 391.825192 285.295589 
L 391.987682 279.949585 
L 392.150172 279.190153 
L 392.312662 285.295589 
L 392.475152 284.528418 
L 392.637641 286.063571 
L 392.800131 284.528418 
L 392.962621 285.295589 
L 393.125111 290.722284 
L 393.2876 290.696235 
L 393.45009 279.949585 
L 393.61258 284.528418 
L 393.77507 285.295589 
L 393.937559 285.295589 
L 394.100049 290.722284 
L 394.262539 284.528418 
L 394.425029 285.295589 
L 394.587518 279.949585 
L 394.750008 279.949585 
L 394.912498 280.721037 
L 395.074988 279.949585 
L 395.237477 279.949585 
L 395.562457 290.696235 
L 395.724947 279.190153 
L 395.887437 285.303229 
L 396.049926 285.295589 
L 396.212416 274.550343 
L 396.537396 291.472089 
L 396.862375 279.949585 
L 397.024865 285.295589 
L 397.187355 280.721037 
L 397.349844 285.295589 
L 397.512334 285.303229 
L 397.674824 284.528418 
L 397.837314 285.295589 
L 397.999803 286.839508 
L 398.162293 285.295589 
L 398.487273 285.295589 
L 398.487273 285.295589 
" clip-path="url(#p3e6000bb79)" style="fill: none; stroke: #1f77b4; stroke-width: 1.5; stroke-linecap: square"/>
   </g>
   <g id="patch_3">
    <path d="M 57.6 307.584 
L 57.6 41.472 
" style="fill: none; stroke: #000000; stroke-width: 0.8; stroke-linejoin: miter; stroke-linecap: square"/>
   </g>
   <g id="patch_4">
    <path d="M 414.72 307.584 
L 414.72 41.472 
" style="fill: none; stroke: #000000; stroke-width: 0.8; stroke-linejoin: miter; stroke-linecap: square"/>
   </g>
   <g id="patch_5">
    <path d="M 57.6 307.584 
L 414.72 307.584 
" style="fill: none; stroke: #000000; stroke-width: 0.8; stroke-linejoin: miter; stroke-linecap: square"/>
   </g>
   <g id="patch_6">
    <path d="M 57.6 41.472 
L 414.72 41.472 
" style="fill: none; stroke: #000000; stroke-width: 0.8; stroke-linejoin: miter; stroke-linecap: square"/>
   </g>
  </g>
 </g>
 <defs>
  <clipPath id="p3e6000bb79">
   <rect x="57.6" y="41.472" width="357.12" height="266.112"/>
  </clipPath>
 </defs>
</svg>
