<?xml version="1.0" encoding="utf-8" standalone="no"?>
<!DOCTYPE svg PUBLIC "-//W3C//DTD SVG 1.1//EN"
  "http://www.w3.org/Graphics/SVG/1.1/DTD/svg11.dtd">
<svg xmlns:xlink="http://www.w3.org/1999/xlink" width="460.8pt" height="345.6pt" viewBox="0 0 460.8 345.6" xmlns="http://www.w3.org/2000/svg" version="1.1">
 <metadata>
  <rdf:RDF xmlns:dc="http://purl.org/dc/elements/1.1/" xmlns:cc="http://creativecommons.org/ns#" xmlns:rdf="http://www.w3.org/1999/02/22-rdf-syntax-ns#">
   <cc:Work>
    <dc:type rdf:resource="http://purl.org/dc/dcmitype/StillImage"/>
    <dc:date>2022-05-20T09:34:18.253721</dc:date>
    <dc:format>image/svg+xml</dc:format>
    <dc:creator>
     <cc:Agent>
      <dc:title>Matplotlib v3.5.1, https://matplotlib.org/</dc:title>
     </cc:Agent>
    </dc:creator>
   </cc:Work>
  </rdf:RDF>
 </metadata>
 <defs>
  <style type="text/css">*{stroke-linejoin: round; stroke-linecap: butt}</style>
 </defs>
 <g id="figure_1">
  <g id="patch_1">
   <path d="M 0 345.6 
L 460.8 345.6 
L 460.8 0 
L 0 0 
z
" style="fill: #ffffff"/>
  </g>
  <g id="axes_1">
   <g id="patch_2">
    <path d="M 57.6 307.584 
L 414.72 307.584 
L 414.72 41.472 
L 57.6 41.472 
z
" style="fill: #ffffff"/>
   </g>
   <g id="matplotlib.axis_1">
    <g id="xtick_1">
     <g id="line2d_1">
      <defs>
       <path id="mb3542d0f7b" d="M 0 0 
L 0 3.5 
" style="stroke: #000000; stroke-width: 0.8"/>
      </defs>
      <g>
       <use xlink:href="#mb3542d0f7b" x="83.419623" y="307.584" style="stroke: #000000; stroke-width: 0.8"/>
      </g>
     </g>
     <g id="text_1">
      <!-- $\mathdefault{−0.2}$ -->
      <g transform="translate(73.180212 321.502498)scale(0.1 -0.1)">
       <defs>
        <path id="CMSY10-0" d="M 4218 1472 
C 4326 1472 4442 1472 4442 1600 
C 4442 1728 4326 1728 4218 1728 
L 755 1728 
C 646 1728 531 1728 531 1600 
C 531 1472 646 1472 755 1472 
L 4218 1472 
z
" transform="scale(0.015625)"/>
        <path id="CMR17-30" d="M 2688 2025 
C 2688 2416 2682 3080 2413 3591 
C 2176 4039 1798 4198 1466 4198 
C 1158 4198 768 4058 525 3597 
C 269 3118 243 2524 243 2025 
C 243 1661 250 1106 448 619 
C 723 -39 1216 -128 1466 -128 
C 1760 -128 2208 -7 2470 600 
C 2662 1042 2688 1559 2688 2025 
z
M 1466 -26 
C 1056 -26 813 325 723 812 
C 653 1188 653 1738 653 2096 
C 653 2588 653 2997 736 3387 
C 858 3929 1216 4096 1466 4096 
C 1728 4096 2067 3923 2189 3400 
C 2272 3036 2278 2607 2278 2096 
C 2278 1680 2278 1169 2202 792 
C 2067 95 1690 -26 1466 -26 
z
" transform="scale(0.015625)"/>
        <path id="CMMI12-3a" d="M 1178 307 
C 1178 492 1024 619 870 619 
C 685 619 557 466 557 313 
C 557 128 710 0 864 0 
C 1050 0 1178 153 1178 307 
z
" transform="scale(0.015625)"/>
        <path id="CMR17-32" d="M 2669 989 
L 2554 989 
C 2490 536 2438 459 2413 420 
C 2381 369 1920 369 1830 369 
L 602 369 
C 832 619 1280 1072 1824 1597 
C 2214 1967 2669 2402 2669 3035 
C 2669 3790 2067 4224 1395 4224 
C 691 4224 262 3604 262 3030 
C 262 2780 448 2748 525 2748 
C 589 2748 781 2787 781 3010 
C 781 3207 614 3264 525 3264 
C 486 3264 448 3258 422 3245 
C 544 3790 915 4058 1306 4058 
C 1862 4058 2227 3617 2227 3035 
C 2227 2479 1901 2000 1536 1584 
L 262 146 
L 262 0 
L 2515 0 
L 2669 989 
z
" transform="scale(0.015625)"/>
       </defs>
       <use xlink:href="#CMSY10-0" transform="scale(0.996264)"/>
       <use xlink:href="#CMR17-30" transform="translate(77.487468 0)scale(0.996264)"/>
       <use xlink:href="#CMMI12-3a" transform="translate(123.177945 0)scale(0.996264)"/>
       <use xlink:href="#CMR17-32" transform="translate(150.275122 0)scale(0.996264)"/>
      </g>
     </g>
    </g>
    <g id="xtick_2">
     <g id="line2d_2">
      <g>
       <use xlink:href="#mb3542d0f7b" x="148.415528" y="307.584" style="stroke: #000000; stroke-width: 0.8"/>
      </g>
     </g>
     <g id="text_2">
      <!-- $\mathdefault{0.0}$ -->
      <g transform="translate(142.050489 321.502498)scale(0.1 -0.1)">
       <use xlink:href="#CMR17-30" transform="scale(0.996264)"/>
       <use xlink:href="#CMMI12-3a" transform="translate(45.690477 0)scale(0.996264)"/>
       <use xlink:href="#CMR17-30" transform="translate(72.787654 0)scale(0.996264)"/>
      </g>
     </g>
    </g>
    <g id="xtick_3">
     <g id="line2d_3">
      <g>
       <use xlink:href="#mb3542d0f7b" x="213.411433" y="307.584" style="stroke: #000000; stroke-width: 0.8"/>
      </g>
     </g>
     <g id="text_3">
      <!-- $\mathdefault{0.2}$ -->
      <g transform="translate(207.046394 321.502498)scale(0.1 -0.1)">
       <use xlink:href="#CMR17-30" transform="scale(0.996264)"/>
       <use xlink:href="#CMMI12-3a" transform="translate(45.690477 0)scale(0.996264)"/>
       <use xlink:href="#CMR17-32" transform="translate(72.787654 0)scale(0.996264)"/>
      </g>
     </g>
    </g>
    <g id="xtick_4">
     <g id="line2d_4">
      <g>
       <use xlink:href="#mb3542d0f7b" x="278.407338" y="307.584" style="stroke: #000000; stroke-width: 0.8"/>
      </g>
     </g>
     <g id="text_4">
      <!-- $\mathdefault{0.4}$ -->
      <g transform="translate(272.042299 321.502498)scale(0.1 -0.1)">
       <defs>
        <path id="CMR17-34" d="M 2150 4122 
C 2150 4256 2144 4256 2029 4256 
L 128 1254 
L 128 1088 
L 1779 1088 
L 1779 457 
C 1779 224 1766 160 1318 160 
L 1197 160 
L 1197 0 
C 1402 0 1747 0 1965 0 
C 2182 0 2528 0 2733 0 
L 2733 160 
L 2611 160 
C 2163 160 2150 224 2150 457 
L 2150 1088 
L 2803 1088 
L 2803 1254 
L 2150 1254 
L 2150 4122 
z
M 1798 3703 
L 1798 1254 
L 256 1254 
L 1798 3703 
z
" transform="scale(0.015625)"/>
       </defs>
       <use xlink:href="#CMR17-30" transform="scale(0.996264)"/>
       <use xlink:href="#CMMI12-3a" transform="translate(45.690477 0)scale(0.996264)"/>
       <use xlink:href="#CMR17-34" transform="translate(72.787654 0)scale(0.996264)"/>
      </g>
     </g>
    </g>
    <g id="xtick_5">
     <g id="line2d_5">
      <g>
       <use xlink:href="#mb3542d0f7b" x="343.403243" y="307.584" style="stroke: #000000; stroke-width: 0.8"/>
      </g>
     </g>
     <g id="text_5">
      <!-- $\mathdefault{0.6}$ -->
      <g transform="translate(337.038204 321.502498)scale(0.1 -0.1)">
       <defs>
        <path id="CMR17-36" d="M 678 2176 
C 678 3690 1395 4032 1811 4032 
C 1946 4032 2272 4009 2400 3776 
C 2298 3776 2106 3776 2106 3553 
C 2106 3381 2246 3323 2336 3323 
C 2394 3323 2566 3348 2566 3560 
C 2566 3954 2246 4179 1805 4179 
C 1043 4179 243 3390 243 1984 
C 243 253 966 -128 1478 -128 
C 2099 -128 2688 427 2688 1283 
C 2688 2081 2170 2662 1517 2662 
C 1126 2662 838 2407 678 1960 
L 678 2176 
z
M 1478 25 
C 691 25 691 1200 691 1436 
C 691 1896 909 2560 1504 2560 
C 1613 2560 1926 2560 2138 2120 
C 2253 1870 2253 1609 2253 1289 
C 2253 944 2253 690 2118 434 
C 1978 171 1773 25 1478 25 
z
" transform="scale(0.015625)"/>
       </defs>
       <use xlink:href="#CMR17-30" transform="scale(0.996264)"/>
       <use xlink:href="#CMMI12-3a" transform="translate(45.690477 0)scale(0.996264)"/>
       <use xlink:href="#CMR17-36" transform="translate(72.787654 0)scale(0.996264)"/>
      </g>
     </g>
    </g>
    <g id="xtick_6">
     <g id="line2d_6">
      <g>
       <use xlink:href="#mb3542d0f7b" x="408.399148" y="307.584" style="stroke: #000000; stroke-width: 0.8"/>
      </g>
     </g>
     <g id="text_6">
      <!-- $\mathdefault{0.8}$ -->
      <g transform="translate(402.034109 321.502498)scale(0.1 -0.1)">
       <defs>
        <path id="CMR17-38" d="M 1741 2264 
C 2144 2467 2554 2773 2554 3263 
C 2554 3841 1990 4179 1472 4179 
C 890 4179 378 3759 378 3180 
C 378 3021 416 2747 666 2505 
C 730 2442 998 2251 1171 2130 
C 883 1983 211 1634 211 934 
C 211 279 838 -128 1459 -128 
C 2144 -128 2720 362 2720 1010 
C 2720 1590 2330 1857 2074 2029 
L 1741 2264 
z
M 902 2822 
C 851 2854 595 3051 595 3351 
C 595 3739 998 4032 1459 4032 
C 1965 4032 2336 3676 2336 3262 
C 2336 2669 1670 2331 1638 2331 
C 1632 2331 1626 2331 1574 2370 
L 902 2822 
z
M 2080 1519 
C 2176 1449 2483 1240 2483 851 
C 2483 381 2010 25 1472 25 
C 890 25 448 438 448 940 
C 448 1443 838 1862 1280 2060 
L 2080 1519 
z
" transform="scale(0.015625)"/>
       </defs>
       <use xlink:href="#CMR17-30" transform="scale(0.996264)"/>
       <use xlink:href="#CMMI12-3a" transform="translate(45.690477 0)scale(0.996264)"/>
       <use xlink:href="#CMR17-38" transform="translate(72.787654 0)scale(0.996264)"/>
      </g>
     </g>
    </g>
   </g>
   <g id="matplotlib.axis_2">
    <g id="ytick_1">
     <g id="line2d_7">
      <defs>
       <path id="ma556c7342a" d="M 0 0 
L -3.5 0 
" style="stroke: #000000; stroke-width: 0.8"/>
      </defs>
      <g>
       <use xlink:href="#ma556c7342a" x="57.6" y="287.873088" style="stroke: #000000; stroke-width: 0.8"/>
      </g>
     </g>
     <g id="text_7">
      <!-- $\mathdefault{0.0}$ -->
      <g transform="translate(37.869921 291.332337)scale(0.1 -0.1)">
       <use xlink:href="#CMR17-30" transform="scale(0.996264)"/>
       <use xlink:href="#CMMI12-3a" transform="translate(45.690477 0)scale(0.996264)"/>
       <use xlink:href="#CMR17-30" transform="translate(72.787654 0)scale(0.996264)"/>
      </g>
     </g>
    </g>
    <g id="ytick_2">
     <g id="line2d_8">
      <g>
       <use xlink:href="#ma556c7342a" x="57.6" y="241.246375" style="stroke: #000000; stroke-width: 0.8"/>
      </g>
     </g>
     <g id="text_8">
      <!-- $\mathdefault{0.2}$ -->
      <g transform="translate(37.869921 244.705624)scale(0.1 -0.1)">
       <use xlink:href="#CMR17-30" transform="scale(0.996264)"/>
       <use xlink:href="#CMMI12-3a" transform="translate(45.690477 0)scale(0.996264)"/>
       <use xlink:href="#CMR17-32" transform="translate(72.787654 0)scale(0.996264)"/>
      </g>
     </g>
    </g>
    <g id="ytick_3">
     <g id="line2d_9">
      <g>
       <use xlink:href="#ma556c7342a" x="57.6" y="194.619661" style="stroke: #000000; stroke-width: 0.8"/>
      </g>
     </g>
     <g id="text_9">
      <!-- $\mathdefault{0.4}$ -->
      <g transform="translate(37.869921 198.07891)scale(0.1 -0.1)">
       <use xlink:href="#CMR17-30" transform="scale(0.996264)"/>
       <use xlink:href="#CMMI12-3a" transform="translate(45.690477 0)scale(0.996264)"/>
       <use xlink:href="#CMR17-34" transform="translate(72.787654 0)scale(0.996264)"/>
      </g>
     </g>
    </g>
    <g id="ytick_4">
     <g id="line2d_10">
      <g>
       <use xlink:href="#ma556c7342a" x="57.6" y="147.992947" style="stroke: #000000; stroke-width: 0.8"/>
      </g>
     </g>
     <g id="text_10">
      <!-- $\mathdefault{0.6}$ -->
      <g transform="translate(37.869921 151.452196)scale(0.1 -0.1)">
       <use xlink:href="#CMR17-30" transform="scale(0.996264)"/>
       <use xlink:href="#CMMI12-3a" transform="translate(45.690477 0)scale(0.996264)"/>
       <use xlink:href="#CMR17-36" transform="translate(72.787654 0)scale(0.996264)"/>
      </g>
     </g>
    </g>
    <g id="ytick_5">
     <g id="line2d_11">
      <g>
       <use xlink:href="#ma556c7342a" x="57.6" y="101.366233" style="stroke: #000000; stroke-width: 0.8"/>
      </g>
     </g>
     <g id="text_11">
      <!-- $\mathdefault{0.8}$ -->
      <g transform="translate(37.869921 104.825482)scale(0.1 -0.1)">
       <use xlink:href="#CMR17-30" transform="scale(0.996264)"/>
       <use xlink:href="#CMMI12-3a" transform="translate(45.690477 0)scale(0.996264)"/>
       <use xlink:href="#CMR17-38" transform="translate(72.787654 0)scale(0.996264)"/>
      </g>
     </g>
    </g>
    <g id="ytick_6">
     <g id="line2d_12">
      <g>
       <use xlink:href="#ma556c7342a" x="57.6" y="54.739519" style="stroke: #000000; stroke-width: 0.8"/>
      </g>
     </g>
     <g id="text_12">
      <!-- $\mathdefault{1.0}$ -->
      <g transform="translate(37.869921 58.198769)scale(0.1 -0.1)">
       <defs>
        <path id="CMR17-31" d="M 1702 4058 
C 1702 4192 1696 4192 1606 4192 
C 1357 3916 979 3827 621 3827 
C 602 3827 570 3827 563 3808 
C 557 3795 557 3782 557 3648 
C 755 3648 1088 3686 1344 3839 
L 1344 461 
C 1344 236 1331 160 781 160 
L 589 160 
L 589 0 
C 896 0 1216 0 1523 0 
C 1830 0 2150 0 2458 0 
L 2458 160 
L 2266 160 
C 1715 160 1702 230 1702 458 
L 1702 4058 
z
" transform="scale(0.015625)"/>
       </defs>
       <use xlink:href="#CMR17-31" transform="scale(0.996264)"/>
       <use xlink:href="#CMMI12-3a" transform="translate(45.690477 0)scale(0.996264)"/>
       <use xlink:href="#CMR17-30" transform="translate(72.787654 0)scale(0.996264)"/>
      </g>
     </g>
    </g>
   </g>
   <g id="line2d_13">
    <path d="M 73.832727 292.55919 
L 77.407502 292.55919 
L 77.569992 290.801899 
L 77.732482 292.55919 
L 78.382441 292.55919 
L 78.54493 289.630379 
L 79.194889 294.316481 
L 79.357379 292.55919 
L 80.169828 292.55919 
L 80.332318 294.316481 
L 80.494808 292.55919 
L 80.657297 292.55919 
L 80.819787 290.801899 
L 80.982277 292.55919 
L 82.444685 292.55919 
L 82.607174 295.488 
L 82.769664 292.55919 
L 84.394562 292.55919 
L 84.557052 289.630379 
L 84.719541 292.55919 
L 85.85697 292.55919 
L 86.019459 294.316481 
L 86.181949 292.55919 
L 87.644357 292.55919 
L 87.806847 289.630379 
L 88.294316 292.55919 
L 88.619296 292.55919 
L 88.781785 289.630379 
L 89.269255 292.55919 
L 89.431744 289.630379 
L 89.594234 292.55919 
L 89.756724 292.55919 
L 89.919214 295.488 
L 90.081704 292.55919 
L 92.68154 292.55919 
L 92.844029 289.630379 
L 93.006519 290.801899 
L 93.169009 289.630379 
L 93.331499 292.55919 
L 95.768845 292.55919 
L 95.931335 294.316481 
L 96.093825 292.55919 
L 96.743784 292.55919 
L 96.906274 289.630379 
L 97.068763 292.55919 
L 98.531171 292.55919 
L 98.693661 295.488 
L 98.856151 292.55919 
L 99.993579 292.55919 
L 100.156069 289.630379 
L 100.318559 292.55919 
L 100.643538 292.55919 
L 100.806028 289.630379 
L 100.968518 289.630379 
L 101.131007 292.55919 
L 101.293497 292.55919 
L 101.455987 294.316481 
L 101.618477 292.55919 
L 101.780966 294.316481 
L 101.943456 292.55919 
L 104.705782 292.55919 
L 104.868272 295.488 
L 105.030762 292.55919 
L 105.355741 292.55919 
L 105.680721 289.630379 
L 105.84321 292.55919 
L 106.0057 292.55919 
L 106.16819 289.630379 
L 106.33068 292.55919 
L 106.655659 292.55919 
L 106.818149 291.38767 
L 106.980639 292.55919 
L 107.793088 292.55919 
L 107.955577 290.801899 
L 108.280557 294.316481 
L 108.443047 290.801899 
L 108.605536 292.55919 
L 109.580475 292.55919 
L 109.742965 289.630379 
L 109.905455 292.55919 
L 112.017821 292.55919 
L 112.342801 289.630379 
L 112.505291 292.55919 
L 113.967699 292.55919 
L 114.130188 294.316481 
L 114.292678 292.55919 
L 114.455168 292.55919 
L 114.617658 289.630379 
L 114.780147 292.55919 
L 114.942637 287.873088 
L 115.105127 292.55919 
L 115.267617 292.55919 
L 115.430106 290.801899 
L 115.592596 292.55919 
L 116.080066 292.55919 
L 116.242555 287.873088 
L 116.405045 292.55919 
L 117.542473 292.55919 
L 117.704963 289.630379 
L 117.867453 292.55919 
L 119.329861 292.55919 
L 119.492351 290.801899 
L 119.65484 292.55919 
L 119.81733 292.55919 
L 119.97982 295.488 
L 120.14231 292.55919 
L 120.467289 292.55919 
L 120.629779 290.801899 
L 120.792269 292.55919 
L 123.067125 292.55919 
L 123.229615 289.630379 
L 123.392105 292.55919 
L 123.879574 292.55919 
L 124.204554 287.873088 
L 124.367043 292.55919 
L 125.341982 292.55919 
L 125.504472 289.630379 
L 125.666962 292.55919 
L 127.779328 292.55919 
L 128.104308 289.630379 
L 128.266798 292.55919 
L 129.079247 292.55919 
L 129.241736 289.630379 
L 129.404226 292.55919 
L 130.704144 292.55919 
L 130.866634 289.630379 
L 131.029124 292.55919 
L 131.516593 292.55919 
L 131.679083 294.316481 
L 131.841572 292.55919 
L 132.004062 292.55919 
L 132.166552 290.801899 
L 132.329042 292.55919 
L 133.79145 292.55919 
L 133.953939 289.630379 
L 134.116429 292.55919 
L 136.066306 292.55919 
L 136.228796 294.316481 
L 136.391286 292.55919 
L 137.691204 292.55919 
L 137.853694 294.316481 
L 138.016183 292.55919 
L 138.666143 292.55919 
L 138.828632 294.316481 
L 139.153612 290.801899 
L 139.316102 292.55919 
L 139.641081 292.55919 
L 139.803571 290.801899 
L 139.966061 292.55919 
L 140.29104 292.55919 
L 140.45353 295.488 
L 140.61602 290.801899 
L 140.778509 292.55919 
L 140.940999 292.55919 
L 141.103489 295.488 
L 141.265979 290.801899 
L 141.428468 289.630379 
L 141.590958 292.55919 
L 141.753448 292.55919 
L 141.915938 295.488 
L 142.078428 292.55919 
L 142.565897 292.55919 
L 142.728387 294.316481 
L 142.890876 292.55919 
L 146.628141 292.55919 
L 146.790631 289.630379 
L 146.95312 294.316481 
L 147.11561 292.55919 
L 148.253038 292.55919 
L 148.415528 58.254101 
L 148.578018 58.254101 
L 148.740508 53.568 
L 148.902998 58.254101 
L 149.227977 53.568 
L 149.552957 58.254101 
L 149.877936 58.254101 
L 150.040426 55.325291 
L 150.202916 58.254101 
L 150.365405 56.49681 
L 150.690385 56.49681 
L 151.015364 53.568 
L 151.340344 58.254101 
L 151.502834 58.254101 
L 151.827813 55.325291 
L 151.990303 58.254101 
L 152.477772 58.254101 
L 152.640262 55.325291 
L 152.802752 58.254101 
L 152.965242 58.254101 
L 153.127731 56.49681 
L 153.290221 58.254101 
L 153.615201 55.325291 
L 153.94018 55.325291 
L 154.10267 58.254101 
L 154.427649 58.254101 
L 154.590139 61.182912 
L 154.915119 56.49681 
L 155.077609 58.254101 
L 155.240098 55.325291 
L 155.402588 61.182912 
L 155.565078 55.325291 
L 155.727568 55.325291 
L 155.890057 53.568 
L 156.052547 58.254101 
L 156.215037 58.254101 
L 156.377527 55.325291 
L 156.540016 58.254101 
L 156.702506 58.254101 
L 156.864996 56.49681 
L 157.027486 56.49681 
L 157.189975 58.254101 
L 157.352465 58.254101 
L 157.514955 56.49681 
L 157.677445 58.254101 
L 157.839934 58.254101 
L 158.002424 53.568 
L 158.327404 56.49681 
L 158.489894 53.568 
L 158.652383 56.49681 
L 159.139853 56.49681 
L 159.464832 53.568 
L 159.627322 58.254101 
L 159.789812 55.325291 
L 160.114791 58.254101 
L 160.277281 55.325291 
L 160.439771 56.49681 
L 160.60226 53.568 
L 160.92724 58.254101 
L 161.08973 58.254101 
L 161.252219 55.325291 
L 161.577199 58.254101 
L 161.739689 55.325291 
L 161.902179 56.49681 
L 162.227158 56.49681 
L 162.389648 58.254101 
L 162.877117 58.254101 
L 163.039607 56.49681 
L 163.202097 56.49681 
L 163.364586 53.568 
L 163.689566 58.254101 
L 164.014545 55.325291 
L 164.177035 58.254101 
L 164.339525 58.254101 
L 164.502015 55.325291 
L 164.664505 58.254101 
L 164.826994 56.49681 
L 164.989484 58.254101 
L 165.151974 53.568 
L 165.314464 55.325291 
L 165.476953 53.568 
L 165.639443 58.254101 
L 165.801933 58.254101 
L 165.964423 55.325291 
L 166.451892 58.254101 
L 166.776871 53.568 
L 166.939361 53.568 
L 167.101851 58.254101 
L 167.264341 58.254101 
L 167.42683 55.325291 
L 167.58932 58.254101 
L 167.75181 56.49681 
L 167.9143 56.49681 
L 168.07679 58.254101 
L 168.239279 58.254101 
L 168.401769 53.568 
L 168.726749 58.254101 
L 168.889238 56.49681 
L 169.051728 56.49681 
L 169.214218 58.254101 
L 169.376708 58.254101 
L 169.701687 53.568 
L 169.864177 53.568 
L 170.026667 58.254101 
L 170.189156 55.325291 
L 170.351646 58.254101 
L 170.676626 53.568 
L 170.839115 58.254101 
L 171.001605 58.254101 
L 171.164095 56.49681 
L 171.326585 56.49681 
L 171.489075 55.325291 
L 171.651564 58.254101 
L 171.814054 56.49681 
L 171.976544 56.49681 
L 172.139034 58.254101 
L 172.301523 58.254101 
L 172.464013 55.325291 
L 172.626503 58.254101 
L 173.113972 58.254101 
L 173.276462 56.49681 
L 173.438952 56.49681 
L 173.601441 55.325291 
L 173.763931 58.254101 
L 173.926421 55.325291 
L 174.088911 58.254101 
L 174.41389 55.325291 
L 174.57638 58.254101 
L 174.90136 58.254101 
L 175.226339 55.325291 
L 175.388829 55.325291 
L 175.551319 58.254101 
L 175.713808 53.568 
L 176.038788 58.254101 
L 176.201278 58.254101 
L 176.363767 56.49681 
L 176.526257 58.254101 
L 176.688747 58.254101 
L 176.851237 55.325291 
L 177.013726 58.254101 
L 177.176216 58.254101 
L 177.338706 56.49681 
L 177.501196 58.254101 
L 178.151155 58.254101 
L 178.476134 55.325291 
L 178.638624 58.254101 
L 178.801114 56.49681 
L 179.288583 56.49681 
L 179.451073 58.254101 
L 179.613563 56.49681 
L 179.776052 58.254101 
L 179.938542 58.254101 
L 180.101032 55.325291 
L 180.263522 55.325291 
L 180.426011 58.254101 
L 180.588501 55.325291 
L 180.750991 58.254101 
L 180.913481 292.55919 
L 182.050909 292.55919 
L 182.213399 294.316481 
L 182.375889 292.55919 
L 183.188337 292.55919 
L 183.350827 294.316481 
L 183.513317 292.55919 
L 183.675807 292.55919 
L 183.838296 290.801899 
L 184.000786 292.55919 
L 184.163276 289.630379 
L 184.325766 292.55919 
L 184.650745 292.55919 
L 184.975725 289.630379 
L 185.138215 292.55919 
L 185.950663 292.55919 
L 186.113153 290.801899 
L 186.275643 292.55919 
L 186.438133 292.55919 
L 186.600622 289.630379 
L 186.763112 292.55919 
L 187.738051 292.55919 
L 187.900541 294.316481 
L 188.06303 292.55919 
L 189.850418 292.55919 
L 190.012907 289.630379 
L 190.175397 292.55919 
L 190.337887 292.55919 
L 190.500377 289.630379 
L 190.662867 292.55919 
L 191.475315 292.55919 
L 191.637805 290.801899 
L 191.800295 292.55919 
L 191.962785 292.55919 
L 192.125274 290.801899 
L 192.287764 292.55919 
L 192.450254 289.630379 
L 192.612744 292.55919 
L 192.937723 292.55919 
L 193.100213 295.488 
L 193.425192 289.630379 
L 193.587682 292.55919 
L 194.562621 292.55919 
L 194.725111 290.801899 
L 195.05009 295.488 
L 195.21258 292.55919 
L 196.674988 292.55919 
L 196.837477 290.801899 
L 196.999967 292.55919 
L 197.162457 290.801899 
L 197.324947 292.55919 
L 197.649926 292.55919 
L 197.812416 290.801899 
L 197.974906 290.801899 
L 198.137396 289.630379 
L 198.299885 292.55919 
L 199.274824 292.55919 
L 199.437314 289.630379 
L 199.599803 292.55919 
L 200.087273 292.55919 
L 200.249762 294.316481 
L 200.412252 292.55919 
L 201.549681 292.55919 
L 201.71217 294.316481 
L 201.87466 292.55919 
L 202.19964 292.55919 
L 202.362129 290.801899 
L 202.524619 292.55919 
L 203.174578 292.55919 
L 203.337068 290.801899 
L 203.499558 290.801899 
L 203.662048 292.55919 
L 204.474496 292.55919 
L 204.636986 293.730709 
L 204.799476 292.55919 
L 205.124455 292.55919 
L 205.286945 290.801899 
L 205.449435 292.55919 
L 205.611925 292.55919 
L 205.774414 294.316481 
L 205.936904 292.55919 
L 206.911843 292.55919 
L 207.074333 290.801899 
L 207.399312 294.316481 
L 207.561802 292.55919 
L 210.324128 292.55919 
L 210.486618 294.316481 
L 210.649107 292.55919 
L 211.299066 292.55919 
L 211.461556 289.630379 
L 211.624046 292.55919 
L 213.736413 292.55919 
L 213.898903 289.630379 
L 214.061392 289.630379 
L 214.223882 292.55919 
L 216.173759 292.55919 
L 216.336249 289.630379 
L 216.498739 292.55919 
L 217.798657 292.55919 
L 217.961147 289.630379 
L 218.123636 292.55919 
L 219.911024 292.55919 
L 220.073514 289.630379 
L 220.398493 295.488 
L 220.560983 292.55919 
L 220.723473 293.730709 
L 220.885962 292.55919 
L 221.698411 292.55919 
L 221.860901 295.488 
L 222.023391 287.873088 
L 222.34837 292.55919 
L 223.323309 292.55919 
L 223.485799 290.801899 
L 223.648288 292.55919 
L 223.810778 292.55919 
L 223.973268 287.873088 
L 224.135758 292.55919 
L 225.110696 292.55919 
L 225.273186 290.801899 
L 225.435676 295.488 
L 225.598165 292.55919 
L 228.522981 292.55919 
L 228.685471 290.801899 
L 228.847961 292.55919 
L 229.822899 292.55919 
L 230.147879 289.630379 
L 230.472858 292.55919 
L 230.635348 289.630379 
L 230.797838 295.488 
L 231.122817 289.630379 
L 231.285307 292.55919 
L 231.772776 292.55919 
L 231.935266 294.316481 
L 232.097756 292.55919 
L 232.910205 292.55919 
L 233.072695 290.801899 
L 233.235184 292.55919 
L 234.210123 292.55919 
L 234.372613 294.316481 
L 234.535102 292.55919 
L 237.784898 292.55919 
L 237.947387 294.316481 
L 238.109877 294.316481 
L 238.434857 290.801899 
L 238.597346 292.55919 
L 238.922326 292.55919 
L 239.084816 289.630379 
L 239.247305 292.55919 
L 239.897265 292.55919 
L 240.059754 294.316481 
L 240.222244 292.55919 
L 241.847142 292.55919 
L 242.009631 290.801899 
L 242.172121 292.55919 
L 243.472039 292.55919 
L 243.634529 295.488 
L 243.797019 294.316481 
L 243.959509 295.488 
L 244.121998 292.55919 
L 244.284488 292.55919 
L 244.446978 289.630379 
L 244.934447 292.55919 
L 246.234365 292.55919 
L 246.396855 287.873088 
L 246.884324 292.55919 
L 247.209304 292.55919 
L 247.371794 295.488 
L 247.534283 292.55919 
L 248.834201 292.55919 
L 248.996691 290.801899 
L 249.159181 290.801899 
L 249.321671 292.55919 
L 249.97163 292.55919 
L 250.13412 294.316481 
L 250.296609 292.55919 
L 252.896446 292.55919 
L 253.058935 294.316481 
L 253.221425 292.55919 
L 253.871384 292.55919 
L 254.033874 290.801899 
L 254.196364 290.801899 
L 254.358853 292.55919 
L 255.496282 292.55919 
L 255.658771 294.316481 
L 255.821261 292.55919 
L 257.446159 292.55919 
L 257.608649 290.801899 
L 257.771138 294.316481 
L 257.933628 292.55919 
L 258.421097 292.55919 
L 258.583587 290.801899 
L 258.746077 292.55919 
L 259.233546 292.55919 
L 259.396036 294.316481 
L 259.558526 292.55919 
L 259.883505 292.55919 
L 260.045995 289.630379 
L 260.208485 292.55919 
L 260.370975 289.630379 
L 260.533464 292.55919 
L 262.158362 292.55919 
L 262.320852 290.801899 
L 262.483342 295.488 
L 262.645831 292.55919 
L 265.895627 292.55919 
L 266.058116 290.801899 
L 266.220606 292.55919 
L 266.545586 292.55919 
L 266.708075 289.630379 
L 266.870565 292.55919 
L 267.033055 292.55919 
L 267.195545 290.801899 
L 267.358034 292.55919 
L 268.007993 292.55919 
L 268.170483 290.801899 
L 268.332973 292.55919 
L 268.495463 292.55919 
L 268.657952 289.630379 
L 268.820442 289.630379 
L 268.982932 292.55919 
L 270.28285 292.55919 
L 270.44534 294.316481 
L 270.60783 289.630379 
L 270.770319 289.630379 
L 270.932809 292.55919 
L 271.745258 292.55919 
L 271.907748 289.630379 
L 272.070238 292.55919 
L 272.395217 292.55919 
L 272.557707 289.630379 
L 272.720197 292.55919 
L 272.882686 289.630379 
L 273.045176 292.55919 
L 273.370156 292.55919 
L 273.532645 290.801899 
L 273.695135 292.55919 
L 274.182604 292.55919 
L 274.345094 289.630379 
L 274.507584 292.55919 
L 274.832563 292.55919 
L 274.995053 290.801899 
L 275.157543 292.55919 
L 275.320033 290.801899 
L 275.482523 292.55919 
L 275.807502 292.55919 
L 275.969992 289.630379 
L 276.132482 294.316481 
L 276.294971 292.55919 
L 277.26991 292.55919 
L 277.4324 289.630379 
L 277.594889 294.316481 
L 277.757379 292.55919 
L 278.732318 292.55919 
L 278.894808 289.630379 
L 279.057297 292.55919 
L 279.382277 292.55919 
L 279.544767 290.801899 
L 279.707256 292.55919 
L 279.869746 289.630379 
L 280.032236 292.55919 
L 280.194726 292.55919 
L 280.357215 289.630379 
L 280.519705 292.55919 
L 281.007174 292.55919 
L 281.169664 289.630379 
L 281.332154 292.55919 
L 281.657133 292.55919 
L 281.819623 289.630379 
L 281.982113 292.55919 
L 283.7695 292.55919 
L 283.93199 294.316481 
L 284.09448 292.55919 
L 284.906929 292.55919 
L 285.069419 295.488 
L 285.394398 289.630379 
L 285.556888 292.55919 
L 285.881867 292.55919 
L 286.044357 289.630379 
L 286.206847 292.55919 
L 286.369337 292.55919 
L 286.531826 290.801899 
L 286.694316 290.801899 
L 286.856806 292.55919 
L 287.181785 292.55919 
L 287.344275 289.630379 
L 287.506765 292.55919 
L 287.669255 289.630379 
L 287.831744 292.55919 
L 287.994234 292.55919 
L 288.156724 290.801899 
L 288.319214 292.55919 
L 288.806683 292.55919 
L 288.969173 289.630379 
L 289.131663 292.55919 
L 289.294152 289.630379 
L 289.456642 292.55919 
L 289.619132 292.55919 
L 289.781622 289.630379 
L 289.944111 289.630379 
L 290.106601 292.55919 
L 291.08154 292.55919 
L 291.244029 289.630379 
L 291.406519 292.55919 
L 292.056478 292.55919 
L 292.218968 290.801899 
L 292.381458 292.55919 
L 294.493825 292.55919 
L 294.656314 290.801899 
L 294.818804 292.55919 
L 295.468763 292.55919 
L 295.631253 289.630379 
L 295.793743 292.55919 
L 296.768681 292.55919 
L 296.931171 290.801899 
L 297.093661 292.55919 
L 298.881048 292.55919 
L 299.043538 294.316481 
L 299.206028 292.55919 
L 299.368518 292.55919 
L 299.531007 287.873088 
L 299.693497 292.55919 
L 300.180966 292.55919 
L 300.343456 289.630379 
L 300.505946 292.55919 
L 300.993415 292.55919 
L 301.155905 290.801899 
L 301.318395 292.55919 
L 303.430762 292.55919 
L 303.593251 289.630379 
L 303.755741 292.55919 
L 305.055659 292.55919 
L 305.218149 290.801899 
L 305.380639 292.55919 
L 306.030598 292.55919 
L 306.193088 290.801899 
L 306.355577 292.55919 
L 306.518067 292.55919 
L 306.680557 289.630379 
L 307.168026 292.55919 
L 308.630434 292.55919 
L 308.792924 294.316481 
L 309.117903 289.630379 
L 309.280393 294.316481 
L 309.442883 290.801899 
L 309.605373 292.55919 
L 309.767862 290.801899 
L 309.930352 292.55919 
L 311.55525 292.55919 
L 311.71774 294.316481 
L 311.880229 292.55919 
L 312.205209 292.55919 
L 312.367699 289.630379 
L 312.530188 292.55919 
L 312.692678 289.630379 
L 313.180147 292.55919 
L 314.155086 292.55919 
L 314.317576 289.630379 
L 314.480066 292.55919 
L 315.292514 292.55919 
L 315.455004 290.801899 
L 315.617494 292.55919 
L 315.942473 292.55919 
L 316.104963 289.630379 
L 316.267453 292.55919 
L 316.754922 292.55919 
L 316.917412 290.801899 
L 317.079902 292.55919 
L 318.37982 292.55919 
L 318.54231 290.801899 
L 318.704799 292.55919 
L 319.029779 292.55919 
L 319.192269 289.630379 
L 319.354758 294.316481 
L 319.517248 292.55919 
L 319.679738 292.55919 
L 319.842228 290.801899 
L 320.167207 294.316481 
L 320.329697 292.55919 
L 320.492187 292.55919 
L 320.654676 294.316481 
L 320.817166 292.55919 
L 321.629615 292.55919 
L 321.792105 289.630379 
L 321.954595 292.55919 
L 322.117084 287.873088 
L 322.279574 292.55919 
L 322.442064 292.55919 
L 322.604554 290.801899 
L 322.767043 292.55919 
L 323.254513 292.55919 
L 323.417002 290.801899 
L 323.579492 292.55919 
L 324.066962 292.55919 
L 324.229451 290.801899 
L 324.554431 294.316481 
L 324.87941 290.801899 
L 325.0419 292.55919 
L 325.691859 292.55919 
L 325.854349 289.630379 
L 326.016839 292.55919 
L 326.504308 292.55919 
L 326.666798 294.316481 
L 326.829287 290.801899 
L 327.154267 294.316481 
L 327.316757 292.55919 
L 327.641736 292.55919 
L 327.804226 290.801899 
L 328.129206 295.488 
L 328.291695 292.55919 
L 328.454185 292.55919 
L 328.616675 289.630379 
L 328.779165 292.55919 
L 328.941654 292.55919 
L 329.104144 290.801899 
L 329.429124 295.488 
L 329.591613 292.55919 
L 332.02896 292.55919 
L 332.19145 289.630379 
L 332.353939 292.55919 
L 332.516429 290.801899 
L 332.678919 292.55919 
L 333.491368 292.55919 
L 333.653857 289.630379 
L 333.816347 292.55919 
L 333.978837 290.801899 
L 334.141327 292.55919 
L 334.466306 292.55919 
L 334.628796 294.316481 
L 334.791286 290.801899 
L 334.953776 292.55919 
L 335.116265 292.55919 
L 335.278755 290.801899 
L 335.441245 292.55919 
L 335.928714 292.55919 
L 336.091204 289.630379 
L 336.253694 292.55919 
L 336.903653 292.55919 
L 337.066143 295.488 
L 337.391122 292.55919 
L 337.553612 289.630379 
L 337.716102 292.55919 
L 340.478428 292.55919 
L 340.640917 290.801899 
L 340.803407 292.55919 
L 341.778346 292.55919 
L 341.940835 289.630379 
L 342.103325 292.55919 
L 342.265815 289.630379 
L 342.590794 293.730709 
L 342.753284 290.801899 
L 342.915774 290.801899 
L 343.078264 289.630379 
L 343.240753 292.55919 
L 344.053202 292.55919 
L 344.215692 294.316481 
L 344.378182 292.55919 
L 344.703161 292.55919 
L 344.865651 294.316481 
L 345.028141 292.55919 
L 346.165569 292.55919 
L 346.328059 290.801899 
L 346.490549 292.55919 
L 346.653038 292.55919 
L 346.815528 290.801899 
L 346.978018 292.55919 
L 347.302998 292.55919 
L 347.465487 289.630379 
L 347.627977 292.55919 
L 348.277936 292.55919 
L 348.440426 294.316481 
L 348.602916 292.55919 
L 348.765405 295.488 
L 348.927895 292.55919 
L 349.252875 292.55919 
L 349.415364 289.630379 
L 349.577854 292.55919 
L 351.365242 292.55919 
L 351.527731 294.316481 
L 351.690221 292.55919 
L 353.152629 292.55919 
L 353.315119 290.801899 
L 353.477609 292.55919 
L 353.640098 289.630379 
L 353.802588 292.55919 
L 354.127568 292.55919 
L 354.290057 294.316481 
L 354.452547 292.55919 
L 354.615037 292.55919 
L 354.777527 294.316481 
L 354.940016 292.55919 
L 355.589975 292.55919 
L 355.752465 289.630379 
L 355.914955 289.630379 
L 356.077445 292.55919 
L 356.239934 290.801899 
L 356.402424 292.55919 
L 356.564914 289.630379 
L 356.727404 292.55919 
L 356.889894 292.55919 
L 357.052383 289.630379 
L 357.214873 292.55919 
L 357.702342 292.55919 
L 357.864832 290.801899 
L 358.027322 293.730709 
L 358.189812 292.55919 
L 359.48973 292.55919 
L 359.652219 290.801899 
L 359.814709 292.55919 
L 360.952138 292.55919 
L 361.114627 290.801899 
L 361.277117 294.316481 
L 361.439607 292.55919 
L 362.414545 292.55919 
L 362.577035 290.801899 
L 362.739525 292.55919 
L 362.902015 292.55919 
L 363.064505 294.316481 
L 363.226994 292.55919 
L 363.389484 292.55919 
L 363.551974 291.38767 
L 363.714464 292.55919 
L 363.876953 289.630379 
L 364.039443 290.801899 
L 364.201933 290.801899 
L 364.364423 292.55919 
L 364.526912 292.55919 
L 364.689402 290.801899 
L 364.851892 292.55919 
L 365.014382 292.55919 
L 365.176871 290.801899 
L 365.339361 292.55919 
L 365.664341 292.55919 
L 365.82683 294.316481 
L 365.98932 292.55919 
L 366.964259 292.55919 
L 367.126749 289.630379 
L 367.289238 292.55919 
L 367.939197 292.55919 
L 368.101687 289.630379 
L 368.264177 292.55919 
L 368.426667 292.55919 
L 368.589156 295.488 
L 368.751646 292.55919 
L 369.889075 292.55919 
L 370.051564 290.801899 
L 370.376544 294.316481 
L 370.539034 290.801899 
L 370.701523 292.55919 
L 370.864013 292.55919 
L 371.026503 289.630379 
L 371.188993 292.55919 
L 371.676462 292.55919 
L 371.838952 290.801899 
L 372.001441 294.316481 
L 372.163931 292.55919 
L 372.326421 292.55919 
L 372.488911 290.801899 
L 372.6514 292.55919 
L 373.13887 292.55919 
L 373.30136 289.630379 
L 373.463849 289.630379 
L 373.626339 292.55919 
L 374.113808 292.55919 
L 374.276298 289.630379 
L 374.763767 292.55919 
L 375.088747 292.55919 
L 375.251237 293.730709 
L 375.413726 292.55919 
L 375.576216 294.316481 
L 375.738706 292.55919 
L 376.226175 292.55919 
L 376.388665 290.801899 
L 376.551155 292.55919 
L 377.851073 292.55919 
L 378.013563 290.801899 
L 378.176052 292.55919 
L 380.288419 292.55919 
L 380.450909 289.630379 
L 380.613399 292.55919 
L 381.425848 292.55919 
L 381.588337 294.316481 
L 381.750827 292.55919 
L 383.213235 292.55919 
L 383.538215 290.801899 
L 383.700704 292.55919 
L 384.188174 292.55919 
L 384.350663 290.801899 
L 384.513153 290.801899 
L 384.675643 292.55919 
L 385.325602 292.55919 
L 385.488092 290.801899 
L 385.650581 292.55919 
L 385.975561 292.55919 
L 386.138051 290.801899 
L 386.300541 292.55919 
L 386.9505 292.55919 
L 387.112989 290.801899 
L 387.275479 292.55919 
L 388.900377 292.55919 
L 389.062867 289.630379 
L 389.225356 292.55919 
L 390.362785 292.55919 
L 390.525274 294.316481 
L 390.850254 290.801899 
L 391.012744 292.55919 
L 391.175233 289.630379 
L 391.337723 292.55919 
L 391.662703 292.55919 
L 391.825192 294.316481 
L 391.987682 292.55919 
L 395.399967 292.55919 
L 395.562457 294.316481 
L 395.724947 292.55919 
L 396.862375 292.55919 
L 397.024865 295.488 
L 397.187355 292.55919 
L 397.349844 292.55919 
L 397.512334 290.801899 
L 397.674824 292.55919 
L 398.487273 292.55919 
L 398.487273 292.55919 
" clip-path="url(#p7e8730df4f)" style="fill: none; stroke: #1f77b4; stroke-width: 1.5; stroke-linecap: square"/>
   </g>
   <g id="patch_3">
    <path d="M 57.6 307.584 
L 57.6 41.472 
" style="fill: none; stroke: #000000; stroke-width: 0.8; stroke-linejoin: miter; stroke-linecap: square"/>
   </g>
   <g id="patch_4">
    <path d="M 414.72 307.584 
L 414.72 41.472 
" style="fill: none; stroke: #000000; stroke-width: 0.8; stroke-linejoin: miter; stroke-linecap: square"/>
   </g>
   <g id="patch_5">
    <path d="M 57.6 307.584 
L 414.72 307.584 
" style="fill: none; stroke: #000000; stroke-width: 0.8; stroke-linejoin: miter; stroke-linecap: square"/>
   </g>
   <g id="patch_6">
    <path d="M 57.6 41.472 
L 414.72 41.472 
" style="fill: none; stroke: #000000; stroke-width: 0.8; stroke-linejoin: miter; stroke-linecap: square"/>
   </g>
  </g>
 </g>
 <defs>
  <clipPath id="p7e8730df4f">
   <rect x="57.6" y="41.472" width="357.12" height="266.112"/>
  </clipPath>
 </defs>
</svg>
