<?xml version="1.0" encoding="utf-8" standalone="no"?>
<!DOCTYPE svg PUBLIC "-//W3C//DTD SVG 1.1//EN"
  "http://www.w3.org/Graphics/SVG/1.1/DTD/svg11.dtd">
<svg xmlns:xlink="http://www.w3.org/1999/xlink" width="460.8pt" height="345.6pt" viewBox="0 0 460.8 345.6" xmlns="http://www.w3.org/2000/svg" version="1.1">
 <metadata>
  <rdf:RDF xmlns:dc="http://purl.org/dc/elements/1.1/" xmlns:cc="http://creativecommons.org/ns#" xmlns:rdf="http://www.w3.org/1999/02/22-rdf-syntax-ns#">
   <cc:Work>
    <dc:type rdf:resource="http://purl.org/dc/dcmitype/StillImage"/>
    <dc:date>2022-05-21T17:11:26.510430</dc:date>
    <dc:format>image/svg+xml</dc:format>
    <dc:creator>
     <cc:Agent>
      <dc:title>Matplotlib v3.5.1, https://matplotlib.org/</dc:title>
     </cc:Agent>
    </dc:creator>
   </cc:Work>
  </rdf:RDF>
 </metadata>
 <defs>
  <style type="text/css">*{stroke-linejoin: round; stroke-linecap: butt}</style>
 </defs>
 <g id="figure_1">
  <g id="patch_1">
   <path d="M 0 345.6 
L 460.8 345.6 
L 460.8 0 
L 0 0 
z
" style="fill: #ffffff"/>
  </g>
  <g id="axes_1">
   <g id="patch_2">
    <path d="M 57.6 307.584 
L 414.72 307.584 
L 414.72 41.472 
L 57.6 41.472 
z
" style="fill: #ffffff"/>
   </g>
   <g id="matplotlib.axis_1">
    <g id="xtick_1">
     <g id="line2d_1">
      <defs>
       <path id="me0d76cbc19" d="M 0 0 
L 0 3.5 
" style="stroke: #000000; stroke-width: 0.8"/>
      </defs>
      <g>
       <use xlink:href="#me0d76cbc19" x="73.610861" y="307.584" style="stroke: #000000; stroke-width: 0.8"/>
      </g>
     </g>
     <g id="text_1">
      <!-- $\mathdefault{0}$ -->
      <g transform="translate(71.120193 321.502498)scale(0.1 -0.1)">
       <defs>
        <path id="CMR17-30" d="M 2688 2025 
C 2688 2416 2682 3080 2413 3591 
C 2176 4039 1798 4198 1466 4198 
C 1158 4198 768 4058 525 3597 
C 269 3118 243 2524 243 2025 
C 243 1661 250 1106 448 619 
C 723 -39 1216 -128 1466 -128 
C 1760 -128 2208 -7 2470 600 
C 2662 1042 2688 1559 2688 2025 
z
M 1466 -26 
C 1056 -26 813 325 723 812 
C 653 1188 653 1738 653 2096 
C 653 2588 653 2997 736 3387 
C 858 3929 1216 4096 1466 4096 
C 1728 4096 2067 3923 2189 3400 
C 2272 3036 2278 2607 2278 2096 
C 2278 1680 2278 1169 2202 792 
C 2067 95 1690 -26 1466 -26 
z
" transform="scale(0.015625)"/>
       </defs>
       <use xlink:href="#CMR17-30" transform="scale(0.996264)"/>
      </g>
     </g>
    </g>
    <g id="xtick_2">
     <g id="line2d_2">
      <g>
       <use xlink:href="#me0d76cbc19" x="132.30509" y="307.584" style="stroke: #000000; stroke-width: 0.8"/>
      </g>
     </g>
     <g id="text_2">
      <!-- $\mathdefault{50}$ -->
      <g transform="translate(127.323755 321.502498)scale(0.1 -0.1)">
       <defs>
        <path id="CMR17-35" d="M 730 3692 
C 794 3666 1056 3584 1325 3584 
C 1920 3584 2246 3911 2432 4100 
C 2432 4157 2432 4192 2394 4192 
C 2387 4192 2374 4192 2323 4163 
C 2099 4058 1837 3973 1517 3973 
C 1325 3973 1037 3999 723 4139 
C 653 4171 640 4171 634 4171 
C 602 4171 595 4164 595 4037 
L 595 2203 
C 595 2089 595 2057 659 2057 
C 691 2057 704 2070 736 2114 
C 941 2401 1222 2522 1542 2522 
C 1766 2522 2246 2382 2246 1289 
C 2246 1085 2246 715 2054 421 
C 1894 159 1645 25 1370 25 
C 947 25 518 320 403 814 
C 429 807 480 795 506 795 
C 589 795 749 840 749 1038 
C 749 1210 627 1280 506 1280 
C 358 1280 262 1190 262 1011 
C 262 454 704 -128 1382 -128 
C 2042 -128 2669 440 2669 1264 
C 2669 2030 2170 2624 1549 2624 
C 1222 2624 947 2503 730 2274 
L 730 3692 
z
" transform="scale(0.015625)"/>
       </defs>
       <use xlink:href="#CMR17-35" transform="scale(0.996264)"/>
       <use xlink:href="#CMR17-30" transform="translate(45.690477 0)scale(0.996264)"/>
      </g>
     </g>
    </g>
    <g id="xtick_3">
     <g id="line2d_3">
      <g>
       <use xlink:href="#me0d76cbc19" x="190.99932" y="307.584" style="stroke: #000000; stroke-width: 0.8"/>
      </g>
     </g>
     <g id="text_3">
      <!-- $\mathdefault{100}$ -->
      <g transform="translate(183.527317 321.502498)scale(0.1 -0.1)">
       <defs>
        <path id="CMR17-31" d="M 1702 4058 
C 1702 4192 1696 4192 1606 4192 
C 1357 3916 979 3827 621 3827 
C 602 3827 570 3827 563 3808 
C 557 3795 557 3782 557 3648 
C 755 3648 1088 3686 1344 3839 
L 1344 461 
C 1344 236 1331 160 781 160 
L 589 160 
L 589 0 
C 896 0 1216 0 1523 0 
C 1830 0 2150 0 2458 0 
L 2458 160 
L 2266 160 
C 1715 160 1702 230 1702 458 
L 1702 4058 
z
" transform="scale(0.015625)"/>
       </defs>
       <use xlink:href="#CMR17-31" transform="scale(0.996264)"/>
       <use xlink:href="#CMR17-30" transform="translate(45.690477 0)scale(0.996264)"/>
       <use xlink:href="#CMR17-30" transform="translate(91.380954 0)scale(0.996264)"/>
      </g>
     </g>
    </g>
    <g id="xtick_4">
     <g id="line2d_4">
      <g>
       <use xlink:href="#me0d76cbc19" x="249.69355" y="307.584" style="stroke: #000000; stroke-width: 0.8"/>
      </g>
     </g>
     <g id="text_4">
      <!-- $\mathdefault{150}$ -->
      <g transform="translate(242.221547 321.502498)scale(0.1 -0.1)">
       <use xlink:href="#CMR17-31" transform="scale(0.996264)"/>
       <use xlink:href="#CMR17-35" transform="translate(45.690477 0)scale(0.996264)"/>
       <use xlink:href="#CMR17-30" transform="translate(91.380954 0)scale(0.996264)"/>
      </g>
     </g>
    </g>
    <g id="xtick_5">
     <g id="line2d_5">
      <g>
       <use xlink:href="#me0d76cbc19" x="308.387779" y="307.584" style="stroke: #000000; stroke-width: 0.8"/>
      </g>
     </g>
     <g id="text_5">
      <!-- $\mathdefault{200}$ -->
      <g transform="translate(300.915776 321.502498)scale(0.1 -0.1)">
       <defs>
        <path id="CMR17-32" d="M 2669 989 
L 2554 989 
C 2490 536 2438 459 2413 420 
C 2381 369 1920 369 1830 369 
L 602 369 
C 832 619 1280 1072 1824 1597 
C 2214 1967 2669 2402 2669 3035 
C 2669 3790 2067 4224 1395 4224 
C 691 4224 262 3604 262 3030 
C 262 2780 448 2748 525 2748 
C 589 2748 781 2787 781 3010 
C 781 3207 614 3264 525 3264 
C 486 3264 448 3258 422 3245 
C 544 3790 915 4058 1306 4058 
C 1862 4058 2227 3617 2227 3035 
C 2227 2479 1901 2000 1536 1584 
L 262 146 
L 262 0 
L 2515 0 
L 2669 989 
z
" transform="scale(0.015625)"/>
       </defs>
       <use xlink:href="#CMR17-32" transform="scale(0.996264)"/>
       <use xlink:href="#CMR17-30" transform="translate(45.690477 0)scale(0.996264)"/>
       <use xlink:href="#CMR17-30" transform="translate(91.380954 0)scale(0.996264)"/>
      </g>
     </g>
    </g>
    <g id="xtick_6">
     <g id="line2d_6">
      <g>
       <use xlink:href="#me0d76cbc19" x="367.082009" y="307.584" style="stroke: #000000; stroke-width: 0.8"/>
      </g>
     </g>
     <g id="text_6">
      <!-- $\mathdefault{250}$ -->
      <g transform="translate(359.610006 321.502498)scale(0.1 -0.1)">
       <use xlink:href="#CMR17-32" transform="scale(0.996264)"/>
       <use xlink:href="#CMR17-35" transform="translate(45.690477 0)scale(0.996264)"/>
       <use xlink:href="#CMR17-30" transform="translate(91.380954 0)scale(0.996264)"/>
      </g>
     </g>
    </g>
    <g id="text_7">
     <!-- Temps (s) -->
     <g transform="translate(202.039235 339.394845)scale(0.16 -0.16)">
      <defs>
       <path id="CMR17-54" d="M 3981 4326 
L 288 4326 
L 179 2918 
L 294 2918 
C 378 3976 467 4160 1453 4160 
C 1568 4160 1754 4160 1805 4154 
C 1926 4135 1926 4058 1926 3912 
L 1926 459 
C 1926 230 1907 160 1376 160 
L 1197 160 
L 1197 0 
C 1504 0 1824 0 2138 0 
C 2451 0 2771 0 3078 0 
L 3078 160 
L 2899 160 
C 2368 160 2349 230 2349 459 
L 2349 3912 
C 2349 4052 2349 4129 2464 4154 
C 2515 4160 2701 4160 2816 4160 
C 3795 4160 3891 3976 3974 2918 
L 4090 2918 
L 3981 4326 
z
" transform="scale(0.015625)"/>
       <path id="CMR17-65" d="M 2438 1472 
C 2464 1498 2464 1511 2464 1576 
C 2464 2238 2118 2816 1389 2816 
C 710 2816 173 2169 173 1383 
C 173 551 781 -64 1459 -64 
C 2176 -64 2458 607 2458 740 
C 2458 784 2419 784 2406 784 
C 2362 784 2355 771 2330 696 
C 2189 265 1837 51 1504 51 
C 1229 51 954 203 781 480 
C 582 803 582 1176 582 1472 
L 2438 1472 
z
M 589 1568 
C 634 2505 1126 2714 1382 2714 
C 1818 2714 2112 2297 2118 1568 
L 589 1568 
z
" transform="scale(0.015625)"/>
       <path id="CMR17-6d" d="M 4326 1933 
C 4326 2252 4269 2790 3507 2790 
C 3072 2790 2771 2496 2656 2151 
L 2650 2151 
C 2573 2676 2195 2790 1837 2790 
C 1331 2790 1069 2400 973 2144 
L 966 2144 
L 966 2790 
L 211 2720 
L 211 2554 
C 589 2554 646 2515 646 2208 
L 646 428 
C 646 184 621 153 211 153 
L 211 -13 
C 365 0 646 0 813 0 
C 979 0 1267 0 1421 -13 
L 1421 153 
C 1011 153 986 178 986 428 
L 986 1658 
C 986 2247 1344 2688 1792 2688 
C 2266 2688 2317 2266 2317 1958 
L 2317 428 
C 2317 184 2291 153 1882 153 
L 1882 -13 
C 2035 0 2317 0 2483 0 
C 2650 0 2938 0 3091 -13 
L 3091 153 
C 2682 153 2656 178 2656 428 
L 2656 1658 
C 2656 2247 3014 2688 3462 2688 
C 3936 2688 3987 2266 3987 1958 
L 3987 428 
C 3987 184 3962 153 3552 153 
L 3552 -13 
C 3706 0 3987 0 4154 0 
C 4320 0 4608 0 4762 -13 
L 4762 153 
C 4352 153 4326 178 4326 428 
L 4326 1933 
z
" transform="scale(0.015625)"/>
       <path id="CMR17-70" d="M 1408 -1063 
C 998 -1063 973 -1037 973 -789 
L 973 402 
C 1158 134 1427 -38 1766 -38 
C 2406 -38 3053 523 3053 1388 
C 3053 2191 2496 2802 1837 2802 
C 1453 2802 1139 2592 960 2338 
L 960 2802 
L 198 2732 
L 198 2567 
C 576 2567 634 2528 634 2223 
L 634 -789 
C 634 -1031 608 -1063 198 -1063 
L 198 -1228 
C 352 -1216 634 -1216 800 -1216 
C 966 -1216 1254 -1216 1408 -1228 
L 1408 -1063 
z
M 973 2012 
C 973 2102 973 2235 1222 2471 
C 1254 2497 1472 2688 1792 2688 
C 2259 2688 2643 2108 2643 1382 
C 2643 656 2234 64 1728 64 
C 1498 64 1248 172 1056 472 
C 973 612 973 650 973 752 
L 973 2012 
z
" transform="scale(0.015625)"/>
       <path id="CMR17-73" d="M 1978 2697 
C 1978 2813 1971 2819 1933 2819 
C 1907 2819 1901 2813 1824 2717 
C 1805 2691 1747 2626 1728 2601 
C 1523 2819 1235 2819 1126 2819 
C 416 2819 160 2447 160 2076 
C 160 1498 813 1365 998 1325 
C 1402 1243 1542 1217 1677 1101 
C 1760 1025 1901 884 1901 654 
C 1901 384 1747 38 1158 38 
C 602 38 403 460 288 1021 
C 269 1110 269 1117 218 1117 
C 166 1117 160 1110 160 983 
L 160 63 
C 160 -51 166 -58 205 -58 
C 237 -58 243 -51 275 0 
C 314 57 410 211 448 276 
C 576 103 800 -64 1158 -64 
C 1792 -64 2131 283 2131 784 
C 2131 1112 1958 1285 1875 1362 
C 1683 1561 1459 1606 1190 1657 
C 838 1735 390 1825 390 2217 
C 390 2383 480 2737 1126 2737 
C 1811 2737 1850 2094 1862 1888 
C 1869 1856 1901 1849 1920 1849 
C 1978 1849 1978 1869 1978 1978 
L 1978 2697 
z
" transform="scale(0.015625)"/>
       <path id="CMR17-28" d="M 1958 -1561 
C 1958 -1555 1958 -1542 1939 -1523 
C 1645 -1224 858 -407 858 1581 
C 858 3569 1632 4379 1946 4697 
C 1946 4704 1958 4717 1958 4736 
C 1958 4755 1939 4768 1914 4768 
C 1843 4768 1299 4296 986 3594 
C 666 2887 576 2199 576 1588 
C 576 1128 621 351 1005 -471 
C 1312 -1135 1837 -1600 1914 -1600 
C 1946 -1600 1958 -1587 1958 -1561 
z
" transform="scale(0.015625)"/>
       <path id="CMR17-29" d="M 1683 1581 
C 1683 2040 1638 2817 1254 3639 
C 947 4303 422 4768 346 4768 
C 326 4768 301 4761 301 4729 
C 301 4717 307 4710 314 4697 
C 621 4378 1402 3568 1402 1584 
C 1402 -407 627 -1217 314 -1537 
C 307 -1549 301 -1556 301 -1568 
C 301 -1600 326 -1600 346 -1600 
C 416 -1600 960 -1128 1274 -426 
C 1594 281 1683 969 1683 1581 
z
" transform="scale(0.015625)"/>
      </defs>
      <use xlink:href="#CMR17-54" transform="scale(0.996264)"/>
      <use xlink:href="#CMR17-65" transform="translate(58.702625 0)scale(0.996264)"/>
      <use xlink:href="#CMR17-6d" transform="translate(99.188286 0)scale(0.996264)"/>
      <use xlink:href="#CMR17-70" transform="translate(176.107875 0)scale(0.996264)"/>
      <use xlink:href="#CMR17-73" transform="translate(227.003245 0)scale(0.996264)"/>
      <use xlink:href="#CMR17-28" transform="translate(292.880549 0)scale(0.996264)"/>
      <use xlink:href="#CMR17-73" transform="translate(328.161317 0)scale(0.996264)"/>
      <use xlink:href="#CMR17-29" transform="translate(363.962655 0)scale(0.996264)"/>
     </g>
    </g>
   </g>
   <g id="matplotlib.axis_2">
    <g id="ytick_1">
     <g id="line2d_7">
      <defs>
       <path id="m35a501ecda" d="M 0 0 
L -3.5 0 
" style="stroke: #000000; stroke-width: 0.8"/>
      </defs>
      <g>
       <use xlink:href="#m35a501ecda" x="57.6" y="295.488002" style="stroke: #000000; stroke-width: 0.8"/>
      </g>
     </g>
     <g id="text_8">
      <!-- $\mathdefault{0.0000}$ -->
      <g transform="translate(22.925915 298.947251)scale(0.1 -0.1)">
       <defs>
        <path id="CMMI12-3a" d="M 1178 307 
C 1178 492 1024 619 870 619 
C 685 619 557 466 557 313 
C 557 128 710 0 864 0 
C 1050 0 1178 153 1178 307 
z
" transform="scale(0.015625)"/>
       </defs>
       <use xlink:href="#CMR17-30" transform="scale(0.996264)"/>
       <use xlink:href="#CMMI12-3a" transform="translate(45.690477 0)scale(0.996264)"/>
       <use xlink:href="#CMR17-30" transform="translate(72.787654 0)scale(0.996264)"/>
       <use xlink:href="#CMR17-30" transform="translate(118.478131 0)scale(0.996264)"/>
       <use xlink:href="#CMR17-30" transform="translate(164.168608 0)scale(0.996264)"/>
       <use xlink:href="#CMR17-30" transform="translate(209.859086 0)scale(0.996264)"/>
      </g>
     </g>
    </g>
    <g id="ytick_2">
     <g id="line2d_8">
      <g>
       <use xlink:href="#m35a501ecda" x="57.6" y="243.20452" style="stroke: #000000; stroke-width: 0.8"/>
      </g>
     </g>
     <g id="text_9">
      <!-- $\mathdefault{0.0005}$ -->
      <g transform="translate(22.925915 246.663769)scale(0.1 -0.1)">
       <use xlink:href="#CMR17-30" transform="scale(0.996264)"/>
       <use xlink:href="#CMMI12-3a" transform="translate(45.690477 0)scale(0.996264)"/>
       <use xlink:href="#CMR17-30" transform="translate(72.787654 0)scale(0.996264)"/>
       <use xlink:href="#CMR17-30" transform="translate(118.478131 0)scale(0.996264)"/>
       <use xlink:href="#CMR17-30" transform="translate(164.168608 0)scale(0.996264)"/>
       <use xlink:href="#CMR17-35" transform="translate(209.859086 0)scale(0.996264)"/>
      </g>
     </g>
    </g>
    <g id="ytick_3">
     <g id="line2d_9">
      <g>
       <use xlink:href="#m35a501ecda" x="57.6" y="190.921039" style="stroke: #000000; stroke-width: 0.8"/>
      </g>
     </g>
     <g id="text_10">
      <!-- $\mathdefault{0.0010}$ -->
      <g transform="translate(22.925915 194.380288)scale(0.1 -0.1)">
       <use xlink:href="#CMR17-30" transform="scale(0.996264)"/>
       <use xlink:href="#CMMI12-3a" transform="translate(45.690477 0)scale(0.996264)"/>
       <use xlink:href="#CMR17-30" transform="translate(72.787654 0)scale(0.996264)"/>
       <use xlink:href="#CMR17-30" transform="translate(118.478131 0)scale(0.996264)"/>
       <use xlink:href="#CMR17-31" transform="translate(164.168608 0)scale(0.996264)"/>
       <use xlink:href="#CMR17-30" transform="translate(209.859086 0)scale(0.996264)"/>
      </g>
     </g>
    </g>
    <g id="ytick_4">
     <g id="line2d_10">
      <g>
       <use xlink:href="#m35a501ecda" x="57.6" y="138.637557" style="stroke: #000000; stroke-width: 0.8"/>
      </g>
     </g>
     <g id="text_11">
      <!-- $\mathdefault{0.0015}$ -->
      <g transform="translate(22.925915 142.096806)scale(0.1 -0.1)">
       <use xlink:href="#CMR17-30" transform="scale(0.996264)"/>
       <use xlink:href="#CMMI12-3a" transform="translate(45.690477 0)scale(0.996264)"/>
       <use xlink:href="#CMR17-30" transform="translate(72.787654 0)scale(0.996264)"/>
       <use xlink:href="#CMR17-30" transform="translate(118.478131 0)scale(0.996264)"/>
       <use xlink:href="#CMR17-31" transform="translate(164.168608 0)scale(0.996264)"/>
       <use xlink:href="#CMR17-35" transform="translate(209.859086 0)scale(0.996264)"/>
      </g>
     </g>
    </g>
    <g id="ytick_5">
     <g id="line2d_11">
      <g>
       <use xlink:href="#m35a501ecda" x="57.6" y="86.354076" style="stroke: #000000; stroke-width: 0.8"/>
      </g>
     </g>
     <g id="text_12">
      <!-- $\mathdefault{0.0020}$ -->
      <g transform="translate(22.925915 89.813325)scale(0.1 -0.1)">
       <use xlink:href="#CMR17-30" transform="scale(0.996264)"/>
       <use xlink:href="#CMMI12-3a" transform="translate(45.690477 0)scale(0.996264)"/>
       <use xlink:href="#CMR17-30" transform="translate(72.787654 0)scale(0.996264)"/>
       <use xlink:href="#CMR17-30" transform="translate(118.478131 0)scale(0.996264)"/>
       <use xlink:href="#CMR17-32" transform="translate(164.168608 0)scale(0.996264)"/>
       <use xlink:href="#CMR17-30" transform="translate(209.859086 0)scale(0.996264)"/>
      </g>
     </g>
    </g>
    <g id="text_13">
     <!-- $E_{e}$ (J) -->
     <g transform="translate(14.940859 195.831823)rotate(-90)scale(0.16 -0.16)">
      <defs>
       <path id="CMMI12-45" d="M 4448 1489 
C 4454 1508 4474 1554 4474 1579 
C 4474 1611 4448 1643 4410 1643 
C 4384 1643 4371 1637 4352 1617 
C 4339 1611 4339 1598 4282 1469 
C 3904 570 3629 185 2605 185 
L 1670 185 
C 1581 185 1568 185 1530 192 
C 1459 198 1453 211 1453 262 
C 1453 307 1466 345 1478 403 
L 1920 2176 
L 2554 2176 
C 3053 2176 3091 2066 3091 1874 
C 3091 1810 3091 1752 3046 1560 
C 3034 1534 3027 1508 3027 1489 
C 3027 1444 3059 1425 3098 1425 
C 3155 1425 3162 1469 3187 1559 
L 3552 3042 
C 3552 3073 3526 3105 3488 3105 
C 3430 3105 3424 3080 3398 2990 
C 3270 2501 3142 2361 2573 2361 
L 1965 2361 
L 2362 3930 
C 2419 4154 2432 4154 2694 4154 
L 3610 4154 
C 4397 4154 4557 3943 4557 3458 
C 4557 3451 4557 3273 4531 3062 
C 4525 3036 4518 2998 4518 2985 
C 4518 2934 4550 2915 4589 2915 
C 4634 2915 4659 2941 4672 3055 
L 4806 4174 
C 4806 4195 4819 4263 4819 4277 
C 4819 4352 4762 4352 4646 4352 
L 1523 4352 
C 1402 4352 1338 4352 1338 4229 
C 1338 4154 1382 4154 1491 4154 
C 1888 4154 1888 4114 1888 4052 
C 1888 4020 1882 3994 1862 3924 
L 998 473 
C 941 249 928 185 480 185 
C 358 185 294 185 294 70 
C 294 0 333 0 461 0 
L 3674 0 
C 3814 0 3821 6 3866 110 
L 4448 1489 
z
" transform="scale(0.015625)"/>
       <path id="CMMI12-65" d="M 1146 1479 
C 1318 1479 1754 1479 2061 1595 
C 2547 1783 2592 2158 2592 2274 
C 2592 2558 2349 2816 1926 2816 
C 1254 2816 288 2210 288 1073 
C 288 402 672 -64 1254 -64 
C 2125 -64 2675 609 2675 692 
C 2675 730 2637 762 2611 762 
C 2592 762 2586 756 2528 699 
C 2118 159 1510 64 1267 64 
C 902 64 710 350 710 822 
C 710 911 710 1071 806 1479 
L 1146 1479 
z
M 838 1600 
C 1114 2592 1722 2689 1926 2689 
C 2208 2689 2400 2522 2400 2277 
C 2400 1600 1376 1600 1107 1600 
L 838 1600 
z
" transform="scale(0.015625)"/>
       <path id="CMR17-4a" d="M 1888 910 
C 1888 324 1568 -26 1242 -26 
C 1075 -26 691 49 525 431 
C 550 425 582 418 608 418 
C 730 418 883 501 883 692 
C 883 845 774 960 614 960 
C 461 960 339 865 339 682 
C 339 258 730 -128 1254 -128 
C 1754 -128 2214 229 2291 764 
C 2298 809 2298 821 2298 1038 
L 2298 3715 
C 2298 3823 2298 4001 2310 4039 
C 2336 4160 2483 4160 2682 4160 
L 2682 4320 
C 2669 4320 2214 4320 2054 4320 
C 1786 4320 1491 4320 1222 4320 
L 1222 4160 
L 1376 4160 
C 1875 4160 1888 4090 1888 3861 
L 1888 910 
z
" transform="scale(0.015625)"/>
      </defs>
      <use xlink:href="#CMMI12-45" transform="scale(0.996264)"/>
      <use xlink:href="#CMMI12-65" transform="translate(72.211218 -14.943915)scale(0.697382)"/>
      <use xlink:href="#CMR17-28" transform="translate(134.433572 0)scale(0.996264)"/>
      <use xlink:href="#CMR17-4a" transform="translate(169.71434 0)scale(0.996264)"/>
      <use xlink:href="#CMR17-29" transform="translate(216.68613 0)scale(0.996264)"/>
     </g>
    </g>
   </g>
   <g id="line2d_12">
    <path d="M 73.832727 295.480064 
L 82.597359 295.477049 
L 88.389045 295.487433 
L 94.257795 295.315504 
L 94.805677 295.282818 
L 95.745196 295.254629 
L 95.979975 295.247299 
L 97.193314 295.120699 
L 97.349442 295.118825 
L 98.092917 295.044067 
L 98.406345 295.016911 
L 98.56247 294.960179 
L 98.875672 294.930605 
L 98.953148 295.044067 
L 99.187927 294.900224 
L 99.345225 294.914133 
L 99.422701 294.960179 
L 99.580327 294.804244 
L 99.736453 294.837044 
L 100.127357 294.787542 
L 101.066169 294.664986 
L 101.30186 294.628156 
L 102.670633 294.528625 
L 103.57036 294.411182 
L 103.727658 294.452445 
L 104.627142 294.304496 
L 104.784444 294.355557 
L 104.97931 294.30995 
L 107.757584 293.978971 
L 107.913711 293.954208 
L 108.657242 293.853139 
L 109.674637 293.728933 
L 109.949406 293.711582 
L 115.50561 292.631275 
L 115.661749 292.597241 
L 116.444485 292.528569 
L 116.679071 292.459091 
L 118.831084 292.136462 
L 118.909735 292.062551 
L 119.104599 292.062551 
L 119.30075 292.033908 
L 119.496789 291.912308 
L 119.574277 292.025292 
L 119.652728 291.950171 
L 119.848755 291.912308 
L 120.2009 291.79751 
L 120.357066 291.79751 
L 120.435717 291.719971 
L 120.514367 291.874244 
L 120.709136 291.586303 
L 121.139941 291.641625 
L 121.336084 291.511164 
L 121.844361 291.401751 
L 121.92259 291.482515 
L 122.1969 291.350864 
L 122.431675 291.279093 
L 122.822578 291.279093 
L 122.978706 291.196314 
L 123.057357 291.279093 
L 123.136006 291.150822 
L 123.292132 291.237804 
L 124.074898 290.857135 
L 124.152375 290.943139 
L 124.231025 290.770325 
L 124.309675 290.857135 
L 124.387152 290.857135 
L 124.544453 290.594286 
L 124.621928 290.857135 
L 124.817968 290.682709 
L 124.896617 290.415023 
L 125.052747 290.505058 
L 125.131395 290.369704 
L 125.20887 290.594286 
L 125.287382 290.27846 
L 125.404768 290.381052 
L 125.560905 290.140083 
L 125.639558 290.232536 
L 125.718215 290.140083 
L 125.874354 290.18641 
L 126.070469 290.046823 
L 126.147946 290.093554 
L 126.305247 289.952758 
L 126.461373 289.857887 
L 126.970605 289.762209 
L 127.048081 289.810149 
L 127.126731 289.665726 
L 127.205381 289.714068 
L 127.909817 289.617181 
L 128.379156 289.42099 
L 128.496786 289.494939 
L 128.652912 289.371438 
L 129.357242 289.27173 
L 129.43472 289.134465 
L 129.513369 289.221573 
L 129.669496 289.171215 
L 129.748146 289.221573 
L 129.826796 289.069895 
L 130.140009 289.082604 
L 130.296136 288.967768 
L 130.726867 288.864836 
L 130.844256 288.926692 
L 131.000383 288.708925 
L 131.079033 288.761097 
L 131.15651 288.603977 
L 131.352557 288.656552 
L 131.431209 288.656552 
L 131.508699 288.445043 
L 131.587357 288.551201 
L 131.939677 288.257328 
L 132.095818 288.230311 
L 132.253083 288.176123 
L 132.643992 288.012353 
L 133.152282 287.95736 
L 133.269671 287.768876 
L 133.465725 287.791171 
L 133.661755 287.721391 
L 133.739245 287.861897 
L 133.974026 287.679371 
L 134.287458 287.566765 
L 134.522249 287.510159 
L 134.678376 287.453352 
L 134.757026 287.510159 
L 134.834502 287.396344 
L 134.913153 287.453352 
L 135.187841 287.281722 
L 135.265318 287.108278 
L 135.343967 287.339134 
L 135.421445 287.224109 
L 135.500095 287.166294 
L 135.696133 287.245083 
L 135.969648 287.108278 
L 136.048299 287.224109 
L 136.125776 287.166294 
L 136.283075 287.166294 
L 136.439549 287.108278 
L 136.517025 286.991641 
L 136.595675 287.050061 
L 136.674326 287.108278 
L 137.26127 286.850613 
L 137.574697 286.874198 
L 138.121444 286.577064 
L 138.200092 286.636894 
L 138.43487 286.456799 
L 138.552258 286.430923 
L 138.630911 286.577064 
L 138.748439 286.411492 
L 138.825914 286.517032 
L 138.983226 286.456799 
L 139.060701 286.517032 
L 139.139351 286.396365 
L 139.217845 286.517032 
L 139.295323 286.456799 
L 139.373972 286.341249 
L 139.452627 286.456799 
L 139.60866 286.335729 
L 140.039486 286.22913 
L 140.195613 286.152611 
L 140.274334 286.213852 
L 140.547649 286.029525 
L 140.782427 285.96768 
L 141.095584 285.843385 
L 141.174234 285.843385 
L 141.251712 285.718283 
L 141.330361 285.780935 
L 141.409011 285.843385 
L 141.486489 285.592376 
L 141.643788 285.843385 
L 141.721264 285.718283 
L 141.799915 285.780935 
L 141.995954 285.671162 
L 142.15208 285.65543 
L 142.269469 285.680596 
L 142.34812 285.52912 
L 142.425595 285.592376 
L 142.542984 285.47837 
L 142.621635 285.592376 
L 142.739348 285.52912 
L 142.895472 285.180539 
L 142.974122 285.338142 
L 143.052772 285.27408 
L 143.208899 285.27408 
L 143.443676 285.015816 
L 143.522326 285.209817 
L 143.678747 285.015816 
L 143.756224 285.209817 
L 143.834877 284.950746 
L 143.913524 285.080685 
L 144.735207 284.885475 
L 144.812682 284.950746 
L 145.008724 284.820002 
L 145.087373 284.885475 
L 145.16485 284.688452 
L 145.243501 284.754328 
L 145.439537 284.688452 
L 145.595664 284.556095 
L 146.338497 284.406231 
L 146.455885 284.204824 
L 146.573273 284.382827 
L 146.730574 284.221677 
L 147.004491 284.221677 
L 147.160618 284.221677 
L 147.6299 284.154189 
L 147.7872 284.086499 
L 147.864677 284.154189 
L 148.021978 283.950515 
L 148.099455 284.018608 
L 148.178106 283.745028 
L 148.256755 283.813725 
L 148.374143 283.950515 
L 148.451619 283.882221 
L 148.647658 283.676129 
L 148.765047 283.796569 
L 148.843697 283.537726 
L 148.921173 283.745028 
L 149.038562 283.656406 
L 149.117212 283.258503 
L 149.195864 283.537726 
L 149.351989 283.046969 
L 149.430642 283.328611 
L 149.548029 283.064666 
L 149.625505 283.258503 
L 149.821543 283.046969 
L 149.97767 283.046969 
L 150.095258 283.011537 
L 150.173908 282.61846 
L 150.251386 283.046969 
L 150.408686 282.182697 
L 150.564813 282.546337 
L 150.643462 282.182697 
L 150.720941 282.414687 
L 150.799589 282.03583 
L 150.878239 282.474012 
L 151.034366 281.888157 
L 151.113016 282.03583 
L 151.190708 282.109364 
L 151.269355 281.814018 
L 151.386745 281.980547 
L 151.504132 281.702432 
L 151.582784 281.739678 
L 151.738909 281.739678 
L 151.817558 281.529089 
L 151.895037 281.590392 
L 152.012425 281.421483 
L 152.091144 281.590392 
L 152.404145 281.1377 
L 152.638923 281.061546 
L 152.952291 280.866789 
L 153.029768 280.908633 
L 153.225807 280.735642 
L 153.499323 280.754914 
L 153.695557 280.600389 
L 153.773034 280.754914 
L 153.851686 280.522824 
L 153.969073 280.619748 
L 154.047723 280.445057 
L 154.125199 280.677752 
L 154.2825 280.28892 
L 154.438904 280.445057 
L 154.634944 280.005841 
L 154.71242 280.131977 
L 154.947199 279.89505 
L 155.533867 279.736091 
L 155.612282 279.815671 
L 155.847694 279.656309 
L 156.082471 279.656309 
L 156.159949 279.335167 
L 156.238597 279.496141 
L 156.317247 279.415755 
L 156.513198 279.254378 
L 156.590674 279.415755 
L 156.669324 279.092194 
L 156.942839 279.232309 
L 157.021489 278.929205 
L 157.099921 279.173387 
L 157.177396 278.929205 
L 157.256046 279.092194 
L 157.412173 278.765409 
L 158.195153 278.765409 
L 158.273804 278.600807 
L 158.391192 278.730205 
L 158.547319 278.435399 
L 158.62597 278.518204 
L 158.86058 278.352393 
L 158.93923 278.518204 
L 159.095356 278.269185 
L 159.172832 278.269185 
L 159.40761 278.018353 
L 159.524998 278.206647 
L 159.799688 277.850124 
L 159.877163 277.934339 
L 160.034464 277.681088 
L 160.11194 277.934339 
L 160.190591 277.850124 
L 160.699123 277.681088 
L 160.77713 277.765707 
L 160.855777 277.426023 
L 160.934428 277.681088 
L 161.090559 277.426023 
L 161.286595 277.340599 
L 161.598849 277.340599 
L 161.75615 277.169145 
L 162.186729 276.893142 
L 162.304165 277.100338 
L 162.460288 276.736983 
L 162.538938 276.855345 
L 162.695065 276.736983 
L 162.773717 276.823819 
L 162.851194 276.649946 
L 162.929842 276.823819 
L 163.008492 276.736983 
L 163.085969 276.649946 
L 163.16462 276.736983 
L 163.243269 276.562708 
L 163.320745 276.649946 
L 163.399396 276.736983 
L 163.478047 276.379649 
L 163.595377 276.671725 
L 163.672853 276.387626 
L 163.751503 276.562708 
L 163.907629 276.211739 
L 164.024842 276.34373 
L 164.182142 276.035045 
L 164.259619 276.211739 
L 164.377007 275.946396 
L 164.455658 276.035045 
L 164.534308 276.123493 
L 164.690434 275.857545 
L 164.769085 275.946396 
L 165.121563 275.703601 
L 165.27769 275.946396 
L 165.551205 275.410269 
L 165.708505 275.679239 
L 165.785982 275.500127 
L 165.864632 275.679239 
L 166.216798 275.589784 
L 166.334186 275.612167 
L 166.412838 275.320209 
L 166.490313 275.410269 
L 166.920876 275.312012 
L 167.077015 275.04882 
L 167.156214 275.229947 
L 167.312342 275.04882 
L 167.429846 275.071505 
L 167.585973 274.866886 
L 167.938521 274.775617 
L 168.133387 274.684147 
L 168.212483 274.775617 
L 168.485997 274.51732 
L 168.682036 274.592475 
L 169.190328 274.500601 
L 169.268979 274.316249 
L 169.346456 274.408526 
L 169.425106 274.408526 
L 169.659882 274.131091 
L 169.738532 274.131091 
L 169.816008 274.316249 
L 169.973309 273.945127 
L 170.285562 274.131091 
L 170.481601 273.851842 
L 170.716377 273.758356 
L 170.795028 273.664669 
L 170.872504 273.758356 
L 171.029805 273.476689 
L 171.22565 273.547276 
L 171.303126 273.476689 
L 171.381777 273.57078 
L 171.537902 273.399556 
L 171.616553 273.57078 
L 171.772682 273.296502 
L 171.851329 273.476689 
L 172.007456 273.193208 
L 172.086106 273.287903 
L 172.242234 273.098312 
L 172.438273 273.117307 
L 172.555661 272.836307 
L 172.634311 273.098312 
L 172.711789 273.003213 
L 172.790437 272.620805 
L 172.86909 272.812412 
L 172.946565 272.71671 
L 173.025214 272.524699 
L 173.102979 272.71671 
L 173.181629 272.524699 
L 173.260282 272.620805 
L 173.337756 272.620805 
L 173.416406 272.331883 
L 173.495059 272.428392 
L 173.612447 272.331883 
L 173.689923 272.428392 
L 173.924698 272.041147 
L 174.042088 272.041147 
L 174.120792 271.828563 
L 174.199444 271.943832 
L 174.276921 271.846315 
L 174.355572 271.552556 
L 174.434221 271.61502 
L 174.511696 271.650677 
L 174.74623 271.355709 
L 174.863618 271.572197 
L 175.059656 271.23227 
L 175.138306 270.959597 
L 175.215783 271.256983 
L 175.294432 271.058927 
L 175.373083 271.158056 
L 175.450559 271.256983 
L 175.802724 270.860065 
L 175.920113 270.951948 
L 176.116151 270.359382 
L 176.389983 270.760331 
L 176.468633 270.056554 
L 176.547283 270.423385 
L 176.62476 270.157698 
L 176.742148 270.710389 
L 176.899449 269.649962 
L 177.016837 269.955208 
L 177.094313 269.853661 
L 177.172963 269.445457 
L 177.290352 269.802812 
L 177.369003 269.314897 
L 177.446479 269.445457 
L 177.563867 269.188692 
L 177.642518 269.445457 
L 177.838556 269.034028 
L 178.112392 269.075316 
L 178.189867 268.827104 
L 178.268518 269.034028 
L 178.385906 268.645385 
L 178.542035 268.864787 
L 178.699333 268.306268 
L 178.855459 268.72334 
L 178.972734 268.567316 
L 179.051386 268.096523 
L 179.12886 268.410838 
L 179.286161 267.991348 
L 179.363638 268.096523 
L 179.598414 267.780394 
L 179.677065 267.991348 
L 179.794455 267.938685 
L 179.95058 267.674614 
L 180.06786 267.621649 
L 180.185249 267.701078 
L 180.420024 267.356067 
L 180.577324 267.462451 
L 180.733451 267.356067 
L 180.812102 267.462451 
L 181.046878 267.249481 
L 181.633648 267.142694 
L 181.789774 266.928515 
L 181.868424 267.025969 
L 182.024551 266.928515 
L 182.14194 266.982136 
L 182.220458 266.821124 
L 182.376585 266.928515 
L 182.493972 266.59032 
L 182.572624 266.71353 
L 182.807569 266.497739 
L 182.88622 266.497739 
L 182.963696 266.71353 
L 183.119824 266.063739 
L 183.198474 266.605736 
L 183.277123 266.497739 
L 183.473163 266.172541 
L 183.550639 266.281142 
L 183.629289 266.063739 
L 183.706765 266.172541 
L 183.785388 266.063739 
L 183.864036 266.172541 
L 183.942686 265.954735 
L 184.020164 266.172541 
L 184.332876 265.845529 
L 184.411526 265.845529 
L 184.490178 266.063739 
L 184.567651 265.954735 
L 184.802429 265.626514 
L 184.919819 265.59908 
L 185.037205 265.434214 
L 185.115856 265.626514 
L 185.389371 265.296479 
L 185.467753 265.406692 
L 185.625054 265.296479 
L 185.742444 265.230254 
L 185.81992 264.853611 
L 185.898571 265.075448 
L 185.977219 264.96463 
L 186.054695 265.075448 
L 186.406861 264.74239 
L 186.564065 264.74239 
L 186.681453 264.630967 
L 186.75893 264.805969 
L 186.83758 264.74239 
L 186.916232 264.74239 
L 186.993707 264.519343 
L 187.072356 264.630967 
L 187.228484 264.397342 
L 187.307135 264.407518 
L 187.46326 264.295491 
L 187.54191 264.519343 
L 187.62056 264.183263 
L 187.698037 264.295491 
L 187.776687 264.275101 
L 187.932814 264.070832 
L 188.011463 264.183263 
L 188.36363 263.783738 
L 188.598406 263.958201 
L 188.754534 263.505659 
L 188.833183 263.619097 
L 188.98931 263.619097 
L 189.145745 263.278179 
L 189.224396 263.505659 
L 189.577002 263.164137 
L 189.69439 263.249688 
L 189.771867 263.164137 
L 189.85052 263.278179 
L 189.929168 262.705952 
L 190.006646 263.049893 
L 190.437459 262.705952 
L 190.51611 262.360198 
L 190.593588 262.475651 
L 190.672238 262.244543 
L 190.750615 262.475651 
L 190.906742 262.244543 
L 190.985394 262.360198 
L 191.064042 262.244543 
L 191.181431 262.302396 
L 191.337559 262.128687 
L 191.416209 262.244543 
L 191.493684 262.01263 
L 191.572335 262.360198 
L 191.728463 262.01263 
L 191.885761 262.128687 
L 191.96324 261.89637 
L 192.159277 262.078973 
L 192.237926 261.89637 
L 192.315403 262.01263 
L 192.550183 261.867274 
L 192.628833 262.01263 
L 192.824871 261.663248 
L 192.980722 261.663248 
L 193.098112 261.341387 
L 193.176762 261.652632 
L 193.255412 261.269359 
L 193.567665 261.429319 
L 193.646316 261.312052 
L 193.724967 260.840969 
L 193.881093 261.194583 
L 193.95885 260.840969 
L 194.037501 261.076913 
L 194.116151 260.959042 
L 194.193628 260.604219 
L 194.272202 260.722695 
L 194.350853 260.625775 
L 194.50698 260.840969 
L 194.820406 260.247581 
L 194.976533 260.604219 
L 195.132659 260.008815 
L 195.28996 260.247581 
L 195.367436 259.769243 
L 195.484826 259.984894 
L 195.641274 259.287681 
L 195.719924 259.649155 
L 195.798574 259.528865 
L 195.993439 259.528865 
L 196.268134 258.681194 
L 196.345624 258.924393 
L 196.424306 258.559292 
L 196.541487 258.812247 
L 196.658937 258.284275 
L 196.737424 258.559292 
L 196.816073 258.437188 
L 196.89355 258.069668 
L 197.011292 258.100364 
L 197.089942 257.857243 
L 197.167418 258.125469 
L 197.246067 258.069668 
L 197.324719 258.069668 
L 197.402195 258.314883 
L 197.480843 257.72277 
L 197.559494 257.823647 
L 197.676818 258.008238 
L 197.754296 257.946758 
L 197.832944 257.57682 
L 197.911596 257.700334 
L 197.989071 257.700334 
L 198.067722 257.329186 
L 198.146372 257.453104 
L 198.223851 257.57682 
L 198.302499 257.205067 
L 198.458627 257.453104 
L 198.576017 257.329186 
L 198.733091 257.080747 
L 198.811744 256.956225 
L 198.929133 257.055859 
L 199.006611 256.706576 
L 199.085443 256.956225 
L 199.241569 256.330592 
L 199.397696 256.501719 
L 199.476346 256.330592 
L 199.554995 256.58145 
L 199.711123 256.330592 
L 199.789773 256.58145 
L 199.945899 256.330592 
L 200.024452 256.58145 
L 200.180579 256.204861 
L 200.259229 256.204861 
L 200.33775 256.330592 
L 200.532613 255.952794 
L 200.611264 256.069233 
L 200.689915 256.078928 
L 200.963429 255.836183 
L 201.042079 255.826458 
L 201.315594 255.446241 
L 201.394245 255.826458 
L 201.550374 255.400031 
L 201.629022 255.446241 
L 201.706499 255.191756 
L 201.823887 255.400031 
L 201.902948 255.344544 
L 201.980424 255.064211 
L 202.059076 255.446241 
L 202.176462 255.132914 
L 202.255112 255.191756 
L 202.41124 254.808516 
L 202.48989 255.191756 
L 202.567368 255.064211 
L 202.919533 254.936464 
L 202.998183 254.680367 
L 203.154309 254.936464 
L 203.389086 254.712423 
L 203.663292 254.703682 
L 203.898069 254.165753 
L 204.054203 254.552016 
L 204.288989 253.647915 
L 204.485045 254.01074 
L 204.602432 254.036596 
L 204.719821 253.842482 
L 204.798484 253.126852 
L 204.875961 253.292994 
L 205.072003 253.387786 
L 205.22813 252.865111 
L 205.345518 253.452894 
L 205.424169 253.387786 
L 205.658946 252.602565 
L 205.776334 252.865111 
L 205.972373 252.075053 
L 206.284627 252.075053 
L 206.480665 251.277739 
L 206.559316 251.277739 
L 206.715722 252.075053 
L 206.793198 251.411129 
L 206.871849 251.677303 
L 206.989237 250.976876 
L 207.067707 251.411129 
L 207.145184 250.742166 
L 207.302485 251.544316 
L 207.379963 250.876362 
L 207.45861 251.010356 
L 207.614739 250.607769 
L 207.693391 250.742166 
L 207.810786 250.693318 
L 208.045575 250.203368 
L 208.515027 250.203368 
L 208.672326 250.068165 
L 209.023319 249.797154 
L 209.101969 249.93276 
L 209.219356 249.763221 
L 209.298008 249.93276 
L 209.493288 249.552555 
L 209.649417 249.661346 
L 209.806715 249.252713 
L 209.924104 249.457256 
L 210.00158 249.389126 
L 210.315007 248.979284 
L 210.393657 248.979284 
L 210.471134 248.767445 
L 210.628434 248.979284 
L 210.784563 248.705048 
L 210.863211 248.705048 
L 210.940688 248.567628 
L 211.215211 248.567628 
L 211.371338 248.292183 
L 211.449988 248.567628 
L 211.567377 248.223196 
L 211.646029 248.430006 
L 212.037133 248.166715 
L 212.154522 248.236998 
L 212.231998 247.877505 
L 212.31065 248.015932 
L 212.389298 247.877505 
L 212.466775 248.154159 
L 212.624076 247.461012 
L 212.701552 247.600044 
L 212.858852 247.461012 
L 212.976242 247.39142 
L 213.053717 247.600044 
L 213.132369 247.042706 
L 213.211202 247.321778 
L 213.523455 247.077634 
L 213.601755 246.622586 
L 213.71965 247.126512 
L 213.837034 246.730482 
L 213.914509 246.859799 
L 213.993159 247.042706 
L 214.189198 246.341498 
L 214.266674 246.622586 
L 214.345235 246.341498 
L 214.501472 246.482142 
L 215.049616 245.918355 
L 215.128267 245.493398 
L 215.205744 245.635252 
L 215.284397 245.493398 
L 215.363048 245.066627 
L 215.441644 245.351342 
L 215.59777 245.066627 
L 215.753896 245.351342 
L 215.988792 245.066627 
L 216.107354 245.105499 
L 216.184828 244.781106 
L 216.262305 244.923967 
L 216.340955 244.923967 
L 216.419605 244.781106 
L 216.497084 244.923967 
L 216.654386 244.373397 
L 216.73186 244.638043 
L 216.81051 244.494778 
L 216.889161 244.063775 
L 217.006547 244.293869 
L 217.084024 244.011409 
L 217.195544 244.293869 
L 217.318837 243.919705 
L 217.671003 243.341406 
L 217.749653 243.630959 
L 218.023168 243.222721 
L 218.10182 243.341406 
L 218.180471 243.196328 
L 218.336529 243.341406 
L 218.415181 243.196328 
L 218.571306 243.341406 
L 218.649957 242.759884 
L 218.806084 243.341406 
L 218.884733 242.759884 
L 218.962209 242.905567 
L 219.119511 242.613999 
L 219.196986 242.905567 
L 219.275636 242.74663 
L 219.35353 242.175137 
L 219.432556 242.613999 
L 219.54937 242.467913 
L 219.666759 242.655701 
L 219.901535 241.948348 
L 220.058835 242.175137 
L 220.371096 241.587165 
L 220.449745 241.73446 
L 220.528228 241.439668 
L 220.605703 241.587165 
L 220.684365 241.439668 
L 220.763001 240.995969 
L 220.840485 241.439668 
L 221.114788 240.847666 
L 221.193441 240.995969 
L 221.388302 241.14407 
L 221.662403 240.103128 
L 221.740512 240.550455 
L 221.819155 240.103128 
L 221.897804 240.699161 
L 222.053929 239.803903 
L 222.13258 240.401548 
L 222.210056 240.252439 
L 222.288706 239.803903 
L 222.367359 239.953616 
L 222.562222 239.691485 
L 222.67961 239.803903 
L 222.758099 239.503871 
L 222.875488 239.611118 
L 222.954138 239.503871 
L 223.031615 239.803903 
L 223.110266 239.203033 
L 223.188915 239.353553 
L 223.266391 239.353553 
L 223.345041 239.052312 
L 223.501168 239.353553 
L 223.658469 238.901389 
L 223.735945 239.052312 
L 223.931985 238.788064 
L 224.010636 238.901389 
L 224.205501 238.707049 
L 224.245411 238.750265 
L 224.323162 238.295682 
L 224.401812 238.447411 
L 224.753978 237.99162 
L 224.832628 238.295682 
L 224.988065 237.99162 
L 225.145364 238.143752 
L 225.301491 237.99162 
L 225.380141 238.143752 
L 225.457617 237.99162 
L 225.653655 238.143752 
L 225.849696 237.763044 
L 225.928136 237.839286 
L 226.084264 237.686751 
L 226.280303 237.686751 
L 226.475165 237.381076 
L 226.632466 237.381076 
L 226.788593 237.227937 
L 226.94472 237.227937 
L 227.102022 236.921053 
L 227.336623 236.767309 
L 227.414097 236.459215 
L 227.492747 236.865169 
L 227.805482 236.150316 
L 227.922872 236.150316 
L 228.00152 236.304867 
L 228.08017 236.150316 
L 228.196902 236.266248 
L 228.627716 235.840611 
L 228.706366 235.995564 
L 228.862493 235.995564 
L 228.941143 235.685456 
L 229.01862 235.995564 
L 229.097529 235.840611 
L 229.175006 235.995564 
L 229.684472 235.218782 
L 229.761948 235.530099 
L 229.919249 235.374541 
L 229.996725 235.374541 
L 230.114114 235.218782 
L 230.271414 234.906658 
L 230.506191 234.906658 
L 230.583671 235.06282 
L 230.740972 234.436961 
L 230.897099 234.750294 
L 231.053224 234.436961 
L 231.131875 234.593728 
L 231.327914 234.122821 
L 231.405389 234.279992 
L 231.484039 234.279992 
L 231.56269 234.122821 
L 231.640167 234.279992 
L 231.797467 233.96545 
L 231.953593 234.122821 
L 232.032244 233.96545 
L 232.109725 234.122821 
L 232.26665 233.650101 
L 232.345298 234.122821 
L 232.422774 233.807876 
L 232.540162 234.044161 
L 232.618812 233.807876 
L 232.697463 233.96545 
L 232.892326 233.096302 
L 233.049028 233.175567 
L 233.127676 232.540034 
L 233.283803 233.175567 
L 233.479842 232.540034 
L 233.557319 231.580688 
L 233.635973 232.858204 
L 233.792095 232.221058 
L 233.988135 231.901276 
L 234.066787 231.901276 
L 234.379038 230.937093 
L 234.536339 231.259293 
L 234.692463 230.937093 
L 234.771012 231.259293 
L 235.005789 230.290274 
L 235.161915 230.937093 
L 235.319217 230.290274 
L 235.396693 230.614086 
L 235.553184 230.128065 
L 235.631835 230.614086 
L 235.787961 229.803043 
L 235.94526 229.64023 
L 236.022738 229.803043 
L 236.140127 229.477215 
L 236.218775 229.803043 
L 236.374903 228.986962 
L 236.531156 229.313999 
L 236.609808 229.150581 
L 236.688457 229.313999 
L 236.765934 228.823141 
L 236.844585 228.986962 
L 236.961973 228.790352 
L 237.040624 229.150581 
L 237.118273 228.539703 
L 237.196924 228.659118 
L 237.353049 228.330469 
L 237.431699 228.330469 
L 237.510351 228.494894 
L 237.666477 228.165842 
L 237.745131 228.165842 
L 237.822605 227.835983 
L 237.979905 228.165842 
L 238.05738 228.001013 
L 238.136032 228.165842 
L 238.292144 227.505318 
L 238.409533 227.505318 
L 238.488184 227.007809 
L 238.566836 227.835983 
L 238.644313 226.675129 
L 238.762404 227.007809 
L 238.918533 226.174598 
L 239.035919 226.758375 
L 239.309436 225.756102 
L 239.388087 225.839902 
L 239.466737 225.336347 
L 239.544216 225.672252 
L 239.701514 225.336347 
L 239.778988 225.672252 
L 239.857638 225.091547 
L 239.936289 225.168093 
L 240.013768 225.168093 
L 240.171066 224.830979 
L 240.288454 225.125998 
L 240.523231 224.66212 
L 240.600708 224.723546 
L 240.875398 224.154333 
L 240.952872 224.154333 
L 241.031523 224.493059 
L 241.110174 223.984667 
L 241.305038 223.984667 
L 241.383688 223.613789 
L 241.501077 223.857286 
L 241.73637 223.474462 
L 241.853758 223.576648 
L 241.971147 223.218679 
L 242.166011 223.303991 
L 242.244663 223.303991 
L 242.400792 222.620089 
L 242.479442 223.133318 
L 242.752955 222.44861 
L 242.870343 222.705753 
L 242.948995 222.620089 
L 243.027646 222.620089 
L 243.10512 222.276929 
L 243.379811 222.791367 
L 243.535647 222.44861 
L 243.614298 222.44861 
L 243.691776 222.105047 
L 243.849072 222.276929 
L 243.926549 222.105047 
L 244.005202 222.276929 
L 244.161326 221.242613 
L 244.278715 221.795151 
L 244.357364 221.760678 
L 244.513491 221.242613 
L 244.709532 221.415503 
L 244.86667 220.896229 
L 244.944148 220.896229 
L 245.022799 221.069522 
L 245.101452 220.722734 
L 245.257576 221.069522 
L 245.413703 220.722734 
L 245.531089 220.896229 
L 245.68839 220.375141 
L 245.765866 220.549038 
L 245.844516 220.722734 
L 246.000645 220.375141 
L 246.07972 220.549038 
L 246.197107 220.449693 
L 246.274584 220.201042 
L 246.431884 220.375141 
L 246.50936 220.201042 
L 246.666661 220.422587 
L 246.783796 220.244585 
L 246.861272 219.852239 
L 246.939923 220.026741 
L 247.018573 220.026741 
L 247.096049 219.677535 
L 247.174699 219.852239 
L 247.330826 219.50263 
L 247.526864 219.327523 
L 247.605516 219.152215 
L 247.761642 219.677535 
L 247.840292 218.976705 
L 247.95768 219.064485 
L 248.308956 218.976705 
L 248.387607 218.625081 
L 248.701036 218.705066 
L 248.77851 218.30793 
L 248.856953 218.625081 
L 249.091729 218.27265 
L 249.170381 218.625081 
L 249.24903 218.27265 
L 249.405157 218.448966 
L 249.483807 218.513031 
L 249.601196 218.197025 
L 249.678672 217.388048 
L 249.757322 218.096133 
L 249.913451 217.565371 
L 250.07075 217.919414 
L 250.148226 217.388048 
L 250.265614 217.476735 
L 250.50039 217.317062 
L 250.735168 216.676738 
L 250.813824 217.210523 
L 251.048595 216.319874 
L 251.32211 216.319874 
L 251.439498 216.189905 
L 251.518425 216.370904 
L 251.674549 216.14114 
L 251.753202 216.319874 
L 251.987976 216.033802 
L 252.105365 216.006957 
L 252.182842 216.14114 
L 252.261492 215.783066 
L 252.457428 215.962204 
L 252.692205 215.603727 
L 252.809593 215.87266 
L 252.965721 215.064501 
L 253.04437 215.783066 
L 253.200497 215.064501 
L 253.279149 215.244445 
L 253.356624 214.70401 
L 253.435275 214.884356 
L 253.513925 215.064501 
L 253.670051 214.70401 
L 253.748701 215.244445 
L 253.826177 214.523461 
L 253.943566 214.929411 
L 254.022216 214.424896 
L 254.100867 215.064501 
L 254.178344 214.342712 
L 254.256993 214.523461 
L 254.491771 214.227584 
L 254.647897 213.980608 
L 254.726819 213.43594 
L 254.804894 214.161761 
L 254.961021 213.253982 
L 255.039674 213.980608 
L 255.19581 213.071821 
L 255.274462 213.43594 
L 255.470507 213.43594 
L 255.547987 212.889459 
L 255.705291 213.43594 
L 255.82268 213.290389 
L 255.978808 212.706896 
L 256.057532 212.706896 
L 256.13501 212.524131 
L 256.21366 211.974627 
L 256.292309 212.157996 
L 256.369785 212.341164 
L 256.448437 211.974627 
L 256.565836 212.066337 
L 256.956749 211.607283 
L 257.152799 211.791055 
L 257.231448 211.440042 
L 257.348836 211.653245 
L 257.466226 211.081108 
L 257.543701 211.239133 
L 257.70101 211.423309 
L 258.013566 210.685396 
L 258.169693 210.870177 
L 258.326993 210.685396 
L 258.404755 210.634967 
L 258.483404 210.315231 
L 258.600792 210.685396 
L 258.835569 210.129846 
L 258.991695 210.315231 
L 259.070346 209.94426 
L 259.265211 210.129846 
L 259.343861 210.23099 
L 259.422512 209.572482 
L 259.617377 209.758472 
L 259.930803 209.572482 
L 260.009453 209.013305 
L 260.086931 209.572482 
L 260.24423 208.639512 
L 260.321709 209.386291 
L 260.479018 208.639512 
L 260.556497 208.826509 
L 260.713808 208.077311 
L 260.791284 208.826509 
L 260.948556 207.513296 
L 261.026034 208.639512 
L 261.183332 207.513296 
L 261.339461 207.701503 
L 261.495599 207.136279 
L 261.574258 206.964641 
L 261.770294 206.047864 
L 261.847771 205.81037 
L 261.965161 205.84839 
L 262.043821 206.379826 
L 262.122472 205.429725 
L 262.317346 205.620148 
L 262.395996 205.429725 
L 262.474645 204.666017 
L 262.552135 205.429725 
L 262.630804 204.857246 
L 262.748201 205.048274 
L 262.865589 204.474586 
L 262.94424 204.666017 
L 263.021717 204.474586 
L 263.100368 204.666017 
L 263.256494 203.321768 
L 263.33515 204.474586 
L 263.413802 203.321768 
L 263.491286 204.091119 
L 263.648583 202.742639 
L 263.72606 202.935883 
L 263.804719 203.514408 
L 263.960846 202.742639 
L 264.039495 202.549192 
L 264.235536 202.742639 
L 264.431337 202.742639 
L 264.50881 202.549192 
L 264.58746 202.742639 
L 264.664937 202.161695 
L 264.743587 202.742639 
L 264.822237 202.549192 
L 264.899714 202.161695 
L 265.018277 202.471757 
L 265.174403 201.773392 
L 265.251881 202.355545 
L 265.409181 201.773392 
L 265.486657 201.967644 
L 265.565307 201.384283 
L 265.643957 201.578938 
L 265.721433 202.161695 
L 265.800084 201.189426 
L 265.878734 201.578938 
L 265.996434 200.994367 
L 266.07391 201.578938 
L 266.152559 201.384283 
L 266.426075 200.799107 
L 266.543464 200.994367 
L 266.700763 200.799107 
L 266.93554 200.461365 
L 267.013019 200.659512 
L 267.091669 200.799107 
L 267.247795 200.407983 
L 267.326447 199.819784 
L 267.405038 200.407983 
L 267.482514 200.212118 
L 267.561164 200.212118 
L 267.639813 199.819784 
L 267.717291 200.016052 
L 267.874589 199.426644 
L 268.069456 199.426644 
L 268.226755 198.835423 
L 268.304232 199.229772 
L 268.539219 198.314367 
L 268.735268 198.637946 
L 268.812745 198.242387 
L 268.89141 198.637946 
L 269.165924 198.044306 
L 269.32205 198.440267 
L 269.400701 197.846023 
L 269.478179 198.098348 
L 269.557095 198.440267 
L 269.634572 197.846023 
L 269.713221 198.044306 
L 269.869347 197.846023 
L 269.947999 198.044306 
L 270.104124 197.448852 
L 270.182776 197.846023 
L 270.338951 197.448852 
L 270.45634 197.597886 
L 270.652379 197.448852 
L 270.730783 196.851585 
L 270.808259 197.448852 
L 270.96556 196.652092 
L 271.082948 196.811702 
L 271.160425 196.361562 
L 271.239076 196.851585 
L 271.356463 196.402444 
L 271.473853 196.402444 
L 271.629979 196.252503 
L 271.787279 196.252503 
L 271.864757 195.651608 
L 271.943419 196.052407 
L 272.060819 196.012363 
L 272.178218 195.737562 
L 272.256888 196.143385 
L 272.334677 195.651608 
L 272.413328 195.852108 
L 272.530717 195.924967 
L 272.608192 195.37057 
L 272.686871 195.651608 
L 272.804261 195.209799 
L 272.88291 195.651608 
L 273.000299 195.651608 
L 273.077776 194.847593 
L 273.235075 195.250004 
L 273.312552 195.250004 
L 273.391203 195.048899 
L 273.469853 195.450907 
L 273.625979 194.646086 
L 273.782104 194.847593 
L 273.860755 194.646086 
L 273.938556 195.048899 
L 274.095855 194.444377 
L 274.173332 194.646086 
L 274.565166 193.635525 
L 274.721291 194.040354 
L 274.799941 193.432808 
L 274.956067 194.040354 
L 275.073458 193.757058 
L 275.269496 193.183034 
L 275.348147 193.22989 
L 275.425621 193.635525 
L 275.504123 193.22989 
L 275.660248 193.635525 
L 275.738899 193.02677 
L 275.817549 193.22989 
L 275.895025 193.432808 
L 275.973676 193.02677 
L 276.129802 193.22989 
L 276.208453 192.823449 
L 276.287104 193.22989 
L 276.44323 192.823449 
L 276.560618 192.925135 
L 276.639268 192.619926 
L 276.716744 193.02677 
L 276.834133 192.314264 
L 277.030172 192.416202 
L 277.108544 192.416202 
L 277.187197 192.008148 
L 277.343321 192.416202 
L 277.499448 191.803819 
L 277.656748 192.008148 
L 277.734227 191.803819 
L 277.812877 192.008148 
L 278.047654 191.394557 
L 278.165041 191.548125 
L 278.399819 191.087081 
L 278.478467 191.189623 
L 278.555945 190.779151 
L 278.634596 191.189623 
L 278.791342 190.779151 
L 278.908739 190.984488 
L 278.986205 190.779151 
L 279.064856 191.189623 
L 279.143096 190.367873 
L 279.221743 190.573613 
L 279.377869 190.573613 
L 279.45652 190.779151 
L 279.533998 190.161932 
L 279.612646 190.367873 
L 279.808685 190.573613 
L 279.964811 189.955789 
L 280.043462 190.367873 
L 280.199589 189.542899 
L 280.278242 189.955789 
L 280.552043 189.129203 
L 280.630695 189.336151 
L 280.865474 188.922052 
L 280.942947 188.922052 
L 281.021597 188.7147 
L 281.216543 189.077434 
L 281.295191 188.7147 
L 281.373841 188.808976 
L 281.529968 188.507147 
L 281.726007 188.143443 
L 281.882133 188.299391 
L 282.156647 187.883277 
L 282.274036 188.299391 
L 282.351512 188.091435 
L 282.430163 187.466356 
L 282.508812 188.091435 
L 282.586289 187.048629 
L 282.703677 187.674917 
L 282.899717 187.048629 
L 282.978366 187.466356 
L 283.134494 186.630096 
L 283.290619 186.630096 
L 283.369269 186.420527 
L 283.525671 186.839463 
L 283.604318 185.790611 
L 283.681795 186.210756 
L 283.760447 186.210756 
L 283.839094 185.790611 
L 283.916574 186.210756 
L 284.19126 185.36966 
L 284.268738 185.790611 
L 284.426039 184.947902 
L 284.503514 185.36966 
L 284.582163 185.158881 
L 284.738293 185.36966 
L 284.855679 185.158881 
L 284.973067 184.434684 
L 285.05172 185.158881 
L 285.169394 184.04899 
L 285.246871 184.101968 
L 285.521561 183.889981 
L 285.599036 183.040017 
L 285.677687 183.889981 
L 285.912465 183.63533 
L 285.991114 183.040017 
L 286.108502 183.093234 
L 286.185981 182.613825 
L 286.264386 182.827022 
L 286.421687 182.14797 
L 286.499163 182.827022 
L 286.616551 182.613825 
L 286.852186 181.759024 
L 286.929662 182.186828 
L 287.164439 181.330414 
L 287.24309 181.330414 
L 287.321741 181.759024 
L 287.595254 181.115807 
L 287.751381 181.115807 
L 287.908682 180.685988 
L 287.986158 181.115807 
L 288.260796 180.274954 
L 288.338272 180.470776 
L 288.495573 180.437649 
L 288.651699 180.039748 
L 288.807826 180.470776 
L 288.886476 180.509921 
L 289.121253 179.553878 
L 289.199904 179.607914 
L 289.35603 179.823932 
L 289.708195 178.741827 
L 289.786847 179.175273 
L 289.942941 178.741827 
L 290.021589 179.175273 
L 290.256366 178.307574 
L 290.373755 178.741827 
L 290.45123 177.198566 
L 290.568619 177.959592 
L 290.803396 176.999979 
L 290.960698 176.999979 
L 291.038173 177.43665 
L 291.116266 176.124219 
L 291.194917 176.999979 
L 291.312307 176.687578 
L 291.429694 176.912548 
L 291.586751 175.685129 
L 291.703566 175.860862 
L 291.782217 176.562502 
L 291.859692 175.245234 
L 291.938343 175.465282 
L 292.094482 176.124219 
L 292.173472 174.804532 
L 292.250961 175.024983 
L 292.329608 175.045015 
L 292.408261 174.804532 
L 292.485749 175.245234 
L 292.564399 174.141968 
L 292.720526 175.245234 
L 292.799185 173.699251 
L 292.877913 174.141968 
L 292.956413 174.141968 
L 293.112539 173.255727 
L 293.268665 173.47759 
L 293.347316 173.255727 
L 293.503691 173.47759 
L 293.582342 172.811398 
L 293.659819 173.033664 
L 293.738469 173.356599 
L 293.817119 172.554688 
L 293.894595 173.033664 
L 294.051897 172.588931 
L 294.169284 173.033664 
L 294.404061 172.588931 
L 294.716138 172.588931 
L 294.833525 172.143393 
L 294.990827 172.588931 
L 295.108214 172.477622 
L 295.18569 172.588931 
L 295.264341 171.920321 
L 295.38173 172.143393 
L 295.46038 171.473573 
L 295.537856 171.920321 
L 295.695156 171.249897 
L 295.772636 171.920321 
L 295.851283 171.697048 
L 296.086449 171.249897 
L 296.321226 171.249897 
L 296.398703 170.92419 
L 296.477355 171.026019 
L 296.556003 170.80194 
L 296.63348 171.026019 
L 296.790782 170.577659 
L 296.868257 170.67963 
L 297.221484 170.128493 
L 297.298962 169.903608 
L 297.377613 170.577659 
L 297.533738 170.128493 
L 297.612388 169.903608 
L 297.69104 170.128493 
L 297.807252 169.993586 
L 297.924898 170.032139 
L 298.159674 169.813597 
L 298.277063 169.813597 
L 298.394451 169.453233 
L 298.51184 169.453233 
L 298.629228 168.911718 
L 298.746617 169.272857 
L 298.864005 168.714516 
L 299.098782 168.911718 
L 299.21617 168.550064 
L 299.450947 169.066555 
L 299.569205 168.187893 
L 299.92137 168.187893 
L 300.156147 167.416568 
L 300.233624 168.09727 
L 300.351012 167.462004 
L 300.468402 167.825207 
L 300.585791 167.364131 
L 300.703186 167.462004 
L 300.820574 167.098286 
L 300.937963 167.462004 
L 301.055352 166.961759 
L 301.134311 167.573814 
L 301.211788 166.961759 
L 301.29044 167.189264 
L 301.44658 166.734052 
L 301.721198 166.147595 
L 302.033401 165.638254 
L 302.112053 165.987421 
L 302.463673 165.271956 
L 302.542322 165.488467 
L 302.659709 164.905142 
L 302.777094 165.167205 
L 302.894483 164.905142 
L 303.011873 164.970683 
L 303.129262 164.577194 
L 303.364036 164.537812 
L 303.481426 163.985851 
L 303.716204 164.183113 
L 303.950712 163.773248 
L 304.302879 162.921123 
L 304.420629 162.997317 
L 304.655406 162.494029 
L 304.773241 162.707662 
L 304.890629 162.40242 
L 305.008018 162.494029 
L 305.59496 161.580601 
L 305.829738 161.637782 
L 306.064514 161.407964 
L 306.299291 161.423291 
L 306.416679 160.993794 
L 306.534068 161.208628 
L 306.768845 160.56361 
L 306.886233 160.993794 
L 307.121011 160.132739 
L 307.238399 160.409806 
L 307.472781 159.485144 
L 307.590182 159.936661 
L 307.707569 159.701181 
L 307.824957 159.809135 
L 308.059436 159.052556 
L 308.294213 159.268936 
L 308.4116 158.805054 
L 308.52899 158.836004 
L 308.763767 157.931857 
L 308.921069 159.006166 
L 309.038457 157.96808 
L 309.15473 158.185319 
L 309.389511 157.190826 
L 309.624286 157.315334 
L 309.742848 156.752009 
L 309.859968 156.879311 
L 309.977357 156.785788 
L 310.094743 156.223989 
L 310.212133 156.442602 
L 310.329522 156.005205 
L 310.44691 156.661042 
L 310.681685 156.343254 
L 310.915557 156.084783 
L 311.032945 155.786249 
L 311.267723 156.223989 
L 311.38511 156.005205 
L 311.619887 155.128352 
L 311.737276 155.363493 
L 311.855641 154.788832 
L 312.090417 155.128352 
L 312.559997 154.468909 
L 312.677385 154.468909 
L 312.912162 153.729128 
L 313.146941 153.587247 
L 313.381718 153.80792 
L 313.499107 153.524166 
L 313.616496 153.587247 
L 314.007625 152.908392 
L 314.125012 153.145386 
L 314.35979 152.924197 
L 314.477178 153.113798 
L 314.594566 152.259603 
L 314.711957 152.702838 
L 314.829345 151.982232 
L 314.946734 152.178941 
L 315.10286 151.259813 
L 315.220251 151.593462 
L 315.611061 150.639152 
L 315.728449 150.865001 
L 315.845835 151.053074 
L 316.62857 150.224639 
L 316.863347 150.293765 
L 316.980736 150.033125 
L 317.098124 150.256545 
L 317.215512 148.977544 
L 317.332901 150.05175 
L 317.567679 148.688996 
L 317.685066 149.809533 
L 317.919843 148.750226 
L 318.037231 148.464373 
L 318.15462 148.838648 
L 318.389396 148.351997 
L 318.506786 148.239579 
L 318.741798 147.113031 
L 318.859186 148.239579 
L 318.976576 147.725118 
L 319.093966 147.789475 
L 319.328742 146.435042 
L 319.446131 147.564165 
L 319.56352 146.887207 
L 319.680906 146.887207 
L 319.798296 146.435042 
L 319.915686 146.620102 
L 320.033072 145.528653 
L 320.15046 145.528653 
L 320.26785 144.847058 
L 320.385549 144.847058 
L 320.502948 145.012435 
L 320.737726 143.93586 
L 320.9725 143.250659 
L 321.089892 142.793 
L 321.207278 143.707632 
L 321.324666 143.087288 
L 321.442057 143.250659 
L 321.559444 142.334653 
L 321.676813 142.334653 
L 321.794203 142.793 
L 321.911372 142.662114 
L 322.146149 141.87562 
L 322.263538 142.334653 
L 322.615967 141.645846 
L 322.733356 141.87562 
L 322.850744 140.725032 
L 322.968132 141.4159 
L 323.085521 141.204965 
L 323.202909 140.263595 
L 323.320298 140.455944 
L 323.437686 140.205867 
L 323.555075 140.263595 
L 323.672463 139.705108 
L 323.90724 140.032618 
L 324.142017 139.570151 
L 324.259405 139.884043 
L 324.611572 138.643155 
L 324.728961 139.043786 
L 324.885087 139.024218 
L 325.120517 138.410977 
L 325.355294 138.643155 
L 325.590071 138.643155 
L 325.706807 138.410977 
L 325.824195 138.593417 
L 326.176361 137.441719 
L 326.293749 138.495425 
L 326.41114 137.671085 
L 326.528527 137.730038 
L 326.645912 137.24751 
L 326.763075 137.480546 
L 326.880473 137.120326 
L 326.997862 137.297461 
L 327.115261 137.24751 
L 327.232664 136.568608 
L 327.467448 136.780921 
L 327.584845 136.864291 
L 327.976926 135.996174 
L 328.211703 136.292389 
L 328.328247 136.568608 
L 328.680412 135.462293 
L 328.797801 135.845682 
L 329.032578 135.845682 
L 329.267354 134.630038 
L 329.384744 135.845682 
L 329.502131 135.739231 
L 329.854297 134.437673 
L 329.971432 134.907696 
L 330.088819 134.437673 
L 330.246121 134.471269 
L 330.363509 134.35214 
L 330.480898 134.074003 
L 330.637026 134.034249 
L 330.871803 133.25961 
L 331.10658 133.238151 
L 331.223968 133.023482 
L 331.341357 133.377609 
L 331.576151 132.550711 
L 331.693539 132.865968 
L 331.810929 132.787182 
L 331.928314 132.40014 
L 332.045703 132.679717 
L 332.280481 132.280248 
L 332.39787 132.679717 
L 332.515259 131.279435 
L 332.632646 131.365779 
L 332.750034 131.840267 
L 332.867423 131.620054 
L 333.102444 130.717643 
L 333.219332 130.890604 
L 333.806159 129.699662 
L 333.923545 130.176554 
L 334.275709 129.026511 
L 334.393098 128.264864 
L 334.510486 128.743817 
L 334.627875 128.299098 
L 334.746155 128.460882 
L 334.862965 127.545147 
L 334.980354 127.785224 
L 335.097741 127.545147 
L 335.21513 126.961387 
L 335.33252 127.545147 
L 335.606033 126.290533 
L 335.723422 126.342184 
L 335.84081 126.58312 
L 335.958198 126.342184 
L 336.075587 126.823884 
L 336.192976 125.842556 
L 336.427992 126.473625 
L 336.66277 124.892962 
L 336.78016 125.393987 
L 337.014934 124.408514 
L 337.132326 124.832444 
L 337.367102 124.044728 
L 337.719267 124.474616 
L 337.836654 123.680555 
L 337.95434 123.819333 
L 338.423894 123.19439 
L 338.541282 123.518576 
L 338.658671 122.95105 
L 338.776059 123.437558 
L 339.128224 122.95105 
L 339.245613 122.95105 
L 339.363003 123.19439 
L 339.48039 122.219999 
L 339.59723 122.707538 
L 339.949396 121.487403 
L 340.067602 122.463854 
L 340.184988 121.487403 
L 340.419765 121.731773 
L 340.537154 121.242861 
L 341.123829 121.242861 
L 341.358606 120.262975 
L 341.475994 120.753261 
L 341.593383 120.017574 
L 341.710771 120.730991 
L 341.945548 120.078941 
L 342.180326 119.772002 
L 342.415102 120.017574 
L 342.649879 119.964966 
L 343.040782 119.508698 
L 343.158172 118.989493 
L 343.275593 119.526258 
L 343.510368 119.280342 
L 343.627759 119.280342 
L 343.862535 118.698404 
L 343.979924 118.787995 
L 344.097312 119.034254 
L 344.332343 118.294961 
L 344.449732 118.479929 
L 344.68451 118.294961 
L 344.801897 118.13634 
L 345.036674 117.306833 
L 345.153862 117.801241 
L 345.38864 117.218474 
L 345.506027 117.306833 
L 345.623926 117.306833 
L 345.741314 116.873663 
L 345.8587 117.059372 
L 345.975892 116.946832 
L 346.09328 116.563934 
L 346.328057 116.563934 
L 346.445446 116.811738 
L 346.680223 115.798788 
L 346.915 116.315957 
L 347.032388 115.529565 
L 347.149776 115.606507 
L 347.267165 114.89242 
L 347.384553 115.260141 
L 347.619101 115.073499 
L 347.73649 115.186627 
L 347.971266 114.325963 
L 348.088656 114.325963 
L 348.206045 114.575313 
L 348.323433 113.987284 
L 348.440821 114.076441 
L 348.714335 113.693507 
L 348.831726 114.076441 
L 349.184179 113.326845 
L 349.301568 113.368529 
L 349.418956 113.713193 
L 349.653735 113.326845 
L 349.771121 113.122141 
L 349.88851 113.291111 
L 350.005912 113.076636 
L 350.123298 113.326845 
L 350.240689 112.826255 
L 350.358076 113.368529 
L 350.475466 112.593605 
L 350.709916 112.826255 
L 351.062083 111.823015 
L 351.179472 112.324979 
L 351.336618 111.661524 
L 351.492746 112.127861 
L 351.727521 111.343228 
L 351.84491 111.661524 
L 351.962298 111.640313 
L 352.197075 111.320365 
L 352.314463 111.343228 
L 352.431851 111.194595 
L 352.54924 110.817028 
L 352.784467 110.817028 
L 352.901658 111.068783 
L 353.136435 110.060735 
L 353.253825 110.450534 
L 353.371212 110.060735 
L 353.605989 110.565102 
L 353.762116 109.790255 
L 353.879504 110.152489 
L 353.996893 110.024682 
L 354.114283 109.555681 
L 354.231671 110.060735 
L 354.466494 108.036397 
L 354.583882 109.302896 
L 354.81866 106.510931 
L 355.093348 109.007763 
L 355.210735 108.145122 
L 355.445514 106.001068 
L 355.562074 107.158853 
L 355.796851 105.745879 
L 355.914239 106.256085 
L 356.031628 105.049037 
L 356.148811 105.049037 
L 356.266201 104.444074 
L 356.344849 104.746676 
L 356.462237 104.211141 
L 356.579627 104.211141 
L 356.697017 102.369879 
L 356.814403 103.698187 
L 356.931792 103.404763 
L 357.049181 103.698187 
L 357.284285 102.927469 
L 357.401719 103.23127 
L 357.519117 101.492036 
L 357.636505 102.412799 
L 357.753893 102.155206 
L 357.870924 101.381397 
L 358.105695 101.639505 
L 358.340471 100.606043 
L 358.457859 100.347248 
L 358.575248 100.606043 
L 358.692638 100.291769 
L 358.810025 100.606043 
L 358.927193 99.829143 
L 359.044581 99.829143 
L 359.161971 100.131454 
L 359.279359 100.051272 
L 359.396747 99.310351 
L 359.514136 99.829143 
L 359.631524 99.829143 
L 359.866302 99.28872 
L 359.983689 99.569833 
L 360.218469 98.270706 
L 360.336089 99.310351 
L 360.570866 98.010366 
L 360.923031 98.010366 
L 361.04042 98.162252 
L 361.157807 98.010366 
L 361.275197 96.706088 
L 361.392586 97.48917 
L 361.509972 97.418045 
L 361.627363 97.638153 
L 361.744751 97.315286 
L 361.86214 96.492252 
L 362.096916 96.706088 
L 362.214303 96.466505 
L 362.331693 95.564301 
L 362.449082 96.183175 
L 362.566469 95.397518 
L 362.683861 95.873858 
L 362.918636 95.397518 
L 363.036024 95.397518 
L 363.153411 94.872887 
L 363.2708 95.397518 
L 363.505577 94.34757 
L 363.622965 94.084654 
L 363.740628 94.34757 
L 363.858016 93.821566 
L 364.092794 94.084654 
L 364.32757 93.558306 
L 364.444958 94.34757 
L 364.679736 93.558306 
L 364.953249 93.452954 
L 365.070639 93.031272 
L 365.18777 93.558306 
L 365.305162 92.767497 
L 365.422546 93.294875 
L 365.657644 92.503551 
L 365.775035 92.767497 
L 365.892436 92.455542 
L 366.010044 92.767497 
L 366.127718 92.195396 
L 366.245103 92.503551 
L 366.518631 92.52241 
L 366.753751 91.710681 
L 366.871139 91.975142 
L 366.988527 91.181242 
L 367.340693 91.446047 
L 367.458097 91.446047 
L 367.575484 91.181242 
L 367.810259 90.26514 
L 367.927649 90.26514 
L 368.162424 89.854641 
L 368.396658 90.186694 
L 368.631434 90.120304 
L 368.74882 90.120304 
L 368.983542 89.056619 
L 369.100932 89.322798 
L 369.218319 88.457089 
L 369.335707 89.03443 
L 369.453095 88.693371 
L 369.570484 89.056619 
L 369.688229 88.257052 
L 369.805618 88.378298 
L 369.922778 88.168116 
L 370.078905 88.257052 
L 370.196292 88.693371 
L 370.431069 87.45594 
L 370.54846 87.723149 
L 370.900623 87.115607 
L 371.018013 87.45594 
L 371.135401 86.799335 
L 371.252788 86.921006 
L 371.487566 86.653282 
L 371.605858 86.844531 
L 371.723245 86.430047 
L 371.840637 86.799335 
L 371.958025 85.849079 
L 372.192803 86.720229 
L 372.427578 86.385386 
L 372.544967 86.720229 
L 372.662216 86.653282 
L 372.896993 86.117318 
L 373.014381 85.580667 
L 373.131769 85.849079 
L 373.483934 84.260521 
L 373.601322 85.214375 
L 373.836099 84.505305 
L 373.953488 84.39313 
L 374.070877 83.966594 
L 374.188266 84.236035 
L 374.305655 83.69698 
L 374.423043 84.505305 
L 374.540433 83.851066 
L 374.65782 83.942091 
L 374.814292 83.350082 
L 375.049069 83.966594 
L 375.401234 82.639342 
L 375.518334 83.157239 
L 375.870499 82.346338 
L 375.987889 82.61681 
L 376.105276 82.346338 
L 376.222665 83.157239 
L 376.457733 81.706358 
L 376.69251 81.843578 
L 376.809898 81.262733 
L 376.927287 81.262733 
L 377.162063 80.991403 
L 377.279453 80.83628 
L 377.39684 80.991403 
L 377.514231 80.423521 
L 377.631618 80.448227 
L 377.866395 79.826613 
L 377.983735 80.448227 
L 378.218512 79.700238 
L 378.3359 79.359814 
L 378.453288 79.632175 
L 378.688066 79.458874 
L 378.92284 79.405219 
L 379.040229 79.320891 
L 379.157617 78.814577 
L 379.392395 79.458874 
L 379.627413 78.492069 
L 379.744801 78.492069 
L 379.862191 79.087281 
L 379.979578 78.492069 
L 380.096968 78.492069 
L 380.213182 78.053996 
L 380.331537 78.268653 
L 380.448919 77.995434 
L 380.566308 78.268653 
L 380.683695 78.169321 
L 380.801084 77.722043 
L 380.918473 77.722043 
L 381.035861 76.87593 
L 381.152379 77.44848 
L 381.269768 77.44848 
L 381.504847 76.900839 
L 381.662148 76.900839 
L 381.779536 76.783398 
L 381.896925 76.352511 
L 382.014313 76.443947 
L 382.247916 75.803497 
L 382.365304 76.528835 
L 382.482694 76.07809 
L 382.600082 76.352511 
L 382.718461 76.07809 
L 382.835849 76.352511 
L 382.991975 75.764255 
L 383.109365 76.07809 
L 383.344145 75.764255 
L 383.461531 76.07809 
L 383.69618 75.253795 
L 383.813569 75.528732 
L 384.048345 75.528732 
L 384.40051 74.427955 
L 384.5179 74.486995 
L 384.635289 74.928649 
L 384.987454 73.876536 
L 385.104844 73.975054 
L 385.222231 73.04812 
L 385.33962 74.427955 
L 385.457009 73.04812 
L 385.574397 73.462522 
L 385.691784 73.206033 
L 385.809174 73.324431 
L 385.926849 74.060419 
L 386.396404 72.435679 
L 386.6311 73.04812 
L 386.748489 72.218159 
L 386.865876 72.771638 
L 386.983266 71.941162 
L 387.100653 72.494985 
L 387.218041 72.218159 
L 387.335776 71.336208 
L 387.726679 71.386652 
L 388.078847 70.275572 
L 388.196233 70.831456 
L 388.313621 70.5536 
L 388.548399 69.599647 
L 388.783176 69.719002 
L 388.900563 69.719002 
L 389.017952 68.324571 
L 389.134845 68.882858 
L 389.369625 68.04517 
L 389.487012 68.04517 
L 389.722765 66.925847 
L 389.840154 68.04517 
L 390.073759 66.645587 
L 390.191145 66.7457 
L 390.308532 65.803777 
L 390.425924 66.224875 
L 390.543312 66.084552 
L 390.818 64.730147 
L 390.935388 64.11552 
L 391.052194 64.702421 
L 391.169596 63.611869 
L 391.287013 64.064264 
L 391.640051 62.986581 
L 391.756344 62.82508 
L 391.873795 63.174928 
L 392.109106 61.571544 
L 392.344101 61.247504 
L 392.461488 63.063642 
L 392.578876 61.288021 
L 392.696265 61.39114 
L 392.813653 61.004327 
L 393.04843 61.72612 
L 393.283208 60.720461 
L 393.400595 61.004327 
L 393.517984 60.152214 
L 393.674111 60.192825 
L 393.791499 59.48839 
L 393.908887 59.664598 
L 394.026278 59.376224 
L 394.182402 60.048822 
L 394.417181 58.44335 
L 394.534568 58.365528 
L 394.651957 57.872356 
L 394.769345 58.44335 
L 394.886733 58.076361 
L 395.004123 58.157939 
L 395.121511 58.44335 
L 395.238899 57.690531 
L 395.356288 57.872356 
L 395.473676 57.811137 
L 395.591345 57.586601 
L 395.708735 57.872356 
L 395.943511 57.586601 
L 396.060901 57.586601 
L 396.178287 57.014575 
L 396.295678 57.014575 
L 396.570214 57.634238 
L 396.687603 56.441863 
L 396.80499 57.014575 
L 396.961119 56.748759 
L 397.078508 55.659785 
L 397.196208 55.659785 
L 397.3136 56.15525 
L 397.430986 55.417455 
L 397.548373 55.461891 
L 397.783151 54.301158 
L 398.017718 55.15075 
L 398.135109 55.007078 
L 398.252496 53.568 
L 398.369885 54.431962 
L 398.487273 53.960902 
L 398.487273 53.960902 
" clip-path="url(#p58cf1a9e46)" style="fill: none; stroke: #4169e1; stroke-width: 1.5; stroke-linecap: square"/>
   </g>
   <g id="patch_3">
    <path d="M 57.6 307.584 
L 57.6 41.472 
" style="fill: none; stroke: #000000; stroke-width: 0.8; stroke-linejoin: miter; stroke-linecap: square"/>
   </g>
   <g id="patch_4">
    <path d="M 414.72 307.584 
L 414.72 41.472 
" style="fill: none; stroke: #000000; stroke-width: 0.8; stroke-linejoin: miter; stroke-linecap: square"/>
   </g>
   <g id="patch_5">
    <path d="M 57.6 307.584 
L 414.72 307.584 
" style="fill: none; stroke: #000000; stroke-width: 0.8; stroke-linejoin: miter; stroke-linecap: square"/>
   </g>
   <g id="patch_6">
    <path d="M 57.6 41.472 
L 414.72 41.472 
" style="fill: none; stroke: #000000; stroke-width: 0.8; stroke-linejoin: miter; stroke-linecap: square"/>
   </g>
  </g>
 </g>
 <defs>
  <clipPath id="p58cf1a9e46">
   <rect x="57.6" y="41.472" width="357.12" height="266.112"/>
  </clipPath>
 </defs>
</svg>
