<?xml version="1.0" encoding="utf-8" standalone="no"?>
<!DOCTYPE svg PUBLIC "-//W3C//DTD SVG 1.1//EN"
  "http://www.w3.org/Graphics/SVG/1.1/DTD/svg11.dtd">
<svg xmlns:xlink="http://www.w3.org/1999/xlink" width="460.8pt" height="345.6pt" viewBox="0 0 460.8 345.6" xmlns="http://www.w3.org/2000/svg" version="1.1">
 <metadata>
  <rdf:RDF xmlns:dc="http://purl.org/dc/elements/1.1/" xmlns:cc="http://creativecommons.org/ns#" xmlns:rdf="http://www.w3.org/1999/02/22-rdf-syntax-ns#">
   <cc:Work>
    <dc:type rdf:resource="http://purl.org/dc/dcmitype/StillImage"/>
    <dc:date>2022-05-21T16:14:54.057674</dc:date>
    <dc:format>image/svg+xml</dc:format>
    <dc:creator>
     <cc:Agent>
      <dc:title>Matplotlib v3.5.1, https://matplotlib.org/</dc:title>
     </cc:Agent>
    </dc:creator>
   </cc:Work>
  </rdf:RDF>
 </metadata>
 <defs>
  <style type="text/css">*{stroke-linejoin: round; stroke-linecap: butt}</style>
 </defs>
 <g id="figure_1">
  <g id="patch_1">
   <path d="M 0 345.6 
L 460.8 345.6 
L 460.8 0 
L 0 0 
z
" style="fill: #ffffff"/>
  </g>
  <g id="axes_1">
   <g id="patch_2">
    <path d="M 57.6 307.584 
L 414.72 307.584 
L 414.72 41.472 
L 57.6 41.472 
z
" style="fill: #ffffff"/>
   </g>
   <g id="matplotlib.axis_1">
    <g id="xtick_1">
     <g id="line2d_1">
      <defs>
       <path id="mbf592be703" d="M 0 0 
L 0 3.5 
" style="stroke: #000000; stroke-width: 0.8"/>
      </defs>
      <g>
       <use xlink:href="#mbf592be703" x="73.618674" y="307.584" style="stroke: #000000; stroke-width: 0.8"/>
      </g>
     </g>
     <g id="text_1">
      <!-- $\mathdefault{0}$ -->
      <g transform="translate(71.128007 321.502498)scale(0.1 -0.1)">
       <defs>
        <path id="CMR17-30" d="M 2688 2025 
C 2688 2416 2682 3080 2413 3591 
C 2176 4039 1798 4198 1466 4198 
C 1158 4198 768 4058 525 3597 
C 269 3118 243 2524 243 2025 
C 243 1661 250 1106 448 619 
C 723 -39 1216 -128 1466 -128 
C 1760 -128 2208 -7 2470 600 
C 2662 1042 2688 1559 2688 2025 
z
M 1466 -26 
C 1056 -26 813 325 723 812 
C 653 1188 653 1738 653 2096 
C 653 2588 653 2997 736 3387 
C 858 3929 1216 4096 1466 4096 
C 1728 4096 2067 3923 2189 3400 
C 2272 3036 2278 2607 2278 2096 
C 2278 1680 2278 1169 2202 792 
C 2067 95 1690 -26 1466 -26 
z
" transform="scale(0.015625)"/>
       </defs>
       <use xlink:href="#CMR17-30" transform="scale(0.996264)"/>
      </g>
     </g>
    </g>
    <g id="xtick_2">
     <g id="line2d_2">
      <g>
       <use xlink:href="#mbf592be703" x="129.690986" y="307.584" style="stroke: #000000; stroke-width: 0.8"/>
      </g>
     </g>
     <g id="text_2">
      <!-- $\mathdefault{50}$ -->
      <g transform="translate(124.709651 321.502498)scale(0.1 -0.1)">
       <defs>
        <path id="CMR17-35" d="M 730 3692 
C 794 3666 1056 3584 1325 3584 
C 1920 3584 2246 3911 2432 4100 
C 2432 4157 2432 4192 2394 4192 
C 2387 4192 2374 4192 2323 4163 
C 2099 4058 1837 3973 1517 3973 
C 1325 3973 1037 3999 723 4139 
C 653 4171 640 4171 634 4171 
C 602 4171 595 4164 595 4037 
L 595 2203 
C 595 2089 595 2057 659 2057 
C 691 2057 704 2070 736 2114 
C 941 2401 1222 2522 1542 2522 
C 1766 2522 2246 2382 2246 1289 
C 2246 1085 2246 715 2054 421 
C 1894 159 1645 25 1370 25 
C 947 25 518 320 403 814 
C 429 807 480 795 506 795 
C 589 795 749 840 749 1038 
C 749 1210 627 1280 506 1280 
C 358 1280 262 1190 262 1011 
C 262 454 704 -128 1382 -128 
C 2042 -128 2669 440 2669 1264 
C 2669 2030 2170 2624 1549 2624 
C 1222 2624 947 2503 730 2274 
L 730 3692 
z
" transform="scale(0.015625)"/>
       </defs>
       <use xlink:href="#CMR17-35" transform="scale(0.996264)"/>
       <use xlink:href="#CMR17-30" transform="translate(45.690477 0)scale(0.996264)"/>
      </g>
     </g>
    </g>
    <g id="xtick_3">
     <g id="line2d_3">
      <g>
       <use xlink:href="#mbf592be703" x="185.763298" y="307.584" style="stroke: #000000; stroke-width: 0.8"/>
      </g>
     </g>
     <g id="text_3">
      <!-- $\mathdefault{100}$ -->
      <g transform="translate(178.291295 321.502498)scale(0.1 -0.1)">
       <defs>
        <path id="CMR17-31" d="M 1702 4058 
C 1702 4192 1696 4192 1606 4192 
C 1357 3916 979 3827 621 3827 
C 602 3827 570 3827 563 3808 
C 557 3795 557 3782 557 3648 
C 755 3648 1088 3686 1344 3839 
L 1344 461 
C 1344 236 1331 160 781 160 
L 589 160 
L 589 0 
C 896 0 1216 0 1523 0 
C 1830 0 2150 0 2458 0 
L 2458 160 
L 2266 160 
C 1715 160 1702 230 1702 458 
L 1702 4058 
z
" transform="scale(0.015625)"/>
       </defs>
       <use xlink:href="#CMR17-31" transform="scale(0.996264)"/>
       <use xlink:href="#CMR17-30" transform="translate(45.690477 0)scale(0.996264)"/>
       <use xlink:href="#CMR17-30" transform="translate(91.380954 0)scale(0.996264)"/>
      </g>
     </g>
    </g>
    <g id="xtick_4">
     <g id="line2d_4">
      <g>
       <use xlink:href="#mbf592be703" x="241.83561" y="307.584" style="stroke: #000000; stroke-width: 0.8"/>
      </g>
     </g>
     <g id="text_4">
      <!-- $\mathdefault{150}$ -->
      <g transform="translate(234.363607 321.502498)scale(0.1 -0.1)">
       <use xlink:href="#CMR17-31" transform="scale(0.996264)"/>
       <use xlink:href="#CMR17-35" transform="translate(45.690477 0)scale(0.996264)"/>
       <use xlink:href="#CMR17-30" transform="translate(91.380954 0)scale(0.996264)"/>
      </g>
     </g>
    </g>
    <g id="xtick_5">
     <g id="line2d_5">
      <g>
       <use xlink:href="#mbf592be703" x="297.907922" y="307.584" style="stroke: #000000; stroke-width: 0.8"/>
      </g>
     </g>
     <g id="text_5">
      <!-- $\mathdefault{200}$ -->
      <g transform="translate(290.435919 321.502498)scale(0.1 -0.1)">
       <defs>
        <path id="CMR17-32" d="M 2669 989 
L 2554 989 
C 2490 536 2438 459 2413 420 
C 2381 369 1920 369 1830 369 
L 602 369 
C 832 619 1280 1072 1824 1597 
C 2214 1967 2669 2402 2669 3035 
C 2669 3790 2067 4224 1395 4224 
C 691 4224 262 3604 262 3030 
C 262 2780 448 2748 525 2748 
C 589 2748 781 2787 781 3010 
C 781 3207 614 3264 525 3264 
C 486 3264 448 3258 422 3245 
C 544 3790 915 4058 1306 4058 
C 1862 4058 2227 3617 2227 3035 
C 2227 2479 1901 2000 1536 1584 
L 262 146 
L 262 0 
L 2515 0 
L 2669 989 
z
" transform="scale(0.015625)"/>
       </defs>
       <use xlink:href="#CMR17-32" transform="scale(0.996264)"/>
       <use xlink:href="#CMR17-30" transform="translate(45.690477 0)scale(0.996264)"/>
       <use xlink:href="#CMR17-30" transform="translate(91.380954 0)scale(0.996264)"/>
      </g>
     </g>
    </g>
    <g id="xtick_6">
     <g id="line2d_6">
      <g>
       <use xlink:href="#mbf592be703" x="353.980234" y="307.584" style="stroke: #000000; stroke-width: 0.8"/>
      </g>
     </g>
     <g id="text_6">
      <!-- $\mathdefault{250}$ -->
      <g transform="translate(346.508231 321.502498)scale(0.1 -0.1)">
       <use xlink:href="#CMR17-32" transform="scale(0.996264)"/>
       <use xlink:href="#CMR17-35" transform="translate(45.690477 0)scale(0.996264)"/>
       <use xlink:href="#CMR17-30" transform="translate(91.380954 0)scale(0.996264)"/>
      </g>
     </g>
    </g>
    <g id="xtick_7">
     <g id="line2d_7">
      <g>
       <use xlink:href="#mbf592be703" x="410.052546" y="307.584" style="stroke: #000000; stroke-width: 0.8"/>
      </g>
     </g>
     <g id="text_7">
      <!-- $\mathdefault{300}$ -->
      <g transform="translate(402.580543 321.502498)scale(0.1 -0.1)">
       <defs>
        <path id="CMR17-33" d="M 1414 2157 
C 1984 2157 2234 1662 2234 1090 
C 2234 320 1824 25 1453 25 
C 1114 25 563 194 390 693 
C 422 680 454 680 486 680 
C 640 680 755 782 755 948 
C 755 1133 614 1216 486 1216 
C 378 1216 211 1165 211 926 
C 211 335 787 -128 1466 -128 
C 2176 -128 2720 430 2720 1085 
C 2720 1707 2208 2157 1600 2227 
C 2086 2328 2554 2756 2554 3329 
C 2554 3820 2048 4179 1472 4179 
C 890 4179 378 3829 378 3329 
C 378 3110 544 3072 627 3072 
C 762 3072 877 3155 877 3321 
C 877 3486 762 3569 627 3569 
C 602 3569 570 3569 544 3557 
C 730 3959 1235 4032 1459 4032 
C 1683 4032 2106 3925 2106 3320 
C 2106 3143 2080 2828 1862 2550 
C 1670 2304 1453 2304 1242 2284 
C 1210 2284 1062 2269 1037 2269 
C 992 2263 966 2257 966 2208 
C 966 2163 973 2157 1101 2157 
L 1414 2157 
z
" transform="scale(0.015625)"/>
       </defs>
       <use xlink:href="#CMR17-33" transform="scale(0.996264)"/>
       <use xlink:href="#CMR17-30" transform="translate(45.690477 0)scale(0.996264)"/>
       <use xlink:href="#CMR17-30" transform="translate(91.380954 0)scale(0.996264)"/>
      </g>
     </g>
    </g>
    <g id="text_8">
     <!-- Temps (s) -->
     <g transform="translate(202.039235 339.394845)scale(0.16 -0.16)">
      <defs>
       <path id="CMR17-54" d="M 3981 4326 
L 288 4326 
L 179 2918 
L 294 2918 
C 378 3976 467 4160 1453 4160 
C 1568 4160 1754 4160 1805 4154 
C 1926 4135 1926 4058 1926 3912 
L 1926 459 
C 1926 230 1907 160 1376 160 
L 1197 160 
L 1197 0 
C 1504 0 1824 0 2138 0 
C 2451 0 2771 0 3078 0 
L 3078 160 
L 2899 160 
C 2368 160 2349 230 2349 459 
L 2349 3912 
C 2349 4052 2349 4129 2464 4154 
C 2515 4160 2701 4160 2816 4160 
C 3795 4160 3891 3976 3974 2918 
L 4090 2918 
L 3981 4326 
z
" transform="scale(0.015625)"/>
       <path id="CMR17-65" d="M 2438 1472 
C 2464 1498 2464 1511 2464 1576 
C 2464 2238 2118 2816 1389 2816 
C 710 2816 173 2169 173 1383 
C 173 551 781 -64 1459 -64 
C 2176 -64 2458 607 2458 740 
C 2458 784 2419 784 2406 784 
C 2362 784 2355 771 2330 696 
C 2189 265 1837 51 1504 51 
C 1229 51 954 203 781 480 
C 582 803 582 1176 582 1472 
L 2438 1472 
z
M 589 1568 
C 634 2505 1126 2714 1382 2714 
C 1818 2714 2112 2297 2118 1568 
L 589 1568 
z
" transform="scale(0.015625)"/>
       <path id="CMR17-6d" d="M 4326 1933 
C 4326 2252 4269 2790 3507 2790 
C 3072 2790 2771 2496 2656 2151 
L 2650 2151 
C 2573 2676 2195 2790 1837 2790 
C 1331 2790 1069 2400 973 2144 
L 966 2144 
L 966 2790 
L 211 2720 
L 211 2554 
C 589 2554 646 2515 646 2208 
L 646 428 
C 646 184 621 153 211 153 
L 211 -13 
C 365 0 646 0 813 0 
C 979 0 1267 0 1421 -13 
L 1421 153 
C 1011 153 986 178 986 428 
L 986 1658 
C 986 2247 1344 2688 1792 2688 
C 2266 2688 2317 2266 2317 1958 
L 2317 428 
C 2317 184 2291 153 1882 153 
L 1882 -13 
C 2035 0 2317 0 2483 0 
C 2650 0 2938 0 3091 -13 
L 3091 153 
C 2682 153 2656 178 2656 428 
L 2656 1658 
C 2656 2247 3014 2688 3462 2688 
C 3936 2688 3987 2266 3987 1958 
L 3987 428 
C 3987 184 3962 153 3552 153 
L 3552 -13 
C 3706 0 3987 0 4154 0 
C 4320 0 4608 0 4762 -13 
L 4762 153 
C 4352 153 4326 178 4326 428 
L 4326 1933 
z
" transform="scale(0.015625)"/>
       <path id="CMR17-70" d="M 1408 -1063 
C 998 -1063 973 -1037 973 -789 
L 973 402 
C 1158 134 1427 -38 1766 -38 
C 2406 -38 3053 523 3053 1388 
C 3053 2191 2496 2802 1837 2802 
C 1453 2802 1139 2592 960 2338 
L 960 2802 
L 198 2732 
L 198 2567 
C 576 2567 634 2528 634 2223 
L 634 -789 
C 634 -1031 608 -1063 198 -1063 
L 198 -1228 
C 352 -1216 634 -1216 800 -1216 
C 966 -1216 1254 -1216 1408 -1228 
L 1408 -1063 
z
M 973 2012 
C 973 2102 973 2235 1222 2471 
C 1254 2497 1472 2688 1792 2688 
C 2259 2688 2643 2108 2643 1382 
C 2643 656 2234 64 1728 64 
C 1498 64 1248 172 1056 472 
C 973 612 973 650 973 752 
L 973 2012 
z
" transform="scale(0.015625)"/>
       <path id="CMR17-73" d="M 1978 2697 
C 1978 2813 1971 2819 1933 2819 
C 1907 2819 1901 2813 1824 2717 
C 1805 2691 1747 2626 1728 2601 
C 1523 2819 1235 2819 1126 2819 
C 416 2819 160 2447 160 2076 
C 160 1498 813 1365 998 1325 
C 1402 1243 1542 1217 1677 1101 
C 1760 1025 1901 884 1901 654 
C 1901 384 1747 38 1158 38 
C 602 38 403 460 288 1021 
C 269 1110 269 1117 218 1117 
C 166 1117 160 1110 160 983 
L 160 63 
C 160 -51 166 -58 205 -58 
C 237 -58 243 -51 275 0 
C 314 57 410 211 448 276 
C 576 103 800 -64 1158 -64 
C 1792 -64 2131 283 2131 784 
C 2131 1112 1958 1285 1875 1362 
C 1683 1561 1459 1606 1190 1657 
C 838 1735 390 1825 390 2217 
C 390 2383 480 2737 1126 2737 
C 1811 2737 1850 2094 1862 1888 
C 1869 1856 1901 1849 1920 1849 
C 1978 1849 1978 1869 1978 1978 
L 1978 2697 
z
" transform="scale(0.015625)"/>
       <path id="CMR17-28" d="M 1958 -1561 
C 1958 -1555 1958 -1542 1939 -1523 
C 1645 -1224 858 -407 858 1581 
C 858 3569 1632 4379 1946 4697 
C 1946 4704 1958 4717 1958 4736 
C 1958 4755 1939 4768 1914 4768 
C 1843 4768 1299 4296 986 3594 
C 666 2887 576 2199 576 1588 
C 576 1128 621 351 1005 -471 
C 1312 -1135 1837 -1600 1914 -1600 
C 1946 -1600 1958 -1587 1958 -1561 
z
" transform="scale(0.015625)"/>
       <path id="CMR17-29" d="M 1683 1581 
C 1683 2040 1638 2817 1254 3639 
C 947 4303 422 4768 346 4768 
C 326 4768 301 4761 301 4729 
C 301 4717 307 4710 314 4697 
C 621 4378 1402 3568 1402 1584 
C 1402 -407 627 -1217 314 -1537 
C 307 -1549 301 -1556 301 -1568 
C 301 -1600 326 -1600 346 -1600 
C 416 -1600 960 -1128 1274 -426 
C 1594 281 1683 969 1683 1581 
z
" transform="scale(0.015625)"/>
      </defs>
      <use xlink:href="#CMR17-54" transform="scale(0.996264)"/>
      <use xlink:href="#CMR17-65" transform="translate(58.702625 0)scale(0.996264)"/>
      <use xlink:href="#CMR17-6d" transform="translate(99.188286 0)scale(0.996264)"/>
      <use xlink:href="#CMR17-70" transform="translate(176.107875 0)scale(0.996264)"/>
      <use xlink:href="#CMR17-73" transform="translate(227.003245 0)scale(0.996264)"/>
      <use xlink:href="#CMR17-28" transform="translate(292.880549 0)scale(0.996264)"/>
      <use xlink:href="#CMR17-73" transform="translate(328.161317 0)scale(0.996264)"/>
      <use xlink:href="#CMR17-29" transform="translate(363.962655 0)scale(0.996264)"/>
     </g>
    </g>
   </g>
   <g id="matplotlib.axis_2">
    <g id="ytick_1">
     <g id="line2d_8">
      <defs>
       <path id="m3f375d56fa" d="M 0 0 
L -3.5 0 
" style="stroke: #000000; stroke-width: 0.8"/>
      </defs>
      <g>
       <use xlink:href="#m3f375d56fa" x="57.6" y="295.488002" style="stroke: #000000; stroke-width: 0.8"/>
      </g>
     </g>
     <g id="text_9">
      <!-- $\mathdefault{0.0000}$ -->
      <g transform="translate(22.925915 298.947251)scale(0.1 -0.1)">
       <defs>
        <path id="CMMI12-3a" d="M 1178 307 
C 1178 492 1024 619 870 619 
C 685 619 557 466 557 313 
C 557 128 710 0 864 0 
C 1050 0 1178 153 1178 307 
z
" transform="scale(0.015625)"/>
       </defs>
       <use xlink:href="#CMR17-30" transform="scale(0.996264)"/>
       <use xlink:href="#CMMI12-3a" transform="translate(45.690477 0)scale(0.996264)"/>
       <use xlink:href="#CMR17-30" transform="translate(72.787654 0)scale(0.996264)"/>
       <use xlink:href="#CMR17-30" transform="translate(118.478131 0)scale(0.996264)"/>
       <use xlink:href="#CMR17-30" transform="translate(164.168608 0)scale(0.996264)"/>
       <use xlink:href="#CMR17-30" transform="translate(209.859086 0)scale(0.996264)"/>
      </g>
     </g>
    </g>
    <g id="ytick_2">
     <g id="line2d_9">
      <g>
       <use xlink:href="#m3f375d56fa" x="57.6" y="245.024442" style="stroke: #000000; stroke-width: 0.8"/>
      </g>
     </g>
     <g id="text_10">
      <!-- $\mathdefault{0.0005}$ -->
      <g transform="translate(22.925915 248.483691)scale(0.1 -0.1)">
       <use xlink:href="#CMR17-30" transform="scale(0.996264)"/>
       <use xlink:href="#CMMI12-3a" transform="translate(45.690477 0)scale(0.996264)"/>
       <use xlink:href="#CMR17-30" transform="translate(72.787654 0)scale(0.996264)"/>
       <use xlink:href="#CMR17-30" transform="translate(118.478131 0)scale(0.996264)"/>
       <use xlink:href="#CMR17-30" transform="translate(164.168608 0)scale(0.996264)"/>
       <use xlink:href="#CMR17-35" transform="translate(209.859086 0)scale(0.996264)"/>
      </g>
     </g>
    </g>
    <g id="ytick_3">
     <g id="line2d_10">
      <g>
       <use xlink:href="#m3f375d56fa" x="57.6" y="194.560882" style="stroke: #000000; stroke-width: 0.8"/>
      </g>
     </g>
     <g id="text_11">
      <!-- $\mathdefault{0.0010}$ -->
      <g transform="translate(22.925915 198.020131)scale(0.1 -0.1)">
       <use xlink:href="#CMR17-30" transform="scale(0.996264)"/>
       <use xlink:href="#CMMI12-3a" transform="translate(45.690477 0)scale(0.996264)"/>
       <use xlink:href="#CMR17-30" transform="translate(72.787654 0)scale(0.996264)"/>
       <use xlink:href="#CMR17-30" transform="translate(118.478131 0)scale(0.996264)"/>
       <use xlink:href="#CMR17-31" transform="translate(164.168608 0)scale(0.996264)"/>
       <use xlink:href="#CMR17-30" transform="translate(209.859086 0)scale(0.996264)"/>
      </g>
     </g>
    </g>
    <g id="ytick_4">
     <g id="line2d_11">
      <g>
       <use xlink:href="#m3f375d56fa" x="57.6" y="144.097323" style="stroke: #000000; stroke-width: 0.8"/>
      </g>
     </g>
     <g id="text_12">
      <!-- $\mathdefault{0.0015}$ -->
      <g transform="translate(22.925915 147.556572)scale(0.1 -0.1)">
       <use xlink:href="#CMR17-30" transform="scale(0.996264)"/>
       <use xlink:href="#CMMI12-3a" transform="translate(45.690477 0)scale(0.996264)"/>
       <use xlink:href="#CMR17-30" transform="translate(72.787654 0)scale(0.996264)"/>
       <use xlink:href="#CMR17-30" transform="translate(118.478131 0)scale(0.996264)"/>
       <use xlink:href="#CMR17-31" transform="translate(164.168608 0)scale(0.996264)"/>
       <use xlink:href="#CMR17-35" transform="translate(209.859086 0)scale(0.996264)"/>
      </g>
     </g>
    </g>
    <g id="ytick_5">
     <g id="line2d_12">
      <g>
       <use xlink:href="#m3f375d56fa" x="57.6" y="93.633763" style="stroke: #000000; stroke-width: 0.8"/>
      </g>
     </g>
     <g id="text_13">
      <!-- $\mathdefault{0.0020}$ -->
      <g transform="translate(22.925915 97.093012)scale(0.1 -0.1)">
       <use xlink:href="#CMR17-30" transform="scale(0.996264)"/>
       <use xlink:href="#CMMI12-3a" transform="translate(45.690477 0)scale(0.996264)"/>
       <use xlink:href="#CMR17-30" transform="translate(72.787654 0)scale(0.996264)"/>
       <use xlink:href="#CMR17-30" transform="translate(118.478131 0)scale(0.996264)"/>
       <use xlink:href="#CMR17-32" transform="translate(164.168608 0)scale(0.996264)"/>
       <use xlink:href="#CMR17-30" transform="translate(209.859086 0)scale(0.996264)"/>
      </g>
     </g>
    </g>
    <g id="ytick_6">
     <g id="line2d_13">
      <g>
       <use xlink:href="#m3f375d56fa" x="57.6" y="43.170203" style="stroke: #000000; stroke-width: 0.8"/>
      </g>
     </g>
     <g id="text_14">
      <!-- $\mathdefault{0.0025}$ -->
      <g transform="translate(22.925915 46.629452)scale(0.1 -0.1)">
       <use xlink:href="#CMR17-30" transform="scale(0.996264)"/>
       <use xlink:href="#CMMI12-3a" transform="translate(45.690477 0)scale(0.996264)"/>
       <use xlink:href="#CMR17-30" transform="translate(72.787654 0)scale(0.996264)"/>
       <use xlink:href="#CMR17-30" transform="translate(118.478131 0)scale(0.996264)"/>
       <use xlink:href="#CMR17-32" transform="translate(164.168608 0)scale(0.996264)"/>
       <use xlink:href="#CMR17-35" transform="translate(209.859086 0)scale(0.996264)"/>
      </g>
     </g>
    </g>
    <g id="text_15">
     <!-- $E_{e}$ (J) -->
     <g transform="translate(14.940859 195.831823)rotate(-90)scale(0.16 -0.16)">
      <defs>
       <path id="CMMI12-45" d="M 4448 1489 
C 4454 1508 4474 1554 4474 1579 
C 4474 1611 4448 1643 4410 1643 
C 4384 1643 4371 1637 4352 1617 
C 4339 1611 4339 1598 4282 1469 
C 3904 570 3629 185 2605 185 
L 1670 185 
C 1581 185 1568 185 1530 192 
C 1459 198 1453 211 1453 262 
C 1453 307 1466 345 1478 403 
L 1920 2176 
L 2554 2176 
C 3053 2176 3091 2066 3091 1874 
C 3091 1810 3091 1752 3046 1560 
C 3034 1534 3027 1508 3027 1489 
C 3027 1444 3059 1425 3098 1425 
C 3155 1425 3162 1469 3187 1559 
L 3552 3042 
C 3552 3073 3526 3105 3488 3105 
C 3430 3105 3424 3080 3398 2990 
C 3270 2501 3142 2361 2573 2361 
L 1965 2361 
L 2362 3930 
C 2419 4154 2432 4154 2694 4154 
L 3610 4154 
C 4397 4154 4557 3943 4557 3458 
C 4557 3451 4557 3273 4531 3062 
C 4525 3036 4518 2998 4518 2985 
C 4518 2934 4550 2915 4589 2915 
C 4634 2915 4659 2941 4672 3055 
L 4806 4174 
C 4806 4195 4819 4263 4819 4277 
C 4819 4352 4762 4352 4646 4352 
L 1523 4352 
C 1402 4352 1338 4352 1338 4229 
C 1338 4154 1382 4154 1491 4154 
C 1888 4154 1888 4114 1888 4052 
C 1888 4020 1882 3994 1862 3924 
L 998 473 
C 941 249 928 185 480 185 
C 358 185 294 185 294 70 
C 294 0 333 0 461 0 
L 3674 0 
C 3814 0 3821 6 3866 110 
L 4448 1489 
z
" transform="scale(0.015625)"/>
       <path id="CMMI12-65" d="M 1146 1479 
C 1318 1479 1754 1479 2061 1595 
C 2547 1783 2592 2158 2592 2274 
C 2592 2558 2349 2816 1926 2816 
C 1254 2816 288 2210 288 1073 
C 288 402 672 -64 1254 -64 
C 2125 -64 2675 609 2675 692 
C 2675 730 2637 762 2611 762 
C 2592 762 2586 756 2528 699 
C 2118 159 1510 64 1267 64 
C 902 64 710 350 710 822 
C 710 911 710 1071 806 1479 
L 1146 1479 
z
M 838 1600 
C 1114 2592 1722 2689 1926 2689 
C 2208 2689 2400 2522 2400 2277 
C 2400 1600 1376 1600 1107 1600 
L 838 1600 
z
" transform="scale(0.015625)"/>
       <path id="CMR17-4a" d="M 1888 910 
C 1888 324 1568 -26 1242 -26 
C 1075 -26 691 49 525 431 
C 550 425 582 418 608 418 
C 730 418 883 501 883 692 
C 883 845 774 960 614 960 
C 461 960 339 865 339 682 
C 339 258 730 -128 1254 -128 
C 1754 -128 2214 229 2291 764 
C 2298 809 2298 821 2298 1038 
L 2298 3715 
C 2298 3823 2298 4001 2310 4039 
C 2336 4160 2483 4160 2682 4160 
L 2682 4320 
C 2669 4320 2214 4320 2054 4320 
C 1786 4320 1491 4320 1222 4320 
L 1222 4160 
L 1376 4160 
C 1875 4160 1888 4090 1888 3861 
L 1888 910 
z
" transform="scale(0.015625)"/>
      </defs>
      <use xlink:href="#CMMI12-45" transform="scale(0.996264)"/>
      <use xlink:href="#CMMI12-65" transform="translate(72.211218 -14.943915)scale(0.697382)"/>
      <use xlink:href="#CMR17-28" transform="translate(134.433572 0)scale(0.996264)"/>
      <use xlink:href="#CMR17-4a" transform="translate(169.71434 0)scale(0.996264)"/>
      <use xlink:href="#CMR17-29" transform="translate(216.68613 0)scale(0.996264)"/>
     </g>
    </g>
   </g>
   <g id="line2d_14">
    <path d="M 73.832727 295.485446 
L 92.597648 295.390732 
L 92.896688 295.366296 
L 93.196114 295.386063 
L 93.793128 295.332585 
L 94.391263 295.332585 
L 94.690653 295.303816 
L 94.990109 295.318042 
L 96.111738 295.281406 
L 96.260893 295.241198 
L 96.560315 295.25771 
L 97.120077 295.183945 
L 98.503916 295.046511 
L 98.653069 295.086877 
L 98.952314 295.046511 
L 99.101475 295.046511 
L 99.176612 294.989324 
L 99.325773 295.039426 
L 99.400909 295.019911 
L 99.476048 295.122728 
L 99.550063 295.066866 
L 99.886495 294.963278 
L 100.036769 295.033309 
L 100.298067 294.90573 
L 100.485086 295.027973 
L 100.784513 294.859703 
L 101.157956 294.90573 
L 101.382243 294.87524 
L 101.755402 294.762396 
L 101.942685 294.802159 
L 102.428274 294.745497 
L 102.578545 294.762396 
L 103.064131 294.762396 
L 104.147895 294.675957 
L 104.298172 294.658086 
L 104.895662 294.565812 
L 105.045938 294.584656 
L 105.680675 294.508114 
L 105.980102 294.484544 
L 106.877571 294.468675 
L 107.02672 294.428459 
L 108.521959 294.345692 
L 108.671115 294.303141 
L 109.680829 294.259813 
L 109.829981 294.215706 
L 110.465839 294.193361 
L 110.614991 294.148087 
L 110.765266 294.102035 
L 110.914238 294.082971 
L 111.287677 294.078717 
L 111.811395 294.007597 
L 111.886532 293.959211 
L 111.960546 294.055205 
L 112.110821 293.919562 
L 112.184842 294.055205 
L 112.335112 293.910047 
L 112.409127 294.007597 
L 112.484549 293.934726 
L 113.49385 293.860105 
L 113.567865 293.731845 
L 113.718138 293.860105 
L 113.792156 293.705609 
L 113.942428 293.783732 
L 114.016444 293.731845 
L 114.166719 293.783732 
L 114.240734 293.705609 
L 114.391007 293.757886 
L 114.465024 293.652555 
L 114.615295 293.705609 
L 114.689312 293.625736 
L 114.876593 293.731845 
L 115.250035 293.652555 
L 115.400309 293.652555 
L 115.474324 293.516514 
L 115.661606 293.652555 
L 116.035047 293.432556 
L 116.110605 293.625736 
L 116.184621 293.516514 
L 116.334893 293.488723 
L 116.408909 293.516514 
L 116.484218 293.404181 
L 116.559355 293.516514 
L 116.633369 293.432556 
L 116.708507 293.346847 
L 116.783645 293.488723 
L 116.9328 293.288735 
L 117.007936 293.432556 
L 117.081948 293.375611 
L 117.157086 293.317888 
L 117.232224 293.432556 
L 117.306238 293.346847 
L 117.381374 293.288735 
L 117.530526 293.375611 
L 117.605663 293.288735 
L 117.679679 293.375611 
L 117.829953 293.259387 
L 117.903969 293.346847 
L 118.054243 293.229845 
L 118.353496 293.259387 
L 118.502653 293.140051 
L 118.57779 293.229845 
L 118.726941 293.10973 
L 118.951226 293.148286 
L 119.026364 293.160928 
L 119.175517 293.048506 
L 119.32467 293.079216 
L 119.474942 293.048506 
L 119.587093 293.097548 
L 119.73624 292.955211 
L 119.811376 293.017602 
L 119.960529 292.923723 
L 120.035665 293.017602 
L 120.184625 292.923723 
L 121.19422 292.697865 
L 121.268394 292.795828 
L 121.343532 292.730714 
L 121.418668 292.664821 
L 121.492683 292.795828 
L 121.567822 292.730714 
L 121.642701 292.664821 
L 121.717837 292.763368 
L 121.791852 292.697865 
L 121.979135 292.639911 
L 122.054271 292.730714 
L 122.203424 292.631583 
L 122.278562 292.697865 
L 122.352575 292.530701 
L 122.427714 292.631583 
L 123.100585 292.358675 
L 123.175317 292.496685 
L 123.250455 292.428069 
L 123.324465 292.393469 
L 123.399601 292.530701 
L 123.548754 292.323686 
L 123.6983 292.393469 
L 124.109872 292.288503 
L 124.483312 292.217553 
L 124.558451 292.145825 
L 124.670594 292.279677 
L 124.894883 292.145825 
L 124.970021 292.175262 
L 125.044038 292.053665 
L 125.119174 292.109669 
L 125.492614 292.073318 
L 125.679899 292.109669 
L 126.203758 292.096473 
L 126.277771 291.9631 
L 126.389916 292.051415 
L 126.614209 291.888649 
L 127.211938 291.813419 
L 127.36221 291.737411 
L 127.436227 291.813419 
L 127.511363 291.737411 
L 128.042952 291.515959 
L 128.333408 291.621941 
L 128.48368 291.492598 
L 128.557696 291.583062 
L 128.632833 291.265026 
L 128.744976 291.524378 
L 128.820114 291.465257 
L 128.969265 291.305461 
L 129.043566 291.385748 
L 129.118701 291.385748 
L 129.193294 291.142553 
L 129.380588 291.435533 
L 129.529747 291.142553 
L 129.604892 291.4256 
L 129.754062 291.142553 
L 129.829205 291.345702 
L 129.904342 291.183572 
L 130.016485 291.216247 
L 130.090508 291.043954 
L 130.165651 291.305461 
L 130.314811 290.976533 
L 130.389955 291.183572 
L 130.651274 290.849975 
L 130.913699 290.892355 
L 131.099875 290.753908 
L 131.249032 290.76463 
L 131.324177 290.547865 
L 131.39932 290.76463 
L 131.474457 290.678508 
L 131.548667 290.80352 
L 131.623805 290.591607 
L 131.697827 290.76463 
L 131.77243 290.370952 
L 131.847565 290.547865 
L 131.922716 290.678508 
L 131.996736 290.375007 
L 132.147012 290.547865 
L 132.221029 290.236224 
L 132.296165 290.459797 
L 132.445916 290.117341 
L 132.521054 290.326237 
L 132.595068 290.281328 
L 132.78235 290.145433 
L 132.857505 290.236224 
L 133.00664 290.099746 
L 133.155795 290.145433 
L 133.230929 290.053864 
L 133.306066 290.190926 
L 133.380082 290.099746 
L 133.455219 290.007788 
L 133.530356 290.145433 
L 133.71652 290.053864 
L 133.791656 289.868392 
L 133.978936 290.053864 
L 134.052949 290.007788 
L 134.128087 289.774488 
L 134.20224 290.007788 
L 134.277377 289.961517 
L 134.352513 289.821537 
L 134.42653 289.868392 
L 134.65082 289.821537 
L 134.725962 289.821537 
L 134.801093 289.584348 
L 134.950244 289.821537 
L 135.025381 289.48811 
L 135.100519 289.632175 
L 135.174535 289.584348 
L 135.24967 289.342295 
L 135.323687 289.536326 
L 135.473962 289.293301 
L 135.661242 289.4397 
L 135.772264 289.429994 
L 135.922538 289.244112 
L 135.996555 289.342295 
L 136.071692 289.194729 
L 136.146827 289.244112 
L 136.221965 289.342295 
L 136.371116 289.194729 
L 136.445133 289.244112 
L 136.595405 289.045413 
L 136.669427 289.145152 
L 136.819696 288.944896 
L 136.89384 289.145152 
L 137.044113 288.894346 
L 137.11813 289.031752 
L 137.268404 288.792662 
L 137.342417 289.09538 
L 137.417554 288.741528 
L 137.492691 288.792662 
L 137.566708 288.894346 
L 137.716981 288.6902 
L 138.015286 288.741528 
L 138.127431 288.430641 
L 138.202568 288.482941 
L 138.651031 288.378145 
L 138.726167 288.325455 
L 138.87532 288.482941 
L 138.950456 288.243643 
L 139.025593 288.325455 
L 139.174748 288.112751 
L 139.248764 288.325455 
L 139.323902 288.219492 
L 139.399035 288.005231 
L 139.472966 288.272571 
L 139.623236 288.059088 
L 139.697253 288.219492 
L 139.847525 288.005231 
L 139.921542 288.112751 
L 140.071996 287.95118 
L 140.146013 288.112751 
L 140.296285 287.95118 
L 140.370302 287.896933 
L 140.445437 288.005231 
L 140.669727 287.733028 
L 140.931023 287.896933 
L 141.006161 287.622785 
L 141.081298 287.733028 
L 141.155315 287.842493 
L 141.23045 287.567372 
L 141.305587 287.678004 
L 141.454739 287.733028 
L 141.679313 287.567372 
L 141.828466 287.622785 
L 142.052757 287.455962 
L 142.762694 287.413983 
L 142.837834 287.287389 
L 142.912967 287.343775 
L 142.986982 287.455962 
L 143.137181 287.230809 
L 143.211197 287.287389 
L 143.39848 287.230809 
L 143.847058 287.174034 
L 143.996214 287.002542 
L 144.183492 287.039066 
L 144.482814 286.8293 
L 144.631966 286.944989 
L 144.7071 286.771164 
L 144.781117 286.8293 
L 144.856255 287.002542 
L 144.931631 286.8293 
L 145.006275 286.887242 
L 145.155444 286.595588 
L 145.230582 286.8293 
L 145.30484 286.712833 
L 145.604292 286.536673 
L 145.678308 286.595588 
L 145.753453 286.418261 
L 145.8286 286.477564 
L 145.977759 286.477564 
L 146.052897 286.29907 
L 146.127786 286.536673 
L 146.202077 286.418261 
L 146.538536 286.058355 
L 146.687735 286.418261 
L 146.950185 286.118825 
L 147.099349 286.179101 
L 147.174492 286.058355 
L 147.248507 286.118825 
L 147.54796 286.058355 
L 147.623105 285.93683 
L 147.809264 285.99769 
L 148.183624 285.629614 
L 148.257642 285.93683 
L 148.445204 285.737693 
L 148.519218 285.629614 
L 148.594355 285.753084 
L 148.743509 285.567587 
L 148.818644 285.691446 
L 148.9678 285.317535 
L 149.050789 285.398248 
L 149.118071 285.451879 
L 149.192086 285.317535 
L 149.267223 285.567587 
L 149.342361 285.505366 
L 149.416375 285.38034 
L 149.491513 285.505366 
L 149.715801 285.229281 
L 149.864958 285.254536 
L 149.940095 285.38034 
L 150.015249 285.317535 
L 150.089259 285.127953 
L 150.164398 285.317535 
L 150.313548 285.06437 
L 150.388686 285.191342 
L 150.537837 285.000593 
L 150.72512 285.191342 
L 150.986415 284.936621 
L 151.173521 284.936621 
L 151.248667 284.743538 
L 151.323804 284.872455 
L 151.50997 284.743538 
L 151.734327 284.678788 
L 151.809461 284.417843 
L 152.070767 284.548705 
L 152.258066 284.286203 
L 152.407219 284.417843 
L 152.631507 284.220092 
L 153.043079 284.253172 
L 153.117093 283.9537 
L 153.19223 284.02059 
L 153.341383 284.02059 
L 153.416519 284.02059 
L 153.491658 283.886616 
L 153.64072 284.02059 
L 153.715857 283.684196 
L 153.791003 283.9537 
L 154.052327 283.616334 
L 154.201477 283.616334 
L 154.351583 283.480026 
L 154.46374 283.657074 
L 154.6129 283.274105 
L 154.688044 283.480026 
L 154.837197 283.205075 
L 154.912324 283.548277 
L 155.17385 282.927012 
L 155.247866 283.548277 
L 155.323006 283.342939 
L 155.398143 282.716423 
L 155.472153 283.205075 
L 155.547295 282.716423 
L 155.622285 282.786814 
L 155.809571 282.821937 
L 155.883587 282.716423 
L 155.958733 282.146292 
L 156.107898 282.716423 
L 156.183039 282.07415 
L 156.258177 282.289992 
L 156.33219 282.432914 
L 156.44434 282.397256 
L 156.519492 282.07415 
L 156.593525 282.146292 
L 156.668663 282.289992 
L 156.743637 281.856558 
L 156.930132 282.289992 
L 157.080407 281.935885 
L 157.154421 282.146292 
L 157.304697 281.783639 
L 157.37871 282.146292 
L 157.453849 281.710524 
L 157.528986 281.783639 
L 157.753275 281.637216 
L 157.865418 281.692215 
L 157.939433 281.929284 
L 158.089707 281.193278 
L 158.163726 281.563712 
L 158.350875 281.137293 
L 158.575176 281.208189 
L 158.650311 280.893429 
L 158.724325 281.118608 
L 158.874599 280.893429 
L 158.948614 281.118608 
L 159.098889 280.893429 
L 159.172904 281.118608 
L 159.322938 280.590468 
L 159.397988 281.043743 
L 159.547283 280.514242 
L 159.696454 280.6665 
L 159.771797 280.20739 
L 159.845813 280.590468 
L 160.070098 280.052798 
L 160.145233 280.284395 
L 160.220371 279.975209 
L 160.294386 280.130191 
L 160.369522 280.130191 
L 160.593811 279.765351 
L 160.742966 279.968146 
L 160.818101 279.620634 
L 160.893242 280.052798 
L 160.967253 279.897427 
L 161.04239 279.584351 
L 161.117529 279.897427 
L 161.191546 279.741278 
L 161.640094 279.584351 
L 161.715233 279.268162 
L 161.790368 279.505595 
L 161.939518 279.268162 
L 162.014655 279.426646 
L 162.163806 279.188629 
L 162.238942 279.426646 
L 162.388098 279.028979 
L 162.462426 279.268162 
L 162.612699 279.028979 
L 162.686714 279.426646 
L 162.836989 278.948862 
L 162.911003 279.268162 
L 163.061072 278.788045 
L 163.210223 279.108901 
L 163.28536 278.54536 
L 163.360504 279.028979 
L 163.434513 278.868551 
L 163.509649 278.54536 
L 163.584787 279.028979 
L 163.658803 278.788045 
L 163.733938 278.464076 
L 163.809075 278.788045 
L 163.92122 278.56565 
L 163.995236 278.707344 
L 164.070406 278.300924 
L 164.182552 278.382597 
L 164.257687 278.707344 
L 164.331703 278.54536 
L 164.40684 278.219057 
L 164.48114 278.464076 
L 164.631413 278.219057 
L 164.705431 278.382597 
L 164.780566 278.300924 
L 165.004802 278.054738 
L 165.192083 277.723766 
L 165.266099 278.136994 
L 165.341239 277.889641 
L 165.453381 277.951644 
L 165.528517 277.723766 
L 165.602533 278.054738 
L 165.752807 277.640537 
L 165.826822 277.972287 
L 165.976901 277.473495 
L 166.052038 277.889641 
L 166.20119 277.389682 
L 166.275207 277.723766 
L 166.42548 277.305675 
L 166.500617 277.473495 
L 166.574631 277.389682 
L 166.64977 277.305675 
L 166.724907 277.557113 
L 166.798921 277.137077 
L 166.873378 277.221473 
L 167.172808 277.326695 
L 167.247943 277.052486 
L 167.321958 277.137077 
L 167.397093 277.221473 
L 167.472229 276.967701 
L 167.546247 277.052486 
L 167.62154 277.137077 
L 167.770692 276.882721 
L 167.84583 277.052486 
L 167.994982 276.712178 
L 168.07012 276.797547 
L 168.145255 276.540857 
L 168.219271 276.626614 
L 168.369545 276.540857 
L 168.44356 276.368757 
L 168.518698 276.454904 
L 168.593834 276.540857 
L 168.66785 276.368757 
L 168.742986 276.454904 
L 168.855132 276.239172 
L 168.930268 276.454904 
L 169.004283 276.282416 
L 169.07919 276.368757 
L 169.340487 276.19588 
L 169.415624 276.368757 
L 169.49077 276.282416 
L 169.564786 276.022224 
L 169.639924 276.19588 
L 169.789079 275.935105 
L 169.864212 276.109149 
L 170.013364 275.760282 
L 170.088503 275.935105 
L 170.200646 275.913294 
L 170.275783 275.584681 
L 170.349798 275.847791 
L 170.424936 275.760282 
L 170.500072 275.584681 
L 170.574377 275.760282 
L 170.649514 275.672579 
L 170.798666 275.496589 
L 170.873805 275.672579 
L 171.098094 275.408303 
L 171.47232 275.408303 
L 171.621477 275.053211 
L 171.807633 275.408303 
L 171.957906 274.874498 
L 172.10685 274.963952 
L 172.257125 274.963952 
L 172.406278 274.695007 
L 172.481419 275.142275 
L 172.630985 274.604969 
L 172.705003 274.963952 
L 172.855275 274.604969 
L 172.929291 274.963952 
L 173.079564 274.424311 
L 173.153581 274.695007 
L 173.377869 274.424311 
L 173.602296 274.424311 
L 173.751446 273.969262 
L 173.826586 274.33369 
L 173.90172 274.151865 
L 173.976857 273.969262 
L 174.163017 274.188292 
L 174.424317 273.693898 
L 174.499454 274.242875 
L 174.648603 273.601721 
L 174.72374 273.693898 
L 174.798878 273.78588 
L 174.872894 273.137918 
L 174.94803 273.78588 
L 175.097182 273.137918 
L 175.209648 273.555559 
L 175.284787 273.509349 
L 175.359923 273.137918 
L 175.433939 273.324023 
L 175.509076 273.416783 
L 175.770371 272.857302 
L 175.845152 273.231068 
L 175.994309 272.574936 
L 176.069448 273.231068 
L 176.218597 272.385719 
L 176.293734 272.669252 
L 176.442883 272.195724 
L 176.51802 272.763375 
L 176.668294 272.195724 
L 176.817315 272.480424 
L 176.892451 272.195724 
L 176.966466 272.385719 
L 177.116749 272.004951 
L 177.265902 272.385719 
L 177.341037 271.62107 
L 177.415053 272.100434 
L 177.565327 271.717332 
L 177.639344 271.894535 
L 177.789621 271.427963 
L 177.863635 272.004951 
L 178.013907 271.136843 
L 178.08792 271.717332 
L 178.162962 270.977313 
L 178.238094 271.234078 
L 178.312109 271.524614 
L 178.467993 271.053344 
L 178.536398 271.136843 
L 178.611536 271.427963 
L 178.799045 270.696881 
L 178.873055 271.427963 
L 179.023329 270.25298 
L 179.097343 271.039414 
L 179.17248 270.25298 
L 179.246495 270.450755 
L 179.321632 270.647753 
L 179.470785 270.054426 
L 179.545921 270.351965 
L 179.62106 270.25298 
L 179.808211 269.914975 
L 179.882227 270.1538 
L 180.032498 269.554637 
L 180.106514 270.1538 
L 180.256776 269.554637 
L 180.330792 270.054426 
L 180.481066 269.554637 
L 180.555081 269.755136 
L 180.705356 269.25243 
L 180.779371 269.454096 
L 180.929644 269.25243 
L 181.003663 269.454096 
L 181.153934 269.049986 
L 181.227949 269.151305 
L 181.303088 269.25243 
L 181.452242 268.948472 
L 181.788672 268.642763 
L 181.86381 268.846764 
L 181.938946 268.335304 
L 182.012961 268.744861 
L 182.088098 268.642763 
L 182.16324 268.232428 
L 182.237253 268.744861 
L 182.387525 268.232428 
L 182.46154 268.642763 
L 182.536677 268.540471 
L 182.611814 268.232428 
L 182.686524 268.335304 
L 182.835132 268.232428 
L 182.910267 268.437985 
L 182.985404 268.129358 
L 183.097549 268.28389 
L 183.171566 267.715133 
L 183.246711 267.922635 
L 183.321838 268.026094 
L 183.433984 267.548572 
L 183.507998 267.715133 
L 183.58301 267.818981 
L 183.658147 267.611091 
L 183.733283 267.715133 
L 183.8073 267.818981 
L 183.882436 267.506854 
L 184.031587 267.715133 
L 184.106729 267.506854 
L 184.181864 267.611091 
L 184.294006 267.506854 
L 184.368315 267.715133 
L 184.443454 267.402422 
L 184.517468 267.506854 
L 184.667741 267.402422 
L 184.741757 267.402422 
L 184.816896 267.08796 
L 185.041205 267.402422 
L 185.116327 266.98275 
L 185.190343 267.08796 
L 185.414632 266.877346 
L 185.489772 266.877346 
L 185.67705 266.480348 
L 185.751068 266.771747 
L 185.826209 266.665954 
L 185.975655 266.771747 
L 186.050792 266.665954 
L 186.124817 266.347407 
L 186.237558 266.639475 
L 186.386716 266.453784 
L 186.573519 266.240836 
L 186.648655 266.531027 
L 186.948079 265.919955 
L 187.097231 266.13407 
L 187.246385 265.812606 
L 187.32152 266.182624 
L 187.471274 265.832138 
L 187.545289 266.182624 
L 187.73257 265.678145 
L 187.807707 265.705062 
L 187.881724 265.919955 
L 188.031997 265.48939 
L 188.106014 265.919955 
L 188.255383 265.272941 
L 188.330524 265.812606 
L 188.40566 265.597323 
L 188.591841 265.164424 
L 188.666984 265.597323 
L 188.929146 264.837708 
L 189.078307 264.946808 
L 189.153415 264.618924 
L 189.302576 264.946808 
L 189.377724 264.399362 
L 189.452681 264.837708 
L 189.526693 264.728413 
L 189.601842 264.28929 
L 189.67699 264.887323 
L 189.751005 264.409359 
L 189.826152 264.509241 
L 189.900177 264.837708 
L 189.975315 264.728413 
L 190.087466 264.783085 
L 190.162614 264.28929 
L 190.236646 264.509241 
L 190.311782 264.509241 
L 190.386947 264.168989 
L 190.461402 264.509241 
L 190.610555 264.068561 
L 190.685692 264.28929 
L 190.834844 263.736009 
L 190.90998 264.28929 
L 190.98512 263.847054 
L 191.097262 263.93575 
L 191.171278 263.624769 
L 191.246415 263.847054 
L 191.321551 263.736009 
L 191.507713 263.373768 
L 191.582848 263.847054 
L 191.732002 263.401706 
L 191.882275 263.624769 
L 191.956883 263.177865 
L 192.031487 263.401706 
L 192.106624 263.624769 
L 192.180639 263.065653 
L 192.255776 263.401706 
L 192.330913 263.289883 
L 192.404929 262.614858 
L 192.555202 263.177865 
L 192.629217 262.727849 
L 192.704438 263.401706 
L 192.853594 262.27472 
L 192.928734 262.953246 
L 193.003871 262.388294 
L 193.116009 262.529988 
L 193.190025 262.046988 
L 193.265162 262.727849 
L 193.339177 262.388294 
L 193.414315 262.336693 
L 193.489451 262.727849 
L 193.601548 262.103994 
L 193.676683 262.27472 
L 193.7507 261.932831 
L 193.825835 262.27472 
L 193.900972 262.160951 
L 193.974988 261.818479 
L 194.050124 262.160951 
L 194.125262 262.046988 
L 194.19928 261.589191 
L 194.274414 262.160951 
L 194.349551 262.046988 
L 194.423693 261.589191 
L 194.572845 261.932831 
L 194.647984 261.359126 
L 194.723122 261.703932 
L 194.797138 261.589191 
L 194.872277 261.474256 
L 194.947416 261.703932 
L 195.096418 261.212315 
L 195.171553 261.474256 
L 195.320706 261.128282 
L 195.47098 261.243801 
L 195.620134 261.128282 
L 195.695268 260.547768 
L 195.769284 260.780557 
L 195.881428 260.722433 
L 195.956564 261.128282 
L 196.106053 259.962392 
L 196.18119 260.66426 
L 196.255205 260.431082 
L 196.330344 260.197126 
L 196.405479 260.66426 
L 196.554257 259.962392 
L 196.666409 260.021148 
L 196.741543 260.431082 
L 196.816679 259.72688 
L 196.965827 260.314201 
L 197.11498 259.608832 
L 197.190117 260.197126 
L 197.339271 259.372153 
L 197.414406 259.72688 
L 197.563559 259.134695 
L 197.638697 259.844733 
L 197.78785 259.134695 
L 197.862987 259.72688 
L 198.012138 259.134695 
L 198.087612 259.608832 
L 198.236764 258.77705 
L 198.385921 259.015675 
L 198.461056 258.77705 
L 198.536189 259.015675 
L 198.610209 258.89646 
L 198.685341 258.657446 
L 198.760478 258.89646 
L 198.90943 258.537648 
L 198.984567 258.657446 
L 199.058583 258.537648 
L 199.133721 258.177085 
L 199.208857 258.537648 
L 199.282872 258.417655 
L 199.358011 258.177085 
L 199.433146 258.297467 
L 199.806347 257.693612 
L 199.881483 258.056509 
L 200.030637 257.572257 
L 200.105776 258.056509 
L 200.254925 257.450708 
L 200.330064 257.935738 
L 200.479216 257.207026 
L 200.554351 257.693612 
L 200.853052 256.962566 
L 200.965197 257.237529 
L 201.040335 257.084893 
L 201.227325 257.207026 
L 201.376478 256.717328 
L 201.451616 256.840044 
L 201.600768 256.471312 
L 201.787953 256.717328 
L 201.937106 256.224518 
L 202.012242 256.348012 
L 202.161395 255.852868 
L 202.348676 256.100829 
L 202.609973 255.852868 
L 202.685425 256.100829 
L 202.75944 255.976945 
L 202.834583 255.852868 
L 202.90972 255.976945 
L 202.983731 255.354611 
L 203.058874 255.604128 
L 203.134007 255.604128 
L 203.283158 255.104315 
L 203.358293 255.354611 
L 203.43231 255.22956 
L 203.507445 255.30916 
L 203.657719 254.978876 
L 203.906682 254.761749 
L 204.03116 254.727413 
L 204.180868 254.34876 
L 204.255453 254.727413 
L 204.32947 254.60139 
L 204.404608 254.60139 
L 204.704031 253.933688 
L 204.816177 253.490391 
L 204.890191 253.968357 
L 204.965329 253.586203 
L 205.040408 253.655815 
L 205.189559 253.458429 
L 205.339833 253.713782 
L 205.413851 253.330461 
L 205.488992 253.586203 
L 205.638144 253.202298 
L 205.713274 253.237271 
L 205.787615 252.687701 
L 205.936767 253.07394 
L 206.011903 252.687701 
L 206.087042 253.07394 
L 206.348226 252.299712 
L 206.423363 252.816642 
L 206.497383 252.558566 
L 206.572521 252.299712 
L 206.647656 252.816642 
L 206.721669 252.558566 
L 206.796806 252.169993 
L 206.87194 252.687701 
L 206.945956 252.429236 
L 207.021092 252.169993 
L 207.133238 252.37375 
L 207.28328 252.040079 
L 207.357299 252.040079 
L 207.432435 252.169993 
L 207.581588 251.909971 
L 207.693728 251.942517 
L 207.844005 251.51848 
L 207.993155 251.779669 
L 208.06752 251.779669 
L 208.217799 251.387594 
L 208.291816 251.649172 
L 208.36695 251.51848 
L 208.479092 251.158076 
L 208.554228 251.51848 
L 208.628243 251.387594 
L 208.852542 250.862105 
L 209.039824 250.960871 
L 209.114962 250.993769 
L 209.264113 250.333504 
L 209.339252 250.598193 
L 209.451395 250.26721 
L 209.52541 250.465946 
L 209.600547 250.068036 
L 209.675686 250.333504 
L 209.7497 250.200867 
L 209.824836 250.068036 
L 209.899973 250.333504 
L 209.973989 250.200867 
L 210.198278 249.80179 
L 210.311232 250.068036 
L 210.385247 249.52261 
L 210.460385 250.068036 
L 210.609537 249.400962 
L 210.684605 249.668375 
L 210.833757 249.230385 
L 210.908894 249.791534 
L 211.096175 249.065601 
L 211.170194 249.132771 
L 211.245332 249.668375 
L 211.39448 248.863802 
L 211.544756 249.132771 
L 211.61877 248.729025 
L 211.693907 248.998383 
L 211.769043 248.863802 
L 211.84338 248.495771 
L 211.918517 249.132771 
L 211.992534 248.458889 
L 212.0744 248.632637 
L 212.142808 248.998383 
L 212.216822 248.187974 
L 212.441112 248.485937 
L 212.516248 248.052225 
L 212.628393 248.16084 
L 212.70353 248.458889 
L 212.852685 247.780144 
L 212.964827 247.943486 
L 213.039965 248.458889 
L 213.189116 247.916282 
L 213.264253 248.187974 
L 213.338271 248.052225 
L 213.413774 247.643811 
L 213.525921 248.284819 
L 213.750208 247.233647 
L 213.862354 247.541434 
L 214.011505 247.507284 
L 214.086642 246.821731 
L 214.198786 246.849247 
L 214.347939 247.233647 
L 214.423075 246.821731 
L 214.497093 246.959231 
L 214.609236 246.718479 
L 214.684374 246.959231 
L 214.75951 246.408065 
L 214.945671 246.959231 
L 215.095945 246.269788 
L 215.16996 246.684037 
L 215.320232 246.131315 
L 215.394251 246.546149 
L 215.469387 246.408065 
L 215.544522 246.131315 
L 215.618537 246.408065 
L 215.768811 245.992649 
L 215.842852 246.408065 
L 216.104816 245.519727 
L 216.179955 245.714732 
L 216.332476 245.455969 
L 216.404245 245.853787 
L 216.516391 245.631205 
L 216.590403 245.156563 
L 216.66554 245.194719 
L 216.777684 245.366241 
L 217.001494 244.454476 
L 217.076639 244.876312 
L 217.225801 244.17228 
L 217.300939 244.876312 
L 217.376081 244.735895 
L 217.450098 244.17228 
L 217.600377 244.735895 
L 217.675352 244.17228 
L 217.749944 244.876312 
L 217.899096 244.03089 
L 217.973435 244.876312 
L 218.123248 244.03089 
L 218.272402 244.313475 
L 218.347538 243.889305 
L 218.422677 243.966557 
L 218.796115 243.178465 
L 218.871253 243.321022 
L 218.94639 243.747526 
L 219.020411 242.749627 
L 219.169566 243.463385 
L 219.244701 242.462762 
L 219.320191 243.321022 
L 219.469342 242.462762 
L 219.618495 243.035714 
L 219.693634 242.462762 
L 219.805776 243.142795 
L 220.030065 242.175119 
L 220.104081 242.892767 
L 220.291363 241.886698 
L 220.366499 242.410521 
L 220.441637 242.374339 
L 220.515654 242.031006 
L 220.627796 242.283076 
L 220.702933 242.031006 
L 220.852086 242.175119 
L 220.927228 241.886698 
L 221.002362 242.175119 
L 221.151512 241.597499 
L 221.225528 241.939196 
L 221.375803 241.307522 
L 221.450938 241.939196 
L 221.60009 241.162241 
L 221.674106 241.465788 
L 221.749243 241.307522 
L 221.82438 240.871097 
L 221.898654 241.452608 
L 221.97379 241.307522 
L 222.048927 240.871097 
L 222.122942 241.016767 
L 222.347231 241.089528 
L 222.497505 240.432922 
L 222.57153 240.871097 
L 222.646667 240.725233 
L 222.75881 240.323105 
L 222.907964 240.579175 
L 222.9831 240.286475 
L 223.058238 240.432922 
L 223.132252 240.579175 
L 223.282528 239.845965 
L 223.431761 239.992996 
L 223.506902 239.845965 
L 223.580918 240.286475 
L 223.731193 239.55132 
L 223.805205 240.286475 
L 223.955477 239.403705 
L 224.066814 239.712132 
L 224.131877 240.353066 
L 224.197985 239.55132 
L 224.263032 239.80392 
L 224.441365 239.403705 
L 224.627531 239.403705 
L 224.702675 239.403705 
L 224.851651 239.107892 
L 224.926806 239.107892 
L 225.114109 238.885522 
L 225.188125 239.107892 
L 225.300281 238.774173 
L 225.37543 238.959694 
L 225.524586 238.811302 
L 225.599733 238.959694 
L 225.748885 238.662714 
L 225.82403 238.662714 
L 226.085338 238.215786 
L 226.160485 238.513933 
L 226.235648 238.215786 
L 226.34721 238.327682 
L 226.422347 238.215786 
L 226.496372 238.364957 
L 226.758815 237.767107 
L 226.832841 238.364957 
L 226.983124 237.617158 
L 227.057148 238.215786 
L 227.244457 237.527095 
L 227.319719 237.467015 
L 227.393743 237.916861 
L 227.581039 237.166144 
L 227.656176 237.467015 
L 227.805223 237.015418 
L 227.880361 237.316677 
L 228.104658 236.71338 
L 228.253829 237.015418 
L 228.328969 236.410565 
L 228.403392 236.71338 
L 228.478529 236.56207 
L 228.552544 236.258866 
L 228.964323 236.375575 
L 229.076456 235.711137 
L 229.150475 236.106972 
L 229.225611 235.954883 
L 229.412626 236.345575 
L 229.561778 235.497451 
L 229.636916 236.106972 
L 229.786067 235.497451 
L 229.861205 236.106972 
L 230.010358 235.038268 
L 230.085494 236.258866 
L 230.16063 234.731173 
L 230.234645 235.191523 
L 230.309784 235.650123 
L 230.384919 234.731173 
L 230.45914 235.038268 
L 230.571284 234.923198 
L 230.646423 235.497451 
L 230.795574 234.731173 
L 230.870712 234.884818 
L 231.019863 234.577334 
L 231.095 234.731173 
L 231.169015 234.114649 
L 231.244152 234.269072 
L 231.319289 234.731173 
L 231.394164 233.650214 
L 231.543318 234.4233 
L 231.692473 233.495013 
L 231.767606 233.80522 
L 231.842742 233.339618 
L 231.916761 233.495013 
L 231.991896 233.650214 
L 232.253192 232.872265 
L 232.32833 233.339618 
L 232.477482 232.246405 
L 232.552619 233.184028 
L 232.664764 233.184028 
L 232.813915 232.246405 
L 232.889053 232.872265 
L 233.038204 232.089453 
L 233.113342 232.872265 
L 233.188478 232.246405 
L 233.30063 232.246405 
L 233.412775 231.42024 
L 233.561927 231.932307 
L 233.711095 231.459703 
L 233.786218 231.932307 
L 233.935369 231.301779 
L 234.010507 231.774967 
L 234.159658 230.668137 
L 234.234795 231.617432 
L 234.383947 230.826839 
L 234.459084 231.215556 
L 234.534221 230.203124 
L 234.608237 230.35015 
L 234.720381 230.707831 
L 234.869967 230.031384 
L 234.945116 230.35015 
L 235.020242 230.509241 
L 235.094256 229.871709 
L 235.244337 230.190864 
L 235.356483 230.230704 
L 235.505637 229.070418 
L 235.580772 229.71184 
L 235.729923 228.74854 
L 235.805061 229.551776 
L 235.954212 228.74854 
L 236.029351 229.070418 
L 236.103365 228.909577 
L 236.178501 228.425884 
L 236.25364 228.74854 
L 236.327654 228.587309 
L 236.477929 228.909577 
L 236.62708 227.940441 
L 236.702028 228.909577 
L 236.85118 227.778238 
L 236.92632 228.909577 
L 237.075469 227.778238 
L 237.150607 228.425884 
L 237.299758 227.61584 
L 237.411903 227.778238 
L 237.748337 227.127479 
L 237.823474 227.61584 
L 237.972908 226.637367 
L 238.048046 227.29046 
L 238.12206 227.127479 
L 238.197198 226.637367 
L 238.272335 227.453247 
L 238.421486 226.309654 
L 238.496627 226.800933 
L 238.645775 226.145505 
L 238.720912 226.637367 
L 238.945205 226.227604 
L 239.057348 226.322273 
L 239.131364 226.145505 
L 239.206499 225.651893 
L 239.281636 226.145505 
L 239.355417 225.981162 
L 239.46756 225.816625 
L 239.542697 224.991019 
L 239.692218 225.651893 
L 239.767359 224.991019 
L 239.916509 225.651893 
L 239.991644 224.825314 
L 240.065664 225.486966 
L 240.140797 225.321845 
L 240.215936 224.659415 
L 240.36509 225.321845 
L 240.440223 224.659415 
L 240.514245 225.486966 
L 240.664512 224.493321 
L 240.738539 224.825314 
L 240.813679 224.659415 
L 240.88865 224.16055 
L 240.963787 224.825314 
L 241.037803 224.659415 
L 241.112938 224.16055 
L 241.262093 224.493321 
L 241.337227 223.659935 
L 241.48638 224.327033 
L 241.561517 223.492674 
L 241.636655 224.16055 
L 241.710669 223.827001 
L 241.785806 223.325219 
L 241.860943 223.827001 
L 242.010095 222.989724 
L 242.085233 223.766272 
L 242.159248 223.415411 
L 242.272213 223.241418 
L 242.346221 222.821685 
L 242.496495 223.492674 
L 242.570511 222.989724 
L 242.645647 223.157569 
L 242.720795 223.157569 
L 242.7948 222.653452 
L 242.945073 223.157569 
L 243.019089 222.485024 
L 243.094228 222.989724 
L 243.281509 222.653452 
L 243.355522 222.147585 
L 243.430662 222.316402 
L 243.542804 222.611363 
L 243.691956 221.978573 
L 243.767096 222.653452 
L 243.916245 221.809367 
L 243.991664 222.653452 
L 244.140816 221.639966 
L 244.215953 222.147585 
L 244.365106 221.639966 
L 244.440244 222.147585 
L 244.589395 221.639966 
L 244.664532 221.978573 
L 244.813684 221.639966 
L 244.888822 221.809367 
L 244.962837 221.639966 
L 245.03798 221.130598 
L 245.113113 221.639966 
L 245.187125 221.470371 
L 245.262118 220.619478 
L 245.337256 221.639966 
L 245.411269 221.300582 
L 245.486406 220.821037 
L 245.561543 221.300582 
L 245.710695 220.277759 
L 245.785833 221.300582 
L 245.938351 220.595096 
L 246.047132 220.576806 
L 246.159274 220.192208 
L 246.234412 220.790046 
L 246.383567 220.106608 
L 246.458701 220.448716 
L 246.571111 219.499434 
L 246.645126 219.935263 
L 246.720262 219.763722 
L 246.832409 220.06379 
L 246.906429 219.763722 
L 246.981566 220.106608 
L 247.057027 219.591988 
L 247.131041 219.763722 
L 247.281315 219.075616 
L 247.430466 219.420058 
L 247.505603 218.903103 
L 247.617749 219.701296 
L 247.842043 218.730396 
L 247.991189 219.075616 
L 248.066326 218.730396 
L 248.140343 219.075616 
L 248.215478 218.384398 
L 248.364638 219.075616 
L 248.514912 218.037621 
L 248.588928 218.903103 
L 248.738081 218.037621 
L 248.813218 218.903103 
L 248.962369 217.863942 
L 249.037506 218.557494 
L 249.224236 217.968173 
L 249.299405 217.690067 
L 249.374542 218.557494 
L 249.523694 217.690067 
L 249.598832 218.573221 
L 249.747985 217.341735 
L 249.823122 217.690067 
L 249.897136 217.690067 
L 250.084497 216.948931 
L 250.159673 217.690067 
L 250.308915 216.992624 
L 250.383605 217.341735 
L 250.607895 216.817777 
L 250.681909 216.992624 
L 250.832185 216.642736 
L 250.981335 216.642736 
L 251.056138 216.817777 
L 251.130723 216.642736 
L 251.205876 216.116444 
L 251.281022 216.292069 
L 251.355049 216.116444 
L 251.430199 215.588401 
L 251.505336 216.292069 
L 251.654654 215.588401 
L 251.729783 215.940624 
L 251.803798 215.76461 
L 251.87894 215.058608 
L 251.952956 215.76461 
L 252.103247 215.058608 
L 252.178121 215.2354 
L 252.252136 215.2354 
L 252.364281 215.102824 
L 252.439422 214.70444 
L 252.514558 215.411998 
L 252.58857 215.2354 
L 252.663707 215.058608 
L 252.738844 215.2354 
L 252.887996 214.70444 
L 252.963134 215.2354 
L 253.111756 214.349494 
L 253.186894 214.527064 
L 253.26203 214.70444 
L 253.336045 214.349494 
L 253.411183 214.527064 
L 253.598466 214.837344 
L 253.67248 213.99377 
L 253.747616 214.349494 
L 253.896771 213.637268 
L 253.971906 214.171729 
L 254.047044 213.99377 
L 254.196026 213.815616 
L 254.271163 213.99377 
L 254.420314 213.279988 
L 254.495454 213.637268 
L 254.570589 212.921929 
L 254.644603 213.279988 
L 254.719742 213.279988 
L 254.794877 212.563093 
L 254.868893 212.921929 
L 254.944029 213.458725 
L 255.019166 212.383383 
L 255.093188 212.742608 
L 255.16832 213.279988 
L 255.317471 212.023379 
L 255.392607 212.921929 
L 255.653905 211.301038 
L 255.804178 212.023379 
L 255.878199 211.356713 
L 255.953334 211.662598 
L 256.02847 211.481915 
L 256.140614 211.617445 
L 256.21463 211.119966 
L 256.289767 211.481915 
L 256.364903 210.575585 
L 256.438917 210.75724 
L 256.514054 211.119966 
L 256.589191 210.9387 
L 256.663209 210.575585 
L 256.850488 210.9387 
L 257.074777 210.211691 
L 257.149918 210.211691 
L 257.225054 209.847019 
L 257.299066 210.393735 
L 257.374205 209.298552 
L 257.486348 209.435833 
L 257.560365 208.931935 
L 257.6355 210.211691 
L 257.747909 208.886053 
L 257.821929 209.115341 
L 257.972198 208.931935 
L 258.046213 209.115341 
L 258.12135 208.848504 
L 258.196487 209.340804 
L 258.345641 208.011988 
L 258.420776 208.56454 
L 258.682076 207.272529 
L 258.75721 208.38055 
L 258.906364 207.238843 
L 258.981501 208.153835 
L 259.130652 207.272529 
L 259.205787 207.827415 
L 259.354941 206.529958 
L 259.430077 207.087178 
L 259.504093 206.901633 
L 259.579231 206.631401 
L 259.654368 207.272529 
L 259.803521 206.157505 
L 259.878656 207.087178 
L 259.952672 206.715893 
L 260.027809 205.970987 
L 260.102945 206.715893 
L 260.176961 206.343829 
L 260.252816 205.784275 
L 260.363847 206.808787 
L 260.551151 206.631401 
L 260.626297 205.784275 
L 260.738449 205.970987 
L 260.887512 205.597368 
L 261.036673 205.410266 
L 261.186975 205.597368 
L 261.523425 204.847794 
L 261.672585 205.035479 
L 262.046049 204.283571 
L 262.233352 204.847794 
L 262.382751 203.717598 
L 262.457897 204.283571 
L 262.607059 203.528551 
L 262.682201 203.717598 
L 262.868377 202.865355 
L 263.017917 203.149874 
L 263.168191 202.580399 
L 263.242209 203.149874 
L 263.317343 202.960243 
L 263.392482 202.580399 
L 263.466851 202.960243 
L 263.616005 202.199777 
L 263.69114 202.960243 
L 263.840294 202.199777 
L 263.915429 202.580399 
L 263.990566 202.199777 
L 264.13972 202.580399 
L 264.401016 201.627384 
L 264.475918 202.199777 
L 264.551055 202.009174 
L 264.625073 201.436198 
L 264.700208 201.818376 
L 264.775349 201.627384 
L 264.849364 201.436198 
L 264.924497 201.905126 
L 264.999635 201.744941 
L 265.073651 201.244816 
L 265.148788 201.818376 
L 265.223924 201.627384 
L 265.299061 201.053241 
L 265.44827 201.627384 
L 265.560415 200.717516 
L 265.67256 201.070665 
L 265.746576 200.429277 
L 265.821713 201.244816 
L 265.933859 200.429277 
L 266.008995 200.442388 
L 266.121138 200.246499 
L 266.233283 200.68428 
L 266.3073 199.899703 
L 266.382435 201.053241 
L 266.531598 199.899703 
L 266.606736 200.477347 
L 266.755889 199.899703 
L 266.831024 200.477347 
L 266.942912 199.629536 
L 267.018049 200.092445 
L 267.093186 199.812028 
L 267.168324 200.092445 
L 267.317476 199.320308 
L 267.39149 199.899703 
L 267.541764 199.320308 
L 267.690917 199.513634 
L 267.766055 198.933072 
L 268.027351 199.320308 
L 268.102489 198.545057 
L 268.289791 199.126787 
L 268.363784 199.126787 
L 268.43807 198.350759 
L 268.513204 199.126787 
L 268.588359 198.933072 
L 268.663492 198.350759 
L 268.812629 199.126787 
L 268.886645 197.961577 
L 268.961782 199.126787 
L 269.111842 198.350759 
L 269.223991 198.399352 
L 269.298005 198.156265 
L 269.373144 198.350759 
L 269.448278 197.766695 
L 269.522291 198.156265 
L 269.672567 197.766695 
L 269.858724 198.078414 
L 270.046258 197.766695 
L 270.120274 196.98522 
L 270.19541 197.766695 
L 270.345685 196.789366 
L 270.419699 197.766695 
L 270.568851 196.789366 
L 270.643988 197.766695 
L 270.793143 196.789366 
L 270.86828 197.376347 
L 270.943416 197.180881 
L 271.017432 196.397072 
L 271.092573 196.98522 
L 271.167704 196.41492 
L 271.241726 196.593316 
L 271.316856 196.98522 
L 271.466871 196.397072 
L 271.540887 196.98522 
L 271.691162 196.004001 
L 271.765176 196.789366 
L 271.915451 196.004001 
L 271.98947 196.397072 
L 272.139741 195.807173 
L 272.213755 196.397072 
L 272.288892 196.200634 
L 272.364029 196.200634 
L 272.476175 195.807173 
L 272.550191 196.053177 
L 272.625593 195.610151 
L 272.699607 195.807173 
L 272.962024 195.017918 
L 273.110933 195.556384 
L 273.223077 194.869586 
L 273.298214 195.125727 
L 273.709793 194.622123 
L 273.858945 195.109144 
L 273.934081 194.423934 
L 274.008096 195.017918 
L 274.158372 194.22555 
L 274.270515 194.572594 
L 274.419669 194.026972 
L 274.494804 194.22555 
L 274.569146 194.22555 
L 274.644283 193.828199 
L 274.7183 194.026972 
L 275.017725 193.230714 
L 275.092862 193.629232 
L 275.279022 193.230714 
L 275.354158 193.629232 
L 275.503312 192.831418 
L 275.653585 193.43007 
L 275.727437 192.631478 
L 275.802573 193.230714 
L 275.87771 193.031163 
L 276.026862 192.631478 
L 276.101913 193.031163 
L 276.17593 192.030491 
L 276.326202 192.831418 
L 276.400221 192.231015 
L 276.475355 192.431344 
L 276.662637 192.522338 
L 276.729127 191.866282 
L 276.795294 191.944493 
L 276.868185 192.116454 
L 276.935473 191.77239 
L 277.00276 191.944493 
L 277.075653 192.116454 
L 277.148546 191.427754 
L 277.222562 191.829773 
L 277.297699 191.226453 
L 277.372835 191.427754 
L 277.446851 191.628861 
L 277.521988 191.226453 
L 277.596923 191.427754 
L 277.67206 191.647134 
L 277.746077 190.869827 
L 277.821212 191.226453 
L 277.89635 191.226453 
L 277.970364 190.621381 
L 278.08251 191.125729 
L 278.306799 190.014559 
L 278.456264 190.621381 
L 278.531402 189.811896 
L 278.606538 190.014559 
L 278.680555 190.217028 
L 278.792698 189.609038 
L 278.867836 189.811896 
L 278.97998 189.913252 
L 279.055117 189.811896 
L 279.13005 190.014559 
L 279.242191 189.811896 
L 279.391343 188.795663 
L 279.466481 189.405986 
L 279.615633 188.795663 
L 279.690769 189.609038 
L 279.839924 188.591833 
L 279.952067 189.52204 
L 280.17636 188.183589 
L 280.251493 188.999299 
L 280.325298 188.591833 
L 280.400434 187.979175 
L 280.47557 188.591833 
L 280.625124 187.979175 
L 280.69914 188.387808 
L 280.849417 187.774567 
L 280.923433 188.795663 
L 281.073704 186.732786 
L 281.14862 187.774567 
L 281.297771 186.542832 
L 281.372908 187.364767 
L 281.446925 187.159575 
L 281.522061 185.717786 
L 281.597197 186.954189 
L 281.671213 186.542832 
L 281.74635 185.511038 
L 281.821486 186.542832 
L 281.933632 186.542832 
L 282.007653 186.130698 
L 282.119793 186.233805 
L 282.307474 185.096958 
L 282.38207 186.542832 
L 282.531222 184.889627 
L 282.606359 185.304095 
L 282.680376 185.096958 
L 282.755514 184.682101 
L 282.904666 185.304095 
L 282.979801 184.266465 
L 283.054938 184.889627 
L 283.128954 184.682101 
L 283.204091 184.058356 
L 283.353245 184.682101 
L 283.540525 183.641553 
L 283.802174 184.370447 
L 283.877307 183.43286 
L 283.951324 184.889627 
L 284.101596 183.223972 
L 284.175612 183.641553 
L 284.325888 182.596142 
L 284.399901 183.850052 
L 284.550174 182.691381 
L 284.699333 183.223972 
L 284.774464 181.966562 
L 284.923618 182.596142 
L 285.147908 182.386476 
L 285.222833 181.545868 
L 285.371991 182.176616 
L 285.484131 180.754972 
L 285.708421 181.756312 
L 285.783556 181.124397 
L 285.858693 181.756312 
L 285.970002 181.071659 
L 286.045138 181.756312 
L 286.120275 180.279121 
L 286.194291 180.702148 
L 286.269427 180.702148 
L 286.344564 179.643121 
L 286.418581 179.932429 
L 286.493597 180.279121 
L 286.792767 179.005371 
L 286.867904 179.643121 
L 287.017056 179.005371 
L 287.16621 179.643121 
L 287.35349 178.218044 
L 287.427562 179.218149 
L 287.539723 178.152314 
L 287.614859 178.808788 
L 287.690004 178.152314 
L 287.765146 178.792398 
L 287.839163 178.579231 
L 287.914305 177.724618 
L 288.100486 178.792398 
L 288.175618 178.36587 
L 288.250763 178.36587 
L 288.324795 178.579231 
L 288.587307 177.510478 
L 288.661611 178.36587 
L 288.811519 177.081615 
L 288.885534 178.36587 
L 289.035807 177.081615 
L 289.109828 178.36587 
L 289.185039 177.724618 
L 289.297159 177.724618 
L 289.372294 176.866892 
L 289.446309 178.152314 
L 289.521448 177.724618 
L 289.63359 177.724618 
L 289.708728 176.651975 
L 289.782743 177.938563 
L 289.858156 176.866892 
L 289.970305 177.403335 
L 290.04432 176.651975 
L 290.119459 177.510478 
L 290.194592 175.495915 
L 290.268608 175.840152 
L 290.343741 176.866892 
L 290.41888 176.006054 
L 290.531024 176.436862 
L 290.717183 175.358384 
L 290.79232 175.790359 
L 290.867457 175.574468 
L 290.941472 174.92563 
L 291.016611 175.790359 
L 291.165763 174.92563 
L 291.316035 175.574468 
L 291.465012 174.92563 
L 291.540151 174.92563 
L 291.615287 174.708962 
L 291.689686 175.142104 
L 291.838842 174.05779 
L 292.063022 174.654765 
L 292.138159 174.92563 
L 292.287411 173.840343 
L 292.362549 174.492099 
L 292.474702 174.361888 
L 292.586927 174.535487 
L 292.660977 173.602907 
L 292.736114 173.622703 
L 292.811249 174.275042 
L 292.886137 173.602907 
L 292.998345 173.677131 
L 293.072369 173.186837 
L 293.147505 174.05779 
L 293.222652 173.127341 
L 293.334807 173.622703 
L 293.559021 172.650848 
L 293.783312 173.186837 
L 293.895467 172.906227 
L 294.119026 173.023187 
L 294.231169 172.695558 
L 294.418307 173.035779 
L 294.493441 172.650848 
L 294.567454 173.127341 
L 294.679598 172.53158 
L 294.79179 172.695558 
L 294.979069 171.918427 
L 295.054206 172.173429 
L 295.128224 171.934373 
L 295.205606 172.632503 
L 295.315503 171.56737 
L 295.39064 172.173429 
L 295.464657 171.934373 
L 295.614929 172.173429 
L 295.727074 170.735617 
L 295.801091 171.455565 
L 296.137534 170.511209 
L 296.249676 170.687547 
L 296.361819 171.215814 
L 296.586109 170.720596 
L 296.810398 170.460804 
L 296.922543 170.885778 
L 297.034688 170.158159 
L 297.146837 170.555305 
L 297.258977 169.981448 
L 297.372043 170.402631 
L 297.484193 170.158159 
L 297.708506 168.76831 
L 297.820651 169.627651 
L 297.932806 169.229035 
L 298.04496 169.273357 
L 298.155985 168.75367 
L 298.381247 168.943923 
L 298.605557 168.372735 
L 298.71771 168.563274 
L 298.941175 168.182053 
L 299.053316 168.563274 
L 299.165461 167.672869 
L 299.277605 168.182053 
L 299.389751 167.800261 
L 299.501895 167.991228 
L 299.614039 167.494415 
L 299.726187 168.118461 
L 299.838328 167.417896 
L 299.950478 167.449782 
L 300.062617 167.315836 
L 300.174762 167.417896 
L 300.623236 166.459485 
L 300.735394 166.651453 
L 300.847534 166.651453 
L 301.071822 166.267374 
L 301.296113 166.296939 
L 301.408256 166.07512 
L 301.520407 165.497501 
L 301.744691 165.690184 
L 301.856836 165.690184 
L 301.96898 164.918596 
L 302.08149 165.882723 
L 302.193634 164.982982 
L 302.305785 165.304676 
L 302.417925 164.636099 
L 302.530072 164.918596 
L 302.754358 163.592687 
L 302.866502 163.756926 
L 302.978428 164.162335 
L 303.315758 162.926541 
L 303.427894 162.979622 
L 303.538921 163.915639 
L 303.726197 162.754974 
L 303.838342 162.545132 
L 303.950486 162.754974 
L 304.39931 161.704104 
L 304.511455 161.91461 
L 304.735742 161.809378 
L 304.84789 162.12495 
L 305.072176 161.493433 
L 305.184321 161.493433 
L 305.296209 160.830244 
L 305.408353 161.718143 
L 305.669815 159.847538 
L 305.781957 161.352894 
L 305.894105 161.071593 
L 306.118394 160.437591 
L 306.230537 160.437591 
L 306.342681 161.071593 
L 306.679116 159.937023 
L 306.90341 160.437591 
L 307.127694 159.802096 
L 307.239713 159.184435 
L 307.464003 159.802096 
L 307.576888 159.377605 
L 307.688483 159.435529 
L 307.800627 158.95245 
L 307.912772 159.2562 
L 308.361351 158.313475 
L 308.473495 158.069664 
L 308.69764 158.526633 
L 308.809784 158.313475 
L 308.921932 157.245202 
L 309.146218 158.100152 
L 309.370508 157.245202 
L 309.482652 157.03105 
L 309.707527 157.886663 
L 309.819665 157.03105 
L 309.93181 157.459188 
L 310.043955 156.602249 
L 310.156099 156.678869 
L 310.268245 157.245202 
L 310.38039 156.3876 
L 310.492537 156.745257 
L 310.716826 155.880986 
L 310.941111 156.172785 
L 311.053257 155.096225 
L 311.1654 155.096225 
L 311.277333 155.281072 
L 311.389478 155.742658 
L 311.501623 155.096225 
L 311.613766 155.311869 
L 311.725912 154.015521 
L 311.838055 154.278359 
L 311.9502 155.114202 
L 312.062346 154.278359 
L 312.174489 154.664441 
L 312.28689 153.36511 
L 312.399032 153.582079 
L 312.511173 155.135445 
L 312.623318 154.015521 
L 312.735464 154.015521 
L 312.847607 152.713207 
L 312.959753 153.272072 
L 313.071896 152.930674 
L 313.296192 153.36511 
L 313.408331 152.495575 
L 313.632619 153.191415 
L 313.744766 152.277776 
L 313.85691 152.930674 
L 314.081199 151.248781 
L 314.193119 151.623387 
L 314.305269 151.186299 
L 314.417409 152.495575 
L 314.529553 150.639007 
L 314.641698 150.842408 
L 314.753843 151.623387 
L 314.978131 150.639007 
L 315.090281 149.687913 
L 315.165414 150.76846 
L 315.351583 148.950845 
L 315.463727 149.65127 
L 315.688016 149.211199 
L 315.912305 150.310134 
L 316.136596 149.4156 
L 316.248741 148.770464 
L 316.360884 148.990914 
L 316.585173 147.296561 
L 316.809512 147.887006 
L 316.921607 147.887006 
L 317.033756 148.255436 
L 317.258041 147.296561 
L 317.482644 148.108119 
L 317.819082 146.747235 
L 317.931223 146.778955 
L 318.04337 147.444283 
L 318.379801 145.30042 
L 318.491947 145.88953 
L 318.604542 147.38386 
L 318.828832 145.545179 
L 318.940238 145.220722 
L 319.164525 146.334574 
L 319.500959 144.885758 
L 319.613105 144.550421 
L 319.725248 146.334574 
L 320.061682 143.673062 
L 320.285972 144.77402 
L 320.398358 145.220722 
L 320.510039 143.429939 
L 320.734329 143.654367 
L 320.846474 144.326656 
L 321.070762 142.980586 
L 321.182907 143.012705 
L 321.295052 142.755661 
L 321.519341 143.205345 
L 321.631486 142.305313 
L 321.744007 142.594899 
L 321.85615 142.079891 
L 321.968609 142.53057 
L 322.080754 142.366763 
L 322.305043 141.854303 
L 322.641477 142.53057 
L 322.865766 141.128076 
L 322.977912 141.566951 
L 323.051928 142.366763 
L 323.164071 141.854303 
L 323.276219 140.497294 
L 323.613027 141.128076 
L 323.725171 141.176544 
L 323.949461 140.043631 
L 324.061611 140.497294 
L 324.173752 140.076058 
L 324.285895 140.497294 
L 324.510183 139.134318 
L 324.846991 140.043631 
L 324.959134 139.816551 
L 325.183425 138.678666 
L 325.295568 139.231871 
L 325.519603 138.678666 
L 325.856067 138.077022 
L 325.968215 138.173422 
L 326.080366 137.993946 
L 326.192517 137.536637 
L 326.304668 137.993946 
L 326.416821 137.536637 
L 326.529394 137.993946 
L 326.641549 136.849431 
L 326.753646 136.849431 
L 326.865804 137.536637 
L 326.977432 136.898567 
L 327.089576 137.536637 
L 327.201721 136.849431 
L 327.538155 137.288652 
L 327.650303 137.040472 
L 327.874589 135.470544 
L 327.986733 135.930836 
L 328.211277 135.700773 
L 328.32342 135.470544 
L 328.435569 134.547971 
L 328.584724 135.190757 
L 328.696862 135.009589 
L 328.809009 135.470544 
L 329.033296 134.118732 
L 329.14544 134.316913 
L 329.294592 134.08569 
L 329.406737 134.118732 
L 329.518888 133.545524 
L 329.631296 133.854301 
L 329.967729 133.043134 
L 330.192019 133.622746 
L 330.304167 132.356802 
L 330.416309 133.545524 
L 330.528452 132.741326 
L 330.640596 132.927087 
L 330.864886 132.229936 
L 330.97703 131.531294 
L 331.089175 131.7477 
L 331.201319 131.298081 
L 331.313465 131.997221 
L 331.537755 131.025791 
L 331.650174 131.126954 
L 331.762319 132.081864 
L 331.837457 131.806695 
L 332.061746 131.025791 
L 332.286034 130.427375 
L 332.398181 130.881219 
L 332.510323 130.83116 
L 332.733811 129.660955 
L 332.845963 129.597006 
L 332.957961 130.229857 
L 333.07011 130.129534 
L 333.182265 129.426416 
L 333.294413 129.75863 
L 333.406575 129.660955 
L 333.518727 129.794902 
L 333.630879 130.703702 
L 333.855179 128.956843 
L 333.967334 128.956843 
L 334.191952 129.504614 
L 334.30401 127.544144 
L 334.416169 128.251239 
L 334.528322 127.780008 
L 334.640475 128.956843 
L 334.752635 128.486606 
L 334.976548 127.071918 
L 335.089265 127.071918 
L 335.201416 127.780008 
L 335.537874 126.125478 
L 335.650027 126.835557 
L 335.762368 126.734208 
L 335.874518 126.835557 
L 335.986682 126.125478 
L 336.098835 126.534493 
L 336.176126 125.974663 
L 336.285058 126.697603 
L 336.397211 125.651263 
L 336.509365 126.074701 
L 336.621522 125.413908 
L 336.846126 126.362337 
L 336.95827 125.133182 
L 337.070417 125.671036 
L 337.18256 125.413908 
L 337.294704 125.888454 
L 337.855427 124.462827 
L 337.967572 124.899068 
L 338.079717 124.462827 
L 338.191861 124.751828 
L 338.416008 124.462827 
L 338.528149 124.224642 
L 338.640295 124.700846 
L 338.864584 123.509094 
L 338.976729 124.224642 
L 339.088873 123.509094 
L 339.201022 124.224642 
L 339.425307 123.270246 
L 339.537452 123.270246 
L 339.649596 123.608565 
L 339.761741 123.031233 
L 339.873886 123.42381 
L 340.098175 123.031233 
L 340.322464 122.552709 
L 340.434609 122.572661 
L 340.546754 122.313199 
L 340.658898 122.552709 
L 340.883331 122.073523 
L 341.070616 122.029927 
L 341.182755 121.199014 
L 341.519189 121.593673 
L 341.743478 120.975749 
L 341.855625 121.353499 
L 341.967767 121.11316 
L 342.079911 121.178724 
L 342.304202 120.528789 
L 342.416174 120.491517 
L 342.52833 120.631984 
L 342.752619 120.150146 
L 342.864776 120.528789 
L 343.089066 119.908978 
L 343.201227 119.667644 
L 343.425516 120.305095 
L 343.537661 120.150146 
L 343.76195 119.184479 
L 343.874151 119.908978 
L 344.210594 117.731008 
L 344.546157 118.735233 
L 344.658301 118.612612 
L 344.882589 117.002034 
L 344.994735 118.216161 
L 345.106878 117.609616 
L 345.219023 117.973667 
L 345.331168 116.758712 
L 345.443313 116.758712 
L 345.667604 117.609616 
L 345.779746 117.488182 
L 346.004037 115.161962 
L 346.238167 117.434199 
L 346.341338 116.872283 
L 346.527501 114.969282 
L 346.61609 116.027749 
L 346.714779 115.604736 
L 346.826926 115.783764 
L 346.939071 115.295295 
L 347.014208 115.739385 
L 347.126349 114.56135 
L 347.20822 114.583612 
L 347.278868 115.161962 
L 347.352884 114.583612 
L 347.462783 115.393042 
L 347.574928 114.071224 
L 347.687075 114.583612 
L 347.91136 114.211328 
L 348.022838 114.071224 
L 348.134983 112.552098 
L 348.285257 113.755793 
L 348.397402 113.714352 
L 348.509474 114.071224 
L 348.733764 112.350563 
L 348.845908 112.576349 
L 349.03207 113.133688 
L 349.144213 113.056196 
L 349.368502 111.116547 
L 349.480974 112.104091 
L 349.593118 111.010581 
L 349.705262 111.116547 
L 349.817407 110.12635 
L 349.929552 110.374148 
L 350.041701 111.116547 
L 350.153841 111.010581 
L 350.378132 110.509241 
L 350.489726 110.509241 
L 350.601873 110.62178 
L 350.714015 108.822693 
L 350.826162 108.884876 
L 350.914746 109.923484 
L 351.01343 108.768794 
L 351.125578 109.381963 
L 351.312858 108.160657 
L 351.425002 108.636084 
L 351.537148 107.888713 
L 351.723307 108.553116 
L 351.947594 107.639258 
L 352.059968 107.888713 
L 352.172112 107.389637 
L 352.284256 108.636084 
L 352.396403 107.086303 
L 352.508811 107.472862 
L 352.587896 106.685268 
L 352.8077 107.389637 
L 352.919849 107.202313 
L 353.03199 105.574929 
L 353.368764 107.389637 
L 353.446145 105.797257 
L 353.51904 106.980809 
L 353.742092 105.63765 
L 353.825079 105.797257 
L 353.929374 107.639258 
L 354.119174 104.312609 
L 354.227955 105.63765 
L 354.340098 105.63765 
L 354.452244 106.621908 
L 354.564391 106.389496 
L 354.676533 104.884313 
L 354.900822 105.135591 
L 355.012969 104.992024 
L 355.237257 104.381259 
L 355.349401 102.523392 
L 355.686662 104.129483 
L 355.910953 102.109313 
L 356.135242 103.589406 
L 356.247361 103.625435 
L 356.396513 103.373163 
L 356.508663 101.711247 
L 356.620802 101.856046 
L 356.845092 102.822174 
L 357.069381 101.475834 
L 357.18177 102.109313 
L 357.293918 101.349014 
L 357.406059 102.362414 
L 357.630348 101.240278 
L 357.742493 101.09525 
L 357.854638 100.650763 
L 357.966782 101.602613 
L 358.191071 100.37535 
L 358.303216 100.925981 
L 358.639532 100.332962 
L 358.751675 100.650763 
L 358.863819 100.587223 
L 358.975965 100.078534 
L 359.088109 100.587223 
L 359.312137 99.823941 
L 359.424281 100.124806 
L 359.648569 99.059167 
L 359.760714 98.803911 
L 359.985003 100.124806 
L 360.060142 98.618166 
L 360.17139 98.803911 
L 360.283534 98.54849 
L 360.507823 99.569182 
L 360.732113 98.292902 
L 360.844258 98.292902 
L 360.956402 97.408688 
L 361.031538 98.618166 
L 361.143682 97.78123 
L 361.255826 98.292902 
L 361.480116 97.268894 
L 361.704405 98.292902 
L 362.040841 97.268894 
L 362.152758 97.012478 
L 362.264902 97.525145 
L 362.377047 96.220818 
L 362.60134 97.105739 
L 362.825628 96.242234 
L 362.937772 95.212923 
L 363.049919 96.260591 
L 363.162061 95.72791 
L 363.27447 95.985155 
L 363.38662 95.72791 
L 363.498779 94.368786 
L 363.723113 95.72791 
L 363.835268 95.212923 
L 363.947619 95.470499 
L 364.059776 95.283188 
L 364.13379 95.891631 
L 364.245941 95.212923 
L 364.358105 95.304934 
L 364.806712 94.18096 
L 364.918868 94.267058 
L 365.031022 94.697273 
L 365.144037 93.922554 
L 365.256187 94.368786 
L 365.368326 93.922554 
L 365.480477 94.439199 
L 365.592615 94.18096 
L 365.816152 93.146344 
L 366.040439 93.86716 
L 366.152584 94.368786 
L 366.376873 92.533734 
L 366.489018 92.533734 
L 366.713307 93.146344 
L 366.825451 92.109077 
L 366.937596 92.109077 
L 367.161885 92.905786 
L 367.27403 92.628042 
L 367.498319 91.069158 
L 367.722609 92.022518 
L 367.834753 91.741076 
L 368.059046 90.548204 
L 368.396073 91.069158 
L 368.582256 89.76553 
L 368.694415 90.808764 
L 368.806567 90.287478 
L 368.918639 90.548204 
L 369.142942 89.76553 
L 369.33022 90.690348 
L 369.554518 89.504307 
L 369.666681 89.482531 
L 369.778839 89.28027 
L 370.003149 89.76553 
L 370.115668 88.719644 
L 370.452121 88.719644 
L 370.564275 88.981364 
L 370.788588 87.933489 
L 370.90074 88.551308 
L 371.012893 88.195707 
L 371.125045 88.219536 
L 371.349154 87.408557 
L 371.461314 87.577358 
L 371.573473 87.496092 
L 371.685621 86.845395 
L 371.797775 87.671106 
L 372.022083 86.845395 
L 372.134225 87.145843 
L 372.246378 86.882963 
L 372.320738 86.978575 
L 372.433458 86.882963 
L 372.657634 87.408557 
L 372.881654 86.356705 
L 373.105403 86.093327 
L 373.217643 86.356705 
L 373.441954 85.829784 
L 373.554103 85.03816 
L 373.89047 86.112146 
L 374.226879 84.172869 
L 374.339029 85.785844 
L 374.563385 84.773954 
L 374.78769 84.245044 
L 375.012232 84.928094 
L 375.124312 84.773954 
L 375.236456 83.980341 
L 375.348608 84.172869 
L 375.460753 84.773954 
L 375.684941 83.715471 
L 375.90925 83.233466 
L 376.021408 83.715471 
L 376.133552 83.658692 
L 376.245713 83.185236 
L 376.357912 83.450436 
L 376.470075 83.185236 
L 376.582228 83.450436 
L 376.806372 82.122776 
L 376.918524 82.654337 
L 377.030685 81.856746 
L 377.143324 82.388639 
L 377.255472 82.056284 
L 377.479542 82.122776 
L 377.591687 79.771167 
L 377.815977 81.68564 
L 377.928121 81.32419 
L 378.040265 81.856746 
L 378.264554 81.057664 
L 378.488844 79.771167 
L 378.600988 80.524113 
L 378.713133 79.722544 
L 378.825281 80.790971 
L 379.049567 78.651466 
L 379.16161 79.722544 
L 379.273755 79.187337 
L 379.385899 79.455023 
L 379.498044 78.708912 
L 379.610189 79.187337 
L 379.722213 78.919484 
L 379.834365 79.455023 
L 379.946516 78.651466 
L 380.05868 78.708912 
L 380.17083 77.846416 
L 380.395119 78.919484 
L 380.507264 77.577735 
L 380.619409 78.29385 
L 380.731553 76.770697 
L 380.955844 78.383282 
L 381.067987 77.846416 
L 381.292437 75.692325 
L 381.404581 76.231842 
L 381.516725 75.962167 
L 381.628875 76.838007 
L 381.853159 75.422318 
L 381.965304 74.881806 
L 382.189593 75.422318 
L 382.301737 75.669831 
L 382.526027 74.069796 
L 382.638172 74.340632 
L 382.750099 75.152145 
L 382.862251 74.611302 
L 382.974404 74.791657 
L 383.086557 73.798794 
L 383.198706 74.365245 
L 383.310846 74.205234 
L 383.422994 72.693719 
L 383.796432 73.953673 
L 384.021648 72.169303 
L 384.133804 71.079661 
L 384.245954 72.169303 
L 384.358035 72.169303 
L 384.694496 70.26069 
L 384.806446 70.670362 
L 385.104761 68.892422 
L 385.329244 70.26069 
L 385.553548 69.440226 
L 385.665694 69.655254 
L 385.777845 68.343955 
L 385.890083 69.71388 
L 386.002237 67.594976 
L 386.114393 68.618271 
L 386.226549 67.703238 
L 386.338702 68.618271 
L 386.450854 67.794824 
L 386.675151 68.343955 
L 386.787306 68.128304 
L 386.899281 67.245031 
L 387.011436 67.794824 
L 387.235746 66.419098 
L 387.348463 67.3629 
L 387.460607 66.694575 
L 387.572751 67.794824 
L 387.797044 64.988973 
L 388.021331 66.694575 
L 388.133475 67.594976 
L 388.245619 66.510942 
L 388.357764 67.107479 
L 388.515558 65.641863 
L 388.618728 65.315534 
L 388.730873 66.419098 
L 388.955754 63.932349 
L 389.067902 64.48612 
L 389.180043 64.209317 
L 389.292188 66.944864 
L 389.404332 64.545413 
L 389.51648 65.039228 
L 389.628623 63.655215 
L 389.740767 63.655215 
L 389.852911 64.209317 
L 389.965056 63.774007 
L 390.077203 62.03951 
L 390.189347 62.822818 
L 390.525814 61.969056 
L 390.750108 62.822818 
L 390.86225 61.432175 
L 390.974392 61.988929 
L 391.198683 61.432175 
L 391.310833 61.988929 
L 391.422971 61.381528 
L 391.535119 61.432175 
L 391.647263 60.200327 
L 391.871553 61.153549 
L 391.983654 60.037388 
L 392.095798 60.5958 
L 392.320088 59.757933 
L 392.544377 60.316677 
L 392.656523 59.757933 
L 392.768524 60.5958 
L 392.880669 58.638458 
L 392.992815 59.478313 
L 393.104965 59.478313 
L 393.217106 59.73252 
L 393.441083 58.638458 
L 393.55323 59.478313 
L 393.665372 59.402024 
L 393.777517 59.478313 
L 394.001806 58.918575 
L 394.113957 58.358174 
L 394.226095 58.918575 
L 394.338242 58.077725 
L 394.450387 58.598427 
L 394.674965 57.797111 
L 394.899256 58.358174 
L 395.011399 57.295601 
L 395.123544 57.773719 
L 395.23569 57.235384 
L 395.347833 57.797111 
L 395.572124 57.034607 
L 395.684269 56.109941 
L 395.796411 56.672994 
L 395.908557 58.077725 
L 396.24499 55.546226 
L 396.469279 56.672994 
L 396.804907 55.264119 
L 396.918174 55.084511 
L 397.029551 56.109941 
L 397.141691 55.264119 
L 397.253834 55.727492 
L 397.478122 55.264119 
L 397.590267 55.084511 
L 397.702412 55.264119 
L 397.926553 54.416806 
L 398.038695 54.981847 
L 398.262982 54.134036 
L 398.487273 53.568 
L 398.487273 53.568 
" clip-path="url(#p67ed67cb11)" style="fill: none; stroke: #4169e1; stroke-width: 1.5; stroke-linecap: square"/>
   </g>
   <g id="patch_3">
    <path d="M 57.6 307.584 
L 57.6 41.472 
" style="fill: none; stroke: #000000; stroke-width: 0.8; stroke-linejoin: miter; stroke-linecap: square"/>
   </g>
   <g id="patch_4">
    <path d="M 414.72 307.584 
L 414.72 41.472 
" style="fill: none; stroke: #000000; stroke-width: 0.8; stroke-linejoin: miter; stroke-linecap: square"/>
   </g>
   <g id="patch_5">
    <path d="M 57.6 307.584 
L 414.72 307.584 
" style="fill: none; stroke: #000000; stroke-width: 0.8; stroke-linejoin: miter; stroke-linecap: square"/>
   </g>
   <g id="patch_6">
    <path d="M 57.6 41.472 
L 414.72 41.472 
" style="fill: none; stroke: #000000; stroke-width: 0.8; stroke-linejoin: miter; stroke-linecap: square"/>
   </g>
  </g>
 </g>
 <defs>
  <clipPath id="p67ed67cb11">
   <rect x="57.6" y="41.472" width="357.12" height="266.112"/>
  </clipPath>
 </defs>
</svg>
