<?xml version="1.0" encoding="utf-8" standalone="no"?>
<!DOCTYPE svg PUBLIC "-//W3C//DTD SVG 1.1//EN"
  "http://www.w3.org/Graphics/SVG/1.1/DTD/svg11.dtd">
<svg xmlns:xlink="http://www.w3.org/1999/xlink" width="460.8pt" height="345.6pt" viewBox="0 0 460.8 345.6" xmlns="http://www.w3.org/2000/svg" version="1.1">
 <metadata>
  <rdf:RDF xmlns:dc="http://purl.org/dc/elements/1.1/" xmlns:cc="http://creativecommons.org/ns#" xmlns:rdf="http://www.w3.org/1999/02/22-rdf-syntax-ns#">
   <cc:Work>
    <dc:type rdf:resource="http://purl.org/dc/dcmitype/StillImage"/>
    <dc:date>2022-05-21T17:11:22.920746</dc:date>
    <dc:format>image/svg+xml</dc:format>
    <dc:creator>
     <cc:Agent>
      <dc:title>Matplotlib v3.5.1, https://matplotlib.org/</dc:title>
     </cc:Agent>
    </dc:creator>
   </cc:Work>
  </rdf:RDF>
 </metadata>
 <defs>
  <style type="text/css">*{stroke-linejoin: round; stroke-linecap: butt}</style>
 </defs>
 <g id="figure_1">
  <g id="patch_1">
   <path d="M 0 345.6 
L 460.8 345.6 
L 460.8 0 
L 0 0 
z
" style="fill: #ffffff"/>
  </g>
  <g id="axes_1">
   <g id="patch_2">
    <path d="M 57.6 307.584 
L 414.72 307.584 
L 414.72 41.472 
L 57.6 41.472 
z
" style="fill: #ffffff"/>
   </g>
   <g id="matplotlib.axis_1">
    <g id="xtick_1">
     <g id="line2d_1">
      <defs>
       <path id="m1b8383b9ba" d="M 0 0 
L 0 3.5 
" style="stroke: #000000; stroke-width: 0.8"/>
      </defs>
      <g>
       <use xlink:href="#m1b8383b9ba" x="73.610861" y="307.584" style="stroke: #000000; stroke-width: 0.8"/>
      </g>
     </g>
     <g id="text_1">
      <!-- $\mathdefault{0}$ -->
      <g transform="translate(71.120193 321.502498)scale(0.1 -0.1)">
       <defs>
        <path id="CMR17-30" d="M 2688 2025 
C 2688 2416 2682 3080 2413 3591 
C 2176 4039 1798 4198 1466 4198 
C 1158 4198 768 4058 525 3597 
C 269 3118 243 2524 243 2025 
C 243 1661 250 1106 448 619 
C 723 -39 1216 -128 1466 -128 
C 1760 -128 2208 -7 2470 600 
C 2662 1042 2688 1559 2688 2025 
z
M 1466 -26 
C 1056 -26 813 325 723 812 
C 653 1188 653 1738 653 2096 
C 653 2588 653 2997 736 3387 
C 858 3929 1216 4096 1466 4096 
C 1728 4096 2067 3923 2189 3400 
C 2272 3036 2278 2607 2278 2096 
C 2278 1680 2278 1169 2202 792 
C 2067 95 1690 -26 1466 -26 
z
" transform="scale(0.015625)"/>
       </defs>
       <use xlink:href="#CMR17-30" transform="scale(0.996264)"/>
      </g>
     </g>
    </g>
    <g id="xtick_2">
     <g id="line2d_2">
      <g>
       <use xlink:href="#m1b8383b9ba" x="132.30509" y="307.584" style="stroke: #000000; stroke-width: 0.8"/>
      </g>
     </g>
     <g id="text_2">
      <!-- $\mathdefault{50}$ -->
      <g transform="translate(127.323755 321.502498)scale(0.1 -0.1)">
       <defs>
        <path id="CMR17-35" d="M 730 3692 
C 794 3666 1056 3584 1325 3584 
C 1920 3584 2246 3911 2432 4100 
C 2432 4157 2432 4192 2394 4192 
C 2387 4192 2374 4192 2323 4163 
C 2099 4058 1837 3973 1517 3973 
C 1325 3973 1037 3999 723 4139 
C 653 4171 640 4171 634 4171 
C 602 4171 595 4164 595 4037 
L 595 2203 
C 595 2089 595 2057 659 2057 
C 691 2057 704 2070 736 2114 
C 941 2401 1222 2522 1542 2522 
C 1766 2522 2246 2382 2246 1289 
C 2246 1085 2246 715 2054 421 
C 1894 159 1645 25 1370 25 
C 947 25 518 320 403 814 
C 429 807 480 795 506 795 
C 589 795 749 840 749 1038 
C 749 1210 627 1280 506 1280 
C 358 1280 262 1190 262 1011 
C 262 454 704 -128 1382 -128 
C 2042 -128 2669 440 2669 1264 
C 2669 2030 2170 2624 1549 2624 
C 1222 2624 947 2503 730 2274 
L 730 3692 
z
" transform="scale(0.015625)"/>
       </defs>
       <use xlink:href="#CMR17-35" transform="scale(0.996264)"/>
       <use xlink:href="#CMR17-30" transform="translate(45.690477 0)scale(0.996264)"/>
      </g>
     </g>
    </g>
    <g id="xtick_3">
     <g id="line2d_3">
      <g>
       <use xlink:href="#m1b8383b9ba" x="190.99932" y="307.584" style="stroke: #000000; stroke-width: 0.8"/>
      </g>
     </g>
     <g id="text_3">
      <!-- $\mathdefault{100}$ -->
      <g transform="translate(183.527317 321.502498)scale(0.1 -0.1)">
       <defs>
        <path id="CMR17-31" d="M 1702 4058 
C 1702 4192 1696 4192 1606 4192 
C 1357 3916 979 3827 621 3827 
C 602 3827 570 3827 563 3808 
C 557 3795 557 3782 557 3648 
C 755 3648 1088 3686 1344 3839 
L 1344 461 
C 1344 236 1331 160 781 160 
L 589 160 
L 589 0 
C 896 0 1216 0 1523 0 
C 1830 0 2150 0 2458 0 
L 2458 160 
L 2266 160 
C 1715 160 1702 230 1702 458 
L 1702 4058 
z
" transform="scale(0.015625)"/>
       </defs>
       <use xlink:href="#CMR17-31" transform="scale(0.996264)"/>
       <use xlink:href="#CMR17-30" transform="translate(45.690477 0)scale(0.996264)"/>
       <use xlink:href="#CMR17-30" transform="translate(91.380954 0)scale(0.996264)"/>
      </g>
     </g>
    </g>
    <g id="xtick_4">
     <g id="line2d_4">
      <g>
       <use xlink:href="#m1b8383b9ba" x="249.69355" y="307.584" style="stroke: #000000; stroke-width: 0.8"/>
      </g>
     </g>
     <g id="text_4">
      <!-- $\mathdefault{150}$ -->
      <g transform="translate(242.221547 321.502498)scale(0.1 -0.1)">
       <use xlink:href="#CMR17-31" transform="scale(0.996264)"/>
       <use xlink:href="#CMR17-35" transform="translate(45.690477 0)scale(0.996264)"/>
       <use xlink:href="#CMR17-30" transform="translate(91.380954 0)scale(0.996264)"/>
      </g>
     </g>
    </g>
    <g id="xtick_5">
     <g id="line2d_5">
      <g>
       <use xlink:href="#m1b8383b9ba" x="308.387779" y="307.584" style="stroke: #000000; stroke-width: 0.8"/>
      </g>
     </g>
     <g id="text_5">
      <!-- $\mathdefault{200}$ -->
      <g transform="translate(300.915776 321.502498)scale(0.1 -0.1)">
       <defs>
        <path id="CMR17-32" d="M 2669 989 
L 2554 989 
C 2490 536 2438 459 2413 420 
C 2381 369 1920 369 1830 369 
L 602 369 
C 832 619 1280 1072 1824 1597 
C 2214 1967 2669 2402 2669 3035 
C 2669 3790 2067 4224 1395 4224 
C 691 4224 262 3604 262 3030 
C 262 2780 448 2748 525 2748 
C 589 2748 781 2787 781 3010 
C 781 3207 614 3264 525 3264 
C 486 3264 448 3258 422 3245 
C 544 3790 915 4058 1306 4058 
C 1862 4058 2227 3617 2227 3035 
C 2227 2479 1901 2000 1536 1584 
L 262 146 
L 262 0 
L 2515 0 
L 2669 989 
z
" transform="scale(0.015625)"/>
       </defs>
       <use xlink:href="#CMR17-32" transform="scale(0.996264)"/>
       <use xlink:href="#CMR17-30" transform="translate(45.690477 0)scale(0.996264)"/>
       <use xlink:href="#CMR17-30" transform="translate(91.380954 0)scale(0.996264)"/>
      </g>
     </g>
    </g>
    <g id="xtick_6">
     <g id="line2d_6">
      <g>
       <use xlink:href="#m1b8383b9ba" x="367.082009" y="307.584" style="stroke: #000000; stroke-width: 0.8"/>
      </g>
     </g>
     <g id="text_6">
      <!-- $\mathdefault{250}$ -->
      <g transform="translate(359.610006 321.502498)scale(0.1 -0.1)">
       <use xlink:href="#CMR17-32" transform="scale(0.996264)"/>
       <use xlink:href="#CMR17-35" transform="translate(45.690477 0)scale(0.996264)"/>
       <use xlink:href="#CMR17-30" transform="translate(91.380954 0)scale(0.996264)"/>
      </g>
     </g>
    </g>
    <g id="text_7">
     <!-- Temps (s) -->
     <g transform="translate(202.039235 339.394845)scale(0.16 -0.16)">
      <defs>
       <path id="CMR17-54" d="M 3981 4326 
L 288 4326 
L 179 2918 
L 294 2918 
C 378 3976 467 4160 1453 4160 
C 1568 4160 1754 4160 1805 4154 
C 1926 4135 1926 4058 1926 3912 
L 1926 459 
C 1926 230 1907 160 1376 160 
L 1197 160 
L 1197 0 
C 1504 0 1824 0 2138 0 
C 2451 0 2771 0 3078 0 
L 3078 160 
L 2899 160 
C 2368 160 2349 230 2349 459 
L 2349 3912 
C 2349 4052 2349 4129 2464 4154 
C 2515 4160 2701 4160 2816 4160 
C 3795 4160 3891 3976 3974 2918 
L 4090 2918 
L 3981 4326 
z
" transform="scale(0.015625)"/>
       <path id="CMR17-65" d="M 2438 1472 
C 2464 1498 2464 1511 2464 1576 
C 2464 2238 2118 2816 1389 2816 
C 710 2816 173 2169 173 1383 
C 173 551 781 -64 1459 -64 
C 2176 -64 2458 607 2458 740 
C 2458 784 2419 784 2406 784 
C 2362 784 2355 771 2330 696 
C 2189 265 1837 51 1504 51 
C 1229 51 954 203 781 480 
C 582 803 582 1176 582 1472 
L 2438 1472 
z
M 589 1568 
C 634 2505 1126 2714 1382 2714 
C 1818 2714 2112 2297 2118 1568 
L 589 1568 
z
" transform="scale(0.015625)"/>
       <path id="CMR17-6d" d="M 4326 1933 
C 4326 2252 4269 2790 3507 2790 
C 3072 2790 2771 2496 2656 2151 
L 2650 2151 
C 2573 2676 2195 2790 1837 2790 
C 1331 2790 1069 2400 973 2144 
L 966 2144 
L 966 2790 
L 211 2720 
L 211 2554 
C 589 2554 646 2515 646 2208 
L 646 428 
C 646 184 621 153 211 153 
L 211 -13 
C 365 0 646 0 813 0 
C 979 0 1267 0 1421 -13 
L 1421 153 
C 1011 153 986 178 986 428 
L 986 1658 
C 986 2247 1344 2688 1792 2688 
C 2266 2688 2317 2266 2317 1958 
L 2317 428 
C 2317 184 2291 153 1882 153 
L 1882 -13 
C 2035 0 2317 0 2483 0 
C 2650 0 2938 0 3091 -13 
L 3091 153 
C 2682 153 2656 178 2656 428 
L 2656 1658 
C 2656 2247 3014 2688 3462 2688 
C 3936 2688 3987 2266 3987 1958 
L 3987 428 
C 3987 184 3962 153 3552 153 
L 3552 -13 
C 3706 0 3987 0 4154 0 
C 4320 0 4608 0 4762 -13 
L 4762 153 
C 4352 153 4326 178 4326 428 
L 4326 1933 
z
" transform="scale(0.015625)"/>
       <path id="CMR17-70" d="M 1408 -1063 
C 998 -1063 973 -1037 973 -789 
L 973 402 
C 1158 134 1427 -38 1766 -38 
C 2406 -38 3053 523 3053 1388 
C 3053 2191 2496 2802 1837 2802 
C 1453 2802 1139 2592 960 2338 
L 960 2802 
L 198 2732 
L 198 2567 
C 576 2567 634 2528 634 2223 
L 634 -789 
C 634 -1031 608 -1063 198 -1063 
L 198 -1228 
C 352 -1216 634 -1216 800 -1216 
C 966 -1216 1254 -1216 1408 -1228 
L 1408 -1063 
z
M 973 2012 
C 973 2102 973 2235 1222 2471 
C 1254 2497 1472 2688 1792 2688 
C 2259 2688 2643 2108 2643 1382 
C 2643 656 2234 64 1728 64 
C 1498 64 1248 172 1056 472 
C 973 612 973 650 973 752 
L 973 2012 
z
" transform="scale(0.015625)"/>
       <path id="CMR17-73" d="M 1978 2697 
C 1978 2813 1971 2819 1933 2819 
C 1907 2819 1901 2813 1824 2717 
C 1805 2691 1747 2626 1728 2601 
C 1523 2819 1235 2819 1126 2819 
C 416 2819 160 2447 160 2076 
C 160 1498 813 1365 998 1325 
C 1402 1243 1542 1217 1677 1101 
C 1760 1025 1901 884 1901 654 
C 1901 384 1747 38 1158 38 
C 602 38 403 460 288 1021 
C 269 1110 269 1117 218 1117 
C 166 1117 160 1110 160 983 
L 160 63 
C 160 -51 166 -58 205 -58 
C 237 -58 243 -51 275 0 
C 314 57 410 211 448 276 
C 576 103 800 -64 1158 -64 
C 1792 -64 2131 283 2131 784 
C 2131 1112 1958 1285 1875 1362 
C 1683 1561 1459 1606 1190 1657 
C 838 1735 390 1825 390 2217 
C 390 2383 480 2737 1126 2737 
C 1811 2737 1850 2094 1862 1888 
C 1869 1856 1901 1849 1920 1849 
C 1978 1849 1978 1869 1978 1978 
L 1978 2697 
z
" transform="scale(0.015625)"/>
       <path id="CMR17-28" d="M 1958 -1561 
C 1958 -1555 1958 -1542 1939 -1523 
C 1645 -1224 858 -407 858 1581 
C 858 3569 1632 4379 1946 4697 
C 1946 4704 1958 4717 1958 4736 
C 1958 4755 1939 4768 1914 4768 
C 1843 4768 1299 4296 986 3594 
C 666 2887 576 2199 576 1588 
C 576 1128 621 351 1005 -471 
C 1312 -1135 1837 -1600 1914 -1600 
C 1946 -1600 1958 -1587 1958 -1561 
z
" transform="scale(0.015625)"/>
       <path id="CMR17-29" d="M 1683 1581 
C 1683 2040 1638 2817 1254 3639 
C 947 4303 422 4768 346 4768 
C 326 4768 301 4761 301 4729 
C 301 4717 307 4710 314 4697 
C 621 4378 1402 3568 1402 1584 
C 1402 -407 627 -1217 314 -1537 
C 307 -1549 301 -1556 301 -1568 
C 301 -1600 326 -1600 346 -1600 
C 416 -1600 960 -1128 1274 -426 
C 1594 281 1683 969 1683 1581 
z
" transform="scale(0.015625)"/>
      </defs>
      <use xlink:href="#CMR17-54" transform="scale(0.996264)"/>
      <use xlink:href="#CMR17-65" transform="translate(58.702625 0)scale(0.996264)"/>
      <use xlink:href="#CMR17-6d" transform="translate(99.188286 0)scale(0.996264)"/>
      <use xlink:href="#CMR17-70" transform="translate(176.107875 0)scale(0.996264)"/>
      <use xlink:href="#CMR17-73" transform="translate(227.003245 0)scale(0.996264)"/>
      <use xlink:href="#CMR17-28" transform="translate(292.880549 0)scale(0.996264)"/>
      <use xlink:href="#CMR17-73" transform="translate(328.161317 0)scale(0.996264)"/>
      <use xlink:href="#CMR17-29" transform="translate(363.962655 0)scale(0.996264)"/>
     </g>
    </g>
   </g>
   <g id="matplotlib.axis_2">
    <g id="ytick_1">
     <g id="line2d_7">
      <defs>
       <path id="m369b4e742e" d="M 0 0 
L -3.5 0 
" style="stroke: #000000; stroke-width: 0.8"/>
      </defs>
      <g>
       <use xlink:href="#m369b4e742e" x="57.6" y="293.568143" style="stroke: #000000; stroke-width: 0.8"/>
      </g>
     </g>
     <g id="text_8">
      <!-- $\mathdefault{0.0}$ -->
      <g transform="translate(37.869921 297.027392)scale(0.1 -0.1)">
       <defs>
        <path id="CMMI12-3a" d="M 1178 307 
C 1178 492 1024 619 870 619 
C 685 619 557 466 557 313 
C 557 128 710 0 864 0 
C 1050 0 1178 153 1178 307 
z
" transform="scale(0.015625)"/>
       </defs>
       <use xlink:href="#CMR17-30" transform="scale(0.996264)"/>
       <use xlink:href="#CMMI12-3a" transform="translate(45.690477 0)scale(0.996264)"/>
       <use xlink:href="#CMR17-30" transform="translate(72.787654 0)scale(0.996264)"/>
      </g>
     </g>
    </g>
    <g id="ytick_2">
     <g id="line2d_8">
      <g>
       <use xlink:href="#m369b4e742e" x="57.6" y="237.781804" style="stroke: #000000; stroke-width: 0.8"/>
      </g>
     </g>
     <g id="text_9">
      <!-- $\mathdefault{0.5}$ -->
      <g transform="translate(37.869921 241.241053)scale(0.1 -0.1)">
       <use xlink:href="#CMR17-30" transform="scale(0.996264)"/>
       <use xlink:href="#CMMI12-3a" transform="translate(45.690477 0)scale(0.996264)"/>
       <use xlink:href="#CMR17-35" transform="translate(72.787654 0)scale(0.996264)"/>
      </g>
     </g>
    </g>
    <g id="ytick_3">
     <g id="line2d_9">
      <g>
       <use xlink:href="#m369b4e742e" x="57.6" y="181.995464" style="stroke: #000000; stroke-width: 0.8"/>
      </g>
     </g>
     <g id="text_10">
      <!-- $\mathdefault{1.0}$ -->
      <g transform="translate(37.869921 185.454713)scale(0.1 -0.1)">
       <use xlink:href="#CMR17-31" transform="scale(0.996264)"/>
       <use xlink:href="#CMMI12-3a" transform="translate(45.690477 0)scale(0.996264)"/>
       <use xlink:href="#CMR17-30" transform="translate(72.787654 0)scale(0.996264)"/>
      </g>
     </g>
    </g>
    <g id="ytick_4">
     <g id="line2d_10">
      <g>
       <use xlink:href="#m369b4e742e" x="57.6" y="126.209124" style="stroke: #000000; stroke-width: 0.8"/>
      </g>
     </g>
     <g id="text_11">
      <!-- $\mathdefault{1.5}$ -->
      <g transform="translate(37.869921 129.668373)scale(0.1 -0.1)">
       <use xlink:href="#CMR17-31" transform="scale(0.996264)"/>
       <use xlink:href="#CMMI12-3a" transform="translate(45.690477 0)scale(0.996264)"/>
       <use xlink:href="#CMR17-35" transform="translate(72.787654 0)scale(0.996264)"/>
      </g>
     </g>
    </g>
    <g id="ytick_5">
     <g id="line2d_11">
      <g>
       <use xlink:href="#m369b4e742e" x="57.6" y="70.422785" style="stroke: #000000; stroke-width: 0.8"/>
      </g>
     </g>
     <g id="text_12">
      <!-- $\mathdefault{2.0}$ -->
      <g transform="translate(37.869921 73.882034)scale(0.1 -0.1)">
       <use xlink:href="#CMR17-32" transform="scale(0.996264)"/>
       <use xlink:href="#CMMI12-3a" transform="translate(45.690477 0)scale(0.996264)"/>
       <use xlink:href="#CMR17-30" transform="translate(72.787654 0)scale(0.996264)"/>
      </g>
     </g>
    </g>
    <g id="text_13">
     <!-- Tension (V) -->
     <g transform="translate(29.884865 215.322751)rotate(-90)scale(0.16 -0.16)">
      <defs>
       <path id="CMR17-6e" d="M 2656 1933 
C 2656 2259 2592 2790 1837 2790 
C 1331 2790 1069 2400 973 2144 
L 966 2144 
L 966 2790 
L 211 2720 
L 211 2554 
C 589 2554 646 2515 646 2208 
L 646 428 
C 646 184 621 153 211 153 
L 211 -13 
C 365 0 646 0 813 0 
C 979 0 1267 0 1421 -13 
L 1421 153 
C 1011 153 986 178 986 428 
L 986 1658 
C 986 2247 1344 2688 1792 2688 
C 2266 2688 2317 2266 2317 1958 
L 2317 428 
C 2317 184 2291 153 1882 153 
L 1882 -13 
C 2035 0 2317 0 2483 0 
C 2650 0 2938 0 3091 -13 
L 3091 153 
C 2682 153 2656 178 2656 428 
L 2656 1933 
z
" transform="scale(0.015625)"/>
       <path id="CMR17-69" d="M 992 3909 
C 992 4049 877 4170 730 4170 
C 589 4170 467 4056 467 3909 
C 467 3769 582 3648 730 3648 
C 870 3648 992 3763 992 3909 
z
M 243 2706 
L 243 2541 
C 602 2541 653 2502 653 2197 
L 653 427 
C 653 184 627 153 218 153 
L 218 -13 
C 371 0 646 0 806 0 
C 960 0 1222 0 1370 -13 
L 1370 153 
C 992 153 979 191 979 420 
L 979 2776 
L 243 2706 
z
" transform="scale(0.015625)"/>
       <path id="CMR17-6f" d="M 2758 1356 
C 2758 2176 2163 2816 1466 2816 
C 768 2816 173 2176 173 1356 
C 173 551 768 -64 1466 -64 
C 2163 -64 2758 551 2758 1356 
z
M 1466 51 
C 1165 51 909 230 762 480 
C 602 767 582 1126 582 1408 
C 582 1677 595 2010 762 2298 
C 890 2509 1139 2714 1466 2714 
C 1754 2714 1997 2554 2150 2330 
C 2349 2029 2349 1607 2349 1408 
C 2349 1158 2336 775 2163 467 
C 1984 173 1709 51 1466 51 
z
" transform="scale(0.015625)"/>
       <path id="CMR17-56" d="M 3776 3745 
C 3834 3886 3936 4160 4365 4160 
L 4365 4332 
C 4218 4319 4051 4319 3891 4319 
C 3738 4319 3475 4319 3328 4332 
L 3328 4160 
C 3648 4160 3661 3936 3661 3898 
C 3661 3827 3642 3783 3622 3732 
L 2362 446 
L 1043 3886 
C 1024 3931 1011 3963 1011 3994 
C 1011 4160 1267 4160 1402 4160 
L 1402 4319 
C 1197 4319 896 4319 685 4319 
C 518 4319 218 4319 64 4332 
L 64 4160 
C 435 4160 506 4135 582 3931 
L 2106 -26 
C 2138 -115 2144 -128 2214 -128 
C 2285 -128 2291 -115 2323 -26 
L 3776 3745 
z
" transform="scale(0.015625)"/>
      </defs>
      <use xlink:href="#CMR17-54" transform="scale(0.996264)"/>
      <use xlink:href="#CMR17-65" transform="translate(58.702625 0)scale(0.996264)"/>
      <use xlink:href="#CMR17-6e" transform="translate(99.188286 0)scale(0.996264)"/>
      <use xlink:href="#CMR17-73" transform="translate(150.083655 0)scale(0.996264)"/>
      <use xlink:href="#CMR17-69" transform="translate(185.884993 0)scale(0.996264)"/>
      <use xlink:href="#CMR17-6f" transform="translate(210.756052 0)scale(0.996264)"/>
      <use xlink:href="#CMR17-6e" transform="translate(256.446529 0)scale(0.996264)"/>
      <use xlink:href="#CMR17-28" transform="translate(337.417865 0)scale(0.996264)"/>
      <use xlink:href="#CMR17-56" transform="translate(372.698633 0)scale(0.996264)"/>
      <use xlink:href="#CMR17-29" transform="translate(441.771062 0)scale(0.996264)"/>
     </g>
    </g>
   </g>
   <g id="line2d_12">
    <path d="M 73.832727 294.942894 
L 74.223624 295.291404 
L 74.302279 295.059064 
L 74.380929 295.291404 
L 74.537052 295.059064 
L 74.693188 295.19183 
L 74.810576 294.90417 
L 74.851663 295.213957 
L 75.006615 294.793532 
L 75.162741 295.059064 
L 75.241393 295.059064 
L 75.320043 294.942894 
L 75.397519 295.059064 
L 75.47617 294.942894 
L 75.554819 295.291404 
L 75.710948 294.942894 
L 75.867482 294.773106 
L 76.023609 295.059064 
L 76.102259 294.942894 
L 76.258386 295.228039 
L 76.298299 295.059064 
L 76.375774 294.935149 
L 76.533075 295.202043 
L 76.767853 294.942894 
L 76.923978 295.175234 
L 77.002062 294.942894 
L 77.080713 295.059064 
L 77.159363 294.935149 
L 77.315489 295.175234 
L 77.471617 294.942894 
L 77.550266 295.291404 
L 77.627743 295.175234 
L 77.706393 294.942894 
L 77.785043 295.345021 
L 77.941172 295.059064 
L 78.019822 295.228039 
L 78.097297 295.162326 
L 78.175948 295.175234 
L 78.2546 295.059064 
L 78.489374 295.488 
L 78.566852 295.059064 
L 78.606763 295.345021 
L 78.763188 295.059064 
L 78.919312 295.059064 
L 78.997964 294.942894 
L 79.154102 295.175234 
L 79.232756 294.942894 
L 79.311417 295.175234 
L 79.388888 295.059064 
L 79.467538 295.059064 
L 79.546189 295.291404 
L 79.623665 295.175234 
L 79.702362 295.202043 
L 79.779981 295.407574 
L 80.014777 294.942894 
L 80.093426 295.059064 
L 80.172055 295.324596 
L 80.327875 295.059064 
L 80.406854 295.291404 
L 80.48431 295.175234 
L 80.56296 295.059064 
L 80.64161 295.175234 
L 80.797738 295.059064 
L 80.876388 295.175234 
L 80.954372 295.059064 
L 81.033022 295.19183 
L 81.110498 295.059064 
L 81.189149 295.291404 
L 81.2678 295.175234 
L 81.345189 295.291404 
L 81.423841 295.202043 
L 81.502126 294.942894 
L 81.580776 295.059064 
L 81.7369 295.059064 
L 81.893027 295.175234 
L 81.971678 294.942894 
L 82.127804 295.175234 
L 82.206455 295.175234 
L 82.285106 295.291404 
L 82.362582 294.942894 
L 82.441231 295.059064 
L 82.519882 295.291404 
L 82.597359 295.182979 
L 82.676007 295.059064 
L 82.754662 295.291404 
L 82.832134 295.059064 
L 82.910785 295.162326 
L 82.989435 295.175234 
L 83.066911 295.059064 
L 83.145562 295.291404 
L 83.224212 294.942894 
L 83.301488 295.059064 
L 83.380138 294.942894 
L 83.536264 295.175234 
L 83.614916 295.059064 
L 83.693566 295.291404 
L 83.771042 295.059064 
L 83.928343 295.175234 
L 84.084461 295.059064 
L 84.163112 295.175234 
L 84.319239 295.059064 
L 84.475364 295.175234 
L 84.554017 295.175234 
L 84.632666 295.291404 
L 84.710143 295.175234 
L 84.788793 295.228039 
L 84.944918 295.059064 
L 85.02357 295.228039 
L 85.102019 295.175234 
L 85.180668 295.175234 
L 85.415445 294.926298 
L 85.571574 295.175234 
L 85.649606 294.90417 
L 85.728256 295.059064 
L 85.884383 294.710553 
L 85.963034 294.916085 
L 86.197811 294.594383 
L 86.353936 294.362043 
L 86.432586 294.710553 
L 86.588713 294.245872 
L 86.667364 294.315574 
L 86.823836 294.013532 
L 86.902484 294.129702 
L 87.292639 293.665021 
L 87.449939 293.781191 
L 87.527414 293.665021 
L 87.606064 293.781191 
L 87.762191 293.548851 
L 87.840841 293.781191 
L 87.919492 293.665021 
L 87.996968 293.316511 
L 88.075619 293.548851 
L 88.154269 293.432681 
L 88.231747 293.057362 
L 88.310396 293.20034 
L 88.389045 293.20034 
L 88.545172 292.968 
L 88.701299 292.85183 
L 88.779949 292.968 
L 88.858599 292.387149 
L 88.936076 292.619489 
L 89.015168 292.73566 
L 89.640847 291.806298 
L 89.719497 292.038638 
L 89.796974 291.922468 
L 90.306593 291.690128 
L 90.462724 291.341617 
L 90.54137 291.457787 
L 90.618846 291.225447 
L 90.776147 291.457787 
L 90.853572 290.876936 
L 90.932222 291.208851 
L 91.167002 290.412255 
L 91.24565 290.474213 
L 91.479947 290.063745 
L 91.558598 290.197787 
L 91.714725 289.715234 
L 91.949501 289.482894 
L 92.028151 289.599064 
L 92.105627 288.785872 
L 92.184592 289.018213 
L 92.262068 289.018213 
L 92.340718 288.785872 
L 92.419368 289.018213 
L 92.496844 288.902043 
L 92.654145 288.739404 
L 92.731621 288.785872 
L 92.810274 288.437362 
L 92.888929 288.553532 
L 93.240918 287.856511 
L 93.319566 287.972681 
L 93.459258 287.94464 
L 93.514863 287.62417 
L 93.593511 287.972681 
L 93.670989 287.856511 
L 93.905627 287.27566 
L 93.984277 287.508 
L 94.06293 287.455195 
L 94.180316 287.159489 
L 94.257795 287.159489 
L 94.336443 286.810979 
L 94.415093 287.043319 
L 94.805677 286.578638 
L 94.884328 286.694809 
L 95.196992 286.163745 
L 95.275644 286.230128 
L 95.354294 286.385021 
L 95.589071 286.051404 
L 95.745196 286.113957 
L 95.823847 285.517617 
L 95.901323 285.649277 
L 95.979975 285.997787 
L 96.293144 284.764596 
L 96.421119 285.214714 
L 96.566681 284.764596 
L 96.801459 284.764596 
L 96.880108 284.371404 
L 96.958538 284.836085 
L 97.036015 284.703319 
L 97.193314 284.216511 
L 97.270792 284.764596 
L 97.349442 284.192681 
L 97.427459 284.216511 
L 97.506109 283.906723 
L 98.053004 283.835234 
L 98.171567 282.977362 
L 98.249043 283.596936 
L 98.327695 283.568774 
L 98.406345 282.977362 
L 98.483819 283.287149 
L 98.64112 282.048 
L 98.718596 282.977362 
L 98.875672 282.048 
L 98.953148 283.287149 
L 99.110448 281.428426 
L 99.187927 281.738213 
L 99.266576 281.428426 
L 99.422701 282.357787 
L 99.580327 280.808851 
L 99.657803 281.428426 
L 99.813929 280.808851 
L 99.932492 281.350979 
L 100.206007 280.499064 
L 100.284658 280.499064 
L 100.400872 280.065362 
L 100.479228 280.808851 
L 100.636529 280.034383 
L 100.714004 280.034383 
L 100.831392 280.305447 
L 101.066169 279.569702 
L 101.184472 279.840766 
L 101.457987 278.795234 
L 101.614113 279.105021 
L 101.692765 278.950128 
L 101.771414 279.105021 
L 102.006191 278.795234 
L 102.083668 278.795234 
L 102.162318 278.668503 
L 102.318446 278.795234 
L 102.397108 278.64034 
L 102.553245 278.795234 
L 102.749562 278.330553 
L 102.827038 278.64034 
L 102.984066 278.17566 
L 103.062716 278.330553 
L 103.218845 278.020766 
L 103.414231 278.020766 
L 103.57036 277.556085 
L 103.727658 277.865872 
L 104.157299 277.091404 
L 104.31489 277.246298 
L 104.471015 276.936511 
L 104.549667 276.978754 
L 104.627142 276.781617 
L 104.784444 277.147729 
L 104.861919 276.781617 
L 104.97931 276.82034 
L 105.175346 276.781617 
L 105.292734 276.82034 
L 105.371385 276.47183 
L 105.448861 276.626723 
L 105.527511 276.626723 
L 105.606162 276.13388 
L 105.683638 276.316936 
L 105.997067 275.542468 
L 106.075715 275.852255 
L 106.231843 275.387574 
L 106.310493 275.457981 
L 106.46662 275.232681 
L 106.545271 275.542468 
L 106.622655 274.922894 
L 106.818694 275.232681 
L 106.936082 274.961617 
L 107.014733 275.232681 
L 107.092209 274.922894 
L 107.249509 275.232681 
L 107.326985 274.922894 
L 107.444375 274.961617 
L 107.522809 274.613106 
L 107.601458 274.768 
L 107.678934 274.458213 
L 107.836235 274.922894 
L 107.99236 274.458213 
L 108.10975 274.117447 
L 108.227138 274.444132 
L 108.267051 274.106182 
L 108.344965 274.303319 
L 108.774636 273.683745 
L 108.931941 273.683745 
L 109.049341 273.219064 
L 109.245137 273.528851 
L 109.322517 272.909277 
L 109.401166 273.373957 
L 109.479819 273.219064 
L 109.557298 272.909277 
L 109.832015 273.219064 
L 110.378904 272.289702 
L 110.496305 272.405872 
L 110.574953 272.134809 
L 110.653603 272.289702 
L 110.887545 271.979915 
L 110.966198 271.979915 
L 111.044847 271.515234 
L 111.122322 272.134809 
L 111.279623 271.205447 
L 111.357099 271.36034 
L 111.435749 271.36034 
L 111.670569 270.89566 
L 111.749177 271.205447 
L 111.866565 270.663319 
L 111.944042 270.740766 
L 112.022692 270.585872 
L 112.101342 270.121191 
L 112.178818 270.585872 
L 112.844342 269.656511 
L 113.000468 269.656511 
L 113.313826 269.036936 
L 113.392479 269.346723 
L 113.627266 268.882043 
L 113.823102 269.19183 
L 114.096468 268.169532 
L 114.213868 268.456085 
L 114.331382 268.223745 
L 114.41005 268.417362 
L 114.487529 268.262468 
L 114.566177 267.854112 
L 114.644836 268.262468 
L 114.722313 267.797787 
L 114.839722 267.921702 
L 114.918436 267.642894 
L 114.997096 267.797787 
L 115.191912 267.797787 
L 115.426688 267.333106 
L 115.583088 267.642894 
L 115.740399 267.347188 
L 115.935265 267.333106 
L 116.01377 267.333106 
L 116.131058 267.178213 
L 116.209708 267.488 
L 116.365834 267.178213 
L 116.679071 266.713532 
L 117.069982 266.403745 
L 117.149165 266.093957 
L 117.227239 266.403745 
L 117.579405 265.939064 
L 117.65688 265.939064 
L 117.73553 265.78417 
L 117.891657 265.939064 
L 118.087697 265.55183 
L 118.166346 265.78417 
L 118.322473 265.629277 
L 118.401123 265.78417 
L 118.478599 265.474383 
L 118.557251 265.629277 
L 118.909735 265.009702 
L 119.027123 265.319489 
L 119.104599 265.009702 
L 119.222098 265.176511 
L 119.496789 264.390128 
L 119.574277 264.854809 
L 119.770127 264.157787 
L 119.848755 264.390128 
L 120.2009 263.925447 
L 120.27959 264.08034 
L 120.435717 263.61566 
L 120.514367 264.235234 
L 120.709136 263.089021 
L 120.787786 263.150979 
L 120.905173 263.576936 
L 120.983213 263.460766 
L 121.061291 262.996085 
L 121.139941 263.305872 
L 121.336084 262.796936 
L 121.60948 262.531404 
L 121.688132 262.686298 
L 121.844361 262.376511 
L 121.92259 262.686298 
L 122.07915 262.066723 
L 122.353026 262.221617 
L 122.509152 261.91183 
L 122.587801 262.066723 
L 122.743929 261.91183 
L 122.822578 261.91183 
L 122.901229 261.447149 
L 122.978706 261.602043 
L 123.057357 261.91183 
L 123.136006 261.433068 
L 123.292132 261.756936 
L 123.917598 260.672681 
L 123.996249 260.672681 
L 124.074898 260.362894 
L 124.152375 260.672681 
L 124.231025 260.053106 
L 124.387152 260.362894 
L 124.544453 259.433532 
L 124.621928 260.362894 
L 124.817968 259.743319 
L 124.896617 258.813957 
L 124.974094 259.278638 
L 125.052747 259.123745 
L 125.131395 258.659064 
L 125.20887 259.433532 
L 125.287382 258.349277 
L 125.404768 258.697787 
L 125.560905 257.884596 
L 125.639558 258.194383 
L 125.718215 257.884596 
L 125.796867 258.194383 
L 126.578765 256.839064 
L 126.735929 256.645447 
L 126.891954 256.490553 
L 127.048081 256.80034 
L 127.126731 256.33566 
L 127.205381 256.490553 
L 127.400259 256.397617 
L 127.479002 256.33566 
L 127.557652 256.490553 
L 127.752518 256.142043 
L 127.909817 256.180766 
L 127.98731 256.025872 
L 128.066311 256.180766 
L 128.261768 255.677362 
L 128.379156 255.561191 
L 128.496786 255.793532 
L 128.652912 255.406298 
L 128.731562 255.406298 
L 128.847777 255.158468 
L 128.926427 255.251404 
L 129.357242 255.096511 
L 129.43472 254.674074 
L 129.513369 254.941617 
L 129.592019 254.63183 
L 129.748146 254.941617 
L 129.826796 254.476936 
L 129.943971 254.565447 
L 130.022621 254.476936 
L 130.140009 254.51566 
L 130.296136 254.167149 
L 130.413524 254.050979 
L 130.49209 254.167149 
L 130.569566 254.012255 
L 130.648217 254.167149 
L 130.726867 253.857362 
L 130.844256 254.043234 
L 131.000383 253.392681 
L 131.079033 253.547574 
L 131.15651 253.082894 
L 131.273897 253.42366 
L 131.939677 252.076085 
L 132.018326 252.153532 
L 132.330498 251.688851 
L 132.409147 251.688851 
L 132.565353 251.22417 
L 132.761374 251.379064 
L 132.917509 251.069277 
L 133.073739 251.069277 
L 133.152282 251.22417 
L 133.269671 250.697532 
L 133.465725 250.759489 
L 133.661755 250.565872 
L 133.739245 250.956627 
L 133.817896 250.604596 
L 133.896546 250.759489 
L 134.052676 250.280727 
L 134.208812 250.294809 
L 134.366115 250.139915 
L 134.443601 250.139915 
L 134.678376 249.830128 
L 134.757026 249.985021 
L 134.834502 249.675234 
L 134.913153 249.830128 
L 135.187841 249.365447 
L 135.265318 248.900766 
L 135.343967 249.52034 
L 135.500095 249.05566 
L 135.696133 249.266878 
L 135.890998 248.962723 
L 135.969648 248.900766 
L 136.048299 249.210553 
L 136.204425 248.900766 
L 136.361474 249.05566 
L 136.517025 248.590979 
L 136.595675 248.745872 
L 136.674326 248.900766 
L 136.947843 248.281191 
L 137.065229 248.358638 
L 137.14388 248.436085 
L 137.26127 248.219234 
L 137.339918 248.281191 
L 137.417397 248.281191 
L 137.496048 248.126298 
L 137.574697 248.281191 
L 138.043966 247.506723 
L 138.121444 247.506723 
L 138.200092 247.661617 
L 138.278743 247.35183 
L 138.356219 247.506723 
L 138.552258 247.130553 
L 138.630911 247.506723 
L 138.748439 247.080766 
L 138.825914 247.35183 
L 138.904563 247.070205 
L 138.983226 247.196936 
L 139.060701 247.35183 
L 139.139351 247.042043 
L 139.217845 247.35183 
L 139.373972 246.90123 
L 139.452627 247.196936 
L 139.60866 246.887149 
L 139.922099 246.865021 
L 140.195613 246.422468 
L 140.274334 246.577362 
L 140.547649 246.112681 
L 140.6263 246.112681 
L 140.861077 245.802894 
L 140.939727 245.802894 
L 141.017203 245.493106 
L 141.174234 245.648 
L 141.251712 245.338213 
L 141.409011 245.648 
L 141.486489 245.028426 
L 141.643788 245.648 
L 141.721264 245.338213 
L 141.799915 245.493106 
L 141.995954 245.222043 
L 142.07343 245.338213 
L 142.15208 245.183319 
L 142.269469 245.245277 
L 142.34812 244.873532 
L 142.425595 245.028426 
L 142.542984 244.749617 
L 142.621635 245.028426 
L 142.739348 244.873532 
L 142.895472 244.028658 
L 142.974122 244.408851 
L 143.052772 244.253957 
L 143.130249 244.408851 
L 143.443676 243.634383 
L 143.522326 244.099064 
L 143.678747 243.634383 
L 143.756224 244.099064 
L 143.834877 243.479489 
L 143.913524 243.789277 
L 144.735207 243.324596 
L 144.812682 243.479489 
L 144.930072 243.138723 
L 145.008724 243.169702 
L 145.087373 243.324596 
L 145.16485 242.859915 
L 145.243501 243.014809 
L 145.360888 243.014809 
L 145.713053 242.519149 
L 145.791702 242.705021 
L 145.869179 242.24034 
L 145.986333 242.433957 
L 146.064981 242.24034 
L 146.143632 242.395234 
L 146.455885 241.736936 
L 146.573273 242.147404 
L 146.730574 241.77566 
L 146.80805 241.831985 
L 147.081968 241.620766 
L 147.239268 241.77566 
L 147.473773 241.620766 
L 147.6299 241.620766 
L 147.7872 241.465872 
L 147.864677 241.620766 
L 148.021978 241.156085 
L 148.099455 241.310979 
L 148.178106 240.691404 
L 148.256755 240.846298 
L 148.374143 241.156085 
L 148.647658 240.536511 
L 148.765047 240.807574 
L 148.843697 240.226723 
L 148.921173 240.691404 
L 149.038562 240.492255 
L 149.117212 239.607149 
L 149.195864 240.226723 
L 149.351989 239.142468 
L 149.430642 239.762043 
L 149.548029 239.181191 
L 149.625505 239.607149 
L 149.821543 239.142468 
L 149.900193 239.297362 
L 150.095258 239.065021 
L 150.173908 238.213106 
L 150.251386 239.142468 
L 150.408686 237.283745 
L 150.564813 238.058213 
L 150.643462 237.283745 
L 150.720941 237.776588 
L 150.799589 236.973957 
L 150.878239 237.903319 
L 151.034366 236.66417 
L 151.113016 236.973957 
L 151.190708 237.128851 
L 151.269355 236.509277 
L 151.386745 236.857787 
L 151.504132 236.276936 
L 151.582784 236.354383 
L 151.660258 236.509277 
L 151.738909 236.354383 
L 151.817558 235.917865 
L 151.895037 236.044596 
L 152.012425 235.696085 
L 152.091144 236.044596 
L 152.247718 235.270128 
L 152.325495 235.579915 
L 152.482795 235.115234 
L 152.560273 235.270128 
L 152.794991 234.650553 
L 152.873641 234.805447 
L 153.108418 234.340766 
L 153.304457 234.340766 
L 153.499323 234.340766 
L 153.695557 234.030979 
L 153.773034 234.340766 
L 153.851686 233.876085 
L 153.969073 234.069702 
L 154.047723 233.721191 
L 154.125199 234.185872 
L 154.2825 233.411404 
L 154.438904 233.721191 
L 154.634944 232.853787 
L 154.71242 233.101617 
L 154.869722 232.79183 
L 155.143235 232.327149 
L 155.260626 232.482043 
L 155.339274 232.172255 
L 155.416751 232.482043 
L 155.533867 232.327149 
L 155.612282 232.482043 
L 155.847694 232.172255 
L 155.925169 232.172255 
L 156.003821 232.327149 
L 156.082471 232.172255 
L 156.159949 231.552681 
L 156.238597 231.862468 
L 156.513198 231.397787 
L 156.590674 231.707574 
L 156.669324 231.088 
L 156.942839 231.355544 
L 157.021489 230.778213 
L 157.099921 231.242894 
L 157.177396 230.778213 
L 157.256046 231.088 
L 157.412173 230.468426 
L 157.569473 230.510669 
L 157.64695 230.341694 
L 157.725602 230.623319 
L 157.88173 230.313532 
L 158.039027 230.468426 
L 158.116503 230.313532 
L 158.195153 230.468426 
L 158.273804 230.158638 
L 158.391192 230.402043 
L 158.547319 229.848851 
L 158.62597 230.003745 
L 158.86058 229.693957 
L 158.93923 230.003745 
L 159.095356 229.539064 
L 159.172832 229.539064 
L 159.40761 229.074383 
L 159.524998 229.422894 
L 159.799688 228.764596 
L 159.877163 228.919489 
L 160.034464 228.454809 
L 160.11194 228.919489 
L 160.190591 228.764596 
L 160.464344 228.454809 
L 160.542994 228.609702 
L 160.621645 228.299915 
L 160.77713 228.609702 
L 160.855777 227.990128 
L 160.934428 228.454809 
L 161.090559 227.990128 
L 161.207945 228.012255 
L 161.442722 227.68034 
L 161.521371 227.68034 
L 161.598849 227.835234 
L 161.75615 227.525447 
L 161.951953 227.370553 
L 162.069341 227.277617 
L 162.186729 227.029787 
L 162.304165 227.401532 
L 162.460288 226.750979 
L 162.538938 226.962197 
L 162.695065 226.750979 
L 162.773717 226.905872 
L 162.851194 226.596085 
L 162.929842 226.905872 
L 163.085969 226.596085 
L 163.16462 226.750979 
L 163.243269 226.441191 
L 163.399396 226.750979 
L 163.478047 226.117323 
L 163.595377 226.634809 
L 163.672853 226.131404 
L 163.751503 226.441191 
L 163.907629 225.821617 
L 164.024842 226.053957 
L 164.182142 225.51183 
L 164.259619 225.821617 
L 164.377007 225.356936 
L 164.534308 225.666723 
L 164.690434 225.202043 
L 164.769085 225.356936 
L 165.042599 224.892255 
L 165.199039 225.047149 
L 165.27769 225.356936 
L 165.395078 224.892255 
L 165.47373 225.047149 
L 165.551205 224.427574 
L 165.708505 224.892255 
L 165.785982 224.582468 
L 165.864632 224.892255 
L 166.138148 224.737362 
L 166.334186 224.776085 
L 166.412838 224.272681 
L 166.490313 224.427574 
L 166.568964 224.427574 
L 166.647361 224.272681 
L 166.842226 224.543745 
L 167.077015 223.808 
L 167.156214 224.117787 
L 167.312342 223.808 
L 167.429846 223.846723 
L 167.585973 223.498213 
L 167.742482 223.498213 
L 168.133387 223.188426 
L 168.212483 223.343319 
L 168.485997 222.906801 
L 168.682036 223.033532 
L 169.190328 222.878638 
L 169.268979 222.568851 
L 169.425106 222.723745 
L 169.581233 222.413957 
L 169.738532 222.259064 
L 169.816008 222.568851 
L 169.973309 221.949277 
L 170.285562 222.259064 
L 170.481601 221.794383 
L 170.560251 221.794383 
L 170.795028 221.484596 
L 170.872504 221.639489 
L 171.029805 221.174809 
L 171.107282 221.329702 
L 171.460426 221.174809 
L 171.537902 221.048077 
L 171.616553 221.329702 
L 171.772682 220.879103 
L 171.851329 221.174809 
L 172.007456 220.710128 
L 172.086106 220.865021 
L 172.242234 220.555234 
L 172.438273 220.586213 
L 172.555661 220.129277 
L 172.634311 220.555234 
L 172.711789 220.40034 
L 172.790437 219.780766 
L 172.86909 220.090553 
L 173.025214 219.625872 
L 173.102979 219.93566 
L 173.181629 219.625872 
L 173.337756 219.780766 
L 173.416406 219.316085 
L 173.495059 219.470979 
L 173.612447 219.316085 
L 173.689923 219.470979 
L 173.924698 218.851404 
L 174.042088 218.851404 
L 174.120792 218.513455 
L 174.199444 218.696511 
L 174.276921 218.541617 
L 174.355572 218.076936 
L 174.434221 218.175505 
L 174.511696 218.23183 
L 174.668999 217.922043 
L 174.74623 217.767149 
L 174.863618 218.107915 
L 175.059656 217.573532 
L 175.138306 217.147574 
L 175.215783 217.612255 
L 175.294432 217.302468 
L 175.450559 217.612255 
L 175.802724 216.992681 
L 175.920113 217.13566 
L 176.116151 216.218213 
L 176.389983 216.837787 
L 176.468633 215.753532 
L 176.547283 216.316781 
L 176.62476 215.908426 
L 176.742148 216.76034 
L 176.899449 215.133957 
L 177.016837 215.598638 
L 177.094313 215.443745 
L 177.172963 214.82417 
L 177.290352 215.366298 
L 177.369003 214.627033 
L 177.446479 214.82417 
L 177.563867 214.436936 
L 177.642518 214.82417 
L 177.838556 214.204596 
L 178.112392 214.266553 
L 178.189867 213.894809 
L 178.268518 214.204596 
L 178.385906 213.623745 
L 178.542035 213.951133 
L 178.699333 213.12034 
L 178.855459 213.739915 
L 178.972734 213.507574 
L 179.051386 212.810553 
L 179.12886 213.275234 
L 179.286161 212.65566 
L 179.363638 212.810553 
L 179.442287 212.500766 
L 179.520939 212.65566 
L 179.598414 212.345872 
L 179.677065 212.65566 
L 179.794455 212.578213 
L 179.95058 212.190979 
L 180.06786 212.113532 
L 180.185249 212.229702 
L 180.420024 211.726298 
L 180.577324 211.881191 
L 180.733451 211.726298 
L 180.812102 211.881191 
L 181.046878 211.571404 
L 181.125356 211.571404 
L 181.202834 211.726298 
L 181.360133 211.571404 
L 181.554997 211.532681 
L 181.947074 211.106723 
L 182.14194 211.18417 
L 182.220458 210.95183 
L 182.376585 211.106723 
L 182.493972 210.619915 
L 182.572624 210.796936 
L 182.807569 210.487149 
L 182.88622 210.487149 
L 182.963696 210.796936 
L 183.119824 209.867574 
L 183.198474 210.642043 
L 183.277123 210.487149 
L 183.473163 210.022468 
L 183.550639 210.177362 
L 183.629289 209.867574 
L 183.706765 210.022468 
L 183.785388 209.867574 
L 183.864036 210.022468 
L 183.942686 209.712681 
L 184.020164 210.022468 
L 184.332876 209.557787 
L 184.411526 209.557787 
L 184.490178 209.867574 
L 185.037205 208.976936 
L 185.115856 209.248 
L 185.389371 208.783319 
L 185.467753 208.938213 
L 185.625054 208.783319 
L 185.742444 208.690383 
L 185.81992 208.163745 
L 185.898571 208.473532 
L 185.977219 208.318638 
L 186.054695 208.473532 
L 186.406861 208.008851 
L 186.564065 208.008851 
L 186.681453 207.853957 
L 186.75893 208.097362 
L 186.83758 208.008851 
L 186.916232 208.008851 
L 186.993707 207.699064 
L 187.072356 207.853957 
L 187.228484 207.530089 
L 187.307135 207.54417 
L 187.46326 207.389277 
L 187.54191 207.699064 
L 187.62056 207.234383 
L 187.698037 207.389277 
L 187.776687 207.361114 
L 187.932814 207.079489 
L 188.011463 207.234383 
L 188.36363 206.685215 
L 188.598406 206.924596 
L 188.754534 206.305021 
L 188.911833 206.459915 
L 188.98931 206.459915 
L 189.145745 205.995234 
L 189.224396 206.305021 
L 189.577002 205.84034 
L 189.69439 205.956511 
L 189.771867 205.84034 
L 189.85052 205.995234 
L 189.929168 205.220766 
L 190.006646 205.685447 
L 190.437459 205.220766 
L 190.51611 204.756085 
L 190.593588 204.910979 
L 190.672238 204.601191 
L 190.750615 204.910979 
L 190.906742 204.601191 
L 190.985394 204.756085 
L 191.064042 204.601191 
L 191.181431 204.678638 
L 191.337559 204.446298 
L 191.416209 204.601191 
L 191.493684 204.291404 
L 191.572335 204.756085 
L 191.728463 204.291404 
L 191.885761 204.446298 
L 191.96324 204.136511 
L 192.159277 204.379915 
L 192.237926 204.136511 
L 192.315403 204.291404 
L 192.550183 204.097787 
L 192.628833 204.291404 
L 192.824871 203.826723 
L 192.980722 203.826723 
L 193.098112 203.400766 
L 193.176762 203.812642 
L 193.255412 203.305718 
L 193.567665 203.516936 
L 193.646316 203.362043 
L 193.724967 202.742468 
L 193.881093 203.207149 
L 193.95885 202.742468 
L 194.037501 203.052255 
L 194.116151 202.897362 
L 194.193628 202.432681 
L 194.272202 202.587574 
L 194.350853 202.460843 
L 194.50698 202.742468 
L 194.820406 201.968 
L 194.976533 202.432681 
L 195.132659 201.658213 
L 195.28996 201.968 
L 195.367436 201.348426 
L 195.484826 201.627234 
L 195.641274 200.728851 
L 195.719924 201.193532 
L 195.798574 201.038638 
L 195.993439 201.038638 
L 196.268134 199.954383 
L 196.345624 200.26417 
L 196.424306 199.799489 
L 196.541487 200.121191 
L 196.658937 199.450979 
L 196.737424 199.799489 
L 196.816073 199.644596 
L 196.89355 199.179915 
L 197.011292 199.218638 
L 197.089942 198.912371 
L 197.167418 199.250321 
L 197.246067 199.179915 
L 197.324719 199.179915 
L 197.402195 199.489702 
L 197.480843 198.743397 
L 197.559494 198.870128 
L 197.676818 199.102468 
L 197.754296 199.025021 
L 197.832944 198.56034 
L 197.911596 198.715234 
L 197.989071 198.715234 
L 198.067722 198.250553 
L 198.146372 198.405447 
L 198.223851 198.56034 
L 198.302499 198.09566 
L 198.458627 198.405447 
L 198.576017 198.250553 
L 198.733091 197.940766 
L 198.811744 197.785872 
L 198.929133 197.909787 
L 199.006611 197.476085 
L 199.085443 197.785872 
L 199.241569 197.011404 
L 199.32022 197.321191 
L 199.476346 197.011404 
L 199.554995 197.321191 
L 199.711123 197.011404 
L 199.789773 197.321191 
L 199.945899 197.011404 
L 200.024452 197.321191 
L 200.180579 196.856511 
L 200.259229 196.856511 
L 200.33775 197.011404 
L 200.532613 196.546723 
L 200.611264 196.689702 
L 200.689915 196.701617 
L 200.846041 196.546723 
L 201.315594 195.927149 
L 201.394245 196.39183 
L 201.550374 195.870824 
L 201.629022 195.927149 
L 201.706499 195.617362 
L 201.823887 195.870824 
L 201.902948 195.803234 
L 201.980424 195.462468 
L 202.059076 195.927149 
L 202.176462 195.545872 
L 202.255112 195.617362 
L 202.41124 195.152681 
L 202.48989 195.617362 
L 202.567368 195.462468 
L 202.842057 195.152681 
L 202.919533 195.307574 
L 202.998183 194.997787 
L 203.154309 195.307574 
L 203.389086 195.036511 
L 203.663292 195.02595 
L 203.898069 194.378213 
L 204.054203 194.842894 
L 204.288989 193.758638 
L 204.485045 194.19234 
L 204.602432 194.223319 
L 204.719821 193.990979 
L 204.798484 193.139064 
L 204.875961 193.336201 
L 205.072003 193.448851 
L 205.22813 192.829277 
L 205.345518 193.526298 
L 205.424169 193.448851 
L 205.658946 192.519489 
L 205.776334 192.829277 
L 205.972373 191.899915 
L 206.284627 191.899915 
L 206.480665 190.970553 
L 206.559316 190.970553 
L 206.715722 191.899915 
L 206.793198 191.125447 
L 206.871849 191.435234 
L 206.989237 190.622043 
L 207.067707 191.125447 
L 207.145184 190.350979 
L 207.302485 191.28034 
L 207.379963 190.505872 
L 207.45861 190.660766 
L 207.614739 190.196085 
L 207.693391 190.350979 
L 207.810786 190.294654 
L 208.045575 189.731404 
L 208.201708 189.731404 
L 208.319526 189.607489 
L 208.515027 189.731404 
L 208.672326 189.576511 
L 209.023319 189.266723 
L 209.101969 189.421617 
L 209.219356 189.228 
L 209.298008 189.421617 
L 209.493288 188.987915 
L 209.649417 189.11183 
L 209.806715 188.647149 
L 209.924104 188.879489 
L 210.00158 188.802043 
L 210.315007 188.337362 
L 210.393657 188.337362 
L 210.471134 188.097981 
L 210.628434 188.337362 
L 210.784563 188.027574 
L 210.863211 188.027574 
L 210.940688 187.872681 
L 211.136561 187.916936 
L 211.293863 187.717787 
L 211.371338 187.562894 
L 211.449988 187.872681 
L 211.567377 187.485447 
L 211.646029 187.717787 
L 212.037133 187.422081 
L 212.154522 187.500936 
L 212.231998 187.098213 
L 212.31065 187.253106 
L 212.389298 187.098213 
L 212.466775 187.408 
L 212.624076 186.633532 
L 212.701552 186.788426 
L 212.858852 186.633532 
L 212.976242 186.556085 
L 213.053717 186.788426 
L 213.132369 186.168851 
L 213.211202 186.478638 
L 213.523455 186.207574 
L 213.601755 185.70417 
L 213.71965 186.261787 
L 213.837034 185.823319 
L 213.993159 186.168851 
L 214.189198 185.394383 
L 214.266674 185.70417 
L 214.345235 185.394383 
L 214.501472 185.549277 
L 215.049616 184.929702 
L 215.128267 184.465021 
L 215.205744 184.619915 
L 215.284397 184.465021 
L 215.363048 184.00034 
L 215.441644 184.310128 
L 215.59777 184.00034 
L 215.753896 184.310128 
L 215.988792 184.00034 
L 216.107354 184.042584 
L 216.184828 183.690553 
L 216.262305 183.845447 
L 216.340955 183.845447 
L 216.419605 183.690553 
L 216.497084 183.845447 
L 216.654386 183.249702 
L 216.73186 183.53566 
L 216.81051 183.380766 
L 216.889161 182.916085 
L 217.006547 183.163915 
L 217.084024 182.85976 
L 217.195544 183.163915 
L 217.318837 182.761191 
L 217.671003 182.141617 
L 217.749653 182.451404 
L 218.023168 182.014886 
L 218.10182 182.141617 
L 218.180471 181.986723 
L 218.336529 182.141617 
L 218.415181 181.986723 
L 218.571306 182.141617 
L 218.649957 181.522043 
L 218.806084 182.141617 
L 218.884733 181.522043 
L 218.962209 181.676936 
L 219.119511 181.367149 
L 219.196986 181.676936 
L 219.275636 181.507961 
L 219.35353 180.902468 
L 219.432556 181.367149 
L 219.54937 181.212255 
L 219.666759 181.411404 
L 219.901535 180.663087 
L 220.058835 180.902468 
L 220.371096 180.282894 
L 220.449745 180.437787 
L 220.528228 180.128 
L 220.605703 180.282894 
L 220.684365 180.128 
L 220.763001 179.663319 
L 220.840485 180.128 
L 221.114788 179.508426 
L 221.193441 179.663319 
L 221.388302 179.818213 
L 221.662403 178.733957 
L 221.740512 179.198638 
L 221.819155 178.733957 
L 221.897804 179.353532 
L 222.053929 178.42417 
L 222.13258 179.043745 
L 222.210056 178.888851 
L 222.288706 178.42417 
L 222.367359 178.579064 
L 222.562222 178.308 
L 222.67961 178.42417 
L 222.758099 178.114383 
L 222.875488 178.225021 
L 222.954138 178.114383 
L 223.031615 178.42417 
L 223.110266 177.804596 
L 223.188915 177.959489 
L 223.266391 177.959489 
L 223.345041 177.649702 
L 223.501168 177.959489 
L 223.658469 177.494809 
L 223.735945 177.649702 
L 223.931985 177.378638 
L 224.010636 177.494809 
L 224.205501 177.29566 
L 224.245411 177.339915 
L 224.323162 176.875234 
L 224.401812 177.030128 
L 224.753978 176.565447 
L 224.832628 176.875234 
L 224.988065 176.565447 
L 225.145364 176.72034 
L 225.301491 176.565447 
L 225.380141 176.72034 
L 225.457617 176.565447 
L 225.653655 176.72034 
L 225.849696 176.333106 
L 225.928136 176.410553 
L 226.084264 176.25566 
L 226.280303 176.25566 
L 226.475165 175.945872 
L 226.632466 175.945872 
L 226.788593 175.790979 
L 226.94472 175.790979 
L 227.102022 175.481191 
L 227.336623 175.326298 
L 227.414097 175.016511 
L 227.492747 175.424867 
L 227.805482 174.706723 
L 227.922872 174.706723 
L 228.00152 174.861617 
L 228.08017 174.706723 
L 228.196902 174.822894 
L 228.627716 174.396936 
L 228.706366 174.55183 
L 228.862493 174.55183 
L 228.941143 174.242043 
L 229.01862 174.55183 
L 229.097529 174.396936 
L 229.175006 174.55183 
L 229.684472 173.777362 
L 229.761948 174.087149 
L 229.919249 173.932255 
L 229.996725 173.932255 
L 230.114114 173.777362 
L 230.271414 173.467574 
L 230.506191 173.467574 
L 230.583671 173.622468 
L 230.740972 173.002894 
L 230.897099 173.312681 
L 231.053224 173.002894 
L 231.131875 173.157787 
L 231.327914 172.693106 
L 231.405389 172.848 
L 231.484039 172.848 
L 231.56269 172.693106 
L 231.640167 172.848 
L 231.797467 172.538213 
L 231.953593 172.693106 
L 232.032244 172.538213 
L 232.109725 172.693106 
L 232.26665 172.228426 
L 232.345298 172.693106 
L 232.422774 172.383319 
L 232.540162 172.61566 
L 232.618812 172.383319 
L 232.697463 172.538213 
L 232.892326 171.686298 
L 233.049028 171.763745 
L 233.127676 171.14417 
L 233.283803 171.763745 
L 233.479842 171.14417 
L 233.557319 170.214809 
L 233.635973 171.453957 
L 233.792095 170.834383 
L 233.988135 170.524596 
L 234.066787 170.524596 
L 234.379038 169.595234 
L 234.536339 169.905021 
L 234.692463 169.595234 
L 234.771012 169.905021 
L 235.005789 168.97566 
L 235.161915 169.595234 
L 235.319217 168.97566 
L 235.396693 169.285447 
L 235.553184 168.820766 
L 235.631835 169.285447 
L 235.787961 168.510979 
L 235.94526 168.356085 
L 236.022738 168.510979 
L 236.140127 168.201191 
L 236.218775 168.510979 
L 236.374903 167.736511 
L 236.531156 168.046298 
L 236.609808 167.891404 
L 236.688457 168.046298 
L 236.765934 167.581617 
L 236.844585 167.736511 
L 236.961973 167.550638 
L 237.040624 167.891404 
L 237.118273 167.314074 
L 237.196924 167.426723 
L 237.353049 167.116936 
L 237.431699 167.116936 
L 237.510351 167.27183 
L 237.666477 166.962043 
L 237.745131 166.962043 
L 237.822605 166.652255 
L 237.979905 166.962043 
L 238.05738 166.807149 
L 238.136032 166.962043 
L 238.292144 166.342468 
L 238.409533 166.342468 
L 238.488184 165.877787 
L 238.566836 166.652255 
L 238.644313 165.568 
L 238.762404 165.877787 
L 238.918533 165.103319 
L 239.035919 165.645447 
L 239.309436 164.716085 
L 239.388087 164.793532 
L 239.466737 164.328851 
L 239.544216 164.638638 
L 239.701514 164.328851 
L 239.778988 164.638638 
L 239.857638 164.103551 
L 239.936289 164.173957 
L 240.013768 164.173957 
L 240.171066 163.86417 
L 240.288454 164.135234 
L 240.523231 163.709277 
L 240.600708 163.765602 
L 240.875398 163.244596 
L 240.952872 163.244596 
L 241.031523 163.554383 
L 241.110174 163.089702 
L 241.305038 163.089702 
L 241.383688 162.751752 
L 241.501077 162.973532 
L 241.73637 162.625021 
L 241.853758 162.717957 
L 241.971147 162.392681 
L 242.166011 162.470128 
L 242.244663 162.470128 
L 242.400792 161.850553 
L 242.479442 162.315234 
L 242.752955 161.69566 
L 242.870343 161.928 
L 242.948995 161.850553 
L 243.027646 161.850553 
L 243.10512 161.540766 
L 243.379811 162.005447 
L 243.535647 161.69566 
L 243.614298 161.69566 
L 243.691776 161.385872 
L 243.849072 161.540766 
L 243.926549 161.385872 
L 244.005202 161.540766 
L 244.161326 160.611404 
L 244.278715 161.107064 
L 244.357364 161.076085 
L 244.513491 160.611404 
L 244.709532 160.766298 
L 244.86667 160.301617 
L 244.944148 160.301617 
L 245.022799 160.456511 
L 245.101452 160.146723 
L 245.257576 160.456511 
L 245.413703 160.146723 
L 245.531089 160.301617 
L 245.68839 159.836936 
L 245.765866 159.99183 
L 245.844516 160.146723 
L 246.000645 159.836936 
L 246.07972 159.99183 
L 246.197107 159.903319 
L 246.274584 159.682043 
L 246.431884 159.836936 
L 246.50936 159.682043 
L 246.666661 159.87918 
L 246.783796 159.720766 
L 246.861272 159.372255 
L 246.939923 159.527149 
L 247.018573 159.527149 
L 247.096049 159.217362 
L 247.174699 159.372255 
L 247.330826 159.062468 
L 247.526864 158.907574 
L 247.605516 158.752681 
L 247.761642 159.217362 
L 247.840292 158.597787 
L 248.075069 158.628766 
L 248.308956 158.597787 
L 248.387607 158.288 
L 248.701036 158.358406 
L 248.77851 158.009191 
L 248.856953 158.288 
L 249.091729 157.978213 
L 249.170381 158.288 
L 249.24903 157.978213 
L 249.405157 158.133106 
L 249.483807 158.189431 
L 249.601196 157.91183 
L 249.678672 157.203745 
L 249.757322 157.823319 
L 249.913451 157.358638 
L 250.07075 157.668426 
L 250.148226 157.203745 
L 250.383002 157.227574 
L 250.50039 157.141787 
L 250.735168 156.58417 
L 250.813824 157.048851 
L 251.048595 156.274383 
L 251.32211 156.274383 
L 251.439498 156.161733 
L 251.518425 156.318638 
L 251.674549 156.119489 
L 251.753202 156.274383 
L 251.987976 156.026553 
L 252.105365 156.003319 
L 252.182842 156.119489 
L 252.261492 155.809702 
L 252.457428 155.964596 
L 252.692205 155.654809 
L 252.809593 155.887149 
L 252.965721 155.190128 
L 253.04437 155.809702 
L 253.200497 155.190128 
L 253.279149 155.345021 
L 253.356624 154.88034 
L 253.435275 155.035234 
L 253.513925 155.190128 
L 253.670051 154.88034 
L 253.748701 155.345021 
L 253.826177 154.725447 
L 253.943566 155.073957 
L 254.022216 154.640959 
L 254.100867 155.190128 
L 254.178344 154.570553 
L 254.256993 154.725447 
L 254.491771 154.471985 
L 254.647897 154.260766 
L 254.726819 153.796085 
L 254.804894 154.41566 
L 254.961021 153.641191 
L 255.039674 154.260766 
L 255.19581 153.486298 
L 255.274462 153.796085 
L 255.470507 153.796085 
L 255.547987 153.331404 
L 255.705291 153.796085 
L 255.82268 153.67217 
L 255.978808 153.176511 
L 256.057532 153.176511 
L 256.13501 153.021617 
L 256.21366 152.556936 
L 256.292309 152.71183 
L 256.369785 152.866723 
L 256.448437 152.556936 
L 256.644484 152.556936 
L 256.800612 152.402043 
L 256.879273 152.402043 
L 256.956749 152.247149 
L 257.152799 152.402043 
L 257.231448 152.106337 
L 257.348836 152.285872 
L 257.466226 151.804596 
L 257.543701 151.937362 
L 257.70101 152.092255 
L 258.013566 151.472681 
L 258.169693 151.627574 
L 258.326993 151.472681 
L 258.404755 151.430437 
L 258.483404 151.162894 
L 258.600792 151.472681 
L 258.835569 151.008 
L 258.991695 151.162894 
L 259.070346 150.853106 
L 259.265211 151.008 
L 259.343861 151.092487 
L 259.422512 150.543319 
L 259.617377 150.698213 
L 259.930803 150.543319 
L 260.009453 150.078638 
L 260.086931 150.543319 
L 260.24423 149.768851 
L 260.321709 150.388426 
L 260.479018 149.768851 
L 260.556497 149.923745 
L 260.713808 149.30417 
L 260.791284 149.923745 
L 260.948556 148.839489 
L 261.026034 149.768851 
L 261.183332 148.839489 
L 261.339461 148.994383 
L 261.495599 148.529702 
L 261.574258 148.38889 
L 261.770294 147.639064 
L 261.847771 147.445447 
L 261.965161 147.476426 
L 262.043821 147.910128 
L 262.122472 147.13566 
L 262.317346 147.290553 
L 262.395996 147.13566 
L 262.474645 146.516085 
L 262.552135 147.13566 
L 262.630804 146.670979 
L 262.748201 146.825872 
L 262.865589 146.361191 
L 262.94424 146.516085 
L 263.021717 146.361191 
L 263.100368 146.516085 
L 263.256494 145.43183 
L 263.33515 146.361191 
L 263.413802 145.43183 
L 263.491286 146.051404 
L 263.648583 144.967149 
L 263.72606 145.122043 
L 263.804719 145.586723 
L 263.960846 144.967149 
L 264.039495 144.812255 
L 264.235536 144.967149 
L 264.431337 144.967149 
L 264.50881 144.812255 
L 264.58746 144.967149 
L 264.664937 144.502468 
L 264.743587 144.967149 
L 264.822237 144.812255 
L 264.899714 144.502468 
L 265.018277 144.750298 
L 265.174403 144.192681 
L 265.251881 144.657362 
L 265.409181 144.192681 
L 265.486657 144.347574 
L 265.565307 143.882894 
L 265.643957 144.037787 
L 265.721433 144.502468 
L 265.800084 143.728 
L 265.878734 144.037787 
L 265.996434 143.573106 
L 266.07391 144.037787 
L 266.152559 143.882894 
L 266.426075 143.418213 
L 266.543464 143.573106 
L 266.700763 143.418213 
L 266.93554 143.150669 
L 267.013019 143.307574 
L 267.091669 143.418213 
L 267.247795 143.108426 
L 267.326447 142.643745 
L 267.405038 143.108426 
L 267.482514 142.953532 
L 267.561164 142.953532 
L 267.639813 142.643745 
L 267.717291 142.798638 
L 267.874589 142.333957 
L 268.069456 142.333957 
L 268.226755 141.869277 
L 268.304232 142.179064 
L 268.539219 141.460921 
L 268.735268 141.714383 
L 268.812745 141.404596 
L 268.89141 141.714383 
L 269.165924 141.249702 
L 269.32205 141.559489 
L 269.400701 141.094809 
L 269.478179 141.291946 
L 269.557095 141.559489 
L 269.634572 141.094809 
L 269.713221 141.249702 
L 269.869347 141.094809 
L 269.947999 141.249702 
L 270.104124 140.785021 
L 270.182776 141.094809 
L 270.338951 140.785021 
L 270.45634 140.901191 
L 270.652379 140.785021 
L 270.730783 140.32034 
L 270.808259 140.785021 
L 270.96556 140.165447 
L 271.082948 140.289362 
L 271.160425 139.940147 
L 271.239076 140.32034 
L 271.356463 139.97183 
L 271.473853 139.97183 
L 271.629979 139.85566 
L 271.787279 139.85566 
L 271.864757 139.390979 
L 271.943419 139.700766 
L 272.060819 139.669787 
L 272.178218 139.457362 
L 272.256888 139.771172 
L 272.334677 139.390979 
L 272.413328 139.545872 
L 272.530717 139.602197 
L 272.608192 139.174128 
L 272.686871 139.390979 
L 272.804261 139.050213 
L 272.88291 139.390979 
L 273.000299 139.390979 
L 273.077776 138.771404 
L 273.235075 139.081191 
L 273.312552 139.081191 
L 273.391203 138.926298 
L 273.469853 139.236085 
L 273.625979 138.616511 
L 273.782104 138.771404 
L 273.860755 138.616511 
L 273.938556 138.926298 
L 274.095855 138.461617 
L 274.173332 138.616511 
L 274.565166 137.842043 
L 274.721291 138.15183 
L 274.799941 137.687149 
L 274.956067 138.15183 
L 275.073458 137.934979 
L 275.269496 137.496511 
L 275.348147 137.532255 
L 275.425621 137.842043 
L 275.504123 137.532255 
L 275.660248 137.842043 
L 275.738899 137.377362 
L 275.817549 137.532255 
L 275.895025 137.687149 
L 275.973676 137.377362 
L 276.129802 137.532255 
L 276.208453 137.222468 
L 276.287104 137.532255 
L 276.44323 137.222468 
L 276.560618 137.299915 
L 276.639268 137.067574 
L 276.716744 137.377362 
L 276.834133 136.835234 
L 277.030172 136.912681 
L 277.108544 136.912681 
L 277.187197 136.602894 
L 277.343321 136.912681 
L 277.499448 136.448 
L 277.656748 136.602894 
L 277.734227 136.448 
L 277.812877 136.602894 
L 278.047654 136.138213 
L 278.165041 136.254383 
L 278.478467 135.983319 
L 278.555945 135.673532 
L 278.634596 135.983319 
L 278.791342 135.673532 
L 278.908739 135.828426 
L 278.986205 135.673532 
L 279.064856 135.983319 
L 279.143096 135.363745 
L 279.221743 135.518638 
L 279.377869 135.518638 
L 279.45652 135.673532 
L 279.533998 135.208851 
L 279.612646 135.363745 
L 279.808685 135.518638 
L 279.964811 135.053957 
L 280.043462 135.363745 
L 280.199589 134.74417 
L 280.278242 135.053957 
L 280.552043 134.434383 
L 280.630695 134.589277 
L 280.865474 134.279489 
L 280.942947 134.279489 
L 281.021597 134.124596 
L 281.216543 134.39566 
L 281.295191 134.124596 
L 281.373841 134.195002 
L 281.529968 133.969702 
L 281.726007 133.698638 
L 281.882133 133.814809 
L 282.156647 133.505021 
L 282.274036 133.814809 
L 282.351512 133.659915 
L 282.430163 133.195234 
L 282.508812 133.659915 
L 282.586289 132.885447 
L 282.703677 133.350128 
L 282.899717 132.885447 
L 282.978366 133.195234 
L 283.134494 132.57566 
L 283.290619 132.57566 
L 283.369269 132.420766 
L 283.525671 132.730553 
L 283.604318 131.956085 
L 283.681795 132.265872 
L 283.760447 132.265872 
L 283.839094 131.956085 
L 283.916574 132.265872 
L 284.19126 131.646298 
L 284.268738 131.956085 
L 284.426039 131.336511 
L 284.503514 131.646298 
L 284.582163 131.491404 
L 284.738293 131.646298 
L 284.855679 131.491404 
L 284.973067 130.96034 
L 285.05172 131.491404 
L 285.169394 130.678213 
L 285.246871 130.716936 
L 285.521561 130.562043 
L 285.599036 129.942468 
L 285.677687 130.562043 
L 285.912465 130.37617 
L 285.991114 129.942468 
L 286.108502 129.981191 
L 286.185981 129.632681 
L 286.264386 129.787574 
L 286.421687 129.294731 
L 286.499163 129.787574 
L 286.616551 129.632681 
L 286.852186 129.013106 
L 286.929662 129.322894 
L 287.164439 128.703319 
L 287.24309 128.703319 
L 287.321741 129.013106 
L 287.673904 128.548426 
L 287.751381 128.548426 
L 287.908682 128.238638 
L 287.986158 128.548426 
L 288.260796 127.942932 
L 288.338272 128.083745 
L 288.495573 128.059915 
L 288.651699 127.773957 
L 288.807826 128.083745 
L 288.886476 128.111907 
L 289.121253 127.425447 
L 289.199904 127.46417 
L 289.35603 127.619064 
L 289.708195 126.844596 
L 289.786847 127.154383 
L 289.942941 126.844596 
L 290.021589 127.154383 
L 290.256366 126.534809 
L 290.373755 126.844596 
L 290.45123 125.746259 
L 290.568619 126.286979 
L 290.803396 125.605447 
L 290.960698 125.605447 
L 291.038173 125.915234 
L 291.116266 124.985872 
L 291.194917 125.605447 
L 291.312307 125.38417 
L 291.429694 125.543489 
L 291.586751 124.676085 
L 291.703566 124.8 
L 291.782217 125.29566 
L 291.859692 124.366298 
L 291.938343 124.521191 
L 292.094482 124.985872 
L 292.173472 124.056511 
L 292.250961 124.211404 
L 292.329608 124.225485 
L 292.408261 124.056511 
L 292.485749 124.366298 
L 292.564399 123.59183 
L 292.720526 124.366298 
L 292.799185 123.282043 
L 292.877913 123.59183 
L 292.956413 123.59183 
L 293.112539 122.972255 
L 293.268665 123.127149 
L 293.347316 122.972255 
L 293.503691 123.127149 
L 293.582342 122.662468 
L 293.659819 122.817362 
L 293.738469 123.042662 
L 293.817119 122.483745 
L 293.894595 122.817362 
L 294.051897 122.507574 
L 294.169284 122.817362 
L 294.404061 122.507574 
L 294.716138 122.507574 
L 294.833525 122.197787 
L 294.990827 122.507574 
L 295.18569 122.507574 
L 295.264341 122.042894 
L 295.38173 122.197787 
L 295.46038 121.733106 
L 295.537856 122.042894 
L 295.695156 121.578213 
L 295.772636 122.042894 
L 295.851283 121.888 
L 296.086449 121.578213 
L 296.321226 121.578213 
L 296.398703 121.352913 
L 296.477355 121.423319 
L 296.556003 121.268426 
L 296.63348 121.423319 
L 296.790782 121.113532 
L 296.946909 121.113532 
L 297.142946 120.958638 
L 297.298962 120.648851 
L 297.377613 121.113532 
L 297.533738 120.803745 
L 297.612388 120.648851 
L 297.69104 120.803745 
L 298.042286 120.586894 
L 298.277063 120.586894 
L 298.629228 119.967319 
L 298.746617 120.215149 
L 298.864005 119.832139 
L 299.098782 119.967319 
L 299.21617 119.719489 
L 299.450947 120.073532 
L 299.569205 119.47166 
L 299.92137 119.47166 
L 300.156147 118.945021 
L 300.233624 119.409702 
L 300.351012 118.976 
L 300.468402 119.22383 
L 300.585791 118.909277 
L 300.703186 118.976 
L 300.820574 118.72817 
L 300.937963 118.976 
L 301.055352 118.635234 
L 301.134311 119.052255 
L 301.211788 118.635234 
L 301.29044 118.790128 
L 301.44658 118.48034 
L 301.721198 118.082043 
L 302.033401 117.736851 
L 302.112053 117.973416 
L 302.463673 117.489021 
L 302.542322 117.635466 
L 302.659709 117.241191 
L 302.777094 117.418213 
L 302.894483 117.241191 
L 303.011873 117.285447 
L 303.24665 117.019915 
L 303.364036 116.993362 
L 303.481426 116.621617 
L 303.716204 116.754383 
L 304.18549 115.906723 
L 304.420629 115.957787 
L 304.655406 115.620766 
L 304.773241 115.763745 
L 304.890629 115.559489 
L 305.008018 115.620766 
L 305.59496 115.010723 
L 305.829738 115.048851 
L 306.064514 114.89566 
L 306.299291 114.905872 
L 306.416679 114.619915 
L 306.534068 114.762894 
L 306.768845 114.333957 
L 306.886233 114.619915 
L 307.121011 114.048 
L 307.238399 114.23183 
L 307.472781 113.619064 
L 307.590182 113.918019 
L 307.707569 113.762043 
L 307.824957 113.833532 
L 308.059436 113.333106 
L 308.294213 113.476085 
L 308.4116 113.169702 
L 308.52899 113.190128 
L 308.763767 112.594383 
L 308.921069 113.302468 
L 309.038457 112.618213 
L 309.15473 112.761191 
L 309.389511 112.107574 
L 309.624286 112.189277 
L 309.742848 111.819915 
L 309.859968 111.903319 
L 309.977357 111.842043 
L 310.094743 111.474383 
L 310.212133 111.617362 
L 310.329522 111.331404 
L 310.44691 111.76034 
L 310.681685 111.552371 
L 311.150334 111.310979 
L 311.267723 111.474383 
L 311.38511 111.331404 
L 311.619887 110.759489 
L 311.737276 110.912681 
L 311.855641 110.538522 
L 312.090417 110.759489 
L 312.559997 110.330553 
L 312.677385 110.330553 
L 313.029552 109.758638 
L 313.264327 109.806298 
L 313.381718 109.901617 
L 313.499107 109.717787 
L 313.616496 109.758638 
L 314.007625 109.319489 
L 314.125012 109.472681 
L 314.35979 109.329702 
L 314.477178 109.452255 
L 314.594566 108.900766 
L 314.711957 109.186723 
L 314.829345 108.722043 
L 314.946734 108.848774 
L 315.10286 108.257362 
L 315.220251 108.47183 
L 315.611061 107.859064 
L 315.728449 108.003899 
L 315.845835 108.124596 
L 316.745958 107.613957 
L 316.863347 107.637787 
L 316.980736 107.470979 
L 317.098124 107.613957 
L 317.215512 106.796936 
L 317.332901 107.482894 
L 317.567679 106.613106 
L 317.685066 107.328 
L 317.919843 106.652101 
L 318.037231 106.470128 
L 318.15462 106.708426 
L 318.389396 106.398638 
L 318.506786 106.327149 
L 318.741798 105.612255 
L 318.859186 106.327149 
L 318.976576 106.00034 
L 319.093966 106.041191 
L 319.328742 105.183319 
L 319.446131 105.898213 
L 319.56352 105.469277 
L 319.680906 105.469277 
L 319.798296 105.183319 
L 319.915686 105.300302 
L 320.033072 104.611404 
L 320.15046 104.611404 
L 320.26785 104.182468 
L 320.502948 104.286453 
L 320.737726 103.610553 
L 320.9725 103.181617 
L 321.089892 102.89566 
L 321.207278 103.467574 
L 321.324666 103.079489 
L 321.442057 103.181617 
L 321.559444 102.609702 
L 321.676813 102.609702 
L 321.794203 102.89566 
L 322.02876 102.609702 
L 322.146149 102.323745 
L 322.263538 102.609702 
L 322.615967 102.180766 
L 322.733356 102.323745 
L 322.850744 101.608851 
L 322.968132 102.037787 
L 323.085521 101.906723 
L 323.202909 101.322894 
L 323.320298 101.442043 
L 323.437686 101.287149 
L 323.555075 101.322894 
L 323.672463 100.977362 
L 323.90724 101.179915 
L 324.142017 100.893957 
L 324.259405 101.088 
L 324.611572 100.322043 
L 324.728961 100.569006 
L 324.885087 100.556936 
L 325.120517 100.179064 
L 325.355294 100.322043 
L 325.590071 100.322043 
L 325.706807 100.179064 
L 325.824195 100.291404 
L 326.176361 99.583319 
L 326.293749 100.231056 
L 326.41114 99.724132 
L 326.528527 99.76034 
L 326.645912 99.46417 
L 326.763075 99.607149 
L 326.880473 99.386182 
L 327.115261 99.46417 
L 327.232664 99.048232 
L 327.467448 99.178213 
L 327.584845 99.229277 
L 327.976926 98.698213 
L 328.211703 98.879257 
L 328.328247 99.048232 
L 328.680412 98.372333 
L 328.91519 98.606298 
L 329.032578 98.606298 
L 329.267354 97.865408 
L 329.384744 98.606298 
L 329.502131 98.541308 
L 329.854297 97.748426 
L 329.971432 98.034383 
L 330.088819 97.748426 
L 330.363509 97.696433 
L 330.480898 97.527458 
L 330.637026 97.503319 
L 330.871803 97.033532 
L 331.10658 97.020534 
L 331.223968 96.890553 
L 331.341357 97.105021 
L 331.576151 96.604596 
L 331.693539 96.795234 
L 331.810929 96.747574 
L 331.928314 96.513609 
L 332.045703 96.682584 
L 332.280481 96.441191 
L 332.39787 96.682584 
L 332.515259 95.83771 
L 332.632646 95.889702 
L 332.750034 96.17566 
L 332.984814 95.746723 
L 333.102444 95.49976 
L 333.219332 95.603745 
L 333.806159 94.888851 
L 333.923545 95.174809 
L 334.275709 94.485911 
L 334.393098 94.030979 
L 334.510486 94.316936 
L 334.627875 94.051404 
L 334.746155 94.147961 
L 334.862965 93.602043 
L 334.980354 93.745021 
L 335.097741 93.602043 
L 335.21513 93.254809 
L 335.33252 93.602043 
L 335.723422 92.887149 
L 335.84081 93.030128 
L 335.958198 92.887149 
L 336.075587 93.173106 
L 336.192976 92.590979 
L 336.427992 92.965137 
L 336.66277 92.029277 
L 336.78016 92.325447 
L 337.014934 91.743319 
L 337.132326 91.993532 
L 337.367102 91.528851 
L 337.719267 91.782313 
L 337.836654 91.314383 
L 337.95434 91.396085 
L 338.423894 91.028426 
L 338.541282 91.219064 
L 338.658671 90.885447 
L 338.776059 91.171404 
L 339.128224 90.885447 
L 339.245613 90.885447 
L 339.363003 91.028426 
L 339.48039 90.456511 
L 339.59723 90.742468 
L 339.949396 90.027574 
L 340.067602 90.599489 
L 340.184988 90.027574 
L 340.419765 90.170553 
L 340.654542 89.884596 
L 341.123829 89.884596 
L 341.358606 89.312681 
L 341.475994 89.598638 
L 341.593383 89.169702 
L 341.710771 89.58564 
L 341.945548 89.205447 
L 342.180326 89.026723 
L 342.415102 89.169702 
L 342.649879 89.139064 
L 343.040782 88.873532 
L 343.158172 88.571791 
L 343.275593 88.883745 
L 343.510368 88.740766 
L 343.627759 88.740766 
L 343.862535 88.402816 
L 344.097312 88.597787 
L 344.332343 88.168851 
L 344.449732 88.276085 
L 345.036674 87.596936 
L 345.153862 87.882894 
L 345.506027 87.596936 
L 345.623926 87.596936 
L 345.741314 87.346723 
L 345.8587 87.453957 
L 345.975892 87.388967 
L 346.09328 87.168 
L 346.445446 87.310979 
L 346.680223 86.727149 
L 346.915 87.025021 
L 347.032388 86.572255 
L 347.149776 86.616511 
L 347.267165 86.206143 
L 347.384553 86.417362 
L 347.619101 86.310128 
L 347.73649 86.375118 
L 347.971266 85.881191 
L 348.088656 85.881191 
L 348.206045 86.02417 
L 348.323433 85.687149 
L 348.440821 85.738213 
L 348.714335 85.518979 
L 348.831726 85.738213 
L 349.184179 85.309277 
L 349.301568 85.333106 
L 349.418956 85.530244 
L 349.653735 85.309277 
L 349.771121 85.192294 
L 349.88851 85.288851 
L 350.005912 85.166298 
L 350.123298 85.309277 
L 350.240689 85.023319 
L 350.358076 85.333106 
L 350.475466 84.890553 
L 350.709916 85.023319 
L 351.062083 84.451404 
L 351.179472 84.737362 
L 351.336618 84.359489 
L 351.492746 84.625021 
L 351.727521 84.178445 
L 351.962298 84.34742 
L 352.197075 84.165447 
L 352.431851 84.093957 
L 352.667078 83.879489 
L 352.784467 83.879489 
L 352.901658 84.022468 
L 353.136435 83.450553 
L 353.253825 83.67152 
L 353.371212 83.450553 
L 353.605989 83.736511 
L 353.762116 83.297362 
L 353.879504 83.502545 
L 353.996893 83.430128 
L 354.114283 83.164596 
L 354.231671 83.450553 
L 354.466494 82.306723 
L 354.583882 83.021617 
L 354.81866 81.448851 
L 355.093348 82.854809 
L 355.210735 82.368 
L 355.445514 81.162894 
L 355.562074 81.812797 
L 355.796851 81.019915 
L 355.914239 81.305872 
L 356.031628 80.629973 
L 356.148811 80.629973 
L 356.266201 80.292023 
L 356.344849 80.460998 
L 356.579627 80.162043 
L 356.697017 79.137362 
L 356.814403 79.876085 
L 356.931792 79.712681 
L 357.049181 79.876085 
L 357.284285 79.447149 
L 357.401719 79.616124 
L 357.519117 78.650553 
L 357.636505 79.161191 
L 357.753893 79.018213 
L 357.870924 78.589277 
L 358.105695 78.732255 
L 358.340471 78.16034 
L 358.457859 78.017362 
L 358.575248 78.16034 
L 358.692638 77.986723 
L 358.810025 78.16034 
L 358.927193 77.731404 
L 359.044581 77.731404 
L 359.161971 77.898213 
L 359.279359 77.853957 
L 359.396747 77.445447 
L 359.631524 77.731404 
L 359.866302 77.433532 
L 359.983689 77.588426 
L 360.218469 76.873532 
L 360.336089 77.445447 
L 360.570866 76.730553 
L 361.157807 76.730553 
L 361.275197 76.01566 
L 361.392586 76.444596 
L 361.509972 76.405602 
L 361.627363 76.526298 
L 361.744751 76.349277 
L 361.86214 75.898677 
L 362.096916 76.01566 
L 362.214303 75.884596 
L 362.331693 75.391752 
L 362.449082 75.729702 
L 362.566469 75.300766 
L 362.683861 75.560727 
L 362.918636 75.300766 
L 363.036024 75.300766 
L 363.153411 75.014809 
L 363.2708 75.300766 
L 363.505577 74.728851 
L 363.622965 74.585872 
L 363.740628 74.728851 
L 363.858016 74.442894 
L 364.092794 74.585872 
L 364.32757 74.299915 
L 364.444958 74.728851 
L 364.679736 74.299915 
L 364.953249 74.242723 
L 365.070639 74.013957 
L 365.18777 74.299915 
L 365.305162 73.870979 
L 365.422546 74.156936 
L 365.892436 73.702004 
L 366.010044 73.870979 
L 366.127718 73.561191 
L 366.245103 73.728 
L 366.518631 73.738213 
L 366.753751 73.299064 
L 366.871139 73.442043 
L 366.988527 73.013106 
L 367.458097 73.156085 
L 367.575484 73.013106 
L 367.810259 72.51918 
L 367.927649 72.51918 
L 368.162424 72.298213 
L 368.396658 72.476936 
L 368.74882 72.441191 
L 368.983542 71.869277 
L 369.100932 72.012255 
L 369.218319 71.547574 
L 369.335707 71.857362 
L 369.453095 71.674306 
L 369.570484 71.869277 
L 369.688229 71.44034 
L 369.805618 71.505331 
L 369.922778 71.392681 
L 370.078905 71.44034 
L 370.196292 71.674306 
L 370.431069 71.011404 
L 370.54846 71.154383 
L 370.900623 70.829431 
L 371.018013 71.011404 
L 371.135401 70.660456 
L 371.252788 70.725447 
L 371.487566 70.582468 
L 371.605858 70.684596 
L 371.723245 70.463319 
L 371.840637 70.660456 
L 371.958025 70.153532 
L 372.192803 70.618213 
L 372.427578 70.439489 
L 372.544967 70.618213 
L 372.779604 70.463319 
L 373.483934 69.308658 
L 373.601322 69.815582 
L 373.836099 69.438638 
L 373.953488 69.379064 
L 374.070877 69.152681 
L 374.188266 69.29566 
L 374.305655 69.009702 
L 374.423043 69.438638 
L 374.540433 69.091404 
L 374.65782 69.139683 
L 374.814292 68.825872 
L 375.049069 69.152681 
L 375.401234 68.449702 
L 375.518334 68.723745 
L 375.870499 68.294809 
L 375.987889 68.437787 
L 376.105276 68.294809 
L 376.222665 68.723745 
L 376.457733 67.956859 
L 376.69251 68.029277 
L 376.927287 67.722894 
L 377.162063 67.579915 
L 377.279453 67.498213 
L 377.39684 67.579915 
L 377.514231 67.280959 
L 377.631618 67.293957 
L 377.866395 66.967149 
L 377.983735 67.293957 
L 378.3359 66.722043 
L 378.453288 66.865021 
L 378.805454 66.722043 
L 379.040229 66.701617 
L 379.157617 66.436085 
L 379.392395 66.774035 
L 379.627413 66.26711 
L 379.744801 66.26711 
L 379.862191 66.579064 
L 380.096968 66.26711 
L 380.213182 66.037787 
L 380.331537 66.150128 
L 380.448919 66.007149 
L 380.566308 66.150128 
L 380.683695 66.098135 
L 381.035861 65.422236 
L 381.269768 65.721191 
L 381.504847 65.435234 
L 381.779536 65.373957 
L 381.896925 65.149277 
L 382.014313 65.196936 
L 382.247916 64.863319 
L 382.365304 65.241191 
L 382.482694 65.006298 
L 382.600082 65.149277 
L 382.718461 65.006298 
L 382.835849 65.149277 
L 382.991975 64.842894 
L 383.109365 65.006298 
L 383.344145 64.842894 
L 383.461531 65.006298 
L 383.69618 64.577362 
L 383.930956 64.710128 
L 384.048345 64.72034 
L 384.5179 64.179064 
L 384.635289 64.408387 
L 384.987454 63.862468 
L 385.104844 63.913532 
L 385.222231 63.433532 
L 385.33962 64.148426 
L 385.457009 63.433532 
L 385.574397 63.648 
L 385.691784 63.515234 
L 385.809174 63.576511 
L 385.926849 63.957787 
L 386.396404 63.116936 
L 386.6311 63.433532 
L 386.748489 63.004596 
L 386.865876 63.290553 
L 386.983266 62.861617 
L 387.100653 63.147574 
L 387.218041 63.004596 
L 387.335776 62.549663 
L 387.726679 62.57566 
L 388.078847 62.003745 
L 388.196233 62.289702 
L 388.313621 62.146723 
L 388.548399 61.656511 
L 388.900563 61.717787 
L 389.017952 61.002894 
L 389.134845 61.288851 
L 389.369625 60.859915 
L 389.487012 60.859915 
L 389.722765 60.288 
L 389.840154 60.859915 
L 390.073759 60.145021 
L 390.191145 60.196085 
L 390.308532 59.716085 
L 390.425924 59.930553 
L 390.543312 59.859064 
L 390.818 59.170166 
L 390.935388 58.858213 
L 391.052194 59.156085 
L 391.169596 58.602894 
L 391.287013 58.832217 
L 391.640051 58.286298 
L 391.756344 58.204596 
L 391.873795 58.381617 
L 392.109106 57.571404 
L 392.344101 57.408 
L 392.461488 58.325292 
L 392.578876 57.428426 
L 392.696265 57.480418 
L 392.813653 57.285447 
L 393.04843 57.649393 
L 393.283208 57.142468 
L 393.400595 57.285447 
L 393.517984 56.856511 
L 393.674111 56.876936 
L 393.791499 56.522894 
L 393.908887 56.611404 
L 394.026278 56.466569 
L 394.182402 56.804518 
L 394.417181 55.998638 
L 394.534568 55.959644 
L 394.651957 55.712681 
L 394.769345 55.998638 
L 394.886733 55.814809 
L 395.121511 55.998638 
L 395.238899 55.621694 
L 395.473676 55.682043 
L 395.591345 55.569702 
L 395.708735 55.712681 
L 395.943511 55.569702 
L 396.060901 55.569702 
L 396.295678 55.283745 
L 396.570214 55.593532 
L 396.687603 54.997787 
L 396.80499 55.283745 
L 396.961119 55.150979 
L 397.078508 54.607845 
L 397.196208 54.607845 
L 397.3136 54.854809 
L 397.430986 54.487149 
L 397.548373 54.509277 
L 397.783151 53.931946 
L 398.017718 54.354383 
L 398.135109 54.282894 
L 398.252496 53.568 
L 398.369885 53.996936 
L 398.487273 53.762971 
L 398.487273 53.762971 
" clip-path="url(#p9d383574cd)" style="fill: none; stroke: #4169e1; stroke-width: 1.5; stroke-linecap: square"/>
   </g>
   <g id="patch_3">
    <path d="M 57.6 307.584 
L 57.6 41.472 
" style="fill: none; stroke: #000000; stroke-width: 0.8; stroke-linejoin: miter; stroke-linecap: square"/>
   </g>
   <g id="patch_4">
    <path d="M 414.72 307.584 
L 414.72 41.472 
" style="fill: none; stroke: #000000; stroke-width: 0.8; stroke-linejoin: miter; stroke-linecap: square"/>
   </g>
   <g id="patch_5">
    <path d="M 57.6 307.584 
L 414.72 307.584 
" style="fill: none; stroke: #000000; stroke-width: 0.8; stroke-linejoin: miter; stroke-linecap: square"/>
   </g>
   <g id="patch_6">
    <path d="M 57.6 41.472 
L 414.72 41.472 
" style="fill: none; stroke: #000000; stroke-width: 0.8; stroke-linejoin: miter; stroke-linecap: square"/>
   </g>
  </g>
 </g>
 <defs>
  <clipPath id="p9d383574cd">
   <rect x="57.6" y="41.472" width="357.12" height="266.112"/>
  </clipPath>
 </defs>
</svg>
