<?xml version="1.0" encoding="utf-8" standalone="no"?>
<!DOCTYPE svg PUBLIC "-//W3C//DTD SVG 1.1//EN"
  "http://www.w3.org/Graphics/SVG/1.1/DTD/svg11.dtd">
<svg xmlns:xlink="http://www.w3.org/1999/xlink" width="460.8pt" height="345.6pt" viewBox="0 0 460.8 345.6" xmlns="http://www.w3.org/2000/svg" version="1.1">
 <metadata>
  <rdf:RDF xmlns:dc="http://purl.org/dc/elements/1.1/" xmlns:cc="http://creativecommons.org/ns#" xmlns:rdf="http://www.w3.org/1999/02/22-rdf-syntax-ns#">
   <cc:Work>
    <dc:type rdf:resource="http://purl.org/dc/dcmitype/StillImage"/>
    <dc:date>2022-05-21T17:11:15.886515</dc:date>
    <dc:format>image/svg+xml</dc:format>
    <dc:creator>
     <cc:Agent>
      <dc:title>Matplotlib v3.5.1, https://matplotlib.org/</dc:title>
     </cc:Agent>
    </dc:creator>
   </cc:Work>
  </rdf:RDF>
 </metadata>
 <defs>
  <style type="text/css">*{stroke-linejoin: round; stroke-linecap: butt}</style>
 </defs>
 <g id="figure_1">
  <g id="patch_1">
   <path d="M 0 345.6 
L 460.8 345.6 
L 460.8 0 
L 0 0 
z
" style="fill: #ffffff"/>
  </g>
  <g id="axes_1">
   <g id="patch_2">
    <path d="M 57.6 307.584 
L 414.72 307.584 
L 414.72 41.472 
L 57.6 41.472 
z
" style="fill: #ffffff"/>
   </g>
   <g id="matplotlib.axis_1">
    <g id="xtick_1">
     <g id="line2d_1">
      <defs>
       <path id="m72fa8e1cf1" d="M 0 0 
L 0 3.5 
" style="stroke: #000000; stroke-width: 0.8"/>
      </defs>
      <g>
       <use xlink:href="#m72fa8e1cf1" x="73.603473" y="307.584" style="stroke: #000000; stroke-width: 0.8"/>
      </g>
     </g>
     <g id="text_1">
      <!-- $\mathdefault{0}$ -->
      <g transform="translate(71.112805 321.502498)scale(0.1 -0.1)">
       <defs>
        <path id="CMR17-30" d="M 2688 2025 
C 2688 2416 2682 3080 2413 3591 
C 2176 4039 1798 4198 1466 4198 
C 1158 4198 768 4058 525 3597 
C 269 3118 243 2524 243 2025 
C 243 1661 250 1106 448 619 
C 723 -39 1216 -128 1466 -128 
C 1760 -128 2208 -7 2470 600 
C 2662 1042 2688 1559 2688 2025 
z
M 1466 -26 
C 1056 -26 813 325 723 812 
C 653 1188 653 1738 653 2096 
C 653 2588 653 2997 736 3387 
C 858 3929 1216 4096 1466 4096 
C 1728 4096 2067 3923 2189 3400 
C 2272 3036 2278 2607 2278 2096 
C 2278 1680 2278 1169 2202 792 
C 2067 95 1690 -26 1466 -26 
z
" transform="scale(0.015625)"/>
       </defs>
       <use xlink:href="#CMR17-30" transform="scale(0.996264)"/>
      </g>
     </g>
    </g>
    <g id="xtick_2">
     <g id="line2d_2">
      <g>
       <use xlink:href="#m72fa8e1cf1" x="130.949872" y="307.584" style="stroke: #000000; stroke-width: 0.8"/>
      </g>
     </g>
     <g id="text_2">
      <!-- $\mathdefault{50}$ -->
      <g transform="translate(125.968537 321.502498)scale(0.1 -0.1)">
       <defs>
        <path id="CMR17-35" d="M 730 3692 
C 794 3666 1056 3584 1325 3584 
C 1920 3584 2246 3911 2432 4100 
C 2432 4157 2432 4192 2394 4192 
C 2387 4192 2374 4192 2323 4163 
C 2099 4058 1837 3973 1517 3973 
C 1325 3973 1037 3999 723 4139 
C 653 4171 640 4171 634 4171 
C 602 4171 595 4164 595 4037 
L 595 2203 
C 595 2089 595 2057 659 2057 
C 691 2057 704 2070 736 2114 
C 941 2401 1222 2522 1542 2522 
C 1766 2522 2246 2382 2246 1289 
C 2246 1085 2246 715 2054 421 
C 1894 159 1645 25 1370 25 
C 947 25 518 320 403 814 
C 429 807 480 795 506 795 
C 589 795 749 840 749 1038 
C 749 1210 627 1280 506 1280 
C 358 1280 262 1190 262 1011 
C 262 454 704 -128 1382 -128 
C 2042 -128 2669 440 2669 1264 
C 2669 2030 2170 2624 1549 2624 
C 1222 2624 947 2503 730 2274 
L 730 3692 
z
" transform="scale(0.015625)"/>
       </defs>
       <use xlink:href="#CMR17-35" transform="scale(0.996264)"/>
       <use xlink:href="#CMR17-30" transform="translate(45.690477 0)scale(0.996264)"/>
      </g>
     </g>
    </g>
    <g id="xtick_3">
     <g id="line2d_3">
      <g>
       <use xlink:href="#m72fa8e1cf1" x="188.296272" y="307.584" style="stroke: #000000; stroke-width: 0.8"/>
      </g>
     </g>
     <g id="text_3">
      <!-- $\mathdefault{100}$ -->
      <g transform="translate(180.824269 321.502498)scale(0.1 -0.1)">
       <defs>
        <path id="CMR17-31" d="M 1702 4058 
C 1702 4192 1696 4192 1606 4192 
C 1357 3916 979 3827 621 3827 
C 602 3827 570 3827 563 3808 
C 557 3795 557 3782 557 3648 
C 755 3648 1088 3686 1344 3839 
L 1344 461 
C 1344 236 1331 160 781 160 
L 589 160 
L 589 0 
C 896 0 1216 0 1523 0 
C 1830 0 2150 0 2458 0 
L 2458 160 
L 2266 160 
C 1715 160 1702 230 1702 458 
L 1702 4058 
z
" transform="scale(0.015625)"/>
       </defs>
       <use xlink:href="#CMR17-31" transform="scale(0.996264)"/>
       <use xlink:href="#CMR17-30" transform="translate(45.690477 0)scale(0.996264)"/>
       <use xlink:href="#CMR17-30" transform="translate(91.380954 0)scale(0.996264)"/>
      </g>
     </g>
    </g>
    <g id="xtick_4">
     <g id="line2d_4">
      <g>
       <use xlink:href="#m72fa8e1cf1" x="245.642671" y="307.584" style="stroke: #000000; stroke-width: 0.8"/>
      </g>
     </g>
     <g id="text_4">
      <!-- $\mathdefault{150}$ -->
      <g transform="translate(238.170668 321.502498)scale(0.1 -0.1)">
       <use xlink:href="#CMR17-31" transform="scale(0.996264)"/>
       <use xlink:href="#CMR17-35" transform="translate(45.690477 0)scale(0.996264)"/>
       <use xlink:href="#CMR17-30" transform="translate(91.380954 0)scale(0.996264)"/>
      </g>
     </g>
    </g>
    <g id="xtick_5">
     <g id="line2d_5">
      <g>
       <use xlink:href="#m72fa8e1cf1" x="302.989071" y="307.584" style="stroke: #000000; stroke-width: 0.8"/>
      </g>
     </g>
     <g id="text_5">
      <!-- $\mathdefault{200}$ -->
      <g transform="translate(295.517068 321.502498)scale(0.1 -0.1)">
       <defs>
        <path id="CMR17-32" d="M 2669 989 
L 2554 989 
C 2490 536 2438 459 2413 420 
C 2381 369 1920 369 1830 369 
L 602 369 
C 832 619 1280 1072 1824 1597 
C 2214 1967 2669 2402 2669 3035 
C 2669 3790 2067 4224 1395 4224 
C 691 4224 262 3604 262 3030 
C 262 2780 448 2748 525 2748 
C 589 2748 781 2787 781 3010 
C 781 3207 614 3264 525 3264 
C 486 3264 448 3258 422 3245 
C 544 3790 915 4058 1306 4058 
C 1862 4058 2227 3617 2227 3035 
C 2227 2479 1901 2000 1536 1584 
L 262 146 
L 262 0 
L 2515 0 
L 2669 989 
z
" transform="scale(0.015625)"/>
       </defs>
       <use xlink:href="#CMR17-32" transform="scale(0.996264)"/>
       <use xlink:href="#CMR17-30" transform="translate(45.690477 0)scale(0.996264)"/>
       <use xlink:href="#CMR17-30" transform="translate(91.380954 0)scale(0.996264)"/>
      </g>
     </g>
    </g>
    <g id="xtick_6">
     <g id="line2d_6">
      <g>
       <use xlink:href="#m72fa8e1cf1" x="360.33547" y="307.584" style="stroke: #000000; stroke-width: 0.8"/>
      </g>
     </g>
     <g id="text_6">
      <!-- $\mathdefault{250}$ -->
      <g transform="translate(352.863467 321.502498)scale(0.1 -0.1)">
       <use xlink:href="#CMR17-32" transform="scale(0.996264)"/>
       <use xlink:href="#CMR17-35" transform="translate(45.690477 0)scale(0.996264)"/>
       <use xlink:href="#CMR17-30" transform="translate(91.380954 0)scale(0.996264)"/>
      </g>
     </g>
    </g>
    <g id="text_7">
     <!-- Temps (s) -->
     <g transform="translate(202.039235 339.394845)scale(0.16 -0.16)">
      <defs>
       <path id="CMR17-54" d="M 3981 4326 
L 288 4326 
L 179 2918 
L 294 2918 
C 378 3976 467 4160 1453 4160 
C 1568 4160 1754 4160 1805 4154 
C 1926 4135 1926 4058 1926 3912 
L 1926 459 
C 1926 230 1907 160 1376 160 
L 1197 160 
L 1197 0 
C 1504 0 1824 0 2138 0 
C 2451 0 2771 0 3078 0 
L 3078 160 
L 2899 160 
C 2368 160 2349 230 2349 459 
L 2349 3912 
C 2349 4052 2349 4129 2464 4154 
C 2515 4160 2701 4160 2816 4160 
C 3795 4160 3891 3976 3974 2918 
L 4090 2918 
L 3981 4326 
z
" transform="scale(0.015625)"/>
       <path id="CMR17-65" d="M 2438 1472 
C 2464 1498 2464 1511 2464 1576 
C 2464 2238 2118 2816 1389 2816 
C 710 2816 173 2169 173 1383 
C 173 551 781 -64 1459 -64 
C 2176 -64 2458 607 2458 740 
C 2458 784 2419 784 2406 784 
C 2362 784 2355 771 2330 696 
C 2189 265 1837 51 1504 51 
C 1229 51 954 203 781 480 
C 582 803 582 1176 582 1472 
L 2438 1472 
z
M 589 1568 
C 634 2505 1126 2714 1382 2714 
C 1818 2714 2112 2297 2118 1568 
L 589 1568 
z
" transform="scale(0.015625)"/>
       <path id="CMR17-6d" d="M 4326 1933 
C 4326 2252 4269 2790 3507 2790 
C 3072 2790 2771 2496 2656 2151 
L 2650 2151 
C 2573 2676 2195 2790 1837 2790 
C 1331 2790 1069 2400 973 2144 
L 966 2144 
L 966 2790 
L 211 2720 
L 211 2554 
C 589 2554 646 2515 646 2208 
L 646 428 
C 646 184 621 153 211 153 
L 211 -13 
C 365 0 646 0 813 0 
C 979 0 1267 0 1421 -13 
L 1421 153 
C 1011 153 986 178 986 428 
L 986 1658 
C 986 2247 1344 2688 1792 2688 
C 2266 2688 2317 2266 2317 1958 
L 2317 428 
C 2317 184 2291 153 1882 153 
L 1882 -13 
C 2035 0 2317 0 2483 0 
C 2650 0 2938 0 3091 -13 
L 3091 153 
C 2682 153 2656 178 2656 428 
L 2656 1658 
C 2656 2247 3014 2688 3462 2688 
C 3936 2688 3987 2266 3987 1958 
L 3987 428 
C 3987 184 3962 153 3552 153 
L 3552 -13 
C 3706 0 3987 0 4154 0 
C 4320 0 4608 0 4762 -13 
L 4762 153 
C 4352 153 4326 178 4326 428 
L 4326 1933 
z
" transform="scale(0.015625)"/>
       <path id="CMR17-70" d="M 1408 -1063 
C 998 -1063 973 -1037 973 -789 
L 973 402 
C 1158 134 1427 -38 1766 -38 
C 2406 -38 3053 523 3053 1388 
C 3053 2191 2496 2802 1837 2802 
C 1453 2802 1139 2592 960 2338 
L 960 2802 
L 198 2732 
L 198 2567 
C 576 2567 634 2528 634 2223 
L 634 -789 
C 634 -1031 608 -1063 198 -1063 
L 198 -1228 
C 352 -1216 634 -1216 800 -1216 
C 966 -1216 1254 -1216 1408 -1228 
L 1408 -1063 
z
M 973 2012 
C 973 2102 973 2235 1222 2471 
C 1254 2497 1472 2688 1792 2688 
C 2259 2688 2643 2108 2643 1382 
C 2643 656 2234 64 1728 64 
C 1498 64 1248 172 1056 472 
C 973 612 973 650 973 752 
L 973 2012 
z
" transform="scale(0.015625)"/>
       <path id="CMR17-73" d="M 1978 2697 
C 1978 2813 1971 2819 1933 2819 
C 1907 2819 1901 2813 1824 2717 
C 1805 2691 1747 2626 1728 2601 
C 1523 2819 1235 2819 1126 2819 
C 416 2819 160 2447 160 2076 
C 160 1498 813 1365 998 1325 
C 1402 1243 1542 1217 1677 1101 
C 1760 1025 1901 884 1901 654 
C 1901 384 1747 38 1158 38 
C 602 38 403 460 288 1021 
C 269 1110 269 1117 218 1117 
C 166 1117 160 1110 160 983 
L 160 63 
C 160 -51 166 -58 205 -58 
C 237 -58 243 -51 275 0 
C 314 57 410 211 448 276 
C 576 103 800 -64 1158 -64 
C 1792 -64 2131 283 2131 784 
C 2131 1112 1958 1285 1875 1362 
C 1683 1561 1459 1606 1190 1657 
C 838 1735 390 1825 390 2217 
C 390 2383 480 2737 1126 2737 
C 1811 2737 1850 2094 1862 1888 
C 1869 1856 1901 1849 1920 1849 
C 1978 1849 1978 1869 1978 1978 
L 1978 2697 
z
" transform="scale(0.015625)"/>
       <path id="CMR17-28" d="M 1958 -1561 
C 1958 -1555 1958 -1542 1939 -1523 
C 1645 -1224 858 -407 858 1581 
C 858 3569 1632 4379 1946 4697 
C 1946 4704 1958 4717 1958 4736 
C 1958 4755 1939 4768 1914 4768 
C 1843 4768 1299 4296 986 3594 
C 666 2887 576 2199 576 1588 
C 576 1128 621 351 1005 -471 
C 1312 -1135 1837 -1600 1914 -1600 
C 1946 -1600 1958 -1587 1958 -1561 
z
" transform="scale(0.015625)"/>
       <path id="CMR17-29" d="M 1683 1581 
C 1683 2040 1638 2817 1254 3639 
C 947 4303 422 4768 346 4768 
C 326 4768 301 4761 301 4729 
C 301 4717 307 4710 314 4697 
C 621 4378 1402 3568 1402 1584 
C 1402 -407 627 -1217 314 -1537 
C 307 -1549 301 -1556 301 -1568 
C 301 -1600 326 -1600 346 -1600 
C 416 -1600 960 -1128 1274 -426 
C 1594 281 1683 969 1683 1581 
z
" transform="scale(0.015625)"/>
      </defs>
      <use xlink:href="#CMR17-54" transform="scale(0.996264)"/>
      <use xlink:href="#CMR17-65" transform="translate(58.702625 0)scale(0.996264)"/>
      <use xlink:href="#CMR17-6d" transform="translate(99.188286 0)scale(0.996264)"/>
      <use xlink:href="#CMR17-70" transform="translate(176.107875 0)scale(0.996264)"/>
      <use xlink:href="#CMR17-73" transform="translate(227.003245 0)scale(0.996264)"/>
      <use xlink:href="#CMR17-28" transform="translate(292.880549 0)scale(0.996264)"/>
      <use xlink:href="#CMR17-73" transform="translate(328.161317 0)scale(0.996264)"/>
      <use xlink:href="#CMR17-29" transform="translate(363.962655 0)scale(0.996264)"/>
     </g>
    </g>
   </g>
   <g id="matplotlib.axis_2">
    <g id="ytick_1">
     <g id="line2d_7">
      <defs>
       <path id="m7ced101818" d="M 0 0 
L -3.5 0 
" style="stroke: #000000; stroke-width: 0.8"/>
      </defs>
      <g>
       <use xlink:href="#m7ced101818" x="57.6" y="293.467282" style="stroke: #000000; stroke-width: 0.8"/>
      </g>
     </g>
     <g id="text_8">
      <!-- $\mathdefault{0.00}$ -->
      <g transform="translate(32.888586 296.926531)scale(0.1 -0.1)">
       <defs>
        <path id="CMMI12-3a" d="M 1178 307 
C 1178 492 1024 619 870 619 
C 685 619 557 466 557 313 
C 557 128 710 0 864 0 
C 1050 0 1178 153 1178 307 
z
" transform="scale(0.015625)"/>
       </defs>
       <use xlink:href="#CMR17-30" transform="scale(0.996264)"/>
       <use xlink:href="#CMMI12-3a" transform="translate(45.690477 0)scale(0.996264)"/>
       <use xlink:href="#CMR17-30" transform="translate(72.787654 0)scale(0.996264)"/>
       <use xlink:href="#CMR17-30" transform="translate(118.478131 0)scale(0.996264)"/>
      </g>
     </g>
    </g>
    <g id="ytick_2">
     <g id="line2d_8">
      <g>
       <use xlink:href="#m7ced101818" x="57.6" y="259.220265" style="stroke: #000000; stroke-width: 0.8"/>
      </g>
     </g>
     <g id="text_9">
      <!-- $\mathdefault{0.25}$ -->
      <g transform="translate(32.888586 262.679514)scale(0.1 -0.1)">
       <use xlink:href="#CMR17-30" transform="scale(0.996264)"/>
       <use xlink:href="#CMMI12-3a" transform="translate(45.690477 0)scale(0.996264)"/>
       <use xlink:href="#CMR17-32" transform="translate(72.787654 0)scale(0.996264)"/>
       <use xlink:href="#CMR17-35" transform="translate(118.478131 0)scale(0.996264)"/>
      </g>
     </g>
    </g>
    <g id="ytick_3">
     <g id="line2d_9">
      <g>
       <use xlink:href="#m7ced101818" x="57.6" y="224.973248" style="stroke: #000000; stroke-width: 0.8"/>
      </g>
     </g>
     <g id="text_10">
      <!-- $\mathdefault{0.50}$ -->
      <g transform="translate(32.888586 228.432497)scale(0.1 -0.1)">
       <use xlink:href="#CMR17-30" transform="scale(0.996264)"/>
       <use xlink:href="#CMMI12-3a" transform="translate(45.690477 0)scale(0.996264)"/>
       <use xlink:href="#CMR17-35" transform="translate(72.787654 0)scale(0.996264)"/>
       <use xlink:href="#CMR17-30" transform="translate(118.478131 0)scale(0.996264)"/>
      </g>
     </g>
    </g>
    <g id="ytick_4">
     <g id="line2d_10">
      <g>
       <use xlink:href="#m7ced101818" x="57.6" y="190.726231" style="stroke: #000000; stroke-width: 0.8"/>
      </g>
     </g>
     <g id="text_11">
      <!-- $\mathdefault{0.75}$ -->
      <g transform="translate(32.888586 194.18548)scale(0.1 -0.1)">
       <defs>
        <path id="CMR17-37" d="M 2886 3941 
L 2886 4081 
L 1382 4081 
C 634 4081 621 4165 595 4288 
L 480 4288 
L 294 3094 
L 410 3094 
C 429 3215 474 3540 550 3661 
C 589 3712 1062 3712 1171 3712 
L 2579 3712 
L 1869 2661 
C 1395 1954 1069 999 1069 165 
C 1069 89 1069 -128 1299 -128 
C 1530 -128 1530 89 1530 171 
L 1530 465 
C 1530 1508 1709 2196 2003 2636 
L 2886 3941 
z
" transform="scale(0.015625)"/>
       </defs>
       <use xlink:href="#CMR17-30" transform="scale(0.996264)"/>
       <use xlink:href="#CMMI12-3a" transform="translate(45.690477 0)scale(0.996264)"/>
       <use xlink:href="#CMR17-37" transform="translate(72.787654 0)scale(0.996264)"/>
       <use xlink:href="#CMR17-35" transform="translate(118.478131 0)scale(0.996264)"/>
      </g>
     </g>
    </g>
    <g id="ytick_5">
     <g id="line2d_11">
      <g>
       <use xlink:href="#m7ced101818" x="57.6" y="156.479214" style="stroke: #000000; stroke-width: 0.8"/>
      </g>
     </g>
     <g id="text_12">
      <!-- $\mathdefault{1.00}$ -->
      <g transform="translate(32.888586 159.938463)scale(0.1 -0.1)">
       <use xlink:href="#CMR17-31" transform="scale(0.996264)"/>
       <use xlink:href="#CMMI12-3a" transform="translate(45.690477 0)scale(0.996264)"/>
       <use xlink:href="#CMR17-30" transform="translate(72.787654 0)scale(0.996264)"/>
       <use xlink:href="#CMR17-30" transform="translate(118.478131 0)scale(0.996264)"/>
      </g>
     </g>
    </g>
    <g id="ytick_6">
     <g id="line2d_12">
      <g>
       <use xlink:href="#m7ced101818" x="57.6" y="122.232197" style="stroke: #000000; stroke-width: 0.8"/>
      </g>
     </g>
     <g id="text_13">
      <!-- $\mathdefault{1.25}$ -->
      <g transform="translate(32.888586 125.691446)scale(0.1 -0.1)">
       <use xlink:href="#CMR17-31" transform="scale(0.996264)"/>
       <use xlink:href="#CMMI12-3a" transform="translate(45.690477 0)scale(0.996264)"/>
       <use xlink:href="#CMR17-32" transform="translate(72.787654 0)scale(0.996264)"/>
       <use xlink:href="#CMR17-35" transform="translate(118.478131 0)scale(0.996264)"/>
      </g>
     </g>
    </g>
    <g id="ytick_7">
     <g id="line2d_13">
      <g>
       <use xlink:href="#m7ced101818" x="57.6" y="87.98518" style="stroke: #000000; stroke-width: 0.8"/>
      </g>
     </g>
     <g id="text_14">
      <!-- $\mathdefault{1.50}$ -->
      <g transform="translate(32.888586 91.444429)scale(0.1 -0.1)">
       <use xlink:href="#CMR17-31" transform="scale(0.996264)"/>
       <use xlink:href="#CMMI12-3a" transform="translate(45.690477 0)scale(0.996264)"/>
       <use xlink:href="#CMR17-35" transform="translate(72.787654 0)scale(0.996264)"/>
       <use xlink:href="#CMR17-30" transform="translate(118.478131 0)scale(0.996264)"/>
      </g>
     </g>
    </g>
    <g id="ytick_8">
     <g id="line2d_14">
      <g>
       <use xlink:href="#m7ced101818" x="57.6" y="53.738163" style="stroke: #000000; stroke-width: 0.8"/>
      </g>
     </g>
     <g id="text_15">
      <!-- $\mathdefault{1.75}$ -->
      <g transform="translate(32.888586 57.197412)scale(0.1 -0.1)">
       <use xlink:href="#CMR17-31" transform="scale(0.996264)"/>
       <use xlink:href="#CMMI12-3a" transform="translate(45.690477 0)scale(0.996264)"/>
       <use xlink:href="#CMR17-37" transform="translate(72.787654 0)scale(0.996264)"/>
       <use xlink:href="#CMR17-35" transform="translate(118.478131 0)scale(0.996264)"/>
      </g>
     </g>
    </g>
    <g id="text_16">
     <!-- Tension (V) -->
     <g transform="translate(24.90353 215.322751)rotate(-90)scale(0.16 -0.16)">
      <defs>
       <path id="CMR17-6e" d="M 2656 1933 
C 2656 2259 2592 2790 1837 2790 
C 1331 2790 1069 2400 973 2144 
L 966 2144 
L 966 2790 
L 211 2720 
L 211 2554 
C 589 2554 646 2515 646 2208 
L 646 428 
C 646 184 621 153 211 153 
L 211 -13 
C 365 0 646 0 813 0 
C 979 0 1267 0 1421 -13 
L 1421 153 
C 1011 153 986 178 986 428 
L 986 1658 
C 986 2247 1344 2688 1792 2688 
C 2266 2688 2317 2266 2317 1958 
L 2317 428 
C 2317 184 2291 153 1882 153 
L 1882 -13 
C 2035 0 2317 0 2483 0 
C 2650 0 2938 0 3091 -13 
L 3091 153 
C 2682 153 2656 178 2656 428 
L 2656 1933 
z
" transform="scale(0.015625)"/>
       <path id="CMR17-69" d="M 992 3909 
C 992 4049 877 4170 730 4170 
C 589 4170 467 4056 467 3909 
C 467 3769 582 3648 730 3648 
C 870 3648 992 3763 992 3909 
z
M 243 2706 
L 243 2541 
C 602 2541 653 2502 653 2197 
L 653 427 
C 653 184 627 153 218 153 
L 218 -13 
C 371 0 646 0 806 0 
C 960 0 1222 0 1370 -13 
L 1370 153 
C 992 153 979 191 979 420 
L 979 2776 
L 243 2706 
z
" transform="scale(0.015625)"/>
       <path id="CMR17-6f" d="M 2758 1356 
C 2758 2176 2163 2816 1466 2816 
C 768 2816 173 2176 173 1356 
C 173 551 768 -64 1466 -64 
C 2163 -64 2758 551 2758 1356 
z
M 1466 51 
C 1165 51 909 230 762 480 
C 602 767 582 1126 582 1408 
C 582 1677 595 2010 762 2298 
C 890 2509 1139 2714 1466 2714 
C 1754 2714 1997 2554 2150 2330 
C 2349 2029 2349 1607 2349 1408 
C 2349 1158 2336 775 2163 467 
C 1984 173 1709 51 1466 51 
z
" transform="scale(0.015625)"/>
       <path id="CMR17-56" d="M 3776 3745 
C 3834 3886 3936 4160 4365 4160 
L 4365 4332 
C 4218 4319 4051 4319 3891 4319 
C 3738 4319 3475 4319 3328 4332 
L 3328 4160 
C 3648 4160 3661 3936 3661 3898 
C 3661 3827 3642 3783 3622 3732 
L 2362 446 
L 1043 3886 
C 1024 3931 1011 3963 1011 3994 
C 1011 4160 1267 4160 1402 4160 
L 1402 4319 
C 1197 4319 896 4319 685 4319 
C 518 4319 218 4319 64 4332 
L 64 4160 
C 435 4160 506 4135 582 3931 
L 2106 -26 
C 2138 -115 2144 -128 2214 -128 
C 2285 -128 2291 -115 2323 -26 
L 3776 3745 
z
" transform="scale(0.015625)"/>
      </defs>
      <use xlink:href="#CMR17-54" transform="scale(0.996264)"/>
      <use xlink:href="#CMR17-65" transform="translate(58.702625 0)scale(0.996264)"/>
      <use xlink:href="#CMR17-6e" transform="translate(99.188286 0)scale(0.996264)"/>
      <use xlink:href="#CMR17-73" transform="translate(150.083655 0)scale(0.996264)"/>
      <use xlink:href="#CMR17-69" transform="translate(185.884993 0)scale(0.996264)"/>
      <use xlink:href="#CMR17-6f" transform="translate(210.756052 0)scale(0.996264)"/>
      <use xlink:href="#CMR17-6e" transform="translate(256.446529 0)scale(0.996264)"/>
      <use xlink:href="#CMR17-28" transform="translate(337.417865 0)scale(0.996264)"/>
      <use xlink:href="#CMR17-56" transform="translate(372.698633 0)scale(0.996264)"/>
      <use xlink:href="#CMR17-29" transform="translate(441.771062 0)scale(0.996264)"/>
     </g>
    </g>
   </g>
   <g id="line2d_15">
    <path d="M 73.832727 294.869924 
L 73.940539 294.697263 
L 73.986415 295.012557 
L 74.138959 294.584658 
L 74.214953 295.15519 
L 74.368643 294.442026 
L 74.44434 295.012557 
L 74.521185 294.584658 
L 74.597446 294.727291 
L 74.674291 295.012557 
L 74.82683 294.727291 
L 74.903674 294.971805 
L 74.980519 294.537114 
L 75.133061 295.012557 
L 75.285601 294.727291 
L 75.362444 295.297823 
L 75.514987 294.727291 
L 75.59128 295.012557 
L 75.744967 294.410329 
L 75.820667 295.15519 
L 75.897511 295.012557 
L 75.974353 294.584658 
L 76.05005 295.488 
L 76.093637 294.946726 
L 76.164999 295.15519 
L 76.31754 294.727291 
L 76.394386 295.012557 
L 76.471234 294.584658 
L 76.624231 294.869924 
L 76.699929 294.841398 
L 76.777357 294.537114 
L 76.929899 294.917468 
L 77.005596 294.442026 
L 77.082446 295.15519 
L 77.236141 294.584658 
L 77.312119 295.012557 
L 77.388965 294.442026 
L 77.541555 295.012557 
L 77.618399 294.584658 
L 77.771312 295.297823 
L 77.92386 294.790684 
L 78.000321 295.012557 
L 78.152863 294.727291 
L 78.306552 294.727291 
L 78.346696 295.122275 
L 78.421244 295.012557 
L 78.496941 294.727291 
L 78.573785 295.15519 
L 78.803171 294.482778 
L 78.880016 294.971805 
L 78.955712 294.808796 
L 79.109401 294.869924 
L 79.185098 294.727291 
L 79.261942 295.122275 
L 79.337988 295.012557 
L 79.414831 294.584658 
L 79.567374 294.869924 
L 79.644216 294.442026 
L 79.721062 295.012557 
L 79.873603 294.442026 
L 80.026143 294.946726 
L 80.102987 294.299393 
L 80.179836 294.869924 
L 80.332374 294.442026 
L 80.484916 294.993539 
L 80.561759 294.15676 
L 80.714301 294.727291 
L 80.791144 294.15676 
L 80.943931 294.727291 
L 81.020201 294.299393 
L 81.097046 294.869924 
L 81.249589 294.15676 
L 81.402543 294.689256 
L 81.478828 294.15676 
L 81.555671 294.584658 
L 81.632515 293.966583 
L 81.708358 294.089638 
L 81.785202 294.675425 
L 81.937746 294.15676 
L 82.014591 294.727291 
L 82.167132 294.15676 
L 82.243977 294.244534 
L 82.320673 294.59563 
L 82.396524 294.442026 
L 82.473636 294.584658 
L 82.62618 294.15676 
L 82.703022 294.537114 
L 82.778719 294.420082 
L 82.855563 294.346937 
L 82.93241 294.584658 
L 83.084949 294.299393 
L 83.161793 294.244534 
L 83.391178 294.727291 
L 83.466877 294.584658 
L 83.54372 294.15676 
L 83.620566 294.232831 
L 83.773108 295.090357 
L 83.849953 293.893438 
L 83.925648 294.15676 
L 84.002803 294.442026 
L 84.0785 294.420082 
L 84.155346 294.442026 
L 84.232188 294.299393 
L 84.307886 294.689256 
L 84.461574 294.299393 
L 84.537272 294.59563 
L 84.614117 294.442026 
L 84.69096 294.584658 
L 84.766657 294.442026 
L 84.843602 293.830742 
L 84.996142 294.299393 
L 85.072985 294.420082 
L 85.225528 294.319769 
L 85.302373 294.442026 
L 85.454922 293.830742 
L 85.53176 294.442026 
L 85.608392 294.299393 
L 85.684089 294.299393 
L 85.913476 294.808796 
L 86.067163 294.15676 
L 86.142862 294.319769 
L 86.219706 293.871494 
L 86.296551 294.014127 
L 86.372246 293.728861 
L 86.449092 293.830742 
L 86.601633 293.472122 
L 86.678478 293.776405 
L 86.83102 293.443595 
L 86.907864 293.624264 
L 87.060406 293.300962 
L 87.137186 293.366793 
L 87.290874 293.15833 
L 87.366572 293.015697 
L 87.443422 293.366793 
L 87.519111 292.873064 
L 87.595958 293.776405 
L 87.637245 292.82552 
L 87.71065 293.15833 
L 87.787492 292.587798 
L 87.86319 292.689679 
L 87.940036 293.015697 
L 88.016878 292.587798 
L 88.092575 292.689679 
L 88.16942 293.015697 
L 88.321967 292.445165 
L 88.551347 291.874634 
L 88.628193 292.302532 
L 88.781175 291.446735 
L 88.858021 292.017266 
L 88.933718 291.589368 
L 89.010561 292.064811 
L 89.087405 291.874634 
L 89.163102 291.342138 
L 89.239946 291.874634 
L 89.316794 291.589368 
L 89.392492 290.558022 
L 89.546181 291.222598 
L 89.698721 290.876203 
L 89.775565 291.161469 
L 89.928106 290.020406 
L 90.004952 290.733571 
L 90.157493 290.244544 
L 90.234339 290.305672 
L 90.386878 289.592507 
L 90.463723 290.020406 
L 90.616264 289.449875 
L 90.693107 289.877773 
L 90.845649 289.164609 
L 91.113602 289.429498 
L 91.189299 288.73671 
L 91.266143 289.164609 
L 91.342986 288.594077 
L 91.418683 288.940471 
L 91.495528 288.879343 
L 91.648069 288.166179 
L 91.724914 288.451444 
L 91.801914 288.451444 
L 91.877615 288.166179 
L 91.954458 288.308812 
L 92.0313 288.308812 
L 92.106997 287.595647 
L 92.183843 288.023546 
L 92.260687 287.595647 
L 92.336385 287.690736 
L 92.413229 288.166179 
L 92.565768 287.025116 
L 92.642614 287.453014 
L 92.719459 287.310381 
L 92.795154 286.597217 
L 92.871999 287.167748 
L 93.024541 286.311951 
L 93.101385 287.025116 
L 93.178228 286.73985 
L 93.253925 286.454584 
L 93.330771 287.62158 
L 93.468402 286.169318 
L 93.536069 286.769878 
L 93.603741 286.676457 
L 93.674849 285.818222 
L 93.751693 286.454584 
L 93.827389 285.517282 
L 93.981078 286.73985 
L 94.056775 285.40861 
L 94.133621 286.32146 
L 94.210462 286.017177 
L 94.286161 285.517282 
L 94.363006 285.99377 
L 94.515547 285.354273 
L 94.592393 286.026685 
L 94.669235 285.8433 
L 94.744933 285.191264 
L 94.821777 285.884052 
L 94.898619 285.8433 
L 94.974317 284.865246 
L 95.051163 285.170888 
L 95.128006 285.104326 
L 95.203703 284.838078 
L 95.280548 285.517282 
L 95.357391 285.104326 
L 95.433214 284.039334 
L 95.51006 284.952184 
L 95.585755 284.800043 
L 95.6626 284.050201 
L 95.739444 284.647901 
L 95.815143 284.539228 
L 95.891986 284.039334 
L 95.968831 284.495759 
L 96.044527 284.343617 
L 96.121371 283.887192 
L 96.198217 284.238288 
L 96.350757 283.724183 
L 96.427601 284.343617 
L 96.503299 284.21321 
L 96.580142 283.724183 
L 96.732683 284.191476 
L 96.809528 283.697015 
L 96.886374 284.050201 
L 96.962069 283.009451 
L 97.038914 283.184999 
L 97.115759 283.711644 
L 97.268299 282.420111 
L 97.345145 283.072147 
L 97.497685 281.780614 
L 97.612378 282.679008 
L 97.689224 282.482807 
L 97.803916 282.31823 
L 97.879611 281.605066 
L 97.956456 281.780614 
L 98.033301 281.956162 
L 98.185843 281.780614 
L 98.300534 281.757208 
L 98.453075 281.605066 
L 98.567769 281.890332 
L 98.644612 281.078421 
L 98.721456 281.605066 
L 98.911849 281.605066 
L 98.988691 280.982668 
L 99.065537 281.414889 
L 99.141233 281.078421 
L 99.218076 281.224712 
L 99.294923 281.224712 
L 99.370618 280.273826 
L 99.447464 281.414889 
L 99.600003 280.551777 
L 99.676848 281.224712 
L 99.906235 279.132763 
L 99.983079 281.190134 
L 100.058775 280.273826 
L 100.135619 279.530406 
L 100.212465 280.36027 
L 100.288163 280.137985 
L 100.479699 279.115474 
L 100.63224 279.849584 
L 100.709083 278.942585 
L 100.785929 279.132763 
L 100.861625 279.132763 
L 100.938468 278.700542 
L 101.015314 278.942585 
L 101.244831 277.801522 
L 101.320526 277.9917 
L 101.39737 277.421168 
L 101.474215 277.611345 
L 101.549912 277.421168 
L 101.626757 276.850637 
L 101.779298 277.801522 
L 101.856142 277.040814 
L 102.008684 277.611345 
L 102.085527 276.470282 
L 102.237941 277.040814 
L 102.314785 276.470282 
L 102.39163 277.421168 
L 102.54417 276.280105 
L 102.658866 276.898181 
L 102.735391 276.850637 
L 102.811672 276.660459 
L 102.888517 275.329219 
L 102.964215 276.625882 
L 103.041058 276.514169 
L 103.117904 275.519396 
L 103.193601 276.850637 
L 103.347289 275.285332 
L 103.499829 276.089928 
L 103.576675 274.948865 
L 103.652372 275.899751 
L 103.729216 275.709573 
L 103.806059 275.139042 
L 103.958602 275.519396 
L 104.073293 275.671538 
L 104.150137 274.56851 
L 104.225836 275.139042 
L 104.379561 274.188156 
L 104.455261 275.139042 
L 104.608948 273.807802 
L 104.684646 274.378333 
L 104.838334 273.807802 
L 104.91403 274.378333 
L 105.06772 273.807802 
L 105.143419 274.378333 
L 105.297105 273.427447 
L 105.602188 274.188156 
L 105.755875 273.617624 
L 105.831574 273.997979 
L 105.984398 273.427447 
L 106.061243 274.188156 
L 106.138085 273.427447 
L 106.21493 273.513891 
L 106.290629 273.997979 
L 106.557863 272.856916 
L 106.634706 273.807802 
L 106.787248 272.856916 
L 106.864093 273.807802 
L 107.016633 273.047093 
L 107.093478 273.617624 
L 107.170322 273.23727 
L 107.285014 273.541554 
L 107.360711 272.286384 
L 107.629371 273.23727 
L 107.705067 272.476561 
L 107.858756 272.856916 
L 107.934453 272.096207 
L 108.011298 272.476561 
L 108.125992 271.987534 
L 108.202834 272.286384 
L 108.278531 271.90603 
L 108.355376 272.476561 
L 108.432221 272.286384 
L 108.507917 272.096207 
L 108.584761 272.286384 
L 108.737304 271.335498 
L 108.814149 272.286384 
L 108.890992 271.90603 
L 108.966688 271.145321 
L 109.081218 271.335498 
L 109.234905 271.715853 
L 109.310605 270.955144 
L 109.387448 271.525676 
L 109.539988 270.764967 
L 109.693676 271.335498 
L 109.769375 270.764967 
L 109.846218 271.231765 
L 109.923062 271.145321 
L 109.998761 270.609367 
L 110.152447 271.145321 
L 110.304787 270.57479 
L 110.381631 270.955144 
L 110.458474 270.194435 
L 110.611017 270.57479 
L 110.686713 270.004258 
L 110.878251 270.384612 
L 110.992944 270.194435 
L 111.069787 269.814081 
L 111.146631 270.004258 
L 111.22233 270.57479 
L 111.376018 269.814081 
L 111.541853 269.37939 
L 111.611816 269.542399 
L 111.696691 269.37939 
L 111.764358 269.542399 
L 111.83432 268.482841 
L 111.911165 269.779503 
L 111.986861 269.243549 
L 112.063705 268.673018 
L 112.13991 269.053372 
L 112.407145 268.292663 
L 112.483987 268.863195 
L 112.636529 267.722132 
L 112.790217 268.482841 
L 112.865914 268.102486 
L 112.94276 268.673018 
L 113.057451 267.769676 
L 113.134295 268.292663 
L 113.209993 267.722132 
L 113.286839 267.912309 
L 113.363681 268.102486 
L 113.439378 267.531955 
L 113.516224 268.102486 
L 113.668764 267.722132 
L 113.745444 267.704843 
L 113.822287 267.497377 
L 113.899131 267.561213 
L 113.97483 267.531955 
L 114.089523 267.341778 
L 114.166366 267.722132 
L 114.243211 267.341778 
L 114.318908 267.531955 
L 114.472595 266.961423 
L 114.548294 267.531955 
L 114.625137 267.289911 
L 114.701981 266.961423 
L 114.854524 267.341778 
L 114.931366 266.581069 
L 115.083911 267.1516 
L 115.160752 266.874979 
L 115.236451 267.1516 
L 115.542909 266.581069 
L 115.618608 266.581069 
L 115.695453 266.771246 
L 115.810145 266.628613 
L 115.886988 266.771246 
L 115.962685 266.390892 
L 116.116374 266.581069 
L 116.421456 265.82036 
L 116.498301 266.390892 
L 116.575144 266.200715 
L 116.650843 266.200715 
L 116.80453 265.82036 
L 116.957374 265.630183 
L 117.033073 265.82036 
L 117.109916 265.630183 
L 117.262458 265.82036 
L 117.339302 265.440006 
L 117.491842 265.82036 
L 117.760223 265.249829 
L 117.835924 265.249829 
L 118.218996 264.298943 
L 118.294693 264.869474 
L 118.372091 264.298943 
L 118.447789 264.679297 
L 118.677175 263.918588 
L 118.754017 264.298943 
L 118.90656 263.728411 
L 118.983403 263.918588 
L 119.135946 263.538234 
L 119.212789 263.918588 
L 119.365332 263.348057 
L 119.519019 263.728411 
L 119.595255 262.967702 
L 119.670953 263.538234 
L 119.824641 262.967702 
L 119.90034 263.348057 
L 120.168717 262.587348 
L 120.244415 263.15788 
L 120.398105 262.587348 
L 120.474898 262.967702 
L 120.627438 262.397171 
L 120.703137 262.587348 
L 120.779982 262.206994 
L 121.009366 262.206994 
L 121.086212 261.636462 
L 121.163054 262.206994 
L 121.238751 261.636462 
L 121.315597 261.826639 
L 121.430291 261.636462 
L 121.506951 261.826639 
L 121.659492 261.446285 
L 121.851025 261.636462 
L 122.003568 261.256108 
L 122.080412 261.636462 
L 122.195103 261.065931 
L 122.270803 261.256108 
L 122.348032 261.065931 
L 122.423728 261.688329 
L 122.500576 260.650999 
L 122.577417 260.875754 
L 122.69211 261.636462 
L 122.767807 260.638032 
L 122.84465 260.685576 
L 122.997192 260.875754 
L 123.073636 260.305222 
L 123.265174 260.363738 
L 123.342016 260.685576 
L 123.417713 260.236067 
L 123.494559 260.363738 
L 123.571402 260.495399 
L 123.723945 260.305222 
L 123.876485 260.305222 
L 123.991177 260.495399 
L 124.297612 259.73469 
L 124.450151 260.115045 
L 124.526997 259.73469 
L 124.679531 259.924868 
L 124.756376 259.544513 
L 124.832072 259.924868 
L 124.985762 258.973982 
L 125.062605 259.354336 
L 125.215148 258.973982 
L 125.405745 259.211703 
L 125.559433 258.593627 
L 125.635129 259.354336 
L 125.711976 258.973982 
L 125.826669 259.06907 
L 125.903516 258.576339 
L 125.979211 258.959353 
L 126.170747 258.973982 
L 126.247359 258.40345 
L 126.437759 258.783805 
L 126.591783 258.023096 
L 126.667478 258.783805 
L 126.744323 258.593627 
L 126.821168 257.832919 
L 126.896867 258.593627 
L 127.011557 258.07064 
L 127.088402 258.40345 
L 127.165245 257.832919 
L 127.240942 258.40345 
L 127.317788 257.746474 
L 127.394632 258.023096 
L 127.470329 258.40345 
L 127.547172 258.023096 
L 127.661865 258.355906 
L 127.73871 257.642741 
L 127.814348 258.368873 
L 127.92904 257.566671 
L 128.005883 257.642741 
L 128.082555 257.452564 
L 128.158251 258.023096 
L 128.235096 257.262387 
L 128.387636 258.081612 
L 128.541326 257.07221 
L 128.656019 256.958104 
L 128.808928 257.262387 
L 128.884625 257.262387 
L 128.96147 257.07221 
L 129.038313 256.501678 
L 129.228704 256.709144 
L 129.305548 256.501678 
L 129.382393 256.882033 
L 129.458091 256.501678 
L 129.611777 256.882033 
L 129.687476 256.121324 
L 129.764319 256.882033 
L 130.031555 255.74097 
L 130.108398 256.691856 
L 130.26094 254.980261 
L 130.337783 256.121324 
L 130.414627 255.931147 
L 130.529319 255.788514 
L 130.605017 255.170438 
L 130.681862 255.550793 
L 130.950046 254.219552 
L 131.025743 255.360615 
L 131.217293 254.504818 
L 131.331993 254.504818 
L 131.446691 254.076919 
L 131.676073 254.409729 
L 131.751776 253.839198 
L 131.82862 254.409729 
L 131.982309 253.458844 
L 132.058006 254.029375 
L 132.134841 253.649021 
L 132.211693 252.698135 
L 132.287389 253.839198 
L 132.439946 252.507958 
L 132.516789 253.649021 
L 132.593641 252.698135 
L 132.708311 253.078489 
L 132.785163 252.127603 
L 132.860859 253.268666 
L 133.014426 252.127603 
L 133.090121 252.888312 
L 133.319632 251.937426 
L 133.396477 251.937426 
L 133.472192 251.366895 
L 133.549037 251.557072 
L 133.625887 251.937426 
L 133.701593 250.035654 
L 133.778438 251.557072 
L 133.855281 251.366895 
L 133.931339 250.035654 
L 134.083887 251.176717 
L 134.16074 250.035654 
L 134.237583 250.98654 
L 134.428728 250.070232 
L 134.504434 249.940566 
L 134.658116 250.225832 
L 134.810656 249.465123 
L 134.887501 249.845477 
L 134.963197 249.274946 
L 135.040042 249.465123 
L 135.154735 249.862766 
L 135.307278 248.704414 
L 135.460964 249.845477 
L 135.536661 248.514237 
L 135.613908 248.894591 
L 135.689605 249.084768 
L 135.76645 247.943705 
L 135.91899 249.084768 
L 135.995836 248.133883 
L 136.072679 248.894591 
L 136.339914 247.563351 
L 136.416758 248.514237 
L 136.569297 247.373174 
L 136.646142 248.514237 
L 136.721839 247.943705 
L 136.798685 248.203038 
L 136.875528 248.075367 
L 136.951226 247.373174 
L 137.104913 248.32406 
L 137.181466 247.165708 
L 137.257766 247.943705 
L 137.333464 247.182997 
L 137.410309 247.753528 
L 137.487154 246.802642 
L 137.56285 247.373174 
L 137.639694 247.182997 
L 137.716539 246.422288 
L 137.792236 247.182997 
L 137.945926 246.041934 
L 138.021621 246.802642 
L 138.17531 245.851756 
L 138.251919 246.612465 
L 138.481328 245.804212 
L 138.557026 246.232111 
L 138.633871 246.041934 
L 138.710411 246.041934 
L 138.977949 245.281225 
L 139.054791 245.661579 
L 139.130488 245.281225 
L 139.207333 245.471402 
L 139.284178 245.281225 
L 139.359875 245.471402 
L 139.589261 244.900871 
L 139.666588 245.091048 
L 139.818568 244.900871 
L 139.895413 244.900871 
L 139.972256 244.676116 
L 140.047954 244.9155 
L 140.124802 244.140162 
L 140.278276 244.710693 
L 140.431112 244.140162 
L 140.545801 244.377883 
L 140.927728 242.999099 
L 141.004571 243.189276 
L 141.08027 243.189276 
L 141.348647 242.808922 
L 141.424344 242.999099 
L 141.501197 242.23839 
L 141.578041 242.428567 
L 141.653749 242.618744 
L 141.807421 242.39399 
L 141.883116 242.633373 
L 142.266191 241.771592 
L 142.341888 242.106729 
L 142.495581 241.477681 
L 142.571276 241.667858 
L 142.648123 241.477681 
L 142.724967 240.90715 
L 142.800813 241.287504 
L 143.06904 240.90715 
L 143.144736 241.097327 
L 143.298428 240.526795 
L 143.374126 241.097327 
L 143.450973 240.146441 
L 143.527817 240.336618 
L 143.603512 240.716973 
L 143.757198 240.336618 
L 143.8329 240.526795 
L 143.909742 240.146441 
L 144.062287 240.526795 
L 144.215975 239.766087 
L 144.291674 240.111863 
L 144.368525 239.473506 
L 144.44536 239.57591 
L 144.521057 240.146441 
L 144.597906 239.281999 
L 144.674741 239.57591 
L 145.018556 238.815201 
L 145.094519 239.005378 
L 145.248208 238.244669 
L 145.323904 238.815201 
L 145.47735 238.054492 
L 145.553292 238.625024 
L 145.630145 238.434846 
L 145.70698 238.054492 
L 145.782675 238.434846 
L 145.85952 238.054492 
L 145.974213 238.102036 
L 146.051055 237.864315 
L 146.126754 238.434846 
L 146.280441 237.864315 
L 146.356147 238.244669 
L 146.509829 237.864315 
L 146.585527 238.054492 
L 146.739222 237.674138 
L 146.814911 237.864315 
L 146.9686 237.293783 
L 147.044297 237.864315 
L 147.197984 237.103606 
L 147.273682 237.483961 
L 147.427372 236.913429 
L 147.503071 237.103606 
L 147.809308 236.377475 
L 147.923992 236.675708 
L 148.000746 236.342898 
L 148.076535 236.723252 
L 148.230222 236.15272 
L 148.305919 236.533075 
L 148.459615 235.962543 
L 148.574305 236.105176 
L 148.650004 236.342898 
L 148.918378 235.772366 
L 148.994076 235.962543 
L 149.185616 235.392012 
L 149.262456 235.392012 
L 149.338153 235.582189 
L 149.491842 235.011657 
L 149.567539 235.582189 
L 149.644674 235.392012 
L 149.835062 234.745409 
L 149.988759 235.201834 
L 150.064448 234.441126 
L 150.141293 235.011657 
L 150.294691 233.870594 
L 150.447234 234.631303 
L 150.524077 234.060771 
L 150.63877 234.393581 
L 150.906013 233.680417 
L 150.982855 233.870594 
L 151.058556 234.060771 
L 151.173245 233.965683 
L 151.364712 233.680417 
L 151.441555 233.680417 
L 151.785635 233.109885 
L 151.861334 233.49024 
L 152.01502 232.627128 
L 152.090717 233.265485 
L 152.244405 232.349177 
L 152.320103 232.729531 
L 152.396948 232.539354 
L 152.473792 231.968822 
L 152.549488 232.539354 
L 152.626334 232.349177 
L 152.703176 231.778645 
L 152.778875 232.539354 
L 152.932562 231.778645 
L 153.00826 232.159 
L 153.085105 231.968822 
L 153.161948 232.020689 
L 153.237645 232.100484 
L 153.352338 231.398291 
L 153.543876 231.778645 
L 153.62072 231.398291 
L 153.811109 232.020689 
L 153.964269 231.208114 
L 154.041112 231.398291 
L 154.231503 231.208114 
L 154.30835 230.447405 
L 154.384988 231.208114 
L 154.461834 231.017937 
L 154.537529 230.447405 
L 154.614373 231.398291 
L 154.766915 230.257228 
L 154.843758 230.827759 
L 154.920603 230.637582 
L 154.9963 230.257228 
L 155.073145 230.827759 
L 155.149989 230.637582 
L 155.225686 229.116165 
L 155.302531 230.447405 
L 155.455073 228.73581 
L 155.531916 230.067051 
L 155.723048 228.493767 
L 155.875589 229.686696 
L 155.990739 228.973532 
L 156.104991 229.279174 
L 156.257703 228.545633 
L 156.33436 229.686696 
L 156.488048 227.975102 
L 156.563746 229.116165 
L 156.839386 228.138111 
L 156.908321 228.73581 
L 157.061336 227.594747 
L 157.137033 228.355456 
L 157.290723 227.594747 
L 157.481935 228.507598 
L 157.634477 227.40457 
L 157.711321 228.355456 
L 157.787019 227.456437 
L 157.863864 227.784924 
L 157.940707 228.355456 
L 158.207942 227.594747 
L 158.284785 228.355456 
L 158.475176 227.547203 
L 158.552021 227.40457 
L 158.628864 227.784924 
L 158.704561 227.594747 
L 158.781405 226.453684 
L 158.933952 227.594747 
L 159.010791 226.07333 
L 159.087636 227.40457 
L 159.163332 227.214393 
L 159.240176 226.07333 
L 159.317021 227.40457 
L 159.469562 225.692976 
L 159.546407 226.834039 
L 159.622146 226.453684 
L 159.698991 225.692976 
L 159.775835 226.834039 
L 159.928376 225.502798 
L 160.005221 227.024216 
L 160.157761 224.932267 
L 160.234607 225.883153 
L 160.310303 225.502798 
L 160.387147 224.551912 
L 160.463992 225.692976 
L 160.616592 224.388903 
L 160.693437 225.502798 
L 160.845979 223.981381 
L 160.922822 224.361735 
L 161.037514 223.981381 
L 161.113212 224.361735 
L 161.261169 224.033247 
L 161.395357 223.410849 
L 161.461878 223.899876 
L 161.537582 223.084831 
L 161.610979 223.929514 
L 161.686675 223.674172 
L 161.777286 222.921822 
L 161.851834 223.24784 
L 161.924092 223.084831 
L 161.994053 222.921822 
L 162.06975 223.030495 
L 162.18334 222.269786 
L 162.260187 222.982951 
L 162.392083 222.684718 
L 162.502188 222.788451 
L 162.634082 223.09965 
L 162.882264 221.751121 
L 163.078388 222.373519 
L 163.261895 221.128723 
L 163.351358 222.106777 
L 163.52798 220.802705 
L 163.609413 220.802705 
L 163.695432 220.965714 
L 163.787196 220.639696 
L 163.868621 220.817524 
L 163.94661 220.639696 
L 164.018868 220.938546 
L 164.11865 220.150669 
L 164.202374 220.313678 
L 164.280366 220.476687 
L 164.427173 220.150669 
L 164.497135 220.476687 
L 164.635915 219.661642 
L 164.707023 220.177837 
L 165.015548 219.009606 
L 165.193322 218.998739 
L 165.267871 218.683588 
L 165.354429 219.009606 
L 165.699652 218.35757 
L 165.895711 218.535398 
L 166.128536 218.431665 
L 166.276495 218.520579 
L 166.360218 218.194561 
L 166.520032 218.520579 
L 166.593435 218.35757 
L 166.672572 218.520579 
L 166.754003 218.031552 
L 166.917923 218.520579 
L 166.987885 217.868543 
L 167.0567 218.031552 
L 167.128957 218.35757 
L 167.287232 218.031552 
L 167.373251 218.194561 
L 167.442067 217.868543 
L 167.512034 218.031552 
L 167.65425 217.542525 
L 167.842346 217.9908 
L 167.918044 218.085888 
L 168.160045 217.053498 
L 168.225421 217.379516 
L 168.301118 216.944825 
L 168.463977 217.216507 
L 168.968626 216.401462 
L 169.068412 216.460738 
L 169.223245 216.031975 
L 169.371398 216.4884 
L 169.597343 215.912435 
L 169.736124 216.260187 
L 169.961748 216.045806 
L 170.202602 215.586417 
L 170.277153 215.586417 
L 170.34482 215.749426 
L 170.414784 215.09739 
L 170.565029 215.119124 
L 170.640728 214.934381 
L 170.712984 215.260399 
L 170.78524 215.233231 
L 170.938927 214.852876 
L 171.014625 215.043054 
L 171.091475 214.852876 
L 171.168314 214.282345 
L 171.244012 215.043054 
L 171.397701 214.092168 
L 171.473396 214.472522 
L 171.550607 213.76368 
L 171.664738 214.139712 
L 171.741581 213.711813 
L 171.817508 214.282345 
L 171.894354 214.092168 
L 171.971209 213.521636 
L 172.046907 214.092168 
L 172.123752 213.90199 
L 172.200606 213.331459 
L 172.353154 213.90199 
L 172.544694 213.331459 
L 172.620401 213.711813 
L 172.774102 212.951105 
L 172.849801 213.521636 
L 173.003503 212.57075 
L 173.156293 212.951105 
L 173.232588 212.57075 
L 173.30943 212.760927 
L 173.576663 212.000219 
L 173.65351 212.760927 
L 173.806224 211.810041 
L 173.920918 212.652255 
L 174.150305 211.619864 
L 174.226424 212.380573 
L 174.378964 211.429687 
L 174.455809 212.000219 
L 174.532655 211.810041 
L 174.60885 211.23951 
L 174.685707 211.810041 
L 174.76141 211.619864 
L 174.83825 211.23951 
L 174.915095 211.810041 
L 175.067635 211.049333 
L 175.144482 211.619864 
L 175.301783 211.022165 
L 175.449737 211.619864 
L 175.526578 210.859156 
L 175.602275 211.049333 
L 175.679122 211.049333 
L 175.755966 210.478801 
L 175.83166 211.049333 
L 175.946901 211.011297 
L 176.099443 210.478801 
L 176.252677 210.668978 
L 176.328961 210.288624 
L 176.48265 210.478801 
L 176.558212 210.098447 
L 176.635064 210.668978 
L 176.71191 210.478801 
L 176.787596 210.098447 
L 176.864443 210.668978 
L 177.016981 210.288624 
L 177.093827 210.288624 
L 177.170671 209.718093 
L 177.284904 210.288624 
L 177.361751 209.527915 
L 177.476442 210.57389 
L 177.628983 209.527915 
L 177.705827 209.337738 
L 177.781524 209.90827 
L 177.858835 209.718093 
L 177.934531 208.957384 
L 178.011374 209.821826 
L 178.126066 209.57546 
L 178.27861 208.957384 
L 178.355453 209.718093 
L 178.507993 208.957384 
L 178.58484 209.718093 
L 178.699532 209.004928 
L 178.814225 209.290194 
L 178.966767 208.957384 
L 179.043608 209.527915 
L 179.196151 208.767207 
L 179.272996 209.147561 
L 179.425366 208.386852 
L 179.579056 208.957384 
L 179.654752 208.386852 
L 179.731597 208.577029 
L 179.884137 208.006498 
L 179.960983 208.577029 
L 180.037731 208.386852 
L 180.114575 208.006498 
L 180.190271 208.577029 
L 180.34396 207.816321 
L 180.419659 208.386852 
L 180.573344 207.816321 
L 180.649044 208.196675 
L 180.725888 207.626144 
L 180.80273 207.816321 
L 180.878429 208.006498 
L 181.032035 207.245789 
L 181.146726 207.816321 
L 181.299269 207.245789 
L 181.376112 206.865435 
L 181.528654 207.245789 
L 181.643347 207.150701 
L 181.72019 206.294903 
L 181.834885 206.751329 
L 181.91058 206.675258 
L 182.06427 206.104726 
L 182.216811 206.675258 
L 182.293654 206.104726 
L 182.369351 206.48508 
L 182.522268 206.104726 
L 182.599114 206.294903 
L 182.751653 205.914549 
L 182.828499 206.294903 
L 182.981039 205.534195 
L 183.057883 206.104726 
L 183.210425 205.344017 
L 183.401963 206.087437 
L 183.555358 205.344017 
L 183.631056 205.724372 
L 183.783596 205.344017 
L 183.937286 205.344017 
L 184.014128 204.773486 
L 184.089672 205.465039 
L 184.204367 204.827822 
L 184.281212 205.316849 
L 184.358057 204.583309 
L 184.433751 205.344017 
L 184.58744 204.202954 
L 184.663136 204.773486 
L 184.739982 204.583309 
L 184.816831 204.012777 
L 184.892524 204.583309 
L 185.084061 204.202954 
L 185.2366 204.188325 
L 185.313446 204.012777 
L 185.390291 203.390379 
L 185.465988 204.012777 
L 185.733819 203.252068 
L 185.810659 203.8226 
L 185.963201 203.061891 
L 186.040046 203.632423 
L 186.115742 203.442246 
L 186.192586 203.252068 
L 186.269173 203.632423 
L 186.346018 203.442246 
L 186.421714 202.871714 
L 186.498557 203.632423 
L 186.651099 202.871714 
L 186.727945 203.252068 
L 186.804788 203.061891 
L 186.880485 202.49136 
L 186.957329 203.252068 
L 187.10987 202.49136 
L 187.186716 203.252068 
L 187.26356 203.061891 
L 187.339256 201.540474 
L 187.416103 202.681537 
L 187.530793 202.443815 
L 187.607639 201.540474 
L 187.722331 202.034935 
L 187.798027 200.969942 
L 187.989565 202.301183 
L 188.142105 201.160119 
L 188.218949 202.111005 
L 188.37149 201.160119 
L 188.448335 202.111005 
L 188.600877 200.779765 
L 188.677722 201.920828 
L 188.830578 200.399411 
L 188.907422 201.730651 
L 189.059964 200.779765 
L 189.136808 201.160119 
L 189.366013 200.019056 
L 189.442858 200.399411 
L 189.518555 200.019056 
L 189.672243 200.209234 
L 189.74794 199.068171 
L 189.824784 200.209234 
L 189.939477 199.305892 
L 190.016321 199.638702 
L 190.092019 198.877993 
L 190.24456 199.638702 
L 190.321694 198.307462 
L 190.513231 199.448525 
L 190.665774 198.307462 
L 190.857311 198.877993 
L 191.009853 197.927107 
L 191.086695 198.687816 
L 191.162392 198.497639 
L 191.239239 197.546753 
L 191.39178 198.117285 
L 191.468623 197.166399 
L 191.545355 198.497639 
L 191.697897 196.786044 
L 191.774741 198.117285 
L 191.927282 196.786044 
L 192.004128 196.976222 
L 192.156669 195.644981 
L 192.233512 196.976222 
L 192.30921 196.40569 
L 192.386055 195.644981 
L 192.462899 196.595867 
L 192.538595 196.40569 
L 192.615439 195.644981 
L 192.692283 196.215513 
L 192.76798 196.025336 
L 192.844825 195.454804 
L 192.997367 196.40569 
L 193.07421 194.884273 
L 193.151056 195.454804 
L 193.418289 194.503918 
L 193.570831 195.07445 
L 193.647675 194.503918 
L 193.72452 194.884273 
L 193.839212 194.599007 
L 193.991753 193.304339 
L 194.068597 194.694095 
L 194.18329 194.579989 
L 194.412831 193.74321 
L 194.488529 194.313741 
L 194.565608 192.982501 
L 194.641305 194.054409 
L 194.718152 193.74321 
L 194.794994 193.362855 
L 194.947535 193.74321 
L 195.024232 193.172678 
L 195.099928 193.74321 
L 195.176774 193.172678 
L 195.291465 193.74321 
L 195.368309 193.172678 
L 195.444006 193.362855 
L 195.520852 193.553032 
L 195.597696 192.792324 
L 195.750236 193.172678 
L 195.827081 192.792324 
L 195.902777 193.362855 
L 196.056465 192.411969 
L 196.132163 192.792324 
L 196.28585 192.411969 
L 196.36155 192.602146 
L 196.515239 192.411969 
L 196.591822 192.792324 
L 196.744362 192.411969 
L 196.821207 192.221792 
L 196.896902 192.411969 
L 196.973747 192.031615 
L 197.126119 192.39468 
L 197.202964 191.841438 
L 197.355505 192.411969 
L 197.432348 191.841438 
L 197.509192 192.031615 
L 197.661734 191.461083 
L 197.738578 191.841438 
L 197.891119 191.651261 
L 197.967963 191.651261 
L 198.04366 191.841438 
L 198.196687 191.270906 
L 198.273531 191.651261 
L 198.350375 191.080729 
L 198.502917 191.841438 
L 198.57976 191.080729 
L 198.655458 191.461083 
L 198.808905 190.890552 
L 198.961446 191.270906 
L 199.115135 190.700375 
L 199.190832 190.890552 
L 199.420218 190.510197 
L 199.497064 190.700375 
L 199.649603 190.510197 
L 199.726449 190.510197 
L 199.803291 190.129843 
L 199.878989 190.700375 
L 199.955833 190.510197 
L 200.032678 190.129843 
L 200.299911 190.129843 
L 200.452453 190.112554 
L 200.529686 189.28269 
L 200.796921 189.939666 
L 200.873765 189.749489 
L 200.949462 189.178957 
L 201.064155 189.606856 
L 201.141 189.559312 
L 201.293542 188.98878 
L 201.370385 189.369134 
L 201.522927 188.798603 
L 201.599771 189.369134 
L 201.751989 188.608426 
L 201.828833 188.98878 
L 201.905678 188.608426 
L 202.058219 188.98878 
L 202.21076 187.847717 
L 202.287606 188.418249 
L 202.364448 188.228071 
L 202.440146 188.037894 
L 202.51699 188.418249 
L 202.593836 188.037894 
L 202.746376 188.228071 
L 202.899418 187.277185 
L 203.205648 188.037894 
L 203.358188 187.087008 
L 203.435034 187.65754 
L 203.625423 187.277185 
L 203.702266 186.896831 
L 203.779112 187.65754 
L 203.931652 186.706654 
L 204.008497 187.467363 
L 204.084195 186.896831 
L 204.199719 187.182097 
L 204.390116 186.633509 
L 204.466959 187.415496 
L 204.619507 186.136122 
L 204.69635 186.3263 
L 204.773196 186.706654 
L 204.848892 186.3263 
L 204.925737 186.896831 
L 205.078285 185.945945 
L 205.155128 186.793098 
L 205.307682 185.945945 
L 205.384786 186.516477 
L 205.46048 186.3263 
L 205.537333 186.136122 
L 205.689874 186.3263 
L 205.88139 185.603626 
L 205.958289 185.945945 
L 206.033993 185.755768 
L 206.110837 184.804882 
L 206.187681 185.755768 
L 206.263384 185.375414 
L 206.340146 185.375414 
L 206.416919 186.136122 
L 206.569475 184.995059 
L 206.83672 184.995059 
L 206.913385 184.424528 
L 207.028075 184.899971 
L 207.142774 184.757338 
L 207.219621 184.995059 
L 207.372176 184.424528 
L 207.449019 184.995059 
L 207.564161 184.082209 
L 207.639866 184.424528 
L 207.716709 184.044173 
L 207.793554 184.995059 
L 207.946103 184.044173 
L 208.098651 184.424528 
L 208.175501 183.663819 
L 208.365899 184.472072 
L 208.519601 183.853996 
L 208.595299 184.234351 
L 208.862937 183.663819 
L 208.939782 184.234351 
L 209.092346 182.90311 
L 209.169188 183.663819 
L 209.246253 183.093288 
L 209.32195 183.283465 
L 209.398793 183.283465 
L 209.475638 182.643778 
L 209.551337 182.771449 
L 209.628179 183.093288 
L 209.780721 182.90311 
L 209.857565 183.283465 
L 209.934409 182.522756 
L 210.010106 182.712933 
L 210.239492 183.05871 
L 210.286518 182.436312 
L 210.354185 182.522756 
L 210.583571 182.02138 
L 210.660414 182.332579 
L 210.812956 181.381693 
L 210.889799 181.952224 
L 211.042342 181.001339 
L 211.119185 181.762047 
L 211.19603 181.57187 
L 211.271729 181.381693 
L 211.348571 181.762047 
L 211.425416 181.001339 
L 211.578122 181.762047 
L 211.653822 181.001339 
L 211.768514 181.048883 
L 211.845359 180.430807 
L 211.922203 181.001339 
L 212.074434 180.24063 
L 212.189128 180.478351 
L 212.265971 180.24063 
L 212.342824 180.620984 
L 212.418527 179.289744 
L 212.495369 180.430807 
L 212.57222 179.670098 
L 212.68594 179.82224 
L 212.762784 179.289744 
L 212.839629 179.670098 
L 212.91585 179.479921 
L 212.992694 178.338858 
L 213.183086 179.289744 
L 213.25993 179.289744 
L 213.757293 177.958504 
L 213.832988 178.338858 
L 214.177066 177.578149 
L 214.253912 177.958504 
L 214.330755 177.768327 
L 214.445446 178.338858 
L 214.560007 177.540114 
L 214.635703 177.768327 
L 214.712547 177.768327 
L 214.86509 177.387972 
L 214.941931 177.249662 
L 215.056624 177.540114 
L 215.133469 176.627263 
L 215.209165 177.387972 
L 215.362854 176.627263 
L 215.439698 177.197795 
L 215.59224 176.627263 
L 215.669083 177.007618 
L 215.744781 176.437086 
L 215.821625 176.817441 
L 215.974166 176.437086 
L 216.051011 176.627263 
L 216.203552 176.246909 
L 216.432939 176.246909 
L 216.509782 176.056732 
L 216.585479 176.212331 
L 216.662324 175.749523 
L 216.739168 175.866555 
L 216.814866 176.246909 
L 216.929917 175.914099 
L 217.006762 176.246909 
L 217.159303 175.4862 
L 217.236329 175.676378 
L 217.31203 175.4862 
L 217.388871 175.676378 
L 217.541412 175.105846 
L 217.618257 175.4862 
L 217.770798 174.915669 
L 217.847643 175.105846 
L 218.000183 174.725492 
L 218.077028 175.296023 
L 218.229569 174.725492 
L 218.306413 175.105846 
L 218.458956 174.725492 
L 218.535801 174.535315 
L 218.612644 174.725492 
L 218.688344 174.345137 
L 218.84203 174.535315 
L 218.917729 174.535315 
L 219.032425 174.202504 
L 219.147112 174.48777 
L 219.223956 174.15496 
L 219.300802 174.345137 
L 219.49119 173.48934 
L 219.568035 173.964783 
L 219.720583 173.394251 
L 219.797421 173.584429 
L 219.874265 173.394251 
L 219.949962 172.253188 
L 220.026518 173.584429 
L 220.218055 173.013897 
L 220.293837 172.253188 
L 220.408531 173.346707 
L 220.637917 171.872834 
L 220.714762 173.013897 
L 220.867301 171.872834 
L 220.944145 173.013897 
L 221.096686 172.253188 
L 221.173531 173.013897 
L 221.365069 171.920378 
L 221.440765 171.49248 
L 221.517609 172.443366 
L 221.670661 171.112125 
L 221.747505 172.253188 
L 222.014739 170.351417 
L 222.091583 171.682657 
L 222.167281 171.112125 
L 222.244124 170.921948 
L 222.32097 171.682657 
L 222.47351 170.731771 
L 222.550354 171.302302 
L 222.665047 171.302302 
L 222.740744 170.998019 
L 222.817589 170.161239 
L 222.894433 171.112125 
L 222.971 169.971062 
L 223.046697 170.403283 
L 223.276082 169.971062 
L 223.352927 170.161239 
L 223.50547 169.590708 
L 223.582314 169.780885 
L 223.659157 169.400531 
L 223.734854 168.449645 
L 223.849547 169.495619 
L 223.926391 169.210354 
L 224.078934 168.259468 
L 224.23262 169.020176 
L 224.308318 168.259468 
L 224.385162 168.449645 
L 224.537703 168.449645 
L 224.72953 167.879113 
L 224.805228 168.259468 
L 224.958916 167.688936 
L 225.111457 167.688936 
L 225.455535 167.07086 
L 225.608079 167.688936 
L 225.761766 166.928227 
L 225.837463 167.879113 
L 225.913788 166.928227 
L 225.990633 167.118405 
L 226.067476 166.928227 
L 226.411554 167.498759 
L 226.564097 166.928227 
L 226.64094 167.498759 
L 226.716637 167.308582 
L 226.831332 167.356126 
L 226.908175 166.547873 
L 226.985018 167.308582 
L 227.137561 166.547873 
L 227.214403 166.928227 
L 227.366945 166.167519 
L 227.44379 166.668895 
L 227.711025 165.977341 
L 227.787874 166.547873 
L 227.940412 165.977341 
L 228.092952 165.977341 
L 228.169795 165.596987 
L 228.246639 166.167519 
L 228.399181 165.596987 
L 228.551722 165.977341 
L 228.705411 165.40681 
L 228.781108 165.787164 
L 228.858091 164.836278 
L 228.934935 165.596987 
L 229.010632 165.40681 
L 229.087477 164.646101 
L 229.163918 165.216633 
L 229.31646 164.07557 
L 229.393305 165.026456 
L 229.545846 164.265747 
L 229.660538 164.151641 
L 229.737383 164.646101 
L 229.889923 163.885393 
L 229.966768 164.646101 
L 230.234004 163.423534 
L 230.310846 164.646101 
L 230.463388 163.314861 
L 230.540232 164.265747 
L 230.654926 163.362405 
L 230.73177 163.885393 
L 230.807466 163.124684 
L 230.88431 163.885393 
L 231.037126 163.124684 
L 231.11397 163.695215 
L 231.266511 162.934507 
L 231.343357 163.695215 
L 231.495897 162.744329 
L 231.572741 163.505038 
L 231.840355 162.221342 
L 231.916052 162.744329 
L 232.030743 162.363975 
L 232.107589 162.744329 
L 232.184248 162.173798 
L 232.261093 162.744329 
L 232.413804 161.413089 
L 232.604195 162.32594 
L 232.718887 161.793444 
L 232.795732 162.173798 
L 232.872576 161.603266 
L 232.987267 161.717373 
L 233.062965 161.603266 
L 233.139808 161.689711 
L 233.292353 161.413089 
L 233.369196 161.413089 
L 233.44604 161.222912 
L 233.521737 161.793444 
L 233.59858 160.842558 
L 233.675424 161.222912 
L 233.751121 160.65238 
L 233.827966 160.842558 
L 233.980507 160.272026 
L 234.057351 160.65238 
L 234.133401 160.081849 
L 234.210246 160.272026 
L 234.28709 160.462203 
L 234.439631 160.081849 
L 234.516476 160.272026 
L 234.592176 159.891672 
L 234.706866 160.081849 
L 234.783712 159.701495 
L 234.860555 159.891672 
L 235.013095 159.511317 
L 235.204747 159.891672 
L 235.47198 159.130963 
L 235.548825 159.701495 
L 235.66248 159.65395 
L 235.777173 158.940786 
L 235.854018 159.226052 
L 235.930863 158.750609 
L 236.006564 159.32114 
L 236.083409 158.560432 
L 236.235945 159.32114 
L 236.389632 158.560432 
L 236.46533 158.940786 
L 236.694717 158.560432 
L 236.77156 158.940786 
L 236.924101 158.750609 
L 237.000948 158.750609 
L 237.077791 157.799723 
L 237.23002 158.721351 
L 237.306865 157.9899 
L 237.383708 158.560432 
L 237.53625 157.419368 
L 237.612983 158.750609 
L 237.765525 157.229191 
L 237.84237 157.9899 
L 237.99491 156.848837 
L 238.109523 157.15312 
L 238.186368 157.609546 
L 238.33891 156.65866 
L 238.415755 157.799723 
L 238.568295 156.278305 
L 238.645138 157.229191 
L 238.721984 156.848837 
L 238.797681 156.468483 
L 238.874525 157.229191 
L 239.027067 156.468483 
L 239.10391 157.039014 
L 239.256453 156.088128 
L 239.333297 156.848837 
L 239.485837 156.088128 
L 239.600531 156.230761 
L 239.677379 156.848837 
L 239.829916 155.707774 
L 239.90676 156.848837 
L 240.059301 155.517597 
L 240.136146 156.468483 
L 240.288688 155.517597 
L 240.365825 156.088128 
L 240.441524 155.327419 
L 240.556217 155.66023 
L 240.633061 154.756888 
L 240.709908 155.707774 
L 240.862445 154.947065 
L 240.939289 155.327419 
L 241.091896 154.756888 
L 241.168739 155.327419 
L 241.473822 154.414569 
L 241.550665 154.566711 
L 241.627512 154.186356 
L 241.703206 154.376534 
L 241.780051 153.996179 
L 241.895055 154.376534 
L 241.970754 153.615825 
L 242.047598 154.376534 
L 242.124441 154.186356 
L 242.200138 153.806002 
L 242.276983 154.186356 
L 242.429524 153.598536 
L 242.506368 153.996179 
L 242.583212 153.235471 
L 242.658909 153.425648 
L 242.735753 153.806002 
L 242.965139 153.045293 
L 243.041983 153.045293 
L 243.309219 152.664939 
L 243.462653 152.284585 
L 243.577345 152.379673 
L 243.653049 152.664939 
L 243.805596 152.094407 
L 243.882441 152.664939 
L 243.959284 151.714053 
L 244.111607 152.474762 
L 244.265371 151.523876 
L 244.417919 152.284585 
L 244.494763 151.714053 
L 244.57046 152.664939 
L 244.723216 151.90423 
L 244.800066 152.664939 
L 244.952615 151.523876 
L 245.182152 151.951775 
L 245.259 152.094407 
L 245.411542 151.523876 
L 245.488394 152.094407 
L 245.565042 151.90423 
L 245.640739 151.333699 
L 245.717591 151.714053 
L 245.984837 150.953344 
L 246.099536 151.348328 
L 246.176393 150.915309 
L 246.520495 151.143522 
L 246.788609 150.382813 
L 246.864306 151.143522 
L 246.979001 150.810711 
L 247.055843 150.953344 
L 247.132688 149.622104 
L 247.208386 150.763167 
L 247.361468 149.812281 
L 247.438312 150.901478 
L 247.590854 149.812281 
L 247.667697 150.382813 
L 247.82024 150.002458 
L 247.973126 150.002458 
L 248.049971 149.622104 
L 248.202512 150.002458 
L 248.279356 149.622104 
L 248.54659 150.002458 
L 248.623433 149.622104 
L 248.775974 150.002458 
L 248.928517 149.431927 
L 249.044358 149.24175 
L 249.120434 149.812281 
L 249.196129 149.051573 
L 249.349185 149.431927 
L 249.426029 148.671218 
L 249.578459 149.622104 
L 249.655303 148.861395 
L 249.808422 149.431927 
L 250.075655 149.24175 
L 250.152498 148.671218 
L 250.229343 148.861395 
L 250.30489 149.431927 
L 250.458579 148.481041 
L 250.57327 148.528585 
L 250.687963 148.328899 
L 250.840506 149.24175 
L 250.917348 148.100687 
L 250.993047 148.481041 
L 251.146735 147.91051 
L 251.222431 148.481041 
L 251.375255 147.91051 
L 251.528943 147.91051 
L 251.605788 147.720332 
L 251.681487 147.91051 
L 251.873022 147.339978 
L 252.025564 147.720332 
L 252.2171 146.959624 
L 252.369644 147.339978 
L 252.522186 147.149801 
L 252.71372 147.244889 
L 252.866532 146.959624 
L 252.943377 147.149801 
L 253.095918 146.769446 
L 253.172762 146.579269 
L 253.249531 146.769446 
L 253.402073 146.579269 
L 253.554614 146.959624 
L 253.631458 146.389092 
L 253.708305 146.769446 
L 253.860844 146.008738 
L 253.93769 146.579269 
L 254.090231 145.818561 
L 254.167073 146.008738 
L 254.242771 145.438206 
L 254.396459 146.008738 
L 254.472156 145.438206 
L 254.586849 145.818561 
L 254.663696 145.057852 
L 254.740538 146.008738 
L 254.816235 145.628383 
L 254.969925 145.248029 
L 255.045622 145.438206 
L 255.122464 145.057852 
L 255.275007 145.438206 
L 255.581236 144.867675 
L 255.65808 145.438206 
L 255.810623 144.867675 
L 255.887465 145.057852 
L 256.040353 144.48732 
L 256.116048 144.867675 
L 256.269737 144.297143 
L 256.422278 144.48732 
L 256.499122 144.297143 
L 256.651664 144.867675 
L 256.766357 143.862452 
L 256.843201 144.025461 
L 256.995742 144.297143 
L 257.072586 144.106966 
L 257.148285 144.884964 
L 257.301975 143.536434 
L 257.377669 144.677497 
L 257.53041 144.106966 
L 257.607255 144.106966 
L 257.759795 143.346257 
L 257.83664 144.106966 
L 257.989182 142.775726 
L 258.066026 144.106966 
L 258.333259 142.775726 
L 258.410103 143.847633 
L 258.562647 142.775726 
L 258.716333 142.775726 
L 258.79203 142.395371 
L 258.945718 142.775726 
L 259.021417 141.444485 
L 259.098851 142.775726 
L 259.174549 142.205194 
L 259.251392 141.444485 
L 259.328235 142.015017 
L 259.480778 141.254308 
L 259.633318 141.82484 
L 259.710163 140.873954 
L 259.824856 141.539574 
L 259.9017 141.444485 
L 259.977397 141.444485 
L 260.054241 140.303422 
L 260.206782 141.254308 
L 260.322223 141.396941 
L 260.39792 140.4936 
L 260.551607 141.064131 
L 260.627304 140.113245 
L 260.704532 141.254308 
L 260.780229 140.873954 
L 260.857073 140.113245 
L 260.933917 140.873954 
L 261.201153 139.923068 
L 261.353693 140.113245 
L 261.430537 139.542714 
L 261.507381 140.113245 
L 261.583078 139.923068 
L 261.659922 139.162359 
L 261.736767 139.352536 
L 261.812464 139.542714 
L 261.889528 139.162359 
L 262.042069 139.542714 
L 262.194612 138.972182 
L 262.271768 139.352536 
L 262.42431 138.591828 
L 262.501155 138.782005 
L 262.576851 138.211473 
L 262.653696 138.453517 
L 262.730539 139.411053 
L 262.883036 138.211473 
L 262.95988 138.782005 
L 263.112422 137.640942 
L 263.227117 137.831119 
L 263.303957 138.401651 
L 263.4565 137.260588 
L 263.533343 138.211473 
L 263.685887 136.880233 
L 263.76273 137.450765 
L 263.915213 136.690056 
L 263.992058 137.450765 
L 264.068901 136.499879 
L 264.144599 136.690056 
L 264.221443 137.260588 
L 264.373985 136.309702 
L 264.450828 137.450765 
L 264.603371 136.309702 
L 264.680213 136.880233 
L 264.832756 136.119524 
L 264.909601 136.690056 
L 264.986443 136.499879 
L 265.062143 135.929347 
L 265.138985 136.499879 
L 265.215829 135.929347 
L 265.330522 136.40479 
L 265.406593 135.358816 
L 265.598128 136.309702 
L 265.75067 134.978461 
L 265.827514 135.929347 
L 265.980125 134.978461 
L 266.055823 135.929347 
L 266.20951 134.788284 
L 266.285209 135.73917 
L 266.438159 134.217753 
L 266.515002 135.168639 
L 266.591847 134.788284 
L 266.782878 134.550563 
L 266.859723 134.978461 
L 267.012264 134.217753 
L 267.089108 134.788284 
L 267.164805 134.096731 
L 267.24165 134.217753 
L 267.318495 134.598107 
L 267.471035 134.40793 
L 267.54788 134.598107 
L 267.700448 134.027575 
L 267.777291 134.40793 
L 267.890837 134.122664 
L 267.967682 134.40793 
L 268.044527 133.647221 
L 268.120224 133.837398 
L 268.197067 134.217753 
L 268.273913 133.266867 
L 268.426452 134.027575 
L 268.503297 133.07669 
L 268.580141 133.837398 
L 268.732683 133.266867 
L 268.808379 133.647221 
L 268.962068 133.07669 
L 269.037765 133.647221 
L 269.11461 133.457044 
L 269.191456 132.696335 
L 269.267153 133.837398 
L 269.420839 132.506158 
L 269.496537 133.457044 
L 269.650226 132.506158 
L 269.725923 133.457044 
L 269.994304 131.935627 
L 270.070874 133.07669 
L 270.223414 131.935627 
L 270.30026 133.059401 
L 270.414757 131.983171 
L 270.491602 132.315981 
L 270.567301 131.174918 
L 270.644144 132.506158 
L 270.72099 132.125804 
L 270.796686 131.365095 
L 270.873529 132.125804 
L 270.950373 131.935627 
L 271.026071 131.174918 
L 271.102914 131.935627 
L 271.255458 130.984741 
L 271.332302 131.745449 
L 271.484843 130.794563 
L 271.561688 131.935627 
L 271.714822 130.794563 
L 271.790519 131.555272 
L 271.944208 130.984741 
L 272.019905 131.365095 
L 272.173632 130.794563 
L 272.249329 131.555272 
L 272.403017 130.794563 
L 272.555559 130.794563 
L 272.708103 130.414209 
L 273.01433 130.414209 
L 273.091174 129.843678 
L 273.167792 130.414209 
L 273.320333 129.947411 
L 273.397178 130.033855 
L 273.549556 129.843678 
L 273.626401 129.843678 
L 273.893636 128.98788 
L 273.97048 129.463323 
L 274.046177 129.273146 
L 274.123022 129.273146 
L 274.199865 129.463323 
L 274.390781 129.053711 
L 274.543323 129.273146 
L 274.620167 129.082969 
L 274.772708 129.273146 
L 274.849554 129.082969 
L 275.002094 129.273146 
L 275.078938 129.273146 
L 275.231481 128.892792 
L 275.423017 129.415779 
L 275.499868 129.273146 
L 275.652404 128.702615 
L 275.729247 128.892792 
L 275.804944 128.512437 
L 275.958632 128.892792 
L 276.111175 128.702615 
L 276.188018 128.892792 
L 276.417249 128.132083 
L 276.492946 128.32226 
L 276.56979 128.512437 
L 276.722332 128.132083 
L 276.799176 128.32226 
L 276.951718 127.941906 
L 277.028384 128.132083 
L 277.105227 127.751729 
L 277.25777 127.941906 
L 277.334613 127.561551 
L 277.525002 127.98945 
L 277.601848 127.941906 
L 277.754389 127.371374 
L 277.831234 127.941906 
L 277.984799 127.181197 
L 278.175189 127.751729 
L 278.328877 127.181197 
L 278.404574 127.371374 
L 278.519268 126.99102 
L 278.596112 127.371374 
L 278.672956 126.800843 
L 278.825497 127.181197 
L 279.054884 126.420488 
L 279.207424 127.181197 
L 279.32212 126.116205 
L 279.398961 126.230311 
L 279.513819 126.705754 
L 279.589515 126.040134 
L 279.66636 126.800843 
L 279.743204 126.420488 
L 279.857897 126.563121 
L 279.933594 125.849957 
L 280.087282 126.230311 
L 280.162979 125.849957 
L 280.239825 126.420488 
L 280.392719 126.040134 
L 280.469564 126.230311 
L 280.622108 125.65978 
L 280.698949 126.040134 
L 280.774646 125.469602 
L 280.88934 125.811921 
L 280.965879 125.279425 
L 281.04277 126.420488 
L 281.195326 125.089248 
L 281.272169 125.65978 
L 281.349013 125.089248 
L 281.424712 125.279425 
L 281.501561 125.279425 
L 281.654087 124.518717 
L 281.730944 125.089248 
L 281.807788 124.899071 
L 281.883494 124.518717 
L 281.960344 125.089248 
L 282.037189 124.899071 
L 282.112891 124.328539 
L 282.189716 125.279425 
L 282.266558 124.899071 
L 282.342264 124.138362 
L 282.419114 124.708894 
L 282.534164 124.280995 
L 282.609862 124.708894 
L 282.686712 124.345828 
L 282.763558 124.518717 
L 282.953947 124.328539 
L 283.030798 123.567831 
L 283.107649 124.518717 
L 283.183344 124.328539 
L 283.298039 124.442646 
L 283.489198 123.567831 
L 283.566095 124.138362 
L 283.718637 122.997299 
L 283.795503 124.328539 
L 283.948022 122.997299 
L 284.024867 123.758008 
L 284.101712 123.567831 
L 284.177408 123.187476 
L 284.254252 123.758008 
L 284.331097 123.567831 
L 284.406794 122.997299 
L 284.483638 123.567831 
L 284.560481 123.377654 
L 284.63618 122.997299 
L 284.713417 123.758008 
L 284.865959 122.558429 
L 284.942803 123.187476 
L 285.018502 122.997299 
L 285.095345 122.616945 
L 285.17219 123.377654 
L 285.324732 122.426768 
L 285.477273 122.997299 
L 285.554117 122.426768 
L 285.630961 123.377654 
L 285.783504 121.856236 
L 285.860346 122.997299 
L 286.012887 121.856236 
L 286.089731 122.616945 
L 286.356764 122.046413 
L 286.43361 122.426768 
L 286.58615 121.666059 
L 286.662994 122.046413 
L 286.738692 121.666059 
L 286.892378 121.856236 
L 286.968077 121.285705 
L 287.04492 121.475882 
L 287.197462 121.285705 
L 287.274676 121.285705 
L 287.350374 121.095527 
L 287.427218 121.285705 
L 287.504061 120.715173 
L 287.656603 121.475882 
L 287.733448 120.334819 
L 287.923838 120.943386 
L 288.000683 120.715173 
L 288.115375 121.026372 
L 288.306912 120.524996 
L 288.382609 121.285705 
L 288.536297 120.524996 
L 288.611995 120.524996 
L 288.765683 120.334819 
L 288.84138 120.524996 
L 289.032918 120.144641 
L 289.10976 120.524996 
L 289.339148 119.764287 
L 289.453659 120.002009 
L 289.529539 119.954464 
L 289.683226 119.57411 
L 289.758924 119.383933 
L 289.835768 119.781576 
L 289.912537 119.003578 
L 289.988395 119.193756 
L 290.065237 119.764287 
L 290.179932 119.146211 
L 290.256783 119.764287 
L 290.486009 118.329314 
L 290.561706 118.623224 
L 290.638549 119.57411 
L 290.753242 118.433047 
L 290.830155 119.193756 
L 290.905853 118.744246 
L 290.982697 118.813401 
L 291.174173 118.623224 
L 291.24993 118.24287 
L 291.326774 118.623224 
L 291.479317 118.052693 
L 291.556161 118.433047 
L 291.708651 117.914382 
L 291.785494 118.24287 
L 291.938023 117.482161 
L 292.014867 118.052693 
L 292.091721 116.721452 
L 292.24428 117.862515 
L 292.321161 116.877052 
L 292.396858 117.101807 
L 292.473705 117.672338 
L 292.626244 117.101807 
L 292.70309 117.672338 
L 292.779897 116.531275 
L 292.855632 116.721452 
L 292.932474 117.291984 
L 293.085021 116.531275 
L 293.161864 117.101807 
L 293.314374 115.960744 
L 293.391219 116.911629 
L 293.543787 115.71205 
L 293.620633 116.531275 
L 293.773176 115.390212 
L 293.850019 116.341098 
L 293.926864 115.960744 
L 294.002559 115.390212 
L 294.079404 115.960744 
L 294.231944 115.009858 
L 294.308788 115.960744 
L 294.385633 115.009858 
L 294.46133 115.200035 
L 294.538175 115.960744 
L 294.690716 114.81968 
L 294.767561 115.580389 
L 294.844404 115.009858 
L 294.920104 115.200035 
L 294.996947 115.200035 
L 295.073455 115.390212 
L 295.264994 114.581959 
L 295.340691 114.629503 
L 295.417533 115.390212 
L 295.532227 114.802392 
L 295.583839 113.35013 
L 295.64692 115.009858 
L 295.723764 113.298263 
L 295.799462 115.200035 
L 295.876306 114.81968 
L 295.95315 113.765062 
L 296.028846 114.249149 
L 296.105691 114.249149 
L 296.182534 113.298263 
L 296.258233 114.802392 
L 296.335076 114.658761 
L 296.526613 113.108086 
L 296.60231 114.249149 
L 296.679156 114.058972 
L 296.756 113.298263 
L 296.908541 114.058972 
L 296.985384 112.727732 
L 297.137927 113.868795 
L 297.214772 112.537554 
L 297.290469 113.678617 
L 297.405162 112.585099 
L 297.482129 113.298263 
L 297.557826 112.1572 
L 297.634672 113.298263 
L 297.711514 112.917909 
L 297.787216 112.347377 
L 297.940901 113.298263 
L 298.016598 112.347377 
L 298.093443 113.108086 
L 298.170554 112.917909 
L 298.24625 112.537554 
L 298.323094 113.108086 
L 298.475635 111.674443 
L 298.629324 112.347377 
L 298.705024 111.586668 
L 298.781867 112.347377 
L 298.85871 112.1572 
L 299.0491 111.444036 
L 299.125945 112.1572 
L 299.240638 111.510598 
L 299.317481 111.776846 
L 299.393069 111.206314 
L 299.469915 111.586668 
L 299.622455 111.396491 
L 299.737406 111.814881 
L 299.814249 111.690401 
L 299.966791 111.016137 
L 300.043636 111.396491 
L 300.234452 111.15877 
L 300.311296 111.206314 
L 300.386994 111.016137 
L 300.463838 111.206314 
L 300.616379 110.635783 
L 300.693222 111.206314 
L 300.845764 110.445605 
L 300.922607 110.82596 
L 300.998687 110.255428 
L 301.075533 110.445605 
L 301.152375 111.016137 
L 301.228074 110.445605 
L 301.304918 110.653071 
L 301.381762 111.498894 
L 301.534304 110.255428 
L 301.611148 110.255428 
L 301.686846 109.875074 
L 301.840532 110.635783 
L 301.91623 109.494719 
L 301.993075 109.875074 
L 302.069921 110.635783 
L 302.145616 109.114365 
L 302.22246 110.065251 
L 302.337153 109.161909 
L 302.413997 109.684897 
L 302.566539 109.114365 
L 302.64258 109.304542 
L 302.79627 109.114365 
L 302.871967 109.304542 
L 303.025653 108.543834 
L 303.101352 109.114365 
L 303.25504 108.543834 
L 303.330739 108.734011 
L 303.484426 108.163479 
L 303.674815 108.734011 
L 303.828503 107.973302 
L 303.981051 108.163479 
L 304.057726 107.973302 
L 304.210266 108.353656 
L 304.439285 108.353656 
L 304.516128 107.783125 
L 304.592972 108.353656 
L 304.668669 108.163479 
L 304.745513 107.783125 
L 304.822359 107.973302 
L 304.898055 107.592948 
L 305.012747 108.00047 
L 305.089593 107.212593 
L 305.242134 108.353656 
L 305.433673 107.212593 
L 305.548362 107.307682 
L 305.625208 107.783125 
L 305.778438 106.642062 
L 305.854138 107.333615 
L 305.93098 107.212593 
L 306.007561 106.642062 
L 306.083257 107.212593 
L 306.160101 107.022416 
L 306.236947 106.642062 
L 306.312643 107.592948 
L 306.466332 106.451885 
L 306.542028 107.402771 
L 306.618872 107.022416 
L 306.695718 107.022416 
L 306.771732 107.402771 
L 306.924271 106.832239 
L 307.001116 107.212593 
L 307.077959 107.022416 
L 307.154803 106.261707 
L 307.268348 106.879783 
L 307.345193 106.832239 
L 307.613375 106.07153 
L 307.765917 107.022416 
L 307.842761 106.07153 
L 307.91846 106.832239 
L 307.995302 106.261707 
L 308.109995 106.309252 
L 308.301533 105.881353 
L 308.377229 106.642062 
L 308.53092 106.07153 
L 308.606627 106.261707 
L 308.760316 105.705805 
L 308.912858 106.261707 
L 308.989702 105.881353 
L 309.065399 106.07153 
L 309.218552 105.500999 
L 309.295397 105.881353 
L 309.562634 105.120644 
L 309.639475 105.691176 
L 309.715172 105.500999 
L 309.792016 105.120644 
L 309.944557 105.310822 
L 310.021402 104.930467 
L 310.173943 105.120644 
L 310.327632 104.930467 
L 310.403329 105.120644 
L 310.480174 104.74029 
L 310.632716 105.120644 
L 310.786134 104.550113 
L 310.862978 104.930467 
L 310.97767 104.169758 
L 311.092363 105.003612 
L 311.168062 104.512077 
L 311.282756 104.597657 
L 311.359598 104.169758 
L 311.474293 104.664219 
L 311.551136 104.550113 
L 311.703656 103.979581 
L 311.7805 104.359936 
L 311.856197 103.789404 
L 312.085582 104.221625 
L 312.276766 103.40905 
L 312.353611 104.359936 
L 312.506152 103.218873 
L 312.620844 103.774775 
L 312.697689 103.599227 
L 312.774533 103.599227 
L 312.85023 103.218873 
L 312.927075 103.789404 
L 313.079616 103.218873 
L 313.15646 103.789404 
L 313.271152 103.171328 
L 313.347998 103.40905 
L 313.423694 103.028695 
L 313.500539 103.40905 
L 313.577382 103.218873 
L 313.653081 102.648341 
L 313.729925 103.40905 
L 313.882466 102.838518 
L 313.959309 103.218873 
L 314.111856 102.648341 
L 314.188694 103.028695 
L 314.380232 102.838518 
L 314.455929 102.267987 
L 314.532773 103.028695 
L 314.609617 102.267987 
L 314.685316 102.458164 
L 314.762159 103.028695 
L 314.914639 102.458164 
L 314.991483 102.648341 
L 315.068327 102.458164 
L 315.144026 101.697455 
L 315.297714 102.267987 
L 315.373667 101.697455 
L 315.450511 102.458164 
L 315.52621 102.267987 
L 315.603054 101.697455 
L 315.755597 102.458164 
L 315.832438 101.697455 
L 315.909284 102.267987 
L 315.984981 101.524567 
L 316.061824 101.668197 
L 316.214367 102.267987 
L 316.368055 101.697455 
L 316.44375 102.07781 
L 316.520595 101.507278 
L 316.59744 101.887632 
L 316.712132 101.602367 
L 316.787829 101.887632 
L 316.979834 101.492649 
L 317.05553 101.621384 
L 317.132376 102.07781 
L 317.209218 101.317101 
L 317.284916 102.07781 
L 317.438604 101.126924 
L 317.514301 101.887632 
L 317.667992 101.317101 
L 317.743687 101.887632 
L 317.820552 101.507278 
L 317.935244 101.602367 
L 318.126241 100.746569 
L 318.203088 101.126924 
L 318.356212 100.556392 
L 318.431909 101.317101 
L 318.50876 101.126924 
L 318.585606 100.746569 
L 318.661588 101.507278 
L 318.814132 100.746569 
L 318.929732 100.461304 
L 319.005429 100.936746 
L 319.159118 100.366215 
L 319.234816 100.936746 
L 319.388503 100.366215 
L 319.503196 100.40425 
L 319.578895 100.936746 
L 319.732583 99.985861 
L 319.808279 100.556392 
L 320.076519 99.985861 
L 320.152217 100.366215 
L 320.305904 99.795683 
L 320.382262 100.366215 
L 320.534804 99.795683 
L 320.611647 100.176038 
L 321.10792 99.034975 
L 321.222619 99.795683 
L 321.300031 99.657373 
L 321.528846 98.844797 
L 321.60569 99.415329 
L 321.682272 98.844797 
L 321.758231 99.034975 
L 321.835078 99.225152 
L 322.140157 98.464443 
L 322.293847 98.65462 
L 322.369542 98.464443 
L 322.598933 98.844797 
L 322.675777 98.464443 
L 322.828314 98.65462 
L 323.096699 98.157234 
L 323.172394 98.426408 
L 323.249066 98.084089 
L 323.326083 98.464443 
L 323.401779 98.084089 
L 323.555472 98.464443 
L 323.708013 97.703734 
L 323.784858 97.893912 
L 323.860555 97.513557 
L 323.937399 98.084089 
L 324.090901 97.375247 
L 324.166786 97.513557 
L 324.243627 98.274266 
L 324.319327 97.513557 
L 324.396169 97.703734 
L 324.54871 97.893912 
L 324.625554 96.943026 
L 324.702399 98.274266 
L 324.854935 96.752849 
L 324.931781 97.703734 
L 325.084321 96.752849 
L 325.199015 96.895481 
L 325.275867 97.513557 
L 325.351562 97.32338 
L 325.428408 96.752849 
L 325.505252 97.703734 
L 325.657792 96.752849 
L 325.734638 97.513557 
L 325.887173 96.752849 
L 325.964019 97.32338 
L 326.116116 96.562671 
L 326.193253 97.32338 
L 326.345947 96.182317 
L 326.422793 96.562671 
L 326.575337 96.372494 
L 326.651975 96.943026 
L 326.728819 96.562671 
L 326.804516 95.421608 
L 326.881565 96.562671 
L 327.034101 95.421608 
L 327.110953 96.372494 
L 327.263295 95.611785 
L 327.416028 95.99214 
L 327.492872 95.041254 
L 327.569718 96.372494 
L 327.722261 94.821819 
L 327.874802 95.801963 
L 327.989492 95.469153 
L 328.066339 94.851077 
L 328.143183 95.231431 
L 328.295722 94.6609 
L 328.372567 95.421608 
L 328.448263 95.231431 
L 328.562956 95.469153 
L 328.639803 94.6609 
L 328.792346 95.231431 
L 328.868894 94.090368 
L 328.945863 95.041254 
L 329.02156 94.6609 
L 329.098404 94.280545 
L 329.251115 95.041254 
L 329.32796 93.900191 
L 329.404805 94.851077 
L 329.481422 94.6609 
L 329.557184 93.900191 
L 329.63403 94.470722 
L 329.709727 94.280545 
L 329.786732 93.900191 
L 329.863576 94.470722 
L 329.939273 94.090368 
L 330.053966 94.328089 
L 330.168658 94.185457 
L 330.245503 93.329659 
L 330.322347 94.470722 
L 330.474889 92.949305 
L 330.551733 94.090368 
L 330.62743 93.710014 
L 330.704128 93.225926 
L 330.781121 93.900191 
L 330.856818 93.519836 
L 330.933661 92.378773 
L 331.010506 93.710014 
L 331.163043 92.568951 
L 331.239888 93.329659 
L 331.392432 92.188596 
L 331.583968 93.139482 
L 331.736511 91.618065 
L 331.88987 91.998419 
L 331.965568 91.808242 
L 332.119256 91.998419 
L 332.195283 91.23771 
L 332.347829 91.808242 
L 332.424552 91.23771 
L 332.501395 91.427888 
L 332.577212 91.23771 
L 332.654057 90.667179 
L 332.730905 91.618065 
L 332.845598 90.9049 
L 332.921295 91.427888 
L 332.998139 90.477002 
L 333.074984 91.23771 
L 333.227797 90.667179 
L 333.380339 90.857356 
L 333.457183 90.667179 
L 333.532881 90.857356 
L 333.68657 90.477002 
L 333.762266 90.477002 
L 333.83911 91.047533 
L 333.991652 90.477002 
L 334.068496 90.286824 
L 334.144835 90.477002 
L 334.22168 90.321402 
L 334.297376 90.784211 
L 334.451066 89.90647 
L 334.603608 89.526116 
L 334.68045 90.096647 
L 334.756228 89.90647 
L 334.870922 89.621204 
L 335.139304 90.608663 
L 335.215002 90.515037 
L 335.291844 89.716293 
L 335.406537 89.763837 
L 335.483383 89.145761 
L 335.559474 90.096647 
L 335.712016 88.955584 
L 335.788859 89.716293 
L 335.865704 89.145761 
L 335.980396 89.193306 
L 336.056094 88.955584 
L 336.132938 89.526116 
L 336.209782 89.335939 
L 336.324476 88.841478 
L 336.477016 89.526116 
L 336.629559 88.955584 
L 336.706402 88.955584 
L 336.935622 88.57523 
L 337.050313 89.028729 
L 337.127157 88.99362 
L 337.202855 88.955584 
L 337.318694 88.622774 
L 337.394391 89.145761 
L 337.54808 88.194875 
L 337.623777 88.955584 
L 337.700621 87.814521 
L 337.853162 88.955584 
L 338.005705 87.434167 
L 338.082548 88.765407 
L 338.159392 88.004698 
L 338.274087 88.385053 
L 338.350929 87.814521 
L 338.426626 88.385053 
L 338.579168 87.624344 
L 338.656014 88.004698 
L 338.732856 87.24399 
L 338.885181 88.004698 
L 338.962024 86.587014 
L 339.038868 87.434167 
L 339.114565 87.24399 
L 339.191994 87.24399 
L 339.267692 86.483281 
L 339.344536 87.24399 
L 339.497078 86.379548 
L 339.573744 87.053812 
L 339.726286 85.912749 
L 339.803132 86.673458 
L 339.879974 86.483281 
L 339.955672 86.102927 
L 340.070365 87.015777 
L 340.29975 85.912749 
L 340.376593 86.863635 
L 340.567829 85.484851 
L 340.682522 86.340648 
L 340.874061 85.342218 
L 340.949757 86.102927 
L 341.026601 85.912749 
L 341.141294 86.055382 
L 341.218139 84.961863 
L 341.294244 85.722572 
L 341.446787 84.961863 
L 341.52363 85.722572 
L 341.676985 84.771686 
L 341.752683 85.532395 
L 341.906371 84.961863 
L 341.9823 85.532395 
L 342.134842 84.961863 
L 342.211685 85.342218 
L 342.326378 84.629053 
L 342.517915 85.152041 
L 342.593466 84.201155 
L 342.785003 85.342218 
L 342.937544 83.8208 
L 343.014388 84.961863 
L 343.091233 84.581509 
L 343.16693 83.8208 
L 343.243774 85.152041 
L 343.358467 85.056952 
L 343.625704 83.630623 
L 343.702545 84.391332 
L 343.779389 83.8208 
L 343.855089 84.010978 
L 344.008775 84.391332 
L 344.084472 83.630623 
L 344.161316 84.201155 
L 344.276013 84.201155 
L 344.352855 83.630623 
L 344.428552 83.68249 
L 344.582239 84.010978 
L 344.657936 83.630623 
L 344.772629 83.668659 
L 344.849473 84.201155 
L 345.002015 83.250269 
L 345.116957 83.516517 
L 345.193801 83.267558 
L 345.270645 83.8208 
L 345.346343 83.630623 
L 345.499887 83.630623 
L 345.575584 83.060092 
L 345.652427 83.8208 
L 345.729273 83.440446 
L 345.80497 84.010978 
L 345.881813 83.8208 
L 346.034355 83.630623 
L 346.111202 83.68249 
L 346.340586 82.869914 
L 346.417428 83.060092 
L 346.493124 83.630623 
L 346.569969 83.060092 
L 346.646813 83.630623 
L 346.722512 83.440446 
L 346.799354 82.679737 
L 346.876198 82.869914 
L 347.028741 83.060092 
L 347.105449 83.060092 
L 347.220144 82.917459 
L 347.29584 82.109206 
L 347.449528 82.869914 
L 347.525225 82.022762 
L 347.793606 83.060092 
L 347.946147 82.48956 
L 348.022992 82.679737 
L 348.09869 82.109206 
L 348.175533 82.299383 
L 348.252378 82.679737 
L 348.328537 81.919029 
L 348.481079 82.299383 
L 348.557925 81.919029 
L 348.825159 82.299383 
L 348.902003 82.299383 
L 349.016696 82.632193 
L 349.093539 81.919029 
L 349.169237 82.299383 
L 349.322926 81.919029 
L 349.475466 82.109206 
L 349.552313 81.538674 
L 349.628007 82.299383 
L 349.704852 81.400364 
L 349.781753 81.538674 
L 349.934298 81.728851 
L 350.011142 81.538674 
L 350.086837 81.919029 
L 350.240524 81.348497 
L 350.316224 81.728851 
L 350.46991 80.777966 
L 350.545609 81.728851 
L 350.699296 80.968143 
L 350.774995 81.728851 
L 350.928682 80.968143 
L 351.004379 81.815296 
L 351.158067 80.968143 
L 351.233765 81.538674 
L 351.310959 80.968143 
L 351.386658 80.985432 
L 351.463501 80.968143 
L 351.655038 80.625824 
L 351.769733 80.930107 
L 351.845428 80.397611 
L 351.922273 80.968143 
L 352.036965 80.350067 
L 352.113809 80.397611 
L 352.228504 80.288939 
L 352.304199 79.636902 
L 352.381044 80.5705 
L 352.457889 80.155567 
L 352.572583 79.779535 
L 352.687275 80.207434 
L 352.916393 79.779535 
L 353.031087 79.636902 
L 353.145779 79.740635 
L 353.222622 79.549128 
L 353.298319 80.207434 
L 353.375165 79.948101 
L 353.681397 79.533169 
L 353.833936 79.948101 
L 353.909632 79.740635 
L 354.063265 80.155567 
L 354.254801 79.473893 
L 354.369493 79.865115 
L 354.445483 79.82708 
L 354.521761 79.325703 
L 354.636455 80.125929 
L 354.790142 79.256548 
L 354.86584 79.533169 
L 354.942683 79.118237 
L 355.01838 79.256548 
L 355.095226 79.533169 
L 355.401454 78.703305 
L 355.477151 78.923738 
L 355.63084 78.703305 
L 355.783382 78.910771 
L 356.050901 78.495839 
L 356.165593 78.495839 
L 356.280287 78.039414 
L 356.394979 78.191556 
L 356.471823 78.910771 
L 356.815903 78.638472 
L 356.930596 78.067941 
L 357.044959 78.353207 
L 357.274347 78.039414 
L 357.389038 78.343698 
L 357.50373 77.887272 
L 357.61876 77.887272 
L 357.733453 77.680794 
L 357.848146 77.925308 
L 357.96284 77.354776 
L 358.306759 78.288373 
L 358.574482 77.582989 
L 358.918006 77.126564 
L 359.032895 77.430847 
L 359.26228 76.974422 
L 359.339126 77.164599 
L 359.453818 76.517997 
L 359.568511 76.865749 
L 359.912589 76.213713 
L 360.027601 76.539731 
L 360.142294 76.517997 
L 360.256987 76.213713 
L 360.371678 76.539731 
L 360.830449 76.050704 
L 361.059835 76.050704 
L 361.174528 75.398668 
L 361.403915 75.887695 
L 361.518607 75.724686 
L 361.6333 75.07265 
L 361.747993 75.833359 
L 362.092071 75.07265 
L 362.321457 75.724686 
L 362.549839 74.540154 
L 362.664531 74.420614 
L 362.779224 74.692296 
L 362.893916 74.583623 
L 363.008609 74.746632 
L 363.352688 74.094596 
L 363.467382 74.583623 
L 363.696767 74.107135 
L 363.811461 74.094596 
L 364.040902 74.257605 
L 364.155597 74.094596 
L 364.270289 74.746632 
L 364.499675 74.094596 
L 364.72906 74.420614 
L 364.843754 74.553985 
L 364.958447 74.282683 
L 365.187832 72.878298 
L 365.302525 74.121764 
L 365.417218 74.107135 
L 365.53191 72.70275 
L 365.646602 74.121764 
L 365.761295 72.790524 
L 365.875988 72.790524 
L 366.067393 73.724121 
L 366.296918 72.790524 
L 366.411607 73.053846 
L 366.5263 72.953533 
L 366.640991 73.053846 
L 366.755684 72.176105 
L 366.870374 72.41017 
L 366.985195 72.351654 
L 367.214457 72.70275 
L 367.32915 72.351654 
L 367.443841 72.41017 
L 367.558534 72.176105 
L 367.673226 72.527202 
L 367.902616 72.029815 
L 368.132007 72.271859 
L 368.246689 72.301497 
L 368.476078 71.649461 
L 368.590515 71.825009 
L 368.705463 71.649461 
L 368.82016 71.975479 
L 369.049546 71.441995 
L 369.164232 71.825009 
L 369.278928 70.819597 
L 369.508314 71.473913 
L 369.623007 70.77172 
L 369.737697 71.122816 
L 369.967084 70.834416 
L 370.081769 71.122816 
L 370.196464 70.947268 
L 370.311158 71.122816 
L 370.540541 70.345389 
L 370.769925 70.596172 
L 370.884618 70.245076 
L 370.999313 70.596172 
L 371.228907 70.069527 
L 371.343597 70.245076 
L 371.572791 70.069527 
L 371.687482 70.18238 
L 371.802176 69.893979 
L 371.916869 70.069527 
L 372.260946 69.530344 
L 372.37564 70.197199 
L 372.719717 69.367335 
L 372.834408 69.367335 
L 372.949099 69.718431 
L 373.063798 69.367335 
L 373.178504 69.574801 
L 373.293182 68.744937 
L 373.407874 68.878308 
L 373.522571 69.367335 
L 373.751951 68.878308 
L 373.866643 68.036095 
L 374.058182 68.796803 
L 374.17287 68.55229 
L 374.287562 68.796803 
L 374.516952 68.138498 
L 374.631641 68.84069 
L 374.860658 68.314046 
L 374.975351 67.96295 
L 375.204737 68.665142 
L 375.319433 68.226272 
L 375.548815 68.314046 
L 375.663507 67.787401 
L 375.778201 68.314046 
L 375.969612 67.500141 
L 376.084304 68.226272 
L 376.198997 67.611853 
L 376.31369 67.611853 
L 376.428551 67.845917 
L 376.543243 67.707607 
L 376.657936 68.063263 
L 376.77263 67.260757 
L 377.116707 67.96295 
L 377.346093 66.670277 
L 377.460785 67.436305 
L 377.804742 67.085209 
L 378.034126 67.085209 
L 378.148823 67.260757 
L 378.492899 66.734112 
L 378.722283 67.500141 
L 379.027368 66.047879 
L 379.142059 66.433173 
L 379.256752 66.383016 
L 379.486232 66.514677 
L 379.715294 66.270164 
L 379.945437 66.734112 
L 380.250518 66.462811 
L 380.365211 65.840413 
L 380.59499 66.734112 
L 380.786529 65.010549 
L 380.901222 66.03192 
L 381.015914 65.856372 
L 381.130419 66.207468 
L 381.245112 65.455119 
L 381.58919 65.680823 
L 381.818802 64.803083 
L 381.971342 65.329727 
L 382.086644 65.154179 
L 382.201337 65.29211 
L 382.659247 64.451986 
L 383.003325 64.451986 
L 383.118019 63.471842 
L 383.461911 64.627534 
L 383.691296 63.223149 
L 383.920682 63.825028 
L 384.265337 62.872053 
L 384.494722 63.825028 
L 384.8388 62.711134 
L 385.068186 63.471842 
L 385.182878 63.574245 
L 385.297571 63.047601 
L 385.412266 61.898558 
L 385.526958 63.047601 
L 385.871028 62.345408 
L 385.98572 62.16986 
L 386.100414 62.872053 
L 386.214988 62.696505 
L 386.329681 63.143354 
L 386.444375 61.818764 
L 386.559067 62.31349 
L 386.788453 61.86892 
L 386.903145 62.345408 
L 387.132176 61.292119 
L 387.361561 61.379893 
L 387.476254 61.570071 
L 387.590949 60.564848 
L 387.70564 60.941023 
L 387.820333 60.589927 
L 388.049718 61.292119 
L 388.279105 60.063282 
L 388.393797 59.887734 
L 388.623184 60.23883 
L 388.852851 59.185541 
L 389.082237 59.749803 
L 389.19693 59.616432 
L 389.273775 58.16417 
L 389.388374 59.858476 
L 389.503068 59.361089 
L 389.617758 59.361089 
L 389.732452 59.536638 
L 389.961837 58.834445 
L 390.076531 59.185541 
L 390.191224 58.658897 
L 390.305918 59.185541 
L 390.419858 58.934758 
L 390.534551 58.371636 
L 390.649244 58.483349 
L 390.763937 58.3078 
L 390.878628 58.834445 
L 390.993323 58.119713 
L 391.108015 58.3078 
L 391.337401 58.132252 
L 391.452093 58.483349 
L 391.566786 58.337058 
L 391.796171 57.956704 
L 391.910865 57.956704 
L 392.599027 57.078963 
L 392.71372 57.630686 
L 392.828413 56.903415 
L 392.943105 57.005818 
L 393.057797 56.903415 
L 393.173406 57.12684 
L 393.632177 56.163605 
L 393.74687 57.195995 
L 394.090949 55.674578 
L 394.205642 55.674578 
L 394.320334 56.24511 
L 394.549718 55.49903 
L 394.664413 55.49903 
L 394.893798 56.504442 
L 395.008491 55.484401 
L 395.12325 55.49903 
L 395.237943 55.674578 
L 395.352635 55.147933 
L 395.467327 55.323482 
L 395.696715 55.147933 
L 395.811407 55.49903 
L 395.9261 54.637248 
L 396.001796 55.259646 
L 396.116488 55.104046 
L 396.231181 54.445741 
L 396.422721 55.259646 
L 396.537413 55.104046 
L 396.652104 54.621289 
L 396.76711 55.104046 
L 396.996494 54.445741 
L 397.340571 54.796837 
L 397.68465 54.044488 
L 397.799344 54.445741 
L 397.914037 53.919096 
L 398.02873 54.270193 
L 398.143182 53.568 
L 398.372574 53.962983 
L 398.487273 53.568 
L 398.487273 53.568 
" clip-path="url(#p1019d2fd12)" style="fill: none; stroke: #4169e1; stroke-width: 1.5; stroke-linecap: square"/>
   </g>
   <g id="patch_3">
    <path d="M 57.6 307.584 
L 57.6 41.472 
" style="fill: none; stroke: #000000; stroke-width: 0.8; stroke-linejoin: miter; stroke-linecap: square"/>
   </g>
   <g id="patch_4">
    <path d="M 414.72 307.584 
L 414.72 41.472 
" style="fill: none; stroke: #000000; stroke-width: 0.8; stroke-linejoin: miter; stroke-linecap: square"/>
   </g>
   <g id="patch_5">
    <path d="M 57.6 307.584 
L 414.72 307.584 
" style="fill: none; stroke: #000000; stroke-width: 0.8; stroke-linejoin: miter; stroke-linecap: square"/>
   </g>
   <g id="patch_6">
    <path d="M 57.6 41.472 
L 414.72 41.472 
" style="fill: none; stroke: #000000; stroke-width: 0.8; stroke-linejoin: miter; stroke-linecap: square"/>
   </g>
  </g>
 </g>
 <defs>
  <clipPath id="p1019d2fd12">
   <rect x="57.6" y="41.472" width="357.12" height="266.112"/>
  </clipPath>
 </defs>
</svg>
