<?xml version="1.0" encoding="utf-8" standalone="no"?>
<!DOCTYPE svg PUBLIC "-//W3C//DTD SVG 1.1//EN"
  "http://www.w3.org/Graphics/SVG/1.1/DTD/svg11.dtd">
<svg xmlns:xlink="http://www.w3.org/1999/xlink" width="460.8pt" height="345.6pt" viewBox="0 0 460.8 345.6" xmlns="http://www.w3.org/2000/svg" version="1.1">
 <metadata>
  <rdf:RDF xmlns:dc="http://purl.org/dc/elements/1.1/" xmlns:cc="http://creativecommons.org/ns#" xmlns:rdf="http://www.w3.org/1999/02/22-rdf-syntax-ns#">
   <cc:Work>
    <dc:type rdf:resource="http://purl.org/dc/dcmitype/StillImage"/>
    <dc:date>2022-05-21T17:11:08.161774</dc:date>
    <dc:format>image/svg+xml</dc:format>
    <dc:creator>
     <cc:Agent>
      <dc:title>Matplotlib v3.5.1, https://matplotlib.org/</dc:title>
     </cc:Agent>
    </dc:creator>
   </cc:Work>
  </rdf:RDF>
 </metadata>
 <defs>
  <style type="text/css">*{stroke-linejoin: round; stroke-linecap: butt}</style>
 </defs>
 <g id="figure_1">
  <g id="patch_1">
   <path d="M 0 345.6 
L 460.8 345.6 
L 460.8 0 
L 0 0 
z
" style="fill: #ffffff"/>
  </g>
  <g id="axes_1">
   <g id="patch_2">
    <path d="M 57.6 307.584 
L 414.72 307.584 
L 414.72 41.472 
L 57.6 41.472 
z
" style="fill: #ffffff"/>
   </g>
   <g id="matplotlib.axis_1">
    <g id="xtick_1">
     <g id="line2d_1">
      <defs>
       <path id="mef870cf40b" d="M 0 0 
L 0 3.5 
" style="stroke: #000000; stroke-width: 0.8"/>
      </defs>
      <g>
       <use xlink:href="#mef870cf40b" x="73.618674" y="307.584" style="stroke: #000000; stroke-width: 0.8"/>
      </g>
     </g>
     <g id="text_1">
      <!-- $\mathdefault{0}$ -->
      <g transform="translate(71.128007 321.502498)scale(0.1 -0.1)">
       <defs>
        <path id="CMR17-30" d="M 2688 2025 
C 2688 2416 2682 3080 2413 3591 
C 2176 4039 1798 4198 1466 4198 
C 1158 4198 768 4058 525 3597 
C 269 3118 243 2524 243 2025 
C 243 1661 250 1106 448 619 
C 723 -39 1216 -128 1466 -128 
C 1760 -128 2208 -7 2470 600 
C 2662 1042 2688 1559 2688 2025 
z
M 1466 -26 
C 1056 -26 813 325 723 812 
C 653 1188 653 1738 653 2096 
C 653 2588 653 2997 736 3387 
C 858 3929 1216 4096 1466 4096 
C 1728 4096 2067 3923 2189 3400 
C 2272 3036 2278 2607 2278 2096 
C 2278 1680 2278 1169 2202 792 
C 2067 95 1690 -26 1466 -26 
z
" transform="scale(0.015625)"/>
       </defs>
       <use xlink:href="#CMR17-30" transform="scale(0.996264)"/>
      </g>
     </g>
    </g>
    <g id="xtick_2">
     <g id="line2d_2">
      <g>
       <use xlink:href="#mef870cf40b" x="129.690986" y="307.584" style="stroke: #000000; stroke-width: 0.8"/>
      </g>
     </g>
     <g id="text_2">
      <!-- $\mathdefault{50}$ -->
      <g transform="translate(124.709651 321.502498)scale(0.1 -0.1)">
       <defs>
        <path id="CMR17-35" d="M 730 3692 
C 794 3666 1056 3584 1325 3584 
C 1920 3584 2246 3911 2432 4100 
C 2432 4157 2432 4192 2394 4192 
C 2387 4192 2374 4192 2323 4163 
C 2099 4058 1837 3973 1517 3973 
C 1325 3973 1037 3999 723 4139 
C 653 4171 640 4171 634 4171 
C 602 4171 595 4164 595 4037 
L 595 2203 
C 595 2089 595 2057 659 2057 
C 691 2057 704 2070 736 2114 
C 941 2401 1222 2522 1542 2522 
C 1766 2522 2246 2382 2246 1289 
C 2246 1085 2246 715 2054 421 
C 1894 159 1645 25 1370 25 
C 947 25 518 320 403 814 
C 429 807 480 795 506 795 
C 589 795 749 840 749 1038 
C 749 1210 627 1280 506 1280 
C 358 1280 262 1190 262 1011 
C 262 454 704 -128 1382 -128 
C 2042 -128 2669 440 2669 1264 
C 2669 2030 2170 2624 1549 2624 
C 1222 2624 947 2503 730 2274 
L 730 3692 
z
" transform="scale(0.015625)"/>
       </defs>
       <use xlink:href="#CMR17-35" transform="scale(0.996264)"/>
       <use xlink:href="#CMR17-30" transform="translate(45.690477 0)scale(0.996264)"/>
      </g>
     </g>
    </g>
    <g id="xtick_3">
     <g id="line2d_3">
      <g>
       <use xlink:href="#mef870cf40b" x="185.763298" y="307.584" style="stroke: #000000; stroke-width: 0.8"/>
      </g>
     </g>
     <g id="text_3">
      <!-- $\mathdefault{100}$ -->
      <g transform="translate(178.291295 321.502498)scale(0.1 -0.1)">
       <defs>
        <path id="CMR17-31" d="M 1702 4058 
C 1702 4192 1696 4192 1606 4192 
C 1357 3916 979 3827 621 3827 
C 602 3827 570 3827 563 3808 
C 557 3795 557 3782 557 3648 
C 755 3648 1088 3686 1344 3839 
L 1344 461 
C 1344 236 1331 160 781 160 
L 589 160 
L 589 0 
C 896 0 1216 0 1523 0 
C 1830 0 2150 0 2458 0 
L 2458 160 
L 2266 160 
C 1715 160 1702 230 1702 458 
L 1702 4058 
z
" transform="scale(0.015625)"/>
       </defs>
       <use xlink:href="#CMR17-31" transform="scale(0.996264)"/>
       <use xlink:href="#CMR17-30" transform="translate(45.690477 0)scale(0.996264)"/>
       <use xlink:href="#CMR17-30" transform="translate(91.380954 0)scale(0.996264)"/>
      </g>
     </g>
    </g>
    <g id="xtick_4">
     <g id="line2d_4">
      <g>
       <use xlink:href="#mef870cf40b" x="241.83561" y="307.584" style="stroke: #000000; stroke-width: 0.8"/>
      </g>
     </g>
     <g id="text_4">
      <!-- $\mathdefault{150}$ -->
      <g transform="translate(234.363607 321.502498)scale(0.1 -0.1)">
       <use xlink:href="#CMR17-31" transform="scale(0.996264)"/>
       <use xlink:href="#CMR17-35" transform="translate(45.690477 0)scale(0.996264)"/>
       <use xlink:href="#CMR17-30" transform="translate(91.380954 0)scale(0.996264)"/>
      </g>
     </g>
    </g>
    <g id="xtick_5">
     <g id="line2d_5">
      <g>
       <use xlink:href="#mef870cf40b" x="297.907922" y="307.584" style="stroke: #000000; stroke-width: 0.8"/>
      </g>
     </g>
     <g id="text_5">
      <!-- $\mathdefault{200}$ -->
      <g transform="translate(290.435919 321.502498)scale(0.1 -0.1)">
       <defs>
        <path id="CMR17-32" d="M 2669 989 
L 2554 989 
C 2490 536 2438 459 2413 420 
C 2381 369 1920 369 1830 369 
L 602 369 
C 832 619 1280 1072 1824 1597 
C 2214 1967 2669 2402 2669 3035 
C 2669 3790 2067 4224 1395 4224 
C 691 4224 262 3604 262 3030 
C 262 2780 448 2748 525 2748 
C 589 2748 781 2787 781 3010 
C 781 3207 614 3264 525 3264 
C 486 3264 448 3258 422 3245 
C 544 3790 915 4058 1306 4058 
C 1862 4058 2227 3617 2227 3035 
C 2227 2479 1901 2000 1536 1584 
L 262 146 
L 262 0 
L 2515 0 
L 2669 989 
z
" transform="scale(0.015625)"/>
       </defs>
       <use xlink:href="#CMR17-32" transform="scale(0.996264)"/>
       <use xlink:href="#CMR17-30" transform="translate(45.690477 0)scale(0.996264)"/>
       <use xlink:href="#CMR17-30" transform="translate(91.380954 0)scale(0.996264)"/>
      </g>
     </g>
    </g>
    <g id="xtick_6">
     <g id="line2d_6">
      <g>
       <use xlink:href="#mef870cf40b" x="353.980234" y="307.584" style="stroke: #000000; stroke-width: 0.8"/>
      </g>
     </g>
     <g id="text_6">
      <!-- $\mathdefault{250}$ -->
      <g transform="translate(346.508231 321.502498)scale(0.1 -0.1)">
       <use xlink:href="#CMR17-32" transform="scale(0.996264)"/>
       <use xlink:href="#CMR17-35" transform="translate(45.690477 0)scale(0.996264)"/>
       <use xlink:href="#CMR17-30" transform="translate(91.380954 0)scale(0.996264)"/>
      </g>
     </g>
    </g>
    <g id="xtick_7">
     <g id="line2d_7">
      <g>
       <use xlink:href="#mef870cf40b" x="410.052546" y="307.584" style="stroke: #000000; stroke-width: 0.8"/>
      </g>
     </g>
     <g id="text_7">
      <!-- $\mathdefault{300}$ -->
      <g transform="translate(402.580543 321.502498)scale(0.1 -0.1)">
       <defs>
        <path id="CMR17-33" d="M 1414 2157 
C 1984 2157 2234 1662 2234 1090 
C 2234 320 1824 25 1453 25 
C 1114 25 563 194 390 693 
C 422 680 454 680 486 680 
C 640 680 755 782 755 948 
C 755 1133 614 1216 486 1216 
C 378 1216 211 1165 211 926 
C 211 335 787 -128 1466 -128 
C 2176 -128 2720 430 2720 1085 
C 2720 1707 2208 2157 1600 2227 
C 2086 2328 2554 2756 2554 3329 
C 2554 3820 2048 4179 1472 4179 
C 890 4179 378 3829 378 3329 
C 378 3110 544 3072 627 3072 
C 762 3072 877 3155 877 3321 
C 877 3486 762 3569 627 3569 
C 602 3569 570 3569 544 3557 
C 730 3959 1235 4032 1459 4032 
C 1683 4032 2106 3925 2106 3320 
C 2106 3143 2080 2828 1862 2550 
C 1670 2304 1453 2304 1242 2284 
C 1210 2284 1062 2269 1037 2269 
C 992 2263 966 2257 966 2208 
C 966 2163 973 2157 1101 2157 
L 1414 2157 
z
" transform="scale(0.015625)"/>
       </defs>
       <use xlink:href="#CMR17-33" transform="scale(0.996264)"/>
       <use xlink:href="#CMR17-30" transform="translate(45.690477 0)scale(0.996264)"/>
       <use xlink:href="#CMR17-30" transform="translate(91.380954 0)scale(0.996264)"/>
      </g>
     </g>
    </g>
    <g id="text_8">
     <!-- Temps (s) -->
     <g transform="translate(202.039235 339.394845)scale(0.16 -0.16)">
      <defs>
       <path id="CMR17-54" d="M 3981 4326 
L 288 4326 
L 179 2918 
L 294 2918 
C 378 3976 467 4160 1453 4160 
C 1568 4160 1754 4160 1805 4154 
C 1926 4135 1926 4058 1926 3912 
L 1926 459 
C 1926 230 1907 160 1376 160 
L 1197 160 
L 1197 0 
C 1504 0 1824 0 2138 0 
C 2451 0 2771 0 3078 0 
L 3078 160 
L 2899 160 
C 2368 160 2349 230 2349 459 
L 2349 3912 
C 2349 4052 2349 4129 2464 4154 
C 2515 4160 2701 4160 2816 4160 
C 3795 4160 3891 3976 3974 2918 
L 4090 2918 
L 3981 4326 
z
" transform="scale(0.015625)"/>
       <path id="CMR17-65" d="M 2438 1472 
C 2464 1498 2464 1511 2464 1576 
C 2464 2238 2118 2816 1389 2816 
C 710 2816 173 2169 173 1383 
C 173 551 781 -64 1459 -64 
C 2176 -64 2458 607 2458 740 
C 2458 784 2419 784 2406 784 
C 2362 784 2355 771 2330 696 
C 2189 265 1837 51 1504 51 
C 1229 51 954 203 781 480 
C 582 803 582 1176 582 1472 
L 2438 1472 
z
M 589 1568 
C 634 2505 1126 2714 1382 2714 
C 1818 2714 2112 2297 2118 1568 
L 589 1568 
z
" transform="scale(0.015625)"/>
       <path id="CMR17-6d" d="M 4326 1933 
C 4326 2252 4269 2790 3507 2790 
C 3072 2790 2771 2496 2656 2151 
L 2650 2151 
C 2573 2676 2195 2790 1837 2790 
C 1331 2790 1069 2400 973 2144 
L 966 2144 
L 966 2790 
L 211 2720 
L 211 2554 
C 589 2554 646 2515 646 2208 
L 646 428 
C 646 184 621 153 211 153 
L 211 -13 
C 365 0 646 0 813 0 
C 979 0 1267 0 1421 -13 
L 1421 153 
C 1011 153 986 178 986 428 
L 986 1658 
C 986 2247 1344 2688 1792 2688 
C 2266 2688 2317 2266 2317 1958 
L 2317 428 
C 2317 184 2291 153 1882 153 
L 1882 -13 
C 2035 0 2317 0 2483 0 
C 2650 0 2938 0 3091 -13 
L 3091 153 
C 2682 153 2656 178 2656 428 
L 2656 1658 
C 2656 2247 3014 2688 3462 2688 
C 3936 2688 3987 2266 3987 1958 
L 3987 428 
C 3987 184 3962 153 3552 153 
L 3552 -13 
C 3706 0 3987 0 4154 0 
C 4320 0 4608 0 4762 -13 
L 4762 153 
C 4352 153 4326 178 4326 428 
L 4326 1933 
z
" transform="scale(0.015625)"/>
       <path id="CMR17-70" d="M 1408 -1063 
C 998 -1063 973 -1037 973 -789 
L 973 402 
C 1158 134 1427 -38 1766 -38 
C 2406 -38 3053 523 3053 1388 
C 3053 2191 2496 2802 1837 2802 
C 1453 2802 1139 2592 960 2338 
L 960 2802 
L 198 2732 
L 198 2567 
C 576 2567 634 2528 634 2223 
L 634 -789 
C 634 -1031 608 -1063 198 -1063 
L 198 -1228 
C 352 -1216 634 -1216 800 -1216 
C 966 -1216 1254 -1216 1408 -1228 
L 1408 -1063 
z
M 973 2012 
C 973 2102 973 2235 1222 2471 
C 1254 2497 1472 2688 1792 2688 
C 2259 2688 2643 2108 2643 1382 
C 2643 656 2234 64 1728 64 
C 1498 64 1248 172 1056 472 
C 973 612 973 650 973 752 
L 973 2012 
z
" transform="scale(0.015625)"/>
       <path id="CMR17-73" d="M 1978 2697 
C 1978 2813 1971 2819 1933 2819 
C 1907 2819 1901 2813 1824 2717 
C 1805 2691 1747 2626 1728 2601 
C 1523 2819 1235 2819 1126 2819 
C 416 2819 160 2447 160 2076 
C 160 1498 813 1365 998 1325 
C 1402 1243 1542 1217 1677 1101 
C 1760 1025 1901 884 1901 654 
C 1901 384 1747 38 1158 38 
C 602 38 403 460 288 1021 
C 269 1110 269 1117 218 1117 
C 166 1117 160 1110 160 983 
L 160 63 
C 160 -51 166 -58 205 -58 
C 237 -58 243 -51 275 0 
C 314 57 410 211 448 276 
C 576 103 800 -64 1158 -64 
C 1792 -64 2131 283 2131 784 
C 2131 1112 1958 1285 1875 1362 
C 1683 1561 1459 1606 1190 1657 
C 838 1735 390 1825 390 2217 
C 390 2383 480 2737 1126 2737 
C 1811 2737 1850 2094 1862 1888 
C 1869 1856 1901 1849 1920 1849 
C 1978 1849 1978 1869 1978 1978 
L 1978 2697 
z
" transform="scale(0.015625)"/>
       <path id="CMR17-28" d="M 1958 -1561 
C 1958 -1555 1958 -1542 1939 -1523 
C 1645 -1224 858 -407 858 1581 
C 858 3569 1632 4379 1946 4697 
C 1946 4704 1958 4717 1958 4736 
C 1958 4755 1939 4768 1914 4768 
C 1843 4768 1299 4296 986 3594 
C 666 2887 576 2199 576 1588 
C 576 1128 621 351 1005 -471 
C 1312 -1135 1837 -1600 1914 -1600 
C 1946 -1600 1958 -1587 1958 -1561 
z
" transform="scale(0.015625)"/>
       <path id="CMR17-29" d="M 1683 1581 
C 1683 2040 1638 2817 1254 3639 
C 947 4303 422 4768 346 4768 
C 326 4768 301 4761 301 4729 
C 301 4717 307 4710 314 4697 
C 621 4378 1402 3568 1402 1584 
C 1402 -407 627 -1217 314 -1537 
C 307 -1549 301 -1556 301 -1568 
C 301 -1600 326 -1600 346 -1600 
C 416 -1600 960 -1128 1274 -426 
C 1594 281 1683 969 1683 1581 
z
" transform="scale(0.015625)"/>
      </defs>
      <use xlink:href="#CMR17-54" transform="scale(0.996264)"/>
      <use xlink:href="#CMR17-65" transform="translate(58.702625 0)scale(0.996264)"/>
      <use xlink:href="#CMR17-6d" transform="translate(99.188286 0)scale(0.996264)"/>
      <use xlink:href="#CMR17-70" transform="translate(176.107875 0)scale(0.996264)"/>
      <use xlink:href="#CMR17-73" transform="translate(227.003245 0)scale(0.996264)"/>
      <use xlink:href="#CMR17-28" transform="translate(292.880549 0)scale(0.996264)"/>
      <use xlink:href="#CMR17-73" transform="translate(328.161317 0)scale(0.996264)"/>
      <use xlink:href="#CMR17-29" transform="translate(363.962655 0)scale(0.996264)"/>
     </g>
    </g>
   </g>
   <g id="matplotlib.axis_2">
    <g id="ytick_1">
     <g id="line2d_8">
      <defs>
       <path id="m82a63d138f" d="M 0 0 
L -3.5 0 
" style="stroke: #000000; stroke-width: 0.8"/>
      </defs>
      <g>
       <use xlink:href="#m82a63d138f" x="57.6" y="293.869056" style="stroke: #000000; stroke-width: 0.8"/>
      </g>
     </g>
     <g id="text_9">
      <!-- $\mathdefault{0.0}$ -->
      <g transform="translate(37.869921 297.328306)scale(0.1 -0.1)">
       <defs>
        <path id="CMMI12-3a" d="M 1178 307 
C 1178 492 1024 619 870 619 
C 685 619 557 466 557 313 
C 557 128 710 0 864 0 
C 1050 0 1178 153 1178 307 
z
" transform="scale(0.015625)"/>
       </defs>
       <use xlink:href="#CMR17-30" transform="scale(0.996264)"/>
       <use xlink:href="#CMMI12-3a" transform="translate(45.690477 0)scale(0.996264)"/>
       <use xlink:href="#CMR17-30" transform="translate(72.787654 0)scale(0.996264)"/>
      </g>
     </g>
    </g>
    <g id="ytick_2">
     <g id="line2d_9">
      <g>
       <use xlink:href="#m82a63d138f" x="57.6" y="238.993525" style="stroke: #000000; stroke-width: 0.8"/>
      </g>
     </g>
     <g id="text_10">
      <!-- $\mathdefault{0.5}$ -->
      <g transform="translate(37.869921 242.452774)scale(0.1 -0.1)">
       <use xlink:href="#CMR17-30" transform="scale(0.996264)"/>
       <use xlink:href="#CMMI12-3a" transform="translate(45.690477 0)scale(0.996264)"/>
       <use xlink:href="#CMR17-35" transform="translate(72.787654 0)scale(0.996264)"/>
      </g>
     </g>
    </g>
    <g id="ytick_3">
     <g id="line2d_10">
      <g>
       <use xlink:href="#m82a63d138f" x="57.6" y="184.117994" style="stroke: #000000; stroke-width: 0.8"/>
      </g>
     </g>
     <g id="text_11">
      <!-- $\mathdefault{1.0}$ -->
      <g transform="translate(37.869921 187.577243)scale(0.1 -0.1)">
       <use xlink:href="#CMR17-31" transform="scale(0.996264)"/>
       <use xlink:href="#CMMI12-3a" transform="translate(45.690477 0)scale(0.996264)"/>
       <use xlink:href="#CMR17-30" transform="translate(72.787654 0)scale(0.996264)"/>
      </g>
     </g>
    </g>
    <g id="ytick_4">
     <g id="line2d_11">
      <g>
       <use xlink:href="#m82a63d138f" x="57.6" y="129.242463" style="stroke: #000000; stroke-width: 0.8"/>
      </g>
     </g>
     <g id="text_12">
      <!-- $\mathdefault{1.5}$ -->
      <g transform="translate(37.869921 132.701712)scale(0.1 -0.1)">
       <use xlink:href="#CMR17-31" transform="scale(0.996264)"/>
       <use xlink:href="#CMMI12-3a" transform="translate(45.690477 0)scale(0.996264)"/>
       <use xlink:href="#CMR17-35" transform="translate(72.787654 0)scale(0.996264)"/>
      </g>
     </g>
    </g>
    <g id="ytick_5">
     <g id="line2d_12">
      <g>
       <use xlink:href="#m82a63d138f" x="57.6" y="74.366932" style="stroke: #000000; stroke-width: 0.8"/>
      </g>
     </g>
     <g id="text_13">
      <!-- $\mathdefault{2.0}$ -->
      <g transform="translate(37.869921 77.826181)scale(0.1 -0.1)">
       <use xlink:href="#CMR17-32" transform="scale(0.996264)"/>
       <use xlink:href="#CMMI12-3a" transform="translate(45.690477 0)scale(0.996264)"/>
       <use xlink:href="#CMR17-30" transform="translate(72.787654 0)scale(0.996264)"/>
      </g>
     </g>
    </g>
    <g id="text_14">
     <!-- Tension (V) -->
     <g transform="translate(29.884865 215.322751)rotate(-90)scale(0.16 -0.16)">
      <defs>
       <path id="CMR17-6e" d="M 2656 1933 
C 2656 2259 2592 2790 1837 2790 
C 1331 2790 1069 2400 973 2144 
L 966 2144 
L 966 2790 
L 211 2720 
L 211 2554 
C 589 2554 646 2515 646 2208 
L 646 428 
C 646 184 621 153 211 153 
L 211 -13 
C 365 0 646 0 813 0 
C 979 0 1267 0 1421 -13 
L 1421 153 
C 1011 153 986 178 986 428 
L 986 1658 
C 986 2247 1344 2688 1792 2688 
C 2266 2688 2317 2266 2317 1958 
L 2317 428 
C 2317 184 2291 153 1882 153 
L 1882 -13 
C 2035 0 2317 0 2483 0 
C 2650 0 2938 0 3091 -13 
L 3091 153 
C 2682 153 2656 178 2656 428 
L 2656 1933 
z
" transform="scale(0.015625)"/>
       <path id="CMR17-69" d="M 992 3909 
C 992 4049 877 4170 730 4170 
C 589 4170 467 4056 467 3909 
C 467 3769 582 3648 730 3648 
C 870 3648 992 3763 992 3909 
z
M 243 2706 
L 243 2541 
C 602 2541 653 2502 653 2197 
L 653 427 
C 653 184 627 153 218 153 
L 218 -13 
C 371 0 646 0 806 0 
C 960 0 1222 0 1370 -13 
L 1370 153 
C 992 153 979 191 979 420 
L 979 2776 
L 243 2706 
z
" transform="scale(0.015625)"/>
       <path id="CMR17-6f" d="M 2758 1356 
C 2758 2176 2163 2816 1466 2816 
C 768 2816 173 2176 173 1356 
C 173 551 768 -64 1466 -64 
C 2163 -64 2758 551 2758 1356 
z
M 1466 51 
C 1165 51 909 230 762 480 
C 602 767 582 1126 582 1408 
C 582 1677 595 2010 762 2298 
C 890 2509 1139 2714 1466 2714 
C 1754 2714 1997 2554 2150 2330 
C 2349 2029 2349 1607 2349 1408 
C 2349 1158 2336 775 2163 467 
C 1984 173 1709 51 1466 51 
z
" transform="scale(0.015625)"/>
       <path id="CMR17-56" d="M 3776 3745 
C 3834 3886 3936 4160 4365 4160 
L 4365 4332 
C 4218 4319 4051 4319 3891 4319 
C 3738 4319 3475 4319 3328 4332 
L 3328 4160 
C 3648 4160 3661 3936 3661 3898 
C 3661 3827 3642 3783 3622 3732 
L 2362 446 
L 1043 3886 
C 1024 3931 1011 3963 1011 3994 
C 1011 4160 1267 4160 1402 4160 
L 1402 4319 
C 1197 4319 896 4319 685 4319 
C 518 4319 218 4319 64 4332 
L 64 4160 
C 435 4160 506 4135 582 3931 
L 2106 -26 
C 2138 -115 2144 -128 2214 -128 
C 2285 -128 2291 -115 2323 -26 
L 3776 3745 
z
" transform="scale(0.015625)"/>
      </defs>
      <use xlink:href="#CMR17-54" transform="scale(0.996264)"/>
      <use xlink:href="#CMR17-65" transform="translate(58.702625 0)scale(0.996264)"/>
      <use xlink:href="#CMR17-6e" transform="translate(99.188286 0)scale(0.996264)"/>
      <use xlink:href="#CMR17-73" transform="translate(150.083655 0)scale(0.996264)"/>
      <use xlink:href="#CMR17-69" transform="translate(185.884993 0)scale(0.996264)"/>
      <use xlink:href="#CMR17-6f" transform="translate(210.756052 0)scale(0.996264)"/>
      <use xlink:href="#CMR17-6e" transform="translate(256.446529 0)scale(0.996264)"/>
      <use xlink:href="#CMR17-28" transform="translate(337.417865 0)scale(0.996264)"/>
      <use xlink:href="#CMR17-56" transform="translate(372.698633 0)scale(0.996264)"/>
      <use xlink:href="#CMR17-29" transform="translate(441.771062 0)scale(0.996264)"/>
     </g>
    </g>
   </g>
   <g id="line2d_13">
    <path d="M 73.832727 294.649994 
L 74.018842 294.535721 
L 74.169117 295.194991 
L 74.24322 294.649994 
L 74.318358 294.992815 
L 74.438353 294.172123 
L 74.50452 294.649994 
L 74.579654 294.421447 
L 74.728807 294.878541 
L 74.803945 294.535721 
L 74.879083 294.992815 
L 74.953865 294.878541 
L 75.02788 294.764268 
L 75.103017 295.107088 
L 75.25217 294.475223 
L 75.402443 294.878541 
L 75.476458 294.649994 
L 75.551595 294.878541 
L 75.626733 294.764268 
L 75.700746 294.649994 
L 75.775612 295.488 
L 75.957296 294.504555 
L 76.039164 294.543339 
L 76.114301 294.662023 
L 76.187195 294.504555 
L 76.31616 294.726176 
L 76.378962 294.565793 
L 76.448493 294.878541 
L 76.523629 294.482393 
L 76.598767 294.535721 
L 76.672778 294.764268 
L 76.82304 294.475223 
L 76.972195 294.764268 
L 77.047329 294.535721 
L 77.196482 294.878541 
L 77.420787 294.649994 
L 77.495923 294.670771 
L 77.560967 294.491769 
L 77.689937 294.662023 
L 77.757223 294.649994 
L 77.832358 294.421447 
L 77.906374 294.649994 
L 77.981404 294.535721 
L 78.188873 294.565793 
L 78.256159 294.758253 
L 78.323448 294.726176 
L 78.392975 294.307173 
L 78.466993 294.878541 
L 78.542128 294.649994 
L 78.617264 294.421447 
L 78.691282 294.848068 
L 78.841408 294.535721 
L 78.915423 294.649994 
L 79.065699 294.421447 
L 79.140835 295.183271 
L 79.265316 294.565793 
L 79.329239 294.726176 
L 79.402132 294.421447 
L 79.476147 294.992815 
L 79.62642 294.535721 
L 79.701558 294.992815 
L 79.775575 294.535721 
L 79.850711 294.878541 
L 79.912391 294.836987 
L 80.037992 294.565793 
L 80.187143 294.535721 
L 80.26116 294.764268 
L 80.336297 294.649994 
L 80.41122 294.649994 
L 80.486358 294.764268 
L 80.560374 294.421447 
L 80.710647 294.764268 
L 80.859798 294.351125 
L 80.934936 294.649994 
L 81.084088 294.360501 
L 81.159226 294.878541 
L 81.23324 294.649994 
L 81.308377 294.535721 
L 81.383515 294.764268 
L 81.522995 294.269082 
L 81.590282 294.726176 
L 81.657571 294.565793 
L 81.734952 294.373332 
L 81.803357 294.726176 
L 81.869524 294.373332 
L 81.943537 294.764268 
L 82.018674 294.421447 
L 82.09381 295.030906 
L 82.156613 295.003203 
L 82.286701 294.469562 
L 82.654494 294.764268 
L 82.878785 294.535721 
L 82.9528 294.992815 
L 83.103072 294.491769 
L 83.177088 294.878541 
L 83.327362 294.535721 
L 83.401753 294.649994 
L 83.476894 294.535721 
L 83.626047 294.764268 
L 83.701181 294.535721 
L 83.775657 294.649994 
L 83.850793 294.878541 
L 83.924806 294.773058 
L 83.999943 294.421447 
L 84.07508 294.764268 
L 84.224232 294.421447 
L 84.299371 294.535721 
L 84.373384 294.1929 
L 84.448521 294.307173 
L 84.523113 294.649994 
L 84.598251 294.421447 
L 84.672265 294.649994 
L 84.896553 294.307173 
L 84.971514 294.421447 
L 85.046651 293.964353 
L 85.110575 294.269082 
L 85.175618 294.218294 
L 85.240662 294.180871 
L 85.307948 294.421447 
L 85.383085 293.964353 
L 85.532238 294.1929 
L 85.756526 293.850079 
L 85.980815 294.078626 
L 86.055952 293.392985 
L 86.131093 293.964353 
L 86.205106 293.392985 
L 86.280117 293.507259 
L 86.355253 293.850079 
L 86.504403 293.385367 
L 86.579539 293.399707 
L 86.72869 293.164438 
L 86.803828 293.392985 
L 86.952979 292.745435 
L 87.016903 293.050165 
L 87.080825 293.202529 
L 87.143629 292.929877 
L 87.214281 293.164438 
L 87.289421 292.935891 
L 87.364551 293.392985 
L 87.438566 293.278712 
L 87.513702 292.707344 
L 87.588839 293.278712 
L 87.737991 292.707344 
L 87.813128 293.278712 
L 87.962281 292.59307 
L 88.036667 292.821618 
L 88.186943 292.25025 
L 88.260956 292.59307 
L 88.407867 291.845098 
L 88.474031 292.160034 
L 88.539076 292.288341 
L 88.747665 291.678882 
L 88.821679 292.25025 
L 88.971957 291.450335 
L 89.04597 291.907429 
L 89.121106 291.678882 
L 89.196258 291.564609 
L 89.34541 291.678882 
L 89.420548 291.336062 
L 89.569528 291.678882 
L 89.644666 291.538238 
L 89.79382 291.780459 
L 90.018106 290.993241 
L 90.167257 291.336062 
L 90.242395 290.993241 
L 90.317533 291.256949 
L 90.541823 290.421873 
L 90.615838 290.926021 
L 90.766111 290.193326 
L 90.840125 290.764694 
L 90.915263 290.536147 
L 90.990402 290.182938 
L 91.054041 290.634096 
L 91.116842 290.459965 
L 91.180771 290.427888 
L 91.326559 289.850506 
L 91.401705 289.964779 
L 91.475721 289.68429 
L 91.540767 290.111702 
L 91.606122 289.946736 
L 91.887429 289.393412 
L 91.962571 289.736232 
L 92.036587 289.621959 
L 92.111724 289.458711 
L 92.17678 289.68429 
L 92.448187 288.936317 
L 92.522214 289.393412 
L 92.672782 288.479223 
L 92.746805 289.050591 
L 92.821553 288.936317 
L 92.896688 288.479223 
L 93.045841 289.197514 
L 93.120977 288.593497 
L 93.196114 288.936317 
L 93.345268 288.123706 
L 93.420403 288.875372 
L 93.569556 287.778346 
L 93.719112 288.387804 
L 93.793128 287.778346 
L 93.868266 288.022129 
L 93.943402 287.891531 
L 94.018539 287.534562 
L 94.167329 288.022129 
L 94.242471 287.656454 
L 94.317047 288.022129 
L 94.466394 287.238539 
L 94.540915 287.778346 
L 94.690653 287.238539 
L 94.7658 287.760933 
L 94.840949 287.656454 
L 94.914964 287.107941 
L 95.064133 287.534562 
L 95.13927 287.238539 
L 95.214415 287.630334 
L 95.363573 286.896974 
L 95.43872 287.499736 
L 95.587882 286.454949 
L 95.662351 287.037619 
L 95.812079 286.454949 
L 95.887447 287.107941 
L 96.036604 286.454949 
L 96.111738 286.846744 
L 96.185755 285.932556 
L 96.260893 286.193753 
L 96.410042 286.68132 
L 96.709055 285.695104 
L 96.783643 286.193753 
L 96.858781 286.053108 
L 97.345294 284.670106 
L 97.41931 285.349887 
L 97.494451 284.670106 
L 97.569583 285.631175 
L 97.643438 284.365376 
L 97.756615 284.580479 
L 97.830641 283.755917 
L 97.905773 284.927953 
L 97.980206 284.032944 
L 98.05534 284.213011 
L 98.130475 284.787309 
L 98.279628 284.060647 
L 98.428779 284.365376 
L 98.503916 283.603553 
L 98.577933 284.50602 
L 98.653069 284.084087 
L 98.727441 283.603553 
L 98.80315 284.213011 
L 98.877179 283.943443 
L 98.952314 283.603553 
L 99.02746 283.908282 
L 99.176612 282.958933 
L 99.251748 283.908282 
L 99.325773 283.52151 
L 99.400909 283.298823 
L 99.476048 284.531592 
L 99.737343 282.841729 
L 99.81248 283.755917 
L 99.886495 282.677644 
L 100.036769 283.451188 
L 100.148914 282.651273 
L 100.22293 283.146458 
L 100.298067 282.079905 
L 100.485086 283.390242 
L 100.709381 282.23227 
L 100.784513 281.622811 
L 100.85853 281.927541 
L 101.082819 282.384635 
L 101.307106 281.872135 
L 101.382243 281.775176 
L 101.457381 281.373487 
L 101.569526 281.622811 
L 101.755402 280.708623 
L 101.830539 281.470447 
L 102.017821 280.860988 
L 102.091839 281.013352 
L 102.166973 280.860988 
L 102.242111 281.165717 
L 102.428274 280.556258 
L 102.503407 281.013352 
L 102.652558 280.556258 
L 102.727696 281.013352 
L 102.876848 280.708623 
L 103.139268 280.708623 
L 103.213285 280.251529 
L 103.288866 280.708623 
L 103.438024 280.099164 
L 103.513158 280.403894 
L 103.587172 280.251529 
L 103.662308 279.946799 
L 103.737444 280.403894 
L 103.886597 279.794435 
L 103.961733 280.251529 
L 104.147895 279.946799 
L 104.223035 279.337341 
L 104.298172 279.794435 
L 104.372189 279.64207 
L 104.44732 279.337341 
L 104.522456 279.794435 
L 104.671609 279.184976 
L 104.74675 279.794435 
L 104.895662 279.032611 
L 104.9708 279.64207 
L 105.119952 279.032611 
L 105.195089 279.337341 
L 105.270227 279.184976 
L 105.344242 278.727882 
L 105.41938 279.337341 
L 105.606661 278.270788 
L 105.680675 278.575517 
L 105.755812 278.727882 
L 105.867956 278.308879 
L 106.055239 278.423152 
L 106.2414 278.270788 
L 106.316846 278.423152 
L 106.39086 277.966058 
L 106.465996 278.270788 
L 106.578141 278.194605 
L 106.653277 278.423152 
L 106.802434 277.966058 
L 106.877571 278.270788 
L 106.951587 277.813694 
L 107.02672 277.966058 
L 107.138864 277.966058 
L 107.363153 277.539437 
L 107.43829 277.966058 
L 107.550434 277.313067 
L 107.624451 277.508964 
L 107.774724 277.813694 
L 107.848741 277.508964 
L 107.998244 277.813694 
L 108.148519 277.356599 
L 108.222533 277.508964 
L 108.29767 277.356599 
L 108.372808 277.661329 
L 108.597099 276.899505 
L 108.746252 277.05187 
L 108.821387 276.747141 
L 108.970537 277.204235 
L 109.045675 276.747141 
L 109.119689 276.899505 
L 109.308092 276.398878 
L 109.382109 276.594776 
L 109.456537 276.747141 
L 109.605691 276.442411 
L 109.680829 276.747141 
L 109.755962 276.137682 
L 109.829981 276.442411 
L 109.905114 276.442411 
L 109.980251 276.290046 
L 110.054267 276.442411 
L 110.204541 276.137682 
L 110.316685 276.594776 
L 110.390705 275.985317 
L 110.465839 276.290046 
L 110.540973 275.680588 
L 110.614991 275.985317 
L 110.765266 275.680588 
L 110.83928 275.985317 
L 110.914238 275.555926 
L 110.989374 275.680588 
L 111.063389 275.985317 
L 111.213662 275.375858 
L 111.287677 275.528223 
L 111.362815 275.528223 
L 111.437953 275.223493 
L 111.587104 275.528223 
L 111.662243 275.071129 
L 111.736258 275.375858 
L 111.886532 274.766399 
L 111.960546 275.375858 
L 112.110821 274.520272 
L 112.184842 275.375858 
L 112.335112 274.46167 
L 112.409127 275.071129 
L 112.558563 274.614035 
L 112.633702 274.918764 
L 112.708837 274.766399 
L 112.782853 274.15694 
L 112.894999 274.766399 
L 112.970134 274.614035 
L 113.119292 274.004576 
L 113.194426 274.46167 
L 113.269571 274.309305 
L 113.343576 274.15694 
L 113.418713 274.309305 
L 113.49385 274.15694 
L 113.567865 273.395117 
L 113.643002 274.309305 
L 113.718138 274.15694 
L 113.792156 273.242752 
L 113.867291 273.852211 
L 113.942428 273.699846 
L 114.016444 273.395117 
L 114.09158 274.004576 
L 114.240734 273.242752 
L 114.31587 273.852211 
L 114.465024 272.938023 
L 114.540159 273.547482 
L 114.689312 272.785658 
L 114.876593 273.395117 
L 114.951729 273.242752 
L 115.025747 272.785658 
L 115.176019 273.395117 
L 115.250035 272.938023 
L 115.325172 273.242752 
L 115.474324 272.176199 
L 115.58647 273.052296 
L 115.661606 272.938023 
L 115.773757 272.709476 
L 115.848893 272.176199 
L 115.961033 272.709476 
L 116.035047 271.719105 
L 116.110605 272.785658 
L 116.259758 271.719105 
L 116.408909 272.176199 
L 116.484218 271.56674 
L 116.559355 272.176199 
L 116.708507 271.262011 
L 116.783645 272.023835 
L 116.9328 270.957282 
L 117.007936 271.719105 
L 117.081948 271.414376 
L 117.157086 271.109646 
L 117.232224 271.719105 
L 117.381374 270.957282 
L 117.456513 271.56674 
L 117.530526 271.414376 
L 117.605663 270.957282 
L 117.679679 271.414376 
L 117.829953 270.804917 
L 117.903969 271.262011 
L 118.054243 270.652552 
L 118.128259 270.804917 
L 118.278359 270.569444 
L 118.353496 270.804917 
L 118.502653 270.195458 
L 118.57779 270.652552 
L 118.726941 270.043093 
L 118.802075 270.347823 
L 118.87609 270.043093 
L 119.026364 270.300941 
L 119.175517 269.738364 
L 119.250656 270.043093 
L 119.32467 269.890729 
L 119.399805 269.585999 
L 119.474942 269.738364 
L 119.587093 269.982147 
L 119.73624 269.28127 
L 119.811376 269.585999 
L 119.960529 269.128905 
L 120.035665 269.585999 
L 120.110608 268.97654 
L 120.184625 269.128905 
L 120.29677 269.007013 
L 120.371905 269.433634 
L 120.521064 268.367081 
L 120.596195 268.97654 
L 120.745642 268.519446 
L 120.894793 268.519446 
L 120.969931 268.214717 
L 121.045068 268.671811 
L 121.19422 268.062352 
L 121.268394 268.519446 
L 121.418668 267.909987 
L 121.492683 268.519446 
L 121.642701 267.909987 
L 121.717837 268.367081 
L 121.866991 267.757623 
L 121.979135 267.795714 
L 122.054271 268.214717 
L 122.203424 267.757623 
L 122.278562 268.062352 
L 122.352575 267.300528 
L 122.427714 267.757623 
L 122.502851 267.605258 
L 122.876292 266.843434 
L 122.951428 267.148164 
L 123.025443 266.995799 
L 123.100585 266.538705 
L 123.175317 267.148164 
L 123.324465 266.69107 
L 123.399601 267.300528 
L 123.548754 266.38634 
L 123.623891 266.843434 
L 123.6983 266.69107 
L 123.885594 266.38634 
L 123.960723 266.580259 
L 124.185008 266.233975 
L 124.259023 266.38634 
L 124.334162 265.929246 
L 124.409298 266.081611 
L 124.558451 265.624517 
L 124.670594 266.195884 
L 124.819751 265.776881 
L 124.894883 265.624517 
L 124.970021 265.749179 
L 125.044038 265.237745 
L 125.119174 265.472152 
L 125.231319 265.510243 
L 125.418599 265.951012 
L 125.604759 265.167423 
L 125.755037 265.472152 
L 125.829054 265.167423 
L 125.904192 265.472152 
L 126.053337 265.167423 
L 126.203758 265.416747 
L 126.277771 264.862693 
L 126.389916 265.228368 
L 126.614209 264.557964 
L 126.689343 264.557964 
L 126.763357 264.405599 
L 126.913634 264.557964 
L 127.062784 264.253234 
L 127.13792 264.557964 
L 127.36221 263.948505 
L 127.436227 264.253234 
L 127.586499 263.79614 
L 127.660537 263.948505 
L 127.735675 263.186681 
L 127.810812 263.79614 
L 127.884829 263.643775 
L 128.042952 263.077849 
L 128.109116 263.255938 
L 128.184252 263.034317 
L 128.333408 263.491411 
L 128.48368 262.987435 
L 128.557696 263.339046 
L 128.632833 262.120128 
L 128.744976 263.110499 
L 128.820114 262.881952 
L 128.969265 262.272493 
L 129.118701 262.577222 
L 129.193294 261.663034 
L 129.380588 262.767678 
L 129.529747 261.663034 
L 129.604892 262.729587 
L 129.754062 261.663034 
L 129.829205 262.424858 
L 129.904342 261.815399 
L 130.016485 261.937291 
L 130.090508 261.299703 
L 130.165651 262.272493 
L 130.314811 261.053575 
L 130.389955 261.815399 
L 130.651274 260.596481 
L 130.838562 261.20594 
L 131.099875 260.253661 
L 131.249032 260.291752 
L 131.324177 259.529928 
L 131.39932 260.291752 
L 131.474457 259.987022 
L 131.548667 260.430265 
L 131.623805 259.682293 
L 131.697827 260.291752 
L 131.77243 258.920469 
L 131.847565 259.529928 
L 131.922716 259.987022 
L 131.996736 258.934321 
L 132.147012 259.529928 
L 132.221029 258.463375 
L 132.296165 259.225199 
L 132.445916 258.064883 
L 132.521054 258.768105 
L 132.595068 258.61574 
L 132.707213 258.082463 
L 132.78235 258.158646 
L 132.857505 258.463375 
L 133.00664 258.006281 
L 133.155795 258.158646 
L 133.230929 257.853916 
L 133.306066 258.311011 
L 133.455219 257.701552 
L 133.530356 258.158646 
L 133.71652 257.853916 
L 133.791656 257.244458 
L 133.866794 257.853916 
L 133.978936 257.853916 
L 134.052949 257.701552 
L 134.128087 256.939728 
L 134.20224 257.701552 
L 134.277377 257.549187 
L 134.352513 257.092093 
L 134.42653 257.244458 
L 134.576803 256.939728 
L 134.725962 257.092093 
L 134.801093 256.330269 
L 134.950244 257.092093 
L 135.025381 256.02554 
L 135.100519 256.482634 
L 135.174535 256.330269 
L 135.24967 255.568446 
L 135.323687 256.177905 
L 135.473962 255.416081 
L 135.661242 255.873175 
L 135.772264 255.842702 
L 135.922538 255.263716 
L 135.996555 255.568446 
L 136.071692 255.111352 
L 136.146827 255.263716 
L 136.221965 255.568446 
L 136.371116 255.111352 
L 136.445133 255.263716 
L 136.595405 254.654257 
L 136.669427 254.958987 
L 136.819696 254.349528 
L 136.89384 254.958987 
L 137.044113 254.197163 
L 137.11813 254.612703 
L 137.268404 253.892434 
L 137.342417 254.806622 
L 137.417554 253.740069 
L 137.492691 253.892434 
L 137.566708 254.197163 
L 137.716981 253.587704 
L 137.866133 253.615407 
L 137.94127 253.282975 
L 138.015286 253.740069 
L 138.127431 252.825881 
L 138.202568 252.978246 
L 138.277703 252.978246 
L 138.351719 253.282975 
L 138.426856 253.13061 
L 138.501879 252.673516 
L 138.575893 253.13061 
L 138.726167 252.521151 
L 138.87532 252.978246 
L 138.950456 252.285679 
L 139.025593 252.521151 
L 139.174748 251.911693 
L 139.248764 252.521151 
L 139.399035 251.606963 
L 139.472966 252.368787 
L 139.623236 251.759328 
L 139.697253 252.216422 
L 139.847525 251.606963 
L 139.921542 251.911693 
L 140.071996 251.454599 
L 140.146013 251.911693 
L 140.296285 251.454599 
L 140.370302 251.302234 
L 140.445437 251.606963 
L 140.669727 250.84514 
L 140.931023 251.302234 
L 141.006161 250.54041 
L 141.081298 250.84514 
L 141.155315 251.149869 
L 141.23045 250.388046 
L 141.305587 250.692775 
L 141.454739 250.84514 
L 141.679313 250.388046 
L 141.828466 250.54041 
L 142.052757 250.083316 
L 142.203029 250.083316 
L 142.277106 249.930951 
L 142.352243 250.083316 
L 142.501395 249.930951 
L 142.576531 250.083316 
L 142.650547 249.930951 
L 142.762694 249.969043 
L 142.837834 249.626222 
L 142.912967 249.778587 
L 142.986982 250.083316 
L 143.137181 249.473857 
L 143.211197 249.626222 
L 143.323343 249.382438 
L 143.39848 249.473857 
L 143.473615 249.460006 
L 143.54763 249.626222 
L 143.697911 249.169128 
L 143.771926 249.473857 
L 143.847058 249.321493 
L 143.996214 248.864398 
L 144.071347 249.016763 
L 144.183492 248.961358 
L 144.407673 248.559669 
L 144.482814 248.407304 
L 144.631966 248.712034 
L 144.7071 248.25494 
L 144.781117 248.407304 
L 144.856255 248.864398 
L 144.931631 248.407304 
L 145.006275 248.559669 
L 145.155444 247.797845 
L 145.230582 248.407304 
L 145.30484 248.102575 
L 145.379988 247.95021 
L 145.454001 248.102575 
L 145.753453 247.340751 
L 145.8286 247.493116 
L 145.902614 247.645481 
L 145.977759 247.493116 
L 146.052897 247.036022 
L 146.127786 247.645481 
L 146.202077 247.340751 
L 146.277225 247.188387 
L 146.351237 247.340751 
L 146.538536 246.426563 
L 146.687735 247.340751 
L 146.950185 246.578928 
L 147.099349 246.731292 
L 147.174492 246.426563 
L 147.248507 246.578928 
L 147.323654 246.578928 
L 147.472814 246.426563 
L 147.54796 246.426563 
L 147.623105 246.121834 
L 147.73525 246.426563 
L 147.959467 245.817104 
L 148.033483 246.121834 
L 148.183624 245.36001 
L 148.257642 246.121834 
L 148.445204 245.626648 
L 148.519218 245.36001 
L 148.594355 245.664739 
L 148.743509 245.207645 
L 148.818644 245.512375 
L 148.9678 244.598187 
L 149.050789 244.794084 
L 149.118071 244.924682 
L 149.192086 244.598187 
L 149.267223 245.207645 
L 149.342361 245.055281 
L 149.416375 244.750551 
L 149.491513 245.055281 
L 149.715801 244.384876 
L 149.790939 244.293457 
L 149.940095 244.750551 
L 150.015249 244.598187 
L 150.089259 244.141092 
L 150.164398 244.598187 
L 150.239535 243.974876 
L 150.313548 243.988728 
L 150.388686 244.293457 
L 150.537837 243.836363 
L 150.72512 244.293457 
L 150.9124 243.683998 
L 150.986415 243.683998 
L 151.099507 243.798272 
L 151.173521 243.683998 
L 151.248667 243.226904 
L 151.323804 243.531634 
L 151.50997 243.226904 
L 151.585107 243.226904 
L 151.734327 243.074539 
L 151.809461 242.465081 
L 151.921615 242.655536 
L 151.995634 242.465081 
L 152.070767 242.76981 
L 152.258066 242.160351 
L 152.407219 242.465081 
L 152.631507 242.007986 
L 152.855796 242.007986 
L 152.930933 241.855622 
L 153.043079 242.084169 
L 153.117093 241.398528 
L 153.19223 241.550892 
L 153.267367 241.398528 
L 153.416519 241.550892 
L 153.491658 241.246163 
L 153.64072 241.550892 
L 153.715857 240.789069 
L 153.791003 241.398528 
L 154.052327 240.636704 
L 154.12634 240.789069 
L 154.351583 240.331975 
L 154.46374 240.728123 
L 154.6129 239.87488 
L 154.688044 240.331975 
L 154.837197 239.722516 
L 154.912324 240.484339 
L 155.17385 239.113057 
L 155.247866 240.484339 
L 155.323006 240.027245 
L 155.398143 238.655963 
L 155.472153 239.722516 
L 155.547295 238.655963 
L 155.622285 238.808328 
L 155.697419 238.960692 
L 155.809571 238.88451 
L 155.883587 238.655963 
L 155.958733 237.437045 
L 156.107898 238.655963 
L 156.183039 237.28468 
L 156.258177 237.741775 
L 156.33219 238.046504 
L 156.44434 237.970322 
L 156.519492 237.28468 
L 156.593525 237.437045 
L 156.668663 237.741775 
L 156.743637 236.827586 
L 156.930132 237.741775 
L 157.080407 236.993802 
L 157.154421 237.437045 
L 157.304697 236.675222 
L 157.37871 237.437045 
L 157.453849 236.522857 
L 157.528986 236.675222 
L 157.753275 236.370492 
L 157.865418 236.484766 
L 157.939433 236.979951 
L 158.089707 235.456304 
L 158.163726 236.218127 
L 158.350875 235.34203 
L 158.575176 235.486777 
L 158.650311 234.846845 
L 158.724325 235.303939 
L 158.874599 234.846845 
L 158.948614 235.303939 
L 159.098889 234.846845 
L 159.172904 235.303939 
L 159.322938 234.237386 
L 159.397988 235.151574 
L 159.547283 234.085021 
L 159.696454 234.389751 
L 159.771797 233.475563 
L 159.845813 234.237386 
L 160.070098 233.170833 
L 160.145233 233.627927 
L 160.220371 233.018468 
L 160.294386 233.323198 
L 160.369522 233.323198 
L 160.593811 232.608256 
L 160.742966 233.004617 
L 160.818101 232.326967 
L 160.893242 233.170833 
L 160.967253 232.866104 
L 161.04239 232.256645 
L 161.117529 232.866104 
L 161.191546 232.561374 
L 161.303656 232.485192 
L 161.378793 232.256645 
L 161.453931 232.561374 
L 161.715233 231.647186 
L 161.790368 232.10428 
L 161.939518 231.647186 
L 162.014655 231.951916 
L 162.163806 231.494821 
L 162.238942 231.951916 
L 162.388098 231.190092 
L 162.462426 231.647186 
L 162.612699 231.190092 
L 162.686714 231.951916 
L 162.836989 231.037727 
L 162.911003 231.647186 
L 163.061072 230.732998 
L 163.210223 231.342457 
L 163.28536 230.275904 
L 163.360504 231.190092 
L 163.434513 230.885363 
L 163.509649 230.275904 
L 163.584787 231.190092 
L 163.733938 230.123539 
L 163.809075 230.732998 
L 163.92122 230.313995 
L 163.995236 230.580633 
L 164.070406 229.81881 
L 164.182552 229.971174 
L 164.257687 230.580633 
L 164.331703 230.275904 
L 164.40684 229.666445 
L 164.48114 230.123539 
L 164.631413 229.666445 
L 164.705431 229.971174 
L 164.780566 229.81881 
L 165.004802 229.361715 
L 165.192083 228.752257 
L 165.266099 229.51408 
L 165.341239 229.056986 
L 165.453381 229.17126 
L 165.528517 228.752257 
L 165.602533 229.361715 
L 165.752807 228.599892 
L 165.826822 229.209351 
L 165.976901 228.295162 
L 166.052038 229.056986 
L 166.20119 228.142798 
L 166.275207 228.752257 
L 166.42548 227.990433 
L 166.500617 228.295162 
L 166.574631 228.142798 
L 166.64977 227.990433 
L 166.724907 228.447527 
L 166.798921 227.685704 
L 166.873378 227.838068 
L 166.985522 227.914251 
L 167.06066 228.142798 
L 167.172808 228.028524 
L 167.247943 227.533339 
L 167.321958 227.685704 
L 167.397093 227.838068 
L 167.472229 227.380974 
L 167.546247 227.533339 
L 167.62154 227.685704 
L 167.770692 227.228609 
L 167.84583 227.533339 
L 167.994982 226.92388 
L 168.07012 227.076245 
L 168.145255 226.619151 
L 168.219271 226.771515 
L 168.29441 226.771515 
L 168.44356 226.314421 
L 168.518698 226.466786 
L 168.593834 226.619151 
L 168.66785 226.314421 
L 168.742986 226.466786 
L 168.855132 226.085874 
L 168.930268 226.466786 
L 169.004283 226.162056 
L 169.07919 226.314421 
L 169.154325 226.162056 
L 169.26647 226.200148 
L 169.340487 226.009692 
L 169.415624 226.314421 
L 169.49077 226.162056 
L 169.564786 225.704962 
L 169.639924 226.009692 
L 169.789079 225.552598 
L 169.864212 225.857327 
L 170.013364 225.247868 
L 170.088503 225.552598 
L 170.200646 225.514506 
L 170.275783 224.943139 
L 170.349798 225.400233 
L 170.424936 225.247868 
L 170.500072 224.943139 
L 170.574377 225.247868 
L 170.649514 225.095504 
L 170.798666 224.790774 
L 170.873805 225.095504 
L 171.098094 224.638409 
L 171.322047 224.638409 
L 171.397189 224.486045 
L 171.47232 224.638409 
L 171.621477 224.028951 
L 171.807633 224.638409 
L 171.957906 223.724221 
L 172.10685 223.876586 
L 172.257125 223.876586 
L 172.406278 223.419492 
L 172.481419 224.181315 
L 172.630985 223.267127 
L 172.705003 223.876586 
L 172.855275 223.267127 
L 172.929291 223.876586 
L 173.079564 222.962398 
L 173.153581 223.419492 
L 173.377869 222.962398 
L 173.453006 222.962398 
L 173.528143 222.810033 
L 173.602296 222.962398 
L 173.751446 222.200574 
L 173.826586 222.810033 
L 173.976857 222.200574 
L 174.163017 222.566249 
L 174.424317 221.74348 
L 174.499454 222.657668 
L 174.648603 221.591115 
L 174.72374 221.74348 
L 174.798878 221.895845 
L 174.872894 220.829292 
L 174.94803 221.895845 
L 175.097182 220.829292 
L 175.209648 221.514933 
L 175.284787 221.43875 
L 175.359923 220.829292 
L 175.433939 221.134021 
L 175.509076 221.286386 
L 175.770371 220.372197 
L 175.845152 220.981656 
L 175.994309 219.915103 
L 176.069448 220.981656 
L 176.218597 219.610374 
L 176.293734 220.067468 
L 176.442883 219.305644 
L 176.51802 220.219833 
L 176.668294 219.305644 
L 176.817315 219.762739 
L 176.892451 219.305644 
L 176.966466 219.610374 
L 177.116749 219.000915 
L 177.265902 219.610374 
L 177.341037 218.391456 
L 177.415053 219.15328 
L 177.565327 218.543821 
L 177.639344 218.82511 
L 177.789621 218.086727 
L 177.863635 219.000915 
L 178.013907 217.629633 
L 178.08792 218.543821 
L 178.162962 217.380309 
L 178.238094 217.781997 
L 178.312109 218.239092 
L 178.467993 217.499034 
L 178.536398 217.629633 
L 178.611536 218.086727 
L 178.799045 216.943991 
L 178.873055 218.086727 
L 179.023329 216.25835 
L 179.097343 217.477268 
L 179.17248 216.25835 
L 179.246495 216.56308 
L 179.321632 216.867809 
L 179.470785 215.953621 
L 179.545921 216.410715 
L 179.62106 216.25835 
L 179.808211 215.74031 
L 179.882227 216.105986 
L 180.032498 215.191797 
L 180.106514 216.105986 
L 180.256776 215.191797 
L 180.330792 215.953621 
L 180.481066 215.191797 
L 180.555081 215.496527 
L 180.705356 214.734703 
L 180.779371 215.039433 
L 180.929644 214.734703 
L 181.003663 215.039433 
L 181.153934 214.429974 
L 181.227949 214.582338 
L 181.303088 214.734703 
L 181.452242 214.277609 
L 181.788672 213.820515 
L 181.86381 214.125244 
L 181.938946 213.363421 
L 182.012961 213.97288 
L 182.088098 213.820515 
L 182.16324 213.211056 
L 182.237253 213.97288 
L 182.387525 213.211056 
L 182.46154 213.820515 
L 182.536677 213.66815 
L 182.611814 213.211056 
L 182.686524 213.363421 
L 182.835132 213.211056 
L 182.910267 213.515785 
L 182.985404 213.058691 
L 183.097549 213.287238 
L 183.171566 212.449232 
L 183.246711 212.753962 
L 183.321838 212.906327 
L 183.433984 212.205449 
L 183.58301 212.601597 
L 183.658147 212.296868 
L 183.733283 212.449232 
L 183.8073 212.601597 
L 183.882436 212.144503 
L 184.031587 212.449232 
L 184.106729 212.144503 
L 184.181864 212.296868 
L 184.294006 212.144503 
L 184.368315 212.449232 
L 184.443454 211.992138 
L 184.517468 212.144503 
L 184.667741 211.992138 
L 184.741757 211.992138 
L 184.816896 211.535044 
L 185.041205 211.992138 
L 185.116327 211.38268 
L 185.190343 211.535044 
L 185.414632 211.230315 
L 185.489772 211.230315 
L 185.67705 210.658947 
L 185.751068 211.07795 
L 185.826209 210.925585 
L 185.975655 211.07795 
L 186.050792 210.925585 
L 186.124817 210.468491 
L 186.237558 210.887494 
L 186.386716 210.620856 
L 186.573519 210.316127 
L 186.648655 210.731667 
L 186.948079 209.859032 
L 187.097231 210.163762 
L 187.246385 209.706668 
L 187.32152 210.233019 
L 187.471274 209.73437 
L 187.545289 210.233019 
L 187.73257 209.516212 
L 187.807707 209.554303 
L 187.881724 209.859032 
L 188.031997 209.249574 
L 188.106014 209.859032 
L 188.255383 208.944844 
L 188.330524 209.706668 
L 188.40566 209.401938 
L 188.591841 208.792479 
L 188.666984 209.401938 
L 188.929146 208.335385 
L 189.078307 208.48775 
L 189.153415 208.030656 
L 189.302576 208.48775 
L 189.377724 207.725926 
L 189.452681 208.335385 
L 189.526693 208.183021 
L 189.601842 207.573562 
L 189.67699 208.404642 
L 189.751005 207.739778 
L 189.826152 207.878291 
L 189.900177 208.335385 
L 189.975315 208.183021 
L 190.087466 208.259203 
L 190.162614 207.573562 
L 190.236646 207.878291 
L 190.311782 207.878291 
L 190.386947 207.407346 
L 190.461402 207.878291 
L 190.610555 207.268832 
L 190.685692 207.573562 
L 190.834844 206.811738 
L 190.90998 207.573562 
L 190.98512 206.964103 
L 191.097262 207.085995 
L 191.171278 206.659373 
L 191.246415 206.964103 
L 191.321551 206.811738 
L 191.507713 206.316553 
L 191.582848 206.964103 
L 191.732002 206.354644 
L 191.882275 206.659373 
L 191.956883 206.049915 
L 192.031487 206.354644 
L 192.106624 206.659373 
L 192.180639 205.89755 
L 192.255776 206.354644 
L 192.330913 206.202279 
L 192.404929 205.288091 
L 192.555202 206.049915 
L 192.629217 205.440456 
L 192.704438 206.354644 
L 192.853594 204.830997 
L 192.928734 205.745185 
L 193.003871 204.983362 
L 193.116009 205.173818 
L 193.190025 204.526268 
L 193.265162 205.440456 
L 193.414315 204.914105 
L 193.489451 205.440456 
L 193.601548 204.60245 
L 193.676683 204.830997 
L 193.7507 204.373903 
L 193.825835 204.830997 
L 193.900972 204.678632 
L 193.974988 204.221538 
L 194.050124 204.678632 
L 194.125262 204.526268 
L 194.19928 203.916809 
L 194.274414 204.678632 
L 194.349551 204.526268 
L 194.423693 203.916809 
L 194.572845 204.373903 
L 194.647984 203.612079 
L 194.723122 204.069173 
L 194.797138 203.916809 
L 194.872277 203.764444 
L 194.947416 204.069173 
L 195.096418 203.418161 
L 195.171553 203.764444 
L 195.320706 203.30735 
L 195.47098 203.459715 
L 195.620134 203.30735 
L 195.695268 202.545526 
L 195.769284 202.850256 
L 195.881428 202.774073 
L 195.956564 203.30735 
L 196.106053 201.783703 
L 196.18119 202.697891 
L 196.255205 202.393162 
L 196.330344 202.088432 
L 196.405479 202.697891 
L 196.554257 201.783703 
L 196.666409 201.859885 
L 196.741543 202.393162 
L 196.816679 201.478973 
L 196.965827 202.240797 
L 197.11498 201.326609 
L 197.190117 202.088432 
L 197.339271 201.021879 
L 197.414406 201.478973 
L 197.563559 200.71715 
L 197.638697 201.631338 
L 197.78785 200.71715 
L 197.862987 201.478973 
L 198.012138 200.71715 
L 198.087612 201.326609 
L 198.236764 200.260056 
L 198.385921 200.564785 
L 198.461056 200.260056 
L 198.536189 200.564785 
L 198.610209 200.41242 
L 198.685341 200.107691 
L 198.760478 200.41242 
L 198.90943 199.955326 
L 198.984567 200.107691 
L 199.058583 199.955326 
L 199.133721 199.498232 
L 199.208857 199.955326 
L 199.282872 199.802961 
L 199.358011 199.498232 
L 199.433146 199.650597 
L 199.806347 198.888773 
L 199.881483 199.345867 
L 200.030637 198.736409 
L 200.105776 199.345867 
L 200.254925 198.584044 
L 200.330064 199.193503 
L 200.479216 198.279314 
L 200.554351 198.888773 
L 200.853052 197.974585 
L 200.965197 198.317406 
L 201.040335 198.12695 
L 201.227325 198.279314 
L 201.376478 197.669856 
L 201.451616 197.82222 
L 201.600768 197.365126 
L 201.787953 197.669856 
L 201.937106 197.060397 
L 202.012242 197.212761 
L 202.161395 196.603303 
L 202.348676 196.908032 
L 202.609973 196.603303 
L 202.685425 196.908032 
L 202.75944 196.755667 
L 202.834583 196.603303 
L 202.90972 196.755667 
L 202.983731 195.993844 
L 203.058874 196.298573 
L 203.134007 196.298573 
L 203.283158 195.689114 
L 203.358293 195.993844 
L 203.43231 195.841479 
L 203.507445 195.938438 
L 203.657719 195.53675 
L 203.906682 195.273574 
L 204.03116 195.23202 
L 204.180868 194.774926 
L 204.255453 195.23202 
L 204.32947 195.079655 
L 204.404608 195.079655 
L 204.704031 194.276278 
L 204.816177 193.746464 
L 204.890191 194.317832 
L 204.965329 193.860738 
L 205.040408 193.943846 
L 205.189559 193.708373 
L 205.339833 194.013102 
L 205.413851 193.556008 
L 205.488992 193.860738 
L 205.638144 193.403644 
L 205.713274 193.445198 
L 205.787615 192.794185 
L 205.936767 193.251279 
L 206.011903 192.794185 
L 206.087042 193.251279 
L 206.348226 192.337091 
L 206.423363 192.946549 
L 206.497383 192.64182 
L 206.572521 192.337091 
L 206.647656 192.946549 
L 206.721669 192.64182 
L 206.796806 192.184726 
L 206.87194 192.794185 
L 206.945956 192.489455 
L 207.021092 192.184726 
L 207.133238 192.424156 
L 207.28328 192.032361 
L 207.357299 192.032361 
L 207.432435 192.184726 
L 207.581588 191.879997 
L 207.693728 191.918088 
L 207.844005 191.422902 
L 207.993155 191.727632 
L 208.06752 191.727632 
L 208.217799 191.270538 
L 208.291816 191.575267 
L 208.36695 191.422902 
L 208.479092 191.003899 
L 208.554228 191.422902 
L 208.628243 191.270538 
L 208.852542 190.661079 
L 208.927679 190.661079 
L 209.114962 190.813444 
L 209.264113 190.05162 
L 209.339252 190.356349 
L 209.451395 189.975438 
L 209.52541 190.203985 
L 209.600547 189.746891 
L 209.675686 190.05162 
L 209.7497 189.899255 
L 209.824836 189.746891 
L 209.899973 190.05162 
L 209.973989 189.899255 
L 210.198278 189.442161 
L 210.311232 189.746891 
L 210.385247 189.12358 
L 210.460385 189.746891 
L 210.609537 188.985067 
L 210.684605 189.289796 
L 210.833757 188.791148 
L 210.908894 189.430441 
L 211.096175 188.604155 
L 211.170194 188.680338 
L 211.245332 189.289796 
L 211.39448 188.375608 
L 211.544756 188.680338 
L 211.61877 188.223243 
L 211.693907 188.527973 
L 211.769043 188.375608 
L 211.84338 187.960068 
L 211.918517 188.680338 
L 211.992534 187.918514 
L 212.0744 188.114412 
L 212.142808 188.527973 
L 212.216822 187.613785 
L 212.441112 187.948987 
L 212.516248 187.46142 
L 212.628393 187.583312 
L 212.70353 187.918514 
L 212.852685 187.15669 
L 212.964827 187.339528 
L 213.039965 187.918514 
L 213.189116 187.309055 
L 213.264253 187.613785 
L 213.338271 187.46142 
L 213.413774 187.004326 
L 213.525921 187.722617 
L 213.750208 186.547232 
L 213.862354 186.890052 
L 214.011505 186.851961 
L 214.086642 186.090137 
L 214.198786 186.12061 
L 214.347939 186.547232 
L 214.423075 186.090137 
L 214.497093 186.242502 
L 214.609236 185.975864 
L 214.684374 186.242502 
L 214.75951 185.633043 
L 214.945671 186.242502 
L 215.095945 185.480679 
L 215.16996 185.937773 
L 215.320232 185.328314 
L 215.394251 185.785408 
L 215.469387 185.633043 
L 215.544522 185.328314 
L 215.618537 185.633043 
L 215.768811 185.175949 
L 215.842852 185.633043 
L 216.104816 184.657909 
L 216.179955 184.87122 
L 216.332476 184.588257 
L 216.404245 185.023585 
L 216.516391 184.779801 
L 216.590403 184.261761 
L 216.66554 184.303315 
L 216.777684 184.490308 
L 217.001494 183.499937 
L 217.076639 183.957032 
L 217.225801 183.195208 
L 217.300939 183.957032 
L 217.376081 183.804667 
L 217.450098 183.195208 
L 217.600377 183.804667 
L 217.675352 183.195208 
L 217.749944 183.957032 
L 217.899096 183.042843 
L 217.973435 183.957032 
L 218.123248 183.042843 
L 218.272402 183.347573 
L 218.347538 182.890479 
L 218.422677 182.973587 
L 218.796115 182.128655 
L 218.871253 182.28102 
L 218.94639 182.738114 
L 219.020411 181.671561 
L 219.169566 182.433384 
L 219.244701 181.366831 
L 219.320191 182.28102 
L 219.469342 181.366831 
L 219.618495 181.97629 
L 219.693634 181.366831 
L 219.805776 182.090564 
L 220.030065 181.062102 
L 220.104081 181.823926 
L 220.291363 180.757373 
L 220.366499 181.311426 
L 220.441637 181.273069 
L 220.515654 180.909737 
L 220.627796 181.176376 
L 220.702933 180.909737 
L 220.852086 181.062102 
L 220.927228 180.757373 
L 221.002362 181.062102 
L 221.151512 180.452643 
L 221.225528 180.812778 
L 221.375803 180.147914 
L 221.450938 180.812778 
L 221.60009 179.995549 
L 221.674106 180.31413 
L 221.749243 180.147914 
L 221.82438 179.69082 
L 221.898654 180.300278 
L 221.97379 180.147914 
L 222.048927 179.69082 
L 222.122942 179.843184 
L 222.347231 179.919367 
L 222.497505 179.233725 
L 222.57153 179.69082 
L 222.646667 179.538455 
L 222.75881 179.119452 
L 222.907964 179.38609 
L 222.9831 179.081361 
L 223.058238 179.233725 
L 223.132252 179.38609 
L 223.282528 178.624267 
L 223.431761 178.776631 
L 223.506902 178.624267 
L 223.580918 179.081361 
L 223.731193 178.319537 
L 223.805205 179.081361 
L 223.955477 178.167173 
L 224.066814 178.485753 
L 224.131877 179.150617 
L 224.197985 178.319537 
L 224.263032 178.580734 
L 224.441365 178.167173 
L 224.627531 178.167173 
L 224.702675 178.167173 
L 224.851651 177.862443 
L 224.926806 177.862443 
L 225.114109 177.633896 
L 225.188125 177.862443 
L 225.300281 177.519622 
L 225.37543 177.710078 
L 225.524586 177.557714 
L 225.599733 177.710078 
L 225.748885 177.405349 
L 225.82403 177.405349 
L 226.085338 176.948255 
L 226.160485 177.252984 
L 226.235648 176.948255 
L 226.34721 177.062528 
L 226.422347 176.948255 
L 226.496372 177.10062 
L 226.758815 176.491161 
L 226.832841 177.10062 
L 226.983124 176.338796 
L 227.057148 176.948255 
L 227.244457 176.247377 
L 227.319719 176.186431 
L 227.393743 176.643525 
L 227.581039 175.881702 
L 227.656176 176.186431 
L 227.805223 175.729337 
L 227.880361 176.034067 
L 228.104658 175.424608 
L 228.253829 175.729337 
L 228.328969 175.119878 
L 228.403392 175.424608 
L 228.478529 175.272243 
L 228.552544 174.967514 
L 228.964323 175.084717 
L 229.076456 174.419001 
L 229.150475 174.815149 
L 229.225611 174.662784 
L 229.412626 175.054579 
L 229.561778 174.20569 
L 229.636916 174.815149 
L 229.786067 174.20569 
L 229.861205 174.815149 
L 230.010358 173.748596 
L 230.085494 174.967514 
L 230.16063 173.443866 
L 230.234645 173.900961 
L 230.309784 174.358055 
L 230.384919 173.443866 
L 230.45914 173.748596 
L 230.571284 173.634322 
L 230.646423 174.20569 
L 230.795574 173.443866 
L 230.870712 173.596231 
L 231.019863 173.291502 
L 231.095 173.443866 
L 231.169015 172.834408 
L 231.244152 172.986772 
L 231.319289 173.443866 
L 231.394164 172.377314 
L 231.543318 173.139137 
L 231.692473 172.224949 
L 231.767606 172.529678 
L 231.842742 172.072584 
L 231.916761 172.224949 
L 231.991896 172.377314 
L 232.253192 171.61549 
L 232.32833 172.072584 
L 232.477482 171.006031 
L 232.552619 171.920219 
L 232.664764 171.920219 
L 232.813915 171.006031 
L 232.889053 171.61549 
L 233.038204 170.853666 
L 233.113342 171.61549 
L 233.188478 171.006031 
L 233.30063 171.006031 
L 233.412775 170.206116 
L 233.561927 170.701302 
L 233.711095 170.244208 
L 233.786218 170.701302 
L 233.935369 170.091843 
L 234.010507 170.548937 
L 234.159658 169.482384 
L 234.234795 170.396572 
L 234.383947 169.634749 
L 234.459084 170.008735 
L 234.534221 169.03701 
L 234.608237 169.177655 
L 234.720381 169.520475 
L 234.869967 168.872925 
L 234.945116 169.177655 
L 235.020242 169.330019 
L 235.094256 168.72056 
L 235.244337 169.02529 
L 235.356483 169.063381 
L 235.505637 167.958737 
L 235.580772 168.568196 
L 235.729923 167.654007 
L 235.805061 168.415831 
L 235.954212 167.654007 
L 236.029351 167.958737 
L 236.103365 167.806372 
L 236.178501 167.349278 
L 236.25364 167.654007 
L 236.327654 167.501643 
L 236.477929 167.806372 
L 236.62708 166.892184 
L 236.702028 167.806372 
L 236.85118 166.739819 
L 236.92632 167.806372 
L 237.075469 166.739819 
L 237.150607 167.349278 
L 237.299758 166.587454 
L 237.411903 166.739819 
L 237.748337 166.13036 
L 237.823474 166.587454 
L 237.972908 165.673266 
L 238.048046 166.282725 
L 238.12206 166.13036 
L 238.197198 165.673266 
L 238.272335 166.43509 
L 238.421486 165.368537 
L 238.496627 165.825631 
L 238.645775 165.216172 
L 238.720912 165.673266 
L 238.945205 165.292354 
L 239.057348 165.380257 
L 239.131364 165.216172 
L 239.206499 164.759078 
L 239.281636 165.216172 
L 239.355417 165.063807 
L 239.46756 164.911443 
L 239.542697 164.149619 
L 239.692218 164.759078 
L 239.767359 164.149619 
L 239.916509 164.759078 
L 239.991644 163.997254 
L 240.065664 164.606713 
L 240.140797 164.454349 
L 240.215936 163.84489 
L 240.36509 164.454349 
L 240.440223 163.84489 
L 240.514245 164.606713 
L 240.664512 163.692525 
L 240.738539 163.997254 
L 240.813679 163.84489 
L 240.88865 163.387796 
L 240.963787 163.997254 
L 241.037803 163.84489 
L 241.112938 163.387796 
L 241.262093 163.692525 
L 241.337227 162.930701 
L 241.48638 163.54016 
L 241.561517 162.778337 
L 241.636655 163.387796 
L 241.710669 163.083066 
L 241.785806 162.625972 
L 241.860943 163.083066 
L 242.010095 162.321243 
L 242.085233 163.027661 
L 242.159248 162.708015 
L 242.272213 162.54979 
L 242.346221 162.168878 
L 242.496495 162.778337 
L 242.570511 162.321243 
L 242.645647 162.473607 
L 242.720795 162.473607 
L 242.7948 162.016513 
L 242.945073 162.473607 
L 243.019089 161.864148 
L 243.094228 162.321243 
L 243.281509 162.016513 
L 243.355522 161.559419 
L 243.430662 161.711784 
L 243.542804 161.978422 
L 243.691956 161.407054 
L 243.767096 162.016513 
L 243.916245 161.25469 
L 243.991664 162.016513 
L 244.140816 161.102325 
L 244.215953 161.559419 
L 244.365106 161.102325 
L 244.440244 161.559419 
L 244.589395 161.102325 
L 244.664532 161.407054 
L 244.813684 161.102325 
L 244.888822 161.25469 
L 244.962837 161.102325 
L 245.03798 160.645231 
L 245.113113 161.102325 
L 245.187125 160.94996 
L 245.262118 160.188137 
L 245.337256 161.102325 
L 245.411269 160.797595 
L 245.486406 160.368204 
L 245.561543 160.797595 
L 245.710695 159.883407 
L 245.785833 160.797595 
L 245.938351 160.16637 
L 246.047132 160.150045 
L 246.159274 159.807225 
L 246.234412 160.340501 
L 246.383567 159.731042 
L 246.458701 160.035772 
L 246.571111 159.191906 
L 246.645126 159.578678 
L 246.720262 159.426313 
L 246.832409 159.692951 
L 246.906429 159.426313 
L 246.981566 159.731042 
L 247.057027 159.273948 
L 247.131041 159.426313 
L 247.281315 158.816854 
L 247.430466 159.121584 
L 247.505603 158.66449 
L 247.617749 159.370908 
L 247.842043 158.512125 
L 247.991189 158.816854 
L 248.066326 158.512125 
L 248.140343 158.816854 
L 248.215478 158.207395 
L 248.364638 158.816854 
L 248.514912 157.902666 
L 248.588928 158.66449 
L 248.738081 157.902666 
L 248.813218 158.66449 
L 248.962369 157.750301 
L 249.037506 158.35976 
L 249.224236 157.84172 
L 249.299405 157.597937 
L 249.374542 158.35976 
L 249.523694 157.597937 
L 249.598832 158.373611 
L 249.747985 157.293207 
L 249.823122 157.597937 
L 249.897136 157.597937 
L 250.084497 156.950387 
L 250.159673 157.597937 
L 250.308915 156.988478 
L 250.383605 157.293207 
L 250.607895 156.836113 
L 250.681909 156.988478 
L 250.832185 156.683748 
L 250.981335 156.683748 
L 251.056138 156.836113 
L 251.130723 156.683748 
L 251.205876 156.226654 
L 251.281022 156.379019 
L 251.355049 156.226654 
L 251.430199 155.76956 
L 251.505336 156.379019 
L 251.654654 155.76956 
L 251.729783 156.074289 
L 251.803798 155.921925 
L 251.87894 155.312466 
L 251.952956 155.921925 
L 252.103247 155.312466 
L 252.178121 155.464831 
L 252.252136 155.464831 
L 252.364281 155.350557 
L 252.439422 155.007736 
L 252.514558 155.617195 
L 252.58857 155.464831 
L 252.663707 155.312466 
L 252.738844 155.464831 
L 252.887996 155.007736 
L 252.963134 155.464831 
L 253.111756 154.703007 
L 253.186894 154.855372 
L 253.26203 155.007736 
L 253.336045 154.703007 
L 253.411183 154.855372 
L 253.598466 155.12201 
L 253.67248 154.398278 
L 253.747616 154.703007 
L 253.896771 154.093548 
L 253.971906 154.550642 
L 254.047044 154.398278 
L 254.196026 154.245913 
L 254.271163 154.398278 
L 254.420314 153.788819 
L 254.495454 154.093548 
L 254.570589 153.484089 
L 254.644603 153.788819 
L 254.719742 153.788819 
L 254.794877 153.17936 
L 254.868893 153.484089 
L 254.944029 153.941183 
L 255.019166 153.026995 
L 255.093188 153.331725 
L 255.16832 153.788819 
L 255.317471 152.722266 
L 255.392607 153.484089 
L 255.653905 152.112807 
L 255.804178 152.722266 
L 255.878199 152.159688 
L 255.953334 152.417536 
L 256.02847 152.265172 
L 256.140614 152.379445 
L 256.21463 151.960442 
L 256.289767 152.265172 
L 256.364903 151.503348 
L 256.438917 151.655713 
L 256.514054 151.960442 
L 256.589191 151.808078 
L 256.663209 151.503348 
L 256.850488 151.808078 
L 257.074777 151.198619 
L 257.149918 151.198619 
L 257.225054 150.893889 
L 257.299066 151.350983 
L 257.374205 150.436795 
L 257.486348 150.551069 
L 257.560365 150.132066 
L 257.6355 151.198619 
L 257.747909 150.093975 
L 257.821929 150.28443 
L 257.972198 150.132066 
L 258.046213 150.28443 
L 258.12135 150.062809 
L 258.196487 150.471956 
L 258.345641 149.370242 
L 258.420776 149.827336 
L 258.682076 148.760783 
L 258.75721 149.674972 
L 258.906364 148.733081 
L 258.981501 149.487446 
L 259.130652 148.760783 
L 259.205787 149.217877 
L 259.354941 148.151324 
L 259.430077 148.608419 
L 259.504093 148.456054 
L 259.579231 148.234432 
L 259.654368 148.760783 
L 259.803521 147.846595 
L 259.878656 148.608419 
L 259.952672 148.303689 
L 260.027809 147.69423 
L 260.102945 148.303689 
L 260.176961 147.99896 
L 260.252816 147.541866 
L 260.363847 148.379872 
L 260.551151 148.234432 
L 260.626297 147.541866 
L 260.738449 147.69423 
L 260.962657 147.237136 
L 261.036673 147.237136 
L 261.186975 147.389501 
L 261.523425 146.780042 
L 261.672585 146.932407 
L 262.046049 146.322948 
L 262.233352 146.780042 
L 262.382751 145.865854 
L 262.457897 146.322948 
L 262.607059 145.713489 
L 262.682201 145.865854 
L 262.868377 145.180213 
L 263.017917 145.40876 
L 263.168191 144.951666 
L 263.242209 145.40876 
L 263.317343 145.256395 
L 263.392482 144.951666 
L 263.466851 145.256395 
L 263.616005 144.646936 
L 263.69114 145.256395 
L 263.840294 144.646936 
L 263.915429 144.951666 
L 263.990566 144.646936 
L 264.13972 144.951666 
L 264.401016 144.189842 
L 264.475918 144.646936 
L 264.551055 144.494571 
L 264.625073 144.037477 
L 264.700208 144.342207 
L 264.775349 144.189842 
L 264.849364 144.037477 
L 264.924497 144.411463 
L 264.999635 144.283605 
L 265.073651 143.885113 
L 265.148788 144.342207 
L 265.223924 144.189842 
L 265.299061 143.732748 
L 265.44827 144.189842 
L 265.560415 143.46611 
L 265.67256 143.746599 
L 265.746576 143.237563 
L 265.821713 143.885113 
L 266.008995 143.247951 
L 266.121138 143.092816 
L 266.233283 143.439739 
L 266.3073 142.81856 
L 266.382435 143.732748 
L 266.531598 142.81856 
L 266.606736 143.275654 
L 266.755889 142.81856 
L 266.831024 143.275654 
L 266.942912 142.605249 
L 267.018049 142.970924 
L 267.093186 142.749303 
L 267.168324 142.970924 
L 267.317476 142.361465 
L 267.39149 142.81856 
L 267.541764 142.361465 
L 267.690917 142.51383 
L 267.766055 142.056736 
L 268.027351 142.361465 
L 268.102489 141.752007 
L 268.289791 142.209101 
L 268.363784 142.209101 
L 268.43807 141.599642 
L 268.513204 142.209101 
L 268.588359 142.056736 
L 268.663492 141.599642 
L 268.812629 142.209101 
L 268.886645 141.294912 
L 268.961782 142.209101 
L 269.111842 141.599642 
L 269.223991 141.637733 
L 269.298005 141.447277 
L 269.373144 141.599642 
L 269.448278 141.142548 
L 269.522291 141.447277 
L 269.672567 141.142548 
L 269.858724 141.386331 
L 270.046258 141.142548 
L 270.120274 140.533089 
L 270.19541 141.142548 
L 270.345685 140.380724 
L 270.419699 141.142548 
L 270.568851 140.380724 
L 270.643988 141.142548 
L 270.793143 140.380724 
L 270.86828 140.837818 
L 270.943416 140.685454 
L 271.017432 140.075995 
L 271.092573 140.533089 
L 271.167704 140.089846 
L 271.241726 140.228359 
L 271.316856 140.533089 
L 271.466871 140.075995 
L 271.540887 140.533089 
L 271.691162 139.771265 
L 271.765176 140.380724 
L 271.915451 139.771265 
L 271.98947 140.075995 
L 272.139741 139.618901 
L 272.213755 140.075995 
L 272.288892 139.92363 
L 272.364029 139.92363 
L 272.476175 139.618901 
L 272.550191 139.809357 
L 272.625593 139.466536 
L 272.699607 139.618901 
L 272.962024 139.009442 
L 273.110933 139.424982 
L 273.223077 138.895168 
L 273.298214 139.09255 
L 273.709793 138.704712 
L 273.858945 139.079764 
L 273.934081 138.552348 
L 274.008096 139.009442 
L 274.158372 138.399983 
L 274.270515 138.666621 
L 274.644283 138.095254 
L 274.7183 138.247618 
L 275.017725 137.638159 
L 275.092862 137.942889 
L 275.279022 137.638159 
L 275.354158 137.942889 
L 275.503312 137.33343 
L 275.653585 137.790524 
L 275.727437 137.181065 
L 275.802573 137.638159 
L 275.87771 137.485795 
L 276.026862 137.181065 
L 276.101913 137.485795 
L 276.17593 136.723971 
L 276.326202 137.33343 
L 276.400221 136.876336 
L 276.475355 137.028701 
L 276.662637 137.097957 
L 276.729127 136.599309 
L 276.795294 136.658672 
L 276.868185 136.78927 
L 276.935473 136.528074 
L 277.00276 136.658672 
L 277.075653 136.78927 
L 277.148546 136.266877 
L 277.222562 136.571606 
L 277.297699 136.114512 
L 277.372835 136.266877 
L 277.446851 136.419242 
L 277.521988 136.114512 
L 277.596923 136.266877 
L 277.67206 136.433093 
L 277.746077 135.844944 
L 277.821212 136.114512 
L 277.89635 136.114512 
L 277.970364 135.657418 
L 278.08251 136.03833 
L 278.306799 135.200324 
L 278.456264 135.657418 
L 278.531402 135.047959 
L 278.606538 135.200324 
L 278.680555 135.352689 
L 278.792698 134.895595 
L 278.867836 135.047959 
L 279.13005 135.200324 
L 279.242191 135.047959 
L 279.391343 134.286136 
L 279.466481 134.74323 
L 279.615633 134.286136 
L 279.690769 134.895595 
L 279.839924 134.133771 
L 279.952067 134.830295 
L 280.17636 133.829042 
L 280.251493 134.4385 
L 280.325298 134.133771 
L 280.400434 133.676677 
L 280.47557 134.133771 
L 280.625124 133.676677 
L 280.69914 133.981406 
L 280.849417 133.524312 
L 280.923433 134.286136 
L 281.073704 132.750768 
L 281.14862 133.524312 
L 281.297771 132.610124 
L 281.372908 133.219583 
L 281.446925 133.067218 
L 281.522061 132.000665 
L 281.597197 132.914853 
L 281.671213 132.610124 
L 281.74635 131.8483 
L 281.821486 132.610124 
L 281.933632 132.610124 
L 282.007653 132.305395 
L 282.119793 132.381577 
L 282.307474 131.543571 
L 282.38207 132.610124 
L 282.531222 131.391206 
L 282.606359 131.695936 
L 282.680376 131.543571 
L 282.755514 131.238842 
L 282.904666 131.695936 
L 282.979801 130.934112 
L 283.054938 131.391206 
L 283.128954 131.238842 
L 283.204091 130.781747 
L 283.353245 131.238842 
L 283.540525 130.477018 
L 283.802174 131.010294 
L 283.877307 130.324653 
L 283.951324 131.391206 
L 284.101596 130.172289 
L 284.175612 130.477018 
L 284.325888 129.715194 
L 284.399901 130.629383 
L 284.550174 129.784451 
L 284.699333 130.172289 
L 284.774464 129.2581 
L 284.923618 129.715194 
L 285.147908 129.56283 
L 285.222833 128.953371 
L 285.371991 129.410465 
L 285.484131 128.382003 
L 285.708421 129.105736 
L 285.783556 128.648641 
L 285.858693 129.105736 
L 285.970002 128.61055 
L 286.045138 129.105736 
L 286.120275 128.039183 
L 286.194291 128.343912 
L 286.269427 128.343912 
L 286.344564 127.582088 
L 286.418581 127.789859 
L 286.493597 128.039183 
L 286.792767 127.124994 
L 286.867904 127.582088 
L 287.017056 127.124994 
L 287.16621 127.582088 
L 287.35349 126.562417 
L 287.427562 127.277359 
L 287.539723 126.515535 
L 287.614859 126.98435 
L 287.690004 126.515535 
L 287.765146 126.97263 
L 287.839163 126.820265 
L 287.914305 126.210806 
L 288.100486 126.97263 
L 288.175618 126.6679 
L 288.250763 126.6679 
L 288.324795 126.820265 
L 288.587307 126.058441 
L 288.661611 126.6679 
L 288.811519 125.753712 
L 288.885534 126.6679 
L 289.035807 125.753712 
L 289.109828 126.6679 
L 289.372294 125.601347 
L 289.446309 126.515535 
L 289.521448 126.210806 
L 289.63359 126.210806 
L 289.708728 125.448983 
L 289.782743 126.363171 
L 289.858156 125.601347 
L 289.970305 125.982259 
L 290.04432 125.448983 
L 290.119459 126.058441 
L 290.194592 124.631754 
L 290.268608 124.874685 
L 290.343741 125.601347 
L 290.41888 124.991888 
L 290.531024 125.296618 
L 290.717183 124.534794 
L 290.79232 124.839524 
L 290.867457 124.687159 
L 290.941472 124.230065 
L 291.016611 124.839524 
L 291.165763 124.230065 
L 291.316035 124.687159 
L 291.465012 124.230065 
L 291.540151 124.230065 
L 291.615287 124.0777 
L 291.689686 124.38243 
L 291.838842 123.620606 
L 292.063022 124.039609 
L 292.138159 124.230065 
L 292.287411 123.468241 
L 292.362549 123.925335 
L 292.474702 123.833917 
L 292.586927 123.955808 
L 292.660977 123.302025 
L 292.736114 123.315877 
L 292.811249 123.772971 
L 292.886137 123.302025 
L 292.998345 123.353968 
L 293.072369 123.011147 
L 293.147505 123.620606 
L 293.222652 122.969593 
L 293.334807 123.315877 
L 293.559021 122.637161 
L 293.783312 123.011147 
L 293.895467 122.81525 
L 294.119026 122.896874 
L 294.231169 122.668327 
L 294.418307 122.905664 
L 294.493441 122.637161 
L 294.567454 122.969593 
L 294.679598 122.554053 
L 294.79179 122.668327 
L 294.979069 122.127432 
L 295.054206 122.304729 
L 295.128224 122.138513 
L 295.205606 122.624375 
L 295.315503 121.883648 
L 295.39064 122.304729 
L 295.464657 122.138513 
L 295.614929 122.304729 
L 295.727074 121.307433 
L 295.801091 121.806081 
L 296.137534 121.152298 
L 296.249676 121.274189 
L 296.361819 121.639865 
L 296.810398 121.117471 
L 296.922543 121.411318 
L 297.034688 120.908514 
L 297.146837 121.182771 
L 297.258977 120.786622 
L 297.372043 121.077287 
L 297.484193 120.908514 
L 297.708506 119.952133 
L 297.820651 120.542839 
L 297.932806 120.268582 
L 298.04496 120.299055 
L 298.155985 119.942087 
L 298.381247 120.072685 
L 298.605557 119.68089 
L 298.71771 119.811488 
L 298.941175 119.550292 
L 299.053316 119.811488 
L 299.165461 119.202029 
L 299.277605 119.550292 
L 299.389751 119.289095 
L 299.501895 119.419693 
L 299.614039 119.080138 
L 299.726187 119.506759 
L 299.838328 119.027898 
L 300.174762 119.027898 
L 300.623236 118.374907 
L 300.735394 118.505505 
L 300.847534 118.505505 
L 301.071822 118.244308 
L 301.296113 118.2644 
L 301.408256 118.11371 
L 301.520407 117.721915 
L 301.744691 117.852513 
L 301.856836 117.852513 
L 301.96898 117.33012 
L 302.08149 117.983112 
L 302.193634 117.373653 
L 302.305785 117.591317 
L 302.417925 117.139246 
L 302.530072 117.33012 
L 302.754358 116.436024 
L 302.866502 116.54653 
L 302.978428 116.819599 
L 303.427894 116.024137 
L 303.538921 116.653383 
L 303.726197 115.873446 
L 303.838342 115.732802 
L 303.950486 115.873446 
L 304.39931 115.170225 
L 304.511455 115.310869 
L 304.735742 115.240547 
L 304.84789 115.451513 
L 305.072176 115.02958 
L 305.184321 115.02958 
L 305.296209 114.587555 
L 305.408353 115.179601 
L 305.669815 113.934564 
L 305.781957 114.935817 
L 305.894105 114.748292 
L 306.118394 114.326359 
L 306.230537 114.326359 
L 306.342681 114.748292 
L 306.679116 113.993927 
L 306.90341 114.326359 
L 307.127694 113.904426 
L 307.239713 113.495278 
L 307.464003 113.904426 
L 307.576888 113.623137 
L 307.688483 113.661494 
L 307.800627 113.341848 
L 307.912772 113.542769 
L 308.473495 112.759179 
L 308.69764 113.060559 
L 308.809784 112.919915 
L 308.921932 112.216693 
L 309.146218 112.779271 
L 309.370508 112.216693 
L 309.482652 112.076049 
L 309.707527 112.638626 
L 309.819665 112.076049 
L 309.93181 112.357338 
L 310.043955 111.79476 
L 310.156099 111.84499 
L 310.268245 112.216693 
L 310.38039 111.654116 
L 310.492537 111.888523 
L 310.716826 111.322597 
L 310.941111 111.513472 
L 311.1654 110.81025 
L 311.277333 110.930802 
L 311.389478 111.232183 
L 311.501623 110.81025 
L 311.613766 110.950894 
L 311.725912 110.107028 
L 311.838055 110.277811 
L 311.9502 110.82197 
L 312.062346 110.277811 
L 312.174489 110.528961 
L 312.28689 109.685095 
L 312.399032 109.825739 
L 312.511173 110.835822 
L 312.847607 109.263162 
L 312.959753 109.624819 
L 313.071896 109.403806 
L 313.296192 109.685095 
L 313.408331 109.122518 
L 313.632619 109.57258 
L 313.744766 108.981873 
L 313.85691 109.403806 
L 314.081199 108.318836 
L 314.193119 108.55994 
L 314.305269 108.278652 
L 314.417409 109.122518 
L 314.529553 107.927041 
L 314.641698 108.057639 
L 314.753843 108.55994 
L 314.978131 107.927041 
L 315.090281 107.317582 
L 315.165414 108.010149 
L 315.351583 106.846636 
L 315.463727 107.294141 
L 315.688016 107.012852 
L 315.912305 107.716074 
L 316.136596 107.143451 
L 316.248741 106.731564 
L 316.360884 106.872208 
L 316.585173 105.793935 
L 316.809512 106.168986 
L 316.921607 106.168986 
L 317.033756 106.403394 
L 317.258041 105.793935 
L 317.482644 106.309631 
L 317.931223 105.465765 
L 318.04337 105.887698 
L 318.379801 104.531484 
L 318.491947 104.903187 
L 318.604542 105.84934 
L 318.828832 104.685828 
L 318.940238 104.481254 
L 319.164525 105.184476 
L 319.500959 104.270288 
L 319.613105 104.059321 
L 319.725248 105.184476 
L 320.061682 103.508464 
L 320.285972 104.199966 
L 320.398358 104.481254 
L 320.510039 103.356099 
L 320.734329 103.496744 
L 320.846474 103.918677 
L 321.070762 103.074811 
L 321.182907 103.094903 
L 321.295052 102.934166 
L 321.519341 103.215455 
L 321.631486 102.652878 
L 321.744007 102.833706 
L 321.85615 102.512233 
L 321.968609 102.793522 
L 322.080754 102.691235 
L 322.305043 102.371589 
L 322.641477 102.793522 
L 322.865766 101.919518 
L 322.977912 102.192587 
L 323.051928 102.691235 
L 323.164071 102.371589 
L 323.276219 101.527723 
L 323.613027 101.919518 
L 323.725171 101.949656 
L 323.949461 101.246434 
L 324.061611 101.527723 
L 324.173752 101.266526 
L 324.285895 101.527723 
L 324.510183 100.683857 
L 324.846991 101.246434 
L 324.959134 101.10579 
L 325.183425 100.402568 
L 325.295568 100.744133 
L 325.519603 100.402568 
L 325.856067 100.031778 
L 325.968215 100.091141 
L 326.080366 99.980635 
L 326.192517 99.699346 
L 326.304668 99.980635 
L 326.416821 99.699346 
L 326.529394 99.980635 
L 326.753646 99.277413 
L 326.865804 99.699346 
L 326.977432 99.307551 
L 327.089576 99.699346 
L 327.201721 99.277413 
L 327.538155 99.546982 
L 327.650303 99.394617 
L 327.874589 98.433547 
L 327.986733 98.714836 
L 328.32342 98.433547 
L 328.435569 97.87097 
L 328.584724 98.262765 
L 328.696862 98.152259 
L 328.809009 98.433547 
L 329.033296 97.609773 
L 329.14544 97.730325 
L 329.518888 97.261511 
L 329.631296 97.449037 
L 329.967729 96.956782 
L 330.192019 97.308392 
L 330.304167 96.541241 
L 330.416309 97.261511 
L 330.528452 96.773944 
L 330.640596 96.886459 
L 330.864886 96.464526 
L 330.97703 96.042593 
L 331.089175 96.173192 
L 331.201319 95.901949 
L 331.313465 96.323882 
L 331.537755 95.737864 
L 331.650174 95.79881 
L 331.762319 96.375025 
L 331.837457 96.208809 
L 332.061746 95.737864 
L 332.286034 95.377729 
L 332.398181 95.650798 
L 332.510323 95.62066 
L 332.733811 94.917438 
L 332.845963 94.879081 
L 332.957961 95.259003 
L 333.07011 95.198727 
L 333.182265 94.776794 
L 333.294413 94.97604 
L 333.406575 94.917438 
L 333.518727 94.997807 
L 333.630879 95.543945 
L 333.855179 94.495505 
L 334.079485 94.606012 
L 334.191952 94.823676 
L 334.30401 93.651639 
L 334.416169 94.073572 
L 334.528322 93.792284 
L 334.640475 94.495505 
L 334.752635 94.214217 
L 334.976548 93.370351 
L 335.089265 93.370351 
L 335.201416 93.792284 
L 335.537874 92.807773 
L 335.650027 93.229706 
L 335.874518 93.229706 
L 335.986682 92.807773 
L 336.098835 93.050704 
L 336.176126 92.718272 
L 336.285058 93.147664 
L 336.397211 92.526485 
L 336.509365 92.777635 
L 336.621522 92.38584 
L 336.846126 92.948418 
L 336.95827 92.219624 
L 337.070417 92.538205 
L 337.18256 92.38584 
L 337.294704 92.667129 
L 337.855427 91.823263 
L 337.967572 92.081111 
L 338.079717 91.823263 
L 338.191861 91.994045 
L 338.528149 91.682618 
L 338.640295 91.963907 
L 338.864584 91.260685 
L 338.976729 91.682618 
L 339.088873 91.260685 
L 339.201022 91.682618 
L 339.425307 91.120041 
L 339.537452 91.120041 
L 339.649596 91.319287 
L 339.761741 90.979397 
L 339.873886 91.210455 
L 340.098175 90.979397 
L 340.322464 90.698108 
L 340.434609 90.709828 
L 340.546754 90.557464 
L 340.658898 90.698108 
L 340.883331 90.416819 
L 341.070616 90.391248 
L 341.182755 89.904472 
L 341.519189 90.135531 
L 341.743478 89.773874 
L 341.855625 89.994886 
L 341.967767 89.854242 
L 342.079911 89.892599 
L 342.304202 89.512677 
L 342.52833 89.572953 
L 342.752619 89.291665 
L 342.864776 89.512677 
L 343.089066 89.15102 
L 343.201227 89.010376 
L 343.425516 89.382079 
L 343.537661 89.291665 
L 343.76195 88.729087 
L 343.874151 89.15102 
L 344.210594 87.885221 
L 344.546157 88.467891 
L 344.658301 88.396655 
L 344.882589 87.463288 
L 344.994735 88.16651 
L 345.106878 87.814899 
L 345.219023 88.025865 
L 345.443313 87.322644 
L 345.667604 87.814899 
L 345.779746 87.744577 
L 346.004037 86.402062 
L 346.238167 87.713322 
L 346.341338 87.388278 
L 346.527501 86.291252 
L 346.61609 86.900711 
L 346.714779 86.656927 
L 346.826926 86.760066 
L 346.939071 86.478778 
L 347.014208 86.734495 
L 347.20822 86.06963 
L 347.278868 86.402062 
L 347.352884 86.06963 
L 347.462783 86.535035 
L 347.574928 85.775556 
L 347.687075 86.06963 
L 348.022838 85.775556 
L 348.134983 84.906118 
L 348.285257 85.594727 
L 348.397402 85.570982 
L 348.509474 85.775556 
L 348.733764 84.791045 
L 348.845908 84.919969 
L 349.144213 85.194226 
L 349.368502 84.087824 
L 349.480974 84.650401 
L 349.593118 84.027548 
L 349.705262 84.087824 
L 349.817407 83.525246 
L 349.929552 83.665891 
L 350.041701 84.087824 
L 350.153841 84.027548 
L 350.378132 83.742606 
L 350.601873 83.806535 
L 350.714015 82.786863 
L 350.826162 82.822025 
L 350.914746 83.410174 
L 351.01343 82.75639 
L 351.125578 83.103313 
L 351.312858 82.412877 
L 351.425002 82.68138 
L 351.537148 82.259447 
L 351.723307 82.634499 
L 351.947594 82.118803 
L 352.059968 82.259447 
L 352.172112 81.978158 
L 352.284256 82.68138 
L 352.396403 81.807376 
L 352.508811 82.02504 
L 352.587896 81.581797 
L 352.8077 81.978158 
L 352.919849 81.872675 
L 353.03199 80.958487 
L 353.368764 81.978158 
L 353.446145 81.083149 
L 353.51904 81.748013 
L 353.742092 80.993648 
L 353.825079 81.083149 
L 353.929374 82.118803 
L 354.119174 80.252069 
L 354.340098 80.993648 
L 354.452244 81.546179 
L 354.564391 81.415581 
L 354.676533 80.571715 
L 354.900822 80.712359 
L 355.012969 80.631991 
L 355.237257 80.290426 
L 355.349401 79.254772 
L 355.686662 80.149782 
L 355.910953 79.024627 
L 356.247361 79.868493 
L 356.396513 79.727849 
L 356.508663 78.803615 
L 356.620802 78.883983 
L 356.845092 79.420988 
L 357.069381 78.673016 
L 357.18177 79.024627 
L 357.293918 78.602694 
L 357.406059 79.165271 
L 357.630348 78.542418 
L 357.742493 78.46205 
L 357.854638 78.215922 
L 357.966782 78.743338 
L 358.191071 78.063557 
L 358.303216 78.368287 
L 358.639532 78.040117 
L 358.751675 78.215922 
L 358.863819 78.180761 
L 358.975965 77.899472 
L 359.088109 78.180761 
L 359.312137 77.758828 
L 359.424281 77.925044 
L 359.648569 77.336895 
L 359.760714 77.196251 
L 359.985003 77.925044 
L 360.060142 77.093964 
L 360.17139 77.196251 
L 360.283534 77.055606 
L 360.507823 77.618184 
L 360.732113 76.914962 
L 360.844258 76.914962 
L 360.956402 76.4291 
L 361.031538 77.093964 
L 361.143682 76.633673 
L 361.255826 76.914962 
L 361.480116 76.352384 
L 361.704405 76.914962 
L 362.040841 76.352384 
L 362.152758 76.21174 
L 362.264902 76.493029 
L 362.377047 75.778087 
L 362.60134 76.262884 
L 362.825628 75.789807 
L 362.937772 75.22723 
L 363.049919 75.799853 
L 363.162061 75.508518 
L 363.27447 75.649163 
L 363.38662 75.508518 
L 363.498779 74.766939 
L 363.723113 75.508518 
L 363.835268 75.22723 
L 363.947619 75.367874 
L 364.059776 75.265587 
L 364.13379 75.598019 
L 364.245941 75.22723 
L 364.358105 75.27746 
L 364.806712 74.664652 
L 364.918868 74.711534 
L 365.031022 74.945941 
L 365.144037 74.524008 
L 365.256187 74.766939 
L 365.368326 74.524008 
L 365.480477 74.805297 
L 365.592615 74.664652 
L 365.816152 74.102075 
L 366.040439 74.49387 
L 366.152584 74.766939 
L 366.376873 73.769643 
L 366.489018 73.769643 
L 366.713307 74.102075 
L 366.937596 73.539498 
L 367.161885 73.971477 
L 367.27403 73.820786 
L 367.498319 72.97692 
L 367.722609 73.492616 
L 367.834753 73.340251 
L 368.059046 72.695631 
L 368.396073 72.97692 
L 368.582256 72.273698 
L 368.694415 72.836276 
L 368.806567 72.554987 
L 368.918639 72.695631 
L 369.142942 72.273698 
L 369.33022 72.772347 
L 369.554518 72.133054 
L 369.890991 72.133054 
L 370.003149 72.273698 
L 370.227822 71.711121 
L 370.564275 71.851765 
L 370.788588 71.289188 
L 370.90074 71.620707 
L 371.125045 71.442618 
L 371.349154 71.007899 
L 371.461314 71.098313 
L 371.573473 71.054781 
L 371.685621 70.706518 
L 371.797775 71.148544 
L 372.022083 70.706518 
L 372.134225 70.867255 
L 372.320738 70.777754 
L 372.433458 70.726611 
L 372.657634 71.007899 
L 372.881654 70.445322 
L 373.105403 70.304677 
L 373.217643 70.445322 
L 373.441954 70.164033 
L 373.554103 69.7421 
L 373.89047 70.314724 
L 374.226879 69.281809 
L 374.339029 70.140592 
L 374.563385 69.601456 
L 374.78769 69.320167 
L 375.012232 69.683498 
L 375.124312 69.601456 
L 375.236456 69.179523 
L 375.348608 69.281809 
L 375.460753 69.601456 
L 375.684941 69.038878 
L 375.90925 68.783161 
L 376.021408 69.038878 
L 376.133552 69.00874 
L 376.245713 68.75759 
L 376.357912 68.898234 
L 376.470075 68.75759 
L 376.582228 68.898234 
L 376.806372 68.195012 
L 376.918524 68.476301 
L 377.030685 68.054368 
L 377.143324 68.335657 
L 377.255472 68.159851 
L 377.479542 68.195012 
L 377.591687 66.954785 
L 377.815977 67.963954 
L 377.928121 67.773079 
L 378.040265 68.054368 
L 378.264554 67.632435 
L 378.488844 66.954785 
L 378.600988 67.351146 
L 378.713133 66.929213 
L 378.825281 67.491791 
L 379.049567 66.366636 
L 379.16161 66.929213 
L 379.273755 66.647924 
L 379.385899 66.788569 
L 379.498044 66.396774 
L 379.610189 66.647924 
L 379.722213 66.50728 
L 379.834365 66.788569 
L 379.946516 66.366636 
L 380.05868 66.396774 
L 380.17083 65.944703 
L 380.395119 66.50728 
L 380.507264 65.804058 
L 380.619409 66.17911 
L 380.731553 65.382125 
L 380.955844 66.225991 
L 381.067987 65.944703 
L 381.292437 64.819548 
L 381.404581 65.100837 
L 381.516725 64.960192 
L 381.628875 65.417286 
L 381.853159 64.678904 
L 381.965304 64.397615 
L 382.189593 64.678904 
L 382.301737 64.807828 
L 382.526027 63.975682 
L 382.638172 64.116326 
L 382.750099 64.538259 
L 382.862251 64.25697 
L 382.974404 64.350733 
L 383.086557 63.835037 
L 383.198706 64.129112 
L 383.310846 64.046004 
L 383.422994 63.262414 
L 383.796432 63.915406 
L 384.021648 62.991171 
L 384.133804 62.428594 
L 384.358035 62.991171 
L 384.694496 62.006661 
L 384.806446 62.217627 
L 385.104761 61.303439 
L 385.329244 62.006661 
L 385.553548 61.584728 
L 385.665694 61.695234 
L 385.777845 61.02215 
L 385.890083 61.725372 
L 386.002237 60.638575 
L 386.114393 61.162795 
L 386.226549 60.69398 
L 386.338702 61.162795 
L 386.450854 60.740862 
L 386.675151 61.02215 
L 386.787306 60.911644 
L 386.899281 60.459573 
L 387.011436 60.740862 
L 387.235746 60.03764 
L 387.348463 60.519849 
L 387.460607 60.178284 
L 387.572751 60.740862 
L 387.797044 59.308847 
L 388.021331 60.178284 
L 388.133475 60.638575 
L 388.245619 60.084521 
L 388.357764 60.389251 
L 388.515558 59.641279 
L 388.618728 59.475063 
L 388.730873 60.03764 
L 388.955754 58.771841 
L 389.067902 59.05313 
L 389.180043 58.912485 
L 389.292188 60.306143 
L 389.404332 59.083268 
L 389.51648 59.334418 
L 389.740767 58.631197 
L 389.852911 58.912485 
L 389.965056 58.691473 
L 390.077203 57.812902 
L 390.189347 58.209264 
L 390.525814 57.777284 
L 390.750108 58.209264 
L 390.86225 57.506042 
L 390.974392 57.78733 
L 391.198683 57.506042 
L 391.310833 57.78733 
L 391.422971 57.48047 
L 391.535119 57.506042 
L 391.647263 56.884863 
L 391.871553 57.365397 
L 391.983654 56.80282 
L 392.095798 57.084109 
L 392.320088 56.662176 
L 392.544377 56.943464 
L 392.656523 56.662176 
L 392.768524 57.084109 
L 392.880669 56.099598 
L 393.104965 56.521531 
L 393.217106 56.64939 
L 393.441083 56.099598 
L 393.55323 56.521531 
L 393.889661 56.427768 
L 394.113957 55.958954 
L 394.226095 56.240243 
L 394.338242 55.81831 
L 394.450387 56.079506 
L 394.674965 55.677665 
L 394.899256 55.958954 
L 395.011399 55.426515 
L 395.123544 55.665945 
L 395.23569 55.396377 
L 395.347833 55.677665 
L 395.572124 55.295916 
L 395.684269 54.833799 
L 395.796411 55.115088 
L 395.908557 55.81831 
L 396.24499 54.55251 
L 396.469279 55.115088 
L 396.804907 54.411866 
L 396.918174 54.322365 
L 397.029551 54.833799 
L 397.141691 54.411866 
L 397.253834 54.642925 
L 397.478122 54.411866 
L 397.590267 54.322365 
L 397.702412 54.411866 
L 397.926553 53.989933 
L 398.038695 54.271222 
L 398.262982 53.849289 
L 398.487273 53.568 
L 398.487273 53.568 
" clip-path="url(#p1372c69311)" style="fill: none; stroke: #4169e1; stroke-width: 1.5; stroke-linecap: square"/>
   </g>
   <g id="patch_3">
    <path d="M 57.6 307.584 
L 57.6 41.472 
" style="fill: none; stroke: #000000; stroke-width: 0.8; stroke-linejoin: miter; stroke-linecap: square"/>
   </g>
   <g id="patch_4">
    <path d="M 414.72 307.584 
L 414.72 41.472 
" style="fill: none; stroke: #000000; stroke-width: 0.8; stroke-linejoin: miter; stroke-linecap: square"/>
   </g>
   <g id="patch_5">
    <path d="M 57.6 307.584 
L 414.72 307.584 
" style="fill: none; stroke: #000000; stroke-width: 0.8; stroke-linejoin: miter; stroke-linecap: square"/>
   </g>
   <g id="patch_6">
    <path d="M 57.6 41.472 
L 414.72 41.472 
" style="fill: none; stroke: #000000; stroke-width: 0.8; stroke-linejoin: miter; stroke-linecap: square"/>
   </g>
  </g>
 </g>
 <defs>
  <clipPath id="p1372c69311">
   <rect x="57.6" y="41.472" width="357.12" height="266.112"/>
  </clipPath>
 </defs>
</svg>
