<?xml version="1.0" encoding="utf-8" standalone="no"?>
<!DOCTYPE svg PUBLIC "-//W3C//DTD SVG 1.1//EN"
  "http://www.w3.org/Graphics/SVG/1.1/DTD/svg11.dtd">
<svg xmlns:xlink="http://www.w3.org/1999/xlink" width="460.8pt" height="345.6pt" viewBox="0 0 460.8 345.6" xmlns="http://www.w3.org/2000/svg" version="1.1">
 <metadata>
  <rdf:RDF xmlns:dc="http://purl.org/dc/elements/1.1/" xmlns:cc="http://creativecommons.org/ns#" xmlns:rdf="http://www.w3.org/1999/02/22-rdf-syntax-ns#">
   <cc:Work>
    <dc:type rdf:resource="http://purl.org/dc/dcmitype/StillImage"/>
    <dc:date>2022-05-21T17:11:19.496212</dc:date>
    <dc:format>image/svg+xml</dc:format>
    <dc:creator>
     <cc:Agent>
      <dc:title>Matplotlib v3.5.1, https://matplotlib.org/</dc:title>
     </cc:Agent>
    </dc:creator>
   </cc:Work>
  </rdf:RDF>
 </metadata>
 <defs>
  <style type="text/css">*{stroke-linejoin: round; stroke-linecap: butt}</style>
 </defs>
 <g id="figure_1">
  <g id="patch_1">
   <path d="M 0 345.6 
L 460.8 345.6 
L 460.8 0 
L 0 0 
z
" style="fill: #ffffff"/>
  </g>
  <g id="axes_1">
   <g id="patch_2">
    <path d="M 57.6 307.584 
L 414.72 307.584 
L 414.72 41.472 
L 57.6 41.472 
z
" style="fill: #ffffff"/>
   </g>
   <g id="matplotlib.axis_1">
    <g id="xtick_1">
     <g id="line2d_1">
      <defs>
       <path id="m1c1263dc65" d="M 0 0 
L 0 3.5 
" style="stroke: #000000; stroke-width: 0.8"/>
      </defs>
      <g>
       <use xlink:href="#m1c1263dc65" x="73.603473" y="307.584" style="stroke: #000000; stroke-width: 0.8"/>
      </g>
     </g>
     <g id="text_1">
      <!-- $\mathdefault{0}$ -->
      <g transform="translate(71.112805 321.502498)scale(0.1 -0.1)">
       <defs>
        <path id="CMR17-30" d="M 2688 2025 
C 2688 2416 2682 3080 2413 3591 
C 2176 4039 1798 4198 1466 4198 
C 1158 4198 768 4058 525 3597 
C 269 3118 243 2524 243 2025 
C 243 1661 250 1106 448 619 
C 723 -39 1216 -128 1466 -128 
C 1760 -128 2208 -7 2470 600 
C 2662 1042 2688 1559 2688 2025 
z
M 1466 -26 
C 1056 -26 813 325 723 812 
C 653 1188 653 1738 653 2096 
C 653 2588 653 2997 736 3387 
C 858 3929 1216 4096 1466 4096 
C 1728 4096 2067 3923 2189 3400 
C 2272 3036 2278 2607 2278 2096 
C 2278 1680 2278 1169 2202 792 
C 2067 95 1690 -26 1466 -26 
z
" transform="scale(0.015625)"/>
       </defs>
       <use xlink:href="#CMR17-30" transform="scale(0.996264)"/>
      </g>
     </g>
    </g>
    <g id="xtick_2">
     <g id="line2d_2">
      <g>
       <use xlink:href="#m1c1263dc65" x="130.949872" y="307.584" style="stroke: #000000; stroke-width: 0.8"/>
      </g>
     </g>
     <g id="text_2">
      <!-- $\mathdefault{50}$ -->
      <g transform="translate(125.968537 321.502498)scale(0.1 -0.1)">
       <defs>
        <path id="CMR17-35" d="M 730 3692 
C 794 3666 1056 3584 1325 3584 
C 1920 3584 2246 3911 2432 4100 
C 2432 4157 2432 4192 2394 4192 
C 2387 4192 2374 4192 2323 4163 
C 2099 4058 1837 3973 1517 3973 
C 1325 3973 1037 3999 723 4139 
C 653 4171 640 4171 634 4171 
C 602 4171 595 4164 595 4037 
L 595 2203 
C 595 2089 595 2057 659 2057 
C 691 2057 704 2070 736 2114 
C 941 2401 1222 2522 1542 2522 
C 1766 2522 2246 2382 2246 1289 
C 2246 1085 2246 715 2054 421 
C 1894 159 1645 25 1370 25 
C 947 25 518 320 403 814 
C 429 807 480 795 506 795 
C 589 795 749 840 749 1038 
C 749 1210 627 1280 506 1280 
C 358 1280 262 1190 262 1011 
C 262 454 704 -128 1382 -128 
C 2042 -128 2669 440 2669 1264 
C 2669 2030 2170 2624 1549 2624 
C 1222 2624 947 2503 730 2274 
L 730 3692 
z
" transform="scale(0.015625)"/>
       </defs>
       <use xlink:href="#CMR17-35" transform="scale(0.996264)"/>
       <use xlink:href="#CMR17-30" transform="translate(45.690477 0)scale(0.996264)"/>
      </g>
     </g>
    </g>
    <g id="xtick_3">
     <g id="line2d_3">
      <g>
       <use xlink:href="#m1c1263dc65" x="188.296272" y="307.584" style="stroke: #000000; stroke-width: 0.8"/>
      </g>
     </g>
     <g id="text_3">
      <!-- $\mathdefault{100}$ -->
      <g transform="translate(180.824269 321.502498)scale(0.1 -0.1)">
       <defs>
        <path id="CMR17-31" d="M 1702 4058 
C 1702 4192 1696 4192 1606 4192 
C 1357 3916 979 3827 621 3827 
C 602 3827 570 3827 563 3808 
C 557 3795 557 3782 557 3648 
C 755 3648 1088 3686 1344 3839 
L 1344 461 
C 1344 236 1331 160 781 160 
L 589 160 
L 589 0 
C 896 0 1216 0 1523 0 
C 1830 0 2150 0 2458 0 
L 2458 160 
L 2266 160 
C 1715 160 1702 230 1702 458 
L 1702 4058 
z
" transform="scale(0.015625)"/>
       </defs>
       <use xlink:href="#CMR17-31" transform="scale(0.996264)"/>
       <use xlink:href="#CMR17-30" transform="translate(45.690477 0)scale(0.996264)"/>
       <use xlink:href="#CMR17-30" transform="translate(91.380954 0)scale(0.996264)"/>
      </g>
     </g>
    </g>
    <g id="xtick_4">
     <g id="line2d_4">
      <g>
       <use xlink:href="#m1c1263dc65" x="245.642671" y="307.584" style="stroke: #000000; stroke-width: 0.8"/>
      </g>
     </g>
     <g id="text_4">
      <!-- $\mathdefault{150}$ -->
      <g transform="translate(238.170668 321.502498)scale(0.1 -0.1)">
       <use xlink:href="#CMR17-31" transform="scale(0.996264)"/>
       <use xlink:href="#CMR17-35" transform="translate(45.690477 0)scale(0.996264)"/>
       <use xlink:href="#CMR17-30" transform="translate(91.380954 0)scale(0.996264)"/>
      </g>
     </g>
    </g>
    <g id="xtick_5">
     <g id="line2d_5">
      <g>
       <use xlink:href="#m1c1263dc65" x="302.989071" y="307.584" style="stroke: #000000; stroke-width: 0.8"/>
      </g>
     </g>
     <g id="text_5">
      <!-- $\mathdefault{200}$ -->
      <g transform="translate(295.517068 321.502498)scale(0.1 -0.1)">
       <defs>
        <path id="CMR17-32" d="M 2669 989 
L 2554 989 
C 2490 536 2438 459 2413 420 
C 2381 369 1920 369 1830 369 
L 602 369 
C 832 619 1280 1072 1824 1597 
C 2214 1967 2669 2402 2669 3035 
C 2669 3790 2067 4224 1395 4224 
C 691 4224 262 3604 262 3030 
C 262 2780 448 2748 525 2748 
C 589 2748 781 2787 781 3010 
C 781 3207 614 3264 525 3264 
C 486 3264 448 3258 422 3245 
C 544 3790 915 4058 1306 4058 
C 1862 4058 2227 3617 2227 3035 
C 2227 2479 1901 2000 1536 1584 
L 262 146 
L 262 0 
L 2515 0 
L 2669 989 
z
" transform="scale(0.015625)"/>
       </defs>
       <use xlink:href="#CMR17-32" transform="scale(0.996264)"/>
       <use xlink:href="#CMR17-30" transform="translate(45.690477 0)scale(0.996264)"/>
       <use xlink:href="#CMR17-30" transform="translate(91.380954 0)scale(0.996264)"/>
      </g>
     </g>
    </g>
    <g id="xtick_6">
     <g id="line2d_6">
      <g>
       <use xlink:href="#m1c1263dc65" x="360.33547" y="307.584" style="stroke: #000000; stroke-width: 0.8"/>
      </g>
     </g>
     <g id="text_6">
      <!-- $\mathdefault{250}$ -->
      <g transform="translate(352.863467 321.502498)scale(0.1 -0.1)">
       <use xlink:href="#CMR17-32" transform="scale(0.996264)"/>
       <use xlink:href="#CMR17-35" transform="translate(45.690477 0)scale(0.996264)"/>
       <use xlink:href="#CMR17-30" transform="translate(91.380954 0)scale(0.996264)"/>
      </g>
     </g>
    </g>
    <g id="text_7">
     <!-- Temps (s) -->
     <g transform="translate(202.039235 339.394845)scale(0.16 -0.16)">
      <defs>
       <path id="CMR17-54" d="M 3981 4326 
L 288 4326 
L 179 2918 
L 294 2918 
C 378 3976 467 4160 1453 4160 
C 1568 4160 1754 4160 1805 4154 
C 1926 4135 1926 4058 1926 3912 
L 1926 459 
C 1926 230 1907 160 1376 160 
L 1197 160 
L 1197 0 
C 1504 0 1824 0 2138 0 
C 2451 0 2771 0 3078 0 
L 3078 160 
L 2899 160 
C 2368 160 2349 230 2349 459 
L 2349 3912 
C 2349 4052 2349 4129 2464 4154 
C 2515 4160 2701 4160 2816 4160 
C 3795 4160 3891 3976 3974 2918 
L 4090 2918 
L 3981 4326 
z
" transform="scale(0.015625)"/>
       <path id="CMR17-65" d="M 2438 1472 
C 2464 1498 2464 1511 2464 1576 
C 2464 2238 2118 2816 1389 2816 
C 710 2816 173 2169 173 1383 
C 173 551 781 -64 1459 -64 
C 2176 -64 2458 607 2458 740 
C 2458 784 2419 784 2406 784 
C 2362 784 2355 771 2330 696 
C 2189 265 1837 51 1504 51 
C 1229 51 954 203 781 480 
C 582 803 582 1176 582 1472 
L 2438 1472 
z
M 589 1568 
C 634 2505 1126 2714 1382 2714 
C 1818 2714 2112 2297 2118 1568 
L 589 1568 
z
" transform="scale(0.015625)"/>
       <path id="CMR17-6d" d="M 4326 1933 
C 4326 2252 4269 2790 3507 2790 
C 3072 2790 2771 2496 2656 2151 
L 2650 2151 
C 2573 2676 2195 2790 1837 2790 
C 1331 2790 1069 2400 973 2144 
L 966 2144 
L 966 2790 
L 211 2720 
L 211 2554 
C 589 2554 646 2515 646 2208 
L 646 428 
C 646 184 621 153 211 153 
L 211 -13 
C 365 0 646 0 813 0 
C 979 0 1267 0 1421 -13 
L 1421 153 
C 1011 153 986 178 986 428 
L 986 1658 
C 986 2247 1344 2688 1792 2688 
C 2266 2688 2317 2266 2317 1958 
L 2317 428 
C 2317 184 2291 153 1882 153 
L 1882 -13 
C 2035 0 2317 0 2483 0 
C 2650 0 2938 0 3091 -13 
L 3091 153 
C 2682 153 2656 178 2656 428 
L 2656 1658 
C 2656 2247 3014 2688 3462 2688 
C 3936 2688 3987 2266 3987 1958 
L 3987 428 
C 3987 184 3962 153 3552 153 
L 3552 -13 
C 3706 0 3987 0 4154 0 
C 4320 0 4608 0 4762 -13 
L 4762 153 
C 4352 153 4326 178 4326 428 
L 4326 1933 
z
" transform="scale(0.015625)"/>
       <path id="CMR17-70" d="M 1408 -1063 
C 998 -1063 973 -1037 973 -789 
L 973 402 
C 1158 134 1427 -38 1766 -38 
C 2406 -38 3053 523 3053 1388 
C 3053 2191 2496 2802 1837 2802 
C 1453 2802 1139 2592 960 2338 
L 960 2802 
L 198 2732 
L 198 2567 
C 576 2567 634 2528 634 2223 
L 634 -789 
C 634 -1031 608 -1063 198 -1063 
L 198 -1228 
C 352 -1216 634 -1216 800 -1216 
C 966 -1216 1254 -1216 1408 -1228 
L 1408 -1063 
z
M 973 2012 
C 973 2102 973 2235 1222 2471 
C 1254 2497 1472 2688 1792 2688 
C 2259 2688 2643 2108 2643 1382 
C 2643 656 2234 64 1728 64 
C 1498 64 1248 172 1056 472 
C 973 612 973 650 973 752 
L 973 2012 
z
" transform="scale(0.015625)"/>
       <path id="CMR17-73" d="M 1978 2697 
C 1978 2813 1971 2819 1933 2819 
C 1907 2819 1901 2813 1824 2717 
C 1805 2691 1747 2626 1728 2601 
C 1523 2819 1235 2819 1126 2819 
C 416 2819 160 2447 160 2076 
C 160 1498 813 1365 998 1325 
C 1402 1243 1542 1217 1677 1101 
C 1760 1025 1901 884 1901 654 
C 1901 384 1747 38 1158 38 
C 602 38 403 460 288 1021 
C 269 1110 269 1117 218 1117 
C 166 1117 160 1110 160 983 
L 160 63 
C 160 -51 166 -58 205 -58 
C 237 -58 243 -51 275 0 
C 314 57 410 211 448 276 
C 576 103 800 -64 1158 -64 
C 1792 -64 2131 283 2131 784 
C 2131 1112 1958 1285 1875 1362 
C 1683 1561 1459 1606 1190 1657 
C 838 1735 390 1825 390 2217 
C 390 2383 480 2737 1126 2737 
C 1811 2737 1850 2094 1862 1888 
C 1869 1856 1901 1849 1920 1849 
C 1978 1849 1978 1869 1978 1978 
L 1978 2697 
z
" transform="scale(0.015625)"/>
       <path id="CMR17-28" d="M 1958 -1561 
C 1958 -1555 1958 -1542 1939 -1523 
C 1645 -1224 858 -407 858 1581 
C 858 3569 1632 4379 1946 4697 
C 1946 4704 1958 4717 1958 4736 
C 1958 4755 1939 4768 1914 4768 
C 1843 4768 1299 4296 986 3594 
C 666 2887 576 2199 576 1588 
C 576 1128 621 351 1005 -471 
C 1312 -1135 1837 -1600 1914 -1600 
C 1946 -1600 1958 -1587 1958 -1561 
z
" transform="scale(0.015625)"/>
       <path id="CMR17-29" d="M 1683 1581 
C 1683 2040 1638 2817 1254 3639 
C 947 4303 422 4768 346 4768 
C 326 4768 301 4761 301 4729 
C 301 4717 307 4710 314 4697 
C 621 4378 1402 3568 1402 1584 
C 1402 -407 627 -1217 314 -1537 
C 307 -1549 301 -1556 301 -1568 
C 301 -1600 326 -1600 346 -1600 
C 416 -1600 960 -1128 1274 -426 
C 1594 281 1683 969 1683 1581 
z
" transform="scale(0.015625)"/>
      </defs>
      <use xlink:href="#CMR17-54" transform="scale(0.996264)"/>
      <use xlink:href="#CMR17-65" transform="translate(58.702625 0)scale(0.996264)"/>
      <use xlink:href="#CMR17-6d" transform="translate(99.188286 0)scale(0.996264)"/>
      <use xlink:href="#CMR17-70" transform="translate(176.107875 0)scale(0.996264)"/>
      <use xlink:href="#CMR17-73" transform="translate(227.003245 0)scale(0.996264)"/>
      <use xlink:href="#CMR17-28" transform="translate(292.880549 0)scale(0.996264)"/>
      <use xlink:href="#CMR17-73" transform="translate(328.161317 0)scale(0.996264)"/>
      <use xlink:href="#CMR17-29" transform="translate(363.962655 0)scale(0.996264)"/>
     </g>
    </g>
   </g>
   <g id="matplotlib.axis_2">
    <g id="ytick_1">
     <g id="line2d_7">
      <defs>
       <path id="m4ede350231" d="M 0 0 
L -3.5 0 
" style="stroke: #000000; stroke-width: 0.8"/>
      </defs>
      <g>
       <use xlink:href="#m4ede350231" x="57.6" y="295.488" style="stroke: #000000; stroke-width: 0.8"/>
      </g>
     </g>
     <g id="text_8">
      <!-- $\mathdefault{0.0000}$ -->
      <g transform="translate(22.925915 298.947249)scale(0.1 -0.1)">
       <defs>
        <path id="CMMI12-3a" d="M 1178 307 
C 1178 492 1024 619 870 619 
C 685 619 557 466 557 313 
C 557 128 710 0 864 0 
C 1050 0 1178 153 1178 307 
z
" transform="scale(0.015625)"/>
       </defs>
       <use xlink:href="#CMR17-30" transform="scale(0.996264)"/>
       <use xlink:href="#CMMI12-3a" transform="translate(45.690477 0)scale(0.996264)"/>
       <use xlink:href="#CMR17-30" transform="translate(72.787654 0)scale(0.996264)"/>
       <use xlink:href="#CMR17-30" transform="translate(118.478131 0)scale(0.996264)"/>
       <use xlink:href="#CMR17-30" transform="translate(164.168608 0)scale(0.996264)"/>
       <use xlink:href="#CMR17-30" transform="translate(209.859086 0)scale(0.996264)"/>
      </g>
     </g>
    </g>
    <g id="ytick_2">
     <g id="line2d_8">
      <g>
       <use xlink:href="#m4ede350231" x="57.6" y="263.935095" style="stroke: #000000; stroke-width: 0.8"/>
      </g>
     </g>
     <g id="text_9">
      <!-- $\mathdefault{0.0002}$ -->
      <g transform="translate(22.925915 267.394344)scale(0.1 -0.1)">
       <use xlink:href="#CMR17-30" transform="scale(0.996264)"/>
       <use xlink:href="#CMMI12-3a" transform="translate(45.690477 0)scale(0.996264)"/>
       <use xlink:href="#CMR17-30" transform="translate(72.787654 0)scale(0.996264)"/>
       <use xlink:href="#CMR17-30" transform="translate(118.478131 0)scale(0.996264)"/>
       <use xlink:href="#CMR17-30" transform="translate(164.168608 0)scale(0.996264)"/>
       <use xlink:href="#CMR17-32" transform="translate(209.859086 0)scale(0.996264)"/>
      </g>
     </g>
    </g>
    <g id="ytick_3">
     <g id="line2d_9">
      <g>
       <use xlink:href="#m4ede350231" x="57.6" y="232.38219" style="stroke: #000000; stroke-width: 0.8"/>
      </g>
     </g>
     <g id="text_10">
      <!-- $\mathdefault{0.0004}$ -->
      <g transform="translate(22.925915 235.841439)scale(0.1 -0.1)">
       <defs>
        <path id="CMR17-34" d="M 2150 4122 
C 2150 4256 2144 4256 2029 4256 
L 128 1254 
L 128 1088 
L 1779 1088 
L 1779 457 
C 1779 224 1766 160 1318 160 
L 1197 160 
L 1197 0 
C 1402 0 1747 0 1965 0 
C 2182 0 2528 0 2733 0 
L 2733 160 
L 2611 160 
C 2163 160 2150 224 2150 457 
L 2150 1088 
L 2803 1088 
L 2803 1254 
L 2150 1254 
L 2150 4122 
z
M 1798 3703 
L 1798 1254 
L 256 1254 
L 1798 3703 
z
" transform="scale(0.015625)"/>
       </defs>
       <use xlink:href="#CMR17-30" transform="scale(0.996264)"/>
       <use xlink:href="#CMMI12-3a" transform="translate(45.690477 0)scale(0.996264)"/>
       <use xlink:href="#CMR17-30" transform="translate(72.787654 0)scale(0.996264)"/>
       <use xlink:href="#CMR17-30" transform="translate(118.478131 0)scale(0.996264)"/>
       <use xlink:href="#CMR17-30" transform="translate(164.168608 0)scale(0.996264)"/>
       <use xlink:href="#CMR17-34" transform="translate(209.859086 0)scale(0.996264)"/>
      </g>
     </g>
    </g>
    <g id="ytick_4">
     <g id="line2d_10">
      <g>
       <use xlink:href="#m4ede350231" x="57.6" y="200.829285" style="stroke: #000000; stroke-width: 0.8"/>
      </g>
     </g>
     <g id="text_11">
      <!-- $\mathdefault{0.0006}$ -->
      <g transform="translate(22.925915 204.288534)scale(0.1 -0.1)">
       <defs>
        <path id="CMR17-36" d="M 678 2176 
C 678 3690 1395 4032 1811 4032 
C 1946 4032 2272 4009 2400 3776 
C 2298 3776 2106 3776 2106 3553 
C 2106 3381 2246 3323 2336 3323 
C 2394 3323 2566 3348 2566 3560 
C 2566 3954 2246 4179 1805 4179 
C 1043 4179 243 3390 243 1984 
C 243 253 966 -128 1478 -128 
C 2099 -128 2688 427 2688 1283 
C 2688 2081 2170 2662 1517 2662 
C 1126 2662 838 2407 678 1960 
L 678 2176 
z
M 1478 25 
C 691 25 691 1200 691 1436 
C 691 1896 909 2560 1504 2560 
C 1613 2560 1926 2560 2138 2120 
C 2253 1870 2253 1609 2253 1289 
C 2253 944 2253 690 2118 434 
C 1978 171 1773 25 1478 25 
z
" transform="scale(0.015625)"/>
       </defs>
       <use xlink:href="#CMR17-30" transform="scale(0.996264)"/>
       <use xlink:href="#CMMI12-3a" transform="translate(45.690477 0)scale(0.996264)"/>
       <use xlink:href="#CMR17-30" transform="translate(72.787654 0)scale(0.996264)"/>
       <use xlink:href="#CMR17-30" transform="translate(118.478131 0)scale(0.996264)"/>
       <use xlink:href="#CMR17-30" transform="translate(164.168608 0)scale(0.996264)"/>
       <use xlink:href="#CMR17-36" transform="translate(209.859086 0)scale(0.996264)"/>
      </g>
     </g>
    </g>
    <g id="ytick_5">
     <g id="line2d_11">
      <g>
       <use xlink:href="#m4ede350231" x="57.6" y="169.27638" style="stroke: #000000; stroke-width: 0.8"/>
      </g>
     </g>
     <g id="text_12">
      <!-- $\mathdefault{0.0008}$ -->
      <g transform="translate(22.925915 172.735629)scale(0.1 -0.1)">
       <defs>
        <path id="CMR17-38" d="M 1741 2264 
C 2144 2467 2554 2773 2554 3263 
C 2554 3841 1990 4179 1472 4179 
C 890 4179 378 3759 378 3180 
C 378 3021 416 2747 666 2505 
C 730 2442 998 2251 1171 2130 
C 883 1983 211 1634 211 934 
C 211 279 838 -128 1459 -128 
C 2144 -128 2720 362 2720 1010 
C 2720 1590 2330 1857 2074 2029 
L 1741 2264 
z
M 902 2822 
C 851 2854 595 3051 595 3351 
C 595 3739 998 4032 1459 4032 
C 1965 4032 2336 3676 2336 3262 
C 2336 2669 1670 2331 1638 2331 
C 1632 2331 1626 2331 1574 2370 
L 902 2822 
z
M 2080 1519 
C 2176 1449 2483 1240 2483 851 
C 2483 381 2010 25 1472 25 
C 890 25 448 438 448 940 
C 448 1443 838 1862 1280 2060 
L 2080 1519 
z
" transform="scale(0.015625)"/>
       </defs>
       <use xlink:href="#CMR17-30" transform="scale(0.996264)"/>
       <use xlink:href="#CMMI12-3a" transform="translate(45.690477 0)scale(0.996264)"/>
       <use xlink:href="#CMR17-30" transform="translate(72.787654 0)scale(0.996264)"/>
       <use xlink:href="#CMR17-30" transform="translate(118.478131 0)scale(0.996264)"/>
       <use xlink:href="#CMR17-30" transform="translate(164.168608 0)scale(0.996264)"/>
       <use xlink:href="#CMR17-38" transform="translate(209.859086 0)scale(0.996264)"/>
      </g>
     </g>
    </g>
    <g id="ytick_6">
     <g id="line2d_12">
      <g>
       <use xlink:href="#m4ede350231" x="57.6" y="137.723475" style="stroke: #000000; stroke-width: 0.8"/>
      </g>
     </g>
     <g id="text_13">
      <!-- $\mathdefault{0.0010}$ -->
      <g transform="translate(22.925915 141.182724)scale(0.1 -0.1)">
       <use xlink:href="#CMR17-30" transform="scale(0.996264)"/>
       <use xlink:href="#CMMI12-3a" transform="translate(45.690477 0)scale(0.996264)"/>
       <use xlink:href="#CMR17-30" transform="translate(72.787654 0)scale(0.996264)"/>
       <use xlink:href="#CMR17-30" transform="translate(118.478131 0)scale(0.996264)"/>
       <use xlink:href="#CMR17-31" transform="translate(164.168608 0)scale(0.996264)"/>
       <use xlink:href="#CMR17-30" transform="translate(209.859086 0)scale(0.996264)"/>
      </g>
     </g>
    </g>
    <g id="ytick_7">
     <g id="line2d_13">
      <g>
       <use xlink:href="#m4ede350231" x="57.6" y="106.17057" style="stroke: #000000; stroke-width: 0.8"/>
      </g>
     </g>
     <g id="text_14">
      <!-- $\mathdefault{0.0012}$ -->
      <g transform="translate(22.925915 109.629819)scale(0.1 -0.1)">
       <use xlink:href="#CMR17-30" transform="scale(0.996264)"/>
       <use xlink:href="#CMMI12-3a" transform="translate(45.690477 0)scale(0.996264)"/>
       <use xlink:href="#CMR17-30" transform="translate(72.787654 0)scale(0.996264)"/>
       <use xlink:href="#CMR17-30" transform="translate(118.478131 0)scale(0.996264)"/>
       <use xlink:href="#CMR17-31" transform="translate(164.168608 0)scale(0.996264)"/>
       <use xlink:href="#CMR17-32" transform="translate(209.859086 0)scale(0.996264)"/>
      </g>
     </g>
    </g>
    <g id="ytick_8">
     <g id="line2d_14">
      <g>
       <use xlink:href="#m4ede350231" x="57.6" y="74.617665" style="stroke: #000000; stroke-width: 0.8"/>
      </g>
     </g>
     <g id="text_15">
      <!-- $\mathdefault{0.0014}$ -->
      <g transform="translate(22.925915 78.076914)scale(0.1 -0.1)">
       <use xlink:href="#CMR17-30" transform="scale(0.996264)"/>
       <use xlink:href="#CMMI12-3a" transform="translate(45.690477 0)scale(0.996264)"/>
       <use xlink:href="#CMR17-30" transform="translate(72.787654 0)scale(0.996264)"/>
       <use xlink:href="#CMR17-30" transform="translate(118.478131 0)scale(0.996264)"/>
       <use xlink:href="#CMR17-31" transform="translate(164.168608 0)scale(0.996264)"/>
       <use xlink:href="#CMR17-34" transform="translate(209.859086 0)scale(0.996264)"/>
      </g>
     </g>
    </g>
    <g id="ytick_9">
     <g id="line2d_15">
      <g>
       <use xlink:href="#m4ede350231" x="57.6" y="43.06476" style="stroke: #000000; stroke-width: 0.8"/>
      </g>
     </g>
     <g id="text_16">
      <!-- $\mathdefault{0.0016}$ -->
      <g transform="translate(22.925915 46.524009)scale(0.1 -0.1)">
       <use xlink:href="#CMR17-30" transform="scale(0.996264)"/>
       <use xlink:href="#CMMI12-3a" transform="translate(45.690477 0)scale(0.996264)"/>
       <use xlink:href="#CMR17-30" transform="translate(72.787654 0)scale(0.996264)"/>
       <use xlink:href="#CMR17-30" transform="translate(118.478131 0)scale(0.996264)"/>
       <use xlink:href="#CMR17-31" transform="translate(164.168608 0)scale(0.996264)"/>
       <use xlink:href="#CMR17-36" transform="translate(209.859086 0)scale(0.996264)"/>
      </g>
     </g>
    </g>
    <g id="text_17">
     <!-- $E_{e}$ (J) -->
     <g transform="translate(14.940859 195.831823)rotate(-90)scale(0.16 -0.16)">
      <defs>
       <path id="CMMI12-45" d="M 4448 1489 
C 4454 1508 4474 1554 4474 1579 
C 4474 1611 4448 1643 4410 1643 
C 4384 1643 4371 1637 4352 1617 
C 4339 1611 4339 1598 4282 1469 
C 3904 570 3629 185 2605 185 
L 1670 185 
C 1581 185 1568 185 1530 192 
C 1459 198 1453 211 1453 262 
C 1453 307 1466 345 1478 403 
L 1920 2176 
L 2554 2176 
C 3053 2176 3091 2066 3091 1874 
C 3091 1810 3091 1752 3046 1560 
C 3034 1534 3027 1508 3027 1489 
C 3027 1444 3059 1425 3098 1425 
C 3155 1425 3162 1469 3187 1559 
L 3552 3042 
C 3552 3073 3526 3105 3488 3105 
C 3430 3105 3424 3080 3398 2990 
C 3270 2501 3142 2361 2573 2361 
L 1965 2361 
L 2362 3930 
C 2419 4154 2432 4154 2694 4154 
L 3610 4154 
C 4397 4154 4557 3943 4557 3458 
C 4557 3451 4557 3273 4531 3062 
C 4525 3036 4518 2998 4518 2985 
C 4518 2934 4550 2915 4589 2915 
C 4634 2915 4659 2941 4672 3055 
L 4806 4174 
C 4806 4195 4819 4263 4819 4277 
C 4819 4352 4762 4352 4646 4352 
L 1523 4352 
C 1402 4352 1338 4352 1338 4229 
C 1338 4154 1382 4154 1491 4154 
C 1888 4154 1888 4114 1888 4052 
C 1888 4020 1882 3994 1862 3924 
L 998 473 
C 941 249 928 185 480 185 
C 358 185 294 185 294 70 
C 294 0 333 0 461 0 
L 3674 0 
C 3814 0 3821 6 3866 110 
L 4448 1489 
z
" transform="scale(0.015625)"/>
       <path id="CMMI12-65" d="M 1146 1479 
C 1318 1479 1754 1479 2061 1595 
C 2547 1783 2592 2158 2592 2274 
C 2592 2558 2349 2816 1926 2816 
C 1254 2816 288 2210 288 1073 
C 288 402 672 -64 1254 -64 
C 2125 -64 2675 609 2675 692 
C 2675 730 2637 762 2611 762 
C 2592 762 2586 756 2528 699 
C 2118 159 1510 64 1267 64 
C 902 64 710 350 710 822 
C 710 911 710 1071 806 1479 
L 1146 1479 
z
M 838 1600 
C 1114 2592 1722 2689 1926 2689 
C 2208 2689 2400 2522 2400 2277 
C 2400 1600 1376 1600 1107 1600 
L 838 1600 
z
" transform="scale(0.015625)"/>
       <path id="CMR17-4a" d="M 1888 910 
C 1888 324 1568 -26 1242 -26 
C 1075 -26 691 49 525 431 
C 550 425 582 418 608 418 
C 730 418 883 501 883 692 
C 883 845 774 960 614 960 
C 461 960 339 865 339 682 
C 339 258 730 -128 1254 -128 
C 1754 -128 2214 229 2291 764 
C 2298 809 2298 821 2298 1038 
L 2298 3715 
C 2298 3823 2298 4001 2310 4039 
C 2336 4160 2483 4160 2682 4160 
L 2682 4320 
C 2669 4320 2214 4320 2054 4320 
C 1786 4320 1491 4320 1222 4320 
L 1222 4160 
L 1376 4160 
C 1875 4160 1888 4090 1888 3861 
L 1888 910 
z
" transform="scale(0.015625)"/>
      </defs>
      <use xlink:href="#CMMI12-45" transform="scale(0.996264)"/>
      <use xlink:href="#CMMI12-65" transform="translate(72.211218 -14.943915)scale(0.697382)"/>
      <use xlink:href="#CMR17-28" transform="translate(134.433572 0)scale(0.996264)"/>
      <use xlink:href="#CMR17-4a" transform="translate(169.71434 0)scale(0.996264)"/>
      <use xlink:href="#CMR17-29" transform="translate(216.68613 0)scale(0.996264)"/>
     </g>
    </g>
   </g>
   <g id="line2d_16">
    <path d="M 73.832727 295.47973 
L 80.102987 295.48509 
L 81.632515 295.486952 
L 92.719459 295.328655 
L 93.024541 295.272785 
L 93.330771 295.344356 
L 93.536069 295.29945 
L 99.753693 294.756303 
L 99.906235 294.624266 
L 99.983079 294.854409 
L 100.058775 294.756303 
L 100.135619 294.671522 
L 100.288163 294.741159 
L 100.556543 294.708491 
L 100.861625 294.624266 
L 101.244831 294.456387 
L 101.474215 294.431188 
L 101.703602 294.431188 
L 101.779298 294.456387 
L 101.856142 294.353767 
L 101.932987 294.431188 
L 102.008684 294.431188 
L 102.085527 294.273609 
L 102.162372 294.353767 
L 102.811672 294.300633 
L 102.888517 294.105084 
L 103.041058 294.279873 
L 103.117904 294.133932 
L 103.193601 294.327352 
L 103.347289 294.098384 
L 103.499829 294.218651 
L 103.576675 294.046477 
L 103.729216 294.162476 
L 103.881758 294.133932 
L 104.073293 294.156791 
L 104.150137 293.986653 
L 104.225836 294.075933 
L 104.379561 293.925613 
L 104.455261 294.075933 
L 104.532104 293.990967 
L 104.608948 293.863357 
L 104.684646 293.956285 
L 104.838334 293.863357 
L 104.91403 293.956285 
L 105.06772 293.863357 
L 105.143419 293.956285 
L 105.297105 293.799885 
L 105.679031 293.863357 
L 105.984398 293.799885 
L 106.061243 293.925613 
L 106.21493 293.814417 
L 106.290629 293.894637 
L 106.557863 293.702396 
L 106.634706 293.863357 
L 106.71155 293.767692 
L 106.787248 293.702396 
L 106.864093 293.863357 
L 106.940936 293.767692 
L 107.016633 293.735196 
L 107.093478 293.831773 
L 107.170322 293.767692 
L 107.285014 293.819054 
L 107.360711 293.60217 
L 107.629371 293.767692 
L 107.705067 293.635882 
L 107.781913 293.702396 
L 107.858756 293.702396 
L 107.934453 293.568153 
L 108.011298 293.635882 
L 108.278531 293.533832 
L 108.432221 293.60217 
L 108.737304 293.429046 
L 108.814149 293.60217 
L 108.890992 293.533832 
L 108.966688 293.393509 
L 109.234905 293.499208 
L 109.310605 293.357668 
L 109.387448 293.464279 
L 109.464292 293.393509 
L 109.539988 293.321523 
L 109.693676 293.429046 
L 109.769375 293.321523 
L 109.923062 293.393509 
L 110.075603 293.346579 
L 110.152447 293.393509 
L 110.304787 293.285073 
L 110.381631 293.357668 
L 110.458474 293.211263 
L 110.534173 293.285073 
L 110.611017 293.285073 
L 110.686713 293.173902 
L 110.992944 293.211263 
L 111.146631 293.173902 
L 111.22233 293.285073 
L 111.376018 293.136236 
L 111.696691 293.049002 
L 111.764358 293.081901 
L 111.83432 292.864065 
L 111.911165 293.129355 
L 111.986861 293.021416 
L 112.063705 292.903858 
L 112.13991 292.982534 
L 112.407145 292.823967 
L 112.483987 292.943348 
L 112.560832 292.864065 
L 112.636529 292.701849 
L 112.790217 292.864065 
L 112.865914 292.783565 
L 112.94276 292.903858 
L 113.057451 292.71213 
L 113.134295 292.823967 
L 113.286839 292.742859 
L 113.363681 292.783565 
L 113.439378 292.660534 
L 113.516224 292.783565 
L 113.593067 292.701849 
L 114.395751 292.618916 
L 114.472595 292.534768 
L 114.548294 292.660534 
L 114.625137 292.607513 
L 114.701981 292.534768 
L 114.854524 292.618916 
L 114.931366 292.449403 
L 115.007063 292.534768 
L 115.236451 292.576994 
L 115.618608 292.449403 
L 115.886988 292.492237 
L 116.039531 292.449403 
L 116.345759 292.362822 
L 116.421456 292.275024 
L 116.575144 292.362822 
L 116.80453 292.275024 
L 116.957374 292.23067 
L 117.186761 292.275024 
L 117.606536 292.197204 
L 117.98961 292.05021 
L 118.218996 291.911673 
L 118.294693 292.05021 
L 118.372091 291.911673 
L 118.524632 291.958156 
L 118.90656 291.770399 
L 118.983403 291.817794 
L 119.135946 291.722699 
L 119.212789 291.817794 
L 119.365332 291.674696 
L 119.519019 291.770399 
L 119.595255 291.577777 
L 119.670953 291.722699 
L 119.824641 291.577777 
L 119.90034 291.674696 
L 120.168717 291.479641 
L 120.244415 291.626388 
L 120.398105 291.479641 
L 120.474898 291.577777 
L 120.627438 291.430117 
L 120.703137 291.479641 
L 120.894673 291.38029 
L 121.009366 291.38029 
L 121.086212 291.228982 
L 121.163054 291.38029 
L 121.238751 291.228982 
L 121.315597 291.279722 
L 121.659492 291.177938 
L 121.851025 291.228982 
L 122.003568 291.126589 
L 122.080412 291.228982 
L 122.270803 291.126589 
L 122.348032 291.074937 
L 122.423728 291.24285 
L 122.500576 290.961186 
L 122.577417 291.022981 
L 122.69211 291.228982 
L 122.84465 290.970721 
L 122.997192 291.022981 
L 123.188327 290.881587 
L 124.145069 290.865288 
L 124.297612 290.704858 
L 124.450151 290.812115 
L 124.602693 290.758639 
L 124.908917 290.650773 
L 124.985762 290.486695 
L 125.062605 290.596384 
L 125.215148 290.486695 
L 125.405745 290.555393 
L 125.559433 290.375789 
L 125.635129 290.596384 
L 125.711976 290.486695 
L 125.826669 290.514231 
L 125.903516 290.370719 
L 126.093901 290.475659 
L 126.170747 290.486695 
L 126.247359 290.31988 
L 126.437759 290.431394 
L 126.591783 290.207149 
L 126.667478 290.431394 
L 126.744323 290.375789 
L 126.821168 290.150328 
L 126.896867 290.375789 
L 127.011557 290.221307 
L 127.088402 290.31988 
L 127.165245 290.150328 
L 127.240942 290.31988 
L 127.317788 290.1244 
L 127.394632 290.207149 
L 127.470329 290.31988 
L 127.547172 290.207149 
L 127.661865 290.305855 
L 127.73871 290.093203 
L 127.814348 290.309682 
L 128.005883 290.093203 
L 128.082555 290.035773 
L 128.158251 290.207149 
L 128.235096 289.97804 
L 128.387636 290.224572 
L 128.541326 289.920002 
L 128.731715 289.97804 
L 128.96147 289.920002 
L 129.038313 289.744066 
L 129.382393 289.861661 
L 129.458091 289.744066 
L 129.534934 289.803015 
L 129.611777 289.861661 
L 129.687476 289.625254 
L 129.764319 289.861661 
L 130.031555 289.505226 
L 130.108398 289.803015 
L 130.26094 289.261522 
L 130.337783 289.625254 
L 130.414627 289.565392 
L 130.529319 289.520296 
L 130.605017 289.322904 
L 130.681862 289.444756 
L 130.950046 289.012953 
L 131.025743 289.383982 
L 131.217293 289.106736 
L 131.331993 289.106736 
L 131.52352 289.012953 
L 131.676073 289.075551 
L 131.751776 288.886844 
L 131.82862 289.075551 
L 131.982309 288.759518 
L 132.058006 288.95005 
L 132.211693 288.501219 
L 132.287389 288.886844 
L 132.439946 288.435884 
L 132.516789 288.823333 
L 132.593641 288.501219 
L 132.708311 288.630977 
L 132.785163 288.304302 
L 132.860859 288.6954 
L 133.014426 288.304302 
L 133.090121 288.56625 
L 133.319632 288.238055 
L 133.396477 288.238055 
L 133.472192 288.037489 
L 133.549037 288.104648 
L 133.625887 288.238055 
L 133.701593 287.55886 
L 133.778438 288.104648 
L 133.855281 288.037489 
L 133.931339 287.55886 
L 134.083887 287.970026 
L 134.16074 287.55886 
L 134.237583 287.902258 
L 134.428728 287.57148 
L 134.504434 287.524102 
L 134.658116 287.628148 
L 134.810656 287.349172 
L 134.887501 287.489268 
L 134.963197 287.278668 
L 135.040042 287.349172 
L 135.154735 287.495607 
L 135.307278 287.065332 
L 135.460964 287.489268 
L 135.536661 286.993612 
L 135.613908 287.136748 
L 135.689605 287.20786 
L 135.76645 286.776627 
L 135.91899 287.20786 
L 135.995836 286.849259 
L 136.072679 287.136748 
L 136.148375 286.993612 
L 136.263068 286.907146 
L 136.339914 286.63045 
L 136.416758 286.993612 
L 136.569297 286.556905 
L 136.646142 286.993612 
L 136.721839 286.776627 
L 136.798685 286.875596 
L 136.875528 286.826943 
L 136.951226 286.556905 
L 137.104913 286.921588 
L 137.181466 286.476328 
L 137.257766 286.776627 
L 137.333464 286.483056 
L 137.410309 286.70369 
L 137.487154 286.334447 
L 137.56285 286.556905 
L 137.639694 286.483056 
L 137.716539 286.184621 
L 137.792236 286.483056 
L 137.86908 286.334447 
L 137.945926 286.033579 
L 138.021621 286.334447 
L 138.17531 285.957602 
L 138.251919 286.259686 
L 138.481328 285.93856 
L 138.557026 286.109252 
L 138.633871 286.033579 
L 138.710411 286.033579 
L 138.977949 285.727846 
L 139.054791 285.881321 
L 139.130488 285.727846 
L 139.207333 285.804736 
L 139.589261 285.573156 
L 139.666588 285.650653 
L 139.742282 285.573156 
L 140.047954 285.579128 
L 140.124802 285.260125 
L 140.278276 285.495354 
L 140.431112 285.260125 
L 140.545801 285.35847 
L 140.927728 284.781458 
L 141.004571 284.861996 
L 141.157113 284.781458 
L 141.348647 284.700616 
L 141.424344 284.781458 
L 141.501197 284.456266 
L 141.578041 284.53802 
L 141.653749 284.61947 
L 141.807421 284.523178 
L 141.883116 284.625723 
L 142.266191 284.254307 
L 142.341888 284.399488 
L 142.495581 284.126208 
L 142.571276 284.209178 
L 142.648123 284.126208 
L 142.724967 283.875472 
L 142.800813 284.042933 
L 143.298428 283.706795 
L 143.374126 283.959355 
L 143.450973 283.536901 
L 143.527817 283.622 
L 143.603512 283.791285 
L 143.757198 283.622 
L 143.8329 283.706795 
L 143.909742 283.536901 
L 143.986589 283.622 
L 144.062287 283.706795 
L 144.215975 283.365791 
L 144.291674 283.521396 
L 144.368525 283.23334 
L 144.44536 283.27978 
L 144.521057 283.536901 
L 144.597906 283.146255 
L 144.674741 283.27978 
L 145.018556 282.932695 
L 145.094519 283.019922 
L 145.248208 282.669188 
L 145.323904 282.932695 
L 145.47735 282.580745 
L 145.553292 282.845163 
L 145.630145 282.757328 
L 145.70698 282.580745 
L 145.782675 282.757328 
L 145.85952 282.580745 
L 145.974213 282.602884 
L 146.051055 282.491997 
L 146.126754 282.757328 
L 146.280441 282.491997 
L 146.356147 282.669188 
L 146.509829 282.491997 
L 146.585527 282.580745 
L 146.739222 282.402945 
L 146.814911 282.491997 
L 146.9686 282.22393 
L 147.044297 282.491997 
L 147.197984 282.133966 
L 147.273682 282.313589 
L 147.427372 282.043698 
L 147.503071 282.133966 
L 147.809308 281.78767 
L 147.923992 281.930435 
L 148.000746 281.771069 
L 148.076535 281.953126 
L 148.230222 281.679585 
L 148.305919 281.86225 
L 148.382774 281.771069 
L 148.459615 281.587797 
L 148.76469 281.656667 
L 148.841542 281.679585 
L 149.108602 281.310608 
L 149.415007 281.217603 
L 149.491842 281.124295 
L 149.567539 281.403308 
L 149.644674 281.310608 
L 149.835062 280.993152 
L 149.988759 281.217603 
L 150.064448 280.842545 
L 150.141293 281.124295 
L 150.294691 280.558058 
L 150.447234 280.936765 
L 150.524077 280.653191 
L 150.63877 280.818942 
L 150.714477 280.74802 
L 150.829169 280.676927 
L 150.906013 280.462621 
L 150.982855 280.558058 
L 151.058556 280.653191 
L 151.594099 280.36688 
L 151.785635 280.174486 
L 151.861334 280.36688 
L 152.01502 279.928541 
L 152.090717 280.253339 
L 152.244405 279.786048 
L 152.320103 279.980875 
L 152.396948 279.883614 
L 152.473792 279.590005 
L 152.549488 279.883614 
L 152.626334 279.786048 
L 152.703176 279.491528 
L 152.778875 279.883614 
L 152.932562 279.491528 
L 153.00826 279.688179 
L 153.085105 279.590005 
L 153.237645 279.658004 
L 153.352338 279.29366 
L 153.543876 279.491528 
L 153.62072 279.29366 
L 153.811109 279.61681 
L 153.964269 279.19427 
L 154.041112 279.29366 
L 154.231503 279.19427 
L 154.30835 278.793671 
L 154.384988 279.19427 
L 154.461834 279.094577 
L 154.537529 278.793671 
L 154.614373 279.29366 
L 154.766915 278.692761 
L 154.843758 278.994579 
L 154.920603 278.894277 
L 154.9963 278.692761 
L 155.073145 278.994579 
L 155.149989 278.894277 
L 155.225686 278.080915 
L 155.302531 278.793671 
L 155.455073 277.874534 
L 155.531916 278.591546 
L 155.723048 277.742567 
L 155.875589 278.388206 
L 155.990739 278.003664 
L 156.104991 278.168991 
L 156.257703 277.770887 
L 156.33436 278.388206 
L 156.488048 277.458123 
L 156.563746 278.080915 
L 156.839386 277.547763 
L 156.908321 277.874534 
L 157.061336 277.248093 
L 157.137033 277.666936 
L 157.290723 277.248093 
L 157.481935 277.750121 
L 157.634477 277.142622 
L 157.711321 277.666936 
L 157.787019 277.171417 
L 157.863864 277.35326 
L 157.940707 277.666936 
L 158.207942 277.248093 
L 158.284785 277.666936 
L 158.475176 277.221754 
L 158.552021 277.142622 
L 158.628864 277.35326 
L 158.704561 277.248093 
L 158.781405 276.610706 
L 158.933952 277.248093 
L 159.010791 276.395811 
L 159.087636 277.142622 
L 159.163332 277.036847 
L 159.240176 276.395811 
L 159.317021 277.142622 
L 159.469562 276.1797 
L 159.546407 276.824384 
L 159.622146 276.610706 
L 159.698991 276.1797 
L 159.775835 276.824384 
L 159.928376 276.071188 
L 160.005221 276.930768 
L 160.157761 275.743829 
L 160.234607 276.287907 
L 160.310303 276.071188 
L 160.387147 275.524069 
L 160.463992 276.1797 
L 160.616592 275.429514 
L 160.693437 276.071188 
L 160.845979 275.192149 
L 160.922822 275.413733 
L 161.037514 275.192149 
L 161.113212 275.413733 
L 161.328834 274.953388 
L 161.395357 274.857492 
L 161.461878 275.144509 
L 161.537582 274.665031 
L 161.610979 275.161839 
L 161.686675 275.012289 
L 161.777286 274.568466 
L 161.851834 274.761374 
L 161.924092 274.665031 
L 162.18334 274.179969 
L 162.260187 274.604704 
L 162.392083 274.427608 
L 162.634082 274.673799 
L 162.882264 273.868386 
L 163.078388 274.242015 
L 163.261895 273.4915 
L 163.351358 274.082287 
L 163.52798 273.292784 
L 164.018868 273.375691 
L 164.11865 272.892671 
L 164.202374 272.993035 
L 164.280366 273.093175 
L 164.427173 272.892671 
L 164.497135 273.093175 
L 164.635915 272.590241 
L 164.707023 272.909414 
L 165.015548 272.183874 
L 165.193322 272.17707 
L 165.267871 271.979349 
L 165.354429 272.183874 
L 165.699652 271.773932 
L 165.895711 271.886088 
L 166.128536 271.820696 
L 166.276495 271.876752 
L 166.360218 271.670888 
L 166.520032 271.876752 
L 166.593435 271.773932 
L 166.672572 271.876752 
L 166.754003 271.56762 
L 166.917923 271.876752 
L 166.987885 271.464129 
L 167.0567 271.56762 
L 167.128957 271.773932 
L 167.287232 271.56762 
L 167.373251 271.670888 
L 167.442067 271.464129 
L 167.512034 271.56762 
L 167.65425 271.256478 
L 167.842346 271.541769 
L 167.918044 271.602068 
L 168.160045 270.943325 
L 168.225421 271.152317 
L 168.301118 270.873462 
L 168.463977 271.047933 
L 168.968626 270.52266 
L 169.068412 270.56105 
L 169.223245 270.282697 
L 169.371398 270.578955 
L 169.597343 270.204816 
L 169.736124 270.431045 
L 170.277153 269.991803 
L 170.34482 270.098421 
L 170.414784 269.670608 
L 170.565029 269.684926 
L 170.640728 269.563096 
L 170.78524 269.76003 
L 170.938927 269.509256 
L 171.014625 269.634795 
L 171.091475 269.509256 
L 171.168314 269.130815 
L 171.244012 269.634795 
L 171.397701 269.004059 
L 171.473396 269.257266 
L 171.550607 268.784402 
L 171.664738 269.035777 
L 171.741581 268.749637 
L 171.817508 269.130815 
L 171.894354 269.004059 
L 171.971209 268.621969 
L 172.046907 269.004059 
L 172.123752 268.877 
L 172.200606 268.493998 
L 172.353154 268.877 
L 172.544694 268.493998 
L 172.620401 268.749637 
L 172.774102 268.237143 
L 172.849801 268.621969 
L 173.003503 267.979071 
L 173.156293 268.237143 
L 173.232588 267.979071 
L 173.30943 268.108259 
L 173.576663 267.589683 
L 173.65351 268.108259 
L 173.806224 267.459279 
L 173.920918 268.034474 
L 174.150305 267.328571 
L 174.226424 267.849579 
L 174.378964 267.197559 
L 174.455809 267.589683 
L 174.532655 267.459279 
L 174.60885 267.066243 
L 174.685707 267.459279 
L 174.76141 267.328571 
L 174.83825 267.066243 
L 174.915095 267.459279 
L 175.067635 266.934623 
L 175.144482 267.328571 
L 175.301783 266.915795 
L 175.449737 267.328571 
L 175.526578 266.802698 
L 175.602275 266.934623 
L 175.679122 266.934623 
L 175.755966 266.537938 
L 175.83166 266.934623 
L 175.946901 266.908262 
L 176.099443 266.537938 
L 176.252677 266.67047 
L 176.328961 266.405101 
L 176.405807 266.537938 
L 176.48265 266.537938 
L 176.558212 266.271961 
L 176.635064 266.67047 
L 176.71191 266.537938 
L 176.787596 266.271961 
L 176.864443 266.67047 
L 177.016981 266.405101 
L 177.093827 266.405101 
L 177.170671 266.004767 
L 177.284904 266.405101 
L 177.361751 265.870714 
L 177.476442 266.604242 
L 177.628983 265.870714 
L 177.705827 265.736358 
L 177.781524 266.138516 
L 177.858835 266.004767 
L 177.934531 265.466732 
L 178.011374 266.077759 
L 178.126066 265.904256 
L 178.27861 265.466732 
L 178.355453 266.004767 
L 178.507993 265.466732 
L 178.58484 266.004767 
L 178.699532 265.500502 
L 178.814225 265.702721 
L 178.966767 265.466732 
L 179.043608 265.870714 
L 179.196151 265.331463 
L 179.272996 265.601697 
L 179.425366 265.060013 
L 179.579056 265.466732 
L 179.654752 265.060013 
L 179.731597 265.19589 
L 179.884137 264.787346 
L 179.960983 265.19589 
L 180.037731 265.060013 
L 180.114575 264.787346 
L 180.190271 265.19589 
L 180.34396 264.650557 
L 180.419659 265.060013 
L 180.573344 264.650557 
L 180.649044 264.923832 
L 180.725888 264.513464 
L 180.80273 264.650557 
L 180.878429 264.787346 
L 181.032035 264.238365 
L 181.146726 264.650557 
L 181.222424 264.513464 
L 181.376112 263.96205 
L 181.45181 264.100359 
L 181.528654 264.238365 
L 181.643347 264.1694 
L 181.72019 263.545297 
L 181.834885 263.878918 
L 181.91058 263.823436 
L 182.06427 263.405771 
L 182.216811 263.823436 
L 182.293654 263.405771 
L 182.369351 263.684518 
L 182.446196 263.545297 
L 182.522268 263.405771 
L 182.599114 263.545297 
L 182.751653 263.265941 
L 182.828499 263.545297 
L 182.981039 262.985369 
L 183.057883 263.405771 
L 183.210425 262.844627 
L 183.401963 263.393071 
L 183.555358 262.844627 
L 183.631056 263.125807 
L 183.783596 262.844627 
L 183.937286 262.844627 
L 184.014128 262.420576 
L 184.089672 262.934225 
L 184.204367 262.46108 
L 184.281212 262.824496 
L 184.358057 262.278618 
L 184.433751 262.844627 
L 184.58744 261.993789 
L 184.663136 262.420576 
L 184.739982 262.278618 
L 184.816831 261.850918 
L 184.892524 262.278618 
L 185.160904 262.006762 
L 185.313446 261.850918 
L 185.390291 261.381216 
L 185.465988 261.850918 
L 185.733819 261.276396 
L 185.810659 261.707744 
L 185.963201 261.132005 
L 186.040046 261.564265 
L 186.115742 261.420483 
L 186.192586 261.276396 
L 186.269173 261.564265 
L 186.346018 261.420483 
L 186.421714 260.98731 
L 186.498557 261.564265 
L 186.651099 260.98731 
L 186.727945 261.276396 
L 186.804788 261.132005 
L 186.880485 260.697008 
L 186.957329 261.276396 
L 187.10987 260.697008 
L 187.186716 261.276396 
L 187.26356 261.132005 
L 187.339256 259.965932 
L 187.416103 260.842311 
L 187.530793 260.660635 
L 187.607639 259.965932 
L 187.722331 260.34704 
L 187.798027 259.523638 
L 187.989565 260.551401 
L 188.142105 259.671373 
L 188.218949 260.40549 
L 188.37149 259.671373 
L 188.448335 260.40549 
L 188.600877 259.375598 
L 188.677722 260.259275 
L 188.830578 259.078607 
L 188.907422 260.112756 
L 189.059964 259.375598 
L 189.136808 259.671373 
L 189.366013 258.7804 
L 189.442858 259.078607 
L 189.518555 258.7804 
L 189.672243 258.929655 
L 189.74794 258.02956 
L 189.824784 258.929655 
L 189.939477 258.217982 
L 190.016321 258.480976 
L 190.092019 257.87848 
L 190.24456 258.480976 
L 190.321694 257.423415 
L 190.513231 258.330808 
L 190.665774 257.423415 
L 190.857311 257.87848 
L 191.009853 257.118518 
L 191.086695 257.727095 
L 191.162392 257.575407 
L 191.239239 256.812405 
L 191.39178 257.271118 
L 191.468623 256.505075 
L 191.545355 257.575407 
L 191.697897 256.19653 
L 191.774741 257.271118 
L 191.927282 256.19653 
L 192.004128 256.350955 
L 192.156669 255.263596 
L 192.233512 256.350955 
L 192.30921 255.886768 
L 192.386055 255.263596 
L 192.462899 256.041801 
L 192.538595 255.886768 
L 192.615439 255.263596 
L 192.692283 255.731431 
L 192.76798 255.57579 
L 192.844825 255.107042 
L 192.997367 255.886768 
L 193.07421 254.635558 
L 193.151056 255.107042 
L 193.418289 254.319715 
L 193.570831 254.793024 
L 193.647675 254.319715 
L 193.72452 254.635558 
L 193.839212 254.39879 
L 193.991753 253.315628 
L 194.068597 254.477789 
L 194.18329 254.382981 
L 194.412831 253.68438 
L 194.488529 254.161338 
L 194.565608 253.044181 
L 194.641305 253.944878 
L 194.718152 253.68438 
L 194.794994 253.364889 
L 194.947535 253.68438 
L 195.024232 253.204687 
L 195.099928 253.68438 
L 195.176774 253.204687 
L 195.291465 253.68438 
L 195.368309 253.204687 
L 195.444006 253.364889 
L 195.520852 253.524786 
L 195.597696 252.88337 
L 195.750236 253.204687 
L 195.827081 252.88337 
L 195.902777 253.364889 
L 196.056465 252.560838 
L 196.132163 252.88337 
L 196.28585 252.560838 
L 196.36155 252.722256 
L 196.515239 252.560838 
L 196.591822 252.88337 
L 196.744362 252.560838 
L 196.821207 252.399116 
L 196.896902 252.560838 
L 196.973747 252.237089 
L 197.126119 252.546149 
L 197.202964 252.074759 
L 197.355505 252.560838 
L 197.432348 252.074759 
L 197.509192 252.237089 
L 197.661734 251.749186 
L 197.738578 252.074759 
L 197.814275 251.912124 
L 197.967963 251.912124 
L 198.04366 252.074759 
L 198.196687 251.585943 
L 198.273531 251.912124 
L 198.350375 251.422397 
L 198.502917 252.074759 
L 198.57976 251.422397 
L 198.655458 251.749186 
L 198.808905 251.258546 
L 198.961446 251.585943 
L 199.115135 251.094391 
L 199.190832 251.258546 
L 199.420218 250.929932 
L 199.497064 251.094391 
L 199.649603 250.929932 
L 199.726449 250.929932 
L 199.803291 250.600103 
L 199.878989 251.094391 
L 199.955833 250.929932 
L 200.032678 250.600103 
L 200.299911 250.600103 
L 200.452453 250.585081 
L 200.529686 249.86111 
L 200.796921 250.434731 
L 200.873765 250.269056 
L 200.949462 249.770207 
L 201.064155 250.144601 
L 201.141 250.103077 
L 201.293542 249.603315 
L 201.370385 249.936794 
L 201.522927 249.43612 
L 201.599771 249.936794 
L 201.751989 249.268621 
L 201.828833 249.603315 
L 201.905678 249.268621 
L 202.058219 249.603315 
L 202.21076 248.595582 
L 202.287606 249.100817 
L 202.364448 248.93271 
L 202.440146 248.764298 
L 202.51699 249.100817 
L 202.593836 248.764298 
L 202.746376 248.93271 
L 202.899418 248.087611 
L 203.205648 248.764298 
L 203.358188 247.917679 
L 203.435034 248.426562 
L 203.625423 248.087611 
L 203.702266 247.747443 
L 203.779112 248.426562 
L 203.931652 247.576903 
L 204.008497 248.257239 
L 204.084195 247.747443 
L 204.199719 248.002683 
L 204.390116 247.511229 
L 204.466959 248.211007 
L 204.619507 247.063458 
L 204.69635 247.23491 
L 204.773196 247.576903 
L 204.848892 247.23491 
L 204.925737 247.747443 
L 205.078285 246.891702 
L 205.155128 247.654459 
L 205.307682 246.891702 
L 205.384786 247.406059 
L 205.46048 247.23491 
L 205.537333 247.063458 
L 205.689874 247.23491 
L 205.88139 246.581774 
L 205.958289 246.891702 
L 206.033993 246.719642 
L 206.110837 245.854779 
L 206.187681 246.719642 
L 206.263384 246.374609 
L 206.340146 246.374609 
L 206.416919 247.063458 
L 206.569475 246.02836 
L 206.83672 246.02836 
L 206.913385 245.506705 
L 207.028075 245.941607 
L 207.142774 245.811336 
L 207.219621 246.02836 
L 207.372176 245.506705 
L 207.449019 246.02836 
L 207.564161 245.192399 
L 207.639866 245.506705 
L 207.716709 245.157416 
L 207.793554 246.02836 
L 207.946103 245.157416 
L 208.098651 245.506705 
L 208.175501 244.80691 
L 208.365899 245.550281 
L 208.519601 244.982315 
L 208.595299 245.332212 
L 208.862937 244.80691 
L 208.939782 245.332212 
L 209.092346 244.102249 
L 209.169188 244.80691 
L 209.246253 244.27887 
L 209.32195 244.455187 
L 209.398793 244.455187 
L 209.475638 243.860912 
L 209.551337 243.979794 
L 209.628179 244.27887 
L 209.780721 244.102249 
L 209.857565 244.455187 
L 209.934409 243.748094 
L 210.010106 243.925323 
L 210.239492 244.24678 
L 210.286518 243.667435 
L 210.354185 243.748094 
L 210.583571 243.279395 
L 210.660414 243.570561 
L 210.812956 242.678332 
L 210.889799 243.214582 
L 211.042342 242.319313 
L 211.119185 243.036136 
L 211.19603 242.857386 
L 211.271729 242.678332 
L 211.348571 243.036136 
L 211.425416 242.319313 
L 211.578122 243.036136 
L 211.653822 242.319313 
L 211.768514 242.364257 
L 211.845359 241.778503 
L 211.922203 242.319313 
L 212.074434 241.597625 
L 212.189128 241.823675 
L 212.265971 241.597625 
L 212.342824 241.959077 
L 212.418527 240.688673 
L 212.495369 241.778503 
L 212.57222 241.053166 
L 212.68594 241.198622 
L 212.762784 240.688673 
L 212.839629 241.053166 
L 212.91585 240.871071 
L 212.992694 239.77212 
L 213.183086 240.688673 
L 213.25993 240.688673 
L 213.757293 239.40337 
L 213.832988 239.77212 
L 214.177066 239.033404 
L 214.253912 239.40337 
L 214.330755 239.218539 
L 214.445446 239.77212 
L 214.560007 238.996341 
L 214.635703 239.218539 
L 214.712547 239.218539 
L 214.86509 238.847965 
L 214.941931 238.71291 
L 215.056624 238.996341 
L 215.133469 238.103168 
L 215.209165 238.847965 
L 215.362854 238.103168 
L 215.439698 238.662222 
L 215.59224 238.103168 
L 215.669083 238.476175 
L 215.744781 237.916209 
L 215.821625 238.289824 
L 215.974166 237.916209 
L 216.051011 238.103168 
L 216.203552 237.728946 
L 216.432939 237.728946 
L 216.509782 237.541378 
L 216.585479 237.694865 
L 216.662324 237.237742 
L 216.739168 237.353507 
L 216.814866 237.728946 
L 216.929917 237.400503 
L 217.006762 237.728946 
L 217.159303 236.976851 
L 217.236329 237.165331 
L 217.31203 236.976851 
L 217.388871 237.165331 
L 217.541412 236.59898 
L 217.618257 236.976851 
L 217.770798 236.409588 
L 217.847643 236.59898 
L 218.000183 236.219892 
L 218.077028 236.788068 
L 218.229569 236.219892 
L 218.306413 236.59898 
L 218.458956 236.219892 
L 218.535801 236.029892 
L 218.612644 236.219892 
L 218.688344 235.839588 
L 218.84203 236.029892 
L 218.917729 236.029892 
L 219.032425 235.696661 
L 219.147112 235.982345 
L 219.223956 235.64898 
L 219.300802 235.839588 
L 219.49119 234.979457 
L 219.568035 235.458068 
L 219.720583 234.883507 
L 219.797421 235.075332 
L 219.874265 234.883507 
L 219.949962 233.726176 
L 220.026518 235.075332 
L 220.218055 234.498946 
L 220.293837 233.726176 
L 220.408531 234.835504 
L 220.485374 234.498946 
L 220.637917 233.337966 
L 220.714762 234.498946 
L 220.867301 233.337966 
L 220.944145 234.498946 
L 221.096686 233.726176 
L 221.173531 234.498946 
L 221.365069 233.386559 
L 221.440765 232.948541 
L 221.517609 233.919825 
L 221.670661 232.557899 
L 221.747505 233.726176 
L 222.014739 231.772966 
L 222.091583 233.143406 
L 222.167281 232.557899 
L 222.244124 232.362121 
L 222.32097 233.143406 
L 222.47351 232.16604 
L 222.550354 232.753372 
L 222.665047 232.753372 
L 222.740744 232.440469 
L 222.817589 231.575972 
L 222.894433 232.557899 
L 222.971 231.378675 
L 223.046697 231.826638 
L 223.276082 231.378675 
L 223.352927 231.575972 
L 223.50547 230.983168 
L 223.582314 231.181073 
L 223.659157 230.784958 
L 223.734854 229.789349 
L 223.849547 230.884101 
L 223.926391 230.586445 
L 224.078934 229.589315 
L 224.23262 230.387627 
L 224.308318 229.589315 
L 224.385162 229.789349 
L 224.537703 229.789349 
L 224.72953 229.188335 
L 224.805228 229.589315 
L 224.958916 228.987389 
L 225.111457 228.987389 
L 225.455535 228.332214 
L 225.608079 228.987389 
L 225.761766 228.180564 
L 225.837463 229.188335 
L 225.913788 228.180564 
L 225.990633 228.382726 
L 226.067476 228.180564 
L 226.411554 228.786139 
L 226.564097 228.180564 
L 226.64094 228.786139 
L 226.716637 228.584585 
L 226.831332 228.635002 
L 226.908175 227.775327 
L 226.985018 228.584585 
L 227.137561 227.775327 
L 227.214403 228.180564 
L 227.366945 227.368874 
L 227.44379 227.904398 
L 227.711025 227.165191 
L 227.787874 227.775327 
L 227.940412 227.165191 
L 228.092952 227.165191 
L 228.169795 226.756913 
L 228.246639 227.368874 
L 228.399181 226.756913 
L 228.551722 227.165191 
L 228.705411 226.552318 
L 228.781108 226.961204 
L 228.858091 225.936709 
L 228.934935 226.756913 
L 229.010632 226.552318 
L 229.087477 225.730898 
L 229.163918 226.34742 
L 229.31646 225.111641 
L 229.393305 226.142216 
L 229.545846 225.318364 
L 229.660538 225.194366 
L 229.737383 225.730898 
L 229.889923 224.904613 
L 229.966768 225.730898 
L 230.234004 224.400567 
L 230.310846 225.730898 
L 230.463388 224.281707 
L 230.540232 225.318364 
L 230.654926 224.33372 
L 230.73177 224.904613 
L 230.807466 224.073463 
L 230.88431 224.904613 
L 231.037126 224.073463 
L 231.11397 224.697282 
L 231.266511 223.864915 
L 231.343357 224.697282 
L 231.495897 223.656064 
L 231.572741 224.489646 
L 231.840355 223.080154 
L 231.916052 223.656064 
L 232.030743 223.237448 
L 232.107589 223.656064 
L 232.184248 223.027684 
L 232.261093 223.656064 
L 232.413804 222.185588 
L 232.604195 223.19552 
L 232.718887 222.607244 
L 232.795732 223.027684 
L 232.872576 222.396568 
L 232.987267 222.52301 
L 233.062965 222.396568 
L 233.139808 222.492367 
L 233.292353 222.185588 
L 233.369196 222.185588 
L 233.44604 221.974304 
L 233.521737 222.607244 
L 233.59858 221.550823 
L 233.675424 221.974304 
L 233.751121 221.338626 
L 233.827966 221.550823 
L 233.980507 220.913321 
L 234.057351 221.338626 
L 234.133401 220.700213 
L 234.210246 220.913321 
L 234.28709 221.126126 
L 234.439631 220.700213 
L 234.516476 220.913321 
L 234.592176 220.4868 
L 234.706866 220.700213 
L 234.783712 220.273083 
L 234.860555 220.4868 
L 235.013095 220.059063 
L 235.204747 220.4868 
L 235.47198 219.630109 
L 235.548825 220.273083 
L 235.66248 220.219607 
L 235.777173 219.415176 
L 235.854018 219.737461 
L 235.930863 219.199939 
L 236.006564 219.844738 
L 236.083409 218.984398 
L 236.235945 219.844738 
L 236.389632 218.984398 
L 236.46533 219.415176 
L 236.694717 218.984398 
L 236.77156 219.415176 
L 236.924101 219.199939 
L 237.000948 219.199939 
L 237.077791 218.119193 
L 237.23002 219.166799 
L 237.306865 218.33595 
L 237.383708 218.984398 
L 237.53625 217.684766 
L 237.612983 219.199939 
L 237.765525 217.467097 
L 237.84237 218.33595 
L 237.99491 217.030845 
L 238.109523 217.379944 
L 238.186368 217.902132 
L 238.33891 216.812264 
L 238.415755 218.119193 
L 238.568295 216.374188 
L 238.645138 217.467097 
L 238.721984 217.030845 
L 238.797681 216.593378 
L 238.874525 217.467097 
L 239.027067 216.593378 
L 239.10391 217.249123 
L 239.256453 216.154694 
L 239.333297 217.030845 
L 239.485837 216.154694 
L 239.600531 216.319343 
L 239.677379 217.030845 
L 239.829916 215.714794 
L 239.90676 217.030845 
L 240.059301 215.494388 
L 240.136146 216.593378 
L 240.288688 215.494388 
L 240.365825 216.154694 
L 240.441524 215.273678 
L 240.556217 215.659721 
L 240.633061 214.609723 
L 240.709908 215.714794 
L 240.862445 214.831346 
L 240.939289 215.273678 
L 241.091896 214.609723 
L 241.168739 215.273678 
L 241.473822 214.210037 
L 241.550665 214.387797 
L 241.627512 213.943032 
L 241.703206 214.165567 
L 241.780051 213.720194 
L 241.895055 214.165567 
L 241.970754 213.273604 
L 242.047598 214.165567 
L 242.124441 213.943032 
L 242.200138 213.497051 
L 242.276983 213.943032 
L 242.429524 213.253276 
L 242.506368 213.720194 
L 242.583212 212.825799 
L 242.658909 213.049854 
L 242.735753 213.497051 
L 242.965139 212.60144 
L 243.041983 212.60144 
L 243.309219 212.15181 
L 243.462653 211.700964 
L 243.577345 211.81379 
L 243.653049 212.15181 
L 243.805596 211.475085 
L 243.882441 212.15181 
L 243.959284 211.022414 
L 244.111607 211.926539 
L 244.265371 210.795623 
L 244.417919 211.700964 
L 244.494763 211.022414 
L 244.57046 212.15181 
L 244.723216 211.248902 
L 244.800066 212.15181 
L 244.952615 210.795623 
L 245.182152 211.305476 
L 245.259 211.475085 
L 245.411542 210.795623 
L 245.488394 211.475085 
L 245.565042 211.248902 
L 245.640739 210.568528 
L 245.717591 211.022414 
L 245.984837 210.113425 
L 246.099536 210.586007 
L 246.176393 210.067847 
L 246.520495 210.341128 
L 246.788609 209.42849 
L 246.864306 210.341128 
L 246.979001 209.942447 
L 247.055843 210.113425 
L 247.132688 208.510986 
L 247.208386 209.885417 
L 247.361468 208.740818 
L 247.438312 210.051271 
L 247.590854 208.740818 
L 247.667697 209.42849 
L 247.82024 208.970346 
L 247.973126 208.970346 
L 248.049971 208.510986 
L 248.202512 208.970346 
L 248.279356 208.510986 
L 248.54659 208.970346 
L 248.623433 208.510986 
L 248.775974 208.970346 
L 248.928517 208.28085 
L 249.044358 208.05041 
L 249.120434 208.740818 
L 249.196129 207.819666 
L 249.349185 208.28085 
L 249.426029 207.357266 
L 249.578459 208.510986 
L 249.655303 207.588618 
L 249.808422 208.28085 
L 249.923112 208.223269 
L 250.075655 208.05041 
L 250.152498 207.357266 
L 250.229343 207.588618 
L 250.30489 208.28085 
L 250.458579 207.125609 
L 250.57327 207.183552 
L 250.687963 206.940065 
L 250.840506 208.05041 
L 250.917348 206.661385 
L 250.993047 207.125609 
L 251.146735 206.428816 
L 251.222431 207.125609 
L 251.375255 206.428816 
L 251.528943 206.428816 
L 251.605788 206.195943 
L 251.681487 206.428816 
L 251.873022 205.729286 
L 252.025564 206.195943 
L 252.2171 205.261413 
L 252.369644 205.729286 
L 252.522186 205.495501 
L 252.599029 205.495501 
L 252.71372 205.612432 
L 252.866532 205.261413 
L 252.943377 205.495501 
L 253.095918 205.02702 
L 253.172762 204.792323 
L 253.249531 205.02702 
L 253.402073 204.792323 
L 253.554614 205.261413 
L 253.631458 204.557322 
L 253.708305 205.02702 
L 253.860844 204.086408 
L 253.93769 204.792323 
L 254.090231 203.850495 
L 254.167073 204.086408 
L 254.242771 203.377756 
L 254.396459 204.086408 
L 254.472156 203.377756 
L 254.586849 203.850495 
L 254.663696 202.903801 
L 254.740538 204.086408 
L 254.816235 203.614277 
L 254.969925 203.140931 
L 255.045622 203.377756 
L 255.122464 202.903801 
L 255.275007 203.377756 
L 255.581236 202.666368 
L 255.65808 203.377756 
L 255.810623 202.666368 
L 255.887465 202.903801 
L 256.040353 202.190589 
L 256.116048 202.666368 
L 256.269737 201.952243 
L 256.422278 202.190589 
L 256.499122 201.952243 
L 256.651664 202.666368 
L 256.766357 201.406311 
L 256.843201 201.611222 
L 256.995742 201.952243 
L 257.072586 201.713593 
L 257.148285 202.687965 
L 257.301975 200.99582 
L 257.377669 202.42863 
L 257.53041 201.713593 
L 257.607255 201.713593 
L 257.759795 200.755954 
L 257.83664 201.713593 
L 257.989182 200.034532 
L 258.066026 201.713593 
L 258.333259 200.034532 
L 258.410103 201.387672 
L 258.562647 200.034532 
L 258.716333 200.034532 
L 258.79203 199.552063 
L 258.945718 200.034532 
L 259.021417 198.340571 
L 259.098851 200.034532 
L 259.174549 199.310373 
L 259.251392 198.340571 
L 259.328235 199.068378 
L 259.480778 198.09736 
L 259.633318 198.82608 
L 259.710163 197.610027 
L 259.824856 198.462062 
L 259.9017 198.340571 
L 259.977397 198.340571 
L 260.054241 196.876746 
L 260.206782 198.09736 
L 260.322223 198.279797 
L 260.39792 197.121477 
L 260.551607 197.853846 
L 260.627304 196.631711 
L 260.704532 198.09736 
L 260.780229 197.610027 
L 260.857073 196.631711 
L 260.933917 197.610027 
L 261.201153 196.386372 
L 261.353693 196.631711 
L 261.430537 195.894782 
L 261.507381 196.631711 
L 261.583078 196.386372 
L 261.659922 195.401975 
L 261.736767 195.648531 
L 261.812464 195.894782 
L 261.889528 195.401975 
L 262.042069 195.894782 
L 262.194612 195.155116 
L 262.271768 195.648531 
L 262.42431 194.660485 
L 262.501155 194.907953 
L 262.576851 194.164638 
L 262.653696 194.480318 
L 262.730539 195.724333 
L 262.883036 194.164638 
L 262.95988 194.907953 
L 263.112422 193.418587 
L 263.227117 193.667575 
L 263.303957 194.412714 
L 263.4565 192.919699 
L 263.533343 194.164638 
L 263.685887 192.419595 
L 263.76273 193.169295 
L 263.915213 192.169087 
L 263.992058 193.169295 
L 264.068901 191.918275 
L 264.144599 192.169087 
L 264.221443 192.919699 
L 264.373985 191.667159 
L 264.450828 193.169295 
L 264.603371 191.667159 
L 264.680213 192.419595 
L 264.832756 191.415738 
L 264.909601 192.169087 
L 264.986443 191.918275 
L 265.062143 191.164014 
L 265.138985 191.918275 
L 265.215829 191.164014 
L 265.330522 191.792755 
L 265.406593 190.407017 
L 265.598128 191.667159 
L 265.75067 189.900831 
L 265.827514 191.164014 
L 265.980125 189.900831 
L 266.055823 191.164014 
L 266.20951 189.647283 
L 266.285209 190.911986 
L 266.438159 188.884812 
L 266.515002 190.154076 
L 266.591847 189.647283 
L 266.782878 189.329919 
L 266.859723 189.900831 
L 267.012264 188.884812 
L 267.089108 189.647283 
L 267.164805 188.722724 
L 267.24165 188.884812 
L 267.318495 189.39343 
L 267.471035 189.139273 
L 267.54788 189.39343 
L 267.700448 188.630047 
L 267.777291 189.139273 
L 267.890837 188.757468 
L 267.967682 189.139273 
L 268.044527 188.119605 
L 268.120224 188.374978 
L 268.197067 188.884812 
L 268.273913 187.607947 
L 268.426452 188.630047 
L 268.503297 187.351662 
L 268.580141 188.374978 
L 268.732683 187.607947 
L 268.808379 188.119605 
L 268.962068 187.351662 
L 269.037765 188.119605 
L 269.11461 187.863928 
L 269.191456 186.838179 
L 269.267153 188.374978 
L 269.420839 186.580981 
L 269.496537 187.863928 
L 269.650226 186.580981 
L 269.725923 187.863928 
L 269.994304 185.807565 
L 270.070874 187.351662 
L 270.223414 185.807565 
L 270.30026 187.328348 
L 270.414757 185.872121 
L 270.491602 186.32348 
L 270.567301 184.772086 
L 270.644144 186.580981 
L 270.72099 186.065674 
L 270.796686 185.031412 
L 270.873529 186.065674 
L 270.950373 185.807565 
L 271.026071 184.772086 
L 271.102914 185.807565 
L 271.255458 184.512456 
L 271.332302 185.549151 
L 271.484843 184.252522 
L 271.561688 185.807565 
L 271.714822 184.252522 
L 271.790519 185.290433 
L 271.944208 184.512456 
L 272.019905 185.031412 
L 272.173632 184.252522 
L 272.249329 185.290433 
L 272.403017 184.252522 
L 272.555559 184.252522 
L 272.708103 183.731742 
L 273.01433 183.731742 
L 273.091174 182.948291 
L 273.167792 183.731742 
L 273.320333 183.09094 
L 273.397178 183.209745 
L 273.549556 182.948291 
L 273.626401 182.948291 
L 273.893636 181.767984 
L 273.97048 182.42447 
L 274.046177 182.162104 
L 274.123022 182.162104 
L 274.199865 182.42447 
L 274.390781 181.858995 
L 274.543323 182.162104 
L 274.620167 181.899433 
L 274.772708 182.162104 
L 274.849554 181.899433 
L 275.002094 182.162104 
L 275.078938 182.162104 
L 275.231481 181.636459 
L 275.423017 182.358907 
L 275.499868 182.162104 
L 275.652404 181.37318 
L 275.729247 181.636459 
L 275.804944 181.109597 
L 275.958632 181.636459 
L 276.111175 181.37318 
L 276.188018 181.636459 
L 276.417249 180.58152 
L 276.492946 180.84571 
L 276.56979 181.109597 
L 276.722332 180.58152 
L 276.799176 180.84571 
L 276.951718 180.317025 
L 277.028384 180.58152 
L 277.105227 180.052226 
L 277.25777 180.317025 
L 277.334613 179.787123 
L 277.525002 180.383177 
L 277.601848 180.317025 
L 277.754389 179.521716 
L 277.831234 180.317025 
L 277.984799 179.256005 
L 278.175189 180.052226 
L 278.328877 179.256005 
L 278.404574 179.521716 
L 278.519268 178.989989 
L 278.596112 179.521716 
L 278.672956 178.72367 
L 278.825497 179.256005 
L 279.054884 178.190119 
L 279.207424 179.256005 
L 279.32212 177.762403 
L 279.398961 177.922888 
L 279.513819 178.590396 
L 279.589515 177.655352 
L 279.66636 178.72367 
L 279.743204 178.190119 
L 279.857897 178.390343 
L 279.933594 177.387513 
L 280.087282 177.922888 
L 280.162979 177.387513 
L 280.239825 178.190119 
L 280.392719 177.655352 
L 280.469564 177.922888 
L 280.622108 177.119369 
L 280.698949 177.655352 
L 280.774646 176.850922 
L 280.88934 177.333908 
L 280.965879 176.58217 
L 281.04277 178.190119 
L 281.195326 176.313114 
L 281.272169 177.119369 
L 281.349013 176.313114 
L 281.424712 176.58217 
L 281.501561 176.58217 
L 281.654087 175.504122 
L 281.730944 176.313114 
L 281.807788 176.043754 
L 281.883494 175.504122 
L 281.960344 176.313114 
L 282.037189 176.043754 
L 282.112891 175.23385 
L 282.189716 176.58217 
L 282.266558 176.043754 
L 282.342264 174.963274 
L 282.419114 175.77409 
L 282.534164 175.166235 
L 282.609862 175.77409 
L 282.686712 175.258433 
L 282.763558 175.504122 
L 282.953947 175.23385 
L 283.030798 174.149721 
L 283.107649 175.504122 
L 283.183344 175.23385 
L 283.298039 175.39605 
L 283.489198 174.149721 
L 283.566095 174.963274 
L 283.718637 173.333432 
L 283.795503 175.23385 
L 283.948022 173.333432 
L 284.024867 174.42121 
L 284.101712 174.149721 
L 284.177408 173.605832 
L 284.254252 174.42121 
L 284.331097 174.149721 
L 284.406794 173.333432 
L 284.483638 174.149721 
L 284.560481 173.877929 
L 284.63618 173.333432 
L 284.713417 174.42121 
L 284.865959 172.703655 
L 284.942803 173.605832 
L 285.018502 173.333432 
L 285.095345 172.787719 
L 285.17219 173.877929 
L 285.324732 172.514406 
L 285.477273 173.333432 
L 285.554117 172.514406 
L 285.630961 173.877929 
L 285.783504 171.692644 
L 285.860346 173.333432 
L 286.012887 171.692644 
L 286.089731 172.787719 
L 286.356764 171.966869 
L 286.43361 172.514406 
L 286.58615 171.418115 
L 286.662994 171.966869 
L 286.738692 171.418115 
L 286.892378 171.692644 
L 286.968077 170.868145 
L 287.04492 171.143282 
L 287.197462 170.868145 
L 287.274676 170.868145 
L 287.350374 170.592704 
L 287.427218 170.868145 
L 287.504061 170.040909 
L 287.656603 171.143282 
L 287.733448 169.487899 
L 287.923838 170.372132 
L 288.000683 170.040909 
L 288.115375 170.492468 
L 288.306912 169.764556 
L 288.382609 170.868145 
L 288.536297 169.764556 
L 288.611995 169.764556 
L 288.765683 169.487899 
L 288.84138 169.764556 
L 289.032918 169.210937 
L 289.10976 169.764556 
L 289.339148 168.656102 
L 289.453659 169.003017 
L 289.529539 168.933672 
L 289.683226 168.378229 
L 289.758924 168.100051 
L 289.835768 168.681349 
L 289.912537 167.542784 
L 289.988395 167.82157 
L 290.065237 168.656102 
L 290.179932 167.751902 
L 290.256783 168.656102 
L 290.486009 166.551911 
L 290.561706 166.9843 
L 290.638549 168.378229 
L 290.753242 166.704602 
L 290.830155 167.82157 
L 290.905853 167.162131 
L 290.982697 167.263694 
L 291.174173 166.9843 
L 291.24993 166.4246 
L 291.326774 166.9843 
L 291.479317 166.144294 
L 291.556161 166.704602 
L 291.708651 165.940244 
L 291.785494 166.4246 
L 291.938023 165.301551 
L 292.014867 166.144294 
L 292.091721 164.173638 
L 292.24428 165.863684 
L 292.321161 164.404743 
L 292.396858 164.738203 
L 292.473705 165.58277 
L 292.626244 164.738203 
L 292.70309 165.58277 
L 292.779897 163.890899 
L 292.855632 164.173638 
L 292.932474 165.020029 
L 293.085021 163.890899 
L 293.161864 164.738203 
L 293.314374 163.040859 
L 293.391219 164.456072 
L 293.543787 162.669473 
L 293.620633 163.890899 
L 293.773176 162.188083 
L 293.850019 163.607857 
L 293.926864 163.040859 
L 294.002559 162.188083 
L 294.079404 163.040859 
L 294.231944 161.618045 
L 294.308788 163.040859 
L 294.385633 161.618045 
L 294.46133 161.903216 
L 294.538175 163.040859 
L 294.690716 161.33257 
L 294.767561 162.472646 
L 294.844404 161.618045 
L 294.920104 161.903216 
L 294.996947 161.903216 
L 295.073455 162.188083 
L 295.264994 160.975298 
L 295.340691 161.04679 
L 295.417533 162.188083 
L 295.532227 161.306602 
L 295.583839 159.116373 
L 295.64692 161.618045 
L 295.723764 159.037823 
L 295.799462 161.903216 
L 295.876306 161.33257 
L 295.95315 159.743962 
L 296.028846 160.47432 
L 296.105691 160.47432 
L 296.182534 159.037823 
L 296.258233 161.306602 
L 296.335076 161.090776 
L 296.526613 158.749611 
L 296.60231 160.47432 
L 296.679156 160.187629 
L 296.756 159.037823 
L 296.908541 160.187629 
L 296.985384 158.172275 
L 297.137927 159.900633 
L 297.214772 157.883152 
L 297.290469 159.613334 
L 297.405162 157.955461 
L 297.482129 159.037823 
L 297.557826 157.303992 
L 297.634672 159.037823 
L 297.711514 158.461095 
L 297.787216 157.593724 
L 297.940901 159.037823 
L 298.016598 157.593724 
L 298.093443 158.749611 
L 298.170554 158.461095 
L 298.24625 157.883152 
L 298.323094 158.749611 
L 298.475635 156.567153 
L 298.629324 157.593724 
L 298.705024 156.432971 
L 298.781867 157.593724 
L 298.85871 157.303992 
L 299.0491 156.214789 
L 299.125945 157.303992 
L 299.240638 156.316629 
L 299.317481 156.723616 
L 299.393069 155.850771 
L 299.469915 156.432971 
L 299.622455 156.142023 
L 299.737406 156.781708 
L 299.814249 156.591542 
L 299.966791 155.559215 
L 300.043636 156.142023 
L 300.234452 155.77791 
L 300.311296 155.850771 
L 300.386994 155.559215 
L 300.463838 155.850771 
L 300.616379 154.97519 
L 300.693222 155.850771 
L 300.845764 154.682721 
L 300.922607 155.267354 
L 300.998687 154.389949 
L 301.075533 154.682721 
L 301.152375 155.559215 
L 301.228074 154.682721 
L 301.304918 155.001763 
L 301.381762 156.298725 
L 301.534304 154.389949 
L 301.611148 154.389949 
L 301.686846 153.803491 
L 301.840532 154.97519 
L 301.91623 153.215818 
L 301.993075 153.803491 
L 302.069921 154.97519 
L 302.145616 152.626928 
L 302.22246 154.096872 
L 302.337153 152.700606 
L 302.413997 153.509807 
L 302.566539 152.626928 
L 302.64258 152.921525 
L 302.79627 152.626928 
L 302.871967 152.921525 
L 303.025653 151.741313 
L 303.101352 152.626928 
L 303.25504 151.741313 
L 303.330739 152.036822 
L 303.484426 151.149383 
L 303.674815 152.036822 
L 303.828503 150.852961 
L 303.981051 151.149383 
L 304.057726 150.852961 
L 304.210266 151.4455 
L 304.439285 151.4455 
L 304.516128 150.556236 
L 304.592972 151.4455 
L 304.668669 151.149383 
L 304.745513 150.556236 
L 304.822359 150.852961 
L 304.898055 150.259206 
L 305.012747 150.895326 
L 305.089593 149.664235 
L 305.242134 151.4455 
L 305.433673 149.664235 
L 305.548362 149.813092 
L 305.625208 150.556236 
L 305.778438 148.769498 
L 305.854138 149.853676 
L 305.93098 149.664235 
L 306.007561 148.769498 
L 306.083257 149.664235 
L 306.160101 149.366294 
L 306.236947 148.769498 
L 306.312643 150.259206 
L 306.466332 148.470645 
L 306.542028 149.961873 
L 306.618872 149.366294 
L 306.695718 149.366294 
L 306.771732 149.961873 
L 306.924271 149.068048 
L 307.001116 149.664235 
L 307.077959 149.366294 
L 307.154803 148.171487 
L 307.268348 149.142638 
L 307.345193 149.068048 
L 307.613375 147.872025 
L 307.765917 149.366294 
L 307.842761 147.872025 
L 307.91846 149.068048 
L 307.995302 148.171487 
L 308.109995 148.246305 
L 308.301533 147.572259 
L 308.377229 148.769498 
L 308.53092 147.872025 
L 308.606627 148.171487 
L 308.760316 147.295282 
L 308.912858 148.171487 
L 308.989702 147.572259 
L 309.065399 147.872025 
L 309.218552 146.971815 
L 309.295397 147.572259 
L 309.562634 146.370154 
L 309.639475 147.272189 
L 309.715172 146.971815 
L 309.792016 146.370154 
L 309.944557 146.671137 
L 310.021402 146.068868 
L 310.173943 146.370154 
L 310.327632 146.068868 
L 310.403329 146.370154 
L 310.480174 145.767278 
L 310.632716 146.370154 
L 310.786134 145.465383 
L 310.862978 146.068868 
L 310.97767 144.860682 
L 311.092363 146.184783 
L 311.168062 145.404968 
L 311.282756 145.540886 
L 311.359598 144.860682 
L 311.474293 145.646557 
L 311.551136 145.465383 
L 311.703656 144.557876 
L 311.7805 145.163185 
L 311.856197 144.254765 
L 312.085582 144.943213 
L 312.276766 143.647632 
L 312.353611 145.163185 
L 312.506152 143.343609 
L 312.620844 144.231436 
L 312.85023 143.343609 
L 312.927075 144.254765 
L 313.079616 143.343609 
L 313.15646 144.254765 
L 313.271152 143.267556 
L 313.347998 143.647632 
L 313.423694 143.039282 
L 313.500539 143.647632 
L 313.577382 143.343609 
L 313.653081 142.429716 
L 313.729925 143.647632 
L 313.882466 142.734651 
L 313.959309 143.343609 
L 314.111856 142.429716 
L 314.188694 143.039282 
L 314.380232 142.734651 
L 314.455929 141.818934 
L 314.532773 143.039282 
L 314.609617 141.818934 
L 314.685316 142.124477 
L 314.762159 143.039282 
L 314.914639 142.124477 
L 314.991483 142.429716 
L 315.068327 142.124477 
L 315.144026 140.90048 
L 315.297714 141.818934 
L 315.373667 140.90048 
L 315.450511 142.124477 
L 315.52621 141.818934 
L 315.603054 140.90048 
L 315.755597 142.124477 
L 315.832438 140.90048 
L 315.909284 141.818934 
L 315.984981 140.621621 
L 316.061824 140.853306 
L 316.214367 141.818934 
L 316.368055 140.90048 
L 316.44375 141.513087 
L 316.520595 140.593721 
L 316.59744 141.206935 
L 316.712132 140.747138 
L 316.787829 141.206935 
L 316.864673 140.593721 
L 316.979834 140.570111 
L 317.05553 140.777813 
L 317.132376 141.513087 
L 317.209218 140.286657 
L 317.284916 141.513087 
L 317.438604 139.97929 
L 317.514301 141.206935 
L 317.667992 140.286657 
L 317.743687 141.206935 
L 317.820552 140.593721 
L 317.935244 140.747138 
L 318.126241 139.363643 
L 318.203088 139.97929 
L 318.356212 139.055363 
L 318.431909 140.286657 
L 318.50876 139.97929 
L 318.585606 139.363643 
L 318.661588 140.593721 
L 318.814132 139.363643 
L 318.929732 138.901109 
L 319.005429 139.671618 
L 319.159118 138.746779 
L 319.234816 139.671618 
L 319.388503 138.746779 
L 319.503196 138.80852 
L 319.578895 139.671618 
L 319.732583 138.1287 
L 319.808279 139.055363 
L 320.076519 138.1287 
L 320.152217 138.746779 
L 320.305904 137.819204 
L 320.382262 138.746779 
L 320.534804 137.819204 
L 320.611647 138.437891 
L 321.10792 136.578179 
L 321.222619 137.819204 
L 321.300031 137.593925 
L 321.528846 136.267163 
L 321.60569 137.1993 
L 321.682272 136.267163 
L 321.758231 136.578179 
L 321.835078 136.888892 
L 322.140157 135.644219 
L 322.293847 135.955843 
L 322.369542 135.644219 
L 322.598933 136.267163 
L 322.675777 135.644219 
L 322.828314 135.955843 
L 323.096699 135.140183 
L 323.172394 135.581857 
L 323.249066 135.020058 
L 323.326083 135.644219 
L 323.401779 135.020058 
L 323.555472 135.644219 
L 323.708013 134.394681 
L 323.784858 134.707521 
L 323.860555 134.081536 
L 323.937399 135.020058 
L 324.090901 133.853603 
L 324.166786 134.081536 
L 324.243627 135.33229 
L 324.319327 134.081536 
L 324.396169 134.394681 
L 324.54871 134.707521 
L 324.625554 133.140278 
L 324.702399 135.33229 
L 324.854935 132.825917 
L 324.931781 134.394681 
L 325.084321 132.825917 
L 325.199015 133.061716 
L 325.275867 134.081536 
L 325.351562 133.768087 
L 325.428408 132.825917 
L 325.505252 134.394681 
L 325.657792 132.825917 
L 325.734638 134.081536 
L 325.887173 132.825917 
L 325.964019 133.768087 
L 326.116116 132.511252 
L 326.193253 133.768087 
L 326.345947 131.88101 
L 326.422793 132.511252 
L 326.575337 132.196283 
L 326.651975 133.140278 
L 326.728819 132.511252 
L 326.804516 130.616877 
L 326.881565 132.511252 
L 327.034101 130.616877 
L 327.110953 132.196283 
L 327.263295 130.933366 
L 327.416028 131.565432 
L 327.492872 129.982986 
L 327.569718 132.196283 
L 327.722261 129.616726 
L 327.874802 131.249551 
L 327.989492 130.696028 
L 328.066339 129.665584 
L 328.143183 130.300083 
L 328.295722 129.347879 
L 328.372567 130.616877 
L 328.448263 130.300083 
L 328.562956 130.696028 
L 328.639803 129.347879 
L 328.792346 130.300083 
L 328.868894 128.392938 
L 328.945863 129.982986 
L 329.02156 129.347879 
L 329.098404 128.711555 
L 329.251115 129.982986 
L 329.32796 128.074016 
L 329.404805 129.665584 
L 329.481422 129.347879 
L 329.557184 128.074016 
L 329.63403 129.029869 
L 329.709727 128.711555 
L 329.786732 128.074016 
L 329.863576 129.029869 
L 329.939273 128.392938 
L 330.053966 128.791162 
L 330.168658 128.552285 
L 330.245503 127.115426 
L 330.322347 129.029869 
L 330.474889 126.474846 
L 330.551733 128.392938 
L 330.62743 127.75479 
L 330.704128 126.940843 
L 330.781121 128.074016 
L 330.856818 127.43526 
L 330.933661 125.511695 
L 331.010506 127.75479 
L 331.163043 125.83305 
L 331.239888 127.115426 
L 331.392432 125.190037 
L 331.583968 126.795288 
L 331.736511 124.223237 
L 331.88987 124.868074 
L 331.965568 124.545808 
L 332.119256 124.868074 
L 332.195283 123.577184 
L 332.347829 124.545808 
L 332.424552 123.577184 
L 332.501395 123.900363 
L 332.577212 123.577184 
L 332.654057 122.605824 
L 332.730905 124.223237 
L 332.845598 123.01089 
L 332.921295 123.900363 
L 332.998139 122.281429 
L 333.074984 123.577184 
L 333.227797 122.605824 
L 333.380339 122.929915 
L 333.457183 122.605824 
L 333.532881 122.929915 
L 333.68657 122.281429 
L 333.762266 122.281429 
L 333.83911 123.253701 
L 333.991652 122.281429 
L 334.068496 121.95673 
L 334.144835 122.281429 
L 334.22168 122.015789 
L 334.297376 122.8053 
L 334.451066 121.30642 
L 334.603608 120.654893 
L 334.68045 121.631727 
L 334.756228 121.30642 
L 334.870922 120.817889 
L 335.139304 122.506042 
L 335.215002 122.346332 
L 335.291844 120.980809 
L 335.406537 121.06224 
L 335.483383 120.002151 
L 335.559474 121.631727 
L 335.712016 119.675323 
L 335.788859 120.980809 
L 335.865704 120.002151 
L 335.980396 120.08381 
L 336.056094 119.675323 
L 336.132938 120.654893 
L 336.209782 120.328674 
L 336.324476 119.479081 
L 336.477016 120.654893 
L 336.629559 119.675323 
L 336.706402 119.675323 
L 336.935622 119.020756 
L 337.050313 119.801062 
L 337.127157 119.740713 
L 337.202855 119.675323 
L 337.318694 119.102644 
L 337.394391 120.002151 
L 337.54808 118.364973 
L 337.623777 119.675323 
L 337.700621 117.707974 
L 337.853162 119.675323 
L 338.005705 117.049758 
L 338.082548 119.348192 
L 338.159392 118.036626 
L 338.274087 118.693017 
L 338.350929 117.707974 
L 338.426626 118.693017 
L 338.579168 117.379018 
L 338.656014 118.036626 
L 338.732856 116.720194 
L 338.885181 118.036626 
L 338.962024 115.579361 
L 339.038868 117.049758 
L 339.114565 116.720194 
L 339.191994 116.720194 
L 339.267692 115.398898 
L 339.344536 116.720194 
L 339.497078 115.218344 
L 339.573744 116.390326 
L 339.726286 114.404733 
L 339.803132 115.729678 
L 339.879974 115.398898 
L 339.955672 114.736425 
L 340.070365 116.324316 
L 340.29975 114.404733 
L 340.376593 116.060154 
L 340.567829 113.657313 
L 340.682522 115.150613 
L 340.874061 113.407831 
L 340.949757 114.736425 
L 341.026601 114.404733 
L 341.141294 114.653531 
L 341.218139 112.74171 
L 341.294244 114.072736 
L 341.446787 112.74171 
L 341.52363 114.072736 
L 341.676985 112.408193 
L 341.752683 113.740436 
L 341.906371 112.74171 
L 341.9823 113.740436 
L 342.134842 112.74171 
L 342.211685 113.407831 
L 342.326378 112.157856 
L 342.517915 113.074923 
L 342.593466 111.405819 
L 342.785003 113.407831 
L 342.937544 110.736049 
L 343.014388 112.74171 
L 343.091233 112.074373 
L 343.16693 110.736049 
L 343.243774 113.074923 
L 343.358467 112.908354 
L 343.625704 110.400708 
L 343.702545 111.740248 
L 343.779389 110.736049 
L 343.855089 111.071086 
L 344.008775 111.740248 
L 344.084472 110.400708 
L 344.161316 111.405819 
L 344.276013 111.405819 
L 344.352855 110.400708 
L 344.428552 110.492194 
L 344.582239 111.071086 
L 344.657936 110.400708 
L 344.772629 110.4678 
L 344.849473 111.405819 
L 345.002015 109.729113 
L 345.116957 110.199357 
L 345.193801 109.759667 
L 345.270645 110.736049 
L 345.346343 110.400708 
L 345.499887 110.400708 
L 345.575584 109.39286 
L 345.652427 110.736049 
L 345.729273 110.065062 
L 345.80497 111.071086 
L 345.881813 110.736049 
L 346.034355 110.400708 
L 346.111202 110.492194 
L 346.340586 109.056303 
L 346.417428 109.39286 
L 346.493124 110.400708 
L 346.569969 109.39286 
L 346.646813 110.400708 
L 346.722512 110.065062 
L 346.799354 108.719441 
L 346.876198 109.056303 
L 347.028741 109.39286 
L 347.105449 109.39286 
L 347.220144 109.14047 
L 347.29584 107.707033 
L 347.449528 109.056303 
L 347.525225 107.553399 
L 347.793606 109.39286 
L 347.946147 108.382276 
L 348.022992 108.719441 
L 348.09869 107.707033 
L 348.175533 108.044806 
L 348.252378 108.719441 
L 348.328537 107.368955 
L 348.481079 108.044806 
L 348.557925 107.368955 
L 348.74946 108.044806 
L 348.902003 108.044806 
L 349.016696 108.635178 
L 349.093539 107.368955 
L 349.169237 108.044806 
L 349.322926 107.368955 
L 349.475466 107.707033 
L 349.552313 106.691887 
L 349.628007 108.044806 
L 349.704852 106.44538 
L 349.781753 106.691887 
L 349.934298 107.030573 
L 350.011142 106.691887 
L 350.086837 107.368955 
L 350.240524 106.352898 
L 350.316224 107.030573 
L 350.46991 105.334104 
L 350.545609 107.030573 
L 350.699296 105.674006 
L 350.774995 107.030573 
L 350.928682 105.674006 
L 351.004379 107.184421 
L 351.158067 105.674006 
L 351.233765 106.691887 
L 351.310959 105.674006 
L 351.386658 105.704891 
L 351.463501 105.674006 
L 351.655038 105.061963 
L 351.769733 105.60605 
L 351.845428 104.653388 
L 351.922273 105.674006 
L 352.036965 104.568212 
L 352.113809 104.653388 
L 352.228504 104.458674 
L 352.304199 103.288306 
L 352.381044 104.962955 
L 352.457889 104.219571 
L 352.572583 103.54463 
L 352.687275 104.312573 
L 352.801967 103.54463 
L 352.916393 103.54463 
L 353.031087 103.288306 
L 353.145779 103.47474 
L 353.222622 103.130484 
L 353.298319 104.312573 
L 353.375165 103.847337 
L 353.681397 103.101782 
L 353.833936 103.847337 
L 353.909632 103.47474 
L 354.063265 104.219571 
L 354.254801 102.995156 
L 354.369493 103.698342 
L 354.445483 103.630033 
L 354.521761 102.728462 
L 354.636455 104.166417 
L 354.790142 102.603941 
L 354.86584 103.101782 
L 354.942683 102.35478 
L 355.01838 102.603941 
L 355.095226 103.101782 
L 355.401454 101.60633 
L 355.477151 102.004124 
L 355.63084 101.60633 
L 355.783382 101.980736 
L 356.050901 101.231563 
L 356.165593 101.231563 
L 356.280287 100.4058 
L 356.394979 100.681249 
L 356.471823 101.980736 
L 356.586516 101.865573 
L 356.815903 101.489254 
L 356.930596 100.457462 
L 357.044959 100.9737 
L 357.274347 100.4058 
L 357.389038 100.956503 
L 357.50373 100.130157 
L 357.61876 100.130157 
L 357.733453 99.755758 
L 357.848146 100.199086 
L 357.96284 99.163873 
L 358.07753 99.854319 
L 358.192061 99.854319 
L 358.306759 100.856433 
L 358.574482 99.578287 
L 358.918006 98.749022 
L 359.032895 99.30206 
L 359.26228 98.472211 
L 359.339126 98.818194 
L 359.453818 97.64061 
L 359.568511 98.274369 
L 359.683203 97.977421 
L 359.912589 97.085237 
L 360.027601 97.68025 
L 360.142294 97.64061 
L 360.256987 97.085237 
L 360.371678 97.68025 
L 360.830449 96.787395 
L 361.059835 96.787395 
L 361.174528 95.593795 
L 361.403915 96.489331 
L 361.518607 96.191042 
L 361.6333 94.995655 
L 361.747993 96.389926 
L 362.092071 94.995655 
L 362.321457 96.191042 
L 362.549839 94.016771 
L 362.664531 93.796693 
L 362.779224 94.296695 
L 362.893916 94.096769 
L 363.008609 94.396621 
L 363.237995 93.496394 
L 363.352688 93.195872 
L 363.467382 94.096769 
L 363.696767 93.218997 
L 363.811461 93.195872 
L 364.040902 93.496394 
L 364.155597 93.195872 
L 364.270289 94.396621 
L 364.499675 93.195872 
L 364.614366 93.796693 
L 364.72906 93.796693 
L 364.843754 94.042226 
L 364.958447 93.542609 
L 365.187832 90.946462 
L 365.302525 93.245975 
L 365.417218 93.218997 
L 365.53191 90.620777 
L 365.646602 93.245975 
L 365.761295 90.783652 
L 365.875988 90.783652 
L 366.067393 92.512036 
L 366.296918 90.783652 
L 366.411607 91.271887 
L 366.5263 91.085961 
L 366.640991 91.271887 
L 366.755684 89.64217 
L 366.870374 90.077395 
L 366.985195 89.968632 
L 367.214457 90.620777 
L 367.32915 89.968632 
L 367.443841 90.077395 
L 367.558534 89.64217 
L 367.673226 90.294834 
L 367.902616 89.369921 
L 368.017305 89.820272 
L 368.246689 89.875383 
L 368.476078 88.661231 
L 368.590515 88.98847 
L 368.705463 88.661231 
L 368.82016 89.268754 
L 369.049546 88.274161 
L 369.164232 88.98847 
L 369.278928 87.110777 
L 369.508314 88.333733 
L 369.623007 87.021151 
L 369.737697 87.677961 
L 369.967084 87.138515 
L 370.081769 87.677961 
L 370.196464 87.349685 
L 370.311158 87.677961 
L 370.540541 86.222204 
L 370.655234 86.692358 
L 370.769925 86.692358 
L 370.884618 86.033994 
L 370.999313 86.692358 
L 371.228907 85.704424 
L 371.343597 86.033994 
L 371.572791 85.704424 
L 371.687482 85.91632 
L 371.802176 85.374594 
L 371.916869 85.704424 
L 372.260946 84.690552 
L 372.37564 85.944137 
L 372.719717 84.383551 
L 372.834408 84.383551 
L 372.949099 85.044506 
L 373.063798 84.383551 
L 373.178504 84.77424 
L 373.293182 83.209312 
L 373.407874 83.461209 
L 373.522571 84.383551 
L 373.751951 83.461209 
L 373.866643 81.868018 
L 374.058182 83.30729 
L 374.17287 82.845197 
L 374.287562 83.30729 
L 374.516952 82.062049 
L 374.631641 83.390176 
L 374.860658 82.39447 
L 374.975351 81.72937 
L 375.204737 83.058533 
L 375.319433 82.228292 
L 375.548815 82.39447 
L 375.663507 81.396431 
L 375.778201 82.39447 
L 375.969612 80.851064 
L 376.084304 82.228292 
L 376.198997 81.063234 
L 376.31369 81.063234 
L 376.428551 81.50744 
L 376.543243 81.24501 
L 376.657936 81.919504 
L 376.77263 80.396061 
L 377.116707 81.72937 
L 377.346093 79.271661 
L 377.460785 80.729777 
L 377.804742 80.062086 
L 378.034126 80.062086 
L 378.148823 80.396061 
L 378.492899 79.393359 
L 378.722283 80.851064 
L 379.027368 78.08331 
L 379.142059 78.81934 
L 379.256752 78.723596 
L 379.486232 78.974879 
L 379.600601 78.479789 
L 379.715294 78.508095 
L 379.945437 79.393359 
L 380.174822 78.875906 
L 380.250518 78.875906 
L 380.365211 77.686469 
L 380.59499 79.393359 
L 380.786529 76.095487 
L 380.901222 78.052796 
L 381.015914 77.717008 
L 381.130419 78.388326 
L 381.245112 76.948519 
L 381.58919 77.38096 
L 381.818802 75.696837 
L 381.971342 76.708088 
L 382.086644 76.371263 
L 382.201337 76.635933 
L 382.545416 75.359235 
L 382.659247 75.021374 
L 382.773941 75.069655 
L 382.888632 74.965038 
L 383.003325 75.021374 
L 383.118019 73.130221 
L 383.461911 75.359235 
L 383.691296 72.649092 
L 383.920682 73.812612 
L 384.265337 71.968965 
L 384.494722 73.812612 
L 384.8388 71.656894 
L 385.068186 73.130221 
L 385.182878 73.328182 
L 385.297571 72.309158 
L 385.412266 70.077739 
L 385.526958 72.309158 
L 385.756335 71.287802 
L 385.98572 70.605603 
L 386.100414 71.968965 
L 386.214988 71.628513 
L 386.329681 72.494608 
L 386.444375 69.922367 
L 386.559067 70.88481 
L 386.67376 70.605603 
L 386.788453 70.020036 
L 386.903145 70.946832 
L 387.132176 68.895571 
L 387.246869 68.895571 
L 387.476254 69.437782 
L 387.590949 67.473781 
L 387.70564 68.209745 
L 387.820333 67.522882 
L 388.049718 68.895571 
L 388.279105 66.490645 
L 388.393797 66.146048 
L 388.623184 66.834983 
L 388.852851 64.765068 
L 389.082237 65.875111 
L 389.19693 65.612979 
L 389.273775 62.748971 
L 389.388374 66.08859 
L 389.503068 65.110702 
L 389.617758 65.110702 
L 389.732452 65.456076 
L 389.961837 64.073024 
L 390.076531 64.765068 
L 390.191224 63.726613 
L 390.305918 64.765068 
L 390.419858 64.270856 
L 390.534551 63.1592 
L 390.649244 63.379943 
L 390.763937 63.033014 
L 390.878628 64.073024 
L 390.993323 62.661017 
L 391.108015 63.033014 
L 391.337401 62.685826 
L 391.452093 63.379943 
L 391.566786 63.090854 
L 391.681479 62.338379 
L 391.910865 62.338379 
L 392.599027 60.597257 
L 392.71372 61.692433 
L 392.828413 60.248256 
L 392.943105 60.451871 
L 393.057797 60.248256 
L 393.173406 60.692395 
L 393.632177 58.774617 
L 393.74687 60.829781 
L 394.090949 57.79799 
L 394.205642 57.79799 
L 394.320334 58.937192 
L 394.549718 57.446916 
L 394.664413 57.446916 
L 394.893798 59.454107 
L 395.008491 57.417648 
L 395.12325 57.446916 
L 395.237943 57.79799 
L 395.352635 56.74399 
L 395.467327 57.095583 
L 395.696715 56.74399 
L 395.811407 57.446916 
L 395.9261 55.719703 
L 396.001796 56.967761 
L 396.116488 56.656052 
L 396.231181 55.33503 
L 396.422721 56.967761 
L 396.537413 56.656052 
L 396.652104 55.687659 
L 396.76711 56.656052 
L 396.996494 55.33503 
L 397.340571 56.040028 
L 397.68465 54.528048 
L 397.799344 55.33503 
L 397.914037 54.275589 
L 398.02873 54.982142 
L 398.143182 53.568 
L 398.372574 54.363965 
L 398.487273 53.568 
L 398.487273 53.568 
" clip-path="url(#pb0fd8f9a0c)" style="fill: none; stroke: #4169e1; stroke-width: 1.5; stroke-linecap: square"/>
   </g>
   <g id="patch_3">
    <path d="M 57.6 307.584 
L 57.6 41.472 
" style="fill: none; stroke: #000000; stroke-width: 0.8; stroke-linejoin: miter; stroke-linecap: square"/>
   </g>
   <g id="patch_4">
    <path d="M 414.72 307.584 
L 414.72 41.472 
" style="fill: none; stroke: #000000; stroke-width: 0.8; stroke-linejoin: miter; stroke-linecap: square"/>
   </g>
   <g id="patch_5">
    <path d="M 57.6 307.584 
L 414.72 307.584 
" style="fill: none; stroke: #000000; stroke-width: 0.8; stroke-linejoin: miter; stroke-linecap: square"/>
   </g>
   <g id="patch_6">
    <path d="M 57.6 41.472 
L 414.72 41.472 
" style="fill: none; stroke: #000000; stroke-width: 0.8; stroke-linejoin: miter; stroke-linecap: square"/>
   </g>
  </g>
 </g>
 <defs>
  <clipPath id="pb0fd8f9a0c">
   <rect x="57.6" y="41.472" width="357.12" height="266.112"/>
  </clipPath>
 </defs>
</svg>
