<?xml version="1.0" encoding="utf-8" standalone="no"?>
<!DOCTYPE svg PUBLIC "-//W3C//DTD SVG 1.1//EN"
  "http://www.w3.org/Graphics/SVG/1.1/DTD/svg11.dtd">
<svg xmlns:xlink="http://www.w3.org/1999/xlink" width="460.8pt" height="345.6pt" viewBox="0 0 460.8 345.6" xmlns="http://www.w3.org/2000/svg" version="1.1">
 <metadata>
  <rdf:RDF xmlns:dc="http://purl.org/dc/elements/1.1/" xmlns:cc="http://creativecommons.org/ns#" xmlns:rdf="http://www.w3.org/1999/02/22-rdf-syntax-ns#">
   <cc:Work>
    <dc:type rdf:resource="http://purl.org/dc/dcmitype/StillImage"/>
    <dc:date>2022-05-20T23:55:03.231414</dc:date>
    <dc:format>image/svg+xml</dc:format>
    <dc:creator>
     <cc:Agent>
      <dc:title>Matplotlib v3.5.1, https://matplotlib.org/</dc:title>
     </cc:Agent>
    </dc:creator>
   </cc:Work>
  </rdf:RDF>
 </metadata>
 <defs>
  <style type="text/css">*{stroke-linejoin: round; stroke-linecap: butt}</style>
 </defs>
 <g id="figure_1">
  <g id="patch_1">
   <path d="M 0 345.6 
L 460.8 345.6 
L 460.8 0 
L 0 0 
z
" style="fill: #ffffff"/>
  </g>
  <g id="axes_1">
   <g id="patch_2">
    <path d="M 57.6 307.584 
L 414.72 307.584 
L 414.72 41.472 
L 57.6 41.472 
z
" style="fill: #ffffff"/>
   </g>
   <g id="matplotlib.axis_1">
    <g id="xtick_1">
     <g id="line2d_1">
      <defs>
       <path id="m9c0563f42c" d="M 0 0 
L 0 3.5 
" style="stroke: #000000; stroke-width: 0.8"/>
      </defs>
      <g>
       <use xlink:href="#m9c0563f42c" x="68.696247" y="307.584" style="stroke: #000000; stroke-width: 0.8"/>
      </g>
     </g>
     <g id="text_1">
      <!-- $\mathdefault{0}$ -->
      <g transform="translate(66.205579 321.502498)scale(0.1 -0.1)">
       <defs>
        <path id="CMR17-30" d="M 2688 2025 
C 2688 2416 2682 3080 2413 3591 
C 2176 4039 1798 4198 1466 4198 
C 1158 4198 768 4058 525 3597 
C 269 3118 243 2524 243 2025 
C 243 1661 250 1106 448 619 
C 723 -39 1216 -128 1466 -128 
C 1760 -128 2208 -7 2470 600 
C 2662 1042 2688 1559 2688 2025 
z
M 1466 -26 
C 1056 -26 813 325 723 812 
C 653 1188 653 1738 653 2096 
C 653 2588 653 2997 736 3387 
C 858 3929 1216 4096 1466 4096 
C 1728 4096 2067 3923 2189 3400 
C 2272 3036 2278 2607 2278 2096 
C 2278 1680 2278 1169 2202 792 
C 2067 95 1690 -26 1466 -26 
z
" transform="scale(0.015625)"/>
       </defs>
       <use xlink:href="#CMR17-30" transform="scale(0.996264)"/>
      </g>
     </g>
    </g>
    <g id="xtick_2">
     <g id="line2d_2">
      <g>
       <use xlink:href="#m9c0563f42c" x="123.568539" y="307.584" style="stroke: #000000; stroke-width: 0.8"/>
      </g>
     </g>
     <g id="text_2">
      <!-- $\mathdefault{2}$ -->
      <g transform="translate(121.077872 321.502498)scale(0.1 -0.1)">
       <defs>
        <path id="CMR17-32" d="M 2669 989 
L 2554 989 
C 2490 536 2438 459 2413 420 
C 2381 369 1920 369 1830 369 
L 602 369 
C 832 619 1280 1072 1824 1597 
C 2214 1967 2669 2402 2669 3035 
C 2669 3790 2067 4224 1395 4224 
C 691 4224 262 3604 262 3030 
C 262 2780 448 2748 525 2748 
C 589 2748 781 2787 781 3010 
C 781 3207 614 3264 525 3264 
C 486 3264 448 3258 422 3245 
C 544 3790 915 4058 1306 4058 
C 1862 4058 2227 3617 2227 3035 
C 2227 2479 1901 2000 1536 1584 
L 262 146 
L 262 0 
L 2515 0 
L 2669 989 
z
" transform="scale(0.015625)"/>
       </defs>
       <use xlink:href="#CMR17-32" transform="scale(0.996264)"/>
      </g>
     </g>
    </g>
    <g id="xtick_3">
     <g id="line2d_3">
      <g>
       <use xlink:href="#m9c0563f42c" x="178.440832" y="307.584" style="stroke: #000000; stroke-width: 0.8"/>
      </g>
     </g>
     <g id="text_3">
      <!-- $\mathdefault{4}$ -->
      <g transform="translate(175.950164 321.502498)scale(0.1 -0.1)">
       <defs>
        <path id="CMR17-34" d="M 2150 4122 
C 2150 4256 2144 4256 2029 4256 
L 128 1254 
L 128 1088 
L 1779 1088 
L 1779 457 
C 1779 224 1766 160 1318 160 
L 1197 160 
L 1197 0 
C 1402 0 1747 0 1965 0 
C 2182 0 2528 0 2733 0 
L 2733 160 
L 2611 160 
C 2163 160 2150 224 2150 457 
L 2150 1088 
L 2803 1088 
L 2803 1254 
L 2150 1254 
L 2150 4122 
z
M 1798 3703 
L 1798 1254 
L 256 1254 
L 1798 3703 
z
" transform="scale(0.015625)"/>
       </defs>
       <use xlink:href="#CMR17-34" transform="scale(0.996264)"/>
      </g>
     </g>
    </g>
    <g id="xtick_4">
     <g id="line2d_4">
      <g>
       <use xlink:href="#m9c0563f42c" x="233.313124" y="307.584" style="stroke: #000000; stroke-width: 0.8"/>
      </g>
     </g>
     <g id="text_4">
      <!-- $\mathdefault{6}$ -->
      <g transform="translate(230.822456 321.502498)scale(0.1 -0.1)">
       <defs>
        <path id="CMR17-36" d="M 678 2176 
C 678 3690 1395 4032 1811 4032 
C 1946 4032 2272 4009 2400 3776 
C 2298 3776 2106 3776 2106 3553 
C 2106 3381 2246 3323 2336 3323 
C 2394 3323 2566 3348 2566 3560 
C 2566 3954 2246 4179 1805 4179 
C 1043 4179 243 3390 243 1984 
C 243 253 966 -128 1478 -128 
C 2099 -128 2688 427 2688 1283 
C 2688 2081 2170 2662 1517 2662 
C 1126 2662 838 2407 678 1960 
L 678 2176 
z
M 1478 25 
C 691 25 691 1200 691 1436 
C 691 1896 909 2560 1504 2560 
C 1613 2560 1926 2560 2138 2120 
C 2253 1870 2253 1609 2253 1289 
C 2253 944 2253 690 2118 434 
C 1978 171 1773 25 1478 25 
z
" transform="scale(0.015625)"/>
       </defs>
       <use xlink:href="#CMR17-36" transform="scale(0.996264)"/>
      </g>
     </g>
    </g>
    <g id="xtick_5">
     <g id="line2d_5">
      <g>
       <use xlink:href="#m9c0563f42c" x="288.185416" y="307.584" style="stroke: #000000; stroke-width: 0.8"/>
      </g>
     </g>
     <g id="text_5">
      <!-- $\mathdefault{8}$ -->
      <g transform="translate(285.694749 321.502498)scale(0.1 -0.1)">
       <defs>
        <path id="CMR17-38" d="M 1741 2264 
C 2144 2467 2554 2773 2554 3263 
C 2554 3841 1990 4179 1472 4179 
C 890 4179 378 3759 378 3180 
C 378 3021 416 2747 666 2505 
C 730 2442 998 2251 1171 2130 
C 883 1983 211 1634 211 934 
C 211 279 838 -128 1459 -128 
C 2144 -128 2720 362 2720 1010 
C 2720 1590 2330 1857 2074 2029 
L 1741 2264 
z
M 902 2822 
C 851 2854 595 3051 595 3351 
C 595 3739 998 4032 1459 4032 
C 1965 4032 2336 3676 2336 3262 
C 2336 2669 1670 2331 1638 2331 
C 1632 2331 1626 2331 1574 2370 
L 902 2822 
z
M 2080 1519 
C 2176 1449 2483 1240 2483 851 
C 2483 381 2010 25 1472 25 
C 890 25 448 438 448 940 
C 448 1443 838 1862 1280 2060 
L 2080 1519 
z
" transform="scale(0.015625)"/>
       </defs>
       <use xlink:href="#CMR17-38" transform="scale(0.996264)"/>
      </g>
     </g>
    </g>
    <g id="xtick_6">
     <g id="line2d_6">
      <g>
       <use xlink:href="#m9c0563f42c" x="343.057709" y="307.584" style="stroke: #000000; stroke-width: 0.8"/>
      </g>
     </g>
     <g id="text_6">
      <!-- $\mathdefault{10}$ -->
      <g transform="translate(338.076373 321.502498)scale(0.1 -0.1)">
       <defs>
        <path id="CMR17-31" d="M 1702 4058 
C 1702 4192 1696 4192 1606 4192 
C 1357 3916 979 3827 621 3827 
C 602 3827 570 3827 563 3808 
C 557 3795 557 3782 557 3648 
C 755 3648 1088 3686 1344 3839 
L 1344 461 
C 1344 236 1331 160 781 160 
L 589 160 
L 589 0 
C 896 0 1216 0 1523 0 
C 1830 0 2150 0 2458 0 
L 2458 160 
L 2266 160 
C 1715 160 1702 230 1702 458 
L 1702 4058 
z
" transform="scale(0.015625)"/>
       </defs>
       <use xlink:href="#CMR17-31" transform="scale(0.996264)"/>
       <use xlink:href="#CMR17-30" transform="translate(45.690477 0)scale(0.996264)"/>
      </g>
     </g>
    </g>
    <g id="xtick_7">
     <g id="line2d_7">
      <g>
       <use xlink:href="#m9c0563f42c" x="397.930001" y="307.584" style="stroke: #000000; stroke-width: 0.8"/>
      </g>
     </g>
     <g id="text_7">
      <!-- $\mathdefault{12}$ -->
      <g transform="translate(392.948666 321.502498)scale(0.1 -0.1)">
       <use xlink:href="#CMR17-31" transform="scale(0.996264)"/>
       <use xlink:href="#CMR17-32" transform="translate(45.690477 0)scale(0.996264)"/>
      </g>
     </g>
    </g>
    <g id="text_8">
     <!-- Temps (s) -->
     <g transform="translate(202.039235 339.394845)scale(0.16 -0.16)">
      <defs>
       <path id="CMR17-54" d="M 3981 4326 
L 288 4326 
L 179 2918 
L 294 2918 
C 378 3976 467 4160 1453 4160 
C 1568 4160 1754 4160 1805 4154 
C 1926 4135 1926 4058 1926 3912 
L 1926 459 
C 1926 230 1907 160 1376 160 
L 1197 160 
L 1197 0 
C 1504 0 1824 0 2138 0 
C 2451 0 2771 0 3078 0 
L 3078 160 
L 2899 160 
C 2368 160 2349 230 2349 459 
L 2349 3912 
C 2349 4052 2349 4129 2464 4154 
C 2515 4160 2701 4160 2816 4160 
C 3795 4160 3891 3976 3974 2918 
L 4090 2918 
L 3981 4326 
z
" transform="scale(0.015625)"/>
       <path id="CMR17-65" d="M 2438 1472 
C 2464 1498 2464 1511 2464 1576 
C 2464 2238 2118 2816 1389 2816 
C 710 2816 173 2169 173 1383 
C 173 551 781 -64 1459 -64 
C 2176 -64 2458 607 2458 740 
C 2458 784 2419 784 2406 784 
C 2362 784 2355 771 2330 696 
C 2189 265 1837 51 1504 51 
C 1229 51 954 203 781 480 
C 582 803 582 1176 582 1472 
L 2438 1472 
z
M 589 1568 
C 634 2505 1126 2714 1382 2714 
C 1818 2714 2112 2297 2118 1568 
L 589 1568 
z
" transform="scale(0.015625)"/>
       <path id="CMR17-6d" d="M 4326 1933 
C 4326 2252 4269 2790 3507 2790 
C 3072 2790 2771 2496 2656 2151 
L 2650 2151 
C 2573 2676 2195 2790 1837 2790 
C 1331 2790 1069 2400 973 2144 
L 966 2144 
L 966 2790 
L 211 2720 
L 211 2554 
C 589 2554 646 2515 646 2208 
L 646 428 
C 646 184 621 153 211 153 
L 211 -13 
C 365 0 646 0 813 0 
C 979 0 1267 0 1421 -13 
L 1421 153 
C 1011 153 986 178 986 428 
L 986 1658 
C 986 2247 1344 2688 1792 2688 
C 2266 2688 2317 2266 2317 1958 
L 2317 428 
C 2317 184 2291 153 1882 153 
L 1882 -13 
C 2035 0 2317 0 2483 0 
C 2650 0 2938 0 3091 -13 
L 3091 153 
C 2682 153 2656 178 2656 428 
L 2656 1658 
C 2656 2247 3014 2688 3462 2688 
C 3936 2688 3987 2266 3987 1958 
L 3987 428 
C 3987 184 3962 153 3552 153 
L 3552 -13 
C 3706 0 3987 0 4154 0 
C 4320 0 4608 0 4762 -13 
L 4762 153 
C 4352 153 4326 178 4326 428 
L 4326 1933 
z
" transform="scale(0.015625)"/>
       <path id="CMR17-70" d="M 1408 -1063 
C 998 -1063 973 -1037 973 -789 
L 973 402 
C 1158 134 1427 -38 1766 -38 
C 2406 -38 3053 523 3053 1388 
C 3053 2191 2496 2802 1837 2802 
C 1453 2802 1139 2592 960 2338 
L 960 2802 
L 198 2732 
L 198 2567 
C 576 2567 634 2528 634 2223 
L 634 -789 
C 634 -1031 608 -1063 198 -1063 
L 198 -1228 
C 352 -1216 634 -1216 800 -1216 
C 966 -1216 1254 -1216 1408 -1228 
L 1408 -1063 
z
M 973 2012 
C 973 2102 973 2235 1222 2471 
C 1254 2497 1472 2688 1792 2688 
C 2259 2688 2643 2108 2643 1382 
C 2643 656 2234 64 1728 64 
C 1498 64 1248 172 1056 472 
C 973 612 973 650 973 752 
L 973 2012 
z
" transform="scale(0.015625)"/>
       <path id="CMR17-73" d="M 1978 2697 
C 1978 2813 1971 2819 1933 2819 
C 1907 2819 1901 2813 1824 2717 
C 1805 2691 1747 2626 1728 2601 
C 1523 2819 1235 2819 1126 2819 
C 416 2819 160 2447 160 2076 
C 160 1498 813 1365 998 1325 
C 1402 1243 1542 1217 1677 1101 
C 1760 1025 1901 884 1901 654 
C 1901 384 1747 38 1158 38 
C 602 38 403 460 288 1021 
C 269 1110 269 1117 218 1117 
C 166 1117 160 1110 160 983 
L 160 63 
C 160 -51 166 -58 205 -58 
C 237 -58 243 -51 275 0 
C 314 57 410 211 448 276 
C 576 103 800 -64 1158 -64 
C 1792 -64 2131 283 2131 784 
C 2131 1112 1958 1285 1875 1362 
C 1683 1561 1459 1606 1190 1657 
C 838 1735 390 1825 390 2217 
C 390 2383 480 2737 1126 2737 
C 1811 2737 1850 2094 1862 1888 
C 1869 1856 1901 1849 1920 1849 
C 1978 1849 1978 1869 1978 1978 
L 1978 2697 
z
" transform="scale(0.015625)"/>
       <path id="CMR17-28" d="M 1958 -1561 
C 1958 -1555 1958 -1542 1939 -1523 
C 1645 -1224 858 -407 858 1581 
C 858 3569 1632 4379 1946 4697 
C 1946 4704 1958 4717 1958 4736 
C 1958 4755 1939 4768 1914 4768 
C 1843 4768 1299 4296 986 3594 
C 666 2887 576 2199 576 1588 
C 576 1128 621 351 1005 -471 
C 1312 -1135 1837 -1600 1914 -1600 
C 1946 -1600 1958 -1587 1958 -1561 
z
" transform="scale(0.015625)"/>
       <path id="CMR17-29" d="M 1683 1581 
C 1683 2040 1638 2817 1254 3639 
C 947 4303 422 4768 346 4768 
C 326 4768 301 4761 301 4729 
C 301 4717 307 4710 314 4697 
C 621 4378 1402 3568 1402 1584 
C 1402 -407 627 -1217 314 -1537 
C 307 -1549 301 -1556 301 -1568 
C 301 -1600 326 -1600 346 -1600 
C 416 -1600 960 -1128 1274 -426 
C 1594 281 1683 969 1683 1581 
z
" transform="scale(0.015625)"/>
      </defs>
      <use xlink:href="#CMR17-54" transform="scale(0.996264)"/>
      <use xlink:href="#CMR17-65" transform="translate(58.702625 0)scale(0.996264)"/>
      <use xlink:href="#CMR17-6d" transform="translate(99.188286 0)scale(0.996264)"/>
      <use xlink:href="#CMR17-70" transform="translate(176.107875 0)scale(0.996264)"/>
      <use xlink:href="#CMR17-73" transform="translate(227.003245 0)scale(0.996264)"/>
      <use xlink:href="#CMR17-28" transform="translate(292.880549 0)scale(0.996264)"/>
      <use xlink:href="#CMR17-73" transform="translate(328.161317 0)scale(0.996264)"/>
      <use xlink:href="#CMR17-29" transform="translate(363.962655 0)scale(0.996264)"/>
     </g>
    </g>
   </g>
   <g id="matplotlib.axis_2">
    <g id="ytick_1">
     <g id="line2d_8">
      <defs>
       <path id="m499368df7c" d="M 0 0 
L -3.5 0 
" style="stroke: #000000; stroke-width: 0.8"/>
      </defs>
      <g>
       <use xlink:href="#m499368df7c" x="57.6" y="276.095316" style="stroke: #000000; stroke-width: 0.8"/>
      </g>
     </g>
     <g id="text_9">
      <!-- $\mathdefault{0.426}$ -->
      <g transform="translate(27.907251 279.554565)scale(0.1 -0.1)">
       <defs>
        <path id="CMMI12-3a" d="M 1178 307 
C 1178 492 1024 619 870 619 
C 685 619 557 466 557 313 
C 557 128 710 0 864 0 
C 1050 0 1178 153 1178 307 
z
" transform="scale(0.015625)"/>
       </defs>
       <use xlink:href="#CMR17-30" transform="scale(0.996264)"/>
       <use xlink:href="#CMMI12-3a" transform="translate(45.690477 0)scale(0.996264)"/>
       <use xlink:href="#CMR17-34" transform="translate(72.787654 0)scale(0.996264)"/>
       <use xlink:href="#CMR17-32" transform="translate(118.478131 0)scale(0.996264)"/>
       <use xlink:href="#CMR17-36" transform="translate(164.168608 0)scale(0.996264)"/>
      </g>
     </g>
    </g>
    <g id="ytick_2">
     <g id="line2d_9">
      <g>
       <use xlink:href="#m499368df7c" x="57.6" y="218.008863" style="stroke: #000000; stroke-width: 0.8"/>
      </g>
     </g>
     <g id="text_10">
      <!-- $\mathdefault{0.428}$ -->
      <g transform="translate(27.907251 221.468112)scale(0.1 -0.1)">
       <use xlink:href="#CMR17-30" transform="scale(0.996264)"/>
       <use xlink:href="#CMMI12-3a" transform="translate(45.690477 0)scale(0.996264)"/>
       <use xlink:href="#CMR17-34" transform="translate(72.787654 0)scale(0.996264)"/>
       <use xlink:href="#CMR17-32" transform="translate(118.478131 0)scale(0.996264)"/>
       <use xlink:href="#CMR17-38" transform="translate(164.168608 0)scale(0.996264)"/>
      </g>
     </g>
    </g>
    <g id="ytick_3">
     <g id="line2d_10">
      <g>
       <use xlink:href="#m499368df7c" x="57.6" y="159.922409" style="stroke: #000000; stroke-width: 0.8"/>
      </g>
     </g>
     <g id="text_11">
      <!-- $\mathdefault{0.430}$ -->
      <g transform="translate(27.907251 163.381659)scale(0.1 -0.1)">
       <defs>
        <path id="CMR17-33" d="M 1414 2157 
C 1984 2157 2234 1662 2234 1090 
C 2234 320 1824 25 1453 25 
C 1114 25 563 194 390 693 
C 422 680 454 680 486 680 
C 640 680 755 782 755 948 
C 755 1133 614 1216 486 1216 
C 378 1216 211 1165 211 926 
C 211 335 787 -128 1466 -128 
C 2176 -128 2720 430 2720 1085 
C 2720 1707 2208 2157 1600 2227 
C 2086 2328 2554 2756 2554 3329 
C 2554 3820 2048 4179 1472 4179 
C 890 4179 378 3829 378 3329 
C 378 3110 544 3072 627 3072 
C 762 3072 877 3155 877 3321 
C 877 3486 762 3569 627 3569 
C 602 3569 570 3569 544 3557 
C 730 3959 1235 4032 1459 4032 
C 1683 4032 2106 3925 2106 3320 
C 2106 3143 2080 2828 1862 2550 
C 1670 2304 1453 2304 1242 2284 
C 1210 2284 1062 2269 1037 2269 
C 992 2263 966 2257 966 2208 
C 966 2163 973 2157 1101 2157 
L 1414 2157 
z
" transform="scale(0.015625)"/>
       </defs>
       <use xlink:href="#CMR17-30" transform="scale(0.996264)"/>
       <use xlink:href="#CMMI12-3a" transform="translate(45.690477 0)scale(0.996264)"/>
       <use xlink:href="#CMR17-34" transform="translate(72.787654 0)scale(0.996264)"/>
       <use xlink:href="#CMR17-33" transform="translate(118.478131 0)scale(0.996264)"/>
       <use xlink:href="#CMR17-30" transform="translate(164.168608 0)scale(0.996264)"/>
      </g>
     </g>
    </g>
    <g id="ytick_4">
     <g id="line2d_11">
      <g>
       <use xlink:href="#m499368df7c" x="57.6" y="101.835956" style="stroke: #000000; stroke-width: 0.8"/>
      </g>
     </g>
     <g id="text_12">
      <!-- $\mathdefault{0.432}$ -->
      <g transform="translate(27.907251 105.295205)scale(0.1 -0.1)">
       <use xlink:href="#CMR17-30" transform="scale(0.996264)"/>
       <use xlink:href="#CMMI12-3a" transform="translate(45.690477 0)scale(0.996264)"/>
       <use xlink:href="#CMR17-34" transform="translate(72.787654 0)scale(0.996264)"/>
       <use xlink:href="#CMR17-33" transform="translate(118.478131 0)scale(0.996264)"/>
       <use xlink:href="#CMR17-32" transform="translate(164.168608 0)scale(0.996264)"/>
      </g>
     </g>
    </g>
    <g id="ytick_5">
     <g id="line2d_12">
      <g>
       <use xlink:href="#m499368df7c" x="57.6" y="43.749503" style="stroke: #000000; stroke-width: 0.8"/>
      </g>
     </g>
     <g id="text_13">
      <!-- $\mathdefault{0.434}$ -->
      <g transform="translate(27.907251 47.208752)scale(0.1 -0.1)">
       <use xlink:href="#CMR17-30" transform="scale(0.996264)"/>
       <use xlink:href="#CMMI12-3a" transform="translate(45.690477 0)scale(0.996264)"/>
       <use xlink:href="#CMR17-34" transform="translate(72.787654 0)scale(0.996264)"/>
       <use xlink:href="#CMR17-33" transform="translate(118.478131 0)scale(0.996264)"/>
       <use xlink:href="#CMR17-34" transform="translate(164.168608 0)scale(0.996264)"/>
      </g>
     </g>
    </g>
    <g id="text_14">
     <!-- Tension (V) -->
     <g transform="translate(19.922194 215.322751)rotate(-90)scale(0.16 -0.16)">
      <defs>
       <path id="CMR17-6e" d="M 2656 1933 
C 2656 2259 2592 2790 1837 2790 
C 1331 2790 1069 2400 973 2144 
L 966 2144 
L 966 2790 
L 211 2720 
L 211 2554 
C 589 2554 646 2515 646 2208 
L 646 428 
C 646 184 621 153 211 153 
L 211 -13 
C 365 0 646 0 813 0 
C 979 0 1267 0 1421 -13 
L 1421 153 
C 1011 153 986 178 986 428 
L 986 1658 
C 986 2247 1344 2688 1792 2688 
C 2266 2688 2317 2266 2317 1958 
L 2317 428 
C 2317 184 2291 153 1882 153 
L 1882 -13 
C 2035 0 2317 0 2483 0 
C 2650 0 2938 0 3091 -13 
L 3091 153 
C 2682 153 2656 178 2656 428 
L 2656 1933 
z
" transform="scale(0.015625)"/>
       <path id="CMR17-69" d="M 992 3909 
C 992 4049 877 4170 730 4170 
C 589 4170 467 4056 467 3909 
C 467 3769 582 3648 730 3648 
C 870 3648 992 3763 992 3909 
z
M 243 2706 
L 243 2541 
C 602 2541 653 2502 653 2197 
L 653 427 
C 653 184 627 153 218 153 
L 218 -13 
C 371 0 646 0 806 0 
C 960 0 1222 0 1370 -13 
L 1370 153 
C 992 153 979 191 979 420 
L 979 2776 
L 243 2706 
z
" transform="scale(0.015625)"/>
       <path id="CMR17-6f" d="M 2758 1356 
C 2758 2176 2163 2816 1466 2816 
C 768 2816 173 2176 173 1356 
C 173 551 768 -64 1466 -64 
C 2163 -64 2758 551 2758 1356 
z
M 1466 51 
C 1165 51 909 230 762 480 
C 602 767 582 1126 582 1408 
C 582 1677 595 2010 762 2298 
C 890 2509 1139 2714 1466 2714 
C 1754 2714 1997 2554 2150 2330 
C 2349 2029 2349 1607 2349 1408 
C 2349 1158 2336 775 2163 467 
C 1984 173 1709 51 1466 51 
z
" transform="scale(0.015625)"/>
       <path id="CMR17-56" d="M 3776 3745 
C 3834 3886 3936 4160 4365 4160 
L 4365 4332 
C 4218 4319 4051 4319 3891 4319 
C 3738 4319 3475 4319 3328 4332 
L 3328 4160 
C 3648 4160 3661 3936 3661 3898 
C 3661 3827 3642 3783 3622 3732 
L 2362 446 
L 1043 3886 
C 1024 3931 1011 3963 1011 3994 
C 1011 4160 1267 4160 1402 4160 
L 1402 4319 
C 1197 4319 896 4319 685 4319 
C 518 4319 218 4319 64 4332 
L 64 4160 
C 435 4160 506 4135 582 3931 
L 2106 -26 
C 2138 -115 2144 -128 2214 -128 
C 2285 -128 2291 -115 2323 -26 
L 3776 3745 
z
" transform="scale(0.015625)"/>
      </defs>
      <use xlink:href="#CMR17-54" transform="scale(0.996264)"/>
      <use xlink:href="#CMR17-65" transform="translate(58.702625 0)scale(0.996264)"/>
      <use xlink:href="#CMR17-6e" transform="translate(99.188286 0)scale(0.996264)"/>
      <use xlink:href="#CMR17-73" transform="translate(150.083655 0)scale(0.996264)"/>
      <use xlink:href="#CMR17-69" transform="translate(185.884993 0)scale(0.996264)"/>
      <use xlink:href="#CMR17-6f" transform="translate(210.756052 0)scale(0.996264)"/>
      <use xlink:href="#CMR17-6e" transform="translate(256.446529 0)scale(0.996264)"/>
      <use xlink:href="#CMR17-28" transform="translate(337.417865 0)scale(0.996264)"/>
      <use xlink:href="#CMR17-56" transform="translate(372.698633 0)scale(0.996264)"/>
      <use xlink:href="#CMR17-29" transform="translate(441.771062 0)scale(0.996264)"/>
     </g>
    </g>
   </g>
   <g id="line2d_13">
    <defs>
     <path id="m7d8da2d8b2" d="M 0 0.4 
C 0.106081 0.4 0.207832 0.357853 0.282843 0.282843 
C 0.357853 0.207832 0.4 0.106081 0.4 0 
C 0.4 -0.106081 0.357853 -0.207832 0.282843 -0.282843 
C 0.207832 -0.357853 0.106081 -0.4 0 -0.4 
C -0.106081 -0.4 -0.207832 -0.357853 -0.282843 -0.282843 
C -0.357853 -0.207832 -0.4 -0.106081 -0.4 0 
C -0.4 0.106081 -0.357853 0.207832 -0.282843 0.282843 
C -0.207832 0.357853 -0.106081 0.4 0 0.4 
z
" style="stroke: #4169e1"/>
    </defs>
    <g clip-path="url(#pdfd1538ff9)">
     <use xlink:href="#m7d8da2d8b2" x="73.832727" y="93.888" style="fill: #4169e1; stroke: #4169e1"/>
     <use xlink:href="#m7d8da2d8b2" x="76.329393" y="111.168" style="fill: #4169e1; stroke: #4169e1"/>
     <use xlink:href="#m7d8da2d8b2" x="77.480908" y="134.208" style="fill: #4169e1; stroke: #4169e1"/>
     <use xlink:href="#m7d8da2d8b2" x="79.319206" y="93.888" style="fill: #4169e1; stroke: #4169e1"/>
     <use xlink:href="#m7d8da2d8b2" x="81.129952" y="93.888" style="fill: #4169e1; stroke: #4169e1"/>
     <use xlink:href="#m7d8da2d8b2" x="83.873577" y="93.888" style="fill: #4169e1; stroke: #4169e1"/>
     <use xlink:href="#m7d8da2d8b2" x="85.711744" y="93.888" style="fill: #4169e1; stroke: #4169e1"/>
     <use xlink:href="#m7d8da2d8b2" x="87.549996" y="134.208" style="fill: #4169e1; stroke: #4169e1"/>
     <use xlink:href="#m7d8da2d8b2" x="89.360801" y="53.568" style="fill: #4169e1; stroke: #4169e1"/>
     <use xlink:href="#m7d8da2d8b2" x="91.199027" y="134.208" style="fill: #4169e1; stroke: #4169e1"/>
     <use xlink:href="#m7d8da2d8b2" x="93.037252" y="93.888" style="fill: #4169e1; stroke: #4169e1"/>
     <use xlink:href="#m7d8da2d8b2" x="94.85679" y="53.568" style="fill: #4169e1; stroke: #4169e1"/>
     <use xlink:href="#m7d8da2d8b2" x="96.695049" y="174.528" style="fill: #4169e1; stroke: #4169e1"/>
     <use xlink:href="#m7d8da2d8b2" x="99.301457" y="76.608" style="fill: #4169e1; stroke: #4169e1"/>
     <use xlink:href="#m7d8da2d8b2" x="100.343981" y="53.568" style="fill: #4169e1; stroke: #4169e1"/>
     <use xlink:href="#m7d8da2d8b2" x="102.182312" y="134.208" style="fill: #4169e1; stroke: #4169e1"/>
     <use xlink:href="#m7d8da2d8b2" x="103.992979" y="93.888" style="fill: #4169e1; stroke: #4169e1"/>
     <use xlink:href="#m7d8da2d8b2" x="105.831225" y="53.568" style="fill: #4169e1; stroke: #4169e1"/>
     <use xlink:href="#m7d8da2d8b2" x="107.669503" y="53.568" style="fill: #4169e1; stroke: #4169e1"/>
     <use xlink:href="#m7d8da2d8b2" x="110.413069" y="134.208" style="fill: #4169e1; stroke: #4169e1"/>
     <use xlink:href="#m7d8da2d8b2" x="112.223848" y="93.888" style="fill: #4169e1; stroke: #4169e1"/>
     <use xlink:href="#m7d8da2d8b2" x="114.062087" y="53.568" style="fill: #4169e1; stroke: #4169e1"/>
     <use xlink:href="#m7d8da2d8b2" x="115.900274" y="148.869818" style="fill: #4169e1; stroke: #4169e1"/>
     <use xlink:href="#m7d8da2d8b2" x="117.711065" y="93.888" style="fill: #4169e1; stroke: #4169e1"/>
     <use xlink:href="#m7d8da2d8b2" x="120.482157" y="76.608" style="fill: #4169e1; stroke: #4169e1"/>
     <use xlink:href="#m7d8da2d8b2" x="122.29289" y="53.568" style="fill: #4169e1; stroke: #4169e1"/>
     <use xlink:href="#m7d8da2d8b2" x="124.131149" y="134.208" style="fill: #4169e1; stroke: #4169e1"/>
     <use xlink:href="#m7d8da2d8b2" x="125.941941" y="93.888" style="fill: #4169e1; stroke: #4169e1"/>
     <use xlink:href="#m7d8da2d8b2" x="127.78016" y="93.888" style="fill: #4169e1; stroke: #4169e1"/>
     <use xlink:href="#m7d8da2d8b2" x="129.618366" y="93.888" style="fill: #4169e1; stroke: #4169e1"/>
     <use xlink:href="#m7d8da2d8b2" x="131.453721" y="134.208" style="fill: #4169e1; stroke: #4169e1"/>
     <use xlink:href="#m7d8da2d8b2" x="133.264512" y="53.568" style="fill: #4169e1; stroke: #4169e1"/>
     <use xlink:href="#m7d8da2d8b2" x="135.10281" y="134.208" style="fill: #4169e1; stroke: #4169e1"/>
     <use xlink:href="#m7d8da2d8b2" x="136.940984" y="134.208" style="fill: #4169e1; stroke: #4169e1"/>
     <use xlink:href="#m7d8da2d8b2" x="138.751736" y="53.568" style="fill: #4169e1; stroke: #4169e1"/>
     <use xlink:href="#m7d8da2d8b2" x="140.589956" y="174.528" style="fill: #4169e1; stroke: #4169e1"/>
     <use xlink:href="#m7d8da2d8b2" x="142.428182" y="93.888" style="fill: #4169e1; stroke: #4169e1"/>
     <use xlink:href="#m7d8da2d8b2" x="144.23896" y="53.568" style="fill: #4169e1; stroke: #4169e1"/>
     <use xlink:href="#m7d8da2d8b2" x="146.077193" y="174.528" style="fill: #4169e1; stroke: #4169e1"/>
     <use xlink:href="#m7d8da2d8b2" x="147.915438" y="134.208" style="fill: #4169e1; stroke: #4169e1"/>
     <use xlink:href="#m7d8da2d8b2" x="149.726269" y="93.888" style="fill: #4169e1; stroke: #4169e1"/>
     <use xlink:href="#m7d8da2d8b2" x="151.564423" y="93.888" style="fill: #4169e1; stroke: #4169e1"/>
     <use xlink:href="#m7d8da2d8b2" x="154.308035" y="124.128" style="fill: #4169e1; stroke: #4169e1"/>
     <use xlink:href="#m7d8da2d8b2" x="156.146261" y="93.888" style="fill: #4169e1; stroke: #4169e1"/>
     <use xlink:href="#m7d8da2d8b2" x="157.957034" y="134.208" style="fill: #4169e1; stroke: #4169e1"/>
     <use xlink:href="#m7d8da2d8b2" x="159.795266" y="93.888" style="fill: #4169e1; stroke: #4169e1"/>
     <use xlink:href="#m7d8da2d8b2" x="161.633518" y="93.888" style="fill: #4169e1; stroke: #4169e1"/>
     <use xlink:href="#m7d8da2d8b2" x="163.444271" y="93.888" style="fill: #4169e1; stroke: #4169e1"/>
     <use xlink:href="#m7d8da2d8b2" x="166.187863" y="145.728" style="fill: #4169e1; stroke: #4169e1"/>
     <use xlink:href="#m7d8da2d8b2" x="168.932672" y="63.648" style="fill: #4169e1; stroke: #4169e1"/>
     <use xlink:href="#m7d8da2d8b2" x="170.770924" y="134.208" style="fill: #4169e1; stroke: #4169e1"/>
     <use xlink:href="#m7d8da2d8b2" x="172.60913" y="134.208" style="fill: #4169e1; stroke: #4169e1"/>
     <use xlink:href="#m7d8da2d8b2" x="175.352769" y="166.464" style="fill: #4169e1; stroke: #4169e1"/>
     <use xlink:href="#m7d8da2d8b2" x="177.163515" y="93.888" style="fill: #4169e1; stroke: #4169e1"/>
     <use xlink:href="#m7d8da2d8b2" x="179.90714" y="63.648" style="fill: #4169e1; stroke: #4169e1"/>
     <use xlink:href="#m7d8da2d8b2" x="181.745398" y="93.888" style="fill: #4169e1; stroke: #4169e1"/>
     <use xlink:href="#m7d8da2d8b2" x="183.556138" y="134.208" style="fill: #4169e1; stroke: #4169e1"/>
     <use xlink:href="#m7d8da2d8b2" x="185.394357" y="53.568" style="fill: #4169e1; stroke: #4169e1"/>
     <use xlink:href="#m7d8da2d8b2" x="187.232629" y="134.208" style="fill: #4169e1; stroke: #4169e1"/>
     <use xlink:href="#m7d8da2d8b2" x="189.070874" y="134.208" style="fill: #4169e1; stroke: #4169e1"/>
     <use xlink:href="#m7d8da2d8b2" x="190.881679" y="93.888" style="fill: #4169e1; stroke: #4169e1"/>
     <use xlink:href="#m7d8da2d8b2" x="192.719866" y="134.208" style="fill: #4169e1; stroke: #4169e1"/>
     <use xlink:href="#m7d8da2d8b2" x="194.558053" y="93.888" style="fill: #4169e1; stroke: #4169e1"/>
     <use xlink:href="#m7d8da2d8b2" x="196.368825" y="134.208" style="fill: #4169e1; stroke: #4169e1"/>
     <use xlink:href="#m7d8da2d8b2" x="198.207044" y="174.528" style="fill: #4169e1; stroke: #4169e1"/>
     <use xlink:href="#m7d8da2d8b2" x="200.017823" y="93.888" style="fill: #4169e1; stroke: #4169e1"/>
     <use xlink:href="#m7d8da2d8b2" x="201.856095" y="53.568" style="fill: #4169e1; stroke: #4169e1"/>
     <use xlink:href="#m7d8da2d8b2" x="203.694301" y="174.528" style="fill: #4169e1; stroke: #4169e1"/>
     <use xlink:href="#m7d8da2d8b2" x="206.435028" y="154.368" style="fill: #4169e1; stroke: #4169e1"/>
     <use xlink:href="#m7d8da2d8b2" x="208.273254" y="174.528" style="fill: #4169e1; stroke: #4169e1"/>
     <use xlink:href="#m7d8da2d8b2" x="210.084033" y="60.898909" style="fill: #4169e1; stroke: #4169e1"/>
     <use xlink:href="#m7d8da2d8b2" x="211.922232" y="174.528" style="fill: #4169e1; stroke: #4169e1"/>
     <use xlink:href="#m7d8da2d8b2" x="214.665831" y="124.128" style="fill: #4169e1; stroke: #4169e1"/>
     <use xlink:href="#m7d8da2d8b2" x="216.50407" y="134.208" style="fill: #4169e1; stroke: #4169e1"/>
     <use xlink:href="#m7d8da2d8b2" x="218.314843" y="53.568" style="fill: #4169e1; stroke: #4169e1"/>
     <use xlink:href="#m7d8da2d8b2" x="220.154455" y="104.884364" style="fill: #4169e1; stroke: #4169e1"/>
     <use xlink:href="#m7d8da2d8b2" x="221.99272" y="134.208" style="fill: #4169e1; stroke: #4169e1"/>
     <use xlink:href="#m7d8da2d8b2" x="224.736287" y="124.128" style="fill: #4169e1; stroke: #4169e1"/>
     <use xlink:href="#m7d8da2d8b2" x="226.547078" y="53.568" style="fill: #4169e1; stroke: #4169e1"/>
     <use xlink:href="#m7d8da2d8b2" x="229.290736" y="63.648" style="fill: #4169e1; stroke: #4169e1"/>
     <use xlink:href="#m7d8da2d8b2" x="231.128975" y="214.848" style="fill: #4169e1; stroke: #4169e1"/>
     <use xlink:href="#m7d8da2d8b2" x="232.967221" y="134.208" style="fill: #4169e1; stroke: #4169e1"/>
     <use xlink:href="#m7d8da2d8b2" x="234.777947" y="93.888" style="fill: #4169e1; stroke: #4169e1"/>
     <use xlink:href="#m7d8da2d8b2" x="237.521539" y="63.648" style="fill: #4169e1; stroke: #4169e1"/>
     <use xlink:href="#m7d8da2d8b2" x="239.359759" y="93.888" style="fill: #4169e1; stroke: #4169e1"/>
     <use xlink:href="#m7d8da2d8b2" x="241.198004" y="174.528" style="fill: #4169e1; stroke: #4169e1"/>
     <use xlink:href="#m7d8da2d8b2" x="243.923844" y="63.648" style="fill: #4169e1; stroke: #4169e1"/>
     <use xlink:href="#m7d8da2d8b2" x="246.667456" y="184.608" style="fill: #4169e1; stroke: #4169e1"/>
     <use xlink:href="#m7d8da2d8b2" x="248.505669" y="93.888" style="fill: #4169e1; stroke: #4169e1"/>
     <use xlink:href="#m7d8da2d8b2" x="250.343888" y="134.208" style="fill: #4169e1; stroke: #4169e1"/>
     <use xlink:href="#m7d8da2d8b2" x="252.15468" y="174.528" style="fill: #4169e1; stroke: #4169e1"/>
     <use xlink:href="#m7d8da2d8b2" x="253.992978" y="174.528" style="fill: #4169e1; stroke: #4169e1"/>
     <use xlink:href="#m7d8da2d8b2" x="255.831158" y="174.528" style="fill: #4169e1; stroke: #4169e1"/>
     <use xlink:href="#m7d8da2d8b2" x="257.642002" y="134.208" style="fill: #4169e1; stroke: #4169e1"/>
     <use xlink:href="#m7d8da2d8b2" x="260.404819" y="134.208" style="fill: #4169e1; stroke: #4169e1"/>
     <use xlink:href="#m7d8da2d8b2" x="262.215637" y="104.884364" style="fill: #4169e1; stroke: #4169e1"/>
     <use xlink:href="#m7d8da2d8b2" x="264.05385" y="134.208" style="fill: #4169e1; stroke: #4169e1"/>
     <use xlink:href="#m7d8da2d8b2" x="265.892102" y="134.208" style="fill: #4169e1; stroke: #4169e1"/>
     <use xlink:href="#m7d8da2d8b2" x="267.702835" y="134.208" style="fill: #4169e1; stroke: #4169e1"/>
     <use xlink:href="#m7d8da2d8b2" x="269.541048" y="174.528" style="fill: #4169e1; stroke: #4169e1"/>
     <use xlink:href="#m7d8da2d8b2" x="271.351885" y="93.888" style="fill: #4169e1; stroke: #4169e1"/>
     <use xlink:href="#m7d8da2d8b2" x="273.190039" y="134.208" style="fill: #4169e1; stroke: #4169e1"/>
     <use xlink:href="#m7d8da2d8b2" x="275.028507" y="174.528" style="fill: #4169e1; stroke: #4169e1"/>
     <use xlink:href="#m7d8da2d8b2" x="276.839083" y="174.528" style="fill: #4169e1; stroke: #4169e1"/>
     <use xlink:href="#m7d8da2d8b2" x="278.677374" y="134.208" style="fill: #4169e1; stroke: #4169e1"/>
     <use xlink:href="#m7d8da2d8b2" x="280.515555" y="214.848" style="fill: #4169e1; stroke: #4169e1"/>
     <use xlink:href="#m7d8da2d8b2" x="282.350785" y="174.528" style="fill: #4169e1; stroke: #4169e1"/>
     <use xlink:href="#m7d8da2d8b2" x="284.161576" y="134.208" style="fill: #4169e1; stroke: #4169e1"/>
     <use xlink:href="#m7d8da2d8b2" x="290.496342" y="130.701913" style="fill: #4169e1; stroke: #4169e1"/>
     <use xlink:href="#m7d8da2d8b2" x="292.238738" y="111.168" style="fill: #4169e1; stroke: #4169e1"/>
     <use xlink:href="#m7d8da2d8b2" x="293.994668" y="111.168" style="fill: #4169e1; stroke: #4169e1"/>
     <use xlink:href="#m7d8da2d8b2" x="295.640789" y="111.168" style="fill: #4169e1; stroke: #4169e1"/>
     <use xlink:href="#m7d8da2d8b2" x="297.259627" y="111.168" style="fill: #4169e1; stroke: #4169e1"/>
     <use xlink:href="#m7d8da2d8b2" x="298.933143" y="145.728" style="fill: #4169e1; stroke: #4169e1"/>
     <use xlink:href="#m7d8da2d8b2" x="300.634159" y="214.848" style="fill: #4169e1; stroke: #4169e1"/>
     <use xlink:href="#m7d8da2d8b2" x="302.472379" y="214.848" style="fill: #4169e1; stroke: #4169e1"/>
     <use xlink:href="#m7d8da2d8b2" x="304.283183" y="174.528" style="fill: #4169e1; stroke: #4169e1"/>
     <use xlink:href="#m7d8da2d8b2" x="306.121409" y="134.208" style="fill: #4169e1; stroke: #4169e1"/>
     <use xlink:href="#m7d8da2d8b2" x="307.956208" y="134.208" style="fill: #4169e1; stroke: #4169e1"/>
     <use xlink:href="#m7d8da2d8b2" x="309.766986" y="134.208" style="fill: #4169e1; stroke: #4169e1"/>
     <use xlink:href="#m7d8da2d8b2" x="311.605186" y="93.888" style="fill: #4169e1; stroke: #4169e1"/>
     <use xlink:href="#m7d8da2d8b2" x="313.443425" y="174.528" style="fill: #4169e1; stroke: #4169e1"/>
     <use xlink:href="#m7d8da2d8b2" x="315.261118" y="174.528" style="fill: #4169e1; stroke: #4169e1"/>
     <use xlink:href="#m7d8da2d8b2" x="317.099311" y="93.888" style="fill: #4169e1; stroke: #4169e1"/>
     <use xlink:href="#m7d8da2d8b2" x="318.910122" y="214.848" style="fill: #4169e1; stroke: #4169e1"/>
     <use xlink:href="#m7d8da2d8b2" x="320.748303" y="134.208" style="fill: #4169e1; stroke: #4169e1"/>
     <use xlink:href="#m7d8da2d8b2" x="322.586601" y="134.208" style="fill: #4169e1; stroke: #4169e1"/>
     <use xlink:href="#m7d8da2d8b2" x="324.424807" y="180.288" style="fill: #4169e1; stroke: #4169e1"/>
     <use xlink:href="#m7d8da2d8b2" x="326.235553" y="174.528" style="fill: #4169e1; stroke: #4169e1"/>
     <use xlink:href="#m7d8da2d8b2" x="328.073785" y="134.208" style="fill: #4169e1; stroke: #4169e1"/>
     <use xlink:href="#m7d8da2d8b2" x="329.884564" y="174.528" style="fill: #4169e1; stroke: #4169e1"/>
     <use xlink:href="#m7d8da2d8b2" x="332.079486" y="111.168" style="fill: #4169e1; stroke: #4169e1"/>
     <use xlink:href="#m7d8da2d8b2" x="334.355069" y="180.288" style="fill: #4169e1; stroke: #4169e1"/>
     <use xlink:href="#m7d8da2d8b2" x="336.988958" y="192.855273" style="fill: #4169e1; stroke: #4169e1"/>
     <use xlink:href="#m7d8da2d8b2" x="339.128979" y="192.855273" style="fill: #4169e1; stroke: #4169e1"/>
     <use xlink:href="#m7d8da2d8b2" x="341.098933" y="214.848" style="fill: #4169e1; stroke: #4169e1"/>
     <use xlink:href="#m7d8da2d8b2" x="342.992034" y="180.288" style="fill: #4169e1; stroke: #4169e1"/>
     <use xlink:href="#m7d8da2d8b2" x="344.638221" y="180.288" style="fill: #4169e1; stroke: #4169e1"/>
     <use xlink:href="#m7d8da2d8b2" x="346.366671" y="295.488" style="fill: #4169e1; stroke: #4169e1"/>
     <use xlink:href="#m7d8da2d8b2" x="348.17745" y="134.208" style="fill: #4169e1; stroke: #4169e1"/>
     <use xlink:href="#m7d8da2d8b2" x="350.015689" y="174.528" style="fill: #4169e1; stroke: #4169e1"/>
     <use xlink:href="#m7d8da2d8b2" x="351.853895" y="295.488" style="fill: #4169e1; stroke: #4169e1"/>
     <use xlink:href="#m7d8da2d8b2" x="354.597527" y="148.869818" style="fill: #4169e1; stroke: #4169e1"/>
     <use xlink:href="#m7d8da2d8b2" x="358.412824" y="166.464" style="fill: #4169e1; stroke: #4169e1"/>
     <use xlink:href="#m7d8da2d8b2" x="360.086425" y="214.848" style="fill: #4169e1; stroke: #4169e1"/>
     <use xlink:href="#m7d8da2d8b2" x="361.897204" y="134.208" style="fill: #4169e1; stroke: #4169e1"/>
     <use xlink:href="#m7d8da2d8b2" x="364.640848" y="180.288" style="fill: #4169e1; stroke: #4169e1"/>
     <use xlink:href="#m7d8da2d8b2" x="366.479042" y="174.528" style="fill: #4169e1; stroke: #4169e1"/>
     <use xlink:href="#m7d8da2d8b2" x="368.313022" y="249.408" style="fill: #4169e1; stroke: #4169e1"/>
     <use xlink:href="#m7d8da2d8b2" x="370.288445" y="180.288" style="fill: #4169e1; stroke: #4169e1"/>
     <use xlink:href="#m7d8da2d8b2" x="373.141827" y="192.855273" style="fill: #4169e1; stroke: #4169e1"/>
     <use xlink:href="#m7d8da2d8b2" x="376.214642" y="170.862545" style="fill: #4169e1; stroke: #4169e1"/>
     <use xlink:href="#m7d8da2d8b2" x="378.217486" y="180.288" style="fill: #4169e1; stroke: #4169e1"/>
     <use xlink:href="#m7d8da2d8b2" x="379.863607" y="145.728" style="fill: #4169e1; stroke: #4169e1"/>
     <use xlink:href="#m7d8da2d8b2" x="381.4549" y="180.288" style="fill: #4169e1; stroke: #4169e1"/>
     <use xlink:href="#m7d8da2d8b2" x="383.046198" y="180.288" style="fill: #4169e1; stroke: #4169e1"/>
     <use xlink:href="#m7d8da2d8b2" x="384.774707" y="174.528" style="fill: #4169e1; stroke: #4169e1"/>
     <use xlink:href="#m7d8da2d8b2" x="386.58548" y="174.528" style="fill: #4169e1; stroke: #4169e1"/>
     <use xlink:href="#m7d8da2d8b2" x="388.418191" y="214.848" style="fill: #4169e1; stroke: #4169e1"/>
     <use xlink:href="#m7d8da2d8b2" x="390.256391" y="255.168" style="fill: #4169e1; stroke: #4169e1"/>
     <use xlink:href="#m7d8da2d8b2" x="392.999983" y="233.457231" style="fill: #4169e1; stroke: #4169e1"/>
     <use xlink:href="#m7d8da2d8b2" x="394.838222" y="111.168" style="fill: #4169e1; stroke: #4169e1"/>
     <use xlink:href="#m7d8da2d8b2" x="396.648975" y="214.848" style="fill: #4169e1; stroke: #4169e1"/>
     <use xlink:href="#m7d8da2d8b2" x="398.487273" y="255.168" style="fill: #4169e1; stroke: #4169e1"/>
    </g>
   </g>
   <g id="patch_3">
    <path d="M 57.6 307.584 
L 57.6 41.472 
" style="fill: none; stroke: #000000; stroke-width: 0.8; stroke-linejoin: miter; stroke-linecap: square"/>
   </g>
   <g id="patch_4">
    <path d="M 414.72 307.584 
L 414.72 41.472 
" style="fill: none; stroke: #000000; stroke-width: 0.8; stroke-linejoin: miter; stroke-linecap: square"/>
   </g>
   <g id="patch_5">
    <path d="M 57.6 307.584 
L 414.72 307.584 
" style="fill: none; stroke: #000000; stroke-width: 0.8; stroke-linejoin: miter; stroke-linecap: square"/>
   </g>
   <g id="patch_6">
    <path d="M 57.6 41.472 
L 414.72 41.472 
" style="fill: none; stroke: #000000; stroke-width: 0.8; stroke-linejoin: miter; stroke-linecap: square"/>
   </g>
  </g>
 </g>
 <defs>
  <clipPath id="pdfd1538ff9">
   <rect x="57.6" y="41.472" width="357.12" height="266.112"/>
  </clipPath>
 </defs>
</svg>
