<?xml version="1.0" encoding="utf-8" standalone="no"?>
<!DOCTYPE svg PUBLIC "-//W3C//DTD SVG 1.1//EN"
  "http://www.w3.org/Graphics/SVG/1.1/DTD/svg11.dtd">
<svg xmlns:xlink="http://www.w3.org/1999/xlink" width="460.8pt" height="345.6pt" viewBox="0 0 460.8 345.6" xmlns="http://www.w3.org/2000/svg" version="1.1">
 <metadata>
  <rdf:RDF xmlns:dc="http://purl.org/dc/elements/1.1/" xmlns:cc="http://creativecommons.org/ns#" xmlns:rdf="http://www.w3.org/1999/02/22-rdf-syntax-ns#">
   <cc:Work>
    <dc:type rdf:resource="http://purl.org/dc/dcmitype/StillImage"/>
    <dc:date>2022-05-20T23:47:53.900009</dc:date>
    <dc:format>image/svg+xml</dc:format>
    <dc:creator>
     <cc:Agent>
      <dc:title>Matplotlib v3.5.1, https://matplotlib.org/</dc:title>
     </cc:Agent>
    </dc:creator>
   </cc:Work>
  </rdf:RDF>
 </metadata>
 <defs>
  <style type="text/css">*{stroke-linejoin: round; stroke-linecap: butt}</style>
 </defs>
 <g id="figure_1">
  <g id="patch_1">
   <path d="M 0 345.6 
L 460.8 345.6 
L 460.8 0 
L 0 0 
z
" style="fill: #ffffff"/>
  </g>
  <g id="axes_1">
   <g id="patch_2">
    <path d="M 57.6 307.584 
L 414.72 307.584 
L 414.72 41.472 
L 57.6 41.472 
z
" style="fill: #ffffff"/>
   </g>
   <g id="matplotlib.axis_1">
    <g id="xtick_1">
     <g id="line2d_1">
      <defs>
       <path id="m425bd80409" d="M 0 0 
L 0 3.5 
" style="stroke: #000000; stroke-width: 0.8"/>
      </defs>
      <g>
       <use xlink:href="#m425bd80409" x="66.820034" y="307.584" style="stroke: #000000; stroke-width: 0.8"/>
      </g>
     </g>
     <g id="text_1">
      <!-- 0 -->
      <g transform="translate(63.638784 322.182437)scale(0.1 -0.1)">
       <defs>
        <path id="DejaVuSerif-30" d="M 2034 219 
Q 2513 219 2750 744 
Q 2988 1269 2988 2328 
Q 2988 3391 2750 3916 
Q 2513 4441 2034 4441 
Q 1556 4441 1318 3916 
Q 1081 3391 1081 2328 
Q 1081 1269 1318 744 
Q 1556 219 2034 219 
z
M 2034 -91 
Q 1275 -91 848 546 
Q 422 1184 422 2328 
Q 422 3475 848 4112 
Q 1275 4750 2034 4750 
Q 2797 4750 3222 4112 
Q 3647 3475 3647 2328 
Q 3647 1184 3222 546 
Q 2797 -91 2034 -91 
z
" transform="scale(0.015625)"/>
       </defs>
       <use xlink:href="#DejaVuSerif-30"/>
      </g>
     </g>
    </g>
    <g id="xtick_2">
     <g id="line2d_2">
      <g>
       <use xlink:href="#m425bd80409" x="141.744137" y="307.584" style="stroke: #000000; stroke-width: 0.8"/>
      </g>
     </g>
     <g id="text_2">
      <!-- 2 -->
      <g transform="translate(138.562887 322.182437)scale(0.1 -0.1)">
       <defs>
        <path id="DejaVuSerif-32" d="M 819 3553 
L 469 3553 
L 469 4384 
Q 803 4563 1142 4656 
Q 1481 4750 1806 4750 
Q 2534 4750 2956 4397 
Q 3378 4044 3378 3438 
Q 3378 2753 2422 1800 
Q 2347 1728 2309 1691 
L 1131 513 
L 3078 513 
L 3078 1088 
L 3444 1088 
L 3444 0 
L 434 0 
L 434 341 
L 1850 1753 
Q 2319 2222 2519 2614 
Q 2719 3006 2719 3438 
Q 2719 3909 2473 4175 
Q 2228 4441 1797 4441 
Q 1350 4441 1106 4219 
Q 863 3997 819 3553 
z
" transform="scale(0.015625)"/>
       </defs>
       <use xlink:href="#DejaVuSerif-32"/>
      </g>
     </g>
    </g>
    <g id="xtick_3">
     <g id="line2d_3">
      <g>
       <use xlink:href="#m425bd80409" x="216.668239" y="307.584" style="stroke: #000000; stroke-width: 0.8"/>
      </g>
     </g>
     <g id="text_3">
      <!-- 4 -->
      <g transform="translate(213.486989 322.182437)scale(0.1 -0.1)">
       <defs>
        <path id="DejaVuSerif-34" d="M 2234 1581 
L 2234 4063 
L 641 1581 
L 2234 1581 
z
M 3609 0 
L 1484 0 
L 1484 331 
L 2234 331 
L 2234 1247 
L 197 1247 
L 197 1588 
L 2241 4750 
L 2859 4750 
L 2859 1581 
L 3750 1581 
L 3750 1247 
L 2859 1247 
L 2859 331 
L 3609 331 
L 3609 0 
z
" transform="scale(0.015625)"/>
       </defs>
       <use xlink:href="#DejaVuSerif-34"/>
      </g>
     </g>
    </g>
    <g id="xtick_4">
     <g id="line2d_4">
      <g>
       <use xlink:href="#m425bd80409" x="291.592342" y="307.584" style="stroke: #000000; stroke-width: 0.8"/>
      </g>
     </g>
     <g id="text_4">
      <!-- 6 -->
      <g transform="translate(288.411092 322.182437)scale(0.1 -0.1)">
       <defs>
        <path id="DejaVuSerif-36" d="M 2094 219 
Q 2534 219 2771 542 
Q 3009 866 3009 1472 
Q 3009 2078 2771 2401 
Q 2534 2725 2094 2725 
Q 1647 2725 1412 2412 
Q 1178 2100 1178 1509 
Q 1178 888 1415 553 
Q 1653 219 2094 219 
z
M 1075 2569 
Q 1288 2803 1556 2918 
Q 1825 3034 2163 3034 
Q 2859 3034 3264 2615 
Q 3669 2197 3669 1472 
Q 3669 763 3233 336 
Q 2797 -91 2069 -91 
Q 1278 -91 853 498 
Q 428 1088 428 2181 
Q 428 3406 931 4078 
Q 1434 4750 2350 4750 
Q 2597 4750 2869 4703 
Q 3141 4656 3425 4563 
L 3425 3794 
L 3072 3794 
Q 3034 4109 2831 4275 
Q 2628 4441 2284 4441 
Q 1678 4441 1381 3981 
Q 1084 3522 1075 2569 
z
" transform="scale(0.015625)"/>
       </defs>
       <use xlink:href="#DejaVuSerif-36"/>
      </g>
     </g>
    </g>
    <g id="xtick_5">
     <g id="line2d_5">
      <g>
       <use xlink:href="#m425bd80409" x="366.516444" y="307.584" style="stroke: #000000; stroke-width: 0.8"/>
      </g>
     </g>
     <g id="text_5">
      <!-- 8 -->
      <g transform="translate(363.335194 322.182437)scale(0.1 -0.1)">
       <defs>
        <path id="DejaVuSerif-38" d="M 2981 1275 
Q 2981 1775 2732 2051 
Q 2484 2328 2034 2328 
Q 1584 2328 1336 2051 
Q 1088 1775 1088 1275 
Q 1088 772 1336 495 
Q 1584 219 2034 219 
Q 2484 219 2732 495 
Q 2981 772 2981 1275 
z
M 2853 3541 
Q 2853 3966 2637 4203 
Q 2422 4441 2034 4441 
Q 1650 4441 1433 4203 
Q 1216 3966 1216 3541 
Q 1216 3113 1433 2875 
Q 1650 2638 2034 2638 
Q 2422 2638 2637 2875 
Q 2853 3113 2853 3541 
z
M 2516 2484 
Q 3047 2413 3344 2092 
Q 3641 1772 3641 1275 
Q 3641 619 3225 264 
Q 2809 -91 2034 -91 
Q 1263 -91 845 264 
Q 428 619 428 1275 
Q 428 1772 725 2092 
Q 1022 2413 1556 2484 
Q 1084 2569 832 2842 
Q 581 3116 581 3541 
Q 581 4103 968 4426 
Q 1356 4750 2034 4750 
Q 2713 4750 3100 4426 
Q 3488 4103 3488 3541 
Q 3488 3116 3236 2842 
Q 2984 2569 2516 2484 
z
" transform="scale(0.015625)"/>
       </defs>
       <use xlink:href="#DejaVuSerif-38"/>
      </g>
     </g>
    </g>
    <g id="text_6">
     <!-- Temps (s) -->
     <g transform="translate(211.688906 335.860562)scale(0.1 -0.1)">
      <defs>
       <path id="DejaVuSerif-54" d="M 1222 0 
L 1222 331 
L 1819 331 
L 1819 4294 
L 447 4294 
L 447 3566 
L 63 3566 
L 63 4666 
L 4206 4666 
L 4206 3566 
L 3822 3566 
L 3822 4294 
L 2450 4294 
L 2450 331 
L 3047 331 
L 3047 0 
L 1222 0 
z
" transform="scale(0.015625)"/>
       <path id="DejaVuSerif-65" d="M 3469 1600 
L 991 1600 
L 991 1575 
Q 991 903 1244 561 
Q 1497 219 1991 219 
Q 2369 219 2611 417 
Q 2853 616 2950 1006 
L 3413 1006 
Q 3275 459 2904 184 
Q 2534 -91 1931 -91 
Q 1203 -91 761 389 
Q 319 869 319 1663 
Q 319 2450 753 2931 
Q 1188 3413 1894 3413 
Q 2647 3413 3050 2948 
Q 3453 2484 3469 1600 
z
M 2791 1931 
Q 2772 2513 2545 2808 
Q 2319 3103 1894 3103 
Q 1497 3103 1269 2806 
Q 1041 2509 991 1931 
L 2791 1931 
z
" transform="scale(0.015625)"/>
       <path id="DejaVuSerif-6d" d="M 3316 2675 
Q 3481 3041 3739 3227 
Q 3997 3413 4341 3413 
Q 4863 3413 5119 3089 
Q 5375 2766 5375 2113 
L 5375 331 
L 5894 331 
L 5894 0 
L 4300 0 
L 4300 331 
L 4800 331 
L 4800 2047 
Q 4800 2556 4650 2772 
Q 4500 2988 4153 2988 
Q 3769 2988 3567 2697 
Q 3366 2406 3366 1850 
L 3366 331 
L 3866 331 
L 3866 0 
L 2291 0 
L 2291 331 
L 2791 331 
L 2791 2069 
Q 2791 2566 2641 2777 
Q 2491 2988 2144 2988 
Q 1759 2988 1557 2697 
Q 1356 2406 1356 1850 
L 1356 331 
L 1856 331 
L 1856 0 
L 263 0 
L 263 331 
L 781 331 
L 781 2994 
L 231 2994 
L 231 3322 
L 1356 3322 
L 1356 2731 
Q 1516 3063 1762 3238 
Q 2009 3413 2322 3413 
Q 2709 3413 2968 3220 
Q 3228 3028 3316 2675 
z
" transform="scale(0.015625)"/>
       <path id="DejaVuSerif-70" d="M 1313 1825 
L 1313 1497 
Q 1313 897 1542 583 
Q 1772 269 2209 269 
Q 2650 269 2876 622 
Q 3103 975 3103 1663 
Q 3103 2353 2876 2703 
Q 2650 3053 2209 3053 
Q 1772 3053 1542 2737 
Q 1313 2422 1313 1825 
z
M 738 2988 
L 184 2988 
L 184 3322 
L 1313 3322 
L 1313 2803 
Q 1481 3116 1742 3264 
Q 2003 3413 2388 3413 
Q 3000 3413 3387 2928 
Q 3775 2444 3775 1663 
Q 3775 881 3387 395 
Q 3000 -91 2388 -91 
Q 2003 -91 1742 57 
Q 1481 206 1313 519 
L 1313 -997 
L 1856 -997 
L 1856 -1331 
L 184 -1331 
L 184 -997 
L 738 -997 
L 738 2988 
z
" transform="scale(0.015625)"/>
       <path id="DejaVuSerif-73" d="M 359 184 
L 359 959 
L 691 959 
Q 703 588 923 403 
Q 1144 219 1575 219 
Q 1963 219 2166 364 
Q 2369 509 2369 788 
Q 2369 1006 2220 1140 
Q 2072 1275 1594 1428 
L 1178 1569 
Q 750 1706 558 1912 
Q 366 2119 366 2438 
Q 366 2894 700 3153 
Q 1034 3413 1625 3413 
Q 1888 3413 2178 3344 
Q 2469 3275 2778 3144 
L 2778 2419 
L 2447 2419 
Q 2434 2741 2221 2922 
Q 2009 3103 1644 3103 
Q 1281 3103 1095 2975 
Q 909 2847 909 2591 
Q 909 2381 1050 2254 
Q 1191 2128 1613 1997 
L 2069 1856 
Q 2541 1709 2748 1489 
Q 2956 1269 2956 922 
Q 2956 450 2595 179 
Q 2234 -91 1600 -91 
Q 1278 -91 972 -22 
Q 666 47 359 184 
z
" transform="scale(0.015625)"/>
       <path id="DejaVuSerif-20" transform="scale(0.015625)"/>
       <path id="DejaVuSerif-28" d="M 2041 -997 
Q 1281 -656 893 83 
Q 506 822 506 1931 
Q 506 3044 893 3783 
Q 1281 4522 2041 4863 
L 2041 4556 
Q 1559 4225 1350 3623 
Q 1141 3022 1141 1931 
Q 1141 844 1350 242 
Q 1559 -359 2041 -691 
L 2041 -997 
z
" transform="scale(0.015625)"/>
       <path id="DejaVuSerif-29" d="M 453 -997 
L 453 -691 
Q 934 -359 1145 242 
Q 1356 844 1356 1931 
Q 1356 3022 1145 3623 
Q 934 4225 453 4556 
L 453 4863 
Q 1216 4522 1603 3783 
Q 1991 3044 1991 1931 
Q 1991 822 1603 83 
Q 1216 -656 453 -997 
z
" transform="scale(0.015625)"/>
      </defs>
      <use xlink:href="#DejaVuSerif-54"/>
      <use xlink:href="#DejaVuSerif-65" x="58.949219"/>
      <use xlink:href="#DejaVuSerif-6d" x="118.128906"/>
      <use xlink:href="#DejaVuSerif-70" x="212.953125"/>
      <use xlink:href="#DejaVuSerif-73" x="276.966797"/>
      <use xlink:href="#DejaVuSerif-20" x="328.285156"/>
      <use xlink:href="#DejaVuSerif-28" x="360.072266"/>
      <use xlink:href="#DejaVuSerif-73" x="399.085938"/>
      <use xlink:href="#DejaVuSerif-29" x="450.404297"/>
     </g>
    </g>
   </g>
   <g id="matplotlib.axis_2">
    <g id="ytick_1">
     <g id="line2d_6">
      <defs>
       <path id="m73b795d1be" d="M 0 0 
L -3.5 0 
" style="stroke: #000000; stroke-width: 0.8"/>
      </defs>
      <g>
       <use xlink:href="#m73b795d1be" x="57.6" y="293.976291" style="stroke: #000000; stroke-width: 0.8"/>
      </g>
     </g>
     <g id="text_7">
      <!-- 0.474 -->
      <g transform="translate(21.971875 297.77551)scale(0.1 -0.1)">
       <defs>
        <path id="DejaVuSerif-2e" d="M 603 325 
Q 603 500 722 622 
Q 841 744 1019 744 
Q 1191 744 1312 622 
Q 1434 500 1434 325 
Q 1434 153 1312 31 
Q 1191 -91 1019 -91 
Q 841 -91 722 29 
Q 603 150 603 325 
z
" transform="scale(0.015625)"/>
        <path id="DejaVuSerif-37" d="M 3609 4347 
L 1784 0 
L 1319 0 
L 3059 4153 
L 903 4153 
L 903 3578 
L 538 3578 
L 538 4666 
L 3609 4666 
L 3609 4347 
z
" transform="scale(0.015625)"/>
       </defs>
       <use xlink:href="#DejaVuSerif-30"/>
       <use xlink:href="#DejaVuSerif-2e" x="63.623047"/>
       <use xlink:href="#DejaVuSerif-34" x="95.410156"/>
       <use xlink:href="#DejaVuSerif-37" x="159.033203"/>
       <use xlink:href="#DejaVuSerif-34" x="222.65625"/>
      </g>
     </g>
    </g>
    <g id="ytick_2">
     <g id="line2d_7">
      <g>
       <use xlink:href="#m73b795d1be" x="57.6" y="255.251989" style="stroke: #000000; stroke-width: 0.8"/>
      </g>
     </g>
     <g id="text_8">
      <!-- 0.476 -->
      <g transform="translate(21.971875 259.051208)scale(0.1 -0.1)">
       <use xlink:href="#DejaVuSerif-30"/>
       <use xlink:href="#DejaVuSerif-2e" x="63.623047"/>
       <use xlink:href="#DejaVuSerif-34" x="95.410156"/>
       <use xlink:href="#DejaVuSerif-37" x="159.033203"/>
       <use xlink:href="#DejaVuSerif-36" x="222.65625"/>
      </g>
     </g>
    </g>
    <g id="ytick_3">
     <g id="line2d_8">
      <g>
       <use xlink:href="#m73b795d1be" x="57.6" y="216.527687" style="stroke: #000000; stroke-width: 0.8"/>
      </g>
     </g>
     <g id="text_9">
      <!-- 0.478 -->
      <g transform="translate(21.971875 220.326906)scale(0.1 -0.1)">
       <use xlink:href="#DejaVuSerif-30"/>
       <use xlink:href="#DejaVuSerif-2e" x="63.623047"/>
       <use xlink:href="#DejaVuSerif-34" x="95.410156"/>
       <use xlink:href="#DejaVuSerif-37" x="159.033203"/>
       <use xlink:href="#DejaVuSerif-38" x="222.65625"/>
      </g>
     </g>
    </g>
    <g id="ytick_4">
     <g id="line2d_9">
      <g>
       <use xlink:href="#m73b795d1be" x="57.6" y="177.803385" style="stroke: #000000; stroke-width: 0.8"/>
      </g>
     </g>
     <g id="text_10">
      <!-- 0.480 -->
      <g transform="translate(21.971875 181.602603)scale(0.1 -0.1)">
       <use xlink:href="#DejaVuSerif-30"/>
       <use xlink:href="#DejaVuSerif-2e" x="63.623047"/>
       <use xlink:href="#DejaVuSerif-34" x="95.410156"/>
       <use xlink:href="#DejaVuSerif-38" x="159.033203"/>
       <use xlink:href="#DejaVuSerif-30" x="222.65625"/>
      </g>
     </g>
    </g>
    <g id="ytick_5">
     <g id="line2d_10">
      <g>
       <use xlink:href="#m73b795d1be" x="57.6" y="139.079082" style="stroke: #000000; stroke-width: 0.8"/>
      </g>
     </g>
     <g id="text_11">
      <!-- 0.482 -->
      <g transform="translate(21.971875 142.878301)scale(0.1 -0.1)">
       <use xlink:href="#DejaVuSerif-30"/>
       <use xlink:href="#DejaVuSerif-2e" x="63.623047"/>
       <use xlink:href="#DejaVuSerif-34" x="95.410156"/>
       <use xlink:href="#DejaVuSerif-38" x="159.033203"/>
       <use xlink:href="#DejaVuSerif-32" x="222.65625"/>
      </g>
     </g>
    </g>
    <g id="ytick_6">
     <g id="line2d_11">
      <g>
       <use xlink:href="#m73b795d1be" x="57.6" y="100.35478" style="stroke: #000000; stroke-width: 0.8"/>
      </g>
     </g>
     <g id="text_12">
      <!-- 0.484 -->
      <g transform="translate(21.971875 104.153999)scale(0.1 -0.1)">
       <use xlink:href="#DejaVuSerif-30"/>
       <use xlink:href="#DejaVuSerif-2e" x="63.623047"/>
       <use xlink:href="#DejaVuSerif-34" x="95.410156"/>
       <use xlink:href="#DejaVuSerif-38" x="159.033203"/>
       <use xlink:href="#DejaVuSerif-34" x="222.65625"/>
      </g>
     </g>
    </g>
    <g id="ytick_7">
     <g id="line2d_12">
      <g>
       <use xlink:href="#m73b795d1be" x="57.6" y="61.630478" style="stroke: #000000; stroke-width: 0.8"/>
      </g>
     </g>
     <g id="text_13">
      <!-- 0.486 -->
      <g transform="translate(21.971875 65.429697)scale(0.1 -0.1)">
       <use xlink:href="#DejaVuSerif-30"/>
       <use xlink:href="#DejaVuSerif-2e" x="63.623047"/>
       <use xlink:href="#DejaVuSerif-34" x="95.410156"/>
       <use xlink:href="#DejaVuSerif-38" x="159.033203"/>
       <use xlink:href="#DejaVuSerif-36" x="222.65625"/>
      </g>
     </g>
    </g>
    <g id="text_14">
     <!-- Tension (V) -->
     <g transform="translate(15.892187 203.152219)rotate(-90)scale(0.1 -0.1)">
      <defs>
       <path id="DejaVuSerif-6e" d="M 263 0 
L 263 331 
L 781 331 
L 781 2988 
L 231 2988 
L 231 3322 
L 1356 3322 
L 1356 2731 
Q 1516 3069 1770 3241 
Q 2025 3413 2363 3413 
Q 2913 3413 3172 3097 
Q 3431 2781 3431 2113 
L 3431 331 
L 3944 331 
L 3944 0 
L 2356 0 
L 2356 331 
L 2853 331 
L 2853 1931 
Q 2853 2541 2703 2767 
Q 2553 2994 2175 2994 
Q 1775 2994 1565 2701 
Q 1356 2409 1356 1850 
L 1356 331 
L 1856 331 
L 1856 0 
L 263 0 
z
" transform="scale(0.015625)"/>
       <path id="DejaVuSerif-69" d="M 622 4353 
Q 622 4497 726 4603 
Q 831 4709 978 4709 
Q 1122 4709 1226 4603 
Q 1331 4497 1331 4353 
Q 1331 4206 1228 4103 
Q 1125 4000 978 4000 
Q 831 4000 726 4103 
Q 622 4206 622 4353 
z
M 1356 331 
L 1900 331 
L 1900 0 
L 231 0 
L 231 331 
L 781 331 
L 781 2988 
L 231 2988 
L 231 3322 
L 1356 3322 
L 1356 331 
z
" transform="scale(0.015625)"/>
       <path id="DejaVuSerif-6f" d="M 1925 219 
Q 2388 219 2623 584 
Q 2859 950 2859 1663 
Q 2859 2375 2623 2739 
Q 2388 3103 1925 3103 
Q 1463 3103 1227 2739 
Q 991 2375 991 1663 
Q 991 950 1228 584 
Q 1466 219 1925 219 
z
M 1925 -91 
Q 1200 -91 759 389 
Q 319 869 319 1663 
Q 319 2456 758 2934 
Q 1197 3413 1925 3413 
Q 2653 3413 3092 2934 
Q 3531 2456 3531 1663 
Q 3531 869 3092 389 
Q 2653 -91 1925 -91 
z
" transform="scale(0.015625)"/>
       <path id="DejaVuSerif-56" d="M 1119 4331 
L 2497 750 
L 3872 4331 
L 3347 4331 
L 3347 4666 
L 4716 4666 
L 4716 4331 
L 4263 4331 
L 2597 0 
L 2059 0 
L 403 4331 
L -63 4331 
L -63 4666 
L 1638 4666 
L 1638 4331 
L 1119 4331 
z
" transform="scale(0.015625)"/>
      </defs>
      <use xlink:href="#DejaVuSerif-54"/>
      <use xlink:href="#DejaVuSerif-65" x="58.949219"/>
      <use xlink:href="#DejaVuSerif-6e" x="118.128906"/>
      <use xlink:href="#DejaVuSerif-73" x="182.533203"/>
      <use xlink:href="#DejaVuSerif-69" x="233.851562"/>
      <use xlink:href="#DejaVuSerif-6f" x="265.833984"/>
      <use xlink:href="#DejaVuSerif-6e" x="326.039062"/>
      <use xlink:href="#DejaVuSerif-20" x="390.443359"/>
      <use xlink:href="#DejaVuSerif-28" x="422.230469"/>
      <use xlink:href="#DejaVuSerif-56" x="461.244141"/>
      <use xlink:href="#DejaVuSerif-29" x="533.460938"/>
     </g>
    </g>
   </g>
   <g id="line2d_13">
    <defs>
     <path id="m6b230c6d4b" d="M 0 0.4 
C 0.106081 0.4 0.207832 0.357853 0.282843 0.282843 
C 0.357853 0.207832 0.4 0.106081 0.4 0 
C 0.4 -0.106081 0.357853 -0.207832 0.282843 -0.282843 
C 0.207832 -0.357853 0.106081 -0.4 0 -0.4 
C -0.106081 -0.4 -0.207832 -0.357853 -0.282843 -0.282843 
C -0.357853 -0.207832 -0.4 -0.106081 -0.4 0 
C -0.4 0.106081 -0.357853 0.207832 -0.282843 0.282843 
C -0.207832 0.357853 -0.106081 0.4 0 0.4 
z
" style="stroke: #4169e1"/>
    </defs>
    <g clip-path="url(#p5d86798978)">
     <use xlink:href="#m6b230c6d4b" x="73.832727" y="134.208" style="fill: #4169e1; stroke: #4169e1"/>
     <use xlink:href="#m6b230c6d4b" x="77.186124" y="122.688" style="fill: #4169e1; stroke: #4169e1"/>
     <use xlink:href="#m6b230c6d4b" x="80.057658" y="114.048" style="fill: #4169e1; stroke: #4169e1"/>
     <use xlink:href="#m6b230c6d4b" x="82.567594" y="107.328" style="fill: #4169e1; stroke: #4169e1"/>
     <use xlink:href="#m6b230c6d4b" x="85.077548" y="161.088" style="fill: #4169e1; stroke: #4169e1"/>
     <use xlink:href="#m6b230c6d4b" x="87.550052" y="53.568" style="fill: #4169e1; stroke: #4169e1"/>
     <use xlink:href="#m6b230c6d4b" x="90.059988" y="134.208" style="fill: #4169e1; stroke: #4169e1"/>
     <use xlink:href="#m6b230c6d4b" x="92.569996" y="161.088" style="fill: #4169e1; stroke: #4169e1"/>
     <use xlink:href="#m6b230c6d4b" x="95.042455" y="53.568" style="fill: #4169e1; stroke: #4169e1"/>
     <use xlink:href="#m6b230c6d4b" x="98.788692" y="75.072" style="fill: #4169e1; stroke: #4169e1"/>
     <use xlink:href="#m6b230c6d4b" x="101.298709" y="152.817231" style="fill: #4169e1; stroke: #4169e1"/>
     <use xlink:href="#m6b230c6d4b" x="103.808663" y="161.088" style="fill: #4169e1; stroke: #4169e1"/>
     <use xlink:href="#m6b230c6d4b" x="106.281113" y="134.208" style="fill: #4169e1; stroke: #4169e1"/>
     <use xlink:href="#m6b230c6d4b" x="108.791103" y="187.968" style="fill: #4169e1; stroke: #4169e1"/>
     <use xlink:href="#m6b230c6d4b" x="111.263509" y="161.088" style="fill: #4169e1; stroke: #4169e1"/>
     <use xlink:href="#m6b230c6d4b" x="113.773552" y="53.568" style="fill: #4169e1; stroke: #4169e1"/>
     <use xlink:href="#m6b230c6d4b" x="116.283453" y="107.328" style="fill: #4169e1; stroke: #4169e1"/>
     <use xlink:href="#m6b230c6d4b" x="118.769747" y="187.968" style="fill: #4169e1; stroke: #4169e1"/>
     <use xlink:href="#m6b230c6d4b" x="121.279746" y="170.862545" style="fill: #4169e1; stroke: #4169e1"/>
     <use xlink:href="#m6b230c6d4b" x="123.752169" y="187.968" style="fill: #4169e1; stroke: #4169e1"/>
     <use xlink:href="#m6b230c6d4b" x="126.262195" y="80.448" style="fill: #4169e1; stroke: #4169e1"/>
     <use xlink:href="#m6b230c6d4b" x="128.772158" y="107.328" style="fill: #4169e1; stroke: #4169e1"/>
     <use xlink:href="#m6b230c6d4b" x="131.244608" y="214.848" style="fill: #4169e1; stroke: #4169e1"/>
     <use xlink:href="#m6b230c6d4b" x="135.009057" y="114.048" style="fill: #4169e1; stroke: #4169e1"/>
     <use xlink:href="#m6b230c6d4b" x="137.519011" y="187.968" style="fill: #4169e1; stroke: #4169e1"/>
     <use xlink:href="#m6b230c6d4b" x="139.991461" y="134.208" style="fill: #4169e1; stroke: #4169e1"/>
     <use xlink:href="#m6b230c6d4b" x="142.501451" y="107.328" style="fill: #4169e1; stroke: #4169e1"/>
     <use xlink:href="#m6b230c6d4b" x="146.247617" y="134.208" style="fill: #4169e1; stroke: #4169e1"/>
     <use xlink:href="#m6b230c6d4b" x="148.757589" y="214.848" style="fill: #4169e1; stroke: #4169e1"/>
     <use xlink:href="#m6b230c6d4b" x="151.230093" y="107.328" style="fill: #4169e1; stroke: #4169e1"/>
     <use xlink:href="#m6b230c6d4b" x="153.740163" y="214.848" style="fill: #4169e1; stroke: #4169e1"/>
     <use xlink:href="#m6b230c6d4b" x="157.486311" y="134.208" style="fill: #4169e1; stroke: #4169e1"/>
     <use xlink:href="#m6b230c6d4b" x="159.996301" y="214.848" style="fill: #4169e1; stroke: #4169e1"/>
     <use xlink:href="#m6b230c6d4b" x="162.46876" y="134.208" style="fill: #4169e1; stroke: #4169e1"/>
     <use xlink:href="#m6b230c6d4b" x="164.978669" y="134.208" style="fill: #4169e1; stroke: #4169e1"/>
     <use xlink:href="#m6b230c6d4b" x="167.488731" y="214.848" style="fill: #4169e1; stroke: #4169e1"/>
     <use xlink:href="#m6b230c6d4b" x="171.234834" y="235.008" style="fill: #4169e1; stroke: #4169e1"/>
     <use xlink:href="#m6b230c6d4b" x="173.70732" y="112.215273" style="fill: #4169e1; stroke: #4169e1"/>
     <use xlink:href="#m6b230c6d4b" x="176.217337" y="214.848" style="fill: #4169e1; stroke: #4169e1"/>
     <use xlink:href="#m6b230c6d4b" x="178.727273" y="134.208" style="fill: #4169e1; stroke: #4169e1"/>
     <use xlink:href="#m6b230c6d4b" x="182.473501" y="134.208" style="fill: #4169e1; stroke: #4169e1"/>
     <use xlink:href="#m6b230c6d4b" x="184.956785" y="161.088" style="fill: #4169e1; stroke: #4169e1"/>
     <use xlink:href="#m6b230c6d4b" x="187.466811" y="187.968" style="fill: #4169e1; stroke: #4169e1"/>
     <use xlink:href="#m6b230c6d4b" x="191.212932" y="194.688" style="fill: #4169e1; stroke: #4169e1"/>
     <use xlink:href="#m6b230c6d4b" x="193.685445" y="187.968" style="fill: #4169e1; stroke: #4169e1"/>
     <use xlink:href="#m6b230c6d4b" x="196.195417" y="161.088" style="fill: #4169e1; stroke: #4169e1"/>
     <use xlink:href="#m6b230c6d4b" x="198.705442" y="161.088" style="fill: #4169e1; stroke: #4169e1"/>
     <use xlink:href="#m6b230c6d4b" x="201.177875" y="134.208" style="fill: #4169e1; stroke: #4169e1"/>
     <use xlink:href="#m6b230c6d4b" x="203.687775" y="134.208" style="fill: #4169e1; stroke: #4169e1"/>
     <use xlink:href="#m6b230c6d4b" x="206.197712" y="161.088" style="fill: #4169e1; stroke: #4169e1"/>
     <use xlink:href="#m6b230c6d4b" x="208.670251" y="187.968" style="fill: #4169e1; stroke: #4169e1"/>
     <use xlink:href="#m6b230c6d4b" x="211.180232" y="187.968" style="fill: #4169e1; stroke: #4169e1"/>
     <use xlink:href="#m6b230c6d4b" x="213.690204" y="214.848" style="fill: #4169e1; stroke: #4169e1"/>
     <use xlink:href="#m6b230c6d4b" x="216.162654" y="161.088" style="fill: #4169e1; stroke: #4169e1"/>
     <use xlink:href="#m6b230c6d4b" x="218.672715" y="112.215273" style="fill: #4169e1; stroke: #4169e1"/>
     <use xlink:href="#m6b230c6d4b" x="221.182634" y="134.208" style="fill: #4169e1; stroke: #4169e1"/>
     <use xlink:href="#m6b230c6d4b" x="223.655102" y="134.208" style="fill: #4169e1; stroke: #4169e1"/>
     <use xlink:href="#m6b230c6d4b" x="226.165038" y="107.328" style="fill: #4169e1; stroke: #4169e1"/>
     <use xlink:href="#m6b230c6d4b" x="228.674974" y="187.968" style="fill: #4169e1; stroke: #4169e1"/>
     <use xlink:href="#m6b230c6d4b" x="231.147442" y="214.848" style="fill: #4169e1; stroke: #4169e1"/>
     <use xlink:href="#m6b230c6d4b" x="233.657441" y="161.088" style="fill: #4169e1; stroke: #4169e1"/>
     <use xlink:href="#m6b230c6d4b" x="236.152569" y="134.208" style="fill: #4169e1; stroke: #4169e1"/>
     <use xlink:href="#m6b230c6d4b" x="238.662568" y="241.728" style="fill: #4169e1; stroke: #4169e1"/>
     <use xlink:href="#m6b230c6d4b" x="241.135027" y="161.088" style="fill: #4169e1; stroke: #4169e1"/>
     <use xlink:href="#m6b230c6d4b" x="243.644981" y="214.848" style="fill: #4169e1; stroke: #4169e1"/>
     <use xlink:href="#m6b230c6d4b" x="246.147156" y="258.833455" style="fill: #4169e1; stroke: #4169e1"/>
     <use xlink:href="#m6b230c6d4b" x="248.657119" y="141.538909" style="fill: #4169e1; stroke: #4169e1"/>
     <use xlink:href="#m6b230c6d4b" x="251.12956" y="214.848" style="fill: #4169e1; stroke: #4169e1"/>
     <use xlink:href="#m6b230c6d4b" x="253.639612" y="214.848" style="fill: #4169e1; stroke: #4169e1"/>
     <use xlink:href="#m6b230c6d4b" x="256.149468" y="134.208" style="fill: #4169e1; stroke: #4169e1"/>
     <use xlink:href="#m6b230c6d4b" x="258.621963" y="214.848" style="fill: #4169e1; stroke: #4169e1"/>
     <use xlink:href="#m6b230c6d4b" x="261.131899" y="161.088" style="fill: #4169e1; stroke: #4169e1"/>
     <use xlink:href="#m6b230c6d4b" x="263.641952" y="187.968" style="fill: #4169e1; stroke: #4169e1"/>
     <use xlink:href="#m6b230c6d4b" x="266.114357" y="241.728" style="fill: #4169e1; stroke: #4169e1"/>
     <use xlink:href="#m6b230c6d4b" x="269.860559" y="214.848" style="fill: #4169e1; stroke: #4169e1"/>
     <use xlink:href="#m6b230c6d4b" x="272.370558" y="187.968" style="fill: #4169e1; stroke: #4169e1"/>
     <use xlink:href="#m6b230c6d4b" x="274.880494" y="214.848" style="fill: #4169e1; stroke: #4169e1"/>
     <use xlink:href="#m6b230c6d4b" x="277.352971" y="295.488" style="fill: #4169e1; stroke: #4169e1"/>
     <use xlink:href="#m6b230c6d4b" x="281.099199" y="154.368" style="fill: #4169e1; stroke: #4169e1"/>
     <use xlink:href="#m6b230c6d4b" x="283.609171" y="200.186182" style="fill: #4169e1; stroke: #4169e1"/>
     <use xlink:href="#m6b230c6d4b" x="286.119179" y="214.848" style="fill: #4169e1; stroke: #4169e1"/>
     <use xlink:href="#m6b230c6d4b" x="288.591057" y="241.728" style="fill: #4169e1; stroke: #4169e1"/>
     <use xlink:href="#m6b230c6d4b" x="291.101029" y="187.968" style="fill: #4169e1; stroke: #4169e1"/>
     <use xlink:href="#m6b230c6d4b" x="294.847276" y="247.104" style="fill: #4169e1; stroke: #4169e1"/>
     <use xlink:href="#m6b230c6d4b" x="297.357194" y="134.208" style="fill: #4169e1; stroke: #4169e1"/>
     <use xlink:href="#m6b230c6d4b" x="299.829725" y="187.968" style="fill: #4169e1; stroke: #4169e1"/>
     <use xlink:href="#m6b230c6d4b" x="302.339679" y="161.088" style="fill: #4169e1; stroke: #4169e1"/>
     <use xlink:href="#m6b230c6d4b" x="304.849588" y="161.088" style="fill: #4169e1; stroke: #4169e1"/>
     <use xlink:href="#m6b230c6d4b" x="307.333587" y="241.728" style="fill: #4169e1; stroke: #4169e1"/>
     <use xlink:href="#m6b230c6d4b" x="309.843514" y="134.208" style="fill: #4169e1; stroke: #4169e1"/>
     <use xlink:href="#m6b230c6d4b" x="312.316036" y="214.848" style="fill: #4169e1; stroke: #4169e1"/>
     <use xlink:href="#m6b230c6d4b" x="314.825963" y="214.848" style="fill: #4169e1; stroke: #4169e1"/>
     <use xlink:href="#m6b230c6d4b" x="317.335953" y="187.968" style="fill: #4169e1; stroke: #4169e1"/>
     <use xlink:href="#m6b230c6d4b" x="319.808439" y="241.728" style="fill: #4169e1; stroke: #4169e1"/>
     <use xlink:href="#m6b230c6d4b" x="322.318375" y="241.728" style="fill: #4169e1; stroke: #4169e1"/>
     <use xlink:href="#m6b230c6d4b" x="324.828312" y="241.728" style="fill: #4169e1; stroke: #4169e1"/>
     <use xlink:href="#m6b230c6d4b" x="328.574576" y="154.368" style="fill: #4169e1; stroke: #4169e1"/>
     <use xlink:href="#m6b230c6d4b" x="331.047044" y="214.848" style="fill: #4169e1; stroke: #4169e1"/>
     <use xlink:href="#m6b230c6d4b" x="333.559686" y="268.608" style="fill: #4169e1; stroke: #4169e1"/>
     <use xlink:href="#m6b230c6d4b" x="336.069649" y="161.088" style="fill: #4169e1; stroke: #4169e1"/>
     <use xlink:href="#m6b230c6d4b" x="338.542126" y="107.328" style="fill: #4169e1; stroke: #4169e1"/>
     <use xlink:href="#m6b230c6d4b" x="341.052134" y="214.848" style="fill: #4169e1; stroke: #4169e1"/>
     <use xlink:href="#m6b230c6d4b" x="344.798237" y="194.688" style="fill: #4169e1; stroke: #4169e1"/>
     <use xlink:href="#m6b230c6d4b" x="347.270759" y="187.968" style="fill: #4169e1; stroke: #4169e1"/>
     <use xlink:href="#m6b230c6d4b" x="349.780776" y="187.968" style="fill: #4169e1; stroke: #4169e1"/>
     <use xlink:href="#m6b230c6d4b" x="352.290685" y="214.848" style="fill: #4169e1; stroke: #4169e1"/>
     <use xlink:href="#m6b230c6d4b" x="354.800728" y="214.848" style="fill: #4169e1; stroke: #4169e1"/>
     <use xlink:href="#m6b230c6d4b" x="357.273134" y="241.728" style="fill: #4169e1; stroke: #4169e1"/>
     <use xlink:href="#m6b230c6d4b" x="359.783124" y="268.608" style="fill: #4169e1; stroke: #4169e1"/>
     <use xlink:href="#m6b230c6d4b" x="362.29306" y="214.848" style="fill: #4169e1; stroke: #4169e1"/>
     <use xlink:href="#m6b230c6d4b" x="364.765546" y="214.848" style="fill: #4169e1; stroke: #4169e1"/>
     <use xlink:href="#m6b230c6d4b" x="367.275491" y="268.608" style="fill: #4169e1; stroke: #4169e1"/>
     <use xlink:href="#m6b230c6d4b" x="369.752639" y="229.509818" style="fill: #4169e1; stroke: #4169e1"/>
     <use xlink:href="#m6b230c6d4b" x="372.26254" y="134.208" style="fill: #4169e1; stroke: #4169e1"/>
     <use xlink:href="#m6b230c6d4b" x="374.772628" y="241.728" style="fill: #4169e1; stroke: #4169e1"/>
     <use xlink:href="#m6b230c6d4b" x="377.244989" y="268.608" style="fill: #4169e1; stroke: #4169e1"/>
     <use xlink:href="#m6b230c6d4b" x="379.754934" y="241.728" style="fill: #4169e1; stroke: #4169e1"/>
     <use xlink:href="#m6b230c6d4b" x="382.264879" y="229.509818" style="fill: #4169e1; stroke: #4169e1"/>
     <use xlink:href="#m6b230c6d4b" x="386.012322" y="255.168" style="fill: #4169e1; stroke: #4169e1"/>
     <use xlink:href="#m6b230c6d4b" x="388.484889" y="241.728" style="fill: #4169e1; stroke: #4169e1"/>
     <use xlink:href="#m6b230c6d4b" x="390.994816" y="187.968" style="fill: #4169e1; stroke: #4169e1"/>
     <use xlink:href="#m6b230c6d4b" x="393.504743" y="187.968" style="fill: #4169e1; stroke: #4169e1"/>
     <use xlink:href="#m6b230c6d4b" x="395.977283" y="214.848" style="fill: #4169e1; stroke: #4169e1"/>
     <use xlink:href="#m6b230c6d4b" x="398.487273" y="214.848" style="fill: #4169e1; stroke: #4169e1"/>
    </g>
   </g>
   <g id="patch_3">
    <path d="M 57.6 307.584 
L 57.6 41.472 
" style="fill: none; stroke: #000000; stroke-width: 0.8; stroke-linejoin: miter; stroke-linecap: square"/>
   </g>
   <g id="patch_4">
    <path d="M 414.72 307.584 
L 414.72 41.472 
" style="fill: none; stroke: #000000; stroke-width: 0.8; stroke-linejoin: miter; stroke-linecap: square"/>
   </g>
   <g id="patch_5">
    <path d="M 57.6 307.584 
L 414.72 307.584 
" style="fill: none; stroke: #000000; stroke-width: 0.8; stroke-linejoin: miter; stroke-linecap: square"/>
   </g>
   <g id="patch_6">
    <path d="M 57.6 41.472 
L 414.72 41.472 
" style="fill: none; stroke: #000000; stroke-width: 0.8; stroke-linejoin: miter; stroke-linecap: square"/>
   </g>
  </g>
 </g>
 <defs>
  <clipPath id="p5d86798978">
   <rect x="57.6" y="41.472" width="357.12" height="266.112"/>
  </clipPath>
 </defs>
</svg>
