<?xml version="1.0" encoding="utf-8" standalone="no"?>
<!DOCTYPE svg PUBLIC "-//W3C//DTD SVG 1.1//EN"
  "http://www.w3.org/Graphics/SVG/1.1/DTD/svg11.dtd">
<svg xmlns:xlink="http://www.w3.org/1999/xlink" width="1368pt" height="720pt" viewBox="0 0 1368 720" xmlns="http://www.w3.org/2000/svg" version="1.1">
 <metadata>
  <rdf:RDF xmlns:dc="http://purl.org/dc/elements/1.1/" xmlns:cc="http://creativecommons.org/ns#" xmlns:rdf="http://www.w3.org/1999/02/22-rdf-syntax-ns#">
   <cc:Work>
    <dc:type rdf:resource="http://purl.org/dc/dcmitype/StillImage"/>
    <dc:date>2022-01-24T17:26:55.356395</dc:date>
    <dc:format>image/svg+xml</dc:format>
    <dc:creator>
     <cc:Agent>
      <dc:title>Matplotlib v3.5.1, https://matplotlib.org/</dc:title>
     </cc:Agent>
    </dc:creator>
   </cc:Work>
  </rdf:RDF>
 </metadata>
 <defs>
  <style type="text/css">*{stroke-linejoin: round; stroke-linecap: butt}</style>
 </defs>
 <g id="figure_1">
  <g id="patch_1">
   <path d="M 0 720 
L 1368 720 
L 1368 0 
L 0 0 
z
" style="fill: #ffffff"/>
  </g>
  <g id="axes_1">
   <g id="patch_2">
    <path d="M 171 640.8 
L 1231.2 640.8 
L 1231.2 86.4 
L 171 86.4 
z
" style="fill: #ffffff"/>
   </g>
   <g id="matplotlib.axis_1">
    <g id="xtick_1">
     <g id="line2d_1">
      <defs>
       <path id="m103dd8f0fa" d="M 0 0 
L 0 3.5 
" style="stroke: #000000; stroke-width: 0.8"/>
      </defs>
      <g>
       <use xlink:href="#m103dd8f0fa" x="206.166339" y="640.8" style="stroke: #000000; stroke-width: 0.8"/>
      </g>
     </g>
     <g id="text_1">
      <!-- 0 -->
      <g transform="translate(202.985089 655.398438)scale(0.1 -0.1)">
       <defs>
        <path id="DejaVuSans-30" d="M 2034 4250 
Q 1547 4250 1301 3770 
Q 1056 3291 1056 2328 
Q 1056 1369 1301 889 
Q 1547 409 2034 409 
Q 2525 409 2770 889 
Q 3016 1369 3016 2328 
Q 3016 3291 2770 3770 
Q 2525 4250 2034 4250 
z
M 2034 4750 
Q 2819 4750 3233 4129 
Q 3647 3509 3647 2328 
Q 3647 1150 3233 529 
Q 2819 -91 2034 -91 
Q 1250 -91 836 529 
Q 422 1150 422 2328 
Q 422 3509 836 4129 
Q 1250 4750 2034 4750 
z
" transform="scale(0.015625)"/>
       </defs>
       <use xlink:href="#DejaVuSans-30"/>
      </g>
     </g>
    </g>
    <g id="xtick_2">
     <g id="line2d_2">
      <g>
       <use xlink:href="#m103dd8f0fa" x="336.412039" y="640.8" style="stroke: #000000; stroke-width: 0.8"/>
      </g>
     </g>
     <g id="text_2">
      <!-- 100000 -->
      <g transform="translate(317.324539 655.398438)scale(0.1 -0.1)">
       <defs>
        <path id="DejaVuSans-31" d="M 794 531 
L 1825 531 
L 1825 4091 
L 703 3866 
L 703 4441 
L 1819 4666 
L 2450 4666 
L 2450 531 
L 3481 531 
L 3481 0 
L 794 0 
L 794 531 
z
" transform="scale(0.015625)"/>
       </defs>
       <use xlink:href="#DejaVuSans-31"/>
       <use xlink:href="#DejaVuSans-30" x="63.623047"/>
       <use xlink:href="#DejaVuSans-30" x="127.246094"/>
       <use xlink:href="#DejaVuSans-30" x="190.869141"/>
       <use xlink:href="#DejaVuSans-30" x="254.492188"/>
       <use xlink:href="#DejaVuSans-30" x="318.115234"/>
      </g>
     </g>
    </g>
    <g id="xtick_3">
     <g id="line2d_3">
      <g>
       <use xlink:href="#m103dd8f0fa" x="466.65774" y="640.8" style="stroke: #000000; stroke-width: 0.8"/>
      </g>
     </g>
     <g id="text_3">
      <!-- 200000 -->
      <g transform="translate(447.57024 655.398438)scale(0.1 -0.1)">
       <defs>
        <path id="DejaVuSans-32" d="M 1228 531 
L 3431 531 
L 3431 0 
L 469 0 
L 469 531 
Q 828 903 1448 1529 
Q 2069 2156 2228 2338 
Q 2531 2678 2651 2914 
Q 2772 3150 2772 3378 
Q 2772 3750 2511 3984 
Q 2250 4219 1831 4219 
Q 1534 4219 1204 4116 
Q 875 4013 500 3803 
L 500 4441 
Q 881 4594 1212 4672 
Q 1544 4750 1819 4750 
Q 2544 4750 2975 4387 
Q 3406 4025 3406 3419 
Q 3406 3131 3298 2873 
Q 3191 2616 2906 2266 
Q 2828 2175 2409 1742 
Q 1991 1309 1228 531 
z
" transform="scale(0.015625)"/>
       </defs>
       <use xlink:href="#DejaVuSans-32"/>
       <use xlink:href="#DejaVuSans-30" x="63.623047"/>
       <use xlink:href="#DejaVuSans-30" x="127.246094"/>
       <use xlink:href="#DejaVuSans-30" x="190.869141"/>
       <use xlink:href="#DejaVuSans-30" x="254.492188"/>
       <use xlink:href="#DejaVuSans-30" x="318.115234"/>
      </g>
     </g>
    </g>
    <g id="xtick_4">
     <g id="line2d_4">
      <g>
       <use xlink:href="#m103dd8f0fa" x="596.90344" y="640.8" style="stroke: #000000; stroke-width: 0.8"/>
      </g>
     </g>
     <g id="text_4">
      <!-- 300000 -->
      <g transform="translate(577.81594 655.398438)scale(0.1 -0.1)">
       <defs>
        <path id="DejaVuSans-33" d="M 2597 2516 
Q 3050 2419 3304 2112 
Q 3559 1806 3559 1356 
Q 3559 666 3084 287 
Q 2609 -91 1734 -91 
Q 1441 -91 1130 -33 
Q 819 25 488 141 
L 488 750 
Q 750 597 1062 519 
Q 1375 441 1716 441 
Q 2309 441 2620 675 
Q 2931 909 2931 1356 
Q 2931 1769 2642 2001 
Q 2353 2234 1838 2234 
L 1294 2234 
L 1294 2753 
L 1863 2753 
Q 2328 2753 2575 2939 
Q 2822 3125 2822 3475 
Q 2822 3834 2567 4026 
Q 2313 4219 1838 4219 
Q 1578 4219 1281 4162 
Q 984 4106 628 3988 
L 628 4550 
Q 988 4650 1302 4700 
Q 1616 4750 1894 4750 
Q 2613 4750 3031 4423 
Q 3450 4097 3450 3541 
Q 3450 3153 3228 2886 
Q 3006 2619 2597 2516 
z
" transform="scale(0.015625)"/>
       </defs>
       <use xlink:href="#DejaVuSans-33"/>
       <use xlink:href="#DejaVuSans-30" x="63.623047"/>
       <use xlink:href="#DejaVuSans-30" x="127.246094"/>
       <use xlink:href="#DejaVuSans-30" x="190.869141"/>
       <use xlink:href="#DejaVuSans-30" x="254.492188"/>
       <use xlink:href="#DejaVuSans-30" x="318.115234"/>
      </g>
     </g>
    </g>
    <g id="xtick_5">
     <g id="line2d_5">
      <g>
       <use xlink:href="#m103dd8f0fa" x="727.14914" y="640.8" style="stroke: #000000; stroke-width: 0.8"/>
      </g>
     </g>
     <g id="text_5">
      <!-- 400000 -->
      <g transform="translate(708.06164 655.398438)scale(0.1 -0.1)">
       <defs>
        <path id="DejaVuSans-34" d="M 2419 4116 
L 825 1625 
L 2419 1625 
L 2419 4116 
z
M 2253 4666 
L 3047 4666 
L 3047 1625 
L 3713 1625 
L 3713 1100 
L 3047 1100 
L 3047 0 
L 2419 0 
L 2419 1100 
L 313 1100 
L 313 1709 
L 2253 4666 
z
" transform="scale(0.015625)"/>
       </defs>
       <use xlink:href="#DejaVuSans-34"/>
       <use xlink:href="#DejaVuSans-30" x="63.623047"/>
       <use xlink:href="#DejaVuSans-30" x="127.246094"/>
       <use xlink:href="#DejaVuSans-30" x="190.869141"/>
       <use xlink:href="#DejaVuSans-30" x="254.492188"/>
       <use xlink:href="#DejaVuSans-30" x="318.115234"/>
      </g>
     </g>
    </g>
    <g id="xtick_6">
     <g id="line2d_6">
      <g>
       <use xlink:href="#m103dd8f0fa" x="857.39484" y="640.8" style="stroke: #000000; stroke-width: 0.8"/>
      </g>
     </g>
     <g id="text_6">
      <!-- 500000 -->
      <g transform="translate(838.30734 655.398438)scale(0.1 -0.1)">
       <defs>
        <path id="DejaVuSans-35" d="M 691 4666 
L 3169 4666 
L 3169 4134 
L 1269 4134 
L 1269 2991 
Q 1406 3038 1543 3061 
Q 1681 3084 1819 3084 
Q 2600 3084 3056 2656 
Q 3513 2228 3513 1497 
Q 3513 744 3044 326 
Q 2575 -91 1722 -91 
Q 1428 -91 1123 -41 
Q 819 9 494 109 
L 494 744 
Q 775 591 1075 516 
Q 1375 441 1709 441 
Q 2250 441 2565 725 
Q 2881 1009 2881 1497 
Q 2881 1984 2565 2268 
Q 2250 2553 1709 2553 
Q 1456 2553 1204 2497 
Q 953 2441 691 2322 
L 691 4666 
z
" transform="scale(0.015625)"/>
       </defs>
       <use xlink:href="#DejaVuSans-35"/>
       <use xlink:href="#DejaVuSans-30" x="63.623047"/>
       <use xlink:href="#DejaVuSans-30" x="127.246094"/>
       <use xlink:href="#DejaVuSans-30" x="190.869141"/>
       <use xlink:href="#DejaVuSans-30" x="254.492188"/>
       <use xlink:href="#DejaVuSans-30" x="318.115234"/>
      </g>
     </g>
    </g>
    <g id="xtick_7">
     <g id="line2d_7">
      <g>
       <use xlink:href="#m103dd8f0fa" x="987.640541" y="640.8" style="stroke: #000000; stroke-width: 0.8"/>
      </g>
     </g>
     <g id="text_7">
      <!-- 600000 -->
      <g transform="translate(968.553041 655.398438)scale(0.1 -0.1)">
       <defs>
        <path id="DejaVuSans-36" d="M 2113 2584 
Q 1688 2584 1439 2293 
Q 1191 2003 1191 1497 
Q 1191 994 1439 701 
Q 1688 409 2113 409 
Q 2538 409 2786 701 
Q 3034 994 3034 1497 
Q 3034 2003 2786 2293 
Q 2538 2584 2113 2584 
z
M 3366 4563 
L 3366 3988 
Q 3128 4100 2886 4159 
Q 2644 4219 2406 4219 
Q 1781 4219 1451 3797 
Q 1122 3375 1075 2522 
Q 1259 2794 1537 2939 
Q 1816 3084 2150 3084 
Q 2853 3084 3261 2657 
Q 3669 2231 3669 1497 
Q 3669 778 3244 343 
Q 2819 -91 2113 -91 
Q 1303 -91 875 529 
Q 447 1150 447 2328 
Q 447 3434 972 4092 
Q 1497 4750 2381 4750 
Q 2619 4750 2861 4703 
Q 3103 4656 3366 4563 
z
" transform="scale(0.015625)"/>
       </defs>
       <use xlink:href="#DejaVuSans-36"/>
       <use xlink:href="#DejaVuSans-30" x="63.623047"/>
       <use xlink:href="#DejaVuSans-30" x="127.246094"/>
       <use xlink:href="#DejaVuSans-30" x="190.869141"/>
       <use xlink:href="#DejaVuSans-30" x="254.492188"/>
       <use xlink:href="#DejaVuSans-30" x="318.115234"/>
      </g>
     </g>
    </g>
    <g id="xtick_8">
     <g id="line2d_8">
      <g>
       <use xlink:href="#m103dd8f0fa" x="1117.886241" y="640.8" style="stroke: #000000; stroke-width: 0.8"/>
      </g>
     </g>
     <g id="text_8">
      <!-- 700000 -->
      <g transform="translate(1098.798741 655.398438)scale(0.1 -0.1)">
       <defs>
        <path id="DejaVuSans-37" d="M 525 4666 
L 3525 4666 
L 3525 4397 
L 1831 0 
L 1172 0 
L 2766 4134 
L 525 4134 
L 525 4666 
z
" transform="scale(0.015625)"/>
       </defs>
       <use xlink:href="#DejaVuSans-37"/>
       <use xlink:href="#DejaVuSans-30" x="63.623047"/>
       <use xlink:href="#DejaVuSans-30" x="127.246094"/>
       <use xlink:href="#DejaVuSans-30" x="190.869141"/>
       <use xlink:href="#DejaVuSans-30" x="254.492188"/>
       <use xlink:href="#DejaVuSans-30" x="318.115234"/>
      </g>
     </g>
    </g>
    <g id="text_9">
     <!-- f -->
     <g transform="translate(699.339844 669.076563)scale(0.1 -0.1)">
      <defs>
       <path id="DejaVuSans-66" d="M 2375 4863 
L 2375 4384 
L 1825 4384 
Q 1516 4384 1395 4259 
Q 1275 4134 1275 3809 
L 1275 3500 
L 2222 3500 
L 2222 3053 
L 1275 3053 
L 1275 0 
L 697 0 
L 697 3053 
L 147 3053 
L 147 3500 
L 697 3500 
L 697 3744 
Q 697 4328 969 4595 
Q 1241 4863 1831 4863 
L 2375 4863 
z
" transform="scale(0.015625)"/>
      </defs>
      <use xlink:href="#DejaVuSans-66"/>
     </g>
    </g>
   </g>
   <g id="matplotlib.axis_2">
    <g id="ytick_1">
     <g id="line2d_9">
      <defs>
       <path id="m6d06c103fb" d="M 0 0 
L -3.5 0 
" style="stroke: #000000; stroke-width: 0.8"/>
      </defs>
      <g>
       <use xlink:href="#m6d06c103fb" x="171" y="610.75909" style="stroke: #000000; stroke-width: 0.8"/>
      </g>
     </g>
     <g id="text_10">
      <!-- 0 -->
      <g transform="translate(157.6375 614.558309)scale(0.1 -0.1)">
       <use xlink:href="#DejaVuSans-30"/>
      </g>
     </g>
    </g>
    <g id="ytick_2">
     <g id="line2d_10">
      <g>
       <use xlink:href="#m6d06c103fb" x="171" y="487.719689" style="stroke: #000000; stroke-width: 0.8"/>
      </g>
     </g>
     <g id="text_11">
      <!-- 10 -->
      <g transform="translate(151.275 491.518908)scale(0.1 -0.1)">
       <use xlink:href="#DejaVuSans-31"/>
       <use xlink:href="#DejaVuSans-30" x="63.623047"/>
      </g>
     </g>
    </g>
    <g id="ytick_3">
     <g id="line2d_11">
      <g>
       <use xlink:href="#m6d06c103fb" x="171" y="364.680288" style="stroke: #000000; stroke-width: 0.8"/>
      </g>
     </g>
     <g id="text_12">
      <!-- 20 -->
      <g transform="translate(151.275 368.479506)scale(0.1 -0.1)">
       <use xlink:href="#DejaVuSans-32"/>
       <use xlink:href="#DejaVuSans-30" x="63.623047"/>
      </g>
     </g>
    </g>
    <g id="ytick_4">
     <g id="line2d_12">
      <g>
       <use xlink:href="#m6d06c103fb" x="171" y="241.640886" style="stroke: #000000; stroke-width: 0.8"/>
      </g>
     </g>
     <g id="text_13">
      <!-- 30 -->
      <g transform="translate(151.275 245.440105)scale(0.1 -0.1)">
       <use xlink:href="#DejaVuSans-33"/>
       <use xlink:href="#DejaVuSans-30" x="63.623047"/>
      </g>
     </g>
    </g>
    <g id="ytick_5">
     <g id="line2d_13">
      <g>
       <use xlink:href="#m6d06c103fb" x="171" y="118.601485" style="stroke: #000000; stroke-width: 0.8"/>
      </g>
     </g>
     <g id="text_14">
      <!-- 40 -->
      <g transform="translate(151.275 122.400704)scale(0.1 -0.1)">
       <use xlink:href="#DejaVuSans-34"/>
       <use xlink:href="#DejaVuSans-30" x="63.623047"/>
      </g>
     </g>
    </g>
    <g id="text_15">
     <!-- Z -->
     <g transform="translate(145.195312 367.025)rotate(-90)scale(0.1 -0.1)">
      <defs>
       <path id="DejaVuSans-5a" d="M 359 4666 
L 4025 4666 
L 4025 4184 
L 1075 531 
L 4097 531 
L 4097 0 
L 288 0 
L 288 481 
L 3238 4134 
L 359 4134 
L 359 4666 
z
" transform="scale(0.015625)"/>
      </defs>
      <use xlink:href="#DejaVuSans-5a"/>
     </g>
    </g>
   </g>
   <g id="line2d_14">
    <path d="M 219.190909 586.495088 
L 222.414381 582.649022 
L 225.637853 586.011442 
L 228.861326 588.291265 
L 232.084798 588.974222 
L 235.30827 592.906734 
L 238.531742 587.258738 
L 241.755214 585.734741 
L 244.978687 594.436462 
L 248.202159 586.12409 
L 251.425631 573.513513 
L 254.649103 587.278393 
L 257.872575 586.58193 
L 261.096047 577.658377 
L 264.31952 579.833653 
L 267.542992 582.657793 
L 270.766464 586.053885 
L 273.989936 586.066663 
L 277.213408 584.343816 
L 280.436881 586.398067 
L 283.660353 591.767376 
L 286.883825 602.840592 
L 293.330769 598.505825 
L 296.554241 589.817858 
L 299.777714 588.361158 
L 303.001186 590.400894 
L 306.224658 581.020251 
L 309.44813 585.263227 
L 312.671602 589.183216 
L 315.895074 558.662486 
L 319.118547 228.290397 
L 322.342019 178.795631 
L 325.565491 152.049009 
L 328.788963 144.263391 
L 332.012435 128.90093 
L 335.235908 132.984745 
L 338.45938 127.149969 
L 341.682852 145.660572 
L 344.906324 156.642978 
L 348.129796 195.030237 
L 351.353268 230.387967 
L 354.576741 279.641595 
L 357.800213 317.330431 
L 361.023685 343.202363 
L 364.247157 383.669345 
L 367.470629 401.829154 
L 370.694102 421.72102 
L 373.917574 442.360533 
L 377.141046 453.435972 
L 380.364518 460.673017 
L 383.58799 422.306532 
L 386.811462 320.790967 
L 390.034935 233.929936 
L 393.258407 210.226555 
L 396.481879 215.409347 
L 402.928823 317.466147 
L 406.152296 355.140763 
L 409.375768 383.027013 
L 412.59924 421.191484 
L 415.822712 442.870661 
L 419.046184 472.292716 
L 422.269656 477.625599 
L 425.493129 480.068273 
L 428.716601 482.088609 
L 431.940073 490.857719 
L 435.163545 488.149324 
L 438.387017 494.707114 
L 441.61049 500.610378 
L 444.833962 515.307016 
L 448.057434 517.711038 
L 451.280906 503.549331 
L 454.504378 531.065886 
L 457.72785 526.060133 
L 460.951323 532.2319 
L 464.174795 533.578066 
L 467.398267 510.696814 
L 470.621739 484.600927 
L 473.845211 487.395328 
L 477.068683 446.551001 
L 480.292156 401.976916 
L 483.515628 417.605034 
L 486.7391 462.262672 
L 489.962572 485.943243 
L 493.186044 502.621496 
L 496.409517 517.086381 
L 499.632989 522.072303 
L 502.856461 532.017637 
L 506.079933 543.073794 
L 509.303405 531.355942 
L 512.526877 545.364192 
L 515.75035 557.2299 
L 518.973822 540.662449 
L 522.197294 559.726044 
L 525.420766 560.346946 
L 531.867711 560.724028 
L 535.091183 557.457211 
L 538.314655 565.940113 
L 541.538127 557.32142 
L 544.761599 558.280936 
L 547.985071 564.340154 
L 551.208544 571.700336 
L 554.432016 558.827215 
L 557.655488 553.740032 
L 560.87896 579.711706 
L 564.102432 560.233957 
L 567.325905 562.721488 
L 570.549377 577.757021 
L 573.772849 558.824675 
L 576.996321 570.680615 
L 580.219793 573.664951 
L 583.443265 571.90179 
L 586.666738 565.231952 
L 589.89021 572.398452 
L 593.113682 573.13984 
L 596.337154 549.003267 
L 599.560626 543.98285 
L 602.784099 526.523052 
L 606.007571 504.275624 
L 609.231043 516.561102 
L 612.454515 527.654814 
L 615.677987 544.91864 
L 618.901459 555.360181 
L 622.124932 548.887001 
L 625.348404 572.726447 
L 628.571876 567.857067 
L 631.795348 568.207418 
L 635.01882 572.382995 
L 638.242292 571.323075 
L 641.465765 568.440091 
L 644.689237 572.208614 
L 647.912709 559.121028 
L 651.136181 577.629502 
L 654.359653 559.830635 
L 657.583126 581.486311 
L 660.806598 574.256981 
L 664.03007 584.676454 
L 667.253542 582.274383 
L 670.477014 573.681361 
L 673.700486 571.245545 
L 676.923959 572.504773 
L 680.147431 565.56039 
L 683.370903 582.250951 
L 686.594375 571.540946 
L 689.817847 567.487636 
L 693.04132 569.034693 
L 696.264792 584.917609 
L 699.488264 571.956786 
L 702.711736 563.075901 
L 705.935208 574.068748 
L 709.15868 573.26692 
L 712.382153 574.20583 
L 715.605625 586.58744 
L 718.829097 585.593293 
L 722.052569 593.505986 
L 725.276041 585.491193 
L 728.499514 585.81887 
L 731.722986 578.036125 
L 734.946458 586.35017 
L 738.16993 575.802613 
L 741.393402 585.827399 
L 744.616874 586.078721 
L 747.840347 573.076644 
L 751.063819 588.534312 
L 754.287291 592.630202 
L 757.510763 574.196306 
L 760.734235 577.791047 
L 763.957708 576.824671 
L 767.18118 598.877755 
L 770.404652 581.381175 
L 773.628124 575.709886 
L 776.851596 586.385788 
L 780.075068 602.807272 
L 783.298541 585.165729 
L 786.522013 599.733752 
L 789.745485 573.196756 
L 792.968957 579.603484 
L 796.192429 586.382046 
L 799.415901 570.447155 
L 802.639374 580.06339 
L 805.862846 559.712185 
L 809.086318 561.215567 
L 812.30979 568.930515 
L 815.533262 569.254424 
L 818.756735 573.613299 
L 821.980207 573.539598 
L 825.203679 576.29024 
L 828.427151 571.79025 
L 831.650623 581.610729 
L 834.874095 581.208671 
L 838.097568 584.665041 
L 841.32104 583.726527 
L 844.544512 574.955118 
L 847.767984 584.738088 
L 850.991456 575.813287 
L 854.214929 585.816166 
L 857.438401 572.800903 
L 860.661873 600.674644 
L 863.885345 575.266958 
L 867.108817 585.754355 
L 870.332289 594.406477 
L 873.555762 595.440067 
L 876.779234 587.36693 
L 880.002706 569.736009 
L 883.226178 581.336139 
L 886.44965 584.004746 
L 889.673123 600.419166 
L 892.896595 578.701476 
L 896.120067 602.403248 
L 899.343539 596.99159 
L 902.567011 575.757778 
L 905.790483 574.138455 
L 909.013956 588.274615 
L 912.237428 573.404206 
L 915.4609 576.363978 
L 918.684372 588.277524 
L 921.907844 587.430149 
L 925.131317 571.631146 
L 928.354789 583.913036 
L 931.578261 588.39322 
L 934.801733 594.794623 
L 938.025205 574.980246 
L 941.248677 574.470559 
L 944.47215 592.063251 
L 947.695622 587.272764 
L 950.919094 584.45882 
L 954.142566 591.538333 
L 957.366038 587.850622 
L 960.58951 586.441381 
L 963.812983 579.931296 
L 970.259927 588.047364 
L 973.483399 590.304877 
L 976.706871 586.753098 
L 979.930344 574.518822 
L 983.153816 587.536327 
L 986.377288 583.862326 
L 989.60076 584.882356 
L 992.824232 582.994995 
L 999.271177 596.138281 
L 1002.494649 587.352527 
L 1005.718121 581.156865 
L 1008.941593 574.719948 
L 1012.165065 587.778859 
L 1015.388538 585.676174 
L 1018.61201 575.312809 
L 1021.835482 573.132018 
L 1025.058954 570.035878 
L 1028.282426 569.163909 
L 1031.505898 574.331313 
L 1034.729371 588.170876 
L 1037.952843 589.108818 
L 1041.176315 572.348107 
L 1044.399787 580.390722 
L 1047.623259 583.305635 
L 1050.846732 584.752099 
L 1054.070204 598.971406 
L 1057.293676 582.049448 
L 1060.517148 586.99335 
L 1063.74062 597.869372 
L 1066.964092 584.86803 
L 1070.187565 598.645215 
L 1073.411037 585.234825 
L 1076.634509 593.182969 
L 1079.857981 574.542495 
L 1083.081453 599.033559 
L 1086.304926 587.405889 
L 1089.528398 588.055766 
L 1092.75187 583.972731 
L 1095.975342 586.02691 
L 1099.198814 577.735903 
L 1102.422286 586.925291 
L 1105.645759 601.529848 
L 1108.869231 582.203074 
L 1112.092703 588.351628 
L 1115.316175 590.931865 
L 1118.539647 577.473248 
L 1121.763119 600.776487 
L 1124.986592 590.139705 
L 1128.210064 590.304414 
L 1131.433536 588.221778 
L 1134.657008 589.180868 
L 1137.88048 587.139678 
L 1141.103953 589.957059 
L 1144.327425 591.235715 
L 1147.550897 602.571278 
L 1150.774369 598.605105 
L 1153.997841 585.720421 
L 1157.221313 593.384285 
L 1160.444786 605.459363 
L 1163.668258 589.03406 
L 1166.89173 580.525328 
L 1170.115202 585.139992 
L 1173.338674 586.777314 
L 1176.562147 585.230725 
L 1179.785619 594.521721 
L 1183.009091 584.708082 
L 1183.009091 584.708082 
" clip-path="url(#pf98fc8b59b)" style="fill: none; stroke: #1f77b4; stroke-width: 1.5; stroke-linecap: square"/>
   </g>
   <g id="line2d_15">
    <path d="M 219.190909 586.404826 
L 222.414381 583.232418 
L 225.637853 584.68049 
L 228.861326 589.115199 
L 232.084798 590.559026 
L 238.531742 588.84902 
L 241.755214 588.714828 
L 244.978687 588.208431 
L 248.202159 586.398287 
L 251.425631 583.613417 
L 254.649103 581.193888 
L 257.872575 580.374558 
L 261.096047 581.31263 
L 264.31952 582.981907 
L 270.766464 582.831087 
L 273.989936 583.076909 
L 277.213408 590.614797 
L 280.436881 582.194944 
L 283.660353 590.660053 
L 286.883825 606.075833 
L 290.107297 609.329502 
L 293.330769 594.818522 
L 296.554241 577.534879 
L 299.777714 576.029992 
L 306.224658 615.6 
L 309.44813 609.455194 
L 312.671602 554.746992 
L 315.895074 453.099081 
L 319.118547 327.646383 
L 322.342019 212.488222 
L 325.565491 138.563883 
L 328.788963 111.6 
L 332.012435 119.348786 
L 335.235908 137.51282 
L 338.45938 146.948458 
L 341.682852 146.953197 
L 344.906324 153.499305 
L 348.129796 183.296438 
L 354.576741 284.725844 
L 357.800213 313.996294 
L 361.023685 350.941963 
L 367.470629 396.413484 
L 370.694102 423.960994 
L 373.917574 453.627093 
L 377.141046 466.255556 
L 380.364518 449.291274 
L 383.58799 396.152382 
L 386.811462 323.464346 
L 390.034935 255.001517 
L 393.258407 216.719415 
L 396.481879 216.939117 
L 399.705351 252.867866 
L 402.928823 307.057803 
L 406.152296 358.188204 
L 409.375768 396.463938 
L 412.59924 420.44868 
L 415.822712 442.921018 
L 419.046184 463.779688 
L 422.269656 477.919971 
L 425.493129 483.668937 
L 428.716601 484.900515 
L 431.940073 485.20091 
L 435.163545 490.184426 
L 438.387017 497.633273 
L 441.61049 502.030493 
L 444.833962 507.519497 
L 448.057434 514.637895 
L 451.280906 519.284283 
L 454.504378 521.665359 
L 457.72785 526.579024 
L 460.951323 530.466263 
L 464.174795 530.221609 
L 467.398267 519.921663 
L 470.621739 495.170998 
L 473.845211 463.646918 
L 477.068683 437.960416 
L 480.292156 423.672626 
L 483.515628 429.436662 
L 486.7391 449.267138 
L 493.186044 503.810346 
L 496.409517 520.317545 
L 499.632989 529.829291 
L 502.856461 531.435042 
L 506.079933 532.12297 
L 509.303405 538.224669 
L 512.526877 547.101881 
L 515.75035 549.14954 
L 518.973822 549.78012 
L 522.197294 556.339559 
L 525.420766 559.776745 
L 528.644238 559.919984 
L 531.867711 561.293551 
L 535.091183 560.001446 
L 538.314655 559.910984 
L 541.538127 561.323821 
L 544.761599 562.013558 
L 547.985071 561.543938 
L 551.208544 563.790121 
L 554.432016 564.843701 
L 557.655488 563.166217 
L 560.87896 565.044676 
L 564.102432 566.030634 
L 567.325905 566.468289 
L 570.549377 568.040436 
L 573.772849 568.967479 
L 576.996321 569.089992 
L 580.219793 568.572303 
L 583.443265 569.455238 
L 586.666738 573.569187 
L 589.89021 573.478638 
L 593.113682 565.896243 
L 596.337154 554.124195 
L 599.560626 539.094277 
L 602.784099 522.415656 
L 606.007571 515.673821 
L 609.231043 515.935179 
L 612.454515 525.53202 
L 618.901459 553.015455 
L 622.124932 560.975678 
L 625.348404 565.443716 
L 628.571876 568.404283 
L 635.01882 570.469355 
L 638.242292 572.569441 
L 641.465765 569.888757 
L 644.689237 567.670173 
L 647.912709 566.507203 
L 651.136181 566.760708 
L 654.359653 570.295585 
L 657.583126 575.90155 
L 660.806598 579.256002 
L 664.03007 580.674884 
L 667.253542 579.105364 
L 670.477014 576.857865 
L 673.700486 573.361523 
L 676.923959 571.25327 
L 680.147431 570.351339 
L 683.370903 571.675402 
L 686.594375 572.582956 
L 689.817847 574.707862 
L 693.04132 573.238786 
L 696.264792 574.097806 
L 699.488264 571.106101 
L 702.711736 570.816499 
L 705.935208 571.00273 
L 709.15868 572.029741 
L 712.382153 577.274099 
L 715.605625 584.016507 
L 718.829097 587.608221 
L 722.052569 590.015292 
L 725.276041 587.163227 
L 728.499514 585.604655 
L 731.722986 582.431844 
L 734.946458 580.160984 
L 738.16993 579.490952 
L 741.393402 583.114092 
L 744.616874 583.934076 
L 747.840347 584.161539 
L 751.063819 582.434845 
L 754.287291 582.256178 
L 757.510763 583.041704 
L 760.734235 582.062485 
L 763.957708 581.543183 
L 767.18118 581.305932 
L 770.404652 582.939784 
L 773.628124 587.343539 
L 776.851596 589.83334 
L 780.075068 591.61416 
L 786.522013 588.051499 
L 789.745485 586.738685 
L 792.968957 583.254442 
L 796.192429 577.722878 
L 799.415901 573.766116 
L 802.639374 570.673229 
L 805.862846 567.995483 
L 809.086318 565.157857 
L 812.30979 565.069626 
L 815.533262 568.903564 
L 818.756735 571.192278 
L 821.980207 574.840348 
L 825.203679 576.046411 
L 828.427151 575.422036 
L 831.650623 579.289174 
L 834.874095 581.889756 
L 838.097568 582.620876 
L 841.32104 581.94357 
L 844.544512 580.472462 
L 847.767984 580.432611 
L 850.991456 581.098533 
L 854.214929 579.077014 
L 857.438401 581.41858 
L 860.661873 585.144371 
L 863.885345 587.486659 
L 867.108817 589.166043 
L 870.332289 591.63023 
L 873.555762 588.700069 
L 876.779234 584.070058 
L 880.002706 580.82398 
L 883.226178 580.779627 
L 886.44965 583.453711 
L 889.673123 588.860019 
L 892.896595 594.561211 
L 896.120067 595.569537 
L 899.343539 591.039348 
L 902.567011 581.554823 
L 905.790483 579.468166 
L 909.013956 578.69222 
L 912.237428 578.64431 
L 915.4609 579.596341 
L 918.684372 580.749664 
L 921.907844 583.344006 
L 928.354789 584.422906 
L 931.578261 583.642177 
L 934.801733 585.205976 
L 941.248677 581.376546 
L 944.47215 584.415866 
L 947.695622 587.222549 
L 950.919094 587.646825 
L 954.142566 588.501678 
L 957.366038 588.025548 
L 960.58951 585.756385 
L 963.812983 583.253934 
L 967.036455 584.521222 
L 970.259927 586.031045 
L 973.483399 587.711235 
L 976.706871 585.678978 
L 979.930344 583.255722 
L 983.153816 581.94972 
L 986.377288 581.811677 
L 989.60076 584.861669 
L 992.824232 588.570389 
L 996.047704 590.299196 
L 999.271177 589.325099 
L 1002.494649 585.16027 
L 1005.718121 583.910773 
L 1008.941593 584.156618 
L 1012.165065 582.898556 
L 1015.388538 580.564463 
L 1018.61201 575.626036 
L 1021.835482 572.992032 
L 1025.058954 572.445624 
L 1028.282426 572.816626 
L 1034.729371 580.028788 
L 1037.952843 583.365814 
L 1041.176315 581.918044 
L 1044.399787 582.403716 
L 1047.623259 582.590894 
L 1050.846732 585.04384 
L 1054.070204 587.345612 
L 1057.293676 590.520407 
L 1060.517148 591.939655 
L 1063.74062 591.4068 
L 1066.964092 591.29265 
L 1070.187565 589.446703 
L 1073.411037 589.174299 
L 1076.634509 589.281639 
L 1079.857981 587.529182 
L 1083.081453 589.215773 
L 1086.304926 588.118003 
L 1095.975342 583.794595 
L 1099.198814 585.45705 
L 1102.422286 587.428843 
L 1105.645759 588.307612 
L 1108.869231 590.281332 
L 1115.316175 587.322035 
L 1118.539647 587.143027 
L 1121.763119 591.716631 
L 1124.986592 591.323038 
L 1128.210064 590.468435 
L 1131.433536 589.285109 
L 1137.88048 587.88809 
L 1144.327425 594.539423 
L 1147.550897 596.218551 
L 1150.774369 596.047784 
L 1153.997841 595.154422 
L 1160.444786 594.166992 
L 1163.668258 592.049551 
L 1166.89173 587.288524 
L 1170.115202 582.297679 
L 1173.338674 582.545903 
L 1176.562147 589.733735 
L 1179.785619 592.846716 
L 1183.009091 584.937923 
L 1183.009091 584.937923 
" clip-path="url(#pf98fc8b59b)" style="fill: none; stroke: #ff7f0e; stroke-width: 1.5; stroke-linecap: square"/>
   </g>
   <g id="patch_3">
    <path d="M 171 640.8 
L 171 86.4 
" style="fill: none; stroke: #000000; stroke-width: 0.8; stroke-linejoin: miter; stroke-linecap: square"/>
   </g>
   <g id="patch_4">
    <path d="M 1231.2 640.8 
L 1231.2 86.4 
" style="fill: none; stroke: #000000; stroke-width: 0.8; stroke-linejoin: miter; stroke-linecap: square"/>
   </g>
   <g id="patch_5">
    <path d="M 171 640.8 
L 1231.2 640.8 
" style="fill: none; stroke: #000000; stroke-width: 0.8; stroke-linejoin: miter; stroke-linecap: square"/>
   </g>
   <g id="patch_6">
    <path d="M 171 86.4 
L 1231.2 86.4 
" style="fill: none; stroke: #000000; stroke-width: 0.8; stroke-linejoin: miter; stroke-linecap: square"/>
   </g>
  </g>
 </g>
 <defs>
  <clipPath id="pf98fc8b59b">
   <rect x="171" y="86.4" width="1060.2" height="554.4"/>
  </clipPath>
 </defs>
</svg>
