<?xml version="1.0" encoding="utf-8" standalone="no"?>
<!DOCTYPE svg PUBLIC "-//W3C//DTD SVG 1.1//EN"
  "http://www.w3.org/Graphics/SVG/1.1/DTD/svg11.dtd">
<svg xmlns:xlink="http://www.w3.org/1999/xlink" width="460.8pt" height="345.6pt" viewBox="0 0 460.8 345.6" xmlns="http://www.w3.org/2000/svg" version="1.1">
 <metadata>
  <rdf:RDF xmlns:dc="http://purl.org/dc/elements/1.1/" xmlns:cc="http://creativecommons.org/ns#" xmlns:rdf="http://www.w3.org/1999/02/22-rdf-syntax-ns#">
   <cc:Work>
    <dc:type rdf:resource="http://purl.org/dc/dcmitype/StillImage"/>
    <dc:date>2022-01-23T00:49:53.080709</dc:date>
    <dc:format>image/svg+xml</dc:format>
    <dc:creator>
     <cc:Agent>
      <dc:title>Matplotlib v3.5.1, https://matplotlib.org/</dc:title>
     </cc:Agent>
    </dc:creator>
   </cc:Work>
  </rdf:RDF>
 </metadata>
 <defs>
  <style type="text/css">*{stroke-linejoin: round; stroke-linecap: butt}</style>
 </defs>
 <g id="figure_1">
  <g id="patch_1">
   <path d="M 0 345.6 
L 460.8 345.6 
L 460.8 0 
L 0 0 
z
" style="fill: #ffffff"/>
  </g>
  <g id="axes_1">
   <g id="patch_2">
    <path d="M 57.6 307.584 
L 414.72 307.584 
L 414.72 41.472 
L 57.6 41.472 
z
" style="fill: #ffffff"/>
   </g>
   <g id="matplotlib.axis_1">
    <g id="xtick_1">
     <g id="line2d_1">
      <defs>
       <path id="m139b25e2b9" d="M 0 0 
L 0 3.5 
" style="stroke: #000000; stroke-width: 0.8"/>
      </defs>
      <g>
       <use xlink:href="#m139b25e2b9" x="73.830563" y="307.584" style="stroke: #000000; stroke-width: 0.8"/>
      </g>
     </g>
     <g id="text_1">
      <!-- 0 -->
      <g transform="translate(70.649313 322.182437)scale(0.1 -0.1)">
       <defs>
        <path id="DejaVuSans-30" d="M 2034 4250 
Q 1547 4250 1301 3770 
Q 1056 3291 1056 2328 
Q 1056 1369 1301 889 
Q 1547 409 2034 409 
Q 2525 409 2770 889 
Q 3016 1369 3016 2328 
Q 3016 3291 2770 3770 
Q 2525 4250 2034 4250 
z
M 2034 4750 
Q 2819 4750 3233 4129 
Q 3647 3509 3647 2328 
Q 3647 1150 3233 529 
Q 2819 -91 2034 -91 
Q 1250 -91 836 529 
Q 422 1150 422 2328 
Q 422 3509 836 4129 
Q 1250 4750 2034 4750 
z
" transform="scale(0.015625)"/>
       </defs>
       <use xlink:href="#DejaVuSans-30"/>
      </g>
     </g>
    </g>
    <g id="xtick_2">
     <g id="line2d_2">
      <g>
       <use xlink:href="#m139b25e2b9" x="117.118124" y="307.584" style="stroke: #000000; stroke-width: 0.8"/>
      </g>
     </g>
     <g id="text_2">
      <!-- 100000 -->
      <g transform="translate(98.030624 322.182437)scale(0.1 -0.1)">
       <defs>
        <path id="DejaVuSans-31" d="M 794 531 
L 1825 531 
L 1825 4091 
L 703 3866 
L 703 4441 
L 1819 4666 
L 2450 4666 
L 2450 531 
L 3481 531 
L 3481 0 
L 794 0 
L 794 531 
z
" transform="scale(0.015625)"/>
       </defs>
       <use xlink:href="#DejaVuSans-31"/>
       <use xlink:href="#DejaVuSans-30" x="63.623047"/>
       <use xlink:href="#DejaVuSans-30" x="127.246094"/>
       <use xlink:href="#DejaVuSans-30" x="190.869141"/>
       <use xlink:href="#DejaVuSans-30" x="254.492188"/>
       <use xlink:href="#DejaVuSans-30" x="318.115234"/>
      </g>
     </g>
    </g>
    <g id="xtick_3">
     <g id="line2d_3">
      <g>
       <use xlink:href="#m139b25e2b9" x="160.405686" y="307.584" style="stroke: #000000; stroke-width: 0.8"/>
      </g>
     </g>
     <g id="text_3">
      <!-- 200000 -->
      <g transform="translate(141.318186 322.182437)scale(0.1 -0.1)">
       <defs>
        <path id="DejaVuSans-32" d="M 1228 531 
L 3431 531 
L 3431 0 
L 469 0 
L 469 531 
Q 828 903 1448 1529 
Q 2069 2156 2228 2338 
Q 2531 2678 2651 2914 
Q 2772 3150 2772 3378 
Q 2772 3750 2511 3984 
Q 2250 4219 1831 4219 
Q 1534 4219 1204 4116 
Q 875 4013 500 3803 
L 500 4441 
Q 881 4594 1212 4672 
Q 1544 4750 1819 4750 
Q 2544 4750 2975 4387 
Q 3406 4025 3406 3419 
Q 3406 3131 3298 2873 
Q 3191 2616 2906 2266 
Q 2828 2175 2409 1742 
Q 1991 1309 1228 531 
z
" transform="scale(0.015625)"/>
       </defs>
       <use xlink:href="#DejaVuSans-32"/>
       <use xlink:href="#DejaVuSans-30" x="63.623047"/>
       <use xlink:href="#DejaVuSans-30" x="127.246094"/>
       <use xlink:href="#DejaVuSans-30" x="190.869141"/>
       <use xlink:href="#DejaVuSans-30" x="254.492188"/>
       <use xlink:href="#DejaVuSans-30" x="318.115234"/>
      </g>
     </g>
    </g>
    <g id="xtick_4">
     <g id="line2d_4">
      <g>
       <use xlink:href="#m139b25e2b9" x="203.693247" y="307.584" style="stroke: #000000; stroke-width: 0.8"/>
      </g>
     </g>
     <g id="text_4">
      <!-- 300000 -->
      <g transform="translate(184.605747 322.182437)scale(0.1 -0.1)">
       <defs>
        <path id="DejaVuSans-33" d="M 2597 2516 
Q 3050 2419 3304 2112 
Q 3559 1806 3559 1356 
Q 3559 666 3084 287 
Q 2609 -91 1734 -91 
Q 1441 -91 1130 -33 
Q 819 25 488 141 
L 488 750 
Q 750 597 1062 519 
Q 1375 441 1716 441 
Q 2309 441 2620 675 
Q 2931 909 2931 1356 
Q 2931 1769 2642 2001 
Q 2353 2234 1838 2234 
L 1294 2234 
L 1294 2753 
L 1863 2753 
Q 2328 2753 2575 2939 
Q 2822 3125 2822 3475 
Q 2822 3834 2567 4026 
Q 2313 4219 1838 4219 
Q 1578 4219 1281 4162 
Q 984 4106 628 3988 
L 628 4550 
Q 988 4650 1302 4700 
Q 1616 4750 1894 4750 
Q 2613 4750 3031 4423 
Q 3450 4097 3450 3541 
Q 3450 3153 3228 2886 
Q 3006 2619 2597 2516 
z
" transform="scale(0.015625)"/>
       </defs>
       <use xlink:href="#DejaVuSans-33"/>
       <use xlink:href="#DejaVuSans-30" x="63.623047"/>
       <use xlink:href="#DejaVuSans-30" x="127.246094"/>
       <use xlink:href="#DejaVuSans-30" x="190.869141"/>
       <use xlink:href="#DejaVuSans-30" x="254.492188"/>
       <use xlink:href="#DejaVuSans-30" x="318.115234"/>
      </g>
     </g>
    </g>
    <g id="xtick_5">
     <g id="line2d_5">
      <g>
       <use xlink:href="#m139b25e2b9" x="246.980808" y="307.584" style="stroke: #000000; stroke-width: 0.8"/>
      </g>
     </g>
     <g id="text_5">
      <!-- 400000 -->
      <g transform="translate(227.893308 322.182437)scale(0.1 -0.1)">
       <defs>
        <path id="DejaVuSans-34" d="M 2419 4116 
L 825 1625 
L 2419 1625 
L 2419 4116 
z
M 2253 4666 
L 3047 4666 
L 3047 1625 
L 3713 1625 
L 3713 1100 
L 3047 1100 
L 3047 0 
L 2419 0 
L 2419 1100 
L 313 1100 
L 313 1709 
L 2253 4666 
z
" transform="scale(0.015625)"/>
       </defs>
       <use xlink:href="#DejaVuSans-34"/>
       <use xlink:href="#DejaVuSans-30" x="63.623047"/>
       <use xlink:href="#DejaVuSans-30" x="127.246094"/>
       <use xlink:href="#DejaVuSans-30" x="190.869141"/>
       <use xlink:href="#DejaVuSans-30" x="254.492188"/>
       <use xlink:href="#DejaVuSans-30" x="318.115234"/>
      </g>
     </g>
    </g>
    <g id="xtick_6">
     <g id="line2d_6">
      <g>
       <use xlink:href="#m139b25e2b9" x="290.268369" y="307.584" style="stroke: #000000; stroke-width: 0.8"/>
      </g>
     </g>
     <g id="text_6">
      <!-- 500000 -->
      <g transform="translate(271.180869 322.182437)scale(0.1 -0.1)">
       <defs>
        <path id="DejaVuSans-35" d="M 691 4666 
L 3169 4666 
L 3169 4134 
L 1269 4134 
L 1269 2991 
Q 1406 3038 1543 3061 
Q 1681 3084 1819 3084 
Q 2600 3084 3056 2656 
Q 3513 2228 3513 1497 
Q 3513 744 3044 326 
Q 2575 -91 1722 -91 
Q 1428 -91 1123 -41 
Q 819 9 494 109 
L 494 744 
Q 775 591 1075 516 
Q 1375 441 1709 441 
Q 2250 441 2565 725 
Q 2881 1009 2881 1497 
Q 2881 1984 2565 2268 
Q 2250 2553 1709 2553 
Q 1456 2553 1204 2497 
Q 953 2441 691 2322 
L 691 4666 
z
" transform="scale(0.015625)"/>
       </defs>
       <use xlink:href="#DejaVuSans-35"/>
       <use xlink:href="#DejaVuSans-30" x="63.623047"/>
       <use xlink:href="#DejaVuSans-30" x="127.246094"/>
       <use xlink:href="#DejaVuSans-30" x="190.869141"/>
       <use xlink:href="#DejaVuSans-30" x="254.492188"/>
       <use xlink:href="#DejaVuSans-30" x="318.115234"/>
      </g>
     </g>
    </g>
    <g id="xtick_7">
     <g id="line2d_7">
      <g>
       <use xlink:href="#m139b25e2b9" x="333.555931" y="307.584" style="stroke: #000000; stroke-width: 0.8"/>
      </g>
     </g>
     <g id="text_7">
      <!-- 600000 -->
      <g transform="translate(314.468431 322.182437)scale(0.1 -0.1)">
       <defs>
        <path id="DejaVuSans-36" d="M 2113 2584 
Q 1688 2584 1439 2293 
Q 1191 2003 1191 1497 
Q 1191 994 1439 701 
Q 1688 409 2113 409 
Q 2538 409 2786 701 
Q 3034 994 3034 1497 
Q 3034 2003 2786 2293 
Q 2538 2584 2113 2584 
z
M 3366 4563 
L 3366 3988 
Q 3128 4100 2886 4159 
Q 2644 4219 2406 4219 
Q 1781 4219 1451 3797 
Q 1122 3375 1075 2522 
Q 1259 2794 1537 2939 
Q 1816 3084 2150 3084 
Q 2853 3084 3261 2657 
Q 3669 2231 3669 1497 
Q 3669 778 3244 343 
Q 2819 -91 2113 -91 
Q 1303 -91 875 529 
Q 447 1150 447 2328 
Q 447 3434 972 4092 
Q 1497 4750 2381 4750 
Q 2619 4750 2861 4703 
Q 3103 4656 3366 4563 
z
" transform="scale(0.015625)"/>
       </defs>
       <use xlink:href="#DejaVuSans-36"/>
       <use xlink:href="#DejaVuSans-30" x="63.623047"/>
       <use xlink:href="#DejaVuSans-30" x="127.246094"/>
       <use xlink:href="#DejaVuSans-30" x="190.869141"/>
       <use xlink:href="#DejaVuSans-30" x="254.492188"/>
       <use xlink:href="#DejaVuSans-30" x="318.115234"/>
      </g>
     </g>
    </g>
    <g id="xtick_8">
     <g id="line2d_8">
      <g>
       <use xlink:href="#m139b25e2b9" x="376.843492" y="307.584" style="stroke: #000000; stroke-width: 0.8"/>
      </g>
     </g>
     <g id="text_8">
      <!-- 700000 -->
      <g transform="translate(357.755992 322.182437)scale(0.1 -0.1)">
       <defs>
        <path id="DejaVuSans-37" d="M 525 4666 
L 3525 4666 
L 3525 4397 
L 1831 0 
L 1172 0 
L 2766 4134 
L 525 4134 
L 525 4666 
z
" transform="scale(0.015625)"/>
       </defs>
       <use xlink:href="#DejaVuSans-37"/>
       <use xlink:href="#DejaVuSans-30" x="63.623047"/>
       <use xlink:href="#DejaVuSans-30" x="127.246094"/>
       <use xlink:href="#DejaVuSans-30" x="190.869141"/>
       <use xlink:href="#DejaVuSans-30" x="254.492188"/>
       <use xlink:href="#DejaVuSans-30" x="318.115234"/>
      </g>
     </g>
    </g>
    <g id="text_9">
     <!-- f -->
     <g transform="translate(234.399844 335.860562)scale(0.1 -0.1)">
      <defs>
       <path id="DejaVuSans-66" d="M 2375 4863 
L 2375 4384 
L 1825 4384 
Q 1516 4384 1395 4259 
Q 1275 4134 1275 3809 
L 1275 3500 
L 2222 3500 
L 2222 3053 
L 1275 3053 
L 1275 0 
L 697 0 
L 697 3053 
L 147 3053 
L 147 3500 
L 697 3500 
L 697 3744 
Q 697 4328 969 4595 
Q 1241 4863 1831 4863 
L 2375 4863 
z
" transform="scale(0.015625)"/>
      </defs>
      <use xlink:href="#DejaVuSans-66"/>
     </g>
    </g>
   </g>
   <g id="matplotlib.axis_2">
    <g id="ytick_1">
     <g id="line2d_9">
      <defs>
       <path id="m13e579c4fc" d="M 0 0 
L -3.5 0 
" style="stroke: #000000; stroke-width: 0.8"/>
      </defs>
      <g>
       <use xlink:href="#m13e579c4fc" x="57.6" y="285.995318" style="stroke: #000000; stroke-width: 0.8"/>
      </g>
     </g>
     <g id="text_10">
      <!-- 0 -->
      <g transform="translate(44.2375 289.794537)scale(0.1 -0.1)">
       <use xlink:href="#DejaVuSans-30"/>
      </g>
     </g>
    </g>
    <g id="ytick_2">
     <g id="line2d_10">
      <g>
       <use xlink:href="#m13e579c4fc" x="57.6" y="243.492068" style="stroke: #000000; stroke-width: 0.8"/>
      </g>
     </g>
     <g id="text_11">
      <!-- 10 -->
      <g transform="translate(37.875 247.291287)scale(0.1 -0.1)">
       <use xlink:href="#DejaVuSans-31"/>
       <use xlink:href="#DejaVuSans-30" x="63.623047"/>
      </g>
     </g>
    </g>
    <g id="ytick_3">
     <g id="line2d_11">
      <g>
       <use xlink:href="#m13e579c4fc" x="57.6" y="200.988818" style="stroke: #000000; stroke-width: 0.8"/>
      </g>
     </g>
     <g id="text_12">
      <!-- 20 -->
      <g transform="translate(37.875 204.788037)scale(0.1 -0.1)">
       <use xlink:href="#DejaVuSans-32"/>
       <use xlink:href="#DejaVuSans-30" x="63.623047"/>
      </g>
     </g>
    </g>
    <g id="ytick_4">
     <g id="line2d_12">
      <g>
       <use xlink:href="#m13e579c4fc" x="57.6" y="158.485569" style="stroke: #000000; stroke-width: 0.8"/>
      </g>
     </g>
     <g id="text_13">
      <!-- 30 -->
      <g transform="translate(37.875 162.284787)scale(0.1 -0.1)">
       <use xlink:href="#DejaVuSans-33"/>
       <use xlink:href="#DejaVuSans-30" x="63.623047"/>
      </g>
     </g>
    </g>
    <g id="ytick_5">
     <g id="line2d_13">
      <g>
       <use xlink:href="#m13e579c4fc" x="57.6" y="115.982319" style="stroke: #000000; stroke-width: 0.8"/>
      </g>
     </g>
     <g id="text_14">
      <!-- 40 -->
      <g transform="translate(37.875 119.781537)scale(0.1 -0.1)">
       <use xlink:href="#DejaVuSans-34"/>
       <use xlink:href="#DejaVuSans-30" x="63.623047"/>
      </g>
     </g>
    </g>
    <g id="ytick_6">
     <g id="line2d_14">
      <g>
       <use xlink:href="#m13e579c4fc" x="57.6" y="73.479069" style="stroke: #000000; stroke-width: 0.8"/>
      </g>
     </g>
     <g id="text_15">
      <!-- 50 -->
      <g transform="translate(37.875 77.278288)scale(0.1 -0.1)">
       <use xlink:href="#DejaVuSans-35"/>
       <use xlink:href="#DejaVuSans-30" x="63.623047"/>
      </g>
     </g>
    </g>
    <g id="text_16">
     <!-- Z -->
     <g transform="translate(31.795313 177.953)rotate(-90)scale(0.1 -0.1)">
      <defs>
       <path id="DejaVuSans-5a" d="M 359 4666 
L 4025 4666 
L 4025 4184 
L 1075 531 
L 4097 531 
L 4097 0 
L 288 0 
L 288 481 
L 3238 4134 
L 359 4134 
L 359 4666 
z
" transform="scale(0.015625)"/>
      </defs>
      <use xlink:href="#DejaVuSans-5a"/>
     </g>
    </g>
   </g>
   <g id="line2d_15">
    <path d="M 73.832727 272.673991 
L 74.918528 275.44741 
L 76.00433 271.089942 
L 77.090131 282.357378 
L 79.261733 277.165032 
L 80.347534 278.73442 
L 81.433335 280.611658 
L 82.519137 275.150843 
L 83.604938 279.121194 
L 84.690739 277.022009 
L 85.77654 278.143601 
L 86.862341 273.153895 
L 87.948142 279.433944 
L 89.033943 274.665908 
L 90.119745 278.160637 
L 91.205546 274.274371 
L 92.291347 273.963141 
L 93.377148 275.520479 
L 94.462949 278.243982 
L 95.54875 277.301623 
L 96.634552 277.661999 
L 97.720353 278.140499 
L 98.806154 281.431209 
L 99.891955 280.859298 
L 100.977756 276.996399 
L 102.063557 281.251634 
L 103.149358 284.405786 
L 104.23516 277.003566 
L 105.320961 277.431055 
L 106.406762 274.682157 
L 107.492563 117.941714 
L 108.578364 76.120646 
L 109.664165 70.679914 
L 110.749967 70.513584 
L 111.835768 67.526735 
L 112.921569 68.291002 
L 114.00737 70.411736 
L 115.093171 72.916429 
L 116.178972 69.290744 
L 117.264773 69.5202 
L 118.350575 78.546217 
L 119.436376 97.964637 
L 120.522177 112.148979 
L 121.607978 129.879797 
L 122.693779 149.944242 
L 125.951183 192.36742 
L 127.036984 200.206232 
L 128.122785 215.993119 
L 129.208586 216.116479 
L 130.294387 227.182711 
L 131.380189 231.244498 
L 132.46599 230.195312 
L 133.551791 217.610742 
L 134.637592 184.496624 
L 135.723393 156.094845 
L 136.809194 152.838539 
L 137.894995 150.5724 
L 138.980797 167.048924 
L 140.066598 189.232139 
L 141.152399 197.852911 
L 142.2382 214.78882 
L 144.409802 226.355905 
L 145.495604 238.797498 
L 146.581405 243.699075 
L 147.667206 237.916982 
L 148.753007 244.068425 
L 149.838808 243.886605 
L 150.924609 241.398572 
L 152.01041 244.83868 
L 153.096212 249.318579 
L 154.182013 252.158493 
L 155.267814 249.18794 
L 156.353615 257.474337 
L 157.439416 255.397947 
L 158.525217 257.443469 
L 159.611019 258.826214 
L 160.69682 253.871013 
L 161.782621 245.390304 
L 162.868422 247.169125 
L 163.954223 233.183183 
L 165.040024 222.96059 
L 166.125825 215.446768 
L 167.211627 220.354342 
L 168.297428 238.830874 
L 169.383229 243.963113 
L 170.46903 248.269524 
L 171.554831 260.637402 
L 172.640632 266.208661 
L 173.726434 255.545698 
L 174.812235 260.467894 
L 175.898036 261.878106 
L 176.983837 263.533744 
L 178.069638 262.462314 
L 179.155439 268.553899 
L 180.24124 263.948638 
L 181.327042 266.434784 
L 182.412843 268.245631 
L 183.498644 267.310602 
L 184.584445 270.820857 
L 185.670246 270.171907 
L 186.756047 272.111321 
L 187.841849 267.427916 
L 188.92765 271.998587 
L 190.013451 267.930307 
L 191.099252 267.977621 
L 192.185053 269.104397 
L 193.270854 271.716682 
L 194.356656 269.014577 
L 195.442457 271.853978 
L 196.528258 272.732444 
L 197.614059 277.441979 
L 198.69986 274.187285 
L 199.785661 272.800681 
L 200.871462 272.419259 
L 201.957264 270.158361 
L 203.043065 271.636066 
L 204.128866 264.690945 
L 205.214667 260.020523 
L 206.300468 253.468754 
L 207.386269 248.197337 
L 210.643673 263.681656 
L 211.729474 266.428604 
L 212.815275 268.802306 
L 213.901076 267.887111 
L 214.986877 272.844708 
L 216.072679 273.006831 
L 217.15848 272.68613 
L 218.244281 272.591925 
L 219.330082 270.604129 
L 220.415883 272.87406 
L 221.501684 272.349355 
L 222.587486 268.089841 
L 223.673287 272.986025 
L 224.759088 276.110116 
L 225.844889 275.72726 
L 226.93069 281.495374 
L 228.016491 272.820366 
L 229.102292 275.053798 
L 230.188094 272.61056 
L 231.273895 273.505232 
L 232.359696 273.020142 
L 233.445497 277.31134 
L 234.531298 272.134293 
L 235.617099 270.886097 
L 236.702901 272.170092 
L 237.788702 272.586047 
L 238.874503 264.085586 
L 239.960304 275.045315 
L 241.046105 272.641375 
L 242.131906 276.936061 
L 243.217708 272.671307 
L 244.303509 277.001018 
L 245.38931 269.329697 
L 246.475111 274.724017 
L 247.560912 276.899027 
L 248.646713 273.096243 
L 249.732514 271.84752 
L 250.818316 273.928054 
L 251.904117 269.683989 
L 252.989918 276.726251 
L 254.075719 273.915725 
L 255.16152 273.275293 
L 256.247321 275.057407 
L 257.333123 279.461064 
L 258.418924 273.386371 
L 259.504725 274.322917 
L 260.590526 279.854583 
L 261.676327 276.922004 
L 262.762128 277.41015 
L 263.847929 278.959452 
L 264.933731 272.677527 
L 266.019532 276.707641 
L 267.105333 277.135342 
L 268.191134 272.810955 
L 269.276935 273.630614 
L 270.362736 272.781688 
L 271.448538 278.369709 
L 272.534339 272.765907 
L 273.62014 276.039686 
L 274.705941 268.5368 
L 275.791742 268.431755 
L 276.877543 271.271789 
L 277.963344 272.572002 
L 279.049146 272.190388 
L 280.134947 276.331332 
L 281.220748 276.113644 
L 282.306549 273.353253 
L 283.39235 276.703928 
L 284.478151 279.31756 
L 285.563953 273.832013 
L 286.649754 274.37189 
L 287.735555 276.969874 
L 288.821356 277.228727 
L 289.907157 279.366793 
L 290.992958 275.207973 
L 292.07876 281.389398 
L 293.164561 276.477003 
L 294.250362 280.292995 
L 295.336163 280.272153 
L 296.421964 277.077584 
L 297.507765 273.130524 
L 298.593566 277.413325 
L 299.679368 272.405702 
L 300.765169 273.316356 
L 301.85097 274.452466 
L 302.936771 273.214956 
L 304.022572 280.260203 
L 305.108373 275.508085 
L 306.194175 277.004863 
L 307.279976 272.413104 
L 308.365777 271.835492 
L 309.451578 277.524307 
L 310.537379 270.257236 
L 311.62318 277.526203 
L 312.708981 278.504144 
L 313.794783 278.108661 
L 314.880584 279.755272 
L 315.966385 281.875635 
L 317.052186 277.873249 
L 318.137987 282.405129 
L 319.223788 277.640406 
L 320.30959 285.346031 
L 321.395391 277.512312 
L 322.481192 274.254573 
L 323.566993 273.53021 
L 324.652794 272.225071 
L 325.738595 276.551528 
L 326.824396 273.41429 
L 327.910198 277.283738 
L 328.995999 276.936241 
L 330.0818 277.589273 
L 331.167601 277.33164 
L 332.253402 275.198696 
L 333.339203 282.60953 
L 334.425005 276.086521 
L 335.510806 279.479911 
L 336.596607 281.951712 
L 337.682408 278.401931 
L 338.768209 280.707482 
L 339.85401 273.814907 
L 340.939811 277.240544 
L 342.025613 275.843753 
L 343.111414 272.945097 
L 344.197215 276.429351 
L 345.283016 271.961172 
L 346.368817 276.653108 
L 347.454618 277.305916 
L 348.54042 277.071835 
L 349.626221 278.945289 
L 350.712022 276.341236 
L 351.797823 278.427537 
L 352.883624 277.026055 
L 353.969425 273.195383 
L 355.055227 279.097186 
L 356.141028 278.625173 
L 357.226829 278.009371 
L 358.31263 278.221155 
L 359.398431 274.929384 
L 360.484232 278.586718 
L 361.570033 277.949492 
L 362.655835 277.684387 
L 363.741636 277.852686 
L 364.827437 276.67992 
L 365.913238 279.985838 
L 366.999039 282.352941 
L 368.08484 278.457381 
L 369.170642 278.708011 
L 370.256443 277.845075 
L 371.342244 281.981855 
L 372.428045 277.850661 
L 373.513846 282.676198 
L 374.599647 277.619514 
L 375.685448 279.501265 
L 376.77125 277.847962 
L 377.857051 282.705638 
L 378.942852 281.047582 
L 380.028653 278.367347 
L 381.114454 273.092968 
L 382.200255 277.789981 
L 383.286057 280.896293 
L 384.371858 278.21112 
L 385.457659 278.497066 
L 386.54346 282.154934 
L 387.629261 274.169968 
L 388.715062 272.375255 
L 389.800863 277.515015 
L 391.972466 277.736959 
L 393.058267 282.620428 
L 395.229869 273.420568 
L 396.31567 280.067067 
L 397.401472 278.847444 
L 398.487273 281.914869 
L 398.487273 281.914869 
" clip-path="url(#pacff3b968a)" style="fill: none; stroke: #1f77b4; stroke-width: 1.5; stroke-linecap: square"/>
   </g>
   <g id="line2d_16">
    <path d="M 73.832727 272.848395 
L 74.918528 274.173919 
L 76.00433 274.650723 
L 77.090131 278.14552 
L 78.175932 280.259324 
L 79.261733 279.895105 
L 80.347534 278.513679 
L 81.433335 277.598632 
L 82.519137 277.517139 
L 83.604938 277.773937 
L 84.690739 277.761479 
L 85.77654 277.278327 
L 86.862341 276.566887 
L 87.948142 276.014209 
L 89.033943 275.82071 
L 90.119745 276.489687 
L 91.205546 275.201789 
L 92.291347 274.395718 
L 93.377148 278.365262 
L 94.462949 273.617924 
L 95.54875 274.642955 
L 96.634552 282.157104 
L 97.720353 284.556393 
L 98.806154 278.684169 
L 99.891955 271.816715 
L 100.977756 273.701909 
L 103.149358 295.488 
L 104.23516 292.617051 
L 105.320961 267.146398 
L 106.406762 218.954275 
L 108.578364 100.710077 
L 109.664165 64.420392 
L 110.749967 53.568 
L 111.835768 61.443748 
L 112.921569 73.542156 
L 114.00737 77.780311 
L 115.093171 73.317339 
L 116.178972 65.6114 
L 117.264773 67.331738 
L 118.350575 81.83874 
L 119.436376 98.394489 
L 120.522177 109.913327 
L 122.693779 148.918506 
L 123.77958 166.555753 
L 124.865382 180.243514 
L 127.036984 200.939396 
L 128.122785 210.20971 
L 130.294387 229.795477 
L 131.380189 233.426248 
L 132.46599 227.494603 
L 133.551791 210.073042 
L 134.637592 185.556352 
L 135.723393 163.553 
L 136.809194 151.331669 
L 137.894995 152.486877 
L 138.980797 165.30136 
L 141.152399 201.695139 
L 142.2382 213.348994 
L 143.324001 222.578051 
L 145.495604 235.585674 
L 146.581405 240.388052 
L 147.667206 242.2683 
L 148.753007 242.53058 
L 149.838808 243.348546 
L 150.924609 243.225631 
L 152.01041 244.991642 
L 154.182013 250.323935 
L 155.267814 253.957706 
L 156.353615 254.993265 
L 157.439416 255.48851 
L 158.525217 257.099022 
L 159.611019 257.818627 
L 160.69682 254.998165 
L 161.782621 250.163572 
L 162.868422 241.518576 
L 163.954223 231.467436 
L 165.040024 223.105331 
L 166.125825 220.177717 
L 167.211627 223.039342 
L 168.297428 231.719668 
L 169.383229 243.656124 
L 170.46903 253.27414 
L 171.554831 259.636328 
L 172.640632 261.233922 
L 174.812235 259.813569 
L 175.898036 261.567391 
L 176.983837 262.77302 
L 178.069638 264.165164 
L 179.155439 265.091667 
L 180.24124 266.450085 
L 181.327042 267.016938 
L 182.412843 266.915727 
L 183.498644 268.0588 
L 184.584445 270.32468 
L 185.670246 270.850361 
L 186.756047 270.174435 
L 187.841849 270.313043 
L 188.92765 269.497908 
L 190.013451 269.106281 
L 191.099252 268.587035 
L 192.185053 268.861815 
L 193.270854 269.340357 
L 194.356656 270.860578 
L 195.442457 272.62019 
L 196.528258 273.874337 
L 197.614059 274.404243 
L 198.69986 273.970757 
L 199.785661 273.726086 
L 201.957264 272.33316 
L 203.043065 269.141948 
L 204.128866 264.364234 
L 205.214667 258.759455 
L 206.300468 253.803499 
L 207.386269 251.48229 
L 208.472071 253.037255 
L 209.557872 256.862048 
L 210.643673 262.368928 
L 211.729474 266.781996 
L 212.815275 269.162095 
L 213.901076 270.580508 
L 214.986877 270.816961 
L 216.072679 272.024087 
L 217.15848 272.910912 
L 218.244281 273.366123 
L 220.415883 270.942706 
L 221.501684 270.344286 
L 222.587486 270.970227 
L 223.673287 273.183587 
L 224.759088 275.820774 
L 225.844889 276.566985 
L 226.93069 277.131316 
L 228.016491 276.317063 
L 230.188094 273.01297 
L 231.273895 273.145443 
L 232.359696 273.609634 
L 233.445497 274.655443 
L 234.531298 274.305449 
L 236.702901 270.282624 
L 237.788702 269.643035 
L 238.874503 270.133611 
L 239.960304 272.324099 
L 242.131906 274.490151 
L 243.217708 274.409986 
L 244.303509 274.641357 
L 245.38931 274.03913 
L 246.475111 273.675296 
L 248.646713 273.798651 
L 249.732514 273.453692 
L 250.818316 272.910589 
L 251.904117 272.101369 
L 252.989918 273.419257 
L 255.16152 275.196674 
L 258.418924 275.809929 
L 260.590526 277.22881 
L 261.676327 277.244213 
L 262.762128 277.447774 
L 263.847929 277.447902 
L 264.933731 276.617548 
L 266.019532 275.504604 
L 267.105333 274.088278 
L 268.191134 273.957497 
L 269.276935 274.462626 
L 270.362736 275.216559 
L 271.448538 275.165589 
L 272.534339 274.286561 
L 274.705941 271.0464 
L 275.791742 270.199329 
L 276.877543 270.273967 
L 277.963344 270.8356 
L 279.049146 273.619796 
L 280.134947 275.142906 
L 281.220748 275.962862 
L 282.306549 276.247218 
L 284.478151 275.618477 
L 285.563953 275.890608 
L 286.649754 276.308801 
L 287.735555 276.05733 
L 288.821356 276.826767 
L 289.907157 277.343109 
L 290.992958 278.413949 
L 293.164561 279.365118 
L 294.250362 278.954763 
L 295.336163 278.303474 
L 296.421964 278.202185 
L 298.593566 273.942603 
L 299.679368 273.170716 
L 300.765169 273.298888 
L 301.85097 274.383391 
L 302.936771 276.05898 
L 305.108373 276.970714 
L 306.194175 275.283474 
L 307.279976 274.700325 
L 308.365777 273.253787 
L 309.451578 272.68774 
L 310.537379 274.097291 
L 311.62318 276.415548 
L 312.708981 278.195962 
L 313.794783 279.022069 
L 314.880584 279.314743 
L 315.966385 279.726944 
L 317.052186 280.735725 
L 318.137987 281.115757 
L 319.223788 281.010665 
L 320.30959 280.299055 
L 321.395391 278.25919 
L 322.481192 275.811196 
L 323.566993 273.692694 
L 324.652794 273.255366 
L 325.738595 273.831879 
L 326.824396 274.926491 
L 327.910198 276.697566 
L 328.995999 277.585885 
L 330.0818 277.066657 
L 331.167601 277.256958 
L 332.253402 277.145729 
L 333.339203 278.614419 
L 335.510806 279.841741 
L 336.596607 280.07591 
L 337.682408 279.45214 
L 338.768209 278.660613 
L 340.939811 275.800832 
L 342.025613 274.914425 
L 343.111414 274.416172 
L 344.197215 274.083837 
L 345.283016 274.674661 
L 347.454618 276.617588 
L 348.54042 277.991368 
L 349.626221 278.132634 
L 352.883624 276.270497 
L 353.969425 277.053477 
L 355.055227 277.12193 
L 357.226829 277.972004 
L 358.31263 278.04524 
L 361.570033 276.817358 
L 362.655835 277.372273 
L 363.741636 278.062102 
L 364.827437 279.299201 
L 365.913238 279.395898 
L 366.999039 279.238056 
L 368.08484 279.30545 
L 369.170642 279.55987 
L 370.256443 280.038838 
L 371.342244 279.57281 
L 372.428045 278.939467 
L 373.513846 279.660171 
L 375.685448 279.853896 
L 376.77125 280.294146 
L 377.857051 280.072665 
L 380.028653 278.200144 
L 381.114454 277.149267 
L 382.200255 276.99702 
L 383.286057 278.514148 
L 384.371858 280.222457 
L 385.457659 280.295422 
L 386.54346 278.375251 
L 387.629261 275.647128 
L 388.715062 274.103036 
L 389.800863 275.057358 
L 390.886665 277.922907 
L 391.972466 280.35261 
L 393.058267 280.114711 
L 394.144068 277.567594 
L 395.229869 276.086449 
L 396.31567 278.070854 
L 397.401472 279.516193 
L 398.487273 281.826857 
L 398.487273 281.826857 
" clip-path="url(#pacff3b968a)" style="fill: none; stroke: #ff7f0e; stroke-width: 1.5; stroke-linecap: square"/>
   </g>
   <g id="patch_3">
    <path d="M 57.6 307.584 
L 57.6 41.472 
" style="fill: none; stroke: #000000; stroke-width: 0.8; stroke-linejoin: miter; stroke-linecap: square"/>
   </g>
   <g id="patch_4">
    <path d="M 414.72 307.584 
L 414.72 41.472 
" style="fill: none; stroke: #000000; stroke-width: 0.8; stroke-linejoin: miter; stroke-linecap: square"/>
   </g>
   <g id="patch_5">
    <path d="M 57.6 307.584 
L 414.72 307.584 
" style="fill: none; stroke: #000000; stroke-width: 0.8; stroke-linejoin: miter; stroke-linecap: square"/>
   </g>
   <g id="patch_6">
    <path d="M 57.6 41.472 
L 414.72 41.472 
" style="fill: none; stroke: #000000; stroke-width: 0.8; stroke-linejoin: miter; stroke-linecap: square"/>
   </g>
  </g>
 </g>
 <defs>
  <clipPath id="pacff3b968a">
   <rect x="57.6" y="41.472" width="357.12" height="266.112"/>
  </clipPath>
 </defs>
</svg>
