<?xml version="1.0" encoding="utf-8" standalone="no"?>
<!DOCTYPE svg PUBLIC "-//W3C//DTD SVG 1.1//EN"
  "http://www.w3.org/Graphics/SVG/1.1/DTD/svg11.dtd">
<svg xmlns:xlink="http://www.w3.org/1999/xlink" width="1368pt" height="720pt" viewBox="0 0 1368 720" xmlns="http://www.w3.org/2000/svg" version="1.1">
 <metadata>
  <rdf:RDF xmlns:dc="http://purl.org/dc/elements/1.1/" xmlns:cc="http://creativecommons.org/ns#" xmlns:rdf="http://www.w3.org/1999/02/22-rdf-syntax-ns#">
   <cc:Work>
    <dc:type rdf:resource="http://purl.org/dc/dcmitype/StillImage"/>
    <dc:date>2022-01-25T20:43:26.455866</dc:date>
    <dc:format>image/svg+xml</dc:format>
    <dc:creator>
     <cc:Agent>
      <dc:title>Matplotlib v3.5.1, https://matplotlib.org/</dc:title>
     </cc:Agent>
    </dc:creator>
   </cc:Work>
  </rdf:RDF>
 </metadata>
 <defs>
  <style type="text/css">*{stroke-linejoin: round; stroke-linecap: butt}</style>
 </defs>
 <g id="figure_1">
  <g id="patch_1">
   <path d="M 0 720 
L 1368 720 
L 1368 0 
L 0 0 
z
" style="fill: #ffffff"/>
  </g>
  <g id="axes_1">
   <g id="patch_2">
    <path d="M 171 640.8 
L 1231.2 640.8 
L 1231.2 86.4 
L 171 86.4 
z
" style="fill: #ffffff"/>
   </g>
   <g id="matplotlib.axis_1">
    <g id="xtick_1">
     <g id="line2d_1">
      <defs>
       <path id="mf5933ebdeb" d="M 0 0 
L 0 3.5 
" style="stroke: #000000; stroke-width: 0.8"/>
      </defs>
      <g>
       <use xlink:href="#mf5933ebdeb" x="209.455372" y="640.8" style="stroke: #000000; stroke-width: 0.8"/>
      </g>
     </g>
     <g id="text_1">
      <!-- 0.0 -->
      <g transform="translate(201.503809 655.398438)scale(0.1 -0.1)">
       <defs>
        <path id="DejaVuSans-30" d="M 2034 4250 
Q 1547 4250 1301 3770 
Q 1056 3291 1056 2328 
Q 1056 1369 1301 889 
Q 1547 409 2034 409 
Q 2525 409 2770 889 
Q 3016 1369 3016 2328 
Q 3016 3291 2770 3770 
Q 2525 4250 2034 4250 
z
M 2034 4750 
Q 2819 4750 3233 4129 
Q 3647 3509 3647 2328 
Q 3647 1150 3233 529 
Q 2819 -91 2034 -91 
Q 1250 -91 836 529 
Q 422 1150 422 2328 
Q 422 3509 836 4129 
Q 1250 4750 2034 4750 
z
" transform="scale(0.015625)"/>
        <path id="DejaVuSans-2e" d="M 684 794 
L 1344 794 
L 1344 0 
L 684 0 
L 684 794 
z
" transform="scale(0.015625)"/>
       </defs>
       <use xlink:href="#DejaVuSans-30"/>
       <use xlink:href="#DejaVuSans-2e" x="63.623047"/>
       <use xlink:href="#DejaVuSans-30" x="95.410156"/>
      </g>
     </g>
    </g>
    <g id="xtick_2">
     <g id="line2d_2">
      <g>
       <use xlink:href="#mf5933ebdeb" x="404.166116" y="640.8" style="stroke: #000000; stroke-width: 0.8"/>
      </g>
     </g>
     <g id="text_2">
      <!-- 0.2 -->
      <g transform="translate(396.214553 655.398438)scale(0.1 -0.1)">
       <defs>
        <path id="DejaVuSans-32" d="M 1228 531 
L 3431 531 
L 3431 0 
L 469 0 
L 469 531 
Q 828 903 1448 1529 
Q 2069 2156 2228 2338 
Q 2531 2678 2651 2914 
Q 2772 3150 2772 3378 
Q 2772 3750 2511 3984 
Q 2250 4219 1831 4219 
Q 1534 4219 1204 4116 
Q 875 4013 500 3803 
L 500 4441 
Q 881 4594 1212 4672 
Q 1544 4750 1819 4750 
Q 2544 4750 2975 4387 
Q 3406 4025 3406 3419 
Q 3406 3131 3298 2873 
Q 3191 2616 2906 2266 
Q 2828 2175 2409 1742 
Q 1991 1309 1228 531 
z
" transform="scale(0.015625)"/>
       </defs>
       <use xlink:href="#DejaVuSans-30"/>
       <use xlink:href="#DejaVuSans-2e" x="63.623047"/>
       <use xlink:href="#DejaVuSans-32" x="95.410156"/>
      </g>
     </g>
    </g>
    <g id="xtick_3">
     <g id="line2d_3">
      <g>
       <use xlink:href="#mf5933ebdeb" x="598.87686" y="640.8" style="stroke: #000000; stroke-width: 0.8"/>
      </g>
     </g>
     <g id="text_3">
      <!-- 0.4 -->
      <g transform="translate(590.925297 655.398438)scale(0.1 -0.1)">
       <defs>
        <path id="DejaVuSans-34" d="M 2419 4116 
L 825 1625 
L 2419 1625 
L 2419 4116 
z
M 2253 4666 
L 3047 4666 
L 3047 1625 
L 3713 1625 
L 3713 1100 
L 3047 1100 
L 3047 0 
L 2419 0 
L 2419 1100 
L 313 1100 
L 313 1709 
L 2253 4666 
z
" transform="scale(0.015625)"/>
       </defs>
       <use xlink:href="#DejaVuSans-30"/>
       <use xlink:href="#DejaVuSans-2e" x="63.623047"/>
       <use xlink:href="#DejaVuSans-34" x="95.410156"/>
      </g>
     </g>
    </g>
    <g id="xtick_4">
     <g id="line2d_4">
      <g>
       <use xlink:href="#mf5933ebdeb" x="793.587603" y="640.8" style="stroke: #000000; stroke-width: 0.8"/>
      </g>
     </g>
     <g id="text_4">
      <!-- 0.6 -->
      <g transform="translate(785.636041 655.398438)scale(0.1 -0.1)">
       <defs>
        <path id="DejaVuSans-36" d="M 2113 2584 
Q 1688 2584 1439 2293 
Q 1191 2003 1191 1497 
Q 1191 994 1439 701 
Q 1688 409 2113 409 
Q 2538 409 2786 701 
Q 3034 994 3034 1497 
Q 3034 2003 2786 2293 
Q 2538 2584 2113 2584 
z
M 3366 4563 
L 3366 3988 
Q 3128 4100 2886 4159 
Q 2644 4219 2406 4219 
Q 1781 4219 1451 3797 
Q 1122 3375 1075 2522 
Q 1259 2794 1537 2939 
Q 1816 3084 2150 3084 
Q 2853 3084 3261 2657 
Q 3669 2231 3669 1497 
Q 3669 778 3244 343 
Q 2819 -91 2113 -91 
Q 1303 -91 875 529 
Q 447 1150 447 2328 
Q 447 3434 972 4092 
Q 1497 4750 2381 4750 
Q 2619 4750 2861 4703 
Q 3103 4656 3366 4563 
z
" transform="scale(0.015625)"/>
       </defs>
       <use xlink:href="#DejaVuSans-30"/>
       <use xlink:href="#DejaVuSans-2e" x="63.623047"/>
       <use xlink:href="#DejaVuSans-36" x="95.410156"/>
      </g>
     </g>
    </g>
    <g id="xtick_5">
     <g id="line2d_5">
      <g>
       <use xlink:href="#mf5933ebdeb" x="988.298347" y="640.8" style="stroke: #000000; stroke-width: 0.8"/>
      </g>
     </g>
     <g id="text_5">
      <!-- 0.8 -->
      <g transform="translate(980.346785 655.398438)scale(0.1 -0.1)">
       <defs>
        <path id="DejaVuSans-38" d="M 2034 2216 
Q 1584 2216 1326 1975 
Q 1069 1734 1069 1313 
Q 1069 891 1326 650 
Q 1584 409 2034 409 
Q 2484 409 2743 651 
Q 3003 894 3003 1313 
Q 3003 1734 2745 1975 
Q 2488 2216 2034 2216 
z
M 1403 2484 
Q 997 2584 770 2862 
Q 544 3141 544 3541 
Q 544 4100 942 4425 
Q 1341 4750 2034 4750 
Q 2731 4750 3128 4425 
Q 3525 4100 3525 3541 
Q 3525 3141 3298 2862 
Q 3072 2584 2669 2484 
Q 3125 2378 3379 2068 
Q 3634 1759 3634 1313 
Q 3634 634 3220 271 
Q 2806 -91 2034 -91 
Q 1263 -91 848 271 
Q 434 634 434 1313 
Q 434 1759 690 2068 
Q 947 2378 1403 2484 
z
M 1172 3481 
Q 1172 3119 1398 2916 
Q 1625 2713 2034 2713 
Q 2441 2713 2670 2916 
Q 2900 3119 2900 3481 
Q 2900 3844 2670 4047 
Q 2441 4250 2034 4250 
Q 1625 4250 1398 4047 
Q 1172 3844 1172 3481 
z
" transform="scale(0.015625)"/>
       </defs>
       <use xlink:href="#DejaVuSans-30"/>
       <use xlink:href="#DejaVuSans-2e" x="63.623047"/>
       <use xlink:href="#DejaVuSans-38" x="95.410156"/>
      </g>
     </g>
    </g>
    <g id="xtick_6">
     <g id="line2d_6">
      <g>
       <use xlink:href="#mf5933ebdeb" x="1183.009091" y="640.8" style="stroke: #000000; stroke-width: 0.8"/>
      </g>
     </g>
     <g id="text_6">
      <!-- 1.0 -->
      <g transform="translate(1175.057528 655.398438)scale(0.1 -0.1)">
       <defs>
        <path id="DejaVuSans-31" d="M 794 531 
L 1825 531 
L 1825 4091 
L 703 3866 
L 703 4441 
L 1819 4666 
L 2450 4666 
L 2450 531 
L 3481 531 
L 3481 0 
L 794 0 
L 794 531 
z
" transform="scale(0.015625)"/>
       </defs>
       <use xlink:href="#DejaVuSans-31"/>
       <use xlink:href="#DejaVuSans-2e" x="63.623047"/>
       <use xlink:href="#DejaVuSans-30" x="95.410156"/>
      </g>
     </g>
    </g>
    <g id="text_7">
     <!-- f -->
     <g transform="translate(699.339844 669.076563)scale(0.1 -0.1)">
      <defs>
       <path id="DejaVuSans-66" d="M 2375 4863 
L 2375 4384 
L 1825 4384 
Q 1516 4384 1395 4259 
Q 1275 4134 1275 3809 
L 1275 3500 
L 2222 3500 
L 2222 3053 
L 1275 3053 
L 1275 0 
L 697 0 
L 697 3053 
L 147 3053 
L 147 3500 
L 697 3500 
L 697 3744 
Q 697 4328 969 4595 
Q 1241 4863 1831 4863 
L 2375 4863 
z
" transform="scale(0.015625)"/>
      </defs>
      <use xlink:href="#DejaVuSans-66"/>
     </g>
    </g>
    <g id="text_8">
     <!-- 1e6 -->
     <g transform="translate(1212.321875 668.076563)scale(0.1 -0.1)">
      <defs>
       <path id="DejaVuSans-65" d="M 3597 1894 
L 3597 1613 
L 953 1613 
Q 991 1019 1311 708 
Q 1631 397 2203 397 
Q 2534 397 2845 478 
Q 3156 559 3463 722 
L 3463 178 
Q 3153 47 2828 -22 
Q 2503 -91 2169 -91 
Q 1331 -91 842 396 
Q 353 884 353 1716 
Q 353 2575 817 3079 
Q 1281 3584 2069 3584 
Q 2775 3584 3186 3129 
Q 3597 2675 3597 1894 
z
M 3022 2063 
Q 3016 2534 2758 2815 
Q 2500 3097 2075 3097 
Q 1594 3097 1305 2825 
Q 1016 2553 972 2059 
L 3022 2063 
z
" transform="scale(0.015625)"/>
      </defs>
      <use xlink:href="#DejaVuSans-31"/>
      <use xlink:href="#DejaVuSans-65" x="63.623047"/>
      <use xlink:href="#DejaVuSans-36" x="125.146484"/>
     </g>
    </g>
   </g>
   <g id="matplotlib.axis_2">
    <g id="ytick_1">
     <g id="line2d_7">
      <defs>
       <path id="mad62da3765" d="M 0 0 
L -3.5 0 
" style="stroke: #000000; stroke-width: 0.8"/>
      </defs>
      <g>
       <use xlink:href="#mad62da3765" x="171" y="597.869363" style="stroke: #000000; stroke-width: 0.8"/>
      </g>
     </g>
     <g id="text_9">
      <!-- 0 -->
      <g transform="translate(157.6375 601.668581)scale(0.1 -0.1)">
       <use xlink:href="#DejaVuSans-30"/>
      </g>
     </g>
    </g>
    <g id="ytick_2">
     <g id="line2d_8">
      <g>
       <use xlink:href="#mad62da3765" x="171" y="534.028309" style="stroke: #000000; stroke-width: 0.8"/>
      </g>
     </g>
     <g id="text_10">
      <!-- 5 -->
      <g transform="translate(157.6375 537.827528)scale(0.1 -0.1)">
       <defs>
        <path id="DejaVuSans-35" d="M 691 4666 
L 3169 4666 
L 3169 4134 
L 1269 4134 
L 1269 2991 
Q 1406 3038 1543 3061 
Q 1681 3084 1819 3084 
Q 2600 3084 3056 2656 
Q 3513 2228 3513 1497 
Q 3513 744 3044 326 
Q 2575 -91 1722 -91 
Q 1428 -91 1123 -41 
Q 819 9 494 109 
L 494 744 
Q 775 591 1075 516 
Q 1375 441 1709 441 
Q 2250 441 2565 725 
Q 2881 1009 2881 1497 
Q 2881 1984 2565 2268 
Q 2250 2553 1709 2553 
Q 1456 2553 1204 2497 
Q 953 2441 691 2322 
L 691 4666 
z
" transform="scale(0.015625)"/>
       </defs>
       <use xlink:href="#DejaVuSans-35"/>
      </g>
     </g>
    </g>
    <g id="ytick_3">
     <g id="line2d_9">
      <g>
       <use xlink:href="#mad62da3765" x="171" y="470.187255" style="stroke: #000000; stroke-width: 0.8"/>
      </g>
     </g>
     <g id="text_11">
      <!-- 10 -->
      <g transform="translate(151.275 473.986474)scale(0.1 -0.1)">
       <use xlink:href="#DejaVuSans-31"/>
       <use xlink:href="#DejaVuSans-30" x="63.623047"/>
      </g>
     </g>
    </g>
    <g id="ytick_4">
     <g id="line2d_10">
      <g>
       <use xlink:href="#mad62da3765" x="171" y="406.346201" style="stroke: #000000; stroke-width: 0.8"/>
      </g>
     </g>
     <g id="text_12">
      <!-- 15 -->
      <g transform="translate(151.275 410.14542)scale(0.1 -0.1)">
       <use xlink:href="#DejaVuSans-31"/>
       <use xlink:href="#DejaVuSans-35" x="63.623047"/>
      </g>
     </g>
    </g>
    <g id="ytick_5">
     <g id="line2d_11">
      <g>
       <use xlink:href="#mad62da3765" x="171" y="342.505148" style="stroke: #000000; stroke-width: 0.8"/>
      </g>
     </g>
     <g id="text_13">
      <!-- 20 -->
      <g transform="translate(151.275 346.304367)scale(0.1 -0.1)">
       <use xlink:href="#DejaVuSans-32"/>
       <use xlink:href="#DejaVuSans-30" x="63.623047"/>
      </g>
     </g>
    </g>
    <g id="ytick_6">
     <g id="line2d_12">
      <g>
       <use xlink:href="#mad62da3765" x="171" y="278.664094" style="stroke: #000000; stroke-width: 0.8"/>
      </g>
     </g>
     <g id="text_14">
      <!-- 25 -->
      <g transform="translate(151.275 282.463313)scale(0.1 -0.1)">
       <use xlink:href="#DejaVuSans-32"/>
       <use xlink:href="#DejaVuSans-35" x="63.623047"/>
      </g>
     </g>
    </g>
    <g id="ytick_7">
     <g id="line2d_13">
      <g>
       <use xlink:href="#mad62da3765" x="171" y="214.82304" style="stroke: #000000; stroke-width: 0.8"/>
      </g>
     </g>
     <g id="text_15">
      <!-- 30 -->
      <g transform="translate(151.275 218.622259)scale(0.1 -0.1)">
       <defs>
        <path id="DejaVuSans-33" d="M 2597 2516 
Q 3050 2419 3304 2112 
Q 3559 1806 3559 1356 
Q 3559 666 3084 287 
Q 2609 -91 1734 -91 
Q 1441 -91 1130 -33 
Q 819 25 488 141 
L 488 750 
Q 750 597 1062 519 
Q 1375 441 1716 441 
Q 2309 441 2620 675 
Q 2931 909 2931 1356 
Q 2931 1769 2642 2001 
Q 2353 2234 1838 2234 
L 1294 2234 
L 1294 2753 
L 1863 2753 
Q 2328 2753 2575 2939 
Q 2822 3125 2822 3475 
Q 2822 3834 2567 4026 
Q 2313 4219 1838 4219 
Q 1578 4219 1281 4162 
Q 984 4106 628 3988 
L 628 4550 
Q 988 4650 1302 4700 
Q 1616 4750 1894 4750 
Q 2613 4750 3031 4423 
Q 3450 4097 3450 3541 
Q 3450 3153 3228 2886 
Q 3006 2619 2597 2516 
z
" transform="scale(0.015625)"/>
       </defs>
       <use xlink:href="#DejaVuSans-33"/>
       <use xlink:href="#DejaVuSans-30" x="63.623047"/>
      </g>
     </g>
    </g>
    <g id="ytick_8">
     <g id="line2d_14">
      <g>
       <use xlink:href="#mad62da3765" x="171" y="150.981987" style="stroke: #000000; stroke-width: 0.8"/>
      </g>
     </g>
     <g id="text_16">
      <!-- 35 -->
      <g transform="translate(151.275 154.781205)scale(0.1 -0.1)">
       <use xlink:href="#DejaVuSans-33"/>
       <use xlink:href="#DejaVuSans-35" x="63.623047"/>
      </g>
     </g>
    </g>
    <g id="ytick_9">
     <g id="line2d_15">
      <g>
       <use xlink:href="#mad62da3765" x="171" y="87.140933" style="stroke: #000000; stroke-width: 0.8"/>
      </g>
     </g>
     <g id="text_17">
      <!-- 40 -->
      <g transform="translate(151.275 90.940152)scale(0.1 -0.1)">
       <use xlink:href="#DejaVuSans-34"/>
       <use xlink:href="#DejaVuSans-30" x="63.623047"/>
      </g>
     </g>
    </g>
    <g id="text_18">
     <!-- Z -->
     <g transform="translate(145.195312 367.025)rotate(-90)scale(0.1 -0.1)">
      <defs>
       <path id="DejaVuSans-5a" d="M 359 4666 
L 4025 4666 
L 4025 4184 
L 1075 531 
L 4097 531 
L 4097 0 
L 288 0 
L 288 481 
L 3238 4134 
L 359 4134 
L 359 4666 
z
" transform="scale(0.015625)"/>
      </defs>
      <use xlink:href="#DejaVuSans-5a"/>
     </g>
    </g>
   </g>
   <g id="line2d_16">
    <path d="M 219.190909 597.072833 
L 222.414381 576.301811 
L 225.637853 581.433646 
L 228.861326 587.862356 
L 232.084798 590.887436 
L 235.30827 581.292433 
L 238.531742 560.710598 
L 241.755214 581.998311 
L 244.978687 585.449074 
L 248.202159 572.175848 
L 251.425631 592.086445 
L 254.649103 584.292519 
L 261.096047 561.075271 
L 264.31952 584.809672 
L 267.542992 594.635928 
L 270.766464 569.642437 
L 273.989936 576.172986 
L 277.213408 587.165536 
L 280.436881 585.970825 
L 283.660353 579.459085 
L 286.883825 574.455858 
L 290.107297 585.682334 
L 293.330769 570.209502 
L 296.554241 579.374963 
L 299.777714 585.730567 
L 303.001186 574.001893 
L 306.224658 576.906786 
L 309.44813 592.837986 
L 312.671602 572.530896 
L 315.895074 521.700611 
L 319.118547 208.309998 
L 322.342019 158.059689 
L 325.565491 146.093971 
L 328.788963 142.329736 
L 332.012435 147.844737 
L 335.235908 142.117849 
L 338.45938 148.107085 
L 341.682852 190.147175 
L 344.906324 245.090718 
L 348.129796 283.399152 
L 351.353268 334.615665 
L 354.576741 371.020286 
L 357.800213 398.008311 
L 361.023685 417.499496 
L 364.247157 429.836716 
L 367.470629 361.742086 
L 370.694102 235.513401 
L 373.917574 222.344867 
L 377.141046 246.062857 
L 380.364518 267.117055 
L 383.58799 331.646698 
L 386.811462 369.027196 
L 390.034935 399.453845 
L 393.258407 428.115466 
L 396.481879 459.965538 
L 399.705351 469.844888 
L 402.928823 471.499794 
L 406.152296 480.086788 
L 409.375768 485.25871 
L 412.59924 498.444475 
L 415.822712 486.87916 
L 419.046184 492.833286 
L 422.269656 500.033314 
L 425.493129 514.587846 
L 428.716601 504.203972 
L 431.940073 472.182074 
L 435.163545 458.113972 
L 438.387017 416.079886 
L 441.61049 415.481627 
L 444.833962 441.129733 
L 448.057434 475.253764 
L 451.280906 499.926494 
L 454.504378 496.901791 
L 457.72785 520.581448 
L 460.951323 526.980413 
L 464.174795 528.501027 
L 467.398267 546.382243 
L 470.621739 531.12176 
L 473.845211 542.804629 
L 477.068683 534.657559 
L 480.292156 539.871183 
L 483.515628 543.828706 
L 486.7391 566.243066 
L 489.962572 541.86555 
L 493.186044 543.612903 
L 496.409517 558.886684 
L 499.632989 538.158123 
L 502.856461 543.714201 
L 506.079933 556.983515 
L 509.303405 543.268994 
L 512.526877 545.500485 
L 515.75035 543.337368 
L 518.973822 549.757957 
L 522.197294 555.840914 
L 525.420766 545.668143 
L 528.644238 506.866641 
L 531.867711 487.225373 
L 535.091183 512.97358 
L 538.314655 519.716805 
L 541.538127 528.569255 
L 544.761599 556.803401 
L 547.985071 538.088479 
L 551.208544 546.536069 
L 554.432016 558.044475 
L 557.655488 572.550834 
L 560.87896 559.127263 
L 564.102432 558.091047 
L 567.325905 541.847706 
L 570.549377 566.896838 
L 573.772849 558.525084 
L 576.996321 557.958057 
L 580.219793 566.113545 
L 583.443265 571.85604 
L 586.666738 572.618602 
L 589.89021 576.626938 
L 593.113682 558.907695 
L 596.337154 557.702603 
L 599.560626 568.650366 
L 602.784099 557.600588 
L 606.007571 557.136876 
L 609.231043 561.443071 
L 612.454515 559.303276 
L 615.677987 557.899998 
L 618.901459 566.164456 
L 622.124932 572.716475 
L 625.348404 559.728618 
L 628.571876 566.041882 
L 631.795348 566.575313 
L 635.01882 559.824513 
L 638.242292 559.611391 
L 641.465765 558.407487 
L 644.689237 571.261131 
L 647.912709 565.615917 
L 651.136181 571.697929 
L 654.359653 573.53459 
L 657.583126 573.161332 
L 660.806598 566.723747 
L 664.03007 586.567363 
L 667.253542 581.878141 
L 670.477014 556.747728 
L 673.700486 545.334097 
L 676.923959 560.736784 
L 680.147431 562.626427 
L 683.370903 552.058928 
L 686.594375 542.088684 
L 689.817847 548.624078 
L 693.04132 557.711568 
L 696.264792 556.184743 
L 699.488264 561.617139 
L 702.711736 556.240745 
L 705.935208 587.471273 
L 709.15868 573.51946 
L 712.382153 572.935513 
L 715.605625 560.80962 
L 718.829097 554.753995 
L 722.052569 566.6895 
L 725.276041 572.303203 
L 728.499514 572.248747 
L 731.722986 571.019945 
L 734.946458 562.89361 
L 738.16993 560.934748 
L 741.393402 562.31926 
L 747.840347 585.395751 
L 751.063819 580.486331 
L 754.287291 556.38214 
L 757.510763 572.70376 
L 760.734235 571.890319 
L 763.957708 569.588976 
L 767.18118 570.780882 
L 770.404652 568.178124 
L 773.628124 574.975337 
L 776.851596 585.934987 
L 780.075068 562.825493 
L 783.298541 573.312151 
L 786.522013 571.471793 
L 789.745485 574.733087 
L 792.968957 564.003061 
L 796.192429 572.167661 
L 799.415901 569.422343 
L 802.639374 571.007612 
L 805.862846 572.097382 
L 809.086318 576.861182 
L 812.30979 571.919205 
L 815.533262 577.528803 
L 818.756735 571.145972 
L 821.980207 558.582675 
L 825.203679 574.359681 
L 828.427151 558.587512 
L 831.650623 568.810536 
L 834.874095 572.44789 
L 838.097568 559.864126 
L 841.32104 558.707496 
L 844.544512 576.89002 
L 847.767984 558.859154 
L 850.991456 573.203693 
L 854.214929 575.732127 
L 857.438401 571.878554 
L 860.661873 571.616684 
L 863.885345 583.604231 
L 867.108817 571.503403 
L 870.332289 569.470957 
L 873.555762 573.154317 
L 876.779234 589.203731 
L 880.002706 583.552875 
L 883.226178 575.169692 
L 886.44965 569.826568 
L 889.673123 573.854016 
L 892.896595 571.755558 
L 896.120067 584.135923 
L 899.343539 559.989114 
L 902.567011 569.697142 
L 905.790483 581.206982 
L 909.013956 572.683126 
L 912.237428 581.684663 
L 915.4609 561.170714 
L 918.684372 572.513951 
L 921.907844 572.655283 
L 925.131317 570.434163 
L 928.354789 584.234253 
L 931.578261 583.517135 
L 934.801733 573.551565 
L 938.025205 572.572738 
L 941.248677 583.389895 
L 944.47215 580.951 
L 947.695622 572.358438 
L 950.919094 598.050797 
L 954.142566 569.77057 
L 957.366038 585.863 
L 960.58951 574.250569 
L 963.812983 557.838128 
L 967.036455 567.508226 
L 970.259927 560.16347 
L 973.483399 562.307216 
L 976.706871 582.117553 
L 979.930344 587.46211 
L 983.153816 572.085735 
L 986.377288 574.223669 
L 989.60076 573.547628 
L 992.824232 576.716906 
L 996.047704 565.093911 
L 999.271177 564.026506 
L 1002.494649 573.380981 
L 1005.718121 572.685805 
L 1008.941593 571.487008 
L 1012.165065 586.181634 
L 1015.388538 559.652705 
L 1018.61201 582.667985 
L 1021.835482 562.20152 
L 1025.058954 584.580821 
L 1028.282426 584.049289 
L 1031.505898 588.024207 
L 1034.729371 580.522523 
L 1037.952843 568.373034 
L 1041.176315 583.594457 
L 1044.399787 576.306643 
L 1047.623259 577.566478 
L 1050.846732 572.722977 
L 1054.070204 560.963228 
L 1057.293676 579.513949 
L 1060.517148 586.383664 
L 1063.74062 568.82149 
L 1066.964092 572.941761 
L 1070.187565 585.636563 
L 1073.411037 575.938334 
L 1076.634509 565.111538 
L 1079.857981 573.520513 
L 1083.081453 573.093109 
L 1086.304926 569.826851 
L 1089.528398 574.717757 
L 1092.75187 584.457544 
L 1095.975342 580.244074 
L 1099.198814 585.21233 
L 1102.422286 587.478534 
L 1105.645759 592.965927 
L 1112.092703 559.625311 
L 1115.316175 588.797512 
L 1118.539647 576.593796 
L 1121.763119 559.203346 
L 1124.986592 582.898493 
L 1128.210064 573.086935 
L 1131.433536 585.467299 
L 1134.657008 585.397014 
L 1137.88048 566.209446 
L 1141.103953 585.17717 
L 1144.327425 569.567366 
L 1147.550897 572.258369 
L 1150.774369 588.475475 
L 1153.997841 583.55068 
L 1157.221313 580.470768 
L 1160.444786 570.94698 
L 1163.668258 560.754247 
L 1166.89173 583.093385 
L 1170.115202 572.292366 
L 1173.338674 571.219627 
L 1176.562147 582.036551 
L 1179.785619 577.78868 
L 1183.009091 597.072248 
L 1183.009091 597.072248 
" clip-path="url(#pc7173c180f)" style="fill: none; stroke: #1f77b4; stroke-width: 1.5; stroke-linecap: square"/>
   </g>
   <g id="line2d_17">
    <path d="M 219.190909 597.199409 
L 222.414381 575.678382 
L 225.637853 581.918616 
L 228.861326 590.12424 
L 232.084798 586.99186 
L 235.30827 578.122045 
L 238.531742 572.819617 
L 241.755214 574.434665 
L 244.978687 579.929415 
L 248.202159 584.204422 
L 251.425631 584.258606 
L 254.649103 580.660461 
L 257.872575 576.350683 
L 261.096047 574.270844 
L 264.31952 575.52571 
L 267.542992 578.164474 
L 270.766464 582.723805 
L 273.989936 582.611969 
L 277.213408 586.091384 
L 280.436881 574.992038 
L 283.660353 576.741598 
L 286.883825 588.010554 
L 290.107297 588.85437 
L 293.330769 573.104788 
L 296.554241 559.556018 
L 299.777714 566.425007 
L 303.001186 594.425536 
L 306.224658 615.6 
L 309.44813 599.665168 
L 312.671602 536.504012 
L 315.895074 429.251132 
L 319.118547 303.959927 
L 322.342019 195.116018 
L 325.565491 130.207265 
L 328.788963 111.6 
L 332.012435 122.024723 
L 335.235908 153.595088 
L 338.45938 182.349283 
L 341.682852 198.235161 
L 344.906324 222.216942 
L 348.129796 268.733182 
L 351.353268 332.629401 
L 354.576741 388.288021 
L 357.800213 413.644763 
L 361.023685 423.668583 
L 364.247157 392.642274 
L 367.470629 337.944939 
L 370.694102 278.590079 
L 373.917574 237.68987 
L 377.141046 231.283397 
L 380.364518 263.308835 
L 386.811462 372.452396 
L 390.034935 412.741086 
L 393.258407 433.19163 
L 402.928823 479.299377 
L 406.152296 484.870578 
L 409.375768 484.123988 
L 412.59924 487.119067 
L 415.822712 489.039516 
L 419.046184 497.649719 
L 422.269656 508.939711 
L 425.493129 508.958289 
L 428.716601 497.998211 
L 431.940073 474.071115 
L 435.163545 448.104254 
L 438.387017 427.810297 
L 441.61049 424.315672 
L 444.833962 438.648464 
L 448.057434 465.995507 
L 451.280906 491.268812 
L 454.504378 508.658444 
L 457.72785 521.866921 
L 460.951323 527.329167 
L 464.174795 531.154581 
L 467.398267 535.22657 
L 470.621739 537.487648 
L 473.845211 539.232347 
L 477.068683 538.606695 
L 480.292156 542.012671 
L 483.515628 547.067997 
L 486.7391 551.084883 
L 489.962572 550.361365 
L 493.186044 547.863006 
L 496.409517 549.839538 
L 499.632989 548.365491 
L 502.856461 544.865371 
L 506.079933 544.723472 
L 509.303405 543.875259 
L 512.526877 548.431118 
L 515.75035 552.263601 
L 518.973822 553.605602 
L 522.197294 545.394842 
L 525.420766 531.468828 
L 528.644238 513.556535 
L 531.867711 506.995578 
L 535.091183 507.146586 
L 538.314655 513.593446 
L 541.538127 528.748974 
L 544.761599 543.333385 
L 547.985071 551.316961 
L 551.208544 555.649123 
L 554.432016 555.930901 
L 557.655488 558.101366 
L 560.87896 561.817729 
L 564.102432 560.310222 
L 567.325905 555.114415 
L 570.549377 553.720478 
L 573.772849 556.908283 
L 576.996321 561.343559 
L 580.219793 568.41173 
L 583.443265 573.295503 
L 586.666738 570.268849 
L 589.89021 568.503209 
L 593.113682 566.597552 
L 596.337154 563.880621 
L 599.560626 560.257037 
L 602.784099 558.198825 
L 606.007571 558.440214 
L 609.231043 560.22634 
L 612.454515 559.851535 
L 615.677987 561.585036 
L 618.901459 564.329313 
L 622.124932 565.867489 
L 625.348404 567.733347 
L 628.571876 566.614317 
L 631.795348 561.502232 
L 635.01882 559.389395 
L 638.242292 561.681532 
L 641.465765 563.8066 
L 644.689237 565.494356 
L 647.912709 566.355485 
L 651.136181 568.895494 
L 654.359653 573.520303 
L 657.583126 576.761848 
L 660.806598 577.208502 
L 664.03007 573.466456 
L 667.253542 571.977295 
L 670.477014 565.857127 
L 673.700486 559.04654 
L 676.923959 554.083731 
L 680.147431 551.740931 
L 683.370903 552.462857 
L 686.594375 551.797552 
L 689.817847 550.742173 
L 693.04132 550.230217 
L 696.264792 553.317749 
L 699.488264 561.705836 
L 702.711736 572.009343 
L 705.935208 575.646571 
L 709.15868 572.918603 
L 715.605625 563.508992 
L 718.829097 563.2997 
L 725.276041 568.16648 
L 728.499514 569.918859 
L 731.722986 568.52099 
L 734.946458 565.452443 
L 738.16993 565.106503 
L 741.393402 565.722899 
L 744.616874 572.140927 
L 747.840347 575.726937 
L 751.063819 577.557518 
L 754.287291 572.897636 
L 757.510763 568.73726 
L 760.734235 567.020189 
L 763.957708 567.968172 
L 767.18118 571.173885 
L 770.404652 574.597785 
L 773.628124 574.878644 
L 776.851596 574.131644 
L 783.298541 571.888885 
L 786.522013 572.60332 
L 789.745485 569.90249 
L 792.968957 568.19356 
L 796.192429 570.131228 
L 799.415901 569.928123 
L 802.639374 570.650322 
L 805.862846 574.024494 
L 809.086318 574.534769 
L 812.30979 575.234635 
L 815.533262 573.471908 
L 818.756735 568.943923 
L 821.980207 567.054944 
L 828.427151 565.988982 
L 831.650623 565.27305 
L 834.874095 565.833472 
L 838.097568 566.048971 
L 844.544512 564.588758 
L 847.767984 566.335278 
L 850.991456 570.673314 
L 854.214929 574.442565 
L 857.438401 576.063346 
L 860.661873 573.66991 
L 863.885345 573.033365 
L 867.108817 573.756026 
L 870.332289 576.294168 
L 873.555762 578.595025 
L 876.779234 578.228299 
L 880.002706 579.795787 
L 883.226178 579.799648 
L 886.44965 575.461683 
L 889.673123 573.660456 
L 892.896595 570.965703 
L 896.120067 569.874137 
L 899.343539 571.982614 
L 902.567011 575.60944 
L 905.790483 575.453763 
L 909.013956 572.756391 
L 912.237428 573.100422 
L 915.4609 571.24497 
L 918.684372 570.883298 
L 921.907844 572.295739 
L 925.131317 574.083029 
L 928.354789 578.340211 
L 931.578261 580.388644 
L 934.801733 579.245522 
L 938.025205 576.449963 
L 941.248677 577.636684 
L 944.47215 578.481975 
L 947.695622 581.54641 
L 950.919094 585.055837 
L 954.142566 583.94037 
L 957.366038 579.023513 
L 960.58951 570.037003 
L 963.812983 564.15378 
L 967.036455 562.575529 
L 970.259927 563.20508 
L 973.483399 569.244768 
L 976.706871 574.364922 
L 979.930344 580.595477 
L 983.153816 579.804109 
L 986.377288 577.745727 
L 989.60076 573.824374 
L 992.824232 567.973057 
L 996.047704 567.902235 
L 999.271177 567.497618 
L 1002.494649 571.734085 
L 1005.718121 574.746641 
L 1008.941593 573.732676 
L 1015.388538 572.358902 
L 1018.61201 573.226832 
L 1021.835482 575.70893 
L 1028.282426 581.075356 
L 1031.505898 584.075793 
L 1034.729371 582.794274 
L 1037.952843 579.308266 
L 1041.176315 576.73504 
L 1044.399787 574.623838 
L 1047.623259 573.673483 
L 1050.846732 573.492503 
L 1054.070204 572.941188 
L 1057.293676 574.419251 
L 1060.517148 574.338661 
L 1063.74062 577.860055 
L 1066.964092 579.121218 
L 1070.187565 577.918504 
L 1073.411037 572.870752 
L 1076.634509 572.194311 
L 1079.857981 572.443148 
L 1083.081453 569.700427 
L 1089.528398 574.944126 
L 1092.75187 579.817276 
L 1095.975342 586.053124 
L 1099.198814 586.062914 
L 1102.422286 585.822125 
L 1105.645759 584.370454 
L 1108.869231 580.404768 
L 1112.092703 575.825248 
L 1115.316175 572.179695 
L 1118.539647 571.468708 
L 1121.763119 572.687795 
L 1124.986592 575.402589 
L 1128.210064 580.697334 
L 1131.433536 581.401229 
L 1134.657008 578.006431 
L 1137.88048 576.550922 
L 1141.103953 574.806081 
L 1144.327425 575.520648 
L 1150.774369 581.485608 
L 1153.997841 582.103659 
L 1157.221313 579.049807 
L 1160.444786 573.742871 
L 1163.668258 569.733506 
L 1166.89173 570.098905 
L 1170.115202 574.2724 
L 1173.338674 577.614734 
L 1176.562147 576.902381 
L 1179.785619 579.406492 
L 1183.009091 596.879212 
L 1183.009091 596.879212 
" clip-path="url(#pc7173c180f)" style="fill: none; stroke: #ff7f0e; stroke-width: 1.5; stroke-linecap: square"/>
   </g>
   <g id="patch_3">
    <path d="M 171 640.8 
L 171 86.4 
" style="fill: none; stroke: #000000; stroke-width: 0.8; stroke-linejoin: miter; stroke-linecap: square"/>
   </g>
   <g id="patch_4">
    <path d="M 1231.2 640.8 
L 1231.2 86.4 
" style="fill: none; stroke: #000000; stroke-width: 0.8; stroke-linejoin: miter; stroke-linecap: square"/>
   </g>
   <g id="patch_5">
    <path d="M 171 640.8 
L 1231.2 640.8 
" style="fill: none; stroke: #000000; stroke-width: 0.8; stroke-linejoin: miter; stroke-linecap: square"/>
   </g>
   <g id="patch_6">
    <path d="M 171 86.4 
L 1231.2 86.4 
" style="fill: none; stroke: #000000; stroke-width: 0.8; stroke-linejoin: miter; stroke-linecap: square"/>
   </g>
  </g>
 </g>
 <defs>
  <clipPath id="pc7173c180f">
   <rect x="171" y="86.4" width="1060.2" height="554.4"/>
  </clipPath>
 </defs>
</svg>
