<?xml version="1.0" encoding="utf-8" standalone="no"?>
<!DOCTYPE svg PUBLIC "-//W3C//DTD SVG 1.1//EN"
  "http://www.w3.org/Graphics/SVG/1.1/DTD/svg11.dtd">
<svg xmlns:xlink="http://www.w3.org/1999/xlink" width="460.8pt" height="345.6pt" viewBox="0 0 460.8 345.6" xmlns="http://www.w3.org/2000/svg" version="1.1">
 <metadata>
  <rdf:RDF xmlns:dc="http://purl.org/dc/elements/1.1/" xmlns:cc="http://creativecommons.org/ns#" xmlns:rdf="http://www.w3.org/1999/02/22-rdf-syntax-ns#">
   <cc:Work>
    <dc:type rdf:resource="http://purl.org/dc/dcmitype/StillImage"/>
    <dc:date>2022-01-23T00:40:53.504323</dc:date>
    <dc:format>image/svg+xml</dc:format>
    <dc:creator>
     <cc:Agent>
      <dc:title>Matplotlib v3.5.1, https://matplotlib.org/</dc:title>
     </cc:Agent>
    </dc:creator>
   </cc:Work>
  </rdf:RDF>
 </metadata>
 <defs>
  <style type="text/css">*{stroke-linejoin: round; stroke-linecap: butt}</style>
 </defs>
 <g id="figure_1">
  <g id="patch_1">
   <path d="M 0 345.6 
L 460.8 345.6 
L 460.8 0 
L 0 0 
z
" style="fill: #ffffff"/>
  </g>
  <g id="axes_1">
   <g id="patch_2">
    <path d="M 57.6 307.584 
L 414.72 307.584 
L 414.72 41.472 
L 57.6 41.472 
z
" style="fill: #ffffff"/>
   </g>
   <g id="matplotlib.axis_1">
    <g id="xtick_1">
     <g id="line2d_1">
      <defs>
       <path id="m975fb977b3" d="M 0 0 
L 0 3.5 
" style="stroke: #000000; stroke-width: 0.8"/>
      </defs>
      <g>
       <use xlink:href="#m975fb977b3" x="83.419623" y="307.584" style="stroke: #000000; stroke-width: 0.8"/>
      </g>
     </g>
     <g id="text_1">
      <!-- −0.2 -->
      <g transform="translate(71.278217 322.182437)scale(0.1 -0.1)">
       <defs>
        <path id="DejaVuSans-2212" d="M 678 2272 
L 4684 2272 
L 4684 1741 
L 678 1741 
L 678 2272 
z
" transform="scale(0.015625)"/>
        <path id="DejaVuSans-30" d="M 2034 4250 
Q 1547 4250 1301 3770 
Q 1056 3291 1056 2328 
Q 1056 1369 1301 889 
Q 1547 409 2034 409 
Q 2525 409 2770 889 
Q 3016 1369 3016 2328 
Q 3016 3291 2770 3770 
Q 2525 4250 2034 4250 
z
M 2034 4750 
Q 2819 4750 3233 4129 
Q 3647 3509 3647 2328 
Q 3647 1150 3233 529 
Q 2819 -91 2034 -91 
Q 1250 -91 836 529 
Q 422 1150 422 2328 
Q 422 3509 836 4129 
Q 1250 4750 2034 4750 
z
" transform="scale(0.015625)"/>
        <path id="DejaVuSans-2e" d="M 684 794 
L 1344 794 
L 1344 0 
L 684 0 
L 684 794 
z
" transform="scale(0.015625)"/>
        <path id="DejaVuSans-32" d="M 1228 531 
L 3431 531 
L 3431 0 
L 469 0 
L 469 531 
Q 828 903 1448 1529 
Q 2069 2156 2228 2338 
Q 2531 2678 2651 2914 
Q 2772 3150 2772 3378 
Q 2772 3750 2511 3984 
Q 2250 4219 1831 4219 
Q 1534 4219 1204 4116 
Q 875 4013 500 3803 
L 500 4441 
Q 881 4594 1212 4672 
Q 1544 4750 1819 4750 
Q 2544 4750 2975 4387 
Q 3406 4025 3406 3419 
Q 3406 3131 3298 2873 
Q 3191 2616 2906 2266 
Q 2828 2175 2409 1742 
Q 1991 1309 1228 531 
z
" transform="scale(0.015625)"/>
       </defs>
       <use xlink:href="#DejaVuSans-2212"/>
       <use xlink:href="#DejaVuSans-30" x="83.789062"/>
       <use xlink:href="#DejaVuSans-2e" x="147.412109"/>
       <use xlink:href="#DejaVuSans-32" x="179.199219"/>
      </g>
     </g>
    </g>
    <g id="xtick_2">
     <g id="line2d_2">
      <g>
       <use xlink:href="#m975fb977b3" x="148.415528" y="307.584" style="stroke: #000000; stroke-width: 0.8"/>
      </g>
     </g>
     <g id="text_2">
      <!-- 0.0 -->
      <g transform="translate(140.463966 322.182437)scale(0.1 -0.1)">
       <use xlink:href="#DejaVuSans-30"/>
       <use xlink:href="#DejaVuSans-2e" x="63.623047"/>
       <use xlink:href="#DejaVuSans-30" x="95.410156"/>
      </g>
     </g>
    </g>
    <g id="xtick_3">
     <g id="line2d_3">
      <g>
       <use xlink:href="#m975fb977b3" x="213.411433" y="307.584" style="stroke: #000000; stroke-width: 0.8"/>
      </g>
     </g>
     <g id="text_3">
      <!-- 0.2 -->
      <g transform="translate(205.459871 322.182437)scale(0.1 -0.1)">
       <use xlink:href="#DejaVuSans-30"/>
       <use xlink:href="#DejaVuSans-2e" x="63.623047"/>
       <use xlink:href="#DejaVuSans-32" x="95.410156"/>
      </g>
     </g>
    </g>
    <g id="xtick_4">
     <g id="line2d_4">
      <g>
       <use xlink:href="#m975fb977b3" x="278.407338" y="307.584" style="stroke: #000000; stroke-width: 0.8"/>
      </g>
     </g>
     <g id="text_4">
      <!-- 0.4 -->
      <g transform="translate(270.455776 322.182437)scale(0.1 -0.1)">
       <defs>
        <path id="DejaVuSans-34" d="M 2419 4116 
L 825 1625 
L 2419 1625 
L 2419 4116 
z
M 2253 4666 
L 3047 4666 
L 3047 1625 
L 3713 1625 
L 3713 1100 
L 3047 1100 
L 3047 0 
L 2419 0 
L 2419 1100 
L 313 1100 
L 313 1709 
L 2253 4666 
z
" transform="scale(0.015625)"/>
       </defs>
       <use xlink:href="#DejaVuSans-30"/>
       <use xlink:href="#DejaVuSans-2e" x="63.623047"/>
       <use xlink:href="#DejaVuSans-34" x="95.410156"/>
      </g>
     </g>
    </g>
    <g id="xtick_5">
     <g id="line2d_5">
      <g>
       <use xlink:href="#m975fb977b3" x="343.403243" y="307.584" style="stroke: #000000; stroke-width: 0.8"/>
      </g>
     </g>
     <g id="text_5">
      <!-- 0.6 -->
      <g transform="translate(335.451681 322.182437)scale(0.1 -0.1)">
       <defs>
        <path id="DejaVuSans-36" d="M 2113 2584 
Q 1688 2584 1439 2293 
Q 1191 2003 1191 1497 
Q 1191 994 1439 701 
Q 1688 409 2113 409 
Q 2538 409 2786 701 
Q 3034 994 3034 1497 
Q 3034 2003 2786 2293 
Q 2538 2584 2113 2584 
z
M 3366 4563 
L 3366 3988 
Q 3128 4100 2886 4159 
Q 2644 4219 2406 4219 
Q 1781 4219 1451 3797 
Q 1122 3375 1075 2522 
Q 1259 2794 1537 2939 
Q 1816 3084 2150 3084 
Q 2853 3084 3261 2657 
Q 3669 2231 3669 1497 
Q 3669 778 3244 343 
Q 2819 -91 2113 -91 
Q 1303 -91 875 529 
Q 447 1150 447 2328 
Q 447 3434 972 4092 
Q 1497 4750 2381 4750 
Q 2619 4750 2861 4703 
Q 3103 4656 3366 4563 
z
" transform="scale(0.015625)"/>
       </defs>
       <use xlink:href="#DejaVuSans-30"/>
       <use xlink:href="#DejaVuSans-2e" x="63.623047"/>
       <use xlink:href="#DejaVuSans-36" x="95.410156"/>
      </g>
     </g>
    </g>
    <g id="xtick_6">
     <g id="line2d_6">
      <g>
       <use xlink:href="#m975fb977b3" x="408.399148" y="307.584" style="stroke: #000000; stroke-width: 0.8"/>
      </g>
     </g>
     <g id="text_6">
      <!-- 0.8 -->
      <g transform="translate(400.447586 322.182437)scale(0.1 -0.1)">
       <defs>
        <path id="DejaVuSans-38" d="M 2034 2216 
Q 1584 2216 1326 1975 
Q 1069 1734 1069 1313 
Q 1069 891 1326 650 
Q 1584 409 2034 409 
Q 2484 409 2743 651 
Q 3003 894 3003 1313 
Q 3003 1734 2745 1975 
Q 2488 2216 2034 2216 
z
M 1403 2484 
Q 997 2584 770 2862 
Q 544 3141 544 3541 
Q 544 4100 942 4425 
Q 1341 4750 2034 4750 
Q 2731 4750 3128 4425 
Q 3525 4100 3525 3541 
Q 3525 3141 3298 2862 
Q 3072 2584 2669 2484 
Q 3125 2378 3379 2068 
Q 3634 1759 3634 1313 
Q 3634 634 3220 271 
Q 2806 -91 2034 -91 
Q 1263 -91 848 271 
Q 434 634 434 1313 
Q 434 1759 690 2068 
Q 947 2378 1403 2484 
z
M 1172 3481 
Q 1172 3119 1398 2916 
Q 1625 2713 2034 2713 
Q 2441 2713 2670 2916 
Q 2900 3119 2900 3481 
Q 2900 3844 2670 4047 
Q 2441 4250 2034 4250 
Q 1625 4250 1398 4047 
Q 1172 3844 1172 3481 
z
" transform="scale(0.015625)"/>
       </defs>
       <use xlink:href="#DejaVuSans-30"/>
       <use xlink:href="#DejaVuSans-2e" x="63.623047"/>
       <use xlink:href="#DejaVuSans-38" x="95.410156"/>
      </g>
     </g>
    </g>
    <g id="text_7">
     <!-- second -->
     <g transform="translate(218.327188 335.860562)scale(0.1 -0.1)">
      <defs>
       <path id="DejaVuSans-73" d="M 2834 3397 
L 2834 2853 
Q 2591 2978 2328 3040 
Q 2066 3103 1784 3103 
Q 1356 3103 1142 2972 
Q 928 2841 928 2578 
Q 928 2378 1081 2264 
Q 1234 2150 1697 2047 
L 1894 2003 
Q 2506 1872 2764 1633 
Q 3022 1394 3022 966 
Q 3022 478 2636 193 
Q 2250 -91 1575 -91 
Q 1294 -91 989 -36 
Q 684 19 347 128 
L 347 722 
Q 666 556 975 473 
Q 1284 391 1588 391 
Q 1994 391 2212 530 
Q 2431 669 2431 922 
Q 2431 1156 2273 1281 
Q 2116 1406 1581 1522 
L 1381 1569 
Q 847 1681 609 1914 
Q 372 2147 372 2553 
Q 372 3047 722 3315 
Q 1072 3584 1716 3584 
Q 2034 3584 2315 3537 
Q 2597 3491 2834 3397 
z
" transform="scale(0.015625)"/>
       <path id="DejaVuSans-65" d="M 3597 1894 
L 3597 1613 
L 953 1613 
Q 991 1019 1311 708 
Q 1631 397 2203 397 
Q 2534 397 2845 478 
Q 3156 559 3463 722 
L 3463 178 
Q 3153 47 2828 -22 
Q 2503 -91 2169 -91 
Q 1331 -91 842 396 
Q 353 884 353 1716 
Q 353 2575 817 3079 
Q 1281 3584 2069 3584 
Q 2775 3584 3186 3129 
Q 3597 2675 3597 1894 
z
M 3022 2063 
Q 3016 2534 2758 2815 
Q 2500 3097 2075 3097 
Q 1594 3097 1305 2825 
Q 1016 2553 972 2059 
L 3022 2063 
z
" transform="scale(0.015625)"/>
       <path id="DejaVuSans-63" d="M 3122 3366 
L 3122 2828 
Q 2878 2963 2633 3030 
Q 2388 3097 2138 3097 
Q 1578 3097 1268 2742 
Q 959 2388 959 1747 
Q 959 1106 1268 751 
Q 1578 397 2138 397 
Q 2388 397 2633 464 
Q 2878 531 3122 666 
L 3122 134 
Q 2881 22 2623 -34 
Q 2366 -91 2075 -91 
Q 1284 -91 818 406 
Q 353 903 353 1747 
Q 353 2603 823 3093 
Q 1294 3584 2113 3584 
Q 2378 3584 2631 3529 
Q 2884 3475 3122 3366 
z
" transform="scale(0.015625)"/>
       <path id="DejaVuSans-6f" d="M 1959 3097 
Q 1497 3097 1228 2736 
Q 959 2375 959 1747 
Q 959 1119 1226 758 
Q 1494 397 1959 397 
Q 2419 397 2687 759 
Q 2956 1122 2956 1747 
Q 2956 2369 2687 2733 
Q 2419 3097 1959 3097 
z
M 1959 3584 
Q 2709 3584 3137 3096 
Q 3566 2609 3566 1747 
Q 3566 888 3137 398 
Q 2709 -91 1959 -91 
Q 1206 -91 779 398 
Q 353 888 353 1747 
Q 353 2609 779 3096 
Q 1206 3584 1959 3584 
z
" transform="scale(0.015625)"/>
       <path id="DejaVuSans-6e" d="M 3513 2113 
L 3513 0 
L 2938 0 
L 2938 2094 
Q 2938 2591 2744 2837 
Q 2550 3084 2163 3084 
Q 1697 3084 1428 2787 
Q 1159 2491 1159 1978 
L 1159 0 
L 581 0 
L 581 3500 
L 1159 3500 
L 1159 2956 
Q 1366 3272 1645 3428 
Q 1925 3584 2291 3584 
Q 2894 3584 3203 3211 
Q 3513 2838 3513 2113 
z
" transform="scale(0.015625)"/>
       <path id="DejaVuSans-64" d="M 2906 2969 
L 2906 4863 
L 3481 4863 
L 3481 0 
L 2906 0 
L 2906 525 
Q 2725 213 2448 61 
Q 2172 -91 1784 -91 
Q 1150 -91 751 415 
Q 353 922 353 1747 
Q 353 2572 751 3078 
Q 1150 3584 1784 3584 
Q 2172 3584 2448 3432 
Q 2725 3281 2906 2969 
z
M 947 1747 
Q 947 1113 1208 752 
Q 1469 391 1925 391 
Q 2381 391 2643 752 
Q 2906 1113 2906 1747 
Q 2906 2381 2643 2742 
Q 2381 3103 1925 3103 
Q 1469 3103 1208 2742 
Q 947 2381 947 1747 
z
" transform="scale(0.015625)"/>
      </defs>
      <use xlink:href="#DejaVuSans-73"/>
      <use xlink:href="#DejaVuSans-65" x="52.099609"/>
      <use xlink:href="#DejaVuSans-63" x="113.623047"/>
      <use xlink:href="#DejaVuSans-6f" x="168.603516"/>
      <use xlink:href="#DejaVuSans-6e" x="229.785156"/>
      <use xlink:href="#DejaVuSans-64" x="293.164062"/>
     </g>
    </g>
   </g>
   <g id="matplotlib.axis_2">
    <g id="ytick_1">
     <g id="line2d_7">
      <defs>
       <path id="m6d16032f22" d="M 0 0 
L -3.5 0 
" style="stroke: #000000; stroke-width: 0.8"/>
      </defs>
      <g>
       <use xlink:href="#m6d16032f22" x="57.6" y="287.873088" style="stroke: #000000; stroke-width: 0.8"/>
      </g>
     </g>
     <g id="text_8">
      <!-- 0.0 -->
      <g transform="translate(34.696875 291.672307)scale(0.1 -0.1)">
       <use xlink:href="#DejaVuSans-30"/>
       <use xlink:href="#DejaVuSans-2e" x="63.623047"/>
       <use xlink:href="#DejaVuSans-30" x="95.410156"/>
      </g>
     </g>
    </g>
    <g id="ytick_2">
     <g id="line2d_8">
      <g>
       <use xlink:href="#m6d16032f22" x="57.6" y="241.246375" style="stroke: #000000; stroke-width: 0.8"/>
      </g>
     </g>
     <g id="text_9">
      <!-- 0.2 -->
      <g transform="translate(34.696875 245.045593)scale(0.1 -0.1)">
       <use xlink:href="#DejaVuSans-30"/>
       <use xlink:href="#DejaVuSans-2e" x="63.623047"/>
       <use xlink:href="#DejaVuSans-32" x="95.410156"/>
      </g>
     </g>
    </g>
    <g id="ytick_3">
     <g id="line2d_9">
      <g>
       <use xlink:href="#m6d16032f22" x="57.6" y="194.619661" style="stroke: #000000; stroke-width: 0.8"/>
      </g>
     </g>
     <g id="text_10">
      <!-- 0.4 -->
      <g transform="translate(34.696875 198.41888)scale(0.1 -0.1)">
       <use xlink:href="#DejaVuSans-30"/>
       <use xlink:href="#DejaVuSans-2e" x="63.623047"/>
       <use xlink:href="#DejaVuSans-34" x="95.410156"/>
      </g>
     </g>
    </g>
    <g id="ytick_4">
     <g id="line2d_10">
      <g>
       <use xlink:href="#m6d16032f22" x="57.6" y="147.992947" style="stroke: #000000; stroke-width: 0.8"/>
      </g>
     </g>
     <g id="text_11">
      <!-- 0.6 -->
      <g transform="translate(34.696875 151.792166)scale(0.1 -0.1)">
       <use xlink:href="#DejaVuSans-30"/>
       <use xlink:href="#DejaVuSans-2e" x="63.623047"/>
       <use xlink:href="#DejaVuSans-36" x="95.410156"/>
      </g>
     </g>
    </g>
    <g id="ytick_5">
     <g id="line2d_11">
      <g>
       <use xlink:href="#m6d16032f22" x="57.6" y="101.366233" style="stroke: #000000; stroke-width: 0.8"/>
      </g>
     </g>
     <g id="text_12">
      <!-- 0.8 -->
      <g transform="translate(34.696875 105.165452)scale(0.1 -0.1)">
       <use xlink:href="#DejaVuSans-30"/>
       <use xlink:href="#DejaVuSans-2e" x="63.623047"/>
       <use xlink:href="#DejaVuSans-38" x="95.410156"/>
      </g>
     </g>
    </g>
    <g id="ytick_6">
     <g id="line2d_12">
      <g>
       <use xlink:href="#m6d16032f22" x="57.6" y="54.739519" style="stroke: #000000; stroke-width: 0.8"/>
      </g>
     </g>
     <g id="text_13">
      <!-- 1.0 -->
      <g transform="translate(34.696875 58.538738)scale(0.1 -0.1)">
       <defs>
        <path id="DejaVuSans-31" d="M 794 531 
L 1825 531 
L 1825 4091 
L 703 3866 
L 703 4441 
L 1819 4666 
L 2450 4666 
L 2450 531 
L 3481 531 
L 3481 0 
L 794 0 
L 794 531 
z
" transform="scale(0.015625)"/>
       </defs>
       <use xlink:href="#DejaVuSans-31"/>
       <use xlink:href="#DejaVuSans-2e" x="63.623047"/>
       <use xlink:href="#DejaVuSans-30" x="95.410156"/>
      </g>
     </g>
    </g>
    <g id="text_14">
     <!-- volt -->
     <g transform="translate(28.617188 183.895969)rotate(-90)scale(0.1 -0.1)">
      <defs>
       <path id="DejaVuSans-76" d="M 191 3500 
L 800 3500 
L 1894 563 
L 2988 3500 
L 3597 3500 
L 2284 0 
L 1503 0 
L 191 3500 
z
" transform="scale(0.015625)"/>
       <path id="DejaVuSans-6c" d="M 603 4863 
L 1178 4863 
L 1178 0 
L 603 0 
L 603 4863 
z
" transform="scale(0.015625)"/>
       <path id="DejaVuSans-74" d="M 1172 4494 
L 1172 3500 
L 2356 3500 
L 2356 3053 
L 1172 3053 
L 1172 1153 
Q 1172 725 1289 603 
Q 1406 481 1766 481 
L 2356 481 
L 2356 0 
L 1766 0 
Q 1100 0 847 248 
Q 594 497 594 1153 
L 594 3053 
L 172 3053 
L 172 3500 
L 594 3500 
L 594 4494 
L 1172 4494 
z
" transform="scale(0.015625)"/>
      </defs>
      <use xlink:href="#DejaVuSans-76"/>
      <use xlink:href="#DejaVuSans-6f" x="59.179688"/>
      <use xlink:href="#DejaVuSans-6c" x="120.361328"/>
      <use xlink:href="#DejaVuSans-74" x="148.144531"/>
     </g>
    </g>
   </g>
   <g id="line2d_13">
    <path d="M 73.832727 292.55919 
L 77.407502 292.55919 
L 77.569992 290.801899 
L 77.732482 292.55919 
L 78.382441 292.55919 
L 78.54493 289.630379 
L 79.194889 294.316481 
L 79.357379 292.55919 
L 80.169828 292.55919 
L 80.332318 294.316481 
L 80.494808 292.55919 
L 80.657297 292.55919 
L 80.819787 290.801899 
L 80.982277 292.55919 
L 82.444685 292.55919 
L 82.607174 295.488 
L 82.769664 292.55919 
L 84.394562 292.55919 
L 84.557052 289.630379 
L 84.719541 292.55919 
L 85.85697 292.55919 
L 86.019459 294.316481 
L 86.181949 292.55919 
L 87.644357 292.55919 
L 87.806847 289.630379 
L 88.294316 292.55919 
L 88.619296 292.55919 
L 88.781785 289.630379 
L 89.269255 292.55919 
L 89.431744 289.630379 
L 89.594234 292.55919 
L 89.756724 292.55919 
L 89.919214 295.488 
L 90.081704 292.55919 
L 92.68154 292.55919 
L 92.844029 289.630379 
L 93.006519 290.801899 
L 93.169009 289.630379 
L 93.331499 292.55919 
L 95.768845 292.55919 
L 95.931335 294.316481 
L 96.093825 292.55919 
L 96.743784 292.55919 
L 96.906274 289.630379 
L 97.068763 292.55919 
L 98.531171 292.55919 
L 98.693661 295.488 
L 98.856151 292.55919 
L 99.993579 292.55919 
L 100.156069 289.630379 
L 100.318559 292.55919 
L 100.643538 292.55919 
L 100.806028 289.630379 
L 100.968518 289.630379 
L 101.131007 292.55919 
L 101.293497 292.55919 
L 101.455987 294.316481 
L 101.618477 292.55919 
L 101.780966 294.316481 
L 101.943456 292.55919 
L 104.705782 292.55919 
L 104.868272 295.488 
L 105.030762 292.55919 
L 105.355741 292.55919 
L 105.680721 289.630379 
L 105.84321 292.55919 
L 106.0057 292.55919 
L 106.16819 289.630379 
L 106.33068 292.55919 
L 106.655659 292.55919 
L 106.818149 291.38767 
L 106.980639 292.55919 
L 107.793088 292.55919 
L 107.955577 290.801899 
L 108.280557 294.316481 
L 108.443047 290.801899 
L 108.605536 292.55919 
L 109.580475 292.55919 
L 109.742965 289.630379 
L 109.905455 292.55919 
L 112.017821 292.55919 
L 112.342801 289.630379 
L 112.505291 292.55919 
L 113.967699 292.55919 
L 114.130188 294.316481 
L 114.292678 292.55919 
L 114.455168 292.55919 
L 114.617658 289.630379 
L 114.780147 292.55919 
L 114.942637 287.873088 
L 115.105127 292.55919 
L 115.267617 292.55919 
L 115.430106 290.801899 
L 115.592596 292.55919 
L 116.080066 292.55919 
L 116.242555 287.873088 
L 116.405045 292.55919 
L 117.542473 292.55919 
L 117.704963 289.630379 
L 117.867453 292.55919 
L 119.329861 292.55919 
L 119.492351 290.801899 
L 119.65484 292.55919 
L 119.81733 292.55919 
L 119.97982 295.488 
L 120.14231 292.55919 
L 120.467289 292.55919 
L 120.629779 290.801899 
L 120.792269 292.55919 
L 123.067125 292.55919 
L 123.229615 289.630379 
L 123.392105 292.55919 
L 123.879574 292.55919 
L 124.204554 287.873088 
L 124.367043 292.55919 
L 125.341982 292.55919 
L 125.504472 289.630379 
L 125.666962 292.55919 
L 127.779328 292.55919 
L 128.104308 289.630379 
L 128.266798 292.55919 
L 129.079247 292.55919 
L 129.241736 289.630379 
L 129.404226 292.55919 
L 130.704144 292.55919 
L 130.866634 289.630379 
L 131.029124 292.55919 
L 131.516593 292.55919 
L 131.679083 294.316481 
L 131.841572 292.55919 
L 132.004062 292.55919 
L 132.166552 290.801899 
L 132.329042 292.55919 
L 133.79145 292.55919 
L 133.953939 289.630379 
L 134.116429 292.55919 
L 136.066306 292.55919 
L 136.228796 294.316481 
L 136.391286 292.55919 
L 137.691204 292.55919 
L 137.853694 294.316481 
L 138.016183 292.55919 
L 138.666143 292.55919 
L 138.828632 294.316481 
L 139.153612 290.801899 
L 139.316102 292.55919 
L 139.641081 292.55919 
L 139.803571 290.801899 
L 139.966061 292.55919 
L 140.29104 292.55919 
L 140.45353 295.488 
L 140.61602 290.801899 
L 140.778509 292.55919 
L 140.940999 292.55919 
L 141.103489 295.488 
L 141.265979 290.801899 
L 141.428468 289.630379 
L 141.590958 292.55919 
L 141.753448 292.55919 
L 141.915938 295.488 
L 142.078428 292.55919 
L 142.565897 292.55919 
L 142.728387 294.316481 
L 142.890876 292.55919 
L 146.628141 292.55919 
L 146.790631 289.630379 
L 146.95312 294.316481 
L 147.11561 292.55919 
L 148.253038 292.55919 
L 148.415528 58.254101 
L 148.578018 58.254101 
L 148.740508 53.568 
L 148.902998 58.254101 
L 149.227977 53.568 
L 149.552957 58.254101 
L 149.877936 58.254101 
L 150.040426 55.325291 
L 150.202916 58.254101 
L 150.365405 56.49681 
L 150.690385 56.49681 
L 151.015364 53.568 
L 151.340344 58.254101 
L 151.502834 58.254101 
L 151.827813 55.325291 
L 151.990303 58.254101 
L 152.477772 58.254101 
L 152.640262 55.325291 
L 152.802752 58.254101 
L 152.965242 58.254101 
L 153.127731 56.49681 
L 153.290221 58.254101 
L 153.615201 55.325291 
L 153.94018 55.325291 
L 154.10267 58.254101 
L 154.427649 58.254101 
L 154.590139 61.182912 
L 154.915119 56.49681 
L 155.077609 58.254101 
L 155.240098 55.325291 
L 155.402588 61.182912 
L 155.565078 55.325291 
L 155.727568 55.325291 
L 155.890057 53.568 
L 156.052547 58.254101 
L 156.215037 58.254101 
L 156.377527 55.325291 
L 156.540016 58.254101 
L 156.702506 58.254101 
L 156.864996 56.49681 
L 157.027486 56.49681 
L 157.189975 58.254101 
L 157.352465 58.254101 
L 157.514955 56.49681 
L 157.677445 58.254101 
L 157.839934 58.254101 
L 158.002424 53.568 
L 158.327404 56.49681 
L 158.489894 53.568 
L 158.652383 56.49681 
L 159.139853 56.49681 
L 159.464832 53.568 
L 159.627322 58.254101 
L 159.789812 55.325291 
L 160.114791 58.254101 
L 160.277281 55.325291 
L 160.439771 56.49681 
L 160.60226 53.568 
L 160.92724 58.254101 
L 161.08973 58.254101 
L 161.252219 55.325291 
L 161.577199 58.254101 
L 161.739689 55.325291 
L 161.902179 56.49681 
L 162.227158 56.49681 
L 162.389648 58.254101 
L 162.877117 58.254101 
L 163.039607 56.49681 
L 163.202097 56.49681 
L 163.364586 53.568 
L 163.689566 58.254101 
L 164.014545 55.325291 
L 164.177035 58.254101 
L 164.339525 58.254101 
L 164.502015 55.325291 
L 164.664505 58.254101 
L 164.826994 56.49681 
L 164.989484 58.254101 
L 165.151974 53.568 
L 165.314464 55.325291 
L 165.476953 53.568 
L 165.639443 58.254101 
L 165.801933 58.254101 
L 165.964423 55.325291 
L 166.451892 58.254101 
L 166.776871 53.568 
L 166.939361 53.568 
L 167.101851 58.254101 
L 167.264341 58.254101 
L 167.42683 55.325291 
L 167.58932 58.254101 
L 167.75181 56.49681 
L 167.9143 56.49681 
L 168.07679 58.254101 
L 168.239279 58.254101 
L 168.401769 53.568 
L 168.726749 58.254101 
L 168.889238 56.49681 
L 169.051728 56.49681 
L 169.214218 58.254101 
L 169.376708 58.254101 
L 169.701687 53.568 
L 169.864177 53.568 
L 170.026667 58.254101 
L 170.189156 55.325291 
L 170.351646 58.254101 
L 170.676626 53.568 
L 170.839115 58.254101 
L 171.001605 58.254101 
L 171.164095 56.49681 
L 171.326585 56.49681 
L 171.489075 55.325291 
L 171.651564 58.254101 
L 171.814054 56.49681 
L 171.976544 56.49681 
L 172.139034 58.254101 
L 172.301523 58.254101 
L 172.464013 55.325291 
L 172.626503 58.254101 
L 173.113972 58.254101 
L 173.276462 56.49681 
L 173.438952 56.49681 
L 173.601441 55.325291 
L 173.763931 58.254101 
L 173.926421 55.325291 
L 174.088911 58.254101 
L 174.41389 55.325291 
L 174.57638 58.254101 
L 174.90136 58.254101 
L 175.226339 55.325291 
L 175.388829 55.325291 
L 175.551319 58.254101 
L 175.713808 53.568 
L 176.038788 58.254101 
L 176.201278 58.254101 
L 176.363767 56.49681 
L 176.526257 58.254101 
L 176.688747 58.254101 
L 176.851237 55.325291 
L 177.013726 58.254101 
L 177.176216 58.254101 
L 177.338706 56.49681 
L 177.501196 58.254101 
L 178.151155 58.254101 
L 178.476134 55.325291 
L 178.638624 58.254101 
L 178.801114 56.49681 
L 179.288583 56.49681 
L 179.451073 58.254101 
L 179.613563 56.49681 
L 179.776052 58.254101 
L 179.938542 58.254101 
L 180.101032 55.325291 
L 180.263522 55.325291 
L 180.426011 58.254101 
L 180.588501 55.325291 
L 180.750991 58.254101 
L 180.913481 292.55919 
L 182.050909 292.55919 
L 182.213399 294.316481 
L 182.375889 292.55919 
L 183.188337 292.55919 
L 183.350827 294.316481 
L 183.513317 292.55919 
L 183.675807 292.55919 
L 183.838296 290.801899 
L 184.000786 292.55919 
L 184.163276 289.630379 
L 184.325766 292.55919 
L 184.650745 292.55919 
L 184.975725 289.630379 
L 185.138215 292.55919 
L 185.950663 292.55919 
L 186.113153 290.801899 
L 186.275643 292.55919 
L 186.438133 292.55919 
L 186.600622 289.630379 
L 186.763112 292.55919 
L 187.738051 292.55919 
L 187.900541 294.316481 
L 188.06303 292.55919 
L 189.850418 292.55919 
L 190.012907 289.630379 
L 190.175397 292.55919 
L 190.337887 292.55919 
L 190.500377 289.630379 
L 190.662867 292.55919 
L 191.475315 292.55919 
L 191.637805 290.801899 
L 191.800295 292.55919 
L 191.962785 292.55919 
L 192.125274 290.801899 
L 192.287764 292.55919 
L 192.450254 289.630379 
L 192.612744 292.55919 
L 192.937723 292.55919 
L 193.100213 295.488 
L 193.425192 289.630379 
L 193.587682 292.55919 
L 194.562621 292.55919 
L 194.725111 290.801899 
L 195.05009 295.488 
L 195.21258 292.55919 
L 196.674988 292.55919 
L 196.837477 290.801899 
L 196.999967 292.55919 
L 197.162457 290.801899 
L 197.324947 292.55919 
L 197.649926 292.55919 
L 197.812416 290.801899 
L 197.974906 290.801899 
L 198.137396 289.630379 
L 198.299885 292.55919 
L 199.274824 292.55919 
L 199.437314 289.630379 
L 199.599803 292.55919 
L 200.087273 292.55919 
L 200.249762 294.316481 
L 200.412252 292.55919 
L 201.549681 292.55919 
L 201.71217 294.316481 
L 201.87466 292.55919 
L 202.19964 292.55919 
L 202.362129 290.801899 
L 202.524619 292.55919 
L 203.174578 292.55919 
L 203.337068 290.801899 
L 203.499558 290.801899 
L 203.662048 292.55919 
L 204.474496 292.55919 
L 204.636986 293.730709 
L 204.799476 292.55919 
L 205.124455 292.55919 
L 205.286945 290.801899 
L 205.449435 292.55919 
L 205.611925 292.55919 
L 205.774414 294.316481 
L 205.936904 292.55919 
L 206.911843 292.55919 
L 207.074333 290.801899 
L 207.399312 294.316481 
L 207.561802 292.55919 
L 210.324128 292.55919 
L 210.486618 294.316481 
L 210.649107 292.55919 
L 211.299066 292.55919 
L 211.461556 289.630379 
L 211.624046 292.55919 
L 213.736413 292.55919 
L 213.898903 289.630379 
L 214.061392 289.630379 
L 214.223882 292.55919 
L 216.173759 292.55919 
L 216.336249 289.630379 
L 216.498739 292.55919 
L 217.798657 292.55919 
L 217.961147 289.630379 
L 218.123636 292.55919 
L 219.911024 292.55919 
L 220.073514 289.630379 
L 220.398493 295.488 
L 220.560983 292.55919 
L 220.723473 293.730709 
L 220.885962 292.55919 
L 221.698411 292.55919 
L 221.860901 295.488 
L 222.023391 287.873088 
L 222.34837 292.55919 
L 223.323309 292.55919 
L 223.485799 290.801899 
L 223.648288 292.55919 
L 223.810778 292.55919 
L 223.973268 287.873088 
L 224.135758 292.55919 
L 225.110696 292.55919 
L 225.273186 290.801899 
L 225.435676 295.488 
L 225.598165 292.55919 
L 228.522981 292.55919 
L 228.685471 290.801899 
L 228.847961 292.55919 
L 229.822899 292.55919 
L 230.147879 289.630379 
L 230.472858 292.55919 
L 230.635348 289.630379 
L 230.797838 295.488 
L 231.122817 289.630379 
L 231.285307 292.55919 
L 231.772776 292.55919 
L 231.935266 294.316481 
L 232.097756 292.55919 
L 232.910205 292.55919 
L 233.072695 290.801899 
L 233.235184 292.55919 
L 234.210123 292.55919 
L 234.372613 294.316481 
L 234.535102 292.55919 
L 237.784898 292.55919 
L 237.947387 294.316481 
L 238.109877 294.316481 
L 238.434857 290.801899 
L 238.597346 292.55919 
L 238.922326 292.55919 
L 239.084816 289.630379 
L 239.247305 292.55919 
L 239.897265 292.55919 
L 240.059754 294.316481 
L 240.222244 292.55919 
L 241.847142 292.55919 
L 242.009631 290.801899 
L 242.172121 292.55919 
L 243.472039 292.55919 
L 243.634529 295.488 
L 243.797019 294.316481 
L 243.959509 295.488 
L 244.121998 292.55919 
L 244.284488 292.55919 
L 244.446978 289.630379 
L 244.934447 292.55919 
L 246.234365 292.55919 
L 246.396855 287.873088 
L 246.884324 292.55919 
L 247.209304 292.55919 
L 247.371794 295.488 
L 247.534283 292.55919 
L 248.834201 292.55919 
L 248.996691 290.801899 
L 249.159181 290.801899 
L 249.321671 292.55919 
L 249.97163 292.55919 
L 250.13412 294.316481 
L 250.296609 292.55919 
L 252.896446 292.55919 
L 253.058935 294.316481 
L 253.221425 292.55919 
L 253.871384 292.55919 
L 254.033874 290.801899 
L 254.196364 290.801899 
L 254.358853 292.55919 
L 255.496282 292.55919 
L 255.658771 294.316481 
L 255.821261 292.55919 
L 257.446159 292.55919 
L 257.608649 290.801899 
L 257.771138 294.316481 
L 257.933628 292.55919 
L 258.421097 292.55919 
L 258.583587 290.801899 
L 258.746077 292.55919 
L 259.233546 292.55919 
L 259.396036 294.316481 
L 259.558526 292.55919 
L 259.883505 292.55919 
L 260.045995 289.630379 
L 260.208485 292.55919 
L 260.370975 289.630379 
L 260.533464 292.55919 
L 262.158362 292.55919 
L 262.320852 290.801899 
L 262.483342 295.488 
L 262.645831 292.55919 
L 265.895627 292.55919 
L 266.058116 290.801899 
L 266.220606 292.55919 
L 266.545586 292.55919 
L 266.708075 289.630379 
L 266.870565 292.55919 
L 267.033055 292.55919 
L 267.195545 290.801899 
L 267.358034 292.55919 
L 268.007993 292.55919 
L 268.170483 290.801899 
L 268.332973 292.55919 
L 268.495463 292.55919 
L 268.657952 289.630379 
L 268.820442 289.630379 
L 268.982932 292.55919 
L 270.28285 292.55919 
L 270.44534 294.316481 
L 270.60783 289.630379 
L 270.770319 289.630379 
L 270.932809 292.55919 
L 271.745258 292.55919 
L 271.907748 289.630379 
L 272.070238 292.55919 
L 272.395217 292.55919 
L 272.557707 289.630379 
L 272.720197 292.55919 
L 272.882686 289.630379 
L 273.045176 292.55919 
L 273.370156 292.55919 
L 273.532645 290.801899 
L 273.695135 292.55919 
L 274.182604 292.55919 
L 274.345094 289.630379 
L 274.507584 292.55919 
L 274.832563 292.55919 
L 274.995053 290.801899 
L 275.157543 292.55919 
L 275.320033 290.801899 
L 275.482523 292.55919 
L 275.807502 292.55919 
L 275.969992 289.630379 
L 276.132482 294.316481 
L 276.294971 292.55919 
L 277.26991 292.55919 
L 277.4324 289.630379 
L 277.594889 294.316481 
L 277.757379 292.55919 
L 278.732318 292.55919 
L 278.894808 289.630379 
L 279.057297 292.55919 
L 279.382277 292.55919 
L 279.544767 290.801899 
L 279.707256 292.55919 
L 279.869746 289.630379 
L 280.032236 292.55919 
L 280.194726 292.55919 
L 280.357215 289.630379 
L 280.519705 292.55919 
L 281.007174 292.55919 
L 281.169664 289.630379 
L 281.332154 292.55919 
L 281.657133 292.55919 
L 281.819623 289.630379 
L 281.982113 292.55919 
L 283.7695 292.55919 
L 283.93199 294.316481 
L 284.09448 292.55919 
L 284.906929 292.55919 
L 285.069419 295.488 
L 285.394398 289.630379 
L 285.556888 292.55919 
L 285.881867 292.55919 
L 286.044357 289.630379 
L 286.206847 292.55919 
L 286.369337 292.55919 
L 286.531826 290.801899 
L 286.694316 290.801899 
L 286.856806 292.55919 
L 287.181785 292.55919 
L 287.344275 289.630379 
L 287.506765 292.55919 
L 287.669255 289.630379 
L 287.831744 292.55919 
L 287.994234 292.55919 
L 288.156724 290.801899 
L 288.319214 292.55919 
L 288.806683 292.55919 
L 288.969173 289.630379 
L 289.131663 292.55919 
L 289.294152 289.630379 
L 289.456642 292.55919 
L 289.619132 292.55919 
L 289.781622 289.630379 
L 289.944111 289.630379 
L 290.106601 292.55919 
L 291.08154 292.55919 
L 291.244029 289.630379 
L 291.406519 292.55919 
L 292.056478 292.55919 
L 292.218968 290.801899 
L 292.381458 292.55919 
L 294.493825 292.55919 
L 294.656314 290.801899 
L 294.818804 292.55919 
L 295.468763 292.55919 
L 295.631253 289.630379 
L 295.793743 292.55919 
L 296.768681 292.55919 
L 296.931171 290.801899 
L 297.093661 292.55919 
L 298.881048 292.55919 
L 299.043538 294.316481 
L 299.206028 292.55919 
L 299.368518 292.55919 
L 299.531007 287.873088 
L 299.693497 292.55919 
L 300.180966 292.55919 
L 300.343456 289.630379 
L 300.505946 292.55919 
L 300.993415 292.55919 
L 301.155905 290.801899 
L 301.318395 292.55919 
L 303.430762 292.55919 
L 303.593251 289.630379 
L 303.755741 292.55919 
L 305.055659 292.55919 
L 305.218149 290.801899 
L 305.380639 292.55919 
L 306.030598 292.55919 
L 306.193088 290.801899 
L 306.355577 292.55919 
L 306.518067 292.55919 
L 306.680557 289.630379 
L 307.168026 292.55919 
L 308.630434 292.55919 
L 308.792924 294.316481 
L 309.117903 289.630379 
L 309.280393 294.316481 
L 309.442883 290.801899 
L 309.605373 292.55919 
L 309.767862 290.801899 
L 309.930352 292.55919 
L 311.55525 292.55919 
L 311.71774 294.316481 
L 311.880229 292.55919 
L 312.205209 292.55919 
L 312.367699 289.630379 
L 312.530188 292.55919 
L 312.692678 289.630379 
L 313.180147 292.55919 
L 314.155086 292.55919 
L 314.317576 289.630379 
L 314.480066 292.55919 
L 315.292514 292.55919 
L 315.455004 290.801899 
L 315.617494 292.55919 
L 315.942473 292.55919 
L 316.104963 289.630379 
L 316.267453 292.55919 
L 316.754922 292.55919 
L 316.917412 290.801899 
L 317.079902 292.55919 
L 318.37982 292.55919 
L 318.54231 290.801899 
L 318.704799 292.55919 
L 319.029779 292.55919 
L 319.192269 289.630379 
L 319.354758 294.316481 
L 319.517248 292.55919 
L 319.679738 292.55919 
L 319.842228 290.801899 
L 320.167207 294.316481 
L 320.329697 292.55919 
L 320.492187 292.55919 
L 320.654676 294.316481 
L 320.817166 292.55919 
L 321.629615 292.55919 
L 321.792105 289.630379 
L 321.954595 292.55919 
L 322.117084 287.873088 
L 322.279574 292.55919 
L 322.442064 292.55919 
L 322.604554 290.801899 
L 322.767043 292.55919 
L 323.254513 292.55919 
L 323.417002 290.801899 
L 323.579492 292.55919 
L 324.066962 292.55919 
L 324.229451 290.801899 
L 324.554431 294.316481 
L 324.87941 290.801899 
L 325.0419 292.55919 
L 325.691859 292.55919 
L 325.854349 289.630379 
L 326.016839 292.55919 
L 326.504308 292.55919 
L 326.666798 294.316481 
L 326.829287 290.801899 
L 327.154267 294.316481 
L 327.316757 292.55919 
L 327.641736 292.55919 
L 327.804226 290.801899 
L 328.129206 295.488 
L 328.291695 292.55919 
L 328.454185 292.55919 
L 328.616675 289.630379 
L 328.779165 292.55919 
L 328.941654 292.55919 
L 329.104144 290.801899 
L 329.429124 295.488 
L 329.591613 292.55919 
L 332.02896 292.55919 
L 332.19145 289.630379 
L 332.353939 292.55919 
L 332.516429 290.801899 
L 332.678919 292.55919 
L 333.491368 292.55919 
L 333.653857 289.630379 
L 333.816347 292.55919 
L 333.978837 290.801899 
L 334.141327 292.55919 
L 334.466306 292.55919 
L 334.628796 294.316481 
L 334.791286 290.801899 
L 334.953776 292.55919 
L 335.116265 292.55919 
L 335.278755 290.801899 
L 335.441245 292.55919 
L 335.928714 292.55919 
L 336.091204 289.630379 
L 336.253694 292.55919 
L 336.903653 292.55919 
L 337.066143 295.488 
L 337.391122 292.55919 
L 337.553612 289.630379 
L 337.716102 292.55919 
L 340.478428 292.55919 
L 340.640917 290.801899 
L 340.803407 292.55919 
L 341.778346 292.55919 
L 341.940835 289.630379 
L 342.103325 292.55919 
L 342.265815 289.630379 
L 342.590794 293.730709 
L 342.753284 290.801899 
L 342.915774 290.801899 
L 343.078264 289.630379 
L 343.240753 292.55919 
L 344.053202 292.55919 
L 344.215692 294.316481 
L 344.378182 292.55919 
L 344.703161 292.55919 
L 344.865651 294.316481 
L 345.028141 292.55919 
L 346.165569 292.55919 
L 346.328059 290.801899 
L 346.490549 292.55919 
L 346.653038 292.55919 
L 346.815528 290.801899 
L 346.978018 292.55919 
L 347.302998 292.55919 
L 347.465487 289.630379 
L 347.627977 292.55919 
L 348.277936 292.55919 
L 348.440426 294.316481 
L 348.602916 292.55919 
L 348.765405 295.488 
L 348.927895 292.55919 
L 349.252875 292.55919 
L 349.415364 289.630379 
L 349.577854 292.55919 
L 351.365242 292.55919 
L 351.527731 294.316481 
L 351.690221 292.55919 
L 353.152629 292.55919 
L 353.315119 290.801899 
L 353.477609 292.55919 
L 353.640098 289.630379 
L 353.802588 292.55919 
L 354.127568 292.55919 
L 354.290057 294.316481 
L 354.452547 292.55919 
L 354.615037 292.55919 
L 354.777527 294.316481 
L 354.940016 292.55919 
L 355.589975 292.55919 
L 355.752465 289.630379 
L 355.914955 289.630379 
L 356.077445 292.55919 
L 356.239934 290.801899 
L 356.402424 292.55919 
L 356.564914 289.630379 
L 356.727404 292.55919 
L 356.889894 292.55919 
L 357.052383 289.630379 
L 357.214873 292.55919 
L 357.702342 292.55919 
L 357.864832 290.801899 
L 358.027322 293.730709 
L 358.189812 292.55919 
L 359.48973 292.55919 
L 359.652219 290.801899 
L 359.814709 292.55919 
L 360.952138 292.55919 
L 361.114627 290.801899 
L 361.277117 294.316481 
L 361.439607 292.55919 
L 362.414545 292.55919 
L 362.577035 290.801899 
L 362.739525 292.55919 
L 362.902015 292.55919 
L 363.064505 294.316481 
L 363.226994 292.55919 
L 363.389484 292.55919 
L 363.551974 291.38767 
L 363.714464 292.55919 
L 363.876953 289.630379 
L 364.039443 290.801899 
L 364.201933 290.801899 
L 364.364423 292.55919 
L 364.526912 292.55919 
L 364.689402 290.801899 
L 364.851892 292.55919 
L 365.014382 292.55919 
L 365.176871 290.801899 
L 365.339361 292.55919 
L 365.664341 292.55919 
L 365.82683 294.316481 
L 365.98932 292.55919 
L 366.964259 292.55919 
L 367.126749 289.630379 
L 367.289238 292.55919 
L 367.939197 292.55919 
L 368.101687 289.630379 
L 368.264177 292.55919 
L 368.426667 292.55919 
L 368.589156 295.488 
L 368.751646 292.55919 
L 369.889075 292.55919 
L 370.051564 290.801899 
L 370.376544 294.316481 
L 370.539034 290.801899 
L 370.701523 292.55919 
L 370.864013 292.55919 
L 371.026503 289.630379 
L 371.188993 292.55919 
L 371.676462 292.55919 
L 371.838952 290.801899 
L 372.001441 294.316481 
L 372.163931 292.55919 
L 372.326421 292.55919 
L 372.488911 290.801899 
L 372.6514 292.55919 
L 373.13887 292.55919 
L 373.30136 289.630379 
L 373.463849 289.630379 
L 373.626339 292.55919 
L 374.113808 292.55919 
L 374.276298 289.630379 
L 374.763767 292.55919 
L 375.088747 292.55919 
L 375.251237 293.730709 
L 375.413726 292.55919 
L 375.576216 294.316481 
L 375.738706 292.55919 
L 376.226175 292.55919 
L 376.388665 290.801899 
L 376.551155 292.55919 
L 377.851073 292.55919 
L 378.013563 290.801899 
L 378.176052 292.55919 
L 380.288419 292.55919 
L 380.450909 289.630379 
L 380.613399 292.55919 
L 381.425848 292.55919 
L 381.588337 294.316481 
L 381.750827 292.55919 
L 383.213235 292.55919 
L 383.538215 290.801899 
L 383.700704 292.55919 
L 384.188174 292.55919 
L 384.350663 290.801899 
L 384.513153 290.801899 
L 384.675643 292.55919 
L 385.325602 292.55919 
L 385.488092 290.801899 
L 385.650581 292.55919 
L 385.975561 292.55919 
L 386.138051 290.801899 
L 386.300541 292.55919 
L 386.9505 292.55919 
L 387.112989 290.801899 
L 387.275479 292.55919 
L 388.900377 292.55919 
L 389.062867 289.630379 
L 389.225356 292.55919 
L 390.362785 292.55919 
L 390.525274 294.316481 
L 390.850254 290.801899 
L 391.012744 292.55919 
L 391.175233 289.630379 
L 391.337723 292.55919 
L 391.662703 292.55919 
L 391.825192 294.316481 
L 391.987682 292.55919 
L 395.399967 292.55919 
L 395.562457 294.316481 
L 395.724947 292.55919 
L 396.862375 292.55919 
L 397.024865 295.488 
L 397.187355 292.55919 
L 397.349844 292.55919 
L 397.512334 290.801899 
L 397.674824 292.55919 
L 398.487273 292.55919 
L 398.487273 292.55919 
" clip-path="url(#p6756df3307)" style="fill: none; stroke: #1f77b4; stroke-width: 1.5; stroke-linecap: square"/>
   </g>
   <g id="patch_3">
    <path d="M 57.6 307.584 
L 57.6 41.472 
" style="fill: none; stroke: #000000; stroke-width: 0.8; stroke-linejoin: miter; stroke-linecap: square"/>
   </g>
   <g id="patch_4">
    <path d="M 414.72 307.584 
L 414.72 41.472 
" style="fill: none; stroke: #000000; stroke-width: 0.8; stroke-linejoin: miter; stroke-linecap: square"/>
   </g>
   <g id="patch_5">
    <path d="M 57.6 307.584 
L 414.72 307.584 
" style="fill: none; stroke: #000000; stroke-width: 0.8; stroke-linejoin: miter; stroke-linecap: square"/>
   </g>
   <g id="patch_6">
    <path d="M 57.6 41.472 
L 414.72 41.472 
" style="fill: none; stroke: #000000; stroke-width: 0.8; stroke-linejoin: miter; stroke-linecap: square"/>
   </g>
  </g>
 </g>
 <defs>
  <clipPath id="p6756df3307">
   <rect x="57.6" y="41.472" width="357.12" height="266.112"/>
  </clipPath>
 </defs>
</svg>
