<?xml version="1.0" encoding="utf-8" standalone="no"?>
<!DOCTYPE svg PUBLIC "-//W3C//DTD SVG 1.1//EN"
  "http://www.w3.org/Graphics/SVG/1.1/DTD/svg11.dtd">
<svg xmlns:xlink="http://www.w3.org/1999/xlink" width="1368pt" height="720pt" viewBox="0 0 1368 720" xmlns="http://www.w3.org/2000/svg" version="1.1">
 <metadata>
  <rdf:RDF xmlns:dc="http://purl.org/dc/elements/1.1/" xmlns:cc="http://creativecommons.org/ns#" xmlns:rdf="http://www.w3.org/1999/02/22-rdf-syntax-ns#">
   <cc:Work>
    <dc:type rdf:resource="http://purl.org/dc/dcmitype/StillImage"/>
    <dc:date>2022-01-29T16:59:58.330344</dc:date>
    <dc:format>image/svg+xml</dc:format>
    <dc:creator>
     <cc:Agent>
      <dc:title>Matplotlib v3.5.1, https://matplotlib.org/</dc:title>
     </cc:Agent>
    </dc:creator>
   </cc:Work>
  </rdf:RDF>
 </metadata>
 <defs>
  <style type="text/css">*{stroke-linejoin: round; stroke-linecap: butt}</style>
 </defs>
 <g id="figure_1">
  <g id="patch_1">
   <path d="M 0 720 
L 1368 720 
L 1368 0 
L 0 0 
z
" style="fill: #ffffff"/>
  </g>
  <g id="axes_1">
   <g id="patch_2">
    <path d="M 171 640.8 
L 1231.2 640.8 
L 1231.2 86.4 
L 171 86.4 
z
" style="fill: #ffffff"/>
   </g>
   <g id="matplotlib.axis_1">
    <g id="xtick_1">
     <g id="line2d_1">
      <defs>
       <path id="mb4e5120a82" d="M 0 0 
L 0 3.5 
" style="stroke: #000000; stroke-width: 0.8"/>
      </defs>
      <g>
       <use xlink:href="#mb4e5120a82" x="199.52115" y="640.8" style="stroke: #000000; stroke-width: 0.8"/>
      </g>
     </g>
     <g id="text_1">
      <!-- 0 -->
      <g transform="translate(196.3399 655.398438)scale(0.1 -0.1)">
       <defs>
        <path id="DejaVuSans-30" d="M 2034 4250 
Q 1547 4250 1301 3770 
Q 1056 3291 1056 2328 
Q 1056 1369 1301 889 
Q 1547 409 2034 409 
Q 2525 409 2770 889 
Q 3016 1369 3016 2328 
Q 3016 3291 2770 3770 
Q 2525 4250 2034 4250 
z
M 2034 4750 
Q 2819 4750 3233 4129 
Q 3647 3509 3647 2328 
Q 3647 1150 3233 529 
Q 2819 -91 2034 -91 
Q 1250 -91 836 529 
Q 422 1150 422 2328 
Q 422 3509 836 4129 
Q 1250 4750 2034 4750 
z
" transform="scale(0.015625)"/>
       </defs>
       <use xlink:href="#DejaVuSans-30"/>
      </g>
     </g>
    </g>
    <g id="xtick_2">
     <g id="line2d_2">
      <g>
       <use xlink:href="#mb4e5120a82" x="396.218738" y="640.8" style="stroke: #000000; stroke-width: 0.8"/>
      </g>
     </g>
     <g id="text_2">
      <!-- 100000 -->
      <g transform="translate(377.131238 655.398438)scale(0.1 -0.1)">
       <defs>
        <path id="DejaVuSans-31" d="M 794 531 
L 1825 531 
L 1825 4091 
L 703 3866 
L 703 4441 
L 1819 4666 
L 2450 4666 
L 2450 531 
L 3481 531 
L 3481 0 
L 794 0 
L 794 531 
z
" transform="scale(0.015625)"/>
       </defs>
       <use xlink:href="#DejaVuSans-31"/>
       <use xlink:href="#DejaVuSans-30" x="63.623047"/>
       <use xlink:href="#DejaVuSans-30" x="127.246094"/>
       <use xlink:href="#DejaVuSans-30" x="190.869141"/>
       <use xlink:href="#DejaVuSans-30" x="254.492188"/>
       <use xlink:href="#DejaVuSans-30" x="318.115234"/>
      </g>
     </g>
    </g>
    <g id="xtick_3">
     <g id="line2d_3">
      <g>
       <use xlink:href="#mb4e5120a82" x="592.916327" y="640.8" style="stroke: #000000; stroke-width: 0.8"/>
      </g>
     </g>
     <g id="text_3">
      <!-- 200000 -->
      <g transform="translate(573.828827 655.398438)scale(0.1 -0.1)">
       <defs>
        <path id="DejaVuSans-32" d="M 1228 531 
L 3431 531 
L 3431 0 
L 469 0 
L 469 531 
Q 828 903 1448 1529 
Q 2069 2156 2228 2338 
Q 2531 2678 2651 2914 
Q 2772 3150 2772 3378 
Q 2772 3750 2511 3984 
Q 2250 4219 1831 4219 
Q 1534 4219 1204 4116 
Q 875 4013 500 3803 
L 500 4441 
Q 881 4594 1212 4672 
Q 1544 4750 1819 4750 
Q 2544 4750 2975 4387 
Q 3406 4025 3406 3419 
Q 3406 3131 3298 2873 
Q 3191 2616 2906 2266 
Q 2828 2175 2409 1742 
Q 1991 1309 1228 531 
z
" transform="scale(0.015625)"/>
       </defs>
       <use xlink:href="#DejaVuSans-32"/>
       <use xlink:href="#DejaVuSans-30" x="63.623047"/>
       <use xlink:href="#DejaVuSans-30" x="127.246094"/>
       <use xlink:href="#DejaVuSans-30" x="190.869141"/>
       <use xlink:href="#DejaVuSans-30" x="254.492188"/>
       <use xlink:href="#DejaVuSans-30" x="318.115234"/>
      </g>
     </g>
    </g>
    <g id="xtick_4">
     <g id="line2d_4">
      <g>
       <use xlink:href="#mb4e5120a82" x="789.613915" y="640.8" style="stroke: #000000; stroke-width: 0.8"/>
      </g>
     </g>
     <g id="text_4">
      <!-- 300000 -->
      <g transform="translate(770.526415 655.398438)scale(0.1 -0.1)">
       <defs>
        <path id="DejaVuSans-33" d="M 2597 2516 
Q 3050 2419 3304 2112 
Q 3559 1806 3559 1356 
Q 3559 666 3084 287 
Q 2609 -91 1734 -91 
Q 1441 -91 1130 -33 
Q 819 25 488 141 
L 488 750 
Q 750 597 1062 519 
Q 1375 441 1716 441 
Q 2309 441 2620 675 
Q 2931 909 2931 1356 
Q 2931 1769 2642 2001 
Q 2353 2234 1838 2234 
L 1294 2234 
L 1294 2753 
L 1863 2753 
Q 2328 2753 2575 2939 
Q 2822 3125 2822 3475 
Q 2822 3834 2567 4026 
Q 2313 4219 1838 4219 
Q 1578 4219 1281 4162 
Q 984 4106 628 3988 
L 628 4550 
Q 988 4650 1302 4700 
Q 1616 4750 1894 4750 
Q 2613 4750 3031 4423 
Q 3450 4097 3450 3541 
Q 3450 3153 3228 2886 
Q 3006 2619 2597 2516 
z
" transform="scale(0.015625)"/>
       </defs>
       <use xlink:href="#DejaVuSans-33"/>
       <use xlink:href="#DejaVuSans-30" x="63.623047"/>
       <use xlink:href="#DejaVuSans-30" x="127.246094"/>
       <use xlink:href="#DejaVuSans-30" x="190.869141"/>
       <use xlink:href="#DejaVuSans-30" x="254.492188"/>
       <use xlink:href="#DejaVuSans-30" x="318.115234"/>
      </g>
     </g>
    </g>
    <g id="xtick_5">
     <g id="line2d_5">
      <g>
       <use xlink:href="#mb4e5120a82" x="986.311503" y="640.8" style="stroke: #000000; stroke-width: 0.8"/>
      </g>
     </g>
     <g id="text_5">
      <!-- 400000 -->
      <g transform="translate(967.224003 655.398438)scale(0.1 -0.1)">
       <defs>
        <path id="DejaVuSans-34" d="M 2419 4116 
L 825 1625 
L 2419 1625 
L 2419 4116 
z
M 2253 4666 
L 3047 4666 
L 3047 1625 
L 3713 1625 
L 3713 1100 
L 3047 1100 
L 3047 0 
L 2419 0 
L 2419 1100 
L 313 1100 
L 313 1709 
L 2253 4666 
z
" transform="scale(0.015625)"/>
       </defs>
       <use xlink:href="#DejaVuSans-34"/>
       <use xlink:href="#DejaVuSans-30" x="63.623047"/>
       <use xlink:href="#DejaVuSans-30" x="127.246094"/>
       <use xlink:href="#DejaVuSans-30" x="190.869141"/>
       <use xlink:href="#DejaVuSans-30" x="254.492188"/>
       <use xlink:href="#DejaVuSans-30" x="318.115234"/>
      </g>
     </g>
    </g>
    <g id="xtick_6">
     <g id="line2d_6">
      <g>
       <use xlink:href="#mb4e5120a82" x="1183.009091" y="640.8" style="stroke: #000000; stroke-width: 0.8"/>
      </g>
     </g>
     <g id="text_6">
      <!-- 500000 -->
      <g transform="translate(1163.921591 655.398438)scale(0.1 -0.1)">
       <defs>
        <path id="DejaVuSans-35" d="M 691 4666 
L 3169 4666 
L 3169 4134 
L 1269 4134 
L 1269 2991 
Q 1406 3038 1543 3061 
Q 1681 3084 1819 3084 
Q 2600 3084 3056 2656 
Q 3513 2228 3513 1497 
Q 3513 744 3044 326 
Q 2575 -91 1722 -91 
Q 1428 -91 1123 -41 
Q 819 9 494 109 
L 494 744 
Q 775 591 1075 516 
Q 1375 441 1709 441 
Q 2250 441 2565 725 
Q 2881 1009 2881 1497 
Q 2881 1984 2565 2268 
Q 2250 2553 1709 2553 
Q 1456 2553 1204 2497 
Q 953 2441 691 2322 
L 691 4666 
z
" transform="scale(0.015625)"/>
       </defs>
       <use xlink:href="#DejaVuSans-35"/>
       <use xlink:href="#DejaVuSans-30" x="63.623047"/>
       <use xlink:href="#DejaVuSans-30" x="127.246094"/>
       <use xlink:href="#DejaVuSans-30" x="190.869141"/>
       <use xlink:href="#DejaVuSans-30" x="254.492188"/>
       <use xlink:href="#DejaVuSans-30" x="318.115234"/>
      </g>
     </g>
    </g>
    <g id="text_7">
     <!-- f -->
     <g transform="translate(699.339844 669.076563)scale(0.1 -0.1)">
      <defs>
       <path id="DejaVuSans-66" d="M 2375 4863 
L 2375 4384 
L 1825 4384 
Q 1516 4384 1395 4259 
Q 1275 4134 1275 3809 
L 1275 3500 
L 2222 3500 
L 2222 3053 
L 1275 3053 
L 1275 0 
L 697 0 
L 697 3053 
L 147 3053 
L 147 3500 
L 697 3500 
L 697 3744 
Q 697 4328 969 4595 
Q 1241 4863 1831 4863 
L 2375 4863 
z
" transform="scale(0.015625)"/>
      </defs>
      <use xlink:href="#DejaVuSans-66"/>
     </g>
    </g>
   </g>
   <g id="matplotlib.axis_2">
    <g id="ytick_1">
     <g id="line2d_7">
      <defs>
       <path id="m90d9eb96c3" d="M 0 0 
L -3.5 0 
" style="stroke: #000000; stroke-width: 0.8"/>
      </defs>
      <g>
       <use xlink:href="#m90d9eb96c3" x="171" y="610.399203" style="stroke: #000000; stroke-width: 0.8"/>
      </g>
     </g>
     <g id="text_8">
      <!-- 0 -->
      <g transform="translate(157.6375 614.198422)scale(0.1 -0.1)">
       <use xlink:href="#DejaVuSans-30"/>
      </g>
     </g>
    </g>
    <g id="ytick_2">
     <g id="line2d_8">
      <g>
       <use xlink:href="#m90d9eb96c3" x="171" y="498.245581" style="stroke: #000000; stroke-width: 0.8"/>
      </g>
     </g>
     <g id="text_9">
      <!-- 10 -->
      <g transform="translate(151.275 502.0448)scale(0.1 -0.1)">
       <use xlink:href="#DejaVuSans-31"/>
       <use xlink:href="#DejaVuSans-30" x="63.623047"/>
      </g>
     </g>
    </g>
    <g id="ytick_3">
     <g id="line2d_9">
      <g>
       <use xlink:href="#m90d9eb96c3" x="171" y="386.091959" style="stroke: #000000; stroke-width: 0.8"/>
      </g>
     </g>
     <g id="text_10">
      <!-- 20 -->
      <g transform="translate(151.275 389.891178)scale(0.1 -0.1)">
       <use xlink:href="#DejaVuSans-32"/>
       <use xlink:href="#DejaVuSans-30" x="63.623047"/>
      </g>
     </g>
    </g>
    <g id="ytick_4">
     <g id="line2d_10">
      <g>
       <use xlink:href="#m90d9eb96c3" x="171" y="273.938337" style="stroke: #000000; stroke-width: 0.8"/>
      </g>
     </g>
     <g id="text_11">
      <!-- 30 -->
      <g transform="translate(151.275 277.737556)scale(0.1 -0.1)">
       <use xlink:href="#DejaVuSans-33"/>
       <use xlink:href="#DejaVuSans-30" x="63.623047"/>
      </g>
     </g>
    </g>
    <g id="ytick_5">
     <g id="line2d_11">
      <g>
       <use xlink:href="#m90d9eb96c3" x="171" y="161.784715" style="stroke: #000000; stroke-width: 0.8"/>
      </g>
     </g>
     <g id="text_12">
      <!-- 40 -->
      <g transform="translate(151.275 165.583934)scale(0.1 -0.1)">
       <use xlink:href="#DejaVuSans-34"/>
       <use xlink:href="#DejaVuSans-30" x="63.623047"/>
      </g>
     </g>
    </g>
    <g id="text_13">
     <!-- Z -->
     <g transform="translate(145.195312 367.025)rotate(-90)scale(0.1 -0.1)">
      <defs>
       <path id="DejaVuSans-5a" d="M 359 4666 
L 4025 4666 
L 4025 4184 
L 1075 531 
L 4097 531 
L 4097 0 
L 288 0 
L 288 481 
L 3238 4134 
L 359 4134 
L 359 4666 
z
" transform="scale(0.015625)"/>
      </defs>
      <use xlink:href="#DejaVuSans-5a"/>
     </g>
    </g>
   </g>
   <g id="line2d_12">
    <path d="M 219.190909 604.712048 
L 219.673301 604.712048 
L 220.155692 605.098463 
L 220.638084 607.48147 
L 221.120475 606.435156 
L 221.602867 605.102167 
L 222.085258 604.259704 
L 222.567649 606.627852 
L 223.050041 605.098463 
L 223.532432 605.098463 
L 224.014824 604.712048 
L 224.497215 605.098463 
L 224.979607 606.627852 
L 225.461998 604.712048 
L 225.94439 606.800084 
L 226.426781 606.435156 
L 226.909173 604.683132 
L 227.873956 604.707917 
L 228.356347 605.098463 
L 228.838739 606.627852 
L 229.32113 598.716927 
L 229.803522 604.712048 
L 230.285913 604.259704 
L 230.768305 598.716927 
L 231.250696 606.800084 
L 231.733088 604.712048 
L 232.215479 606.627852 
L 232.697871 604.712048 
L 233.180262 606.818278 
L 233.662654 604.712048 
L 235.109828 604.712048 
L 235.592219 604.259704 
L 236.074611 606.627852 
L 236.557002 605.071531 
L 237.039394 604.712048 
L 237.521785 606.818278 
L 238.004177 604.712048 
L 238.486568 605.098463 
L 238.96896 606.800084 
L 239.451351 606.646931 
L 239.933743 606.627852 
L 240.416134 606.820811 
L 240.898526 606.820811 
L 241.380917 606.646931 
L 241.863309 604.712048 
L 242.3457 605.094472 
L 242.828092 604.712048 
L 243.310483 605.098463 
L 243.792875 606.646931 
L 244.275266 604.712048 
L 244.757658 605.098463 
L 245.240049 606.630577 
L 245.722441 606.627852 
L 246.204832 606.800084 
L 246.687224 605.098463 
L 247.169615 606.818278 
L 247.652007 476.743753 
L 248.134398 604.712048 
L 249.099181 604.712048 
L 249.581572 598.716927 
L 250.063964 598.657225 
L 250.546355 604.712048 
L 251.028747 605.102167 
L 251.511138 604.712048 
L 252.958313 604.712048 
L 253.440704 605.098463 
L 253.923096 606.4381 
L 254.405487 604.712048 
L 254.887879 604.712048 
L 255.37027 606.800084 
L 255.852662 604.712048 
L 256.335053 604.712048 
L 256.817445 606.802617 
L 257.299836 598.657225 
L 257.782228 605.098463 
L 258.264619 604.712048 
L 259.711794 604.745095 
L 260.194185 605.098463 
L 260.676577 606.458153 
L 261.158968 604.712048 
L 262.606143 604.712048 
L 263.088534 604.228488 
L 263.570925 600.251979 
L 264.053317 604.712048 
L 264.535708 606.627852 
L 265.0181 604.683132 
L 265.982883 604.712048 
L 266.465274 606.627852 
L 266.947666 598.716927 
L 267.430057 604.712048 
L 267.912449 604.712048 
L 268.39484 605.102167 
L 268.877232 606.435156 
L 269.359623 596.632046 
L 269.842015 604.707917 
L 270.324406 605.098463 
L 270.806798 604.716178 
L 271.289189 476.748784 
L 271.771581 604.264357 
L 272.253972 604.712048 
L 272.736364 604.712048 
L 273.218755 596.621006 
L 273.701147 606.627852 
L 274.183538 604.712048 
L 275.148321 604.712048 
L 275.630713 606.627852 
L 276.113104 604.712048 
L 276.595495 604.264357 
L 277.077887 604.264357 
L 277.560278 604.712048 
L 279.007453 604.712048 
L 279.489844 606.458153 
L 279.972236 606.646931 
L 280.454627 598.657225 
L 280.937019 598.716927 
L 281.41941 607.585224 
L 281.901802 604.712048 
L 282.384193 604.712048 
L 282.866585 605.098463 
L 283.348976 606.627852 
L 283.831368 604.712048 
L 284.313759 604.259704 
L 284.796151 605.071531 
L 285.278542 604.712048 
L 285.760934 598.657225 
L 286.243325 429.827724 
L 286.725717 598.716927 
L 287.208108 604.712048 
L 287.6905 604.259704 
L 288.172891 604.264357 
L 288.655283 605.129099 
L 289.137674 598.716927 
L 289.620066 604.264357 
L 290.102457 604.712048 
L 290.584848 604.712048 
L 291.06724 606.627852 
L 291.549631 604.712048 
L 292.032023 605.098463 
L 292.514414 606.646931 
L 292.996806 605.098463 
L 293.479197 605.098463 
L 293.961589 604.712048 
L 294.44398 603.734258 
L 294.926372 604.712048 
L 295.408763 598.648695 
L 295.891155 606.800084 
L 296.373546 604.712048 
L 296.855938 604.712048 
L 297.338329 605.098463 
L 297.820721 605.098463 
L 298.303112 604.712048 
L 298.785504 604.712048 
L 299.267895 600.25885 
L 299.750287 604.712048 
L 300.232678 604.712048 
L 300.71507 598.716927 
L 301.197461 606.646931 
L 301.679853 606.627852 
L 302.162244 604.712048 
L 302.644636 605.098463 
L 303.127027 604.712048 
L 303.609419 604.712048 
L 304.09181 598.657225 
L 304.574201 604.712048 
L 305.056593 604.264357 
L 305.538984 604.712048 
L 306.021376 604.712048 
L 306.503767 596.632046 
L 306.986159 604.264357 
L 307.950942 605.098463 
L 308.433333 598.716927 
L 308.915725 598.716927 
L 309.398116 606.627852 
L 309.880508 598.716927 
L 310.362899 596.632046 
L 310.845291 604.712048 
L 311.327682 604.712048 
L 311.810074 598.716927 
L 312.292465 598.716927 
L 312.774857 606.627852 
L 313.257248 604.712048 
L 313.73964 604.712048 
L 314.222031 604.264357 
L 314.704423 600.251979 
L 315.186814 604.712048 
L 315.669206 605.098463 
L 316.151597 609.141619 
L 316.633989 609.737518 
L 317.598771 609.944369 
L 319.045946 610.046978 
L 376.450532 609.94713 
L 379.827273 609.886887 
L 380.792056 609.883636 
L 388.510319 609.794359 
L 390.439885 609.755827 
L 395.2638 609.710486 
L 396.710975 609.619765 
L 397.675758 609.627292 
L 400.087715 609.612094 
L 400.570106 609.659738 
L 401.534889 609.545399 
L 402.017281 609.600921 
L 402.499672 609.536784 
L 402.982064 609.604824 
L 403.946847 609.470825 
L 404.429238 609.558575 
L 404.91163 609.460509 
L 405.394021 609.536784 
L 406.358804 609.470166 
L 406.841196 609.541024 
L 407.805979 609.400117 
L 408.770762 609.480899 
L 412.629894 609.380866 
L 413.112285 609.541024 
L 413.594676 609.541024 
L 414.077068 609.393823 
L 416.006634 609.617062 
L 416.971417 609.63162 
L 417.453808 609.754713 
L 417.9362 609.719681 
L 418.900983 609.824878 
L 422.277723 609.949003 
L 428.548812 610.084525 
L 443.020557 610.000166 
L 445.432514 609.949615 
L 449.774038 609.855802 
L 450.738821 609.831706 
L 455.562735 609.767556 
L 457.00991 609.719681 
L 461.833825 609.609284 
L 462.798608 609.563322 
L 463.280999 609.657557 
L 464.245782 609.550193 
L 479.199918 609.26377 
L 479.68231 609.14393 
L 480.164701 609.380866 
L 484.506224 609.26377 
L 484.988616 609.380866 
L 485.471007 609.143026 
L 485.953399 609.26377 
L 486.43579 609.143026 
L 487.400573 609.248034 
L 487.882965 609.26377 
L 488.365356 609.123541 
L 488.847748 609.26377 
L 489.330139 609.143026 
L 489.812531 609.26377 
L 490.294922 609.253758 
L 490.777314 609.367565 
L 491.742097 609.123541 
L 492.224488 609.279861 
L 498.977969 609.123541 
L 499.46036 609.248034 
L 500.425143 609.26377 
L 500.907535 609.123541 
L 502.354709 609.143026 
L 502.837101 609.248034 
L 503.801884 608.93306 
L 504.766667 609.247217 
L 505.249058 608.959919 
L 505.73145 609.12263 
L 506.213841 609.117166 
L 506.696233 609.264583 
L 507.661016 609.248034 
L 508.143407 608.959919 
L 509.10819 609.26377 
L 509.590581 608.959919 
L 510.072973 609.123541 
L 510.555364 609.123541 
L 511.520147 608.959919 
L 512.002539 609.123541 
L 512.48493 608.959919 
L 512.967322 609.123541 
L 513.932105 609.116255 
L 514.414496 609.096006 
L 514.896888 608.93306 
L 515.861671 608.93306 
L 516.344062 609.096006 
L 517.308845 608.712706 
L 518.273628 609.096006 
L 519.238411 608.676925 
L 519.720803 608.93306 
L 521.650369 608.93306 
L 522.13276 608.721134 
L 522.615152 608.685538 
L 523.097543 608.424318 
L 523.579934 608.906235 
L 524.062326 608.712706 
L 525.027109 608.676925 
L 525.5095 608.905168 
L 526.474283 608.373113 
L 526.956675 608.675694 
L 527.439066 608.373113 
L 527.921458 608.373113 
L 528.403849 608.712706 
L 528.886241 608.676925 
L 529.368632 608.877283 
L 530.333415 608.93306 
L 530.815807 608.685538 
L 531.298198 608.685538 
L 531.78059 608.93306 
L 532.262981 608.721134 
L 534.192547 608.712706 
L 534.674939 608.373113 
L 535.15733 608.721134 
L 536.122113 608.721134 
L 536.604505 608.905168 
L 537.569287 608.93306 
L 538.051679 608.685538 
L 538.53407 608.721134 
L 539.016462 608.959919 
L 539.498853 608.906235 
L 539.981245 608.721134 
L 540.463636 608.906235 
L 542.875594 608.93306 
L 543.357985 608.934096 
L 543.840377 609.231003 
L 544.80516 609.231003 
L 545.287551 609.123541 
L 545.769943 609.143026 
L 546.252334 609.285423 
L 546.734726 609.270225 
L 547.217117 609.368303 
L 547.699509 609.270225 
L 551.55864 609.475412 
L 552.041032 609.286218 
L 553.005815 609.285423 
L 553.488206 609.454648 
L 554.452989 609.465814 
L 555.417772 609.386649 
L 556.864947 609.546476 
L 559.759296 609.678259 
L 560.724079 609.767997 
L 561.688862 609.796988 
L 563.618428 609.738083 
L 564.58321 609.805521 
L 569.889517 609.678259 
L 572.301474 609.491262 
L 573.266257 609.537162 
L 576.160606 609.270225 
L 576.642998 609.270225 
L 577.125389 609.14393 
L 577.607781 609.270225 
L 578.090172 609.270225 
L 578.572563 608.991866 
L 579.537346 609.264583 
L 580.502129 608.968139 
L 580.984521 609.123541 
L 582.914087 609.117166 
L 583.396478 608.722324 
L 583.87887 608.959919 
L 584.843653 608.959919 
L 585.326044 608.721134 
L 585.808436 608.93306 
L 586.773219 608.93306 
L 587.25561 608.722324 
L 587.738002 608.685538 
L 588.220393 608.905168 
L 589.185176 608.906235 
L 589.667568 608.721134 
L 590.149959 608.374567 
L 590.632351 608.721134 
L 591.114742 608.906235 
L 591.597133 608.320674 
L 592.079525 608.424318 
L 593.044308 608.877283 
L 593.526699 608.383289 
L 594.009091 608.684307 
L 594.491482 608.712706 
L 594.973874 608.424318 
L 595.456265 608.320674 
L 595.938657 608.676925 
L 596.421048 608.320674 
L 596.90344 608.384743 
L 597.385831 608.265391 
L 598.350614 608.320674 
L 598.833006 608.63828 
L 599.797789 608.685538 
L 600.28018 607.923937 
L 600.762572 608.373113 
L 601.244963 608.320674 
L 601.727355 608.675694 
L 602.209746 607.936369 
L 602.692138 608.675694 
L 603.174529 608.310228 
L 603.656921 608.374567 
L 605.104095 608.265391 
L 605.586486 607.8448 
L 606.068878 607.857639 
L 606.551269 608.320674 
L 607.516052 608.320674 
L 607.998444 607.8448 
L 608.480835 608.320674 
L 610.410401 608.320674 
L 610.892793 607.8448 
L 611.375184 608.320674 
L 611.857576 607.100651 
L 612.339967 607.8448 
L 612.822359 608.319204 
L 613.787142 608.319204 
L 614.269533 607.760344 
L 614.751925 607.758449 
L 615.234316 608.319204 
L 615.716708 607.102974 
L 616.199099 607.771721 
L 617.163882 607.857639 
L 617.646274 607.857639 
L 618.128665 608.320674 
L 618.611057 607.681754 
L 619.093448 608.265391 
L 619.575839 608.263858 
L 620.058231 607.758449 
L 620.540622 608.265391 
L 621.023014 606.956994 
L 621.505405 607.842999 
L 621.987797 606.956994 
L 622.470188 608.263858 
L 622.95258 608.263858 
L 623.434971 607.936369 
L 624.882146 607.758449 
L 625.364537 607.102974 
L 625.846929 608.205424 
L 626.32932 607.857639 
L 626.811712 608.205424 
L 627.294103 608.265391 
L 627.776495 608.205424 
L 628.258886 608.263858 
L 628.741278 607.102974 
L 629.223669 607.760344 
L 630.670844 607.758449 
L 631.153235 608.263858 
L 631.635627 607.8448 
L 632.118018 607.758449 
L 632.60041 608.263858 
L 633.082801 607.668017 
L 633.565192 608.263858 
L 634.047584 608.320674 
L 634.529975 607.760344 
L 636.941933 607.668017 
L 637.424324 608.265391 
L 637.906716 606.959478 
L 638.389107 606.800084 
L 638.871499 607.760344 
L 639.35389 607.8448 
L 639.836282 607.102974 
L 640.318673 608.263858 
L 640.801065 608.320674 
L 641.283456 607.771721 
L 641.765848 607.668017 
L 642.248239 608.205424 
L 642.730631 608.263858 
L 643.213022 607.668017 
L 643.695414 608.205424 
L 644.177805 608.373113 
L 644.660197 607.773617 
L 645.142588 608.320674 
L 645.62498 608.320674 
L 646.107371 607.857639 
L 646.589762 607.773617 
L 647.072154 608.27459 
L 647.554545 607.857639 
L 648.036937 608.320674 
L 648.519328 608.263858 
L 649.00172 607.758449 
L 649.484111 607.857639 
L 649.966503 607.668017 
L 650.448894 607.8448 
L 651.413677 607.758449 
L 651.896069 608.263858 
L 652.37846 608.205424 
L 652.860852 608.265391 
L 653.343243 607.668017 
L 653.825635 607.8448 
L 654.308026 607.773617 
L 654.790418 608.205424 
L 655.272809 607.771721 
L 655.755201 607.681754 
L 656.237592 608.265391 
L 656.719984 606.959478 
L 657.202375 607.105408 
L 657.684767 608.205424 
L 658.167158 607.102974 
L 659.131941 606.800084 
L 659.614333 605.098463 
L 660.096724 607.758449 
L 660.579115 606.959478 
L 661.061507 607.668017 
L 661.543898 607.758449 
L 662.02629 606.800084 
L 662.508681 605.071531 
L 662.991073 607.758449 
L 663.473464 607.102974 
L 663.955856 607.681754 
L 664.438247 606.800084 
L 664.920639 606.800084 
L 665.40303 607.773617 
L 665.885422 606.800084 
L 666.367813 606.956994 
L 666.850205 606.800084 
L 667.332596 606.800084 
L 667.814988 608.265391 
L 668.297379 607.760344 
L 668.779771 608.216458 
L 669.262162 606.956994 
L 669.744554 606.800084 
L 670.226945 606.800084 
L 670.709337 607.668017 
L 671.191728 607.758449 
L 671.67412 606.956994 
L 672.156511 606.956994 
L 673.121294 608.205424 
L 673.603686 606.800084 
L 674.086077 608.216458 
L 674.568468 606.800084 
L 675.05086 607.771721 
L 675.533251 606.959478 
L 676.015643 606.959478 
L 676.498034 607.570988 
L 676.980426 606.956994 
L 677.462817 607.758449 
L 677.945209 606.956994 
L 678.4276 607.758449 
L 678.909992 606.956994 
L 679.392383 607.668017 
L 679.874775 606.956994 
L 680.357166 607.758449 
L 680.839558 607.758449 
L 681.321949 606.956994 
L 681.804341 606.625126 
L 682.286732 607.758449 
L 683.251515 607.668017 
L 683.733907 606.959478 
L 684.216298 606.78189 
L 684.69869 606.959478 
L 685.181081 606.959478 
L 685.663473 605.098463 
L 686.145864 606.800084 
L 686.628256 607.681754 
L 687.110647 607.570988 
L 688.07543 607.668017 
L 688.557821 606.956994 
L 689.040213 606.800084 
L 689.522604 606.78189 
L 690.004996 607.681754 
L 690.487387 606.959478 
L 690.969779 607.760344 
L 691.45217 606.956994 
L 691.934562 606.956994 
L 692.416953 606.800084 
L 692.899345 606.959478 
L 693.381736 607.668017 
L 693.864128 606.959478 
L 694.346519 606.956994 
L 694.828911 606.800084 
L 696.276085 606.800084 
L 696.758477 607.760344 
L 697.72326 607.668017 
L 698.205651 606.800084 
L 698.688043 607.668017 
L 699.170434 606.956994 
L 699.652826 606.956994 
L 700.135217 606.800084 
L 700.617609 605.067539 
L 701.1 606.956994 
L 701.582391 605.435125 
L 702.064783 606.800084 
L 702.547174 606.800084 
L 703.029566 606.956994 
L 703.994349 606.627852 
L 704.47674 607.58319 
L 704.959132 606.959478 
L 705.441523 606.800084 
L 705.923915 607.58319 
L 706.406306 606.800084 
L 706.888698 607.668017 
L 707.371089 606.800084 
L 708.335872 606.800084 
L 708.818264 607.758449 
L 709.300655 606.800084 
L 709.783047 606.800084 
L 710.265438 606.956994 
L 710.74783 607.668017 
L 711.230221 606.797419 
L 711.712613 607.771721 
L 712.195004 606.797419 
L 712.677396 606.800084 
L 713.159787 606.956994 
L 713.642179 606.627852 
L 714.12457 606.800084 
L 714.606962 606.800084 
L 715.089353 604.679 
L 715.571744 606.800084 
L 716.536527 606.800084 
L 717.018919 606.956994 
L 717.50131 607.668017 
L 717.983702 606.800084 
L 718.466093 607.758449 
L 718.948485 607.100651 
L 719.430876 606.800084 
L 720.395659 606.800084 
L 720.878051 607.760344 
L 721.360442 606.818278 
L 721.842834 607.668017 
L 722.325225 606.800084 
L 722.807617 605.094472 
L 723.290008 606.959478 
L 723.7724 606.800084 
L 724.254791 607.668017 
L 724.737183 606.800084 
L 725.219574 607.668017 
L 725.701966 606.627852 
L 726.184357 606.800084 
L 726.666749 606.800084 
L 727.14914 607.668017 
L 727.631532 606.956994 
L 728.113923 606.956994 
L 728.596314 606.800084 
L 729.561097 606.800084 
L 730.043489 606.956994 
L 730.52588 606.800084 
L 731.008272 605.435125 
L 731.490663 607.668017 
L 731.973055 607.668017 
L 732.455446 606.800084 
L 732.937838 607.771721 
L 733.420229 607.681754 
L 733.902621 606.959478 
L 734.385012 606.818278 
L 734.867404 606.800084 
L 735.349795 607.760344 
L 735.832187 606.800084 
L 736.314578 607.842999 
L 736.79697 606.800084 
L 737.279361 607.122058 
L 737.761753 605.438725 
L 738.244144 606.959478 
L 738.726536 606.959478 
L 739.208927 607.773617 
L 739.691319 607.773617 
L 740.17371 608.276123 
L 740.656102 608.320674 
L 741.138493 608.64836 
L 741.620885 608.276123 
L 742.103276 608.276123 
L 742.585667 608.64836 
L 743.068059 608.64836 
L 743.55045 608.332635 
L 744.032842 608.722324 
L 744.515233 608.386196 
L 744.997625 608.647086 
L 745.480016 608.722324 
L 745.962408 608.941423 
L 746.444799 608.730752 
L 746.927191 609.103404 
L 747.409582 608.941423 
L 748.374365 609.103404 
L 749.339148 609.130827 
L 749.82154 609.000947 
L 750.786323 609.150203 
L 751.268714 609.151092 
L 751.751106 609.29178 
L 752.233497 609.151092 
L 752.715889 609.276666 
L 753.19828 609.276666 
L 753.680672 609.130827 
L 754.163063 609.130827 
L 754.645455 609.2603 
L 755.127846 609.150203 
L 755.610238 609.254576 
L 756.092629 609.130827 
L 756.57502 609.275867 
L 757.057412 608.94875 
L 757.539803 609.150203 
L 758.022195 608.967111 
L 759.469369 608.941423 
L 759.951761 609.060127 
L 760.434152 608.941423 
L 760.916544 608.941423 
L 761.398935 608.730752 
L 762.363718 608.657166 
L 763.328501 608.657166 
L 763.810893 608.906235 
L 764.293284 608.685538 
L 764.775676 607.938146 
L 765.258067 608.685538 
L 765.740459 608.331121 
L 766.22285 608.374567 
L 766.705242 608.265391 
L 767.670025 608.320674 
L 768.634808 608.320674 
L 769.117199 607.773617 
L 769.59959 608.265391 
L 770.081982 608.265391 
L 770.564373 607.2531 
L 771.046765 607.773617 
L 774.423505 607.773617 
L 774.905897 606.959478 
L 775.388288 606.959478 
L 775.87068 608.265391 
L 776.353071 608.263858 
L 776.835463 607.857639 
L 777.317854 606.800084 
L 777.800246 607.758449 
L 778.282637 606.800084 
L 778.765029 607.773617 
L 779.24742 608.320674 
L 779.729812 606.818278 
L 780.212203 607.681754 
L 780.694595 607.773617 
L 781.176986 606.800084 
L 781.659378 606.959478 
L 782.141769 605.438725 
L 782.624161 607.681754 
L 783.588943 607.758449 
L 784.071335 606.959478 
L 784.553726 606.800084 
L 785.036118 607.758449 
L 785.518509 606.959478 
L 786.000901 607.668017 
L 786.483292 605.098463 
L 786.965684 606.800084 
L 787.448075 607.758449 
L 787.930467 606.959478 
L 788.412858 607.681754 
L 788.89525 607.773617 
L 789.377641 606.800084 
L 789.860033 606.959478 
L 790.342424 605.098463 
L 790.824816 606.627852 
L 791.789599 606.959478 
L 792.27199 606.800084 
L 792.754382 606.800084 
L 793.236773 607.681754 
L 794.201556 607.570988 
L 794.683948 606.800084 
L 795.166339 607.681754 
L 795.648731 606.608774 
L 796.131122 606.625126 
L 796.613514 606.800084 
L 797.095905 606.800084 
L 797.578296 606.625126 
L 798.060688 606.956994 
L 798.543079 606.800084 
L 799.025471 606.818278 
L 799.507862 604.683132 
L 799.990254 604.712048 
L 800.472645 607.681754 
L 800.955037 600.200159 
L 801.437428 606.800084 
L 801.91982 605.071531 
L 802.402211 606.627852 
L 802.884603 606.956994 
L 803.366994 606.627852 
L 803.849386 606.800084 
L 804.331777 606.800084 
L 804.814169 606.956994 
L 805.29656 606.800084 
L 805.778952 607.568954 
L 806.261343 606.800084 
L 808.190909 606.800084 
L 808.673301 604.712048 
L 809.155692 606.802617 
L 809.638084 606.800084 
L 810.120475 607.681754 
L 810.602867 606.800084 
L 811.085258 604.712048 
L 811.567649 606.800084 
L 812.050041 606.627852 
L 812.532432 606.800084 
L 813.014824 606.800084 
L 813.497215 607.568954 
L 813.979607 606.800084 
L 814.461998 606.797419 
L 814.94439 605.409922 
L 815.426781 606.625126 
L 815.909173 606.800084 
L 816.391564 606.800084 
L 816.873956 606.625126 
L 817.356347 606.800084 
L 817.838739 607.773617 
L 818.32113 606.974382 
L 818.803522 605.098463 
L 819.285913 607.668017 
L 819.768305 604.712048 
L 820.250696 605.435125 
L 820.733088 606.627852 
L 821.215479 606.800084 
L 822.662654 606.800084 
L 823.145045 605.071531 
L 824.109828 608.205424 
L 824.592219 606.800084 
L 825.074611 606.956994 
L 825.557002 607.666017 
L 826.039394 606.800084 
L 826.521785 605.409922 
L 827.004177 607.585224 
L 827.486568 606.800084 
L 827.96896 605.438725 
L 828.451351 606.818278 
L 828.933743 604.712048 
L 829.416134 605.098463 
L 829.898526 606.627852 
L 830.380917 607.681754 
L 830.863309 605.098463 
L 831.3457 606.627852 
L 831.828092 607.585224 
L 832.310483 604.712048 
L 832.792875 606.956994 
L 833.275266 606.959478 
L 833.757658 601.38276 
L 834.240049 606.800084 
L 834.722441 607.668017 
L 835.204832 606.956994 
L 835.687224 605.071531 
L 836.169615 606.800084 
L 836.652007 606.627852 
L 837.61679 606.959478 
L 838.099181 605.435125 
L 838.581572 606.800084 
L 839.063964 605.098463 
L 839.546355 606.802617 
L 840.028747 606.800084 
L 840.511138 605.098463 
L 840.99353 606.956994 
L 841.475921 605.098463 
L 841.958313 606.800084 
L 842.923096 606.800084 
L 843.405487 607.758449 
L 843.887879 605.098463 
L 844.37027 605.098463 
L 844.852662 606.800084 
L 845.335053 605.071531 
L 845.817445 606.800084 
L 846.299836 605.071531 
L 846.782228 606.800084 
L 847.264619 606.800084 
L 847.747011 606.627852 
L 848.229402 604.712048 
L 848.711794 604.712048 
L 849.194185 606.800084 
L 850.158968 606.800084 
L 850.64136 606.627852 
L 851.123751 605.098463 
L 851.606143 606.800084 
L 852.088534 606.800084 
L 852.570925 605.071531 
L 853.053317 607.568954 
L 853.535708 606.800084 
L 854.0181 606.800084 
L 854.500491 606.608774 
L 854.982883 606.627852 
L 855.465274 605.098463 
L 855.947666 606.800084 
L 856.430057 605.071531 
L 856.912449 606.627852 
L 857.39484 607.683679 
L 857.877232 606.627852 
L 858.359623 606.800084 
L 858.842015 607.668017 
L 859.324406 607.681754 
L 859.806798 606.627852 
L 860.289189 606.800084 
L 861.253972 606.800084 
L 861.736364 605.075234 
L 862.218755 606.800084 
L 862.701147 605.071531 
L 863.183538 606.956994 
L 863.66593 606.956994 
L 864.148321 606.800084 
L 865.113104 606.800084 
L 865.595495 606.627852 
L 866.077887 605.098463 
L 866.560278 605.098463 
L 867.04267 607.585224 
L 867.525061 604.228488 
L 868.007453 606.800084 
L 868.489844 606.800084 
L 868.972236 605.438725 
L 869.454627 605.098463 
L 869.937019 606.800084 
L 870.41941 605.071531 
L 870.901802 607.668017 
L 871.384193 606.800084 
L 871.866585 606.956994 
L 872.348976 604.707917 
L 872.831368 605.098463 
L 873.313759 605.071531 
L 873.796151 607.758449 
L 874.278542 606.800084 
L 874.760934 606.800084 
L 875.243325 604.712048 
L 875.725717 606.800084 
L 876.208108 606.800084 
L 876.6905 607.681754 
L 877.172891 606.959478 
L 877.655283 598.597523 
L 878.137674 606.800084 
L 879.102457 606.800084 
L 879.584848 605.098463 
L 880.06724 606.800084 
L 880.549631 606.627852 
L 881.032023 605.098463 
L 881.514414 606.625126 
L 881.996806 606.800084 
L 882.961589 606.800084 
L 883.44398 607.668017 
L 883.926372 606.627852 
L 884.408763 606.959478 
L 884.891155 605.438725 
L 885.373546 606.959478 
L 885.855938 605.098463 
L 886.338329 607.760344 
L 886.820721 606.646931 
L 887.303112 606.800084 
L 888.267895 606.802617 
L 888.750287 605.438725 
L 889.232678 607.681754 
L 889.71507 607.585224 
L 890.197461 607.773617 
L 890.679853 608.265391 
L 891.162244 607.773617 
L 891.644636 606.800084 
L 892.127027 607.102974 
L 892.609419 606.627852 
L 893.09181 606.818278 
L 893.574201 607.681754 
L 894.056593 607.683679 
L 894.538984 606.800084 
L 895.021376 607.773617 
L 895.503767 607.681754 
L 895.986159 606.820811 
L 896.46855 606.627852 
L 896.950942 605.098463 
L 897.433333 607.760344 
L 897.915725 606.646931 
L 898.398116 607.681754 
L 898.880508 606.959478 
L 899.362899 605.098463 
L 899.845291 606.800084 
L 900.327682 607.681754 
L 900.810074 606.959478 
L 901.292465 606.800084 
L 901.774857 606.800084 
L 902.257248 605.098463 
L 902.73964 606.959478 
L 903.222031 606.627852 
L 903.704423 606.976866 
L 904.186814 606.800084 
L 904.669206 604.712048 
L 905.151597 606.627852 
L 905.633989 606.800084 
L 906.11638 605.071531 
L 906.598771 606.800084 
L 907.081163 607.585224 
L 907.563554 604.712048 
L 908.045946 606.959478 
L 908.528337 606.627852 
L 909.010729 607.681754 
L 909.49312 606.800084 
L 909.975512 606.800084 
L 910.457903 605.071531 
L 910.940295 606.627852 
L 911.422686 604.712048 
L 911.905078 607.760344 
L 912.387469 606.797419 
L 912.869861 606.800084 
L 913.352252 607.668017 
L 913.834644 605.098463 
L 914.317035 606.627852 
L 914.799427 605.098463 
L 915.281818 606.625126 
L 915.76421 607.585224 
L 916.246601 606.627852 
L 916.728993 605.098463 
L 917.211384 606.627852 
L 917.693776 607.479316 
L 918.176167 606.800084 
L 918.658559 606.625126 
L 919.14095 606.800084 
L 919.623342 606.627852 
L 920.105733 606.800084 
L 920.588124 606.800084 
L 921.070516 606.625126 
L 921.552907 606.800084 
L 922.035299 604.683132 
L 922.51769 606.800084 
L 923.000082 606.800084 
L 923.482473 606.627852 
L 923.964865 606.625126 
L 924.447256 606.959478 
L 924.929648 604.712048 
L 925.412039 605.098463 
L 925.894431 606.800084 
L 926.376822 606.800084 
L 926.859214 604.712048 
L 927.341605 606.800084 
L 927.823997 606.627852 
L 928.306388 606.644205 
L 928.78878 604.683132 
L 929.271171 605.098463 
L 929.753563 604.683132 
L 930.235954 606.800084 
L 930.718346 606.800084 
L 931.200737 606.625126 
L 931.683129 606.800084 
L 932.16552 605.098463 
L 932.647912 606.800084 
L 933.130303 604.712048 
L 933.612695 606.800084 
L 934.095086 604.712048 
L 934.577477 606.627852 
L 935.059869 606.627852 
L 935.54226 605.102167 
L 936.024652 606.627852 
L 936.507043 605.102167 
L 936.989435 604.712048 
L 937.471826 606.625126 
L 937.954218 605.098463 
L 938.436609 600.200159 
L 938.919001 598.657225 
L 939.401392 606.800084 
L 939.883784 606.627852 
L 940.366175 606.800084 
L 940.848567 604.707917 
L 941.330958 606.625126 
L 941.81335 606.625126 
L 942.295741 604.712048 
L 942.778133 604.712048 
L 943.260524 606.627852 
L 943.742916 604.712048 
L 945.19009 604.712048 
L 945.672482 606.800084 
L 946.154873 606.627852 
L 946.637265 606.800084 
L 947.119656 605.098463 
L 947.602048 606.627852 
L 948.084439 606.625126 
L 948.56683 604.259704 
L 949.049222 606.800084 
L 949.531613 606.800084 
L 950.014005 604.683132 
L 950.496396 604.683132 
L 950.978788 606.800084 
L 951.943571 606.800084 
L 952.425962 600.200159 
L 952.908354 605.071531 
L 953.390745 598.657225 
L 953.873137 605.098463 
L 954.355528 604.712048 
L 954.83792 606.800084 
L 955.320311 604.712048 
L 955.802703 605.098463 
L 956.285094 605.098463 
L 956.767486 606.627852 
L 957.249877 596.550593 
L 957.732269 606.800084 
L 958.21466 601.38276 
L 958.697052 605.071531 
L 959.179443 606.800084 
L 960.144226 606.435156 
L 960.626618 606.435156 
L 961.109009 600.200159 
L 961.5914 606.800084 
L 962.073792 606.800084 
L 962.556183 606.627852 
L 963.038575 606.627852 
L 963.520966 605.098463 
L 964.003358 604.712048 
L 964.485749 598.716927 
L 964.968141 605.125395 
L 965.450532 605.098463 
L 965.932924 606.800084 
L 966.415315 606.627852 
L 966.897707 606.627852 
L 967.380098 606.800084 
L 967.86249 605.098463 
L 968.344881 606.800084 
L 968.827273 605.098463 
L 969.309664 600.200159 
L 969.792056 606.435156 
L 970.274447 606.800084 
L 970.756839 606.959478 
L 971.721622 606.627852 
L 972.204013 606.627852 
L 972.686405 606.800084 
L 973.168796 606.800084 
L 973.651188 605.098463 
L 974.133579 606.800084 
L 974.615971 606.627852 
L 975.098362 600.200159 
L 975.580753 604.228488 
L 976.063145 606.627852 
L 976.545536 604.683132 
L 977.027928 604.712048 
L 977.510319 605.071531 
L 977.992711 600.200159 
L 978.475102 606.800084 
L 978.957494 604.228488 
L 979.439885 605.098463 
L 979.922277 600.200159 
L 980.404668 606.800084 
L 980.88706 600.200159 
L 981.369451 604.712048 
L 981.851843 606.627852 
L 982.334234 606.627852 
L 982.816626 606.800084 
L 983.299017 604.712048 
L 983.781409 600.200159 
L 984.2638 604.712048 
L 984.746192 604.712048 
L 985.228583 606.627852 
L 985.710975 606.627852 
L 986.193366 605.102167 
L 986.675758 606.800084 
L 987.158149 606.435156 
L 987.640541 606.800084 
L 988.605324 606.800084 
L 989.087715 604.679 
L 989.570106 598.648695 
L 990.052498 604.707917 
L 990.534889 605.075234 
L 991.017281 604.712048 
L 991.982064 604.712048 
L 992.464455 606.802617 
L 992.946847 605.098463 
L 993.429238 605.102167 
L 993.91163 598.716927 
L 994.394021 606.646931 
L 994.876413 605.098463 
L 995.358804 604.233141 
L 995.841196 604.712048 
L 996.323587 600.200159 
L 996.805979 604.707917 
L 997.28837 606.800084 
L 997.770762 606.435156 
L 998.253153 606.625126 
L 998.735545 606.627852 
L 999.217936 606.800084 
L 999.700328 606.627852 
L 1000.182719 606.800084 
L 1000.665111 600.200159 
L 1001.147502 605.098463 
L 1001.629894 604.712048 
L 1002.112285 606.646931 
L 1002.594676 607.585224 
L 1003.077068 604.712048 
L 1003.559459 604.712048 
L 1004.041851 606.627852 
L 1004.524242 606.627852 
L 1005.006634 604.683132 
L 1005.971417 604.712048 
L 1006.453808 606.800084 
L 1006.9362 606.625126 
L 1007.418591 604.259704 
L 1007.900983 604.683132 
L 1008.383374 606.800084 
L 1008.865766 604.683132 
L 1009.348157 606.800084 
L 1009.830549 605.098463 
L 1010.31294 604.712048 
L 1010.795332 606.800084 
L 1011.277723 604.712048 
L 1011.760115 606.627852 
L 1012.242506 598.716927 
L 1012.724898 606.800084 
L 1013.207289 604.712048 
L 1014.654464 604.712048 
L 1015.136855 600.200159 
L 1015.619247 604.712048 
L 1016.101638 604.712048 
L 1016.584029 605.098463 
L 1017.066421 606.959478 
L 1018.031204 606.627852 
L 1018.513595 604.683132 
L 1018.995987 604.259704 
L 1019.478378 598.657225 
L 1019.96077 604.264357 
L 1020.443161 598.657225 
L 1020.925553 598.657225 
L 1021.407944 604.259704 
L 1021.890336 605.098463 
L 1022.372727 600.200159 
L 1022.855119 604.712048 
L 1023.33751 605.098463 
L 1023.819902 605.102167 
L 1024.302293 606.800084 
L 1024.784685 604.712048 
L 1025.267076 606.627852 
L 1025.749468 606.800084 
L 1026.231859 601.389298 
L 1026.714251 606.627852 
L 1027.196642 604.712048 
L 1027.679034 604.679 
L 1028.161425 600.200159 
L 1028.643817 606.627852 
L 1029.126208 606.800084 
L 1029.6086 600.251979 
L 1030.090991 605.438725 
L 1030.573382 606.627852 
L 1031.055774 606.627852 
L 1031.538165 600.251979 
L 1032.020557 598.716927 
L 1032.502948 604.712048 
L 1033.467731 604.707917 
L 1033.950123 605.098463 
L 1034.432514 604.712048 
L 1034.914906 604.683132 
L 1035.397297 605.098463 
L 1035.879689 606.800084 
L 1036.36208 604.712048 
L 1036.844472 606.627852 
L 1037.326863 605.098463 
L 1037.809255 604.259704 
L 1038.291646 605.071531 
L 1038.774038 606.627852 
L 1039.256429 604.712048 
L 1040.221212 604.712048 
L 1040.703604 605.098463 
L 1041.185995 606.646931 
L 1041.668387 604.712048 
L 1043.115561 604.712048 
L 1043.597952 606.4381 
L 1044.080344 604.712048 
L 1044.562735 606.800084 
L 1045.045127 606.802617 
L 1045.527518 606.956994 
L 1046.00991 604.707917 
L 1046.492301 605.098463 
L 1046.974693 606.627852 
L 1047.457084 606.959478 
L 1047.939476 606.800084 
L 1048.421867 604.712048 
L 1048.904259 606.800084 
L 1049.38665 606.818278 
L 1049.869042 604.712048 
L 1050.351433 605.098463 
L 1050.833825 605.098463 
L 1051.316216 606.959478 
L 1051.798608 605.438725 
L 1052.280999 606.818278 
L 1052.763391 606.646931 
L 1053.245782 605.438725 
L 1053.728174 606.820811 
L 1054.210565 606.959478 
L 1054.692957 607.773617 
L 1055.175348 607.683679 
L 1055.65774 605.438725 
L 1056.140131 606.818278 
L 1056.622523 607.681754 
L 1057.104914 607.773617 
L 1058.069697 607.681754 
L 1058.552088 607.773617 
L 1059.03448 606.820811 
L 1059.516871 607.683679 
L 1059.999263 606.976866 
L 1060.481654 607.773617 
L 1060.964046 607.78689 
L 1061.446437 607.122058 
L 1061.928829 607.775514 
L 1062.893612 607.859505 
L 1063.376003 608.332635 
L 1063.858395 606.976866 
L 1064.340786 607.773617 
L 1064.823178 608.206976 
L 1065.305569 607.773617 
L 1066.752744 607.683679 
L 1067.235135 608.276123 
L 1067.717527 606.97935 
L 1068.199918 606.820811 
L 1068.68231 606.97935 
L 1069.164701 606.976866 
L 1069.647093 606.818278 
L 1071.094267 606.820811 
L 1071.576658 606.976866 
L 1072.05905 606.820811 
L 1072.541441 607.683679 
L 1073.023833 607.683679 
L 1073.506224 606.800084 
L 1073.988616 606.646931 
L 1074.471007 607.773617 
L 1074.953399 606.627852 
L 1075.43579 607.773617 
L 1075.918182 606.802617 
L 1076.400573 607.771721 
L 1076.882965 606.959478 
L 1077.365356 607.585224 
L 1077.847748 606.800084 
L 1078.330139 605.438725 
L 1078.812531 606.976866 
L 1079.777314 606.627852 
L 1080.259705 606.802617 
L 1080.742097 605.73805 
L 1081.224488 605.098463 
L 1081.70688 606.818278 
L 1082.189271 606.646931 
L 1082.671663 605.102167 
L 1083.154054 605.098463 
L 1083.636446 606.627852 
L 1084.118837 604.712048 
L 1084.601229 606.644205 
L 1085.08362 606.800084 
L 1085.566011 606.627852 
L 1086.048403 606.800084 
L 1086.530794 606.627852 
L 1087.013186 606.800084 
L 1087.495577 606.800084 
L 1087.977969 606.627852 
L 1088.46036 605.071531 
L 1088.942752 604.712048 
L 1089.425143 606.646931 
L 1089.907535 604.712048 
L 1090.389926 605.102167 
L 1090.872318 605.098463 
L 1091.354709 604.707917 
L 1091.837101 606.646931 
L 1092.319492 605.102167 
L 1092.801884 606.627852 
L 1093.284275 605.098463 
L 1093.766667 605.098463 
L 1094.249058 606.627852 
L 1094.73145 605.102167 
L 1095.213841 606.627852 
L 1095.696233 605.102167 
L 1096.178624 605.098463 
L 1096.661016 604.712048 
L 1097.143407 606.627852 
L 1097.625799 604.707917 
L 1098.10819 604.259704 
L 1098.590581 606.627852 
L 1099.072973 605.098463 
L 1099.555364 604.712048 
L 1100.037756 607.585224 
L 1100.520147 607.585224 
L 1101.002539 598.716927 
L 1101.48493 604.712048 
L 1101.967322 604.712048 
L 1102.449713 605.102167 
L 1102.932105 606.627852 
L 1103.414496 607.681754 
L 1103.896888 606.627852 
L 1104.379279 606.435156 
L 1104.861671 606.627852 
L 1105.344062 606.627852 
L 1105.826454 606.800084 
L 1106.308845 604.712048 
L 1106.791237 598.716927 
L 1107.273628 605.098463 
L 1107.75602 605.098463 
L 1108.238411 604.264357 
L 1108.720803 604.712048 
L 1109.203194 604.712048 
L 1109.685586 606.627852 
L 1110.167977 606.627852 
L 1110.650369 604.712048 
L 1111.13276 598.657225 
L 1111.615152 604.712048 
L 1112.097543 605.098463 
L 1112.579934 605.098463 
L 1113.062326 604.712048 
L 1113.544717 600.200159 
L 1114.027109 600.200159 
L 1114.5095 606.455209 
L 1114.991892 604.707917 
L 1115.474283 605.098463 
L 1115.956675 606.627852 
L 1116.439066 604.707917 
L 1117.403849 604.712048 
L 1117.886241 605.102167 
L 1118.368632 606.646931 
L 1118.851024 604.259704 
L 1119.333415 605.098463 
L 1119.815807 606.646931 
L 1120.298198 605.098463 
L 1120.78059 604.712048 
L 1121.262981 604.707917 
L 1121.745373 605.098463 
L 1122.227764 604.712048 
L 1122.710156 606.800084 
L 1123.192547 604.712048 
L 1123.674939 606.627852 
L 1124.15733 604.679 
L 1124.639722 598.657225 
L 1125.122113 606.800084 
L 1125.604505 598.657225 
L 1126.086896 606.627852 
L 1126.569287 606.627852 
L 1127.051679 605.102167 
L 1127.53407 600.251979 
L 1128.016462 604.712048 
L 1128.498853 604.264357 
L 1128.981245 606.627852 
L 1129.463636 600.207028 
L 1129.946028 604.712048 
L 1130.428419 598.716927 
L 1130.910811 604.712048 
L 1131.393202 604.259704 
L 1131.875594 604.712048 
L 1132.357985 598.716927 
L 1132.840377 600.200159 
L 1133.322768 604.707917 
L 1133.80516 606.627852 
L 1134.287551 605.098463 
L 1134.769943 604.712048 
L 1135.252334 604.712048 
L 1135.734726 604.264357 
L 1136.699509 605.098463 
L 1137.1819 606.627852 
L 1137.664292 604.712048 
L 1138.146683 605.098463 
L 1138.629075 604.683132 
L 1139.593857 604.712048 
L 1140.076249 606.627852 
L 1140.55864 606.646931 
L 1141.041032 598.657225 
L 1141.523423 606.627852 
L 1142.005815 606.627852 
L 1142.488206 605.098463 
L 1142.970598 606.627852 
L 1143.452989 604.259704 
L 1143.935381 598.716927 
L 1144.417772 605.098463 
L 1144.900164 605.098463 
L 1145.382555 606.627852 
L 1145.864947 604.712048 
L 1146.347338 605.098463 
L 1146.82973 604.712048 
L 1147.312121 604.712048 
L 1147.794513 601.38276 
L 1148.276904 604.712048 
L 1148.759296 598.716927 
L 1149.241687 606.802617 
L 1149.724079 604.712048 
L 1150.20647 605.098463 
L 1150.688862 604.712048 
L 1151.171253 606.800084 
L 1151.653645 605.098463 
L 1152.136036 604.712048 
L 1152.618428 605.098463 
L 1153.100819 598.657225 
L 1153.58321 598.657225 
L 1154.065602 606.435156 
L 1154.547993 598.716927 
L 1155.030385 605.098463 
L 1155.512776 598.716927 
L 1155.995168 606.627852 
L 1156.477559 604.712048 
L 1156.959951 604.712048 
L 1157.442342 605.098463 
L 1157.924734 604.712048 
L 1158.407125 604.712048 
L 1158.889517 605.102167 
L 1159.371908 604.683132 
L 1160.336691 604.683132 
L 1160.819083 606.435156 
L 1161.301474 606.800084 
L 1161.783866 604.259704 
L 1162.266257 606.800084 
L 1162.748649 605.098463 
L 1163.23104 604.712048 
L 1163.713432 606.627852 
L 1164.195823 606.800084 
L 1164.678215 604.712048 
L 1165.160606 605.098463 
L 1165.642998 604.264357 
L 1166.125389 605.098463 
L 1166.607781 604.712048 
L 1167.090172 598.657225 
L 1167.572563 598.716927 
L 1168.054955 606.627852 
L 1168.537346 605.098463 
L 1169.019738 604.712048 
L 1169.502129 604.712048 
L 1169.984521 598.657225 
L 1170.466912 605.098463 
L 1170.949304 604.712048 
L 1171.431695 606.627852 
L 1171.914087 606.627852 
L 1172.396478 606.435156 
L 1172.87887 606.627852 
L 1173.361261 606.627852 
L 1173.843653 604.712048 
L 1174.326044 598.716927 
L 1174.808436 606.800084 
L 1175.290827 604.707917 
L 1175.773219 604.712048 
L 1176.25561 607.585224 
L 1176.738002 604.712048 
L 1177.220393 596.632046 
L 1177.702785 604.712048 
L 1178.185176 606.627852 
L 1178.667568 604.712048 
L 1179.149959 606.435156 
L 1179.632351 604.712048 
L 1180.114742 604.707917 
L 1180.597133 605.098463 
L 1181.079525 604.712048 
L 1181.561916 603.734258 
L 1182.044308 604.712048 
L 1183.009091 604.712048 
L 1183.009091 604.712048 
" clip-path="url(#p3959ecfcdd)" style="fill: none; stroke: #1f77b4; stroke-width: 1.5; stroke-linecap: square"/>
   </g>
   <g id="line2d_13">
    <path d="M 219.190909 588.281932 
L 222.414381 579.896753 
L 225.637853 585.320081 
L 228.861326 577.609966 
L 232.084798 579.307298 
L 235.30827 590.205408 
L 238.531742 585.579418 
L 241.755214 586.373412 
L 244.978687 581.605854 
L 248.202159 586.207152 
L 251.425631 588.096902 
L 254.649103 591.05249 
L 257.872575 585.221639 
L 261.096047 587.099368 
L 264.31952 579.644679 
L 267.542992 586.44607 
L 270.766464 587.022395 
L 273.989936 581.697977 
L 277.213408 589.546294 
L 280.436881 598.895338 
L 283.660353 583.563918 
L 286.883825 594.878084 
L 290.107297 588.318884 
L 293.330769 587.455243 
L 296.554241 590.577365 
L 299.777714 587.698331 
L 303.001186 588.071194 
L 306.224658 594.661769 
L 309.44813 577.50291 
L 312.671602 579.956997 
L 315.895074 558.985808 
L 319.118547 251.478742 
L 322.342019 193.61638 
L 325.565491 174.645875 
L 328.788963 163.244436 
L 332.012435 134.407909 
L 335.235908 143.274961 
L 338.45938 134.612861 
L 341.682852 126.985565 
L 344.906324 114.80034 
L 348.129796 117.743384 
L 354.576741 160.495643 
L 357.800213 188.082789 
L 361.023685 214.694643 
L 364.247157 245.232177 
L 367.470629 260.19258 
L 370.694102 286.355106 
L 373.917574 322.887074 
L 377.141046 342.361585 
L 380.364518 346.282268 
L 383.58799 379.828658 
L 386.811462 383.505452 
L 390.034935 413.995176 
L 393.258407 425.042499 
L 396.481879 445.603138 
L 399.705351 450.714221 
L 402.928823 452.271271 
L 406.152296 477.727828 
L 409.375768 475.466665 
L 412.59924 487.056784 
L 415.822712 453.645189 
L 422.269656 331.332688 
L 425.493129 230.40247 
L 428.716601 210.203 
L 431.940073 197.982996 
L 435.163545 194.384269 
L 438.387017 249.09769 
L 441.61049 281.866996 
L 444.833962 339.172239 
L 448.057434 357.363896 
L 451.280906 388.763515 
L 454.504378 414.717433 
L 457.72785 425.120286 
L 460.951323 449.595523 
L 464.174795 462.915599 
L 467.398267 467.995382 
L 470.621739 482.872748 
L 473.845211 486.448617 
L 477.068683 492.577783 
L 480.292156 483.974988 
L 483.515628 490.090988 
L 486.7391 505.382265 
L 489.962572 499.296352 
L 493.186044 499.552624 
L 496.409517 497.912667 
L 499.632989 500.017358 
L 502.856461 501.059556 
L 506.079933 512.51649 
L 509.303405 508.727232 
L 512.526877 522.897111 
L 515.75035 525.658088 
L 518.973822 532.788781 
L 522.197294 535.928159 
L 525.420766 527.334146 
L 528.644238 536.441646 
L 531.867711 525.281203 
L 535.091183 537.185671 
L 538.314655 538.668602 
L 541.538127 524.066918 
L 544.761599 502.28399 
L 547.985071 500.203921 
L 551.208544 493.874563 
L 554.432016 475.31851 
L 557.655488 469.444511 
L 560.87896 416.289737 
L 564.102432 390.449444 
L 567.325905 411.913714 
L 570.549377 448.605296 
L 573.772849 474.030081 
L 576.996321 508.54888 
L 580.219793 517.424682 
L 583.443265 535.626647 
L 586.666738 524.270703 
L 589.89021 543.084576 
L 593.113682 529.75766 
L 596.337154 547.920831 
L 599.560626 534.482653 
L 602.784099 537.074797 
L 606.007571 561.921507 
L 609.231043 551.173905 
L 612.454515 557.142399 
L 615.677987 571.187863 
L 618.901459 558.189071 
L 622.124932 570.174627 
L 625.348404 572.460123 
L 628.571876 566.353686 
L 631.795348 564.111383 
L 635.01882 562.744566 
L 638.242292 577.874912 
L 641.465765 565.195334 
L 644.689237 562.484914 
L 647.912709 553.209005 
L 651.136181 563.981754 
L 654.359653 561.757004 
L 657.583126 554.394849 
L 660.806598 571.643407 
L 664.03007 564.423979 
L 667.253542 577.708839 
L 670.477014 570.247983 
L 673.700486 572.71226 
L 676.923959 573.910561 
L 680.147431 568.920452 
L 683.370903 566.11912 
L 686.594375 564.400836 
L 689.817847 566.934508 
L 693.04132 570.484076 
L 696.264792 575.642657 
L 699.488264 575.122253 
L 702.711736 575.325996 
L 705.935208 565.80704 
L 709.15868 571.345999 
L 712.382153 577.548125 
L 715.605625 574.814383 
L 718.829097 569.037347 
L 722.052569 566.050188 
L 725.276041 564.625115 
L 728.499514 575.050302 
L 731.722986 560.548782 
L 734.946458 573.227304 
L 738.16993 575.427906 
L 741.393402 543.811606 
L 744.616874 547.75366 
L 747.840347 523.555732 
L 751.063819 511.604241 
L 754.287291 507.659338 
L 757.510763 510.180409 
L 760.734235 523.805134 
L 763.957708 525.953477 
L 767.18118 549.915107 
L 770.404652 565.780125 
L 773.628124 562.692148 
L 776.851596 561.490783 
L 780.075068 569.180497 
L 783.298541 563.5003 
L 786.522013 587.412766 
L 789.745485 573.335607 
L 792.968957 570.385382 
L 796.192429 576.635398 
L 799.415901 585.533079 
L 802.639374 573.57888 
L 805.862846 566.480187 
L 809.086318 576.986689 
L 815.533262 575.781573 
L 818.756735 587.504616 
L 821.980207 575.811414 
L 825.203679 570.345658 
L 828.427151 575.27819 
L 831.650623 565.52429 
L 834.874095 565.544554 
L 838.097568 585.064007 
L 844.544512 580.89534 
L 847.767984 577.364251 
L 850.991456 585.45904 
L 854.214929 576.015893 
L 857.438401 564.459864 
L 860.661873 575.597248 
L 863.885345 575.04969 
L 867.108817 567.285367 
L 870.332289 586.821119 
L 873.555762 573.507006 
L 876.779234 563.2848 
L 880.002706 577.029213 
L 883.226178 567.727638 
L 886.44965 562.92441 
L 889.673123 565.193893 
L 892.896595 577.592023 
L 896.120067 575.619896 
L 899.343539 586.605975 
L 902.567011 578.550436 
L 905.790483 579.52721 
L 909.013956 564.100769 
L 912.237428 569.400999 
L 915.4609 570.997835 
L 918.684372 576.95938 
L 921.907844 586.572799 
L 925.131317 590.159079 
L 928.354789 577.719878 
L 931.578261 574.371485 
L 934.801733 574.165606 
L 938.025205 588.613532 
L 941.248677 579.305052 
L 944.47215 587.537141 
L 947.695622 575.288524 
L 950.919094 576.468065 
L 954.142566 587.693171 
L 957.366038 597.387686 
L 960.58951 577.59883 
L 963.812983 586.859665 
L 967.036455 575.588468 
L 970.259927 575.435541 
L 973.483399 584.160412 
L 976.706871 590.30483 
L 979.930344 597.890754 
L 983.153816 583.367851 
L 986.377288 583.216298 
L 989.60076 599.491067 
L 992.824232 584.010501 
L 996.047704 592.742425 
L 999.271177 575.663556 
L 1002.494649 565.120655 
L 1005.718121 589.182895 
L 1008.941593 587.678617 
L 1012.165065 598.334497 
L 1015.388538 593.944276 
L 1018.61201 589.075898 
L 1021.835482 585.937958 
L 1025.058954 584.131102 
L 1028.282426 595.029227 
L 1031.505898 596.850559 
L 1034.729371 588.251129 
L 1037.952843 589.853324 
L 1041.176315 576.860015 
L 1044.399787 580.184225 
L 1047.623259 573.044564 
L 1050.846732 586.397559 
L 1057.293676 562.975168 
L 1060.517148 561.706782 
L 1063.74062 568.768559 
L 1066.964092 556.692332 
L 1070.187565 575.202408 
L 1073.411037 573.160478 
L 1076.634509 567.133246 
L 1079.857981 576.629187 
L 1083.081453 587.895742 
L 1086.304926 576.301553 
L 1089.528398 577.970948 
L 1092.75187 577.572624 
L 1095.975342 587.255595 
L 1099.198814 589.430282 
L 1102.422286 586.944898 
L 1105.645759 575.076857 
L 1108.869231 588.765882 
L 1112.092703 586.655302 
L 1115.316175 589.552673 
L 1118.539647 580.179944 
L 1121.763119 586.785295 
L 1124.986592 578.834012 
L 1128.210064 589.251114 
L 1131.433536 589.896673 
L 1134.657008 588.61644 
L 1137.88048 588.841325 
L 1141.103953 598.95231 
L 1144.327425 588.572708 
L 1147.550897 593.553564 
L 1153.997841 579.075629 
L 1157.221313 586.770235 
L 1160.444786 586.979644 
L 1163.668258 578.027938 
L 1166.89173 594.707404 
L 1170.115202 597.450555 
L 1173.338674 576.860393 
L 1176.562147 577.251966 
L 1179.785619 589.793703 
L 1183.009091 588.281932 
L 1183.009091 588.281932 
" clip-path="url(#p3959ecfcdd)" style="fill: none; stroke: #ff7f0e; stroke-width: 1.5; stroke-linecap: square"/>
   </g>
   <g id="line2d_14">
    <path d="M 219.190909 588.084182 
L 222.414381 581.270302 
L 225.637853 581.871001 
L 228.861326 580.424608 
L 232.084798 581.830283 
L 235.30827 584.976687 
L 238.531742 586.721113 
L 241.755214 586.25512 
L 244.978687 585.15275 
L 248.202159 585.181333 
L 251.425631 586.603994 
L 254.649103 588.157535 
L 257.872575 588.297446 
L 261.096047 586.54989 
L 264.31952 583.981893 
L 267.542992 583.160466 
L 270.766464 583.856509 
L 273.989936 586.346548 
L 277.213408 594.997003 
L 280.436881 585.256041 
L 283.660353 586.904486 
L 286.883825 597.892812 
L 290.107297 599.271574 
L 293.330769 585.282991 
L 296.554241 573.748628 
L 299.777714 578.245083 
L 303.001186 597.756256 
L 306.224658 615.6 
L 309.44813 605.992389 
L 312.671602 553.345114 
L 315.895074 457.928689 
L 319.118547 339.254948 
L 322.342019 229.41549 
L 325.565491 158.493722 
L 328.788963 130.260933 
L 332.012435 134.93164 
L 335.235908 147.505666 
L 338.45938 145.886032 
L 341.682852 127.213687 
L 344.906324 111.6 
L 348.129796 114.09504 
L 354.576741 166.252713 
L 357.800213 181.655953 
L 361.023685 214.91383 
L 367.470629 267.729788 
L 370.694102 290.767138 
L 373.917574 315.586218 
L 377.141046 336.275898 
L 380.364518 354.628383 
L 383.58799 374.220478 
L 386.811462 391.641193 
L 390.034935 410.937675 
L 393.258407 427.250183 
L 396.481879 437.505789 
L 399.705351 448.788574 
L 402.928823 460.549622 
L 406.152296 474.77385 
L 409.375768 484.41665 
L 412.59924 479.618804 
L 415.822712 449.88088 
L 419.046184 393.273599 
L 425.493129 251.552743 
L 428.716601 203.586367 
L 431.940073 188.219075 
L 435.163545 205.464745 
L 438.387017 242.971728 
L 441.61049 287.31452 
L 444.833962 329.365928 
L 448.057434 363.674176 
L 451.280906 390.66678 
L 454.504378 410.713566 
L 457.72785 429.228502 
L 460.951323 446.416187 
L 464.174795 460.101666 
L 467.398267 474.770603 
L 470.621739 480.61199 
L 473.845211 484.273232 
L 477.068683 488.281472 
L 480.292156 490.702773 
L 483.515628 495.110105 
L 486.7391 496.314892 
L 489.962572 499.871434 
L 493.186044 500.094081 
L 496.409517 499.953028 
L 499.632989 500.959572 
L 502.856461 501.795637 
L 506.079933 505.321925 
L 512.526877 523.09192 
L 515.75035 527.958772 
L 518.973822 530.43977 
L 522.197294 530.660692 
L 525.420766 531.182462 
L 528.644238 534.017648 
L 531.867711 537.001299 
L 535.091183 533.639263 
L 538.314655 527.405604 
L 541.538127 519.652122 
L 544.761599 514.256338 
L 547.985071 505.378517 
L 551.208544 494.472999 
L 554.432016 473.174794 
L 560.87896 422.862463 
L 564.102432 408.151084 
L 567.325905 414.889509 
L 570.549377 437.298508 
L 573.772849 471.711857 
L 576.996321 504.913657 
L 580.219793 524.603858 
L 583.443265 532.517712 
L 586.666738 533.833529 
L 589.89021 532.787305 
L 593.113682 534.904978 
L 596.337154 538.830189 
L 599.560626 541.388027 
L 602.784099 544.606413 
L 609.231043 554.421062 
L 612.454515 560.391933 
L 615.677987 565.567253 
L 618.901459 566.179567 
L 622.124932 567.611183 
L 625.348404 566.363329 
L 628.571876 568.192873 
L 631.795348 567.730313 
L 635.01882 568.678555 
L 638.242292 566.955667 
L 641.465765 566.025202 
L 644.689237 563.926484 
L 647.912709 559.664209 
L 651.136181 558.603307 
L 654.359653 558.909659 
L 657.583126 560.80083 
L 660.806598 565.880957 
L 664.03007 569.967335 
L 667.253542 571.976459 
L 670.477014 573.412898 
L 673.700486 574.007931 
L 676.923959 572.441096 
L 680.147431 567.740616 
L 683.370903 565.45771 
L 686.594375 565.511116 
L 689.817847 569.569998 
L 693.04132 570.609346 
L 696.264792 572.344343 
L 699.488264 574.80158 
L 702.711736 572.293258 
L 705.935208 573.132162 
L 709.15868 572.517538 
L 712.382153 572.952683 
L 715.605625 572.4788 
L 718.829097 570.404461 
L 722.052569 568.475765 
L 725.276041 566.258464 
L 728.499514 567.308382 
L 731.722986 570.307716 
L 734.946458 570.747866 
L 738.16993 565.917436 
L 741.393402 556.174118 
L 744.616874 540.232356 
L 747.840347 526.09558 
L 751.063819 512.916988 
L 754.287291 506.071945 
L 757.510763 509.357727 
L 760.734235 521.3031 
L 763.957708 535.230192 
L 767.18118 547.425483 
L 770.404652 557.130715 
L 773.628124 564.835323 
L 776.851596 566.655707 
L 780.075068 567.810192 
L 783.298541 570.650911 
L 786.522013 572.151758 
L 789.745485 576.579166 
L 792.968957 578.830889 
L 796.192429 577.952577 
L 799.415901 576.310176 
L 802.639374 573.233059 
L 805.862846 573.027404 
L 809.086318 574.023847 
L 812.30979 577.11023 
L 815.533262 579.777261 
L 818.756735 579.408858 
L 821.980207 577.839687 
L 825.203679 575.320013 
L 828.427151 568.609745 
L 831.650623 568.6062 
L 834.874095 572.089831 
L 838.097568 576.604753 
L 841.32104 581.749231 
L 844.544512 584.298941 
L 847.767984 582.741344 
L 850.991456 577.804414 
L 854.214929 574.533743 
L 857.438401 572.107131 
L 860.661873 571.491403 
L 863.885345 573.065788 
L 867.108817 575.646925 
L 870.332289 575.412722 
L 873.555762 575.601651 
L 876.779234 573.876283 
L 880.002706 568.771253 
L 883.226178 565.207249 
L 886.44965 565.363176 
L 889.673123 568.741472 
L 892.896595 573.766514 
L 896.120067 579.422639 
L 899.343539 583.567642 
L 902.567011 579.702455 
L 905.790483 574.323753 
L 909.013956 569.921323 
L 912.237428 567.663298 
L 915.4609 572.528762 
L 918.684372 580.482233 
L 921.907844 582.221877 
L 925.131317 583.10003 
L 928.354789 581.705982 
L 931.578261 579.808746 
L 934.801733 578.796494 
L 938.025205 579.605588 
L 941.248677 580.530909 
L 944.47215 581.006873 
L 947.695622 581.154387 
L 950.919094 584.860801 
L 954.142566 585.20856 
L 957.366038 586.0065 
L 960.58951 585.004495 
L 963.812983 581.6236 
L 967.036455 580.398476 
L 970.259927 580.158945 
L 973.483399 582.267116 
L 976.706871 586.110718 
L 983.153816 592.762229 
L 986.377288 591.92926 
L 989.60076 590.536227 
L 992.824232 587.222118 
L 996.047704 581.663349 
L 999.271177 578.214634 
L 1002.494649 579.238292 
L 1005.718121 582.578826 
L 1008.941593 587.713827 
L 1012.165065 593.117768 
L 1015.388538 594.1132 
L 1018.61201 591.054876 
L 1021.835482 587.417077 
L 1025.058954 589.028432 
L 1028.282426 590.788352 
L 1031.505898 592.282573 
L 1034.729371 592.066619 
L 1037.952843 585.939636 
L 1041.176315 581.566003 
L 1044.399787 580.603566 
L 1047.623259 577.654067 
L 1050.846732 576.33633 
L 1054.070204 573.084991 
L 1057.293676 569.36532 
L 1060.517148 564.905936 
L 1063.74062 562.354617 
L 1066.964092 562.836199 
L 1070.187565 567.478389 
L 1073.411037 572.589247 
L 1076.634509 576.482509 
L 1079.857981 576.402638 
L 1083.081453 577.688585 
L 1086.304926 578.529721 
L 1089.528398 581.67082 
L 1095.975342 583.217137 
L 1099.198814 584.011098 
L 1102.422286 585.597173 
L 1105.645759 585.22566 
L 1108.869231 586.478845 
L 1112.092703 585.041457 
L 1115.316175 583.969042 
L 1118.539647 585.242049 
L 1121.763119 585.697635 
L 1124.986592 583.508565 
L 1128.210064 584.694827 
L 1131.433536 587.800227 
L 1134.657008 590.533703 
L 1137.88048 592.582762 
L 1141.103953 592.57267 
L 1144.327425 591.803919 
L 1147.550897 590.310929 
L 1150.774369 587.792106 
L 1153.997841 584.462937 
L 1157.221313 581.834568 
L 1160.444786 582.275379 
L 1163.668258 586.828742 
L 1166.89173 592.505666 
L 1170.115202 592.430145 
L 1173.338674 582.682257 
L 1176.562147 574.290711 
L 1179.785619 590.572485 
L 1183.009091 588.195483 
L 1183.009091 588.195483 
" clip-path="url(#p3959ecfcdd)" style="fill: none; stroke: #2ca02c; stroke-width: 1.5; stroke-linecap: square"/>
   </g>
   <g id="patch_3">
    <path d="M 171 640.8 
L 171 86.4 
" style="fill: none; stroke: #000000; stroke-width: 0.8; stroke-linejoin: miter; stroke-linecap: square"/>
   </g>
   <g id="patch_4">
    <path d="M 1231.2 640.8 
L 1231.2 86.4 
" style="fill: none; stroke: #000000; stroke-width: 0.8; stroke-linejoin: miter; stroke-linecap: square"/>
   </g>
   <g id="patch_5">
    <path d="M 171 640.8 
L 1231.2 640.8 
" style="fill: none; stroke: #000000; stroke-width: 0.8; stroke-linejoin: miter; stroke-linecap: square"/>
   </g>
   <g id="patch_6">
    <path d="M 171 86.4 
L 1231.2 86.4 
" style="fill: none; stroke: #000000; stroke-width: 0.8; stroke-linejoin: miter; stroke-linecap: square"/>
   </g>
  </g>
 </g>
 <defs>
  <clipPath id="p3959ecfcdd">
   <rect x="171" y="86.4" width="1060.2" height="554.4"/>
  </clipPath>
 </defs>
</svg>
