<?xml version="1.0" encoding="utf-8" standalone="no"?>
<!DOCTYPE svg PUBLIC "-//W3C//DTD SVG 1.1//EN"
  "http://www.w3.org/Graphics/SVG/1.1/DTD/svg11.dtd">
<svg xmlns:xlink="http://www.w3.org/1999/xlink" width="460.8pt" height="345.6pt" viewBox="0 0 460.8 345.6" xmlns="http://www.w3.org/2000/svg" version="1.1">
 <metadata>
  <rdf:RDF xmlns:dc="http://purl.org/dc/elements/1.1/" xmlns:cc="http://creativecommons.org/ns#" xmlns:rdf="http://www.w3.org/1999/02/22-rdf-syntax-ns#">
   <cc:Work>
    <dc:type rdf:resource="http://purl.org/dc/dcmitype/StillImage"/>
    <dc:date>2022-01-23T00:49:55.701536</dc:date>
    <dc:format>image/svg+xml</dc:format>
    <dc:creator>
     <cc:Agent>
      <dc:title>Matplotlib v3.5.1, https://matplotlib.org/</dc:title>
     </cc:Agent>
    </dc:creator>
   </cc:Work>
  </rdf:RDF>
 </metadata>
 <defs>
  <style type="text/css">*{stroke-linejoin: round; stroke-linecap: butt}</style>
 </defs>
 <g id="figure_1">
  <g id="patch_1">
   <path d="M 0 345.6 
L 460.8 345.6 
L 460.8 0 
L 0 0 
z
" style="fill: #ffffff"/>
  </g>
  <g id="axes_1">
   <g id="patch_2">
    <path d="M 57.6 307.584 
L 414.72 307.584 
L 414.72 41.472 
L 57.6 41.472 
z
" style="fill: #ffffff"/>
   </g>
   <g id="matplotlib.axis_1">
    <g id="xtick_1">
     <g id="line2d_1">
      <defs>
       <path id="mbedfa98d3b" d="M 0 0 
L 0 3.5 
" style="stroke: #000000; stroke-width: 0.8"/>
      </defs>
      <g>
       <use xlink:href="#mbedfa98d3b" x="67.207124" y="307.584" style="stroke: #000000; stroke-width: 0.8"/>
      </g>
     </g>
     <g id="text_1">
      <!-- 0 -->
      <g transform="translate(64.025874 322.182437)scale(0.1 -0.1)">
       <defs>
        <path id="DejaVuSans-30" d="M 2034 4250 
Q 1547 4250 1301 3770 
Q 1056 3291 1056 2328 
Q 1056 1369 1301 889 
Q 1547 409 2034 409 
Q 2525 409 2770 889 
Q 3016 1369 3016 2328 
Q 3016 3291 2770 3770 
Q 2525 4250 2034 4250 
z
M 2034 4750 
Q 2819 4750 3233 4129 
Q 3647 3509 3647 2328 
Q 3647 1150 3233 529 
Q 2819 -91 2034 -91 
Q 1250 -91 836 529 
Q 422 1150 422 2328 
Q 422 3509 836 4129 
Q 1250 4750 2034 4750 
z
" transform="scale(0.015625)"/>
       </defs>
       <use xlink:href="#DejaVuSans-30"/>
      </g>
     </g>
    </g>
    <g id="xtick_2">
     <g id="line2d_2">
      <g>
       <use xlink:href="#mbedfa98d3b" x="133.463154" y="307.584" style="stroke: #000000; stroke-width: 0.8"/>
      </g>
     </g>
     <g id="text_2">
      <!-- 100000 -->
      <g transform="translate(114.375654 322.182437)scale(0.1 -0.1)">
       <defs>
        <path id="DejaVuSans-31" d="M 794 531 
L 1825 531 
L 1825 4091 
L 703 3866 
L 703 4441 
L 1819 4666 
L 2450 4666 
L 2450 531 
L 3481 531 
L 3481 0 
L 794 0 
L 794 531 
z
" transform="scale(0.015625)"/>
       </defs>
       <use xlink:href="#DejaVuSans-31"/>
       <use xlink:href="#DejaVuSans-30" x="63.623047"/>
       <use xlink:href="#DejaVuSans-30" x="127.246094"/>
       <use xlink:href="#DejaVuSans-30" x="190.869141"/>
       <use xlink:href="#DejaVuSans-30" x="254.492188"/>
       <use xlink:href="#DejaVuSans-30" x="318.115234"/>
      </g>
     </g>
    </g>
    <g id="xtick_3">
     <g id="line2d_3">
      <g>
       <use xlink:href="#mbedfa98d3b" x="199.719184" y="307.584" style="stroke: #000000; stroke-width: 0.8"/>
      </g>
     </g>
     <g id="text_3">
      <!-- 200000 -->
      <g transform="translate(180.631684 322.182437)scale(0.1 -0.1)">
       <defs>
        <path id="DejaVuSans-32" d="M 1228 531 
L 3431 531 
L 3431 0 
L 469 0 
L 469 531 
Q 828 903 1448 1529 
Q 2069 2156 2228 2338 
Q 2531 2678 2651 2914 
Q 2772 3150 2772 3378 
Q 2772 3750 2511 3984 
Q 2250 4219 1831 4219 
Q 1534 4219 1204 4116 
Q 875 4013 500 3803 
L 500 4441 
Q 881 4594 1212 4672 
Q 1544 4750 1819 4750 
Q 2544 4750 2975 4387 
Q 3406 4025 3406 3419 
Q 3406 3131 3298 2873 
Q 3191 2616 2906 2266 
Q 2828 2175 2409 1742 
Q 1991 1309 1228 531 
z
" transform="scale(0.015625)"/>
       </defs>
       <use xlink:href="#DejaVuSans-32"/>
       <use xlink:href="#DejaVuSans-30" x="63.623047"/>
       <use xlink:href="#DejaVuSans-30" x="127.246094"/>
       <use xlink:href="#DejaVuSans-30" x="190.869141"/>
       <use xlink:href="#DejaVuSans-30" x="254.492188"/>
       <use xlink:href="#DejaVuSans-30" x="318.115234"/>
      </g>
     </g>
    </g>
    <g id="xtick_4">
     <g id="line2d_4">
      <g>
       <use xlink:href="#mbedfa98d3b" x="265.975213" y="307.584" style="stroke: #000000; stroke-width: 0.8"/>
      </g>
     </g>
     <g id="text_4">
      <!-- 300000 -->
      <g transform="translate(246.887713 322.182437)scale(0.1 -0.1)">
       <defs>
        <path id="DejaVuSans-33" d="M 2597 2516 
Q 3050 2419 3304 2112 
Q 3559 1806 3559 1356 
Q 3559 666 3084 287 
Q 2609 -91 1734 -91 
Q 1441 -91 1130 -33 
Q 819 25 488 141 
L 488 750 
Q 750 597 1062 519 
Q 1375 441 1716 441 
Q 2309 441 2620 675 
Q 2931 909 2931 1356 
Q 2931 1769 2642 2001 
Q 2353 2234 1838 2234 
L 1294 2234 
L 1294 2753 
L 1863 2753 
Q 2328 2753 2575 2939 
Q 2822 3125 2822 3475 
Q 2822 3834 2567 4026 
Q 2313 4219 1838 4219 
Q 1578 4219 1281 4162 
Q 984 4106 628 3988 
L 628 4550 
Q 988 4650 1302 4700 
Q 1616 4750 1894 4750 
Q 2613 4750 3031 4423 
Q 3450 4097 3450 3541 
Q 3450 3153 3228 2886 
Q 3006 2619 2597 2516 
z
" transform="scale(0.015625)"/>
       </defs>
       <use xlink:href="#DejaVuSans-33"/>
       <use xlink:href="#DejaVuSans-30" x="63.623047"/>
       <use xlink:href="#DejaVuSans-30" x="127.246094"/>
       <use xlink:href="#DejaVuSans-30" x="190.869141"/>
       <use xlink:href="#DejaVuSans-30" x="254.492188"/>
       <use xlink:href="#DejaVuSans-30" x="318.115234"/>
      </g>
     </g>
    </g>
    <g id="xtick_5">
     <g id="line2d_5">
      <g>
       <use xlink:href="#mbedfa98d3b" x="332.231243" y="307.584" style="stroke: #000000; stroke-width: 0.8"/>
      </g>
     </g>
     <g id="text_5">
      <!-- 400000 -->
      <g transform="translate(313.143743 322.182437)scale(0.1 -0.1)">
       <defs>
        <path id="DejaVuSans-34" d="M 2419 4116 
L 825 1625 
L 2419 1625 
L 2419 4116 
z
M 2253 4666 
L 3047 4666 
L 3047 1625 
L 3713 1625 
L 3713 1100 
L 3047 1100 
L 3047 0 
L 2419 0 
L 2419 1100 
L 313 1100 
L 313 1709 
L 2253 4666 
z
" transform="scale(0.015625)"/>
       </defs>
       <use xlink:href="#DejaVuSans-34"/>
       <use xlink:href="#DejaVuSans-30" x="63.623047"/>
       <use xlink:href="#DejaVuSans-30" x="127.246094"/>
       <use xlink:href="#DejaVuSans-30" x="190.869141"/>
       <use xlink:href="#DejaVuSans-30" x="254.492188"/>
       <use xlink:href="#DejaVuSans-30" x="318.115234"/>
      </g>
     </g>
    </g>
    <g id="xtick_6">
     <g id="line2d_6">
      <g>
       <use xlink:href="#mbedfa98d3b" x="398.487273" y="307.584" style="stroke: #000000; stroke-width: 0.8"/>
      </g>
     </g>
     <g id="text_6">
      <!-- 500000 -->
      <g transform="translate(379.399773 322.182437)scale(0.1 -0.1)">
       <defs>
        <path id="DejaVuSans-35" d="M 691 4666 
L 3169 4666 
L 3169 4134 
L 1269 4134 
L 1269 2991 
Q 1406 3038 1543 3061 
Q 1681 3084 1819 3084 
Q 2600 3084 3056 2656 
Q 3513 2228 3513 1497 
Q 3513 744 3044 326 
Q 2575 -91 1722 -91 
Q 1428 -91 1123 -41 
Q 819 9 494 109 
L 494 744 
Q 775 591 1075 516 
Q 1375 441 1709 441 
Q 2250 441 2565 725 
Q 2881 1009 2881 1497 
Q 2881 1984 2565 2268 
Q 2250 2553 1709 2553 
Q 1456 2553 1204 2497 
Q 953 2441 691 2322 
L 691 4666 
z
" transform="scale(0.015625)"/>
       </defs>
       <use xlink:href="#DejaVuSans-35"/>
       <use xlink:href="#DejaVuSans-30" x="63.623047"/>
       <use xlink:href="#DejaVuSans-30" x="127.246094"/>
       <use xlink:href="#DejaVuSans-30" x="190.869141"/>
       <use xlink:href="#DejaVuSans-30" x="254.492188"/>
       <use xlink:href="#DejaVuSans-30" x="318.115234"/>
      </g>
     </g>
    </g>
    <g id="text_7">
     <!-- f -->
     <g transform="translate(234.399844 335.860562)scale(0.1 -0.1)">
      <defs>
       <path id="DejaVuSans-66" d="M 2375 4863 
L 2375 4384 
L 1825 4384 
Q 1516 4384 1395 4259 
Q 1275 4134 1275 3809 
L 1275 3500 
L 2222 3500 
L 2222 3053 
L 1275 3053 
L 1275 0 
L 697 0 
L 697 3053 
L 147 3053 
L 147 3500 
L 697 3500 
L 697 3744 
Q 697 4328 969 4595 
Q 1241 4863 1831 4863 
L 2375 4863 
z
" transform="scale(0.015625)"/>
      </defs>
      <use xlink:href="#DejaVuSans-66"/>
     </g>
    </g>
   </g>
   <g id="matplotlib.axis_2">
    <g id="ytick_1">
     <g id="line2d_7">
      <defs>
       <path id="m4ff998c22d" d="M 0 0 
L -3.5 0 
" style="stroke: #000000; stroke-width: 0.8"/>
      </defs>
      <g>
       <use xlink:href="#m4ff998c22d" x="57.6" y="292.991618" style="stroke: #000000; stroke-width: 0.8"/>
      </g>
     </g>
     <g id="text_8">
      <!-- 0 -->
      <g transform="translate(44.2375 296.790836)scale(0.1 -0.1)">
       <use xlink:href="#DejaVuSans-30"/>
      </g>
     </g>
    </g>
    <g id="ytick_2">
     <g id="line2d_8">
      <g>
       <use xlink:href="#m4ff998c22d" x="57.6" y="239.157879" style="stroke: #000000; stroke-width: 0.8"/>
      </g>
     </g>
     <g id="text_9">
      <!-- 10 -->
      <g transform="translate(37.875 242.957098)scale(0.1 -0.1)">
       <use xlink:href="#DejaVuSans-31"/>
       <use xlink:href="#DejaVuSans-30" x="63.623047"/>
      </g>
     </g>
    </g>
    <g id="ytick_3">
     <g id="line2d_9">
      <g>
       <use xlink:href="#m4ff998c22d" x="57.6" y="185.32414" style="stroke: #000000; stroke-width: 0.8"/>
      </g>
     </g>
     <g id="text_10">
      <!-- 20 -->
      <g transform="translate(37.875 189.123359)scale(0.1 -0.1)">
       <use xlink:href="#DejaVuSans-32"/>
       <use xlink:href="#DejaVuSans-30" x="63.623047"/>
      </g>
     </g>
    </g>
    <g id="ytick_4">
     <g id="line2d_10">
      <g>
       <use xlink:href="#m4ff998c22d" x="57.6" y="131.490402" style="stroke: #000000; stroke-width: 0.8"/>
      </g>
     </g>
     <g id="text_11">
      <!-- 30 -->
      <g transform="translate(37.875 135.289621)scale(0.1 -0.1)">
       <use xlink:href="#DejaVuSans-33"/>
       <use xlink:href="#DejaVuSans-30" x="63.623047"/>
      </g>
     </g>
    </g>
    <g id="ytick_5">
     <g id="line2d_11">
      <g>
       <use xlink:href="#m4ff998c22d" x="57.6" y="77.656663" style="stroke: #000000; stroke-width: 0.8"/>
      </g>
     </g>
     <g id="text_12">
      <!-- 40 -->
      <g transform="translate(37.875 81.455882)scale(0.1 -0.1)">
       <use xlink:href="#DejaVuSans-34"/>
       <use xlink:href="#DejaVuSans-30" x="63.623047"/>
      </g>
     </g>
    </g>
    <g id="text_13">
     <!-- Z -->
     <g transform="translate(31.795313 177.953)rotate(-90)scale(0.1 -0.1)">
      <defs>
       <path id="DejaVuSans-5a" d="M 359 4666 
L 4025 4666 
L 4025 4184 
L 1075 531 
L 4097 531 
L 4097 0 
L 288 0 
L 288 481 
L 3238 4134 
L 359 4134 
L 359 4666 
z
" transform="scale(0.015625)"/>
      </defs>
      <use xlink:href="#DejaVuSans-5a"/>
     </g>
    </g>
   </g>
   <g id="line2d_12">
    <path d="M 73.832727 282.375328 
L 74.918528 278.350442 
L 76.00433 280.953639 
L 77.090131 277.252784 
L 78.175932 278.067503 
L 79.261733 283.298596 
L 80.347534 281.078121 
L 81.433335 281.459238 
L 82.519137 279.17081 
L 83.604938 281.379433 
L 84.690739 282.286513 
L 85.77654 283.705195 
L 86.862341 280.906387 
L 87.948142 281.807697 
L 89.033943 278.229446 
L 90.119745 281.494114 
L 91.205546 281.77075 
L 92.291347 279.215029 
L 93.377148 282.982221 
L 94.462949 287.469762 
L 95.54875 280.110681 
L 96.634552 285.54148 
L 97.720353 282.393064 
L 98.806154 281.978517 
L 99.891955 283.477135 
L 100.977756 282.095199 
L 102.063557 282.274173 
L 103.149358 285.437649 
L 104.23516 277.201397 
L 105.320961 278.379359 
L 106.406762 268.313188 
L 107.492563 120.709796 
L 108.578364 92.935862 
L 109.664165 83.83002 
L 110.749967 78.357329 
L 111.835768 64.515796 
L 112.921569 68.771981 
L 114.00737 64.614173 
L 115.093171 60.953071 
L 116.178972 55.104163 
L 117.264773 56.516824 
L 119.436376 77.037909 
L 122.693779 117.711445 
L 123.77958 124.892438 
L 124.865382 137.450451 
L 125.951183 154.985796 
L 127.036984 164.333561 
L 128.122785 166.215489 
L 129.208586 182.317756 
L 130.294387 184.082617 
L 131.380189 198.717685 
L 132.46599 204.0204 
L 133.551791 213.889506 
L 134.637592 216.342826 
L 135.723393 217.09021 
L 136.809194 229.309357 
L 137.894995 228.223999 
L 138.980797 233.787256 
L 140.066598 217.749691 
L 142.2382 159.03969 
L 143.324001 110.593186 
L 144.409802 100.89744 
L 145.495604 95.031838 
L 146.581405 93.304449 
L 147.667206 119.566891 
L 148.753007 135.296158 
L 149.838808 162.802675 
L 150.924609 171.53467 
L 152.01041 186.606487 
L 153.096212 199.064368 
L 154.182013 204.057737 
L 155.267814 215.805851 
L 156.353615 222.199488 
L 157.439416 224.637783 
L 158.525217 231.778919 
L 159.611019 233.495336 
L 160.69682 236.437336 
L 161.782621 232.307994 
L 162.868422 235.243674 
L 163.954223 242.583487 
L 165.040024 239.662249 
L 166.125825 239.78526 
L 167.211627 238.99808 
L 168.297428 240.008332 
L 169.383229 240.508587 
L 170.46903 246.007915 
L 171.554831 244.189071 
L 172.640632 250.990613 
L 173.726434 252.315882 
L 174.812235 255.738615 
L 175.898036 257.245516 
L 176.983837 253.12039 
L 178.069638 257.49199 
L 179.155439 252.134977 
L 180.24124 257.849122 
L 181.327042 258.560929 
L 182.412843 251.552121 
L 183.498644 241.096315 
L 184.584445 240.097882 
L 185.670246 237.05979 
L 186.756047 228.152885 
L 187.841849 225.333365 
L 188.92765 199.819074 
L 190.013451 187.415733 
L 191.099252 197.718583 
L 192.185053 215.330542 
L 193.270854 227.534439 
L 194.356656 244.103462 
L 195.442457 248.363847 
L 196.528258 257.10079 
L 197.614059 251.649937 
L 198.69986 260.680596 
L 199.785661 254.283677 
L 200.871462 263.001999 
L 201.957264 256.551673 
L 203.043065 257.795902 
L 204.128866 269.722324 
L 205.214667 264.563474 
L 206.300468 267.428351 
L 207.386269 274.170174 
L 208.472071 267.930754 
L 209.557872 273.683821 
L 210.643673 274.780859 
L 211.729474 271.849769 
L 212.815275 270.773464 
L 213.901076 270.117392 
L 214.986877 277.379958 
L 216.072679 271.29376 
L 217.15848 269.992759 
L 218.244281 265.540322 
L 219.330082 270.711242 
L 220.415883 269.643362 
L 221.501684 266.109527 
L 222.587486 274.388835 
L 223.673287 270.92351 
L 224.759088 277.300243 
L 225.844889 273.719032 
L 226.93069 274.901885 
L 228.016491 275.477069 
L 229.102292 273.081817 
L 230.188094 271.737177 
L 231.273895 270.912402 
L 232.359696 272.128564 
L 233.445497 273.832357 
L 234.531298 276.308475 
L 235.617099 276.058681 
L 236.702901 276.156478 
L 237.788702 271.587379 
L 238.874503 274.24608 
L 239.960304 277.2231 
L 241.046105 275.910904 
L 242.131906 273.137926 
L 243.217708 271.70409 
L 244.303509 271.020055 
L 245.38931 276.024145 
L 246.475111 269.063415 
L 247.560912 275.149106 
L 248.646713 276.205395 
L 249.732514 261.029571 
L 250.818316 262.921757 
L 251.904117 251.306751 
L 252.989918 245.570036 
L 254.075719 243.676482 
L 255.16152 244.886596 
L 256.247321 251.426465 
L 257.333123 252.457669 
L 258.418924 263.959251 
L 259.504725 271.57446 
L 260.590526 270.092231 
L 261.676327 269.515576 
L 262.762128 273.206638 
L 263.847929 270.480144 
L 264.933731 281.958128 
L 266.019532 275.201091 
L 267.105333 273.784983 
L 268.191134 276.784991 
L 269.276935 281.055878 
L 270.362736 275.317863 
L 271.448538 271.91049 
L 272.534339 276.953611 
L 274.705941 276.375155 
L 275.791742 282.002216 
L 276.877543 276.389479 
L 277.963344 273.765916 
L 279.049146 276.133531 
L 280.134947 271.451659 
L 281.220748 271.461386 
L 282.306549 280.830723 
L 284.478151 278.829763 
L 285.563953 277.134841 
L 286.649754 281.020339 
L 287.735555 276.487629 
L 288.821356 270.940735 
L 289.907157 276.286679 
L 290.992958 276.023851 
L 292.07876 272.296976 
L 293.164561 281.674137 
L 294.250362 275.283363 
L 295.336163 270.376704 
L 296.421964 276.974022 
L 297.507765 272.509266 
L 298.593566 270.203717 
L 299.679368 271.293069 
L 300.765169 277.244171 
L 301.85097 276.29755 
L 302.936771 281.570868 
L 304.022572 277.704209 
L 305.108373 278.173061 
L 306.194175 270.768369 
L 307.279976 273.312479 
L 308.365777 274.078961 
L 309.451578 276.940502 
L 310.537379 281.554944 
L 311.62318 283.276358 
L 312.708981 277.305541 
L 313.794783 275.698313 
L 314.880584 275.599491 
L 315.966385 282.534496 
L 317.052186 278.066425 
L 318.137987 282.017828 
L 319.223788 276.138492 
L 320.30959 276.704671 
L 321.395391 282.092722 
L 322.481192 286.746089 
L 323.566993 277.247439 
L 324.652794 281.692639 
L 325.738595 276.282465 
L 326.824396 276.20906 
L 327.910198 280.396998 
L 328.995999 283.346318 
L 330.0818 286.987562 
L 331.167601 280.016568 
L 332.253402 279.943823 
L 333.339203 287.755712 
L 334.425005 280.32504 
L 335.510806 284.516364 
L 336.596607 276.318507 
L 337.682408 271.257915 
L 338.768209 282.80779 
L 339.85401 282.085736 
L 340.939811 287.200559 
L 343.111414 282.756431 
L 344.197215 281.25022 
L 345.283016 280.382929 
L 346.368817 285.614029 
L 347.454618 286.488268 
L 348.54042 282.360542 
L 349.626221 283.129596 
L 350.712022 276.892807 
L 351.797823 278.488428 
L 352.883624 275.061391 
L 353.969425 281.470828 
L 356.141028 270.22808 
L 357.226829 269.619255 
L 358.31263 273.008908 
L 359.398431 267.21232 
L 360.484232 276.097156 
L 361.570033 275.117029 
L 362.655835 272.223958 
L 363.741636 276.78201 
L 364.827437 282.189956 
L 365.913238 276.624745 
L 366.999039 277.426055 
L 368.08484 277.234859 
L 369.170642 281.882685 
L 370.256443 282.926536 
L 371.342244 281.733551 
L 372.428045 276.036891 
L 373.513846 282.607623 
L 374.599647 281.594545 
L 375.685448 282.985283 
L 376.77125 278.486373 
L 377.857051 281.656942 
L 378.942852 277.840326 
L 380.028653 282.840535 
L 381.114454 283.150403 
L 382.200255 282.535891 
L 383.286057 282.643836 
L 384.371858 287.497109 
L 385.457659 282.5149 
L 386.54346 284.905711 
L 388.715062 277.956302 
L 389.800863 281.649713 
L 390.886665 281.750229 
L 391.972466 277.45341 
L 393.058267 285.459554 
L 394.144068 286.776267 
L 395.229869 276.892989 
L 396.31567 277.080943 
L 397.401472 283.100977 
L 398.487273 282.375328 
L 398.487273 282.375328 
" clip-path="url(#p5d5c7cd5a9)" style="fill: none; stroke: #1f77b4; stroke-width: 1.5; stroke-linecap: square"/>
   </g>
   <g id="line2d_13">
    <path d="M 73.832727 282.280407 
L 74.918528 279.009745 
L 76.00433 279.29808 
L 77.090131 278.603812 
L 78.175932 279.278536 
L 79.261733 280.78881 
L 80.347534 281.626134 
L 81.433335 281.402458 
L 82.519137 280.87332 
L 83.604938 280.88704 
L 85.77654 282.315617 
L 86.862341 282.382774 
L 87.948142 281.543947 
L 89.033943 280.311309 
L 90.119745 279.917024 
L 91.205546 280.251124 
L 92.291347 281.446343 
L 93.377148 285.598561 
L 94.462949 280.9229 
L 95.54875 281.714153 
L 96.634552 286.98855 
L 97.720353 287.650356 
L 98.806154 280.935836 
L 99.891955 275.399341 
L 100.977756 277.55764 
L 103.149358 295.488 
L 104.23516 290.876347 
L 105.320961 265.605655 
L 106.406762 219.805771 
L 108.578364 110.119435 
L 109.664165 76.076987 
L 110.749967 62.525248 
L 111.835768 64.767187 
L 112.921569 70.80272 
L 114.00737 70.025295 
L 115.093171 61.06257 
L 116.178972 53.568 
L 117.264773 54.765619 
L 119.436376 79.801302 
L 120.522177 87.194857 
L 121.607978 103.158638 
L 123.77958 128.510298 
L 127.036984 161.412431 
L 132.46599 205.080088 
L 134.637592 215.418515 
L 135.723393 221.063819 
L 136.809194 227.891448 
L 137.894995 232.519992 
L 138.980797 230.217026 
L 140.066598 215.942822 
L 141.152399 188.771327 
L 143.324001 120.745317 
L 144.409802 97.721456 
L 145.495604 90.345156 
L 146.581405 98.623078 
L 147.667206 116.62643 
L 149.838808 158.095645 
L 150.924609 174.563605 
L 152.01041 187.520055 
L 154.182013 206.029681 
L 155.267814 214.27977 
L 157.439416 227.88989 
L 158.525217 230.693755 
L 160.69682 234.375107 
L 161.782621 235.537331 
L 162.868422 237.652851 
L 163.954223 238.231148 
L 165.040024 239.938288 
L 166.125825 240.045159 
L 167.211627 239.977453 
L 169.383229 240.861906 
L 170.46903 242.554524 
L 172.640632 251.084121 
L 173.726434 253.42021 
L 174.812235 254.61109 
L 175.898036 254.717132 
L 176.983837 254.967582 
L 179.155439 257.760623 
L 180.24124 256.146846 
L 181.327042 253.15469 
L 182.412843 249.433018 
L 183.498644 246.843042 
L 184.584445 242.581688 
L 185.670246 237.34704 
L 186.756047 227.123901 
L 188.92765 202.973982 
L 190.013451 195.91252 
L 191.099252 199.146964 
L 192.185053 209.903284 
L 194.356656 242.358555 
L 195.442457 251.809852 
L 196.528258 255.608502 
L 197.614059 256.240094 
L 198.69986 255.737906 
L 199.785661 256.754389 
L 200.871462 258.638491 
L 201.957264 259.866253 
L 203.043065 261.411078 
L 205.214667 266.12211 
L 206.300468 268.988128 
L 207.386269 271.472281 
L 208.472071 271.766192 
L 209.557872 272.453368 
L 210.643673 271.854398 
L 211.729474 272.732579 
L 212.815275 272.51055 
L 213.901076 272.965706 
L 214.986877 272.13872 
L 216.072679 271.692097 
L 217.15848 270.684712 
L 218.244281 268.63882 
L 219.330082 268.129587 
L 220.415883 268.276636 
L 221.501684 269.184398 
L 222.587486 271.622859 
L 223.673287 273.584321 
L 224.759088 274.5487 
L 225.844889 275.238191 
L 226.93069 275.523807 
L 228.016491 274.771726 
L 229.102292 272.515496 
L 230.188094 271.419701 
L 231.273895 271.445336 
L 232.359696 273.393599 
L 233.445497 273.892486 
L 234.531298 274.725285 
L 235.617099 275.904758 
L 236.702901 274.700764 
L 237.788702 275.103438 
L 238.874503 274.808418 
L 239.960304 275.017288 
L 241.046105 274.789824 
L 244.303509 271.804063 
L 245.38931 272.308023 
L 246.475111 273.747704 
L 247.560912 273.958976 
L 248.646713 271.640369 
L 249.732514 266.963576 
L 250.818316 259.311531 
L 252.989918 246.200154 
L 254.075719 242.914533 
L 255.16152 244.491709 
L 256.247321 250.225488 
L 257.333123 256.910492 
L 258.418924 262.764232 
L 259.504725 267.422743 
L 260.590526 271.120955 
L 261.676327 271.994739 
L 262.762128 272.548892 
L 263.847929 273.912437 
L 264.933731 274.632844 
L 266.019532 276.758 
L 267.105333 277.838827 
L 268.191134 277.417237 
L 269.276935 276.628885 
L 270.362736 275.151868 
L 271.448538 275.053154 
L 272.534339 275.531446 
L 273.62014 277.012911 
L 274.705941 278.293085 
L 275.791742 278.116252 
L 276.877543 277.36305 
L 277.963344 276.153606 
L 279.049146 272.932678 
L 280.134947 272.930976 
L 281.220748 274.603119 
L 282.306549 276.770282 
L 283.39235 279.239631 
L 284.478151 280.463492 
L 285.563953 279.715845 
L 286.649754 277.346119 
L 287.735555 275.776196 
L 288.821356 274.611423 
L 289.907157 274.315873 
L 290.992958 275.071578 
L 292.07876 276.310524 
L 293.164561 276.198107 
L 294.250362 276.288792 
L 295.336163 275.460616 
L 296.421964 273.010201 
L 297.507765 271.299479 
L 298.593566 271.374325 
L 299.679368 272.995907 
L 300.765169 275.407927 
L 301.85097 278.122867 
L 302.936771 280.112468 
L 304.022572 278.257178 
L 305.108373 275.675401 
L 306.194175 273.562235 
L 307.279976 272.478383 
L 308.365777 274.813806 
L 309.451578 278.631472 
L 310.537379 279.466501 
L 311.62318 279.888014 
L 312.708981 279.218871 
L 313.794783 278.308198 
L 314.880584 277.822317 
L 318.137987 278.883299 
L 319.223788 278.954106 
L 320.30959 280.733185 
L 321.395391 280.900109 
L 322.481192 281.28312 
L 323.566993 280.802157 
L 324.652794 279.179328 
L 325.738595 278.591269 
L 326.824396 278.476294 
L 327.910198 279.488216 
L 328.995999 281.333145 
L 331.167601 284.52587 
L 332.253402 284.126045 
L 333.339203 283.457389 
L 334.425005 281.866617 
L 335.510806 279.198408 
L 336.596607 277.543024 
L 337.682408 278.03438 
L 338.768209 279.637836 
L 340.939811 284.696529 
L 342.025613 285.174336 
L 343.111414 283.70634 
L 344.197215 281.960197 
L 347.454618 284.295635 
L 348.54042 284.191977 
L 349.626221 281.251025 
L 350.712022 279.151682 
L 351.797823 278.689712 
L 352.883624 277.273952 
L 353.969425 276.641439 
L 355.055227 275.080795 
L 356.141028 273.295354 
L 357.226829 271.154849 
L 358.31263 269.930216 
L 359.398431 270.161376 
L 362.655835 276.711604 
L 363.741636 276.673266 
L 364.827437 277.290521 
L 365.913238 277.694266 
L 366.999039 279.201994 
L 370.256443 280.325327 
L 371.342244 281.086643 
L 372.428045 280.908317 
L 373.513846 281.509846 
L 374.599647 280.819899 
L 375.685448 280.30514 
L 376.77125 280.916184 
L 377.857051 281.134865 
L 378.942852 280.084111 
L 380.028653 280.653517 
L 382.200255 283.456177 
L 383.286057 284.439726 
L 384.371858 284.434881 
L 385.457659 284.065881 
L 386.54346 283.349246 
L 387.629261 282.140211 
L 388.715062 280.54221 
L 389.800863 279.280593 
L 390.886665 279.492182 
L 391.972466 281.677796 
L 393.058267 284.402719 
L 394.144068 284.36647 
L 395.229869 279.687483 
L 396.31567 275.659541 
L 397.401472 283.474793 
L 398.487273 282.333832 
L 398.487273 282.333832 
" clip-path="url(#p5d5c7cd5a9)" style="fill: none; stroke: #ff7f0e; stroke-width: 1.5; stroke-linecap: square"/>
   </g>
   <g id="patch_3">
    <path d="M 57.6 307.584 
L 57.6 41.472 
" style="fill: none; stroke: #000000; stroke-width: 0.8; stroke-linejoin: miter; stroke-linecap: square"/>
   </g>
   <g id="patch_4">
    <path d="M 414.72 307.584 
L 414.72 41.472 
" style="fill: none; stroke: #000000; stroke-width: 0.8; stroke-linejoin: miter; stroke-linecap: square"/>
   </g>
   <g id="patch_5">
    <path d="M 57.6 307.584 
L 414.72 307.584 
" style="fill: none; stroke: #000000; stroke-width: 0.8; stroke-linejoin: miter; stroke-linecap: square"/>
   </g>
   <g id="patch_6">
    <path d="M 57.6 41.472 
L 414.72 41.472 
" style="fill: none; stroke: #000000; stroke-width: 0.8; stroke-linejoin: miter; stroke-linecap: square"/>
   </g>
  </g>
 </g>
 <defs>
  <clipPath id="p5d5c7cd5a9">
   <rect x="57.6" y="41.472" width="357.12" height="266.112"/>
  </clipPath>
 </defs>
</svg>
