<?xml version="1.0" encoding="utf-8" standalone="no"?>
<!DOCTYPE svg PUBLIC "-//W3C//DTD SVG 1.1//EN"
  "http://www.w3.org/Graphics/SVG/1.1/DTD/svg11.dtd">
<svg xmlns:xlink="http://www.w3.org/1999/xlink" width="460.8pt" height="345.6pt" viewBox="0 0 460.8 345.6" xmlns="http://www.w3.org/2000/svg" version="1.1">
 <metadata>
  <rdf:RDF xmlns:dc="http://purl.org/dc/elements/1.1/" xmlns:cc="http://creativecommons.org/ns#" xmlns:rdf="http://www.w3.org/1999/02/22-rdf-syntax-ns#">
   <cc:Work>
    <dc:type rdf:resource="http://purl.org/dc/dcmitype/StillImage"/>
    <dc:date>2022-01-23T00:49:54.564475</dc:date>
    <dc:format>image/svg+xml</dc:format>
    <dc:creator>
     <cc:Agent>
      <dc:title>Matplotlib v3.5.1, https://matplotlib.org/</dc:title>
     </cc:Agent>
    </dc:creator>
   </cc:Work>
  </rdf:RDF>
 </metadata>
 <defs>
  <style type="text/css">*{stroke-linejoin: round; stroke-linecap: butt}</style>
 </defs>
 <g id="figure_1">
  <g id="patch_1">
   <path d="M 0 345.6 
L 460.8 345.6 
L 460.8 0 
L 0 0 
z
" style="fill: #ffffff"/>
  </g>
  <g id="axes_1">
   <g id="patch_2">
    <path d="M 57.6 307.584 
L 414.72 307.584 
L 414.72 41.472 
L 57.6 41.472 
z
" style="fill: #ffffff"/>
   </g>
   <g id="matplotlib.axis_1">
    <g id="xtick_1">
     <g id="line2d_1">
      <defs>
       <path id="mb4f9435a7c" d="M 0 0 
L 0 3.5 
" style="stroke: #000000; stroke-width: 0.8"/>
      </defs>
      <g>
       <use xlink:href="#mb4f9435a7c" x="70.553388" y="307.584" style="stroke: #000000; stroke-width: 0.8"/>
      </g>
     </g>
     <g id="text_1">
      <!-- 0.0 -->
      <g transform="translate(62.601826 322.182437)scale(0.1 -0.1)">
       <defs>
        <path id="DejaVuSans-30" d="M 2034 4250 
Q 1547 4250 1301 3770 
Q 1056 3291 1056 2328 
Q 1056 1369 1301 889 
Q 1547 409 2034 409 
Q 2525 409 2770 889 
Q 3016 1369 3016 2328 
Q 3016 3291 2770 3770 
Q 2525 4250 2034 4250 
z
M 2034 4750 
Q 2819 4750 3233 4129 
Q 3647 3509 3647 2328 
Q 3647 1150 3233 529 
Q 2819 -91 2034 -91 
Q 1250 -91 836 529 
Q 422 1150 422 2328 
Q 422 3509 836 4129 
Q 1250 4750 2034 4750 
z
" transform="scale(0.015625)"/>
        <path id="DejaVuSans-2e" d="M 684 794 
L 1344 794 
L 1344 0 
L 684 0 
L 684 794 
z
" transform="scale(0.015625)"/>
       </defs>
       <use xlink:href="#DejaVuSans-30"/>
       <use xlink:href="#DejaVuSans-2e" x="63.623047"/>
       <use xlink:href="#DejaVuSans-30" x="95.410156"/>
      </g>
     </g>
    </g>
    <g id="xtick_2">
     <g id="line2d_2">
      <g>
       <use xlink:href="#mb4f9435a7c" x="136.140165" y="307.584" style="stroke: #000000; stroke-width: 0.8"/>
      </g>
     </g>
     <g id="text_2">
      <!-- 0.2 -->
      <g transform="translate(128.188603 322.182437)scale(0.1 -0.1)">
       <defs>
        <path id="DejaVuSans-32" d="M 1228 531 
L 3431 531 
L 3431 0 
L 469 0 
L 469 531 
Q 828 903 1448 1529 
Q 2069 2156 2228 2338 
Q 2531 2678 2651 2914 
Q 2772 3150 2772 3378 
Q 2772 3750 2511 3984 
Q 2250 4219 1831 4219 
Q 1534 4219 1204 4116 
Q 875 4013 500 3803 
L 500 4441 
Q 881 4594 1212 4672 
Q 1544 4750 1819 4750 
Q 2544 4750 2975 4387 
Q 3406 4025 3406 3419 
Q 3406 3131 3298 2873 
Q 3191 2616 2906 2266 
Q 2828 2175 2409 1742 
Q 1991 1309 1228 531 
z
" transform="scale(0.015625)"/>
       </defs>
       <use xlink:href="#DejaVuSans-30"/>
       <use xlink:href="#DejaVuSans-2e" x="63.623047"/>
       <use xlink:href="#DejaVuSans-32" x="95.410156"/>
      </g>
     </g>
    </g>
    <g id="xtick_3">
     <g id="line2d_3">
      <g>
       <use xlink:href="#mb4f9435a7c" x="201.726942" y="307.584" style="stroke: #000000; stroke-width: 0.8"/>
      </g>
     </g>
     <g id="text_3">
      <!-- 0.4 -->
      <g transform="translate(193.77538 322.182437)scale(0.1 -0.1)">
       <defs>
        <path id="DejaVuSans-34" d="M 2419 4116 
L 825 1625 
L 2419 1625 
L 2419 4116 
z
M 2253 4666 
L 3047 4666 
L 3047 1625 
L 3713 1625 
L 3713 1100 
L 3047 1100 
L 3047 0 
L 2419 0 
L 2419 1100 
L 313 1100 
L 313 1709 
L 2253 4666 
z
" transform="scale(0.015625)"/>
       </defs>
       <use xlink:href="#DejaVuSans-30"/>
       <use xlink:href="#DejaVuSans-2e" x="63.623047"/>
       <use xlink:href="#DejaVuSans-34" x="95.410156"/>
      </g>
     </g>
    </g>
    <g id="xtick_4">
     <g id="line2d_4">
      <g>
       <use xlink:href="#mb4f9435a7c" x="267.313719" y="307.584" style="stroke: #000000; stroke-width: 0.8"/>
      </g>
     </g>
     <g id="text_4">
      <!-- 0.6 -->
      <g transform="translate(259.362157 322.182437)scale(0.1 -0.1)">
       <defs>
        <path id="DejaVuSans-36" d="M 2113 2584 
Q 1688 2584 1439 2293 
Q 1191 2003 1191 1497 
Q 1191 994 1439 701 
Q 1688 409 2113 409 
Q 2538 409 2786 701 
Q 3034 994 3034 1497 
Q 3034 2003 2786 2293 
Q 2538 2584 2113 2584 
z
M 3366 4563 
L 3366 3988 
Q 3128 4100 2886 4159 
Q 2644 4219 2406 4219 
Q 1781 4219 1451 3797 
Q 1122 3375 1075 2522 
Q 1259 2794 1537 2939 
Q 1816 3084 2150 3084 
Q 2853 3084 3261 2657 
Q 3669 2231 3669 1497 
Q 3669 778 3244 343 
Q 2819 -91 2113 -91 
Q 1303 -91 875 529 
Q 447 1150 447 2328 
Q 447 3434 972 4092 
Q 1497 4750 2381 4750 
Q 2619 4750 2861 4703 
Q 3103 4656 3366 4563 
z
" transform="scale(0.015625)"/>
       </defs>
       <use xlink:href="#DejaVuSans-30"/>
       <use xlink:href="#DejaVuSans-2e" x="63.623047"/>
       <use xlink:href="#DejaVuSans-36" x="95.410156"/>
      </g>
     </g>
    </g>
    <g id="xtick_5">
     <g id="line2d_5">
      <g>
       <use xlink:href="#mb4f9435a7c" x="332.900496" y="307.584" style="stroke: #000000; stroke-width: 0.8"/>
      </g>
     </g>
     <g id="text_5">
      <!-- 0.8 -->
      <g transform="translate(324.948933 322.182437)scale(0.1 -0.1)">
       <defs>
        <path id="DejaVuSans-38" d="M 2034 2216 
Q 1584 2216 1326 1975 
Q 1069 1734 1069 1313 
Q 1069 891 1326 650 
Q 1584 409 2034 409 
Q 2484 409 2743 651 
Q 3003 894 3003 1313 
Q 3003 1734 2745 1975 
Q 2488 2216 2034 2216 
z
M 1403 2484 
Q 997 2584 770 2862 
Q 544 3141 544 3541 
Q 544 4100 942 4425 
Q 1341 4750 2034 4750 
Q 2731 4750 3128 4425 
Q 3525 4100 3525 3541 
Q 3525 3141 3298 2862 
Q 3072 2584 2669 2484 
Q 3125 2378 3379 2068 
Q 3634 1759 3634 1313 
Q 3634 634 3220 271 
Q 2806 -91 2034 -91 
Q 1263 -91 848 271 
Q 434 634 434 1313 
Q 434 1759 690 2068 
Q 947 2378 1403 2484 
z
M 1172 3481 
Q 1172 3119 1398 2916 
Q 1625 2713 2034 2713 
Q 2441 2713 2670 2916 
Q 2900 3119 2900 3481 
Q 2900 3844 2670 4047 
Q 2441 4250 2034 4250 
Q 1625 4250 1398 4047 
Q 1172 3844 1172 3481 
z
" transform="scale(0.015625)"/>
       </defs>
       <use xlink:href="#DejaVuSans-30"/>
       <use xlink:href="#DejaVuSans-2e" x="63.623047"/>
       <use xlink:href="#DejaVuSans-38" x="95.410156"/>
      </g>
     </g>
    </g>
    <g id="xtick_6">
     <g id="line2d_6">
      <g>
       <use xlink:href="#mb4f9435a7c" x="398.487273" y="307.584" style="stroke: #000000; stroke-width: 0.8"/>
      </g>
     </g>
     <g id="text_6">
      <!-- 1.0 -->
      <g transform="translate(390.53571 322.182437)scale(0.1 -0.1)">
       <defs>
        <path id="DejaVuSans-31" d="M 794 531 
L 1825 531 
L 1825 4091 
L 703 3866 
L 703 4441 
L 1819 4666 
L 2450 4666 
L 2450 531 
L 3481 531 
L 3481 0 
L 794 0 
L 794 531 
z
" transform="scale(0.015625)"/>
       </defs>
       <use xlink:href="#DejaVuSans-31"/>
       <use xlink:href="#DejaVuSans-2e" x="63.623047"/>
       <use xlink:href="#DejaVuSans-30" x="95.410156"/>
      </g>
     </g>
    </g>
    <g id="text_7">
     <!-- f -->
     <g transform="translate(234.399844 335.860562)scale(0.1 -0.1)">
      <defs>
       <path id="DejaVuSans-66" d="M 2375 4863 
L 2375 4384 
L 1825 4384 
Q 1516 4384 1395 4259 
Q 1275 4134 1275 3809 
L 1275 3500 
L 2222 3500 
L 2222 3053 
L 1275 3053 
L 1275 0 
L 697 0 
L 697 3053 
L 147 3053 
L 147 3500 
L 697 3500 
L 697 3744 
Q 697 4328 969 4595 
Q 1241 4863 1831 4863 
L 2375 4863 
z
" transform="scale(0.015625)"/>
      </defs>
      <use xlink:href="#DejaVuSans-66"/>
     </g>
    </g>
    <g id="text_8">
     <!-- 1e6 -->
     <g transform="translate(395.841875 334.860562)scale(0.1 -0.1)">
      <defs>
       <path id="DejaVuSans-65" d="M 3597 1894 
L 3597 1613 
L 953 1613 
Q 991 1019 1311 708 
Q 1631 397 2203 397 
Q 2534 397 2845 478 
Q 3156 559 3463 722 
L 3463 178 
Q 3153 47 2828 -22 
Q 2503 -91 2169 -91 
Q 1331 -91 842 396 
Q 353 884 353 1716 
Q 353 2575 817 3079 
Q 1281 3584 2069 3584 
Q 2775 3584 3186 3129 
Q 3597 2675 3597 1894 
z
M 3022 2063 
Q 3016 2534 2758 2815 
Q 2500 3097 2075 3097 
Q 1594 3097 1305 2825 
Q 1016 2553 972 2059 
L 3022 2063 
z
" transform="scale(0.015625)"/>
      </defs>
      <use xlink:href="#DejaVuSans-31"/>
      <use xlink:href="#DejaVuSans-65" x="63.623047"/>
      <use xlink:href="#DejaVuSans-36" x="125.146484"/>
     </g>
    </g>
   </g>
   <g id="matplotlib.axis_2">
    <g id="ytick_1">
     <g id="line2d_7">
      <defs>
       <path id="me07a7d9b62" d="M 0 0 
L -3.5 0 
" style="stroke: #000000; stroke-width: 0.8"/>
      </defs>
      <g>
       <use xlink:href="#me07a7d9b62" x="57.6" y="286.977294" style="stroke: #000000; stroke-width: 0.8"/>
      </g>
     </g>
     <g id="text_9">
      <!-- 0 -->
      <g transform="translate(44.2375 290.776513)scale(0.1 -0.1)">
       <use xlink:href="#DejaVuSans-30"/>
      </g>
     </g>
    </g>
    <g id="ytick_2">
     <g id="line2d_8">
      <g>
       <use xlink:href="#me07a7d9b62" x="57.6" y="256.333588" style="stroke: #000000; stroke-width: 0.8"/>
      </g>
     </g>
     <g id="text_10">
      <!-- 5 -->
      <g transform="translate(44.2375 260.132807)scale(0.1 -0.1)">
       <defs>
        <path id="DejaVuSans-35" d="M 691 4666 
L 3169 4666 
L 3169 4134 
L 1269 4134 
L 1269 2991 
Q 1406 3038 1543 3061 
Q 1681 3084 1819 3084 
Q 2600 3084 3056 2656 
Q 3513 2228 3513 1497 
Q 3513 744 3044 326 
Q 2575 -91 1722 -91 
Q 1428 -91 1123 -41 
Q 819 9 494 109 
L 494 744 
Q 775 591 1075 516 
Q 1375 441 1709 441 
Q 2250 441 2565 725 
Q 2881 1009 2881 1497 
Q 2881 1984 2565 2268 
Q 2250 2553 1709 2553 
Q 1456 2553 1204 2497 
Q 953 2441 691 2322 
L 691 4666 
z
" transform="scale(0.015625)"/>
       </defs>
       <use xlink:href="#DejaVuSans-35"/>
      </g>
     </g>
    </g>
    <g id="ytick_3">
     <g id="line2d_9">
      <g>
       <use xlink:href="#me07a7d9b62" x="57.6" y="225.689883" style="stroke: #000000; stroke-width: 0.8"/>
      </g>
     </g>
     <g id="text_11">
      <!-- 10 -->
      <g transform="translate(37.875 229.489101)scale(0.1 -0.1)">
       <use xlink:href="#DejaVuSans-31"/>
       <use xlink:href="#DejaVuSans-30" x="63.623047"/>
      </g>
     </g>
    </g>
    <g id="ytick_4">
     <g id="line2d_10">
      <g>
       <use xlink:href="#me07a7d9b62" x="57.6" y="195.046177" style="stroke: #000000; stroke-width: 0.8"/>
      </g>
     </g>
     <g id="text_12">
      <!-- 15 -->
      <g transform="translate(37.875 198.845395)scale(0.1 -0.1)">
       <use xlink:href="#DejaVuSans-31"/>
       <use xlink:href="#DejaVuSans-35" x="63.623047"/>
      </g>
     </g>
    </g>
    <g id="ytick_5">
     <g id="line2d_11">
      <g>
       <use xlink:href="#me07a7d9b62" x="57.6" y="164.402471" style="stroke: #000000; stroke-width: 0.8"/>
      </g>
     </g>
     <g id="text_13">
      <!-- 20 -->
      <g transform="translate(37.875 168.20169)scale(0.1 -0.1)">
       <use xlink:href="#DejaVuSans-32"/>
       <use xlink:href="#DejaVuSans-30" x="63.623047"/>
      </g>
     </g>
    </g>
    <g id="ytick_6">
     <g id="line2d_12">
      <g>
       <use xlink:href="#me07a7d9b62" x="57.6" y="133.758765" style="stroke: #000000; stroke-width: 0.8"/>
      </g>
     </g>
     <g id="text_14">
      <!-- 25 -->
      <g transform="translate(37.875 137.557984)scale(0.1 -0.1)">
       <use xlink:href="#DejaVuSans-32"/>
       <use xlink:href="#DejaVuSans-35" x="63.623047"/>
      </g>
     </g>
    </g>
    <g id="ytick_7">
     <g id="line2d_13">
      <g>
       <use xlink:href="#me07a7d9b62" x="57.6" y="103.115059" style="stroke: #000000; stroke-width: 0.8"/>
      </g>
     </g>
     <g id="text_15">
      <!-- 30 -->
      <g transform="translate(37.875 106.914278)scale(0.1 -0.1)">
       <defs>
        <path id="DejaVuSans-33" d="M 2597 2516 
Q 3050 2419 3304 2112 
Q 3559 1806 3559 1356 
Q 3559 666 3084 287 
Q 2609 -91 1734 -91 
Q 1441 -91 1130 -33 
Q 819 25 488 141 
L 488 750 
Q 750 597 1062 519 
Q 1375 441 1716 441 
Q 2309 441 2620 675 
Q 2931 909 2931 1356 
Q 2931 1769 2642 2001 
Q 2353 2234 1838 2234 
L 1294 2234 
L 1294 2753 
L 1863 2753 
Q 2328 2753 2575 2939 
Q 2822 3125 2822 3475 
Q 2822 3834 2567 4026 
Q 2313 4219 1838 4219 
Q 1578 4219 1281 4162 
Q 984 4106 628 3988 
L 628 4550 
Q 988 4650 1302 4700 
Q 1616 4750 1894 4750 
Q 2613 4750 3031 4423 
Q 3450 4097 3450 3541 
Q 3450 3153 3228 2886 
Q 3006 2619 2597 2516 
z
" transform="scale(0.015625)"/>
       </defs>
       <use xlink:href="#DejaVuSans-33"/>
       <use xlink:href="#DejaVuSans-30" x="63.623047"/>
      </g>
     </g>
    </g>
    <g id="ytick_8">
     <g id="line2d_14">
      <g>
       <use xlink:href="#me07a7d9b62" x="57.6" y="72.471354" style="stroke: #000000; stroke-width: 0.8"/>
      </g>
     </g>
     <g id="text_16">
      <!-- 35 -->
      <g transform="translate(37.875 76.270572)scale(0.1 -0.1)">
       <use xlink:href="#DejaVuSans-33"/>
       <use xlink:href="#DejaVuSans-35" x="63.623047"/>
      </g>
     </g>
    </g>
    <g id="ytick_9">
     <g id="line2d_15">
      <g>
       <use xlink:href="#me07a7d9b62" x="57.6" y="41.827648" style="stroke: #000000; stroke-width: 0.8"/>
      </g>
     </g>
     <g id="text_17">
      <!-- 40 -->
      <g transform="translate(37.875 45.626867)scale(0.1 -0.1)">
       <use xlink:href="#DejaVuSans-34"/>
       <use xlink:href="#DejaVuSans-30" x="63.623047"/>
      </g>
     </g>
    </g>
    <g id="text_18">
     <!-- Z -->
     <g transform="translate(31.795313 177.953)rotate(-90)scale(0.1 -0.1)">
      <defs>
       <path id="DejaVuSans-5a" d="M 359 4666 
L 4025 4666 
L 4025 4184 
L 1075 531 
L 4097 531 
L 4097 0 
L 288 0 
L 288 481 
L 3238 4134 
L 359 4134 
L 359 4666 
z
" transform="scale(0.015625)"/>
      </defs>
      <use xlink:href="#DejaVuSans-5a"/>
     </g>
    </g>
   </g>
   <g id="line2d_16">
    <path d="M 73.832727 286.59496 
L 74.918528 276.624869 
L 76.00433 279.08815 
L 77.090131 282.173931 
L 78.175932 283.625969 
L 79.261733 279.020368 
L 80.347534 269.141087 
L 81.433335 279.359189 
L 82.519137 281.015555 
L 83.604938 274.644407 
L 84.690739 284.201494 
L 85.77654 280.460409 
L 87.948142 269.31613 
L 89.033943 280.708642 
L 90.119745 285.425245 
L 91.205546 273.42837 
L 92.291347 276.563033 
L 93.377148 281.839457 
L 94.462949 281.265996 
L 95.54875 278.140361 
L 96.634552 275.738812 
L 97.720353 281.12752 
L 98.806154 273.700561 
L 99.891955 278.099982 
L 100.977756 281.150672 
L 102.063557 275.520909 
L 103.149358 276.915257 
L 104.23516 284.562233 
L 105.320961 274.81483 
L 106.406762 250.416293 
L 107.492563 99.988799 
L 108.578364 75.868651 
L 109.664165 70.125106 
L 110.749967 68.318274 
L 111.835768 70.965474 
L 112.921569 68.216567 
L 114.00737 71.091401 
L 115.093171 91.270644 
L 116.178972 117.643545 
L 117.264773 136.031593 
L 118.350575 160.615519 
L 119.436376 178.089737 
L 120.522177 191.043989 
L 121.607978 200.399758 
L 122.693779 206.321624 
L 123.77958 173.636201 
L 124.865382 113.046433 
L 125.951183 106.725536 
L 127.036984 118.110171 
L 128.122785 128.216186 
L 129.208586 159.190415 
L 130.294387 177.133054 
L 133.551791 220.783458 
L 134.637592 225.525546 
L 135.723393 226.319901 
L 136.809194 230.441658 
L 137.894995 232.924181 
L 138.980797 239.253348 
L 140.066598 233.701997 
L 141.152399 236.559977 
L 142.2382 240.015991 
L 143.324001 247.002166 
L 144.409802 242.017906 
L 145.495604 226.647396 
L 146.581405 219.894707 
L 147.667206 199.718345 
L 148.753007 199.431181 
L 149.838808 211.742272 
L 150.924609 228.121807 
L 152.01041 239.964717 
L 153.096212 238.51286 
L 154.182013 249.879095 
L 155.267814 252.950598 
L 156.353615 253.680493 
L 157.439416 262.263477 
L 158.525217 254.938445 
L 159.611019 260.546222 
L 160.69682 256.635628 
L 161.782621 259.138168 
L 162.868422 261.037779 
L 163.954223 271.796672 
L 165.040024 260.095464 
L 166.125825 260.934193 
L 167.211627 268.265608 
L 168.297428 258.315899 
L 169.383229 260.982817 
L 170.46903 267.352087 
L 171.554831 260.769117 
L 172.640632 261.840233 
L 173.726434 260.801936 
L 175.898036 266.803639 
L 176.983837 261.920708 
L 178.069638 243.295988 
L 179.155439 233.868179 
L 180.24124 246.227318 
L 181.327042 249.464066 
L 182.412843 253.713242 
L 183.498644 267.265633 
L 184.584445 258.28247 
L 185.670246 262.337313 
L 186.756047 267.861348 
L 187.841849 274.8244 
L 188.92765 268.381086 
L 190.013451 267.883702 
L 191.099252 260.086899 
L 192.185053 272.110482 
L 193.270854 268.092041 
L 194.356656 267.819867 
L 195.442457 271.734502 
L 196.528258 274.490899 
L 197.614059 274.856929 
L 198.69986 276.78093 
L 199.785661 268.275694 
L 200.871462 267.69725 
L 201.957264 272.952176 
L 203.043065 267.648282 
L 204.128866 267.4257 
L 205.214667 269.492674 
L 206.300468 268.465573 
L 207.386269 267.791999 
L 208.472071 271.758939 
L 209.557872 274.903908 
L 210.643673 268.669737 
L 211.729474 271.700104 
L 212.815275 271.95615 
L 213.901076 268.715766 
L 214.986877 268.613468 
L 216.072679 268.035594 
L 217.15848 274.205343 
L 218.244281 271.49564 
L 219.330082 274.415006 
L 220.415883 275.296603 
L 221.501684 275.117439 
L 222.587486 272.027399 
L 223.673287 281.552334 
L 224.759088 279.301508 
L 225.844889 267.23891 
L 226.93069 261.760367 
L 228.016491 269.153657 
L 229.102292 270.060685 
L 231.273895 260.202568 
L 232.359696 263.339557 
L 233.445497 267.701553 
L 234.531298 266.968677 
L 235.617099 269.576227 
L 236.702901 266.995557 
L 237.788702 281.986211 
L 238.874503 275.289341 
L 239.960304 275.009046 
L 241.046105 269.188618 
L 242.131906 266.281917 
L 243.217708 272.01096 
L 244.303509 274.705538 
L 245.38931 274.679399 
L 246.475111 274.089574 
L 247.560912 270.188933 
L 248.646713 269.248679 
L 249.732514 269.913245 
L 251.904117 280.98996 
L 252.989918 278.633439 
L 254.075719 267.063427 
L 255.16152 274.897805 
L 256.247321 274.507353 
L 257.333123 273.402709 
L 258.418924 273.974823 
L 259.504725 272.725499 
L 260.590526 275.988162 
L 261.676327 281.248794 
L 262.762128 270.156237 
L 263.847929 275.189833 
L 264.933731 274.306461 
L 266.019532 275.871882 
L 267.105333 270.721469 
L 268.191134 274.640477 
L 269.276935 273.322724 
L 270.362736 274.083654 
L 271.448538 274.606743 
L 272.534339 276.893367 
L 273.62014 274.521218 
L 274.705941 277.213826 
L 275.791742 274.150066 
L 276.877543 268.119684 
L 277.963344 275.692647 
L 279.049146 268.122006 
L 280.134947 273.029057 
L 281.220748 274.774987 
L 282.306549 268.73478 
L 283.39235 268.179598 
L 284.478151 276.90721 
L 285.563953 268.252394 
L 286.649754 275.137773 
L 287.735555 276.351421 
L 288.821356 274.501706 
L 289.907157 274.376008 
L 290.992958 280.130031 
L 292.07876 274.321634 
L 293.164561 273.34606 
L 294.250362 275.114072 
L 295.336163 282.817791 
L 296.421964 280.10538 
L 297.507765 276.081452 
L 298.593566 273.516753 
L 299.679368 275.449928 
L 300.765169 274.442668 
L 301.85097 280.385243 
L 302.936771 268.794775 
L 304.022572 273.454628 
L 305.108373 278.979352 
L 306.194175 274.887901 
L 307.279976 279.208638 
L 308.365777 269.361943 
L 309.451578 274.806697 
L 310.537379 274.874536 
L 311.62318 273.808398 
L 312.708981 280.432441 
L 313.794783 280.088225 
L 314.880584 275.304751 
L 315.966385 274.834914 
L 317.052186 280.02715 
L 318.137987 278.85648 
L 319.223788 274.73205 
L 320.30959 287.064383 
L 321.395391 273.489874 
L 322.481192 281.21424 
L 323.566993 275.640273 
L 324.652794 267.762302 
L 325.738595 272.403948 
L 326.824396 268.878466 
L 327.910198 269.907464 
L 328.995999 279.416425 
L 330.0818 281.981813 
L 331.167601 274.601153 
L 332.253402 275.627361 
L 333.339203 275.302862 
L 334.425005 276.824115 
L 335.510806 271.245077 
L 336.596607 270.732723 
L 337.682408 275.222871 
L 338.768209 274.889187 
L 339.85401 274.313764 
L 340.939811 281.367184 
L 342.025613 268.633299 
L 343.111414 279.680633 
L 344.197215 269.856729 
L 345.283016 280.598794 
L 346.368817 280.343659 
L 347.454618 282.251619 
L 348.54042 278.650811 
L 349.626221 272.819056 
L 350.712022 280.125339 
L 351.797823 276.627189 
L 352.883624 277.231909 
L 353.969425 274.907029 
L 355.055227 269.262349 
L 356.141028 278.166696 
L 357.226829 281.464159 
L 358.31263 273.034315 
L 359.398431 275.012045 
L 360.484232 281.10555 
L 361.570033 276.4504 
L 362.655835 271.253538 
L 363.741636 275.289846 
L 364.827437 275.084692 
L 365.913238 273.516888 
L 366.999039 275.864523 
L 368.08484 280.539621 
L 369.170642 278.517156 
L 370.256443 280.901918 
L 371.342244 281.989696 
L 372.428045 284.623645 
L 374.599647 268.620149 
L 375.685448 282.622806 
L 376.77125 276.765022 
L 377.857051 268.417606 
L 378.942852 279.791277 
L 380.028653 275.081729 
L 381.114454 281.024304 
L 382.200255 280.990567 
L 383.286057 271.780534 
L 384.371858 280.885041 
L 385.457659 273.392336 
L 386.54346 274.684017 
L 387.629261 282.468228 
L 388.715062 280.104327 
L 389.800863 278.625968 
L 391.972466 269.162039 
L 393.058267 279.884825 
L 394.144068 274.700335 
L 395.229869 274.185421 
L 396.31567 279.377545 
L 397.401472 277.338566 
L 398.487273 286.594679 
L 398.487273 286.594679 
" clip-path="url(#p55a6300f2e)" style="fill: none; stroke: #1f77b4; stroke-width: 1.5; stroke-linecap: square"/>
   </g>
   <g id="line2d_17">
    <path d="M 73.832727 286.655717 
L 74.918528 276.325623 
L 76.00433 279.320936 
L 77.090131 283.259635 
L 78.175932 281.756093 
L 79.261733 277.498582 
L 80.347534 274.953416 
L 81.433335 275.728639 
L 82.519137 278.366119 
L 83.604938 280.418123 
L 84.690739 280.444131 
L 85.77654 278.717021 
L 86.862341 276.648328 
L 87.948142 275.650005 
L 89.033943 276.252341 
L 90.119745 277.518948 
L 91.205546 279.707426 
L 92.291347 279.653745 
L 93.377148 281.323864 
L 94.462949 275.996178 
L 95.54875 276.835967 
L 96.634552 282.245066 
L 97.720353 282.650098 
L 98.806154 275.090298 
L 99.891955 268.586889 
L 100.977756 271.884003 
L 102.063557 285.324257 
L 103.149358 295.488 
L 104.23516 287.839281 
L 105.320961 257.521926 
L 106.406762 206.040543 
L 107.492563 145.900765 
L 108.578364 93.655689 
L 109.664165 62.499487 
L 110.749967 53.568 
L 111.835768 58.571867 
L 114.00737 87.527656 
L 115.093171 95.152877 
L 116.178972 106.664132 
L 117.264773 128.991927 
L 118.350575 159.662113 
L 119.436376 186.37825 
L 120.522177 198.549486 
L 121.607978 203.36092 
L 122.693779 188.468292 
L 124.865382 133.723238 
L 125.951183 114.091138 
L 127.036984 111.016031 
L 128.122785 126.388241 
L 130.294387 178.77715 
L 131.380189 198.115721 
L 132.46599 207.931982 
L 135.723393 230.063701 
L 136.809194 232.737877 
L 137.894995 232.379514 
L 138.980797 233.817152 
L 140.066598 234.738968 
L 141.152399 238.871865 
L 142.2382 244.291061 
L 143.324001 244.299979 
L 144.409802 239.039141 
L 147.667206 205.348943 
L 148.753007 203.671523 
L 149.838808 210.551263 
L 152.01041 235.80903 
L 153.096212 244.156053 
L 154.182013 250.496122 
L 155.267814 253.118 
L 157.439416 256.908754 
L 158.525217 257.994071 
L 159.611019 258.831527 
L 160.69682 258.531214 
L 161.782621 260.166082 
L 162.868422 262.592638 
L 163.954223 264.520744 
L 165.040024 264.173455 
L 166.125825 262.974243 
L 167.211627 263.922978 
L 168.297428 263.215436 
L 169.383229 261.535378 
L 170.46903 261.467267 
L 171.554831 261.060124 
L 172.640632 263.246937 
L 173.726434 265.086528 
L 174.812235 265.730689 
L 175.898036 261.789524 
L 176.983837 255.105037 
L 178.069638 246.507137 
L 179.155439 243.357877 
L 180.24124 243.430362 
L 181.327042 246.524854 
L 183.498644 260.800025 
L 184.584445 264.632141 
L 185.670246 266.711579 
L 186.756047 266.846833 
L 187.841849 267.888656 
L 188.92765 269.67251 
L 190.013451 268.948906 
L 191.099252 266.454919 
L 192.185053 265.78583 
L 193.270854 267.315976 
L 194.356656 269.444908 
L 195.442457 272.837631 
L 196.528258 275.181841 
L 197.614059 273.729047 
L 199.785661 271.966825 
L 200.871462 270.662698 
L 201.957264 268.923378 
L 203.043065 267.935436 
L 204.128866 268.051303 
L 205.214667 268.908643 
L 206.300468 268.728737 
L 207.386269 269.560817 
L 208.472071 270.87807 
L 209.557872 271.616395 
L 210.643673 272.512007 
L 211.729474 271.974872 
L 212.815275 269.521071 
L 213.901076 268.50691 
L 216.072679 270.627168 
L 217.15848 271.437291 
L 218.244281 271.850633 
L 219.330082 273.069837 
L 220.415883 275.289746 
L 221.501684 276.845687 
L 222.587486 277.060081 
L 223.673287 275.263899 
L 224.759088 274.549101 
L 225.844889 271.611421 
L 226.93069 268.342339 
L 228.016491 265.960191 
L 229.102292 264.835647 
L 230.188094 265.182171 
L 231.273895 264.862825 
L 232.359696 264.356243 
L 233.445497 264.110504 
L 234.531298 265.59252 
L 235.617099 269.618801 
L 236.702901 274.564484 
L 237.788702 276.310354 
L 238.874503 275.000929 
L 241.046105 270.484316 
L 242.131906 270.383856 
L 244.303509 272.71991 
L 245.38931 273.561052 
L 246.475111 272.890075 
L 247.560912 271.417173 
L 248.646713 271.251121 
L 249.732514 271.546992 
L 250.818316 274.627645 
L 251.904117 276.34893 
L 252.989918 277.227609 
L 255.16152 272.993885 
L 256.247321 272.169691 
L 257.333123 272.624723 
L 259.504725 275.806937 
L 260.590526 275.941749 
L 261.676327 275.583189 
L 263.847929 274.506665 
L 264.933731 274.849594 
L 266.019532 273.553195 
L 267.105333 272.732909 
L 268.191134 273.662989 
L 269.276935 273.565499 
L 270.362736 273.912155 
L 271.448538 275.531757 
L 273.62014 276.112625 
L 274.705941 275.266516 
L 275.791742 273.093083 
L 276.877543 272.186373 
L 280.134947 271.331064 
L 281.220748 271.600067 
L 282.306549 271.703506 
L 284.478151 271.002604 
L 285.563953 271.840934 
L 286.649754 273.923191 
L 287.735555 275.732431 
L 288.821356 276.510406 
L 289.907157 275.361557 
L 290.992958 275.056015 
L 292.07876 275.402892 
L 294.250362 277.725612 
L 295.336163 277.549583 
L 296.421964 278.301978 
L 297.507765 278.303831 
L 298.593566 276.221608 
L 299.679368 275.357019 
L 300.765169 274.063537 
L 301.85097 273.539586 
L 302.936771 274.551655 
L 304.022572 276.292531 
L 305.108373 276.217806 
L 306.194175 274.923067 
L 307.279976 275.088203 
L 308.365777 274.197586 
L 309.451578 274.023983 
L 310.537379 274.701955 
L 311.62318 275.559854 
L 312.708981 277.603301 
L 313.794783 278.586549 
L 314.880584 278.03785 
L 315.966385 276.695982 
L 317.052186 277.265608 
L 318.137987 277.671348 
L 319.223788 279.142277 
L 320.30959 280.826802 
L 321.395391 280.291377 
L 322.481192 277.931286 
L 323.566993 273.617761 
L 324.652794 270.793815 
L 325.738595 270.036254 
L 326.824396 270.338439 
L 327.910198 273.237489 
L 328.995999 275.695163 
L 330.0818 278.685829 
L 331.167601 278.305973 
L 332.253402 277.317949 
L 333.339203 275.4357 
L 334.425005 272.627067 
L 335.510806 272.593073 
L 336.596607 272.398857 
L 337.682408 274.432361 
L 338.768209 275.878388 
L 339.85401 275.391685 
L 342.025613 274.732273 
L 343.111414 275.148879 
L 345.283016 277.59955 
L 347.454618 280.356381 
L 348.54042 279.741252 
L 349.626221 278.067968 
L 350.712022 276.832819 
L 351.797823 275.819442 
L 352.883624 275.363272 
L 353.969425 275.276402 
L 355.055227 275.01177 
L 356.141028 275.721241 
L 357.226829 275.682557 
L 358.31263 277.372826 
L 359.398431 277.978185 
L 360.484232 277.400882 
L 361.570033 274.977961 
L 362.655835 274.653269 
L 363.741636 274.772711 
L 364.827437 273.456205 
L 366.999039 275.97318 
L 368.08484 278.312293 
L 369.170642 281.3055 
L 370.256443 281.310199 
L 371.342244 281.19462 
L 372.428045 280.497818 
L 373.513846 278.594289 
L 374.599647 276.396119 
L 375.685448 274.646253 
L 376.77125 274.30498 
L 377.857051 274.890142 
L 378.942852 276.193243 
L 380.028653 278.73472 
L 381.114454 279.07259 
L 382.200255 277.443087 
L 383.286057 276.744443 
L 384.371858 275.906919 
L 385.457659 276.249911 
L 387.629261 279.113092 
L 388.715062 279.409757 
L 389.800863 277.943907 
L 390.886665 275.396578 
L 391.972466 273.472083 
L 393.058267 273.647475 
L 394.144068 275.650752 
L 395.229869 277.255072 
L 396.31567 276.913143 
L 397.401472 278.115116 
L 398.487273 286.502022 
L 398.487273 286.502022 
" clip-path="url(#p55a6300f2e)" style="fill: none; stroke: #ff7f0e; stroke-width: 1.5; stroke-linecap: square"/>
   </g>
   <g id="patch_3">
    <path d="M 57.6 307.584 
L 57.6 41.472 
" style="fill: none; stroke: #000000; stroke-width: 0.8; stroke-linejoin: miter; stroke-linecap: square"/>
   </g>
   <g id="patch_4">
    <path d="M 414.72 307.584 
L 414.72 41.472 
" style="fill: none; stroke: #000000; stroke-width: 0.8; stroke-linejoin: miter; stroke-linecap: square"/>
   </g>
   <g id="patch_5">
    <path d="M 57.6 307.584 
L 414.72 307.584 
" style="fill: none; stroke: #000000; stroke-width: 0.8; stroke-linejoin: miter; stroke-linecap: square"/>
   </g>
   <g id="patch_6">
    <path d="M 57.6 41.472 
L 414.72 41.472 
" style="fill: none; stroke: #000000; stroke-width: 0.8; stroke-linejoin: miter; stroke-linecap: square"/>
   </g>
  </g>
 </g>
 <defs>
  <clipPath id="p55a6300f2e">
   <rect x="57.6" y="41.472" width="357.12" height="266.112"/>
  </clipPath>
 </defs>
</svg>
